<?xml version="1.0" encoding="utf-8"?>
<!-- Generator: Adobe Illustrator 24.0.1, SVG Export Plug-In . SVG Version: 6.00 Build 0)  -->
<svg version="1.1" id="Layer_1" xmlns="http://www.w3.org/2000/svg" xmlns:xlink="http://www.w3.org/1999/xlink" x="0px" y="0px"
	 viewBox="0 0 50 50" style="enable-background:new 0 0 50 50;" xml:space="preserve">
<style type="text/css">
	.st0{opacity:0.95;fill:#FF0068;enable-background:new    ;}
</style>
<path class="st0" d="M1,18.4h42.3v4.8c0,0-20.6-4.7-21.1,20.3H3.6c0,0-2.6,0.3-2.6-2.3V18.4z"/>
<path class="st0" d="M1.7,13.8h18.2V1.4h-8.8c0,0-1,0-1.2,0.7L1.7,13.8z"/>
<path class="st0" d="M42.7,13.8H24.5V1.4h8.8c0,0,1,0,1.2,0.7L42.7,13.8z"/>
<path class="st0" d="M44.3,36.3c-0.1-0.7-0.4-1.5-0.9-2.1l0.9-0.9l-1.9-1.9l-0.9,0.9c-0.6-0.4-1.3-0.7-2.1-0.9v-1.2h-2.6v1.2
	c-0.7,0.1-1.5,0.4-2.1,0.9l-0.9-0.9L32,33.3l0.9,0.9c-0.4,0.6-0.7,1.3-0.9,2.1h-1.2V39H32c0.1,0.7,0.4,1.5,0.9,2.1L32,42l1.9,1.9
	l0.9-0.9c0.6,0.4,1.3,0.7,2.1,0.9V45h2.6v-1.3c0.7-0.1,1.5-0.4,2.1-0.9l0.9,0.9l1.9-1.9l-0.9-0.9c0.4-0.6,0.7-1.3,0.9-2.1h1.2v-2.5
	H44.3z M38.3,40.7c-1.8,0-3.1-1.3-3.1-3.1s1.3-3.1,3.1-3.1s3.1,1.3,3.1,3.1S39.9,40.7,38.3,40.7z"/>
<path class="st0" d="M31.2,43.5c-0.3,0-0.6,0.1-0.9,0.1c-1.3-1.8-2.1-4-2.1-6.2c0-5.4,4.4-10,10-10c0.7,0,1.3,0,2.1,0.1
	c0.3,0,0.4-0.1,0.4-0.3c0-0.1-0.1-0.4-0.3-0.4c-0.7-0.1-1.5-0.1-2.2-0.1c-2.9,0-5.6,1.2-7.6,3.2s-3.2,4.7-3.2,7.6
	c0,2.5,0.9,4.8,2.3,6.8c-0.1,0.3-0.3,0.6-0.3,1s0.1,0.9,0.6,1.3c0.3,0.3,0.7,0.6,1.3,0.6c0.4,0,0.9-0.1,1.3-0.6
	c0.3-0.3,0.6-0.7,0.6-1.3c0-0.4-0.1-0.9-0.6-1.3C32.1,43.7,31.7,43.5,31.2,43.5z"/>
<path class="st0" d="M46.7,30.9c0.4-0.7,0.4-1.6-0.3-2.2c-0.3-0.3-0.7-0.6-1.3-0.6c-0.4,0-0.9,0.1-1.3,0.6c-0.3,0.3-0.6,0.7-0.6,1.3
	c0,0.4,0.1,0.9,0.6,1.3c0.3,0.3,0.7,0.6,1.3,0.6c0.3,0,0.6-0.1,0.9-0.1c1.3,1.8,2.1,4,2.1,6.2c0,5.4-4.4,10-10,10
	c-0.7,0-1.3,0-1.9-0.1c-0.3,0-0.4,0.1-0.4,0.3c0,0.3,0.1,0.4,0.3,0.4c0.7,0.1,1.5,0.1,2.2,0.1c2.9,0,5.6-1.2,7.6-3.2
	s3.2-4.7,3.2-7.6C49,35.1,48.3,32.8,46.7,30.9z"/>
<path class="st0" d="M42.1,28.4c0.1,0,0.1,0,0.3-0.1c0.1-0.1,0.1-0.1,0.1-0.3c0-0.1,0-0.1-0.1-0.3c0,0-0.1-0.1-0.3-0.1
	c-0.1,0-0.1,0-0.3,0.1c-0.1,0.1-0.1,0.1-0.1,0.3c0,0.1,0,0.1,0.1,0.3C42,28.4,42,28.4,42.1,28.4z"/>
</svg>
