<?xml version="1.0" encoding="utf-8"?>
<!-- Generator: Adobe Illustrator 24.0.1, SVG Export Plug-In . SVG Version: 6.00 Build 0)  -->
<svg version="1.1" id="Layer_1" xmlns="http://www.w3.org/2000/svg" xmlns:xlink="http://www.w3.org/1999/xlink" x="0px" y="0px"
	 viewBox="0 0 50 50" style="enable-background:new 0 0 50 50;" xml:space="preserve">
<style type="text/css">
	.st0{opacity:0.95;enable-background:new    ;}
	.st1{fill:#FF0068;}
</style>
<g class="st0">
	<path class="st1" d="M1.5,21.8c0-1.6,0-3.1,0-4.7c0-0.4,0.1-0.5,0.5-0.5c1,0,2.1,0,3.1,0c0.3,0,0.4-0.1,0.5-0.4
		c0.2-0.8,0.5-1.5,0.9-2.2c0.2-0.3,0.1-0.5-0.1-0.7c-0.8-0.7-1.5-1.5-2.3-2.2c-0.2-0.2-0.3-0.3,0-0.6C6.4,8.3,8.7,6,10.9,3.7
		c0.2-0.2,0.4-0.2,0.6,0C12.2,4.5,13,5.2,13.7,6c0.2,0.2,0.4,0.3,0.7,0.1c0.7-0.4,1.4-0.7,2.2-0.9C17,5.1,17,5,17,4.7
		c0-1.1,0-2.1,0-3.2C17,1.2,17.1,1,17.4,1c3.2,0,6.3,0,9.5,0c0.3,0,0.4,0.1,0.4,0.4c0,1,0,2.1,0,3.1c0,0.3,0.1,0.5,0.4,0.6
		c0.7,0.2,1.4,0.5,2.1,0.9c0.4,0.2,0.6,0.1,0.8-0.2c0.7-0.7,1.4-1.4,2.1-2.1c0.3-0.3,0.4-0.2,0.7,0c2.2,2.2,4.4,4.4,6.7,6.7
		c0.3,0.3,0.3,0.5,0,0.7c-0.7,0.7-1.4,1.4-2.1,2.1c-0.3,0.2-0.3,0.5-0.1,0.8c0.4,0.7,0.7,1.4,0.9,2.1c0.1,0.3,0.3,0.4,0.6,0.4
		c1,0,2.1,0,3.1,0c0.3,0,0.5,0.1,0.5,0.5c0,3.2,0,6.3,0,9.5c0,0.4-0.1,0.5-0.5,0.5c-1,0-2,0-3.1,0c-0.4,0-0.5,0.1-0.6,0.5
		c-0.4,1-0.1,0.8-1.1,0.8c-0.4,0-0.9,0-1.3,0c-0.5,0-1,0.2-1.4,0.6c-1.8,1.8-3.6,3.6-5.5,5.5c-0.4,0.2-0.5,0.6-0.5,1
		c0,0.7,0,1.4,0,2.1c0,0.3-0.1,0.5-0.4,0.6c-0.4,0.1-0.9,0.2-1.1,0.5c-0.3,0.3-0.1,0.8-0.1,1.3c0,0.7,0,1.5,0,2.2
		c0,0.3-0.1,0.5-0.4,0.5c-3.2,0-6.3,0-9.5,0c-0.4,0-0.4-0.1-0.4-0.5c0-1,0-2.1,0-3.1c0-0.3-0.1-0.5-0.4-0.6
		c-0.8-0.2-1.5-0.5-2.2-0.9c-0.3-0.2-0.5-0.1-0.7,0.1c-0.7,0.7-1.5,1.5-2.2,2.2c-0.2,0.2-0.4,0.3-0.6,0c-2.2-2.3-4.5-4.5-6.7-6.7
		c-0.2-0.2-0.3-0.4,0-0.6c0.8-0.7,1.5-1.5,2.3-2.2c0.2-0.2,0.3-0.4,0.1-0.7c-0.4-0.7-0.7-1.4-0.9-2.2C5.5,27.1,5.3,27,5,27
		c-1,0-2,0-3,0c-0.4,0-0.6-0.1-0.6-0.6C1.5,24.9,1.5,23.3,1.5,21.8z M10.9,21.8c0,6.3,5,11.3,11.3,11.3s11.4-5,11.4-11.3
		s-5-11.4-11.3-11.4C15.9,10.5,10.9,15.5,10.9,21.8z"/>
	<path class="st1" d="M40,48.5c-0.6,0-1.2,0-1.8,0c-0.3,0-0.5-0.1-0.4-0.4c0-0.1,0-0.1,0-0.2c0-1.1,0-1.1-1-1.5
		c-0.2-0.1-0.3-0.1-0.5,0.1c0,0,0,0.1-0.1,0.1c-0.3,0.3-0.6,0.9-1,0.8c-0.4,0-0.6-0.5-1-0.9c-0.6-0.6-1.3-1.3-1.9-1.9
		c-0.2-0.2-0.2-0.3,0-0.5c0.1-0.1,0.2-0.1,0.2-0.2c0.8-0.8,0.8-0.8,0.3-1.8c-0.1-0.2-0.3-0.2-0.5-0.2c-0.4,0-1,0.2-1.2-0.1
		c-0.3-0.3-0.1-0.9-0.1-1.3c0-0.9,0-1.7,0-2.6c0-0.3,0.1-0.5,0.4-0.5c0.1,0,0.2,0,0.4,0c0.6,0.1,1-0.1,1.2-0.8
		c0.1-0.4,0.1-0.7-0.2-0.9c-0.8-0.7-0.8-0.8,0-1.5c0.7-0.7,1.4-1.4,2.1-2.1c0.2-0.3,0.4-0.3,0.6,0c0.1,0.1,0.2,0.2,0.3,0.3
		c0.4,0.5,0.8,0.5,1.3,0.3s0.6-0.4,0.6-0.9c0-1.1,0-1.1,1-1.1s2,0,3,0c0.3,0,0.4,0.1,0.4,0.4c0,0.1,0,0.2,0,0.4
		c-0.1,0.7,0.1,1.1,0.8,1.3c0.4,0.1,0.6,0.1,0.9-0.2c0.3-0.3,0.5-0.8,0.8-0.7c0.3,0,0.6,0.5,0.8,0.8c0.7,0.6,1.3,1.3,2,1.9
		c0.3,0.2,0.3,0.4,0,0.7c-0.1,0-0.1,0.1-0.1,0.1c-0.8,0.8-0.8,0.8-0.3,1.8c0.1,0.2,0.3,0.2,0.4,0.2c0.4,0,1-0.2,1.3,0.1
		s0.1,0.9,0.1,1.4c0,0.9,0,1.7,0,2.6c0,0.3-0.1,0.4-0.4,0.4c-0.1,0-0.2,0-0.3,0c-0.8-0.2-1.3,0.1-1.5,0.9c-0.1,0.3,0,0.4,0.1,0.6
		c0.3,0.3,0.8,0.5,0.8,0.9s-0.5,0.6-0.8,0.9c-0.6,0.7-1.3,1.3-1.9,2c-0.2,0.2-0.3,0.2-0.5,0s-0.4-0.4-0.6-0.6
		c-0.2-0.3-0.5-0.3-0.8-0.2c-0.8,0.4-0.8,0.3-0.8,1.2c0,0.8,0,0.8-0.8,0.8C40.9,48.5,40.5,48.5,40,48.5z M35.1,39.6
		c0,2.7,2.2,4.9,4.9,4.9s4.8-2.2,4.9-4.8c0-2.7-2.2-4.9-4.9-4.9C37.3,34.7,35.1,36.9,35.1,39.6z"/>
	<path class="st1" d="M26.3,25.3c0-2,0-4.1,0-6.1c0-0.9-0.1-0.8,0.8-0.8c1,0,1.9,0,2.9,0c1.4,0,2.3,0.9,2.3,2.3
		c0,1.3-0.9,2.3-2.2,2.4c-0.5,0-1.1,0-1.6,0c-0.3,0-0.4,0.1-0.4,0.4c0,0.7,0,1.3,0,2c0,0.3-0.1,0.4-0.4,0.4c-0.9,0-1.9,0-2.8,0
		c-0.3,0-0.4-0.1-0.5-0.3c-0.4-0.7-0.9-1.4-1.3-2s-0.9-0.7-1.6-0.6c-0.3,0-0.2,0.2-0.2,0.4c0,0.7,0,1.4,0,2.2c0,0.3-0.1,0.4-0.4,0.4
		c-1.2,0-1.2,0-1.2-1.2c0-1.9,0-3.8,0-5.7c0-0.4,0.1-0.6,0.6-0.6c1.1,0,2.3,0,3.4,0s1.8,0.6,2.1,1.6c0.3,1-0.1,1.8-0.9,2.4
		c-0.1,0.1-0.4,0.1-0.2,0.4c0.4,0.4,0.6,0.8,0.9,1.2C25.9,24.5,26.2,25,26.3,25.3C26.2,25.3,26.2,25.3,26.3,25.3z M29,19.9
		c-0.2,0-0.5,0-0.7,0c-0.6,0.1-0.2,0.6-0.3,0.9c0,0.2-0.3,0.7,0.3,0.7c0.5,0,1,0,1.5,0c0.6-0.1,0.8-0.4,0.8-0.9s-0.3-0.7-0.9-0.7
		C29.4,19.9,29.2,19.9,29,19.9z M22.2,21.4c0.4,0,0.7,0,1.1-0.1S24,21,24,20.6c0-0.5-0.3-0.6-0.7-0.7c-0.5,0-1.1,0-1.6,0
		c-0.4,0-0.4,0.1-0.4,0.5C21.2,21.4,21.1,21.4,22.2,21.4z"/>
	<path class="st1" d="M13.3,22.1c0-1.1,0-2.1,0-3.2c0-0.4,0.1-0.5,0.5-0.5c1.6,0,3.1,0,4.7,0c0.4,0,0.5,0.1,0.5,0.5c0,1,0,1-1,1
		c-0.8,0-1.7,0-2.5,0c-0.3,0-0.5,0.1-0.5,0.4c0,1.1-0.1,0.9,0.9,0.9c0.8,0,1.6,0,2.3,0c0.4,0,0.5,0.1,0.5,0.5c0,1,0,1-1,1
		c-0.8,0-1.6,0-2.3,0c-0.3,0-0.4,0.1-0.4,0.4c-0.1,1.2-0.1,1.2,1.2,1.2c0.8,0,1.7,0,2.5,0c0.3,0,0.5,0.1,0.5,0.5
		c0,1.1,0,1.1-1.1,1.1c-1.4,0-2.9,0-4.3,0c-0.4,0-0.5-0.1-0.5-0.5C13.3,24.3,13.3,23.2,13.3,22.1z"/>
</g>
</svg>
