<?xml version="1.0" encoding="utf-8"?>
<!-- Generator: Adobe Illustrator 24.0.1, SVG Export Plug-In . SVG Version: 6.00 Build 0)  -->
<svg version="1.1" id="Layer_1" xmlns="http://www.w3.org/2000/svg" xmlns:xlink="http://www.w3.org/1999/xlink" x="0px" y="0px"
	 viewBox="0 0 50 50" style="enable-background:new 0 0 50 50;" xml:space="preserve">
<style type="text/css">
	.st0{opacity:0.95;enable-background:new    ;}
	.st1{fill:#FF0068;}
</style>
<g class="st0">
	<g>
		<path class="st1" d="M5.6,21.9H2.7c-0.8,0-1.4,0.6-1.4,1.4V40c0,0.8,0.6,1.4,1.4,1.4h2.8c2.3,0,4.1-1.8,4.1-4.1V26.2
			C9.7,23.9,7.8,21.9,5.6,21.9z M5.6,30.3c-0.8,0-1.4-0.6-1.4-1.4s0.6-1.4,1.4-1.4S7,28.1,7,28.9C7,29.7,6.4,30.3,5.6,30.3z"/>
	</g>
</g>
<g class="st0">
	<g>
		<path class="st1" d="M47.8,22.4c-1.2-0.8-2.7-0.6-3.6,0.4l-7.6,9.3C36.1,32.6,35,33,34.5,33c-3,0,0.9,0-8,0c-0.5,0-1,0.3-1.3,0.8
			c-0.4,0.6-1.2,0.9-1.8,0.6c-0.6-0.4-0.9-1.2-0.6-1.8c0.6-1.4,2.2-2.3,3.8-2.3h6.9c1.3,0,2.6-0.8,3-2.1c0.5-1.8-0.9-3.6-2.7-3.6
			h-4.1c-1,0-1-0.1-1.9-0.9c-3.4-3-11.3-1.6-14.9,0.9c0,0,0,0,0,0.1v13.8c0,0,0,0,0,0.1c1.6,0.6,6.1,2.8,7.8,2.8h13.2
			c2.6,0,5.2-1.3,6.7-3.4l8.2-11.6C49.2,25.2,48.9,23.3,47.8,22.4z"/>
	</g>
</g>
<g class="st0">
	<g>
		<path class="st1" d="M25.2,18c-0.8,0.3-2.1,0.6-3.5,0.6c-1.9,0-3.2-0.5-4.3-1.4c-0.9-0.9-1.6-2.3-1.4-3.8C16,9.9,18.6,8,22,8
			c1.3,0,2.3,0.3,2.8,0.5l-0.5,1.9C23.8,10.1,23,10,21.8,10c-1.9,0-3.5,1.2-3.5,3.4s1.3,3.5,3.2,3.5c0.5,0,1,0,1.2-0.1v-2.2h-1.6
			v-2.2H25V18H25.2z"/>
		<path class="st1" d="M27.2,16.1c0.6,0.4,1.6,0.6,2.6,0.6s1.7-0.4,1.7-1.2c0-0.6-0.5-1-1.8-1.4c-1.7-0.6-2.8-1.6-2.8-3.1
			c0-1.8,1.6-3.1,4-3.1c1.2,0,2.1,0.3,2.7,0.5L33,10.2c-0.4-0.3-1.2-0.5-2.2-0.5s-1.6,0.5-1.6,1c0,0.6,0.6,0.9,1.9,1.4
			c1.8,0.6,2.7,1.7,2.7,3.1c0,1.8-1.3,3.2-4.3,3.2c-1.2,0-2.3-0.3-3-0.6L27.2,16.1z"/>
		<path class="st1" d="M37.4,10h-2.8V8.1h8V10h-2.8v8.4h-2.3V10H37.4z"/>
	</g>
</g>
</svg>
