<?xml version="1.0" encoding="utf-8"?>
<!-- Generator: Adobe Illustrator 24.0.1, SVG Export Plug-In . SVG Version: 6.00 Build 0)  -->
<svg version="1.1" id="Layer_1" xmlns="http://www.w3.org/2000/svg" xmlns:xlink="http://www.w3.org/1999/xlink" x="0px" y="0px"
	 viewBox="0 0 50 50" style="enable-background:new 0 0 50 50;" xml:space="preserve">
<style type="text/css">
	.st0{opacity:0.95;enable-background:new    ;}
	.st1{fill:#FF0068;}
</style>
<g class="st0">
	<path class="st1" d="M11.5,17.4H13c-2.1,0-4,1.2-4.8,3H3.1c-0.4,0-0.8-0.3-0.8-0.8v-1.5c0-0.4,0.3-0.8,0.8-0.8h2.3L11.5,17.4
		L11.5,17.4z"/>
	<path class="st1" d="M17.6,17.4h6.1h3h6.1h6.1H45h2.3c0.4,0,0.8,0.3,0.8,0.8v1.5c0,0.4-0.3,0.8-0.8,0.8H17.9c-0.9-1.8-2.7-3-4.8-3
		L17.6,17.4L17.6,17.4z"/>
	<path class="st1" d="M19.9,36.4h-3.8v-3.8L19.9,36.4z"/>
	<g>
		<path class="st1" d="M17.6,14.4v3H13h-1.5v-3H17.6z"/>
		<path class="st1" d="M34.3,31.1h6.1v3h-6.1V31.1z"/>
	</g>
	<path class="st1" d="M26,48.6h22.8V30.3H26V48.6z M27.5,31.8h6.1v3h7.6v-3h6.1V47H27.5V31.8z"/>
	<path class="st1" d="M44.2,44h1.5v1.5h-1.5V44z"/>
	<path class="st1" d="M41.2,44h1.5v1.5h-1.5V44z"/>
	<path class="st1" d="M38.1,44h1.5v1.5h-1.5V44z"/>
	<path class="st1" d="M47.3,16.6h-1.5V1.4H26v15.2h-1.5V1.4H4.7v15.2H3.1c-0.8,0-1.5,0.7-1.5,1.5v1.5c0,0.8,0.7,1.5,1.5,1.5h4
		c-0.1,0.5-0.2,1-0.2,1.5c0,2.1,1.1,4,2.7,5.1c-4.6,1.5-8,5.8-8,11c0,1.6,0.9,2.9,2.3,3.5v6.4h20.5v-9.9c0-5.1-3.4-9.5-8.1-10.9
		c1.6-1.1,2.7-3,2.7-5.1c0-0.5-0.1-1-0.2-1.5h28.4c0.8,0,1.5-0.7,1.5-1.5v-1.5C48.8,17.3,48.1,16.6,47.3,16.6z M33.6,2.9h4.6v1.5
		h-4.6V2.9z M27.5,2.9h4.6v3h7.6v-3h4.6v13.7h-4.6v-3.1h-7.6v3h-4.6C27.5,16.5,27.5,2.9,27.5,2.9z M12.3,2.9h4.6v1.5h-4.6
		C12.3,4.4,12.3,2.9,12.3,2.9z M6.2,2.9h4.6v3h7.6v-3H23v13.7h-4.6v-3.1h-7.6v3H6.2V2.9z M5.4,42.5h3v4.6h-3
		C5.4,47.1,5.4,42.5,5.4,42.5z M12.7,37.2H10v-3.8h5.3v3.8h3.8v9.9H10v-4.6h2.7c1.5,0,2.7-1.2,2.7-2.7
		C15.3,38.4,14.1,37.2,12.7,37.2z M22.9,38.7v8.4h-2.3v-11l-4.3-4.3H8.5v5.3H6.2v1.5h6.5c0.6,0,1.1,0.5,1.1,1.1s-0.5,1.1-1.1,1.1
		H5.4c-1.2,0-2.3-1-2.3-2.3c0-5.4,4.4-9.9,9.9-9.9S22.9,33.2,22.9,38.7z M13,27.3c-2.5,0-4.6-2-4.6-4.6s2-4.6,4.6-4.6s4.6,2,4.6,4.6
		S15.6,27.3,13,27.3z"/>
	<path class="st1" d="M38.1,41h7.6v1.5h-7.6V41z"/>
</g>
</svg>
