<?xml version="1.0" encoding="utf-8"?>
<!-- Generator: Adobe Illustrator 24.0.1, SVG Export Plug-In . SVG Version: 6.00 Build 0)  -->
<svg version="1.1" id="Layer_1" xmlns="http://www.w3.org/2000/svg" xmlns:xlink="http://www.w3.org/1999/xlink" x="0px" y="0px"
	 viewBox="0 0 50 50" style="enable-background:new 0 0 50 50;" xml:space="preserve">
<style type="text/css">
	.st0{opacity:0.95;enable-background:new    ;}
	.st1{fill:#FF0068;}
</style>
<g class="st0">
	<g>
		<path class="st1" d="M32.4,4.2c-3.1-1.9-7-1.9-10.1,0l-0.8-1.3c3.6-2.3,8.2-2.3,11.8,0L32.4,4.2z"/>
		<path class="st1" d="M17.2,16.3c-0.6-1.3-0.8-2.8-0.8-4.2H18c0,1.2,0.2,2.5,0.7,3.6L17.2,16.3z"/>
		<path class="st1" d="M27.3,23v-1.6c1.2,0,2.5-0.2,3.6-0.7l0.6,1.4C30.2,22.8,28.8,23,27.3,23z"/>
		<path class="st1" d="M37.4,16.3L36,15.7c0.5-1.1,0.7-2.4,0.7-3.6h1.6C38.3,13.5,38,15,37.4,16.3z"/>
	</g>
	<g>
		<path class="st1" d="M27.3,19.9c-4.3,0-7.8-3.5-7.8-7.8s3.5-7.8,7.8-7.8s7.8,3.5,7.8,7.8S31.6,19.9,27.3,19.9z M27.3,5.9
			c-3.4,0-6.2,2.8-6.2,6.2s2.8,6.2,6.2,6.2s6.2-2.8,6.2-6.2C33.6,8.7,30.8,5.9,27.3,5.9z"/>
		<path class="st1" d="M27.3,16.4c-0.8,0-1.5-0.3-2.2-0.7c-0.6-0.5-1-1.2-1-2h1.6c0,0.3,0.2,0.6,0.4,0.8c0.7,0.5,1.6,0.5,2.3,0
			c0.2-0.2,0.4-0.5,0.4-0.8c0-0.1-0.1-0.3-0.3-0.3l-3-1c-0.8-0.2-1.4-1-1.4-1.8s0.4-1.5,1-2s1.4-0.8,2.2-0.7c1.6-0.1,3,1.1,3.1,2.7
			h-1.6c0-0.6-0.7-1.2-1.6-1.2c-0.4,0-0.8,0.1-1.1,0.4c-0.2,0.2-0.4,0.5-0.4,0.8c0,0.1,0.1,0.3,0.3,0.3l3,1c0.8,0.2,1.4,1,1.4,1.8
			s-0.4,1.5-1,2C28.9,16.1,28.1,16.4,27.3,16.4z"/>
		<rect x="26.5" y="7.4" class="st1" width="1.6" height="9.4"/>
	</g>
	<path class="st1" d="M22.3,4.2c3.1-1.9,7-1.9,10.1,0l0.8-1.3c-3.6-2.3-8.2-2.3-11.8,0L22.3,4.2z"/>
	<path class="st1" d="M16.4,12.1c0,1.4,0.3,2.9,0.8,4.2l1.4-0.6c-0.5-1.1-0.7-2.4-0.7-3.6L16.4,12.1L16.4,12.1z"/>
	<path class="st1" d="M27.3,23c1.4,0,2.9-0.3,4.2-0.8l-0.6-1.4c-1.1,0.5-2.4,0.7-3.6,0.7V23L27.3,23z"/>
	<path class="st1" d="M37.4,16.3c0.6-1.3,0.8-2.8,0.8-4.2h-1.6c0,1.2-0.2,2.5-0.7,3.6L37.4,16.3z"/>
	<path class="st1" d="M35.1,12.1c0-4.3-3.5-7.8-7.8-7.8s-7.8,3.5-7.8,7.8s3.5,7.8,7.8,7.8S35.1,16.4,35.1,12.1z M27.3,18.4
		c-3.4,0-6.2-2.8-6.2-6.2S23.9,6,27.3,6s6.2,2.8,6.2,6.2C33.6,15.6,30.8,18.3,27.3,18.4z"/>
	<path class="st1" d="M28.9,10.5h1.6c-0.1-1.3-1-2.4-2.3-2.6V7.4h-1.6v0.5c-1.3,0.2-2.3,1.3-2.3,2.6c0,0.8,0.6,1.6,1.4,1.8l0.9,0.3
		v2c-0.4-0.1-0.7-0.5-0.8-1h-1.6c0.1,1.3,1,2.4,2.3,2.6v0.5h1.6v-0.5c1.3-0.2,2.3-1.3,2.3-2.6c0-0.8-0.6-1.6-1.4-1.8l-0.9-0.3v-2
		C28.6,9.7,28.8,10.1,28.9,10.5z M28.6,13.3c0.2,0.1,0.3,0.2,0.3,0.3c0,0.5-0.3,0.9-0.8,1v-1.5L28.6,13.3z M26.1,10.9
		c-0.2-0.1-0.3-0.2-0.3-0.3c0-0.5,0.3-0.9,0.8-1V11L26.1,10.9z"/>
	<path class="st1" d="M38,17c-0.3-0.3-0.8-0.3-1.1,0L27,27L16.2,16.2c-0.3-0.3-0.8-0.3-1.1,0L4.9,26.4c-0.3,0.3-0.3,0.8,0,1.1
		l5.7,5.7h-9v1.6h10.1c0.1,0,0.2,0,0.3-0.1l5.3-2.3h11.6v3.1h-8.6c-0.4,0-0.8,0.3-0.8,0.8c0,0.3,0.2,0.6,0.5,0.7l10.1,4.7
		c0.3,0.1,0.6,0.1,0.8-0.1l13.5-9.8l2.1,2.1L30.9,47.2h-4.3L12,41.8c-0.1,0-0.2,0-0.3,0H1.6v1.6h10l14.7,5.4c0.1,0,0.2,0,0.3,0h4.7
		c0.2,0,0.4-0.1,0.5-0.2l16.4-14.1c0.3-0.3,0.4-0.8,0.1-1.1l0,0l-2.6-2.6l2.6-2.6c0.3-0.3,0.3-0.8,0-1.1L38,17z M15.6,17.9
		l12.9,12.9h-3c-0.7-2.3-2.8-3.9-5.2-3.9c-2.8,0-5.1,2.1-5.4,4.8l-2.4,1l-5.9-5.9L15.6,17.9z M34.6,34.7l-4.1-4.1
		c0.3-1.7,1.8-2.9,3.4-2.9c1.9,0,3.5,1.6,3.5,3.5C37.5,32.9,36.3,34.4,34.6,34.7z M36.8,35.5L36,36l-0.1-0.1
		C36.2,35.8,36.5,35.6,36.8,35.5L36.8,35.5L36.8,35.5z M17.2,30.8c-0.1,0-0.2,0-0.3,0.1L16.7,31c0.8-2,3-3,5-2.2
		c1,0.4,1.8,1.1,2.2,2.1L17.2,30.8L17.2,30.8z M30.4,40.1l-6.5-3h5.8c0.4,0,0.8-0.3,0.8-0.8v-3.6l4.2,4.2L30.4,40.1z M44,30.2
		l-6.9,5c2.2-1.8,2.6-4.9,0.8-7.1s-4.9-2.6-7.1-0.8c-0.7,0.5-1.2,1.2-1.5,2L28,28.1l9.4-9.4l9,9L44,30.2z"/>
</g>
</svg>
