<?xml version="1.0" encoding="utf-8"?>
<!-- Generator: Adobe Illustrator 24.0.1, SVG Export Plug-In . SVG Version: 6.00 Build 0)  -->
<svg version="1.1" id="Layer_1" xmlns="http://www.w3.org/2000/svg" xmlns:xlink="http://www.w3.org/1999/xlink" x="0px" y="0px"
	 viewBox="0 0 50 50" style="enable-background:new 0 0 50 50;" xml:space="preserve">
<style type="text/css">
	.st0{opacity:0.95;enable-background:new    ;}
	.st1{display:none;fill:#FF0068;}
	.st2{fill:#FF0068;}
</style>
<g id="XMLID_2_" class="st0">
	<path class="st1" d="M47.2,21.2c1.5,2.1,1.5,5,0,7.1c-0.7,1.1-1.1,2.3-1.1,3.6c0,0.1,0,0.2,0,0.3l0,0c0.2,2.6-1.3,5-3.7,6.2l0,0
		c-1.3,0.6-2.3,1.6-3,2.9l0,0c-1.2,2.3-3.7,3.7-6.4,3.5l0,0c-1.4-0.1-2.9,0.3-4.1,1.1c-2.3,1.4-5.2,1.4-7.4,0
		c-1.1-0.7-2.4-1.1-3.7-1.1c-0.1,0-0.2,0-0.4,0l0,0c-2.7,0.1-5.2-1.2-6.4-3.5l0,0c-0.7-1.2-1.7-2.3-3-2.9l0,0
		c-2.4-1.2-3.8-3.6-3.7-6.2l0,0c0.1-1.4-0.3-2.8-1.1-3.9c-1.5-2.1-1.5-5,0-7.1c0.7-1.1,1.1-2.3,1.1-3.6c0-0.1,0-0.2,0-0.3l0,0
		c-0.1-2.6,1.3-5,3.7-6.2l0,0c1.3-0.6,2.3-1.6,3-2.9l0,0c1.2-2.3,3.7-3.7,6.4-3.5l0,0c1.4,0.1,2.9-0.3,4.1-1.1
		c2.3-1.4,5.2-1.4,7.4,0c1.2,0.8,2.6,1.1,4.1,1.1l0,0c2.7-0.1,5.2,1.2,6.4,3.5l0,0c0.7,1.2,1.7,2.3,3,2.9l0,0
		c2.4,1.1,3.8,3.5,3.7,6.2l0,0C46.1,18.7,46.4,20.1,47.2,21.2z M37,31.5c0-3-2.1-5.4-4.6-5.4s-4.6,2.4-4.6,5.4s2.1,5.4,4.6,5.4
		S37,34.5,37,31.5z M22.6,18.1c0-3-2.1-5.4-4.6-5.4s-4.6,2.4-4.6,5.4s2.1,5.4,4.6,5.4S22.6,21.1,22.6,18.1z"/>
	<g>
		<path class="st2" d="M2.9,32.2L2.9,32.2L2.9,32.2c-0.2,3.2,1.6,6.1,4.4,7.5l0,0l0,0c1,0.5,1.8,1.3,2.4,2.3l0,0l0,0
			c1.5,2.8,4.4,4.4,7.6,4.3l0,0l0,0c1.2-0.1,2.3,0.2,3.3,0.9c2.7,1.7,6.2,1.7,8.9,0c1-0.6,2.1-0.9,3.3-0.9l0,0l0,0
			c3.2,0.2,6.2-1.5,7.6-4.3l0,0l0,0c0.5-1,1.3-1.8,2.4-2.3l0,0l0,0c2.9-1.4,4.6-4.3,4.4-7.4l0,0l0,0c0-0.1,0-0.2,0-0.3
			c0-1,0.3-2,0.9-2.8c1.8-2.6,1.8-6.1,0-8.7c-0.6-0.9-0.9-2-0.9-3.1l0,0l0,0c0.2-3.1-1.6-6.1-4.4-7.4l0,0l0,0
			c-1-0.5-1.8-1.3-2.4-2.3l0,0c-1.5-2.8-4.4-4.4-7.6-4.3l0,0l0,0c-1.2,0.1-2.3-0.2-3.3-0.9c-2.7-1.7-6.2-1.7-8.9,0
			c-1,0.6-2.1,0.9-3.3,0.9l0,0l0,0c-3.2-0.2-6.2,1.5-7.6,4.3l0,0c-0.5,1-1.3,1.8-2.4,2.3l0,0l0,0c-2.9,1.3-4.6,4.3-4.4,7.4l0,0l0,0
			c0,0.1,0,0.2,0,0.3c0,1-0.3,2-0.9,2.8c-1.8,2.6-1.8,6.1,0,8.7C2.7,30,3,31.1,2.9,32.2z M4.3,22c0.9-1.3,1.4-2.8,1.3-4.3
			c0-0.1,0-0.3,0-0.4l0,0l0,0c-0.1-2.1,1.1-4,2.9-4.8l0,0l0,0c1.5-0.7,2.8-1.9,3.6-3.5l0,0l0,0c1-1.9,3-3,5.1-2.8l0,0l0,0
			c1.7,0.1,3.4-0.3,4.9-1.3c1.8-1.2,4.2-1.2,6,0c1.5,0.9,3.2,1.4,4.9,1.3l0,0l0,0c2.1-0.1,4.1,1,5.1,2.8l0,0l0,0
			c0.8,1.5,2.1,2.7,3.6,3.5l0,0l0,0c1.9,0.9,3,2.8,2.9,4.8l0,0l0,0c-0.1,1.7,0.4,3.4,1.3,4.8c1.2,1.7,1.2,3.9,0,5.6
			C45,29,44.5,30.5,44.6,32c0,0.1,0,0.3,0,0.4l0,0l0,0c0.1,2.1-1.1,4-2.9,4.8l0,0c-1.5,0.7-2.8,1.9-3.6,3.5l0,0l0,0
			c-1,1.8-3,2.9-5.1,2.8l0,0l0,0c-1.7-0.1-3.4,0.3-4.8,1.3c-1.8,1.2-4.2,1.2-6,0c-1.3-0.8-2.9-1.3-4.4-1.3c-0.2,0-0.3,0-0.4,0l0,0
			l0,0c-2.1,0.1-4.1-1-5.1-2.8l0,0l0,0c-0.8-1.5-2.1-2.7-3.6-3.5l0,0c-1.9-0.9-3-2.8-2.9-4.8l0,0l0,0c0.1-1.7-0.4-3.4-1.3-4.8
			C3.1,25.9,3.1,23.7,4.3,22z"/>
		<path id="XMLID_10_" class="st2" d="M16.5,38.7c0.6,0.4,1.5,0.2,1.9-0.4l15.9-25.5c0.3-0.4,0.3-0.9,0.1-1.3s-0.7-0.7-1.2-0.7
			S32.3,11,32,11.5L16.1,36.8C15.7,37.4,15.9,38.3,16.5,38.7z"/>
		<path class="st2" d="M18,24.8c3.3,0,5.9-3,5.9-6.8s-2.7-6.8-5.9-6.8s-5.9,3-5.9,6.8S14.7,24.8,18,24.8z M18,14
			c1.8,0,3.2,1.8,3.2,4.1c0,2.2-1.5,4.1-3.2,4.1c-1.8,0-3.2-1.8-3.2-4.1S16.2,14,18,14z"/>
		<path class="st2" d="M26.5,31.5c0,3.7,2.7,6.8,5.9,6.8s5.9-3,5.9-6.8s-2.7-6.8-5.9-6.8S26.5,27.7,26.5,31.5z M35.7,31.5
			c0,2.2-1.5,4.1-3.2,4.1c-1.8,0-3.2-1.8-3.2-4.1s1.5-4.1,3.2-4.1C34.2,27.4,35.7,29.2,35.7,31.5z"/>
	</g>
</g>
</svg>
