<?xml version="1.0" encoding="utf-8"?>
<!-- Generator: Adobe Illustrator 24.0.1, SVG Export Plug-In . SVG Version: 6.00 Build 0)  -->
<svg version="1.1" id="Layer_1" xmlns="http://www.w3.org/2000/svg" xmlns:xlink="http://www.w3.org/1999/xlink" x="0px" y="0px"
	 viewBox="0 0 50 50" style="enable-background:new 0 0 50 50;" xml:space="preserve">
<style type="text/css">
	.st0{opacity:0.95;enable-background:new    ;}
	.st1{fill:#FF0068;}
</style>
<g class="st0">
	<path class="st1" d="M29.4,42.6c0.8,2.2,0.4,3.9-1.1,5s-3.6,1.1-5-0.2s-1.7-3.3-0.7-4.9c0.2-0.4,0.3-0.5-0.1-0.8
		c-1.1-0.7-1.6-1.8-1.9-3c-1.2-4.7-2.4-9.4-3.5-14.1c-1.5-6-3-12-4.4-17.9c-0.1-0.3-0.2-0.5-0.3-0.8c-0.6-1.8-1.3-2.3-3.2-2.4
		c-1.4-0.1-2.8,0-4.3,0C4.6,3.5,4.5,3.6,4.4,4C4.1,5,3.2,5.6,2.1,5.4C1.2,5.2,0.5,4.3,0.6,3.3s0.9-1.8,2-1.8c2.3,0,4.6,0,7,0
		c2.1,0,3.6,1,4.4,3c0.7,1.8,1,3.7,1.5,5.6c0.3,1.1,0.6,2.2,0.8,3.3c0.1,0.6,0.4,0.7,1,0.7c9.6,0,19.1,0,28.7,0c0.3,0,0.5,0,0.8,0.1
		c0.7,0.2,0.9,0.7,0.6,1.5c-1.5,3.9-3,7.9-4.4,11.8c-0.2,0.5-0.6,1.1-0.5,1.5c0.1,0.5,0.9,0.4,1.4,0.7c4.3,2,6.6,6.8,5.4,11.3
		c-1.2,4.5-5.5,7.7-10.1,7.3c-3.4-0.3-6.1-2-7.8-4.9C30.6,42.5,30.6,42.5,29.4,42.6z M47.4,38.7c0-4.3-3.5-7.8-7.8-7.8
		s-7.8,3.5-7.9,7.8c0,4.3,3.5,7.8,7.8,7.8C44,46.5,47.4,43,47.4,38.7z M30.6,34.8c-3,0-6,0-9.1,0c0.4,1.4,0.6,2.8,1.1,4.1
		c0.3,0.9,0.9,1.5,1.9,1.6c1.8,0.2,3.7,0,5.5,0.1C29.7,38.5,29.8,37.3,30.6,34.8z M25.9,46.5c1.1,0,2-0.8,2-1.9c0-1-0.8-2-1.9-2
		s-2,0.8-2,1.9C24,45.6,24.9,46.4,25.9,46.5z"/>
	<path class="st1" d="M20.3,12.3c2.2-2.2,4.2-4.2,6.3-6.3c0.4-0.4,0.9-0.4,1.3,0c2.1,2.1,4.2,4.2,6.3,6.3
		C29.6,12.3,25,12.3,20.3,12.3z"/>
	<path class="st1" d="M42.1,12.3c-1.7,0-3.2,0-4.7,0c-0.3,0-0.4-0.1-0.6-0.3c-1.3-1.3-2.6-2.6-3.9-3.9c-0.3-0.3-0.3-0.4,0-0.7
		c0.5-0.5,1-1,1.5-1.4s1-0.5,1.4,0C37.9,8,40,10.1,42.1,12.3z"/>
	<path class="st1" d="M40.6,36.1c0,0.2,0,0.3,0,0.5c0,0.9,0.2,1.9-0.1,2.6c-0.3,0.7-1.3,1.1-2,1.6c-0.6,0.5-1.3,0.9-1.9,1.4
		c-0.3,0.2-0.4,0.2-0.6-0.1c-1-1.2-1-1.2,0.2-2.1c0.8-0.6,1.8-1,2.2-1.8s0.1-1.9,0.1-2.9c0-0.7,0-1.4,0-2.1c0-0.3,0.1-0.5,0.4-0.4
		c0,0,0,0,0.1,0c1.5-0.1,1.5-0.1,1.5,1.4C40.6,34.8,40.6,35.5,40.6,36.1z"/>
</g>
</svg>
