<?xml version="1.0" encoding="utf-8"?>
<!-- Generator: Adobe Illustrator 24.0.1, SVG Export Plug-In . SVG Version: 6.00 Build 0)  -->
<svg version="1.1" id="Layer_1" xmlns="http://www.w3.org/2000/svg" xmlns:xlink="http://www.w3.org/1999/xlink" x="0px" y="0px"
	 viewBox="0 0 50 50" style="enable-background:new 0 0 50 50;" xml:space="preserve">
<style type="text/css">
	.st0{opacity:0.95;enable-background:new    ;}
	.st1{fill:#FF0068;}
</style>
<g id="returns" class="st0">
	<path class="st1" d="M27.6,1c1,0.1,2,0.2,3,0.4C37.6,3,42.9,6.9,46,13.3c4,8.1,3.3,16-2.1,23.3c-3.5,4.9-8.4,7.7-14.4,8.6
		c-0.9,0.1-1.8,0.2-2.8,0.3c0.7,0.6,1.3,1.2,1.9,1.7c-0.4,0.4-0.8,0.7-1.1,1.1c-1.2-1.2-2.4-2.4-3.6-3.6c1.2-1.2,2.4-2.4,3.6-3.6
		c0.3,0.3,0.6,0.7,1,1.1c-0.5,0.4-1,1-1.7,1.6c8.8-0.1,18.6-6.9,19.8-18.5C48,13.6,39.1,3.2,27.3,2.6C14.9,1.9,4.5,12.4,5.6,25.1
		c-0.5,0.1-1,0.1-1.5,0.2C4,25.1,4,24.9,4,24.7C3.7,15.9,7.2,9.1,14.6,4.3c2.9-1.9,6.2-2.9,9.7-3.2c0.1,0,0.3-0.1,0.4-0.1
		C25.7,1,26.7,1,27.6,1z"/>
	<path class="st1" d="M1.7,26.8c3.1,0,6.2,0,9.3,0c0,0.4,0,0.7,0,1.2c0.5-0.3,0.9-0.6,1.3-0.8c0.5-0.4,1.1-0.5,1.7-0.5
		c3.1,0,6.2,0,9.4,0c1.5,0,2.7,0.8,3.1,2.1c0.4,1.3,0,2.6-1.1,3.6c-0.1,0-0.1,0.1-0.2,0.2c1.2,0.2,2.2,0.5,3.4,0.1
		c2.7-0.9,5.5-1.6,8.3-2.4c1.4-0.4,2.8,0.2,3.4,1.4c0.6,1.2,0.4,2.6-0.6,3.5c-0.3,0.3-0.7,0.5-1.1,0.6c-6,1.9-12.1,3.8-18.1,5.7
		c-0.7,0.2-1.3,0.2-2-0.1c-2.3-1-4.7-2-7-2.9c-0.1-0.1-0.3-0.1-0.4-0.2c0,0.7,0,1.3,0,1.9c-3.1,0-6.2,0-9.3,0
		C1.7,35.6,1.7,31.2,1.7,26.8z M28.1,34.3c-0.5,0.1-1,0.2-1.5,0.1c-2.2-0.3-4.3-0.7-6.4-1.1c-0.8-0.1-1.5-0.3-2.3-0.4
		c0.1-0.5,0.1-1,0.2-1.6c0.2,0,0.3,0,0.5,0c1.6,0,3.2,0,4.9,0c0.9,0,1.6-0.7,1.6-1.6s-0.7-1.5-1.6-1.5c-3.2,0-6.4,0-9.6,0
		c-0.2,0-0.4,0-0.6,0.1c-0.7,0.3-1.3,0.7-1.9,1.1C11.1,29.7,11,29.9,11,30c0,2,0,4,0,6c0,0.1,0.2,0.4,0.3,0.4
		c2.6,1.1,5.3,2.2,7.9,3.3c0.2,0.1,0.5,0.1,0.7,0c6-1.8,12-3.7,18-5.5c0.9-0.3,1.2-0.9,1-1.6c-0.2-0.8-0.9-1.2-1.8-0.9 M9.4,28.3
		c-0.5,0-1,0-1.6,0c0,1.6,0,3.1,0,4.6c-0.5,0-1,0-1.6,0c0-1.6,0-3.1,0-4.6c-1.1,0-2.1,0-3.1,0c0,3.4,0,6.7,0,10.1c2.1,0,4.1,0,6.2,0
		C9.4,35,9.4,31.7,9.4,28.3z"/>
	<path class="st1" d="M12.6,24.4c0-4.7,0-9.4,0-14c9.3,0,18.7,0,28,0c0,0.2,0,0.3,0,0.5c0,4.3,0,8.7,0,13c0,0.4-0.1,0.5-0.5,0.5
		c-9,0-18,0-27.1,0C12.9,24.4,12.8,24.4,12.6,24.4z M39.1,12c-8.3,0-16.6,0-24.9,0c0,3.6,0,7.2,0,10.9c8.3,0,16.6,0,24.9,0
		C39.1,19.2,39.1,15.6,39.1,12z"/>
	<path class="st1" d="M7.8,34.6c0,0.8,0,1.5,0,2.3c-0.5,0-1,0-1.5,0c0-0.7,0-1.5,0-2.3C6.8,34.6,7.3,34.6,7.8,34.6z"/>
	<path class="st1" d="M26.6,20.5c-1.7,0-3.1-1.4-3.1-3.1s1.4-3.1,3.1-3.1s3.1,1.4,3.2,3.1C29.7,19.1,28.3,20.5,26.6,20.5z
		 M28.2,17.4c0-0.8-0.7-1.6-1.5-1.6s-1.6,0.7-1.6,1.5s0.7,1.6,1.5,1.6C27.4,19,28.1,18.3,28.2,17.4z"/>
	<path class="st1" d="M18.8,19.7c0,0.6,0,1,0,1.6c-1,0-2,0-3.1,0c0-1,0-2,0-3.1c0.5,0,1,0,1.5,0c0,0.5,0,1,0,1.5
		C17.7,19.7,18.2,19.7,18.8,19.7z"/>
	<path class="st1" d="M37.5,21.3c-1,0-2,0-3.1,0c0-0.5,0-1,0-1.5c0.5,0,1,0,1.5,0c0-0.5,0-1,0-1.5c0.5,0,1,0,1.6,0
		C37.5,19.2,37.5,20.2,37.5,21.3z"/>
	<path class="st1" d="M15.7,16.6c0-1,0-2,0-3c1,0,2,0,3.1,0c0,0.5,0,1,0,1.5c-0.5,0-1,0-1.5,0c0,0.5,0,1,0,1.5
		C16.7,16.6,16.2,16.6,15.7,16.6z"/>
	<path class="st1" d="M34.4,13.5c1,0,2.1,0,3.1,0c0,1,0,2,0,3c-0.5,0-1,0-1.5,0c0-0.5,0-1,0-1.5c-0.5,0-1,0-1.6,0
		C34.4,14.5,34.4,14,34.4,13.5z"/>
	<path class="st1" d="M21.9,16.6c0,0.5,0,1,0,1.5c-0.8,0-1.5,0-2.3,0c0-0.5,0-1,0-1.5C20.4,16.6,21.1,16.6,21.9,16.6z"/>
	<path class="st1" d="M31.3,16.6c0.8,0,1.5,0,2.3,0c0,0.5,0,1,0,1.5c-0.8,0-1.5,0-2.3,0C31.3,17.6,31.3,17.1,31.3,16.6z"/>
	
		<image style="display:none;overflow:visible;enable-background:new    ;" width="512" height="512" xlink:href="../tax.png"  transform="matrix(9.765625e-02 0 0 9.765625e-02 0.2282 -0.2282)">
	</image>
</g>
</svg>
