<?xml version="1.0" encoding="utf-8"?>
<!-- Generator: Adobe Illustrator 24.0.1, SVG Export Plug-In . SVG Version: 6.00 Build 0)  -->
<svg version="1.1" id="Layer_1" xmlns="http://www.w3.org/2000/svg" xmlns:xlink="http://www.w3.org/1999/xlink" x="0px" y="0px"
	 viewBox="0 0 50 50" style="enable-background:new 0 0 50 50;" xml:space="preserve">
<style type="text/css">
	.st0{opacity:0.95;enable-background:new    ;}
	.st1{fill:#FF0068;}
</style>
<g class="st0">
	<path class="st1" d="M20.5,43.4c-0.2,0-0.5,0.1-0.7,0.3s-0.3,0.4-0.3,0.7s0.1,0.5,0.3,0.7c0.2,0.2,0.4,0.3,0.7,0.3
		c0.2,0,0.5-0.1,0.7-0.3s0.3-0.4,0.3-0.7s-0.1-0.5-0.3-0.7C21,43.5,20.8,43.4,20.5,43.4z"/>
	<path class="st1" d="M33.6,3.9h-5.8c-0.5,0-0.9,0.4-0.9,0.9s0.4,0.9,0.9,0.9h5.8c0.5,0,0.9-0.4,0.9-0.9S34.1,3.9,33.6,3.9z"/>
	<path class="st1" d="M40.9,1.3H20.6c-1.9,0-3.4,1.5-3.4,3.4V11c-2.7,2.2-4.9,4.9-6.4,8c-1.6,3.2-2.4,6.8-2.4,10.4v9.7H7.6
		c-1,0-1.9,0.8-1.9,1.9v6.8c0,0.5,0.4,0.9,0.9,0.9s0.9-0.4,0.9-0.9V41H24v6.8c0,0.5,0.4,0.9,0.9,0.9s0.9-0.4,0.9-0.9v-4.1h15
		c1.8,0,3.4-1.5,3.4-3.4V29c0-0.5-0.4-0.9-0.9-0.9s-0.9,0.4-0.9,0.9v6.8H28.5l2.9-4.2c0.7-1,0.8-2.3,0.2-3.4s-1.7-1.8-2.9-1.8
		c-0.7,0-1.4,0.2-1.9,0.6L21,31.6c-0.2,0.2-0.5,0.2-0.7,0.2c-0.7,0-1.2-0.6-1.2-1.2v-1.2V8.3h23.3v13c0,0.5,0.4,0.9,0.9,0.9
		s0.9-0.4,0.9-0.9V4.6C44.2,2.8,42.7,1.3,40.9,1.3z M42.4,40.4c0,0.8-0.7,1.5-1.5,1.5h-15V41c0-0.6-0.3-1.2-0.8-1.5
		c0.8-0.5,1.5-1.1,2.1-1.9l0,0h15.2V40.4L42.4,40.4z M20.3,33.7c0.7,0,1.3-0.2,1.9-0.6l5.9-4.4c0.2-0.2,0.5-0.3,0.8-0.3
		c0.5,0,1,0.3,1.2,0.8s0.2,1-0.1,1.4l-4,5.5c-1.4,1.9-3.6,3-5.9,3h-9.9v-9.7c0-6.1,2.5-11.9,6.9-16v16v1.1
		C17.2,32.3,18.6,33.7,20.3,33.7z M19.1,6.5V4.6c0-0.8,0.7-1.5,1.5-1.5h20.3c0.8,0,1.5,0.7,1.5,1.5v1.8H19.1V6.5z"/>
	<path class="st1" d="M30.7,40.6c0.2,0,0.5-0.1,0.7-0.3s0.3-0.4,0.3-0.7s-0.1-0.5-0.3-0.7c-0.2-0.2-0.4-0.3-0.7-0.3
		c-0.2,0-0.5,0.1-0.7,0.3s-0.3,0.4-0.3,0.7s0.1,0.5,0.3,0.7C30.2,40.5,30.5,40.6,30.7,40.6z"/>
	<path class="st1" d="M29.9,13.5c-0.4-0.3-1-0.1-1.3,0.3l-0.8,1.4h-2.5c-0.6,0-1.2,0.3-1.6,0.8s-0.5,1.1-0.4,1.7l1.2,5.9
		c0.2,0.9,1,1.6,2,1.6h8.3c1,0,1.8-0.7,2-1.6l1.2-5.9c0.1-0.6,0-1.2-0.4-1.7s-1-0.8-1.6-0.8h-2.5l-0.8-1.4c-0.3-0.4-0.8-0.6-1.3-0.3
		c-0.4,0.2-0.6,0.8-0.3,1.3l0.2,0.4H30l0.2-0.4C30.5,14.4,30.4,13.8,29.9,13.5z M32.5,17.1l1.1,1.8c0.2,0.3,0.5,0.5,0.8,0.5
		c0.2,0,0.3,0,0.5-0.1c0.4-0.3,0.6-0.8,0.3-1.3l-0.5-0.9h1.5c0.1,0,0.1,0,0.2,0.1c0,0,0.1,0.1,0,0.2l-1.2,5.9c0,0.1-0.1,0.2-0.2,0.2
		h-8.3c-0.1,0-0.2-0.1-0.2-0.2l-1.2-5.9c0-0.1,0-0.1,0-0.2c0,0,0.1-0.1,0.2-0.1H27L26.3,18c-0.3,0.4-0.1,1,0.3,1.3
		c0.2,0.1,0.3,0.1,0.5,0.1c0.3,0,0.6-0.2,0.8-0.5l1.1-1.8H32.5L32.5,17.1z"/>
	<path class="st1" d="M43.3,24.1c-0.2,0-0.5,0.1-0.7,0.3c-0.2,0.2-0.3,0.4-0.3,0.7c0,0.2,0.1,0.5,0.3,0.7s0.4,0.3,0.7,0.3
		c0.2,0,0.5-0.1,0.7-0.3c0.2-0.2,0.3-0.4,0.3-0.7s-0.1-0.5-0.3-0.7C43.8,24.2,43.6,24.1,43.3,24.1z"/>
</g>
</svg>
