<?xml version="1.0" encoding="utf-8"?>
<!-- Generator: Adobe Illustrator 24.0.1, SVG Export Plug-In . SVG Version: 6.00 Build 0)  -->
<svg version="1.1" id="Layer_1" xmlns="http://www.w3.org/2000/svg" xmlns:xlink="http://www.w3.org/1999/xlink" x="0px" y="0px"
	 viewBox="0 0 50 50" style="enable-background:new 0 0 50 50;" xml:space="preserve">
<style type="text/css">
	.st0{opacity:0.95;enable-background:new    ;}
	.st1{fill:#FF0068;}
</style>
<g id="vendors_customers" class="st0">
	<path class="st1" d="M8.1,21.2c2.1,0,3.8-1.7,3.8-3.8s-1.7-3.8-3.8-3.8s-3.8,1.7-3.8,3.8S6,21.2,8.1,21.2z"/>
	<ellipse class="st1" cx="25" cy="11.9" rx="4.8" ry="4.8"/>
	<path class="st1" d="M11.4,21.9h-1.1C10.2,22,10.2,22,10.2,22l-2,1.5l-1.7-1.3C6.2,22.1,6,22,5.8,21.9h-1c-1.8,0-3.2,1.4-3.2,3.2
		V27c0,0.1,0,0.2,0,0.3l-0.1,4.5l2.2,3.3v1v0.1v6.7c0,0.6,0.5,1.1,1.1,1.1h6.5c0.6,0,1.1-0.5,1.1-1.1v-6.4l0,0l0.1-1.5l2-3.2v-4.4
		c0-0.1,0-0.3,0-0.4v-1.9C14.6,23.3,13.2,21.9,11.4,21.9z"/>
	<circle class="st1" cx="41.8" cy="17.4" r="3.8"/>
	<path class="st1" d="M45.1,21.9H44C43.9,22,43.8,22,43.8,22l-2,1.5l-1.7-1.3c-0.2-0.2-0.4-0.3-0.7-0.4h-1c-1.8,0-3.2,1.4-3.2,3.2v2
		c0,0.1,0,0.2,0,0.3l-0.1,4.5l2.2,3.3v1v0.1v6.7c0,0.6,0.5,1.1,1.1,1.1h6.5c0.6,0,1.1-0.5,1.1-1.1v-6.4l0,0l0.1-1.5l2-3.2v-4.4
		c0-0.1,0-0.3,0-0.4v-1.9C48.3,23.3,46.8,21.9,45.1,21.9z"/>
	<path class="st1" d="M28.9,18.7c-0.2,0-0.3,0.1-0.4,0.3l-2.9,7.6c0,0-0.5,1-1.2,0L21.5,19c-0.1-0.2-0.2-0.3-0.4-0.3h-0.2
		c-2.6,0-4.6,2.1-4.6,4.6v2.1c0,0.2,0,0.3,0,0.5l-0.1,5.8c0,0.1,0,0.2,0.1,0.2l2.7,4.2c0,0.1,0.1,0.1,0.1,0.2v1.2v0.1v8.5
		c0,1,0.8,1.9,1.9,1.9h7.9c1,0,1.9-0.8,1.9-1.9v-8l0,0l0.1-1.9c0-0.1,0-0.1,0.1-0.2l2.5-4.1c0-0.1,0.1-0.1,0.1-0.2V26
		c0-0.2,0.1-0.4,0.1-0.6v-2.1C33.5,20.7,31.4,18.7,28.9,18.7z"/>
	<path class="st1" d="M25.9,18.7h-1.8c0,0-0.8,0.2-0.4,0.9l0.7,1.1l-0.3,2.6l0.9,2.2l0.9-2.3l-0.4-2.5l0.7-1.1
		C26.2,19.5,26.5,19.1,25.9,18.7z"/>
	<path class="st1" d="M9.5,10.4c3.4-4,9-7,15.5-7c6.4,0,12.2,3,15.6,7c0.3,0.4,0.8,0.6,1.3,0.6h0.8C39.9,5.2,33,1.1,25,1.1
		S10.1,5.2,7.3,11h0.9C8.8,11,9.2,10.7,9.5,10.4z"/>
	
		<image style="display:none;overflow:visible;enable-background:new    ;" width="512" height="512" xlink:href="../Vendors &amp; customers.png"  transform="matrix(9.487141e-02 0 0 9.487141e-02 0.7053 0.482)">
	</image>
</g>
</svg>
