<?xml version="1.0" encoding="utf-8"?>
<!-- Generator: Adobe Illustrator 19.0.0, SVG Export Plug-In . SVG Version: 6.00 Build 0)  -->
<svg version="1.1" id="Layer_1" xmlns="http://www.w3.org/2000/svg" xmlns:xlink="http://www.w3.org/1999/xlink" x="0px" y="0px"
	 viewBox="231 -231 512 512" style="enable-background:new 231 -231 512 512;" xml:space="preserve">
<style type="text/css">
	.st0{fill:#2A4A97;}
	.st1{fill:#94BDEA;}
	.st2{fill:#EDF4FC;}
	.st3{fill:#C5E3FF;}
	.st4{fill:#45BDF0;}
	.st5{fill:#A0D85D;}
	.st6{fill:#FACB35;}
	.st7{fill:#F9677F;}
	.st8{fill:#FCAC27;}
	.st9{fill:#FC3850;}
	.st10{fill:#FFFF00;}
</style>
<path class="st0" d="M704.4-92.1c-17.1,0-31.1-13.9-31.1-31.1c0,17.2-13.9,31.1-31.1,31.1c-17.1,0-31.1-13.9-31.1-31.1
	c0,17.2-13.9,31.1-31.1,31.1c-17.1,0-31.1-13.9-31.1-31.1c0,17.2-13.9,31.1-31.1,31.1S487-106,487-123.2c0,17.2-13.9,31.1-31.1,31.1
	s-31.1-13.9-31.1-31.1c0,17.2-13.9,31.1-31.1,31.1s-31.1-13.9-31.1-31.1c0,17.2-13.9,31.1-31.1,31.1s-31.1-13.9-31.1-31.1
	c0,17.2-13.9,31.1-31.1,31.1c-5.7,0-10.9-1.5-15.5-4.2v268.1c0,12.9,10.5,23.3,23.3,23.3h417c12.9,0,23.3-10.5,23.3-23.3v-267
	C713.7-93.3,709.2-92.1,704.4-92.1L704.4-92.1z"/>
<path class="st1" d="M434.4,195.1h103.2v60.1H434.4V195.1z"/>
<path class="st2" d="M673.3-123.2c0,17.2-13.9,31.1-31.1,31.1s-31.1-13.9-31.1-31.1c0,17.2-13.9,31.1-31.1,31.1
	s-31.1-13.9-31.1-31.1c0,17.2-13.9,31.1-31.1,31.1S487-106,487-123.2c0,17.2-13.9,31.1-31.1,31.1s-31.1-13.9-31.1-31.1
	c0,17.2-13.9,31.1-31.1,31.1s-31.1-13.9-31.1-31.1c0,17.2-13.9,31.1-31.1,31.1s-31.1-13.9-31.1-31.1c0,15.2-10.9,27.8-25.3,30.5
	v227.1h421.2V-93.2C683.2-96.6,673.3-108.7,673.3-123.2L673.3-123.2z"/>
<path class="st3" d="M254.1,134.5v37.3c0,12.9,10.5,23.3,23.3,23.3h417c12.9,0,23.3-10.5,23.3-23.3v-37.3H254.1z"/>
<path class="st3" d="M562.5,255.2h-153c-5.7,0-10.4,4.6-10.4,10.4c0,5.7,4.6,10.4,10.4,10.4h153c5.7,0,10.4-4.6,10.4-10.4
	C572.8,259.9,568.2,255.2,562.5,255.2z"/>
<path d="M694.5,200.1h-417c-15.6,0-28.3-12.7-28.3-28.3V-96.3c0-1.8,1-3.4,2.5-4.3c1.5-0.9,3.5-0.9,5,0c4,2.3,8.5,3.5,13,3.5
	c14.4,0,26.1-11.7,26.1-26.1c0-2.8,2.2-5,5-5c2.8,0,5,2.2,5,5c0,14.4,11.7,26.1,26.1,26.1s26.1-11.7,26.1-26.1c0-2.8,2.2-5,5-5
	s5,2.2,5,5c0,14.4,11.7,26.1,26.1,26.1c14.4,0,26.1-11.7,26.1-26.1c0-2.8,2.2-5,5-5s5,2.2,5,5c0,14.4,11.7,26.1,26.1,26.1
	c14.4,0,26.1-11.7,26.1-26.1c0-2.8,2.2-5,5-5c2.8,0,5,2.2,5,5c0,14.4,11.7,26.1,26.1,26.1s26.1-11.7,26.1-26.1c0-2.8,2.2-5,5-5
	s5,2.2,5,5c0,14.4,11.7,26.1,26.1,26.1s26.1-11.7,26.1-26.1c0-2.8,2.2-5,5-5s5,2.2,5,5c0,14.4,11.7,26.1,26.1,26.1
	c14.4,0,26.1-11.7,26.1-26.1c0-2.8,2.2-5,5-5s5,2.2,5,5c0,14.4,11.7,26.1,26.1,26.1c3.9,0,7.7-0.9,11.3-2.6c1.6-0.7,3.4-0.6,4.8,0.3
	c1.5,0.9,2.3,2.5,2.3,4.2v267C722.8,187.4,710.1,200.1,694.5,200.1L694.5,200.1z M259.1-88.7v260.5c0,10.1,8.2,18.3,18.3,18.3h417
	c10.1,0,18.3-8.2,18.3-18.3V-88.1c-2.7,0.7-5.6,1-8.4,1c-13.2,0-24.8-7.1-31.1-17.8c-6.3,10.6-17.9,17.8-31.1,17.8
	s-24.8-7.1-31.1-17.8c-6.3,10.6-17.8,17.8-31.1,17.8s-24.8-7.1-31.1-17.8c-6.3,10.6-17.8,17.8-31.1,17.8c-13.2,0-24.8-7.1-31.1-17.8
	c-6.3,10.6-17.9,17.8-31.1,17.8c-13.2,0-24.8-7.1-31.1-17.8c-6.3,10.6-17.8,17.8-31.1,17.8s-24.8-7.1-31.1-17.8
	c-6.3,10.6-17.9,17.8-31.1,17.8c-13.2,0-24.8-7.1-31.1-17.8c-6.3,10.6-17.9,17.8-31.1,17.8C266.1-87.1,262.5-87.7,259.1-88.7
	L259.1-88.7z"/>
<g>
	<path class="st4" d="M372.7-70.4h-58.4c-2.4,0-4.4,2-4.4,4.4V3.1c0,2.4,2,4.4,4.4,4.4h58.4c2.4,0,4.4-2,4.4-4.4V-66
		C377.1-68.4,375.1-70.4,372.7-70.4L372.7-70.4z"/>
	<path class="st4" d="M467.8-70.4h-58.4c-2.4,0-4.4,2-4.4,4.4V3.1c0,2.4,2,4.4,4.4,4.4h58.4c2.4,0,4.4-2,4.4-4.4V-66
		C472.2-68.4,470.2-70.4,467.8-70.4L467.8-70.4z"/>
	<path class="st4" d="M562.7-70.4h-58.4c-2.4,0-4.4,2-4.4,4.4V3.1c0,2.4,2,4.4,4.4,4.4h58.4c2.4,0,4.4-2,4.4-4.4V-66
		C567.1-68.4,565.2-70.4,562.7-70.4L562.7-70.4z"/>
	<path class="st4" d="M659.7-70.4h-58.4c-2.4,0-4.4,2-4.4,4.4V3.1c0,2.4,2,4.4,4.4,4.4h58.4c2.4,0,4.4-2,4.4-4.4V-66
		C664.1-68.4,662.2-70.4,659.7-70.4L659.7-70.4z"/>
	<path class="st4" d="M372.7,31.6h-58.4c-2.4,0-4.4,2-4.4,4.4v69.1c0,2.4,2,4.4,4.4,4.4h58.4c2.4,0,4.4-2,4.4-4.4V36
		C377.1,33.6,375.1,31.6,372.7,31.6z"/>
	<path class="st4" d="M467.8,31.6h-58.4c-2.4,0-4.4,2-4.4,4.4v69.1c0,2.4,2,4.4,4.4,4.4h58.4c2.4,0,4.4-2,4.4-4.4V36
		C472.2,33.6,470.2,31.6,467.8,31.6z"/>
	<path class="st4" d="M562.7,31.6h-58.4c-2.4,0-4.4,2-4.4,4.4v69.1c0,2.4,2,4.4,4.4,4.4h58.4c2.4,0,4.4-2,4.4-4.4V36
		C567.1,33.6,565.2,31.6,562.7,31.6L562.7,31.6z"/>
	<path class="st4" d="M659.7,31.6h-58.4c-2.4,0-4.4,2-4.4,4.4v69.1c0,2.4,2,4.4,4.4,4.4h58.4c2.4,0,4.4-2,4.4-4.4V36
		C664.1,33.6,662.2,31.6,659.7,31.6z"/>
</g>
<path class="st5" d="M309.9-12.5V3.1c0,2.4,2,4.4,4.4,4.4h58.4c2.4,0,4.4-2,4.4-4.4v-15.6H309.9z"/>
<path class="st5" d="M405-12.5V3.1c0,2.4,2,4.4,4.4,4.4h58.4c2.4,0,4.4-2,4.4-4.4v-15.6H405z"/>
<path class="st5" d="M499.9-12.5V3.1c0,2.4,2,4.4,4.4,4.4h58.4c2.4,0,4.4-2,4.4-4.4v-15.6H499.9z"/>
<path class="st5" d="M596.9-12.5V3.1c0,2.4,2,4.4,4.4,4.4h58.4c2.4,0,4.4-2,4.4-4.4v-15.6H596.9z"/>
<path class="st5" d="M596.9,89.5v15.6c0,2.4,2,4.4,4.4,4.4h58.4c2.4,0,4.4-2,4.4-4.4V89.5H596.9z"/>
<path class="st5" d="M499.9,89.5v15.6c0,2.4,2,4.4,4.4,4.4h58.4c2.4,0,4.4-2,4.4-4.4V89.5H499.9z"/>
<path class="st5" d="M405,89.5v15.6c0,2.4,2,4.4,4.4,4.4h58.4c2.4,0,4.4-2,4.4-4.4V89.5H405z"/>
<path class="st5" d="M309.9,89.5v15.6c0,2.4,2,4.4,4.4,4.4h58.4c2.4,0,4.4-2,4.4-4.4V89.5H309.9z"/>
<path class="st6" d="M269.6-92.1c-17.2,0-31.1-13.9-31.1-31.1v-33.4h62.1v33.4C300.7-106,286.8-92.1,269.6-92.1z"/>
<path class="st7" d="M331.7-92.1c-17.1,0-31.1-13.9-31.1-31.1v-33.4h62.1v33.4C362.8-106,348.9-92.1,331.7-92.1z"/>
<path class="st6" d="M393.8-92.1c-17.2,0-31.1-13.9-31.1-31.1v-33.4h62.1v33.4C424.9-106,411-92.1,393.8-92.1z"/>
<path class="st7" d="M455.9-92.1c-17.1,0-31.1-13.9-31.1-31.1v-33.4H487v33.4C487-106,473.1-92.1,455.9-92.1z"/>
<path class="st6" d="M518.1-92.1c-17.1,0-31.1-13.9-31.1-31.1v-33.4h62.1v33.4C549.1-106,535.2-92.1,518.1-92.1L518.1-92.1z"/>
<path class="st7" d="M580.2-92.1c-17.2,0-31.1-13.9-31.1-31.1v-33.4h62.1v33.4C611.2-106,597.3-92.1,580.2-92.1z"/>
<path class="st6" d="M642.3-92.1c-17.2,0-31.1-13.9-31.1-31.1v-33.4h62.1v33.4C673.3-106,659.4-92.1,642.3-92.1L642.3-92.1z"/>
<path class="st7" d="M704.4-92.1c-17.1,0-31.1-13.9-31.1-31.1v-33.4h62.1v33.4C735.4-106,721.5-92.1,704.4-92.1z"/>
<path class="st8" d="M274-205.2c-0.9,0-1.7-0.1-2.5-0.3l-33,49h62.1l24.6-48.7H274z"/>
<path class="st9" d="M325.2-205.2l-24.6,48.7h62.1l16.4-48.7H325.2z"/>
<path class="st8" d="M379.2-205.2l-16.4,48.7h62.1l8.2-48.7H379.2z"/>
<path class="st9" d="M433.1-205.2l-8.2,48.7H487v-48.7H433.1z"/>
<path class="st8" d="M487-205.2v48.7h62.1l-8.2-48.7H487z"/>
<path class="st9" d="M540.9-205.2l8.2,48.7h62.1l-16.4-48.7H540.9z"/>
<path class="st8" d="M594.8-205.2l16.4,48.7h62.1l-24.6-48.7H594.8z"/>
<path class="st9" d="M702.1-206.1L702.1-206.1c-1.3,0.6-2.8,0.9-4.2,0.9h-49.1l24.6,48.7h62.1L702.1-206.1z"/>
<path d="M537.5,260.2H434.4c-2.8,0-5-2.2-5-5v-60.1c0-2.8,2.2-5,5-5h103.2c2.8,0,5,2.2,5,5v60.1C542.5,258,540.3,260.2,537.5,260.2z
	 M439.4,250.2h93.2v-50.1h-93.2V250.2z"/>
<path d="M269.6-87.1c-19.9,0-36.1-16.2-36.1-36.1v-33.4c0-2.8,2.2-5,5-5h62.1c2.8,0,5,2.2,5,5v33.4
	C305.7-103.3,289.5-87.1,269.6-87.1z M243.6-151.6v28.4c0,14.4,11.7,26.1,26.1,26.1c14.4,0,26.1-11.7,26.1-26.1v-28.4H243.6z"/>
<path d="M331.7-87.1c-19.9,0-36.1-16.2-36.1-36.1v-33.4c0-2.8,2.2-5,5-5h62.1c2.8,0,5,2.2,5,5v33.4
	C367.8-103.3,351.6-87.1,331.7-87.1z M305.7-151.6v28.4c0,14.4,11.7,26.1,26.1,26.1s26.1-11.7,26.1-26.1v-28.4H305.7z"/>
<path d="M393.8-87.1c-19.9,0-36.1-16.2-36.1-36.1v-33.4c0-2.8,2.2-5,5-5h62.1c2.8,0,5,2.2,5,5v33.4
	C429.9-103.3,413.7-87.1,393.8-87.1z M367.8-151.6v28.4c0,14.4,11.7,26.1,26.1,26.1c14.4,0,26.1-11.7,26.1-26.1v-28.4H367.8z"/>
<path d="M455.9-87.1c-19.9,0-36.1-16.2-36.1-36.1v-33.4c0-2.8,2.2-5,5-5H487c2.8,0,5,2.2,5,5v33.4C492-103.3,475.8-87.1,455.9-87.1z
	 M429.9-151.6v28.4c0,14.4,11.7,26.1,26.1,26.1c14.4,0,26.1-11.7,26.1-26.1v-28.4H429.9z"/>
<path d="M518.1-87.1c-19.9,0-36.1-16.2-36.1-36.1v-33.4c0-2.8,2.2-5,5-5h62.1c2.8,0,5,2.2,5,5v33.4
	C554.1-103.3,537.9-87.1,518.1-87.1L518.1-87.1z M492-151.6v28.4c0,14.4,11.7,26.1,26.1,26.1s26.1-11.7,26.1-26.1v-28.4H492z"/>
<path d="M580.2-87.1c-19.9,0-36.1-16.2-36.1-36.1v-33.4c0-2.8,2.2-5,5-5h62.1c2.8,0,5,2.2,5,5v33.4C616.2-103.3,600-87.1,580.2-87.1
	L580.2-87.1z M554.1-151.6v28.4c0,14.4,11.7,26.1,26.1,26.1s26.1-11.7,26.1-26.1v-28.4H554.1z"/>
<path d="M642.3-87.1c-19.9,0-36.1-16.2-36.1-36.1v-33.4c0-2.8,2.2-5,5-5h62.1c2.8,0,5,2.2,5,5v33.4
	C678.3-103.3,662.2-87.1,642.3-87.1z M616.2-151.6v28.4c0,14.4,11.7,26.1,26.1,26.1c14.4,0,26.1-11.7,26.1-26.1v-28.4H616.2z"/>
<path d="M704.4-87.1c-19.9,0-36.1-16.2-36.1-36.1v-33.4c0-2.8,2.2-5,5-5h62.1c2.8,0,5,2.2,5,5v33.4
	C740.4-103.3,724.3-87.1,704.4-87.1z M678.3-151.6v28.4c0,14.4,11.7,26.1,26.1,26.1s26.1-11.7,26.1-26.1v-28.4H678.3z"/>
<path d="M300.7-151.6h-62.1c-1.8,0-3.5-1-4.4-2.6c-0.9-1.6-0.8-3.6,0.3-5.1l33-49c1.2-1.7,3.3-2.6,5.4-2.1c0.5,0.1,0.9,0.2,1.3,0.2
	h51.2c1.7,0,3.3,0.9,4.3,2.4c0.9,1.5,1,3.3,0.2,4.9l-24.6,48.7C304.3-152.6,302.6-151.6,300.7-151.6z M248-161.6h49.6l19.5-38.7H274
	c0,0-0.1,0-0.1,0L248-161.6z"/>
<path d="M362.8-151.6h-62.1c-1.7,0-3.3-0.9-4.3-2.4c-0.9-1.5-1-3.3-0.2-4.9l24.6-48.7c0.9-1.7,2.6-2.7,4.5-2.7h53.9
	c1.6,0,3.1,0.8,4.1,2.1c0.9,1.3,1.2,3,0.7,4.5L367.5-155C366.8-152.9,364.9-151.6,362.8-151.6z M308.8-161.6h50.4l13-38.7h-43.9
	L308.8-161.6z"/>
<path d="M424.9-151.6h-62.1c-1.6,0-3.1-0.8-4.1-2.1c-0.9-1.3-1.2-3-0.7-4.5l16.4-48.7c0.7-2,2.6-3.4,4.7-3.4h53.9
	c1.5,0,2.9,0.6,3.8,1.8c1,1.1,1.4,2.6,1.1,4.1l-8.2,48.7C429.4-153.3,427.3-151.6,424.9-151.6L424.9-151.6z M369.7-161.6h50.9
	l6.5-38.7h-44.4L369.7-161.6z"/>
<path d="M487-151.6h-62.1c-1.5,0-2.9-0.6-3.8-1.8c-0.9-1.1-1.4-2.6-1.1-4.1l8.2-48.7c0.4-2.4,2.5-4.2,4.9-4.2H487c2.8,0,5,2.2,5,5
	v48.7C492-153.8,489.8-151.6,487-151.6L487-151.6z M430.8-161.6H482v-38.7h-44.7L430.8-161.6z"/>
<path d="M549.1-151.6H487c-2.8,0-5-2.2-5-5v-48.7c0-2.8,2.2-5,5-5h53.9c2.4,0,4.5,1.8,4.9,4.2l8.2,48.7c0.2,1.4-0.2,2.9-1.1,4.1
	C552-152.2,550.6-151.6,549.1-151.6z M492-161.6h51.2l-6.5-38.7H492V-161.6z"/>
<path d="M611.2-151.6h-62.1c-2.4,0-4.5-1.8-4.9-4.2l-8.2-48.7c-0.2-1.4,0.2-2.9,1.1-4.1c1-1.1,2.3-1.8,3.8-1.8h53.9
	c2.1,0,4.1,1.4,4.7,3.4l16.4,48.7c0.5,1.5,0.3,3.2-0.7,4.5C614.3-152.4,612.8-151.6,611.2-151.6L611.2-151.6z M553.3-161.6h50.9
	l-13-38.7h-44.4L553.3-161.6z"/>
<path d="M673.3-151.6h-62.1c-2.1,0-4.1-1.4-4.7-3.4l-16.4-48.7c-0.5-1.5-0.3-3.2,0.7-4.5c0.9-1.3,2.5-2.1,4.1-2.1h53.9
	c1.9,0,3.6,1.1,4.5,2.7l24.6,48.7c0.8,1.6,0.7,3.4-0.2,4.9C676.7-152.5,675.1-151.6,673.3-151.6z M614.8-161.6h50.4l-19.5-38.7
	h-43.9L614.8-161.6z"/>
<path d="M735.4-151.6h-62.1c-1.9,0-3.6-1.1-4.5-2.7L644.3-203c-0.8-1.5-0.7-3.4,0.2-4.9c0.9-1.5,2.5-2.4,4.3-2.4h49.1
	c0.7,0,1.5-0.2,2.2-0.5c2.2-0.9,4.9-0.2,6.2,1.8l33.3,49.5c1,1.5,1.1,3.5,0.3,5.1C739-152.6,737.3-151.6,735.4-151.6L735.4-151.6z
	 M676.4-161.6H726l-26.1-38.8c-0.7,0.1-1.4,0.1-2.1,0.1h-41L676.4-161.6z"/>
<path d="M696.6,139.5H275.3c-2.8,0-5-2.2-5-5V-92.7c0-2.4,1.7-4.5,4.1-4.9c12.3-2.3,21.3-13.1,21.3-25.6c0-2.8,2.2-5,5-5
	c2.8,0,5,2.2,5,5c0,14.4,11.7,26.1,26.1,26.1s26.1-11.7,26.1-26.1c0-2.8,2.2-5,5-5s5,2.2,5,5c0,14.4,11.7,26.1,26.1,26.1
	c14.4,0,26.1-11.7,26.1-26.1c0-2.8,2.2-5,5-5s5,2.2,5,5c0,14.4,11.7,26.1,26.1,26.1c14.4,0,26.1-11.7,26.1-26.1c0-2.8,2.2-5,5-5
	c2.8,0,5,2.2,5,5c0,14.4,11.7,26.1,26.1,26.1s26.1-11.7,26.1-26.1c0-2.8,2.2-5,5-5s5,2.2,5,5c0,14.4,11.7,26.1,26.1,26.1
	s26.1-11.7,26.1-26.1c0-2.8,2.2-5,5-5s5,2.2,5,5c0,14.4,11.7,26.1,26.1,26.1c14.4,0,26.1-11.7,26.1-26.1c0-2.8,2.2-5,5-5s5,2.2,5,5
	c0,11.8,8,22.2,19.5,25.2c2.2,0.6,3.7,2.6,3.7,4.8v227.6C701.6,137.2,699.3,139.5,696.6,139.5L696.6,139.5z M280.3,129.5h411.2v-219
	c-7.8-2.9-14.2-8.4-18.3-15.4c-6.3,10.6-17.8,17.8-31.1,17.8s-24.8-7.1-31.1-17.8c-6.3,10.6-17.8,17.8-31.1,17.8
	s-24.8-7.1-31.1-17.8c-6.3,10.6-17.8,17.8-31.1,17.8c-13.2,0-24.8-7.1-31.1-17.8c-6.3,10.6-17.9,17.8-31.1,17.8
	c-13.2,0-24.8-7.1-31.1-17.8c-6.3,10.6-17.8,17.8-31.1,17.8s-24.8-7.1-31.1-17.8c-6.3,10.6-17.9,17.8-31.1,17.8
	c-13.2,0-24.8-7.1-31.1-17.7c-4.5,7.6-11.6,13.4-20.3,16.1L280.3,129.5L280.3,129.5z"/>
<path d="M372.7,12.5h-58.4c-5.2,0-9.4-4.2-9.4-9.4V-66c0-5.2,4.2-9.4,9.4-9.4h58.4c5.2,0,9.4,4.2,9.4,9.4V3.1
	C382.1,8.3,377.8,12.5,372.7,12.5z M314.9,2.5h57.2v-67.9h-57.2V2.5z M372.7-65.4L372.7-65.4L372.7-65.4z"/>
<path d="M467.8,12.5h-58.4c-5.2,0-9.4-4.2-9.4-9.4V-66c0-5.2,4.2-9.4,9.4-9.4h58.4c5.2,0,9.4,4.2,9.4,9.4V3.1
	C477.2,8.3,473,12.5,467.8,12.5z M410,2.5h57.2v-67.9H410V2.5z M467.8-65.4L467.8-65.4L467.8-65.4z"/>
<path d="M562.7,12.5h-58.4c-5.2,0-9.4-4.2-9.4-9.4V-66c0-5.2,4.2-9.4,9.4-9.4h58.4c5.2,0,9.4,4.2,9.4,9.4V3.1
	C572.1,8.3,567.9,12.5,562.7,12.5L562.7,12.5z M504.9,2.5h57.2v-67.9h-57.2V2.5z M562.7-65.4L562.7-65.4L562.7-65.4z"/>
<path d="M659.7,12.5h-58.4c-5.2,0-9.4-4.2-9.4-9.4V-66c0-5.2,4.2-9.4,9.4-9.4h58.4c5.2,0,9.4,4.2,9.4,9.4V3.1
	C669.1,8.3,664.9,12.5,659.7,12.5z M601.9,2.5h57.2v-67.9h-57.2V2.5z M659.7-65.4L659.7-65.4L659.7-65.4z"/>
<path d="M372.7,114.5h-58.4c-5.2,0-9.4-4.2-9.4-9.4V36c0-5.2,4.2-9.4,9.4-9.4h58.4c5.2,0,9.4,4.2,9.4,9.4v69.1
	C382.1,110.3,377.8,114.5,372.7,114.5z M314.9,104.5h57.2V36.6h-57.2V104.5z M372.7,36.6L372.7,36.6L372.7,36.6z"/>
<path d="M467.8,114.5h-58.4c-5.2,0-9.4-4.2-9.4-9.4V36c0-5.2,4.2-9.4,9.4-9.4h58.4c5.2,0,9.4,4.2,9.4,9.4v69.1
	C477.2,110.3,473,114.5,467.8,114.5z M410,104.5h57.2V36.6H410V104.5z M467.8,36.6L467.8,36.6L467.8,36.6z"/>
<path d="M562.7,114.5h-58.4c-5.2,0-9.4-4.2-9.4-9.4V36c0-5.2,4.2-9.4,9.4-9.4h58.4c5.2,0,9.4,4.2,9.4,9.4v69.1
	C572.1,110.3,567.9,114.5,562.7,114.5L562.7,114.5z M504.9,104.5h57.2V36.6h-57.2V104.5z M562.7,36.6L562.7,36.6L562.7,36.6z"/>
<path d="M659.7,114.5h-58.4c-5.2,0-9.4-4.2-9.4-9.4V36c0-5.2,4.2-9.4,9.4-9.4h58.4c5.2,0,9.4,4.2,9.4,9.4v69.1
	C669.1,110.3,664.9,114.5,659.7,114.5z M601.9,104.5h57.2V36.6h-57.2V104.5z M659.7,36.6L659.7,36.6L659.7,36.6z"/>
<path d="M372.7,12.5h-58.4c-5.2,0-9.4-4.2-9.4-9.4v-15.6c0-2.8,2.2-5,5-5h67.2c2.8,0,5,2.2,5,5V3.1C382.1,8.3,377.8,12.5,372.7,12.5
	z M314.9,2.5h57.2v-10h-57.2V2.5z"/>
<path d="M467.8,12.5h-58.4c-5.2,0-9.4-4.2-9.4-9.4v-15.6c0-2.8,2.2-5,5-5h67.2c2.8,0,5,2.2,5,5V3.1C477.2,8.3,473,12.5,467.8,12.5
	L467.8,12.5z M410,2.5h57.2v-10H410V2.5z"/>
<path d="M562.7,12.5h-58.4c-5.2,0-9.4-4.2-9.4-9.4v-15.6c0-2.8,2.2-5,5-5h67.2c2.8,0,5,2.2,5,5V3.1C572.1,8.3,567.9,12.5,562.7,12.5
	L562.7,12.5z M504.9,2.5h57.2v-10h-57.2V2.5z"/>
<path d="M659.7,12.5h-58.4c-5.2,0-9.4-4.2-9.4-9.4v-15.6c0-2.8,2.2-5,5-5h67.2c2.8,0,5,2.2,5,5V3.1C669.1,8.3,664.9,12.5,659.7,12.5
	z M601.9,2.5h57.2v-10h-57.2V2.5z"/>
<path d="M659.7,114.5h-58.4c-5.2,0-9.4-4.2-9.4-9.4V89.5c0-2.8,2.2-5,5-5h67.2c2.8,0,5,2.2,5,5v15.6
	C669.1,110.3,664.9,114.5,659.7,114.5z M601.9,104.5h57.2v-10h-57.2V104.5z"/>
<path d="M562.7,114.5h-58.4c-5.2,0-9.4-4.2-9.4-9.4V89.5c0-2.8,2.2-5,5-5h67.2c2.8,0,5,2.2,5,5v15.6
	C572.1,110.3,567.9,114.5,562.7,114.5L562.7,114.5z M504.9,104.5h57.2v-10h-57.2V104.5z"/>
<path d="M467.8,114.5h-58.4c-5.2,0-9.4-4.2-9.4-9.4V89.5c0-2.8,2.2-5,5-5h67.2c2.8,0,5,2.2,5,5v15.6
	C477.2,110.3,473,114.5,467.8,114.5L467.8,114.5z M410,104.5h57.2v-10H410V104.5z"/>
<path d="M372.7,114.5h-58.4c-5.2,0-9.4-4.2-9.4-9.4V89.5c0-2.8,2.2-5,5-5h67.2c2.8,0,5,2.2,5,5v15.6
	C382.1,110.3,377.8,114.5,372.7,114.5z M314.9,104.5h57.2v-10h-57.2V104.5z"/>
<path d="M694.5,200.1h-417c-15.6,0-28.3-12.7-28.3-28.3v-37.3c0-2.8,2.2-5,5-5h463.7c2.8,0,5,2.2,5,5v37.3
	C722.8,187.4,710.1,200.1,694.5,200.1z M259.1,139.5v32.3c0,10.1,8.2,18.3,18.3,18.3h417c10.1,0,18.3-8.2,18.3-18.3v-32.3H259.1z"/>
<path d="M562.5,281h-153c-8.5,0-15.4-6.9-15.4-15.4s6.9-15.4,15.4-15.4h153c8.5,0,15.4,6.9,15.4,15.4
	C577.8,274.1,570.9,281,562.5,281z M409.5,260.2c-3,0-5.4,2.4-5.4,5.4s2.4,5.4,5.4,5.4h153c3,0,5.4-2.4,5.4-5.4s-2.4-5.4-5.4-5.4
	H409.5z"/>
<circle class="st10" cx="486" cy="163.7" r="10.4"/>
<path d="M486,179.1c-8.5,0-15.4-6.9-15.4-15.4s6.9-15.4,15.4-15.4c8.5,0,15.4,6.9,15.4,15.4S494.4,179.1,486,179.1L486,179.1z
	 M486,158.4c-3,0-5.4,2.4-5.4,5.4s2.4,5.4,5.4,5.4c3,0,5.4-2.4,5.4-5.4S488.9,158.4,486,158.4L486,158.4z"/>
<path class="st3" d="M697.9-226H274c-5.7,0-10.4,4.6-10.4,10.4s4.6,10.4,10.4,10.4h423.8c5.7,0,10.4-4.6,10.4-10.4
	C708.3-221.3,703.6-226,697.9-226z"/>
<path d="M697.9-200.2H274c-8.5,0-15.4-6.9-15.4-15.4c0-8.5,6.9-15.4,15.4-15.4h423.8c8.5,0,15.4,6.9,15.4,15.4
	C713.3-207.1,706.4-200.2,697.9-200.2L697.9-200.2z M274-221c-3,0-5.4,2.4-5.4,5.4s2.4,5.4,5.4,5.4h423.8c3,0,5.4-2.4,5.4-5.4
	s-2.4-5.4-5.4-5.4H274z"/>
</svg>
