<?xml version="1.0" encoding="utf-8"?>
<!-- Generator: Adobe Illustrator 19.0.0, SVG Export Plug-In . SVG Version: 6.00 Build 0)  -->
<svg version="1.1" id="Capa_1" xmlns="http://www.w3.org/2000/svg" xmlns:xlink="http://www.w3.org/1999/xlink" x="0px" y="0px"
	 viewBox="231 -231 512 512" style="enable-background:new 231 -231 512 512;" xml:space="preserve">
<style type="text/css">
	.st0{fill:#C83741;}
	.st1{fill:#963737;}
	.st2{fill:#FF4B4B;}
	.st3{fill:#FFCF65;}
	.st4{fill:#FFB450;}
	.st5{fill:#E2E2E2;stroke:#FFFFFF;stroke-width:3;stroke-miterlimit:10;}
	.st6{fill:#F3F3F3;}
	.st7{fill:#F5D0C7;}
	.st8{fill:#6F6F6F;}
	.st9{fill:#FCFC00;}
	.st10{fill:#FFE491;}
	.st11{fill:#E6E6E6;}
	.st12{fill:#FFCB5A;}
	.st13{fill:#FF8030;}
</style>
<g>
	<path class="st0" d="M391,80.8v20c0,2.8-2.2,5-5,5H284c-2.8,0-5-2.2-5-5v-20c0-2.8,2.2-5,5-5h102C388.8,75.8,391,78,391,80.8z
		 M690,75.8H588c-2.8,0-5,2.2-5,5v20c0,2.8,2.2,5,5,5h102c2.8,0,5-2.2,5-5v-20C695,78,692.8,75.8,690,75.8z M583-29.1
		c0-2.8-2.2-5-5-5H396c-2.8,0-5,2.2-5,5v20c0,2.8,2.2,5,5,5h182c2.8,0,5-2.2,5-5V-29.1z"/>
	<path class="st0" d="M402.3-46.2h8.7v82.9h-8.7H282.4c-15.3,0-27.7-12.4-27.7-27.6l40.5-16.2c18.6-7.4,34.5-20.3,45.7-37l0,0
		c0.9-1.3,2.3-2.1,3.8-2.1L402.3-46.2L402.3-46.2z M678.7-7.1c-18.6-7.4-34.5-20.3-45.7-37l0,0c-0.9-1.3-2.3-2.1-3.8-2.1h-57.6H563
		v82.9h8.7h119.9c15.3,0,27.7-12.4,27.7-27.6L678.7-7.1z M654.4-113.9L654.4-113.9l-43.9-17.6c-20.2-8.1-37.4-22.1-49.5-40.1
		c-0.9-1.4-2.5-2.2-4.2-2.2h-62.4h-14.9h-62.4c-1.7,0-3.2,0.8-4.2,2.2c-12.1,18.1-29.3,32.1-49.5,40.1l-43.9,17.6l0,0
		c0,16.5,13.4,30,30,30h130h14.9h130C641-84,654.4-97.4,654.4-113.9z"/>
</g>
<path class="st1" d="M312-118.6c2.9,2.9,2.9,7.7,0,10.6c-1.5,1.5-3.4,2.2-5.3,2.2c-1.9,0-3.8-0.7-5.3-2.2l-30.6-30.6
	c-2.9-2.9-2.9-7.7,0-10.6c2.9-2.9,7.7-2.9,10.6,0L312-118.6z M703.3-149.2c-2.9-2.9-7.7-2.9-10.6,0L662-118.6
	c-2.9,2.9-2.9,7.7,0,10.6c1.5,1.5,3.4,2.2,5.3,2.2c1.9,0,3.8-0.7,5.3-2.2l30.6-30.6C706.2-141.5,706.2-146.3,703.3-149.2z"/>
<path class="st0" d="M427.9-169.7c2.9,2.9,2.9,7.7,0,10.6c-1.5,1.5-3.4,2.2-5.3,2.2c-1.9,0-3.8-0.7-5.3-2.2l-30.6-30.6
	c-2.9-2.9-2.9-7.7,0-10.6c2.9-2.9,7.7-2.9,10.6,0L427.9-169.7z M587.3-200.3c-2.9-2.9-7.7-2.9-10.6,0l-30.6,30.6
	c-2.9,2.9-2.9,7.7,0,10.6c1.5,1.5,3.4,2.2,5.3,2.2s3.8-0.7,5.3-2.2l30.6-30.6C590.2-192.6,590.2-197.4,587.3-200.3z"/>
<path class="st2" d="M294,30.8v204.7c0,2.8-2.2,5-5,5h-20c-2.8,0-5-2.2-5-5V30.8c0-2.8,2.2-5,5-5h20C291.8,25.9,294,28.1,294,30.8z
	 M705,25.9h-20c-2.8,0-5,2.2-5,5v204.7c0,2.8,2.2,5,5,5h20c2.8,0,5-2.2,5-5V30.8C710,28.1,707.8,25.9,705,25.9z"/>
<path class="st1" d="M301.5,10.3H411v36.8H296.1h-9.6c-20.3,0-38.9-11-48.6-28.8l-6.4-11.7c-2-3.7,1.5-7.9,5.5-6.6
	C257.9,6.9,279.6,10.3,301.5,10.3z M736.9,0.1c-20.8,6.8-42.5,10.2-64.4,10.2H563v36.8h114.9h9.6c20.3,0,38.9-11,48.6-28.8l6.4-11.7
	C744.4,3,740.9-1.2,736.9,0.1z"/>
<path class="st2" d="M411-79v274.6c0,2.8-2.2,5-5,5h-20c-2.8,0-5-2.2-5-5V-79c0-2.8,2.2-5,5-5h20C408.8-84,411-81.7,411-79z M588-84
	h-20c-2.8,0-5,2.2-5,5v274.6c0,2.8,2.2,5,5,5h20c2.8,0,5-2.2,5-5V-79C593-81.7,590.8-84,588-84z"/>
<path class="st1" d="M673.6-123.7L673.6-123.7c4.3-1.4,8.1,3.2,5.9,7.1l-6.9,12.7c-10.5,19.2-30.7,31.2-52.7,31.2h-10.4H364.4H354
	c-22,0-42.2-12-52.7-31.2l-6.9-12.7c-2.2-4,1.6-8.5,5.9-7.1l0,0c22.5,7.3,46.1,11.1,69.8,11.1h233.6
	C627.5-112.6,651.1-116.3,673.6-123.7z"/>
<path class="st3" d="M419,150.7v74.9c0,2.8-2.2,5-5,5h-36c-2.8,0-5-2.2-5-5v-74.9c0-2.8,2.2-5,5-5h36
	C416.8,145.7,419,147.9,419,150.7z M297,145.7h-36c-2.8,0-5,2.2-5,5v74.9c0,2.8,2.2,5,5,5h36c2.8,0,5-2.2,5-5v-74.9
	C302,147.9,299.8,145.7,297,145.7z M713,145.7h-36c-2.8,0-5,2.2-5,5v74.9c0,2.8,2.2,5,5,5h36c2.8,0,5-2.2,5-5v-74.9
	C718,147.9,715.8,145.7,713,145.7z M596,145.7h-36c-2.8,0-5,2.2-5,5v74.9c0,2.8,2.2,5,5,5h36c2.8,0,5-2.2,5-5v-74.9
	C601,147.9,598.8,145.7,596,145.7z"/>
<path class="st4" d="M743,227.5v20c0,2.8-2.2,5-5,5H236c-2.8,0-5-2.2-5-5v-20c0-2.8,2.2-5,5-5h502C740.8,222.5,743,224.8,743,227.5z
	"/>
<circle class="st5" cx="487" cy="113.7" r="185.3"/>
<g>
	<polygon class="st6" points="626.2,146.9 626.2,224.3 592.4,224.3 592.4,151.7 612.2,132.8 	"/>
	<path class="st7" d="M616.6,74.4v19.4c0,13.3-10.9,24.1-24.2,24.1c-13.3,0-24.1-10.9-24.1-24.2l0-19.3h4.7
		c10.7,0,19.3-8.7,19.3-19.3c0,10.7,8.7,19.3,19.3,19.3L616.6,74.4L616.6,74.4z"/>
	<path class="st8" d="M616.6,69.5v4.8h-4.8c-10.7,0-19.3-8.7-19.3-19.3v-4.8h4.8C607.9,50.2,616.6,58.9,616.6,69.5z"/>
	<polygon class="st9" points="592.4,151.7 573,132.4 611.7,132.4 612.2,132.8 	"/>
	<path class="st10" d="M597.2-3l-14.5,24.5l5.4,14.2h-68.2v-29h-43.5c-13.4,0-24.2,10.8-24.2,24.2v4.8h-62l4-9.3L374.8-3L399-27.2
		l29,19l33.8-14.2l4.8-33.8h38.7l4.8,33.8L544-8.2l29-19L597.2-3z"/>
	<polygon class="st6" points="592.4,151.7 592.4,224.3 558.5,224.3 558.5,146.9 573,132.4 	"/>
	<path class="st8" d="M592.4,50.2V55c0,10.7-8.7,19.3-19.3,19.3h-4.7v-4.9c0-10.7,8.7-19.3,19.3-19.3L592.4,50.2L592.4,50.2z"/>
	<polygon class="st6" points="534.4,127.6 534.4,224.3 505.3,224.3 490.8,151.7 500.5,142.1 524.7,117.9 	"/>
	<polygon class="st11" points="524.7,117.9 500.5,142.1 486,127.6 500.5,113.1 519.8,113.1 	"/>
	<path class="st7" d="M495.7,35.7h-43.5v24.2c0,18.7,15.2,33.8,33.8,33.8c18.7,0,33.8-15.2,33.8-33.8V11.5
		C519.8,24.9,509,35.7,495.7,35.7z"/>
	<path class="st12" d="M519.8,6.7v4.8c0,13.4-10.8,24.2-24.2,24.2h-43.5v-4.8c0-13.4,10.8-24.2,24.2-24.2L519.8,6.7L519.8,6.7z"/>
	<polygon class="st9" points="490.8,151.7 505.3,224.3 471.5,224.3 481.2,151.7 471.5,142.1 486,127.6 500.5,142.1 	"/>
	<polygon class="st11" points="486,127.6 471.5,142.1 447.3,117.9 452.2,113.1 471.5,113.1 	"/>
	<g>
		<polygon class="st6" points="481.2,151.7 471.5,224.3 437.6,224.3 437.6,127.6 447.3,117.9 471.5,142.1 		"/>
		<polygon class="st6" points="413.5,146.9 413.5,224.3 379.6,224.3 379.6,151.7 399.4,132.8 		"/>
	</g>
	<path class="st7" d="M403.8,69.5v24.2c0,13.3-10.9,24.1-24.2,24.1s-24.1-10.9-24.1-24.2l0-24.2h4.6c5.3,0,9.7-4.3,9.7-9.6
		c0,0,0,0,0,0v-8.9h0c0.3,10.4,8.9,18.7,19.3,18.7L403.8,69.5L403.8,69.5z"/>
	<path class="st13" d="M403.8,69.5h-14.5c-10.4,0-19-8.3-19.3-18.7c1.6-0.4,3.3-0.7,4.9-0.7h9.5C395.1,50.2,403.8,58.9,403.8,69.5z"
		/>
	<polygon class="st9" points="379.6,151.7 360.3,132.4 399,132.4 399.4,132.8 	"/>
	<polygon class="st6" points="379.6,151.7 379.6,224.3 345.8,224.3 345.8,146.9 360.3,132.4 	"/>
	<path class="st13" d="M369.9,50.9v8.9c0,5.3-4.3,9.7-9.7,9.7c0,0,0,0,0,0h-4.6C355.6,60.8,361.5,53.1,369.9,50.9z"/>
	<path d="M572.4-21l18.7,18.7L578.6,19c-0.7,1.3-0.9,2.8-0.4,4.2l5.4,14.2l9-3.4l-4.5-12l13.3-22.5c1.1-1.9,0.8-4.3-0.7-5.9
		l-24.2-24.2c-1.6-1.6-4.2-1.9-6.1-0.6l-26.9,17.6l-29-12.1l-4.4-31.2c-0.3-2.4-2.4-4.1-4.8-4.1h-38.7c-2.4,0-4.4,1.8-4.8,4.1
		l-4.4,31.2l-28.9,12.1l-26.9-17.6c-1.9-1.3-4.4-1-6.1,0.6L371.4-6.4c-1.6,1.6-1.9,4.2-0.6,6.1l17.9,27.2l-3,6.9l8.9,3.8l4-9.3
		c0.6-1.5,0.5-3.2-0.4-4.6L381-2.4L399.6-21l25.7,16.9c1.3,0.9,3,1,4.5,0.4l33.8-14.2c1.6-0.7,2.7-2.1,2.9-3.8l4.3-29.7h30.3
		l4.2,29.7c0.2,1.7,1.3,3.1,2.9,3.8l33.8,14.2c1.5,0.6,3.2,0.5,4.5-0.4L572.4-21z"/>
	<path d="M432.8,127.6v96.7c0,2.7,2.2,4.8,4.8,4.8h96.7c2.7,0,4.8-2.2,4.8-4.8v-96.7c0-1.3-0.5-2.5-1.4-3.4l-14.5-14.5
		c-0.9-0.9-2.1-1.4-3.4-1.4h-67.7c-1.3,0-2.5,0.5-3.4,1.4l-14.5,14.5C433.3,125.1,432.8,126.3,432.8,127.6z M477,219.4l8.9-67.1
		c0-0.2,0-0.4,0-0.6c0,0.3,0,0.6,0.1,0.9l13.3,66.8H477z M486,120.7l-2.8-2.8h5.7L486,120.7z M486,134.4l7.7,7.7l-6.3,6.3
		c-0.9,0.9-1.4,2.1-1.4,3.4c0-1.3-0.5-2.5-1.4-3.4l-6.3-6.3L486,134.4z M529.5,219.4h-20.2l-13.2-66.1l7.8-7.8l20.8-20.8l4.8,4.8
		L529.5,219.4L529.5,219.4z M500.5,135.2l-7.7-7.7l9.7-9.7h15.3L500.5,135.2z M469.5,117.9l9.7,9.7l-7.7,7.7l-17.3-17.3H469.5z
		 M442.5,129.6l4.8-4.8l20.8,20.8l8,8l-8.8,66h-24.8V129.6z"/>
	<path d="M486,98.6c21.4,0,38.7-17.3,38.7-38.7V6.7c0-2.7-2.2-4.8-4.8-4.8h-43.5c-16,0-29,13-29,29v29
		C447.3,81.2,464.6,98.5,486,98.6z M476.3,11.5H515c0,10.7-8.7,19.3-19.3,19.3H457C457,20.2,465.6,11.5,476.3,11.5z M457,40.5h38.7
		c7.1,0,14-2.7,19.3-7.4v26.8c0,16-13,29-29,29s-29-13-29-29V40.5z"/>
	<path d="M553.7,146.9v77.4c0,2.7,2.2,4.8,4.8,4.8h67.7c2.7,0,4.8-2.2,4.8-4.8v-77.4c0-1.3-0.5-2.5-1.4-3.4L615.1,129
		c-0.9-0.9-2.1-1.4-3.4-1.4H573c-1.3,0-2.5,0.5-3.4,1.4l-14.5,14.5C554.2,144.4,553.7,145.6,553.7,146.9z M563.4,148.9l9.7-9.7
		l11.1,11.1l3.4-3.4l3.4-3.4l-6.3-6.3h15.7l-6.5,6.1l3.3,3.5l3.3,3.5l11.5-10.9l9.3,9.3v70.5h-24.2v-72.5h-9.7v72.5h-24.2V148.9
		L563.4,148.9z"/>
	<path d="M587.7,45.4c-13.3,0-24.1,10.8-24.2,24.1l-0.1,24.2c-0.1,16,12.9,29,28.9,29.1c0,0,0.1,0,0.1,0l0,0c16,0,29-13,29-29V69.5
		c0-13.3-10.8-24.2-24.2-24.2H587.7z M587.5,55c0,7.9-6.4,14.4-14.3,14.5v0C573.2,61.6,579.6,55.1,587.5,55z M611.7,93.8
		c0,10.7-8.6,19.3-19.3,19.3l0,0c-10.7,0-19.3-8.6-19.3-19.3c0,0,0,0,0,0l0-14.5c7.6,0,14.7-3.6,19.2-9.7c4.6,6.1,11.7,9.7,19.3,9.7
		L611.7,93.8L611.7,93.8z M611.7,69.5c-8,0-14.5-6.5-14.5-14.5C605.2,55,611.7,61.5,611.7,69.5z"/>
	<path d="M418.3,224.3v-77.4c0-1.3-0.5-2.5-1.4-3.4L402.4,129c-0.9-0.9-2.1-1.4-3.4-1.4h-38.7c-1.3,0-2.5,0.5-3.4,1.4l-14.5,14.5
		c-0.9,0.9-1.4,2.1-1.4,3.4v77.4c0,2.7,2.2,4.8,4.8,4.8h67.7C416.1,229.1,418.3,226.9,418.3,224.3z M408.6,219.4h-24.2v-72.5h-9.7
		v72.5h-24.2v-70.5l9.7-9.7l11.1,11.1l3.4-3.4l3.4-3.4l-6.3-6.3h15.7l-6.5,6.1l3.3,3.5l3.3,3.5l11.5-10.9l9.3,9.3L408.6,219.4
		L408.6,219.4z"/>
	<path d="M350.7,93.7c-0.1,16,12.9,29,28.9,29.1c0,0,0.1,0,0.1,0l0,0c16,0,29-13,29-29V69.5c0-13.3-10.8-24.2-24.2-24.2h-9.5
		c-13.3,0-24.1,10.8-24.2,24.1L350.7,93.7z M379.7,113.1L379.7,113.1c-10.7,0-19.3-8.6-19.3-19.3c0,0,0,0,0,0l0.1-19.4
		c3.8,0,7.4-1.5,10.1-4.2c0.8-0.8,1.4-1.6,2-2.6c4.5,4.4,10.5,6.8,16.8,6.8h9.7v19.4C398.9,104.4,390.3,113,379.7,113.1z
		 M398.1,64.7h-8.8c-6.1,0-11.6-3.9-13.6-9.7h8.8C390.6,55.1,396,58.9,398.1,64.7z M365.1,58.9v0.9c0,1.3-0.5,2.5-1.4,3.4
		c-0.6,0.6-1.4,1-2.3,1.2C362.2,62.4,363.5,60.5,365.1,58.9z"/>
</g>
</svg>
