<?xml version="1.0" encoding="utf-8"?>
<!-- Generator: Adobe Illustrator 19.0.0, SVG Export Plug-In . SVG Version: 6.00 Build 0)  -->
<svg version="1.1" id="Layer_35" xmlns="http://www.w3.org/2000/svg" xmlns:xlink="http://www.w3.org/1999/xlink" x="0px" y="0px"
	 viewBox="231 -231 512 512" style="enable-background:new 231 -231 512 512;" xml:space="preserve">
<style type="text/css">
	.st0{fill:#FF4B55;}
	.st1{fill:#FFE15A;}
	.st2{fill:#FFE000;}
	.st3{fill:#003772;}
	.st4{fill:#004A9B;}
	.st5{fill:#FFC729;}
	.st6{fill:#F0D0B4;}
	.st7{fill:#FF826E;}
	.st8{fill:#FCD770;}
	.st9{fill:#FFFFFF;}
</style>
<path class="st0" d="M742,286H239c-5,0-9-6.2-9-13.8v-495.5c0-7.6,4-13.8,9-13.8h503c5,0,9,6.2,9,13.8v495.5
	C751,279.8,747,286,742,286z"/>
<g>
	<path class="st1" d="M288.7-184.2l6.5,19.4l20.5,0.2c2.6,0,3.7,3.4,1.6,5l-16.5,12.2l6.2,19.5c0.8,2.5-2.1,4.6-4.2,3.1l-16.6-11.9
		L269.5-125c-2.2,1.5-5-0.5-4.2-3.1l6.2-19.5l-16.5-12.2c-2.1-1.6-1-5,1.6-5l20.5-0.2l6.5-19.4C284.3-186.8,287.9-186.8,288.7-184.2
		z"/>
	<path class="st1" d="M363-179.5l4.6,6.3l7.5-2.3c1-0.3,1.8,0.8,1.2,1.6l-4.6,6.4l4.5,6.4c0.6,0.8-0.2,1.9-1.2,1.6l-7.5-2.4
		l-4.7,6.3c-0.6,0.8-1.9,0.4-1.9-0.6l0-7.8l-7.4-2.5c-1-0.3-1-1.7,0-2l7.5-2.5l0.1-7.8C361.1-179.9,362.4-180.3,363-179.5z"/>
	<path class="st1" d="M334.7-198.3l7.8,0.8l3.3-7.1c0.4-0.9,1.8-0.8,2,0.2l1.6,7.7l7.8,1c1,0.1,1.3,1.5,0.4,2l-6.8,3.9l1.5,7.7
		c0.2,1-1,1.7-1.7,1l-5.8-5.3l-6.9,3.8c-0.9,0.5-1.9-0.4-1.5-1.4l3.2-7.2l-5.7-5.4C333.2-197.2,333.7-198.4,334.7-198.3z"/>
	<path class="st1" d="M347.1-122.3l-4.6,6.3l-7.5-2.3c-1-0.3-1.8,0.8-1.2,1.6l4.6,6.4l-4.5,6.4c-0.6,0.8,0.2,1.9,1.2,1.6l7.5-2.4
		l4.7,6.3c0.6,0.8,1.9,0.4,1.9-0.6l0-7.8l7.4-2.5c1-0.3,1-1.7,0-2l-7.5-2.5l-0.1-7.8C349-122.7,347.7-123.1,347.1-122.3z"/>
	<path class="st1" d="M375.3-140l-7.8,0.8l-3.3-7.1c-0.4-0.9-1.8-0.8-2,0.2l-1.6,7.7l-7.8,1c-1,0.1-1.3,1.5-0.4,2l6.8,3.9l-1.5,7.7
		c-0.2,1,1,1.7,1.7,1l5.8-5.3l6.9,3.8c0.9,0.5,1.9-0.4,1.5-1.4l-3.2-7.2l5.7-5.4C376.9-138.9,376.3-140.1,375.3-140z"/>
</g>
<path class="st2" d="M693.3,175.2v90.4H441.5l5.5-16.5c6.7-1.9,13-4.5,19-7.8l15.5,7.7l27.4-27.4l-7.7-15.5c3.3-5.9,5.9-12.3,7.8-19
	l16.5-5.5v-6.5L693.3,175.2z"/>
<path class="st2" d="M706.2,155.8v12.9c0,3.6-2.9,6.5-6.5,6.5h-6.5H525.4v-25.8h32.3h51.6H661h32.3h6.5
	C703.3,149.3,706.2,152.2,706.2,155.8z"/>
<path class="st3" d="M661,149.3h-51.6l19.4-33.9l25-43.8c23.8,14.8,39.6,41.1,39.6,71.2v6.5H661z"/>
<path class="st3" d="M557.7,149.3h-32.3v-6.5c0-23.2,9.4-44.2,24.6-59.3c4.5-4.5,9.6-8.5,15-11.9l25,43.8l19.4,33.9H557.7z"/>
<path class="st4" d="M609.4,91.2l19.4,24.2l-19.4,33.9L590,115.4L609.4,91.2z"/>
<path class="st4" d="M653.7,71.7l-25,43.8l-19.4-24.2L637,63.7C642.9,65.7,648.5,68.4,653.7,71.7z"/>
<path class="st4" d="M609.4,91.2L590,115.4l-25-43.8c5.2-3.3,10.8-6,16.8-8L609.4,91.2z"/>
<path class="st5" d="M637,63.7l-27.6,27.6l-27.6-27.6c8.7-3.1,17.9-4.7,27.6-4.7S628.3,60.6,637,63.7z"/>
<path class="st4" d="M473.8,79.4l-7.8,3.9c-5.9-3.3-12.3-5.9-19-7.8L441.5,59h-19.4l18.1-31.7l26.2-46
	c23.8,14.8,39.6,41.1,39.6,71.2v47.6l-24.6-24.6L473.8,79.4z"/>
<path class="st4" d="M370.5,79.4l-7.7-3.9l-24.6,24.6V52.5c0-23.2,9.4-44.2,24.6-59.3c4.5-4.5,9.6-8.5,15-11.9l26.2,46L422.2,59
	h-19.4l-5.5,16.5c-6.7,1.9-13,4.5-19,7.8L370.5,79.4z"/>
<circle class="st6" cx="609.4" cy="13.8" r="45.2"/>
<circle class="st6" cx="422.2" cy="-76.6" r="45.2"/>
<path class="st3" d="M414.3-31L404,27.3l-26.2-46C388.6-25.5,401-29.8,414.3-31L414.3-31z"/>
<path class="st3" d="M466.5-18.7l-26.2,46L430-31C443.3-29.8,455.7-25.5,466.5-18.7L466.5-18.7z"/>
<path class="st7" d="M430-31l10.3,58.3L422.2,59L404,27.3L414.3-31c2.6-0.3,5.2-0.4,7.8-0.4C424.8-31.4,427.4-31.3,430-31L430-31z"
	/>
<path class="st5" d="M525.4,175.2v6.5l-16.5,5.5c-1.9,6.7-4.5,13-7.8,19l7.7,15.5l-27.4,27.4l-15.5-7.7c-5.9,3.3-12.3,5.9-19,7.8
	l-5.5,16.5h-19.4h-19.4l-5.5-16.5c-6.7-1.9-13-4.5-19-7.8l-15.5,7.7l-27.4-27.4l7.7-15.5c-3.3-5.9-5.9-12.3-7.8-19l-16.5-5.5v-38.7
	l16.5-5.5c1.9-6.7,4.5-13,7.8-19l-7.7-15.5l2.8-2.8l24.6-24.6l7.7,3.9l7.8,3.9c5.9-3.3,12.3-5.9,19-7.8l5.5-16.5h19.4h19.4l5.5,16.5
	c6.7,1.9,13,4.5,19,7.8l7.8-3.9l7.7-3.9l24.6,24.6l2.8,2.8l-7.7,15.5c3.3,5.9,5.9,12.3,7.8,19l16.5,5.5v6.5V175.2z"/>
<circle class="st8" cx="422.2" cy="162.2" r="64.6"/>
<path d="M493.2,162.2c0-39.2-31.9-71-71-71s-71,31.9-71,71s31.9,71,71,71S493.2,201.4,493.2,162.2z M422.2,220.3
	c-32,0-58.1-26.1-58.1-58.1s26.1-58.1,58.1-58.1s58.1,26.1,58.1,58.1S454.2,220.3,422.2,220.3z"/>
<path d="M422.2,142.9c3.6,0,6.5,2.9,6.5,6.5h12.9c0-8.4-5.4-15.5-12.9-18.2v-14.1h-12.9V130h-12.9v19.4c0,10.7,8.7,19.4,19.4,19.4
	c3.6,0,6.5,2.9,6.5,6.5v6.5h-6.5c-3.6,0-6.5-2.9-6.5-6.5h-12.9c0,8.4,5.4,15.5,12.9,18.2v14.1h12.9v-12.9h12.9v-19.4
	c0-10.7-8.7-19.4-19.4-19.4c-3.6,0-6.5-2.9-6.5-6.5v-6.5H422.2z"/>
<path d="M377,155.8h12.9v12.9H377V155.8z"/>
<path d="M454.4,155.8h12.9v12.9h-12.9V155.8z"/>
<path class="st9" d="M699.7,142.9c0-40-26.2-74-62.3-85.8c14.1-9.2,23.5-25.2,23.5-43.3c0-28.5-23.2-51.6-51.6-51.6
	s-51.6,23.2-51.6,51.6c0,18.1,9.4,34,23.5,43.3c-13.3,4.4-25.6,11.7-35.8,22c-15,15-24,34.3-26,55.1l-5.2-1.7
	c-1.6-4.9-3.5-9.6-5.8-14l8.3-16.7l-4.2-4.2V52.5c0-40-26.2-74-62.3-85.8c14.1-9.2,23.5-25.2,23.5-43.3c0-28.5-23.2-51.6-51.6-51.6
	c-28.5,0-51.6,23.2-51.6,51.6c0,18.1,9.4,34,23.5,43.3c-36.1,11.9-62.3,45.8-62.3,85.8v44.9l-4.2,4.2l8.3,16.7
	c-2.3,4.5-4.2,9.2-5.8,14l-17.7,5.9v48l17.7,5.9c1.6,4.9,3.5,9.6,5.8,14l-8.3,16.7l34,34l16.7-8.3c4.5,2.3,9.2,4.2,14,5.8l5.9,17.7
	h24h24h253.6v-90.4c7.1,0,12.9-5.8,12.9-12.9v-12.9C712.7,148.7,706.9,142.9,699.7,142.9L699.7,142.9z M686.8,142.9h-19.4v-25.8
	h-12.9v25.8h-34.1L655.8,81C674.6,95.2,686.8,117.6,686.8,142.9z M609.4,65.4c5.2,0,10.3,0.5,15.2,1.5l-15.2,15.2l-15.2-15.2
	C599.1,65.9,604.2,65.4,609.4,65.4z M627.8,104L618,91.7l20.5-20.5c2.2,0.9,4.3,1.9,6.3,3L627.8,104z M600.7,91.7l-9.8,12.3
	l-17.1-29.9c2.1-1.1,4.2-2.1,6.3-3L600.7,91.7z M609.4,101.6l11.6,14.5l-11.6,20.3l-11.6-20.3L609.4,101.6z M570.6,13.8
	C570.6-7.6,588-25,609.4-25s38.7,17.4,38.7,38.7s-17.4,38.7-38.7,38.7S570.6,35.1,570.6,13.8z M554.6,88.1c2.6-2.6,5.4-4.9,8.3-7.1
	l35.4,61.9h-34.1v-25.8h-12.9v25.8h-19.4C531.9,122.2,540,102.7,554.6,88.1z M499.6,52.5v32l-16.8-16.9l-2.5,1.3V26.7h-12.9v48.7
	l-1.2,0.6c-4.5-2.3-9.2-4.2-14-5.8l-5.9-17.7h-12.9l35.3-61.8C487.4,4.8,499.6,27.2,499.6,52.5L499.6,52.5z M386.6-16.3
	c6.2-3.2,12.8-5.6,19.8-7.1l-5.6,31.9L386.6-16.3z M419.8-24.8c0.8,0,1.6-0.1,2.3-0.1c0.8,0,1.6,0.1,2.3,0.1l9,50.9L422.2,46
	l-11.4-19.9L419.8-24.8z M443.5,8.6l-5.6-31.9c7,1.5,13.6,3.9,19.8,7.1L443.5,8.6z M383.4-76.6c0-21.4,17.4-38.7,38.7-38.7
	c21.4,0,38.7,17.4,38.7,38.7s-17.4,38.7-38.7,38.7S383.4-55.2,383.4-76.6z M344.7,52.5c0-25.3,12.2-47.7,31-61.8L411,52.5h-12.9
	l-5.9,17.7c-4.9,1.6-9.6,3.5-14,5.8l-1.2-0.6V26.7h-12.9v42.2l-2.5-1.3l-16.8,16.8V52.5z M422.2,259.1h-14.7l-5.1-15.3l-3.3-0.9
	c-6.2-1.8-12.2-4.2-17.6-7.3l-3-1.7l-14.4,7.2l-20.8-20.8l7.2-14.4l-1.7-3c-3-5.5-5.5-11.4-7.3-17.6l-0.9-3.3l-15.3-5.1v-29.4
	l15.3-5.1l0.9-3.3c1.8-6.2,4.2-12.2,7.3-17.6l1.7-3l-7.2-14.4l20.8-20.8l14.4,7.2l3-1.7c5.5-3,11.4-5.5,17.6-7.3l3.3-0.9l5.1-15.3
	h29.4l5.1,15.3l3.3,0.9c6.2,1.8,12.2,4.2,17.6,7.3l3,1.7l14.4-7.2l20.8,20.8l-7.2,14.4l1.7,3c3,5.5,5.5,11.4,7.3,17.6l0.9,3.3
	l15.3,5.1v1.8V177l-15.3,5.1l-0.9,3.3c-1.8,6.2-4.2,12.2-7.3,17.6l-1.7,3l7.2,14.4l-20.8,20.8l-14.4-7.2l-3,1.7
	c-5.5,3-11.4,5.5-17.6,7.3l-3.3,0.9l-5.1,15.3H422.2z M686.8,259.1H450.5l1.6-4.8c4.9-1.6,9.6-3.5,14-5.8l16.7,8.3l34-34l-8.3-16.7
	c2.3-4.5,4.2-9.2,5.8-14l17.7-5.9v-4.7h154.9V259.1z M699.7,168.7H531.9v-12.9h167.8V168.7z"/>
<path d="M661,233.3h12.9v12.9H661V233.3z"/>
<path d="M635.2,233.3h12.9v12.9h-12.9V233.3z"/>
<path d="M609.4,233.3h12.9v12.9h-12.9V233.3z"/>
</svg>
