<?xml version="1.0" encoding="utf-8"?>
<!-- Generator: Adobe Illustrator 19.0.0, SVG Export Plug-In . SVG Version: 6.00 Build 0)  -->
<svg version="1.1" id="Layer_3" xmlns="http://www.w3.org/2000/svg" xmlns:xlink="http://www.w3.org/1999/xlink" x="0px" y="0px"
	 viewBox="231 -231 512 512" style="enable-background:new 231 -231 512 512;" xml:space="preserve">
<style type="text/css">
	.st0{fill:#999999;}
	.st1{fill:#CCCCCC;}
	.st2{fill:#98572C;}
	.st3{fill:#FF8F43;}
	.st4{fill:#ECC341;}
	.st5{fill:#F5DC73;}
	.st6{fill:#737373;}
	.st7{fill:#B19231;}
	.st8{fill:#FFBC00;}
	.st9{fill:#BA4737;}
	.st10{fill:#F85E49;}
	.st11{fill:#51FF00;}
	.st12{fill:#00B556;}
	.st13{fill:#00E577;}
	.st14{fill:#92FFCB;}
	.st15{fill:#00C66C;}
	.st16{fill:#4C2C16;}
	.st17{fill:#008B4E;}
	.st18{fill:#00FF85;}
</style>
<g>
	<g>
		<rect x="263" y="-135" class="st0" width="448" height="272"/>
	</g>
	<g>
		<rect x="263" y="-135" class="st1" width="424" height="272"/>
	</g>
	<g>
		<rect x="487" y="-55" class="st2" width="192" height="96"/>
	</g>
	<g>
		<rect x="487" y="-55" class="st3" width="168" height="96"/>
	</g>
	<g>
		<rect x="583" y="-23" class="st4" width="96" height="32"/>
	</g>
	<g>
		<polyline class="st5" points="679,73 679,-23 711,9 711,73 		"/>
	</g>
	<g>
		<polyline class="st5" points="583,73 583,-23 551,9 551,73 		"/>
	</g>
	<g>
		<rect x="311" y="137" class="st6" width="144" height="32"/>
	</g>
	<g>
		<rect x="311" y="137" class="st0" width="120" height="32"/>
	</g>
	<g>
		<rect x="295" y="169" class="st0" width="176" height="32"/>
	</g>
	<g>
		<rect x="295" y="169" class="st1" width="152" height="32"/>
	</g>
	<g>
		<rect x="279" y="201" class="st6" width="208" height="32"/>
	</g>
	<g>
		<rect x="279" y="201" class="st0" width="184" height="32"/>
	</g>
	<g>
		<rect x="263" y="233" class="st0" width="240" height="32"/>
	</g>
	<g>
		<rect x="263" y="233" class="st1" width="216" height="32"/>
	</g>
	<g>
		<rect x="535" y="73" class="st7" width="192" height="192"/>
	</g>
	<g>
		<rect x="535" y="73" class="st8" width="168" height="192"/>
	</g>
	<g>
		<circle class="st9" cx="631" cy="169" r="64"/>
	</g>
	<g>
		<ellipse class="st10" cx="619" cy="169" rx="52" ry="62.8"/>
	</g>
	<g>
		<rect x="263" y="73" class="st2" width="272" height="64"/>
	</g>
	<g>
		<rect x="263" y="73" class="st11" width="248" height="64"/>
	</g>
	<g>
		<rect x="311" y="-71" class="st12" width="144" height="208"/>
	</g>
	<g>
		<rect x="311" y="-71" class="st13" width="120" height="208"/>
	</g>
	<g>
		<rect x="343" y="-39" class="st14" width="80" height="48"/>
	</g>
	<g>
		<rect x="343" y="-39" class="st15" width="56" height="48"/>
	</g>
	<g>
		<rect x="343" y="41" class="st14" width="80" height="48"/>
	</g>
	<g>
		<rect x="343" y="41" class="st15" width="56" height="48"/>
	</g>
	<g>
		<rect x="487" y="-103" class="st16" width="192" height="48"/>
	</g>
	<g>
		<rect x="487" y="-103" class="st2" width="168" height="48"/>
	</g>
	<g>
		<rect x="247" y="-215" class="st17" width="480" height="80"/>
	</g>
	<g>
		<rect x="247" y="-215" class="st18" width="456" height="80"/>
	</g>
	<g>
		<path d="M727,273H535c-4.4,0-8-3.6-8-8V73c0-4.4,3.6-8,8-8h192c4.4,0,8,3.6,8,8v192C735,269.4,731.4,273,727,273z M543,257h176V81
			H543V257z"/>
	</g>
	<g>
		<path d="M679,17h-96c-4.4,0-8-3.6-8-8v-32c0-4.4,3.6-8,8-8h96c4.4,0,8,3.6,8,8V9C687,13.4,683.4,17,679,17z M591,1h80v-16h-80V1z"
			/>
	</g>
	<g>
		<path d="M719,73h-16V12.3l-16-16V73h-16v-96c0-3.2,1.9-6.2,4.9-7.4c3-1.2,6.4-0.6,8.7,1.7l32,32c1.5,1.5,2.3,3.5,2.3,5.7V73z"/>
	</g>
	<g>
		<path d="M631,241c-39.7,0-72-32.3-72-72s32.3-72,72-72s72,32.3,72,72S670.7,241,631,241z M631,113c-30.9,0-56,25.1-56,56
			s25.1,56,56,56s56-25.1,56-56S661.9,113,631,113z"/>
	</g>
	<g>
		<rect x="597.1" y="161" transform="matrix(-0.7071 0.7071 -0.7071 -0.7071 1196.673 -157.6725)" width="67.9" height="16"/>
	</g>
	<g>
		<rect x="595.7" y="137" transform="matrix(-0.7071 0.7071 -0.7071 -0.7071 1138.7361 -181.6799)" width="22.6" height="16"/>
	</g>
	<g>
		<rect x="643.7" y="185" transform="matrix(-0.7071 0.7071 -0.7071 -0.7071 1254.6169 -133.6793)" width="22.6" height="16"/>
	</g>
	<g>
		<path d="M727-127H247c-4.4,0-8-3.6-8-8v-80c0-4.4,3.6-8,8-8h480c4.4,0,8,3.6,8,8v80C735-130.6,731.4-127,727-127z M255-143h464
			v-64H255V-143z"/>
	</g>
	<g>
		<path d="M535,145H263c-4.4,0-8-3.6-8-8v-272c0-4.4,3.6-8,8-8h448c4.4,0,8,3.6,8,8v88h-16v-80H271v256h264V145z"/>
	</g>
	<g>
		<path d="M455,145H311c-4.4,0-8-3.6-8-8V-71c0-4.4,3.6-8,8-8h144c4.4,0,8,3.6,8,8v208C463,141.4,459.4,145,455,145z M319,129h128
			V-63H319V129z"/>
	</g>
	<g>
		<rect x="263" y="65" width="48" height="16"/>
	</g>
	<g>
		<rect x="455" y="65" width="256" height="16"/>
	</g>
	<g>
		<path d="M423,17h-80c-4.4,0-8-3.6-8-8v-48c0-4.4,3.6-8,8-8h80c4.4,0,8,3.6,8,8V9C431,13.4,427.4,17,423,17z M351,1h64v-32h-64V1z"
			/>
	</g>
	<g>
		<path d="M423,97h-80c-4.4,0-8-3.6-8-8V41c0-4.4,3.6-8,8-8h80c4.4,0,8,3.6,8,8v48C431,93.4,427.4,97,423,97z M351,81h64V49h-64V81z
			"/>
	</g>
	<g>
		<path d="M591,73h-16V-3.7l-16,16V73h-16V9c0-2.1,0.8-4.2,2.3-5.7l32-32c2.3-2.3,5.7-3,8.7-1.7c3,1.2,4.9,4.2,4.9,7.4V73z"/>
	</g>
	<g>
		<path d="M551,49h-64c-4.4,0-8-3.6-8-8v-144c0-4.4,3.6-8,8-8h192c4.4,0,8,3.6,8,8v48c0,4.4-3.6,8-8,8H495v80h56V49z M495-63h176
			v-32H495V-63z"/>
	</g>
	<g>
		<path d="M455,177H311c-4.4,0-8-3.6-8-8v-32c0-4.4,3.6-8,8-8h144c4.4,0,8,3.6,8,8v32C463,173.4,459.4,177,455,177z M319,161h128
			v-16H319V161z"/>
	</g>
	<g>
		<path d="M471,209H295c-4.4,0-8-3.6-8-8v-32c0-4.4,3.6-8,8-8h176c4.4,0,8,3.6,8,8v32C479,205.4,475.4,209,471,209z M303,193h160
			v-16H303V193z"/>
	</g>
	<g>
		<path d="M487,241H279c-4.4,0-8-3.6-8-8v-32c0-4.4,3.6-8,8-8h208c4.4,0,8,3.6,8,8v32C495,237.4,491.4,241,487,241z M287,225h192
			v-16H287V225z"/>
	</g>
	<g>
		<path d="M503,273H263c-4.4,0-8-3.6-8-8v-32c0-4.4,3.6-8,8-8h240c4.4,0,8,3.6,8,8v32C511,269.4,507.4,273,503,273z M271,257h224
			v-16H271V257z"/>
	</g>
	<g>
		<rect x="247" y="-191" width="72" height="16"/>
	</g>
	<g>
		<rect x="655" y="-175" width="72" height="16"/>
	</g>
</g>
</svg>
