<?xml version="1.0" encoding="utf-8"?>
<!-- Generator: Adobe Illustrator 19.0.0, SVG Export Plug-In . SVG Version: 6.00 Build 0)  -->
<svg version="1.1" id="Layer_1" xmlns="http://www.w3.org/2000/svg" xmlns:xlink="http://www.w3.org/1999/xlink" x="0px" y="0px"
	 viewBox="6 -6 512 512" style="enable-background:new 6 -6 512 512;" xml:space="preserve">
<style type="text/css">
	.st0{fill:#F9FF00;}
	.st1{fill:#3A312A;}
	.st2{fill:#FAE6CA;}
	.st3{fill:#8AC5DC;}
	.st4{fill:#E7FF00;}
	.st5{fill:#87796F;}
	.st6{fill:#FFE600;}
	.st7{fill:#F8E4C8;}
	.st8{fill:#89C4DB;}
	.st9{fill:#6CA6BE;}
</style>
<path class="st0" d="M152.9,304.5c-1.9,23.1-26.1,26.8-26.1,26.8c20.7,1,25.9,28.1,25.9,28.1c0.4-19.4,26.6-28.4,26.6-28.4
	C159.7,329.8,152.9,304.5,152.9,304.5L152.9,304.5z"/>
<path class="st1" d="M179.5,328c-17.2-1-23.7-24-23.7-24.3c-0.4-1.4-1.7-2.3-3.2-2.2c-1.4,0.1-2.6,1.3-2.7,2.7
	c-1.7,20.4-22.6,23.9-23.5,24.1c-1.5,0.2-2.6,1.6-2.5,3.1c0.1,1.5,1.3,2.8,2.9,2.8c18.1,0.9,23,25.4,23,25.7
	c0.3,1.4,1.5,2.4,2.9,2.4c0.1,0,0.2,0,0.3,0c1.5-0.1,2.7-1.4,2.8-2.9c0.4-17,24.4-25.6,24.6-25.6c1.4-0.5,2.2-1.8,2-3.2
	C182.1,329.2,181,328.1,179.5,328L179.5,328z M152.4,348.7c-2.7-6.3-7.4-13.8-15.2-17.8c5.9-2.8,12.8-7.8,16.4-16.5
	c3.1,6.1,8.4,13.8,16.7,17.4C164.3,335.1,156.4,340.7,152.4,348.7z"/>
<path class="st0" d="M109.5,338.5c-1.4,16.4-18.4,18.9-18.4,18.9c14.6,0.7,18.3,19.9,18.3,19.9c0.3-13.7,18.8-20.1,18.8-20.1
	C114.3,356.4,109.5,338.5,109.5,338.5z"/>
<path class="st1" d="M128.4,354.2c-11.5-0.7-15.9-16.3-16-16.5c-0.4-1.4-1.7-2.3-3.2-2.2c-1.5,0.1-2.6,1.3-2.7,2.7
	c-1.2,13.7-15.3,16.1-15.9,16.2c-1.5,0.2-2.6,1.6-2.5,3.1c0.1,1.5,1.3,2.8,2.9,2.8c12.1,0.6,15.4,17.3,15.5,17.5
	c0.3,1.4,1.5,2.4,2.9,2.4c0.1,0,0.2,0,0.3,0c1.5-0.1,2.7-1.4,2.8-2.9c0.3-11.4,16.7-17.3,16.8-17.3c1.4-0.5,2.2-1.8,2-3.2
	C131,355.4,129.8,354.3,128.4,354.2L128.4,354.2z M109.2,367.8c-1.8-3.8-4.7-7.9-8.9-10.6c3.7-2.1,7.4-5.3,9.7-9.8
	c2.1,3.7,5.3,7.9,9.9,10.4C116.2,360.1,112,363.3,109.2,367.8L109.2,367.8z"/>
<path class="st0" d="M109.5,285.2c-1.4,16.4-18.4,18.9-18.4,18.9c14.6,0.7,18.3,19.9,18.3,19.9c0.3-13.7,18.8-20.1,18.8-20.1
	C114.3,303.1,109.5,285.2,109.5,285.2z"/>
<path class="st1" d="M128.4,300.9c-11.5-0.7-15.9-16.4-16-16.5c-0.4-1.4-1.7-2.3-3.2-2.2c-1.5,0.1-2.6,1.3-2.7,2.7
	c-1.2,13.7-15.3,16.1-15.9,16.2c-1.5,0.2-2.6,1.6-2.5,3.1c0.1,1.5,1.3,2.8,2.9,2.8c12.1,0.6,15.4,17.3,15.5,17.5
	c0.3,1.4,1.5,2.4,2.9,2.4c0.1,0,0.2,0,0.3,0c1.5-0.1,2.7-1.4,2.8-2.9c0.3-11.4,16.7-17.3,16.8-17.3c1.4-0.5,2.2-1.8,2-3.2
	C131,302.1,129.8,301,128.4,300.9z M109.2,314.5c-1.8-3.8-4.7-7.9-8.9-10.6c3.7-2.1,7.4-5.3,9.7-9.8c2.1,3.7,5.3,7.9,9.9,10.4
	C116.2,306.8,112,310,109.2,314.5L109.2,314.5z"/>
<path class="st2" d="M420,360.2h-39.1v-25.4c-10.8,7.5-22,11.9-32.8,11.9c-10.4,0-21.4-4.5-32.1-12h-0.7v25.5h-39.1
	c-32.7,0-59.1,26.5-59.1,59.1v53.6h262v-53.6C479.1,386.7,452.6,360.2,420,360.2L420,360.2z"/>
<path class="st1" d="M420,357.2h-36.1v-22.4c0-1.1-0.6-2.1-1.6-2.7c-1-0.5-2.2-0.4-3.1,0.2c-10.9,7.5-21.4,11.4-31.1,11.4
	c-9.4,0-19.6-3.9-30.4-11.5c-0.5-0.4-1.1-0.5-1.7-0.5h-0.7c-1.7,0-3,1.3-3,3v22.5h-36.1c-34.3,0-62.1,27.9-62.1,62.1v53.6
	c0,1.7,1.3,3,3,3h89.8c1.7,0,3-1.3,3-3s-1.3-3-3-3H220v-50.6c0-30.9,25.2-56.1,56.1-56.1h39.1c1.7,0,3-1.3,3-3v-20.4
	c10.4,6.6,20.4,9.9,29.8,9.9c9.6,0,19.6-3.2,29.8-9.4v19.9c0,1.7,1.3,3,3,3H420c30.9,0,56.1,25.2,56.1,56.1v50.6H336.4
	c-1.7,0-3,1.3-3,3s1.3,3,3,3h142.7c1.7,0,3-1.3,3-3v-53.6C482.1,385.1,454.2,357.2,420,357.2L420,357.2z"/>
<path class="st3" d="M420,360.2h-9.3l0.2,0.2l-40.6,53.9l-21-15.8l-21,15.8l-40.6-53.9l0.2-0.2h-11.7c-32.7,0-59.1,26.5-59.1,59.1
	v53.6h262v-53.6C479.1,386.7,452.6,360.2,420,360.2L420,360.2z"/>
<path class="st1" d="M420,357.2h-9.3c-1.3,0-2.5,0.8-2.9,2.1c0,0.1-0.1,0.2-0.1,0.3l-38,50.4l-18.6-14c-1.1-0.8-2.5-0.8-3.6,0
	l-18.6,14l-38-50.4c0-0.1-0.1-0.2-0.1-0.3c-0.4-1.2-1.6-2.1-2.9-2.1h-11.7c-34.3,0-62.1,27.9-62.1,62.1v53.6c0,1.7,1.3,3,3,3h89.8
	c1.7,0,3-1.3,3-3s-1.3-3-3-3H220v-50.6c0-30.9,25.2-56.1,56.1-56.1h9.9l39.9,52.9c1,1.3,2.9,1.6,4.2,0.6l19.2-14.4l19.2,14.4
	c1.3,1,3.2,0.7,4.2-0.6l39.9-52.9h7.5c30.9,0,56.1,25.2,56.1,56.1v50.6H336.4c-1.7,0-3,1.3-3,3s1.3,3,3,3h142.7c1.7,0,3-1.3,3-3
	v-53.6C482.1,385.1,454.2,357.2,420,357.2L420,357.2z"/>
<path class="st2" d="M246.5,190.4c-12.8,0-23.3,10.4-23.3,23.3s10.4,23.3,23.3,23.3c12.8,0,23.3-10.4,23.3-23.3
	S259.4,190.4,246.5,190.4z"/>
<path class="st1" d="M246.5,187.4c-14.5,0-26.3,11.8-26.3,26.3s11.8,26.3,26.3,26.3c14.5,0,26.3-11.8,26.3-26.3
	S261,187.4,246.5,187.4L246.5,187.4z M246.5,233.9c-11.2,0-20.3-9.1-20.3-20.3s9.1-20.3,20.3-20.3c11.2,0,20.3,9.1,20.3,20.3
	S257.7,233.9,246.5,233.9L246.5,233.9z"/>
<circle class="st2" cx="449.6" cy="213.7" r="23.3"/>
<path class="st1" d="M449.6,187.4c-14.5,0-26.3,11.8-26.3,26.3s11.8,26.3,26.3,26.3s26.3-11.8,26.3-26.3S464.1,187.4,449.6,187.4z
	 M449.6,233.9c-11.2,0-20.3-9.1-20.3-20.3s9.1-20.3,20.3-20.3s20.3,9.1,20.3,20.3S460.8,233.9,449.6,233.9z"/>
<path class="st2" d="M348.1,99.2c-57,0-103.1,46.2-103.1,103.1s57,144.4,103.1,144.4c48.3,0,103.1-87.4,103.1-144.4
	S405,99.2,348.1,99.2L348.1,99.2z"/>
<g>
	<path class="st1" d="M348.1,96.2c-58.5,0-106.1,47.6-106.1,106.1c0,27.7,13.3,64.2,34.8,95.3c22.6,32.6,49.2,52.1,71.3,52.1
		c23.3,0,49.6-19,72.1-52.1c21-30.8,34-67.2,34-95.2C454.2,143.9,406.6,96.2,348.1,96.2L348.1,96.2z M415.3,294.2
		c-21.1,31-46.3,49.5-67.2,49.5c-20.1,0-44.9-18.5-66.4-49.5c-20.8-30.1-33.8-65.3-33.8-91.8c0-55.2,44.9-100.1,100.1-100.1
		s100.1,44.9,100.1,100.1C448.2,229.2,435.6,264.4,415.3,294.2L415.3,294.2z"/>
	<path class="st1" d="M311.7,191.1c-5.6,0-10.1,4.5-10.1,10.1s4.5,10.1,10.1,10.1s10.1-4.5,10.1-10.1
		C321.7,195.6,317.2,191.1,311.7,191.1z"/>
	<path class="st1" d="M384.5,191.1c-5.6,0-10.1,4.5-10.1,10.1s4.5,10.1,10.1,10.1s10.1-4.5,10.1-10.1
		C394.5,195.6,390,191.1,384.5,191.1z"/>
</g>
<path class="st4" d="M291.5,218.2c-9.6,0-17.3,5.8-17.3,13s7.8,13,17.3,13s17.3-5.8,17.3-13S301.1,218.2,291.5,218.2z"/>
<path class="st4" d="M404.6,218.2c-9.6,0-17.3,5.8-17.3,13s7.8,13,17.3,13s17.3-5.8,17.3-13S414.2,218.2,404.6,218.2z"/>
<path class="st5" d="M456,178.5c0-56.4-47.8-102.1-106.7-102.1c-59,0-106.7,45.7-106.7,102.1c0,6,1.1,10.4,3.1,16
	c0.9,2.6,16.2-5.7,17.5-6.7c6.5-4.6,11.8-10.8,15.8-17.7c1.6-2.9,3-5.8,4.1-8.7c3.5-9.3,13.1-35.1,22.8-33c13,2.7,27.8,4.2,43.4,4.2
	s30.4-1.5,43.4-4.2c9.7-2,19.3,23.8,22.8,33c1.1,2.9,2.5,5.8,4.1,8.7c6.6,11.4,17.7,22.2,31.1,24.1c0-0.7,0.9-0.9,1.5-1.1
	C456.6,191.6,456,182.1,456,178.5L456,178.5z"/>
<path class="st1" d="M459,179.7l0-1.1c0-57.9-49.2-105.1-109.7-105.1s-109.7,47.1-109.7,105.1c0,6.6,1.3,11.4,3.3,17
	c0.4,1.1,1.3,1.9,2.4,2.3c0.4,0.1,0.8,0.2,1.3,0.2c5.7,0,18.3-7.6,18.4-7.7c6.5-4.6,12.3-11,16.7-18.6c1.7-2.9,3.1-6,4.3-9.1
	l0.2-0.6c10.6-27.9,16.5-31.1,19.1-30.6c13.7,2.9,28.5,4.3,44,4.3s30.3-1.4,44-4.3c2.6-0.5,8.6,2.7,19.1,30.6l0.2,0.6
	c1.2,3.1,2.6,6.2,4.3,9.1c8.2,14.2,20.7,23.8,33.3,25.6c0.8,0.1,1.7-0.1,2.3-0.6c0.2-0.2,0.4-0.4,0.5-0.6c0,0,0,0,0.1,0
	C459.2,193.9,459.1,184.6,459,179.7L459,179.7z M451,190.5c-0.3,0.1-0.8,0.3-1.4,0.6c-10.3-2.1-20.5-10.4-27.5-22.4
	c-1.5-2.7-2.9-5.4-3.9-8.2l-0.2-0.6c-6.9-18.2-15.4-36.5-26-34.3c-13.3,2.8-27.7,4.2-42.8,4.2s-29.5-1.4-42.8-4.2
	c-10.6-2.2-19.1,16.1-26,34.3l-0.2,0.6c-1.1,2.8-2.4,5.6-3.9,8.2c-4,6.8-9.1,12.6-14.9,16.7c-1.8,1.2-10,5.5-13.6,6.4
	c-1.4-4.3-2.3-8.2-2.3-13.3c0-54.6,46.5-99.1,103.7-99.1S453,123.9,453,178.5l0,1.2C453.1,188.4,451.9,190.1,451,190.5L451,190.5z"
	/>
<path class="st5" d="M287.8,360.5l21.1-15.9l40.6,53.9l-21.1,15.9L287.8,360.5z"/>
<path class="st1" d="M351.7,396.6l-40.6-53.9c-1-1.3-2.9-1.6-4.2-0.6L285.9,358c-1.3,1-1.6,2.9-0.6,4.2l40.6,53.9
	c0.5,0.6,1.2,1.1,2,1.2c0.1,0,0.3,0,0.4,0c0.6,0,1.3-0.2,1.8-0.6l21.1-15.9c0.6-0.5,1.1-1.2,1.2-2
	C352.4,398,352.2,397.2,351.7,396.6L351.7,396.6z M328.9,410.1l-37-49.1l16.3-12.3l37,49.1L328.9,410.1z"/>
<path class="st5" d="M349.4,398.3l40.6-53.9l21.1,15.9l-40.6,53.9L349.4,398.3z"/>
<path class="st1" d="M412.6,358l-21.1-15.9c-1.3-1-3.2-0.7-4.2,0.6l-40.6,53.9c-0.5,0.6-0.7,1.4-0.6,2.2c0.1,0.8,0.5,1.5,1.2,2
	l21.1,15.9c0.5,0.4,1.2,0.6,1.8,0.6c0.1,0,0.3,0,0.4,0c0.8-0.1,1.5-0.5,2-1.2l40.6-53.9C414.2,360.9,414,359,412.6,358L412.6,358z
	 M369.6,410.1l-16.3-12.3l37-49.1l16.3,12.3L369.6,410.1z"/>
<path class="st1" d="M266.1,427.6c-1.7,0-3,1.3-3,3v42.3c0,1.7,1.3,3,3,3s3-1.3,3-3v-42.3C269.1,428.9,267.8,427.6,266.1,427.6z"/>
<path class="st1" d="M432.4,427.6c-1.7,0-3,1.3-3,3v42.3c0,1.7,1.3,3,3,3s3-1.3,3-3v-42.3C435.4,428.9,434,427.6,432.4,427.6z"/>
<path class="st5" d="M347.3,39.4c-72.7,42.8-114.9-39.4-114.9-2c0,11.8,4.8,23.7,11,34.4l17.4,24.6c17.5,22,38.4,45.5,63.7,52.7
	c40.7,11.6,112.8-2.9,112.8-61.5C437.4,50.3,406,4.9,347.3,39.4z"/>
<path class="st1" d="M410.6,30.5c-12.5-7.1-33.9-11.8-64.8,6.4c-42.3,24.9-73.8,6-92.6-5.3c-8.9-5.4-14.8-8.9-19.4-6.3
	c-3.8,2.2-4.3,7.7-4.3,12.2c0,11,3.7,22.7,11.4,35.9c0,0.1,0.1,0.1,0.1,0.2l17.4,24.6c0,0,0.1,0.1,0.1,0.1
	c18.8,23.6,39.6,46.5,65.3,53.8c8.6,2.4,18.7,3.8,29.4,3.8c21.6,0,45.4-5.6,62.8-18.7c16-12.1,24.5-29.2,24.5-49.4
	C440.4,67.7,431.2,42.3,410.6,30.5L410.6,30.5z M412.3,132.4c-24.4,18.4-62.2,21-86.9,14c-24-6.8-44-28.8-62.2-51.6L246,70.3
	c-7.1-12.2-10.6-23-10.6-32.8c0-6.2,1.2-7,1.3-7c1.6-0.9,8.4,3.2,13.4,6.2c18.6,11.2,53.4,32,98.7,5.3c22.5-13.3,42.8-15.4,58.8-6.3
	c18.5,10.6,26.8,33.8,26.8,52.1C434.4,106.3,427,121.3,412.3,132.4L412.3,132.4z"/>
<path class="st1" d="M377.6,265.5c-1.6-0.6-3.3,0.2-3.9,1.8c-2,5.5-10,15.8-25.7,15.8c-12.2,0-20.7-5.2-25.8-16
	c-0.7-1.5-2.5-2.1-4-1.4s-2.1,2.5-1.4,4c6.1,12.9,16.6,19.4,31.2,19.4c16.4,0,27.8-10.2,31.3-19.7
	C380,267.8,379.2,266.1,377.6,265.5L377.6,265.5z"/>
<path class="st6" d="M194.3,151.7c13.6-13.2,21.8-30.7,21.8-49.9c0-41.3-38.3-74.8-85.6-74.8c-3,0-5.9,0.1-8.8,0.4
	C89,30.3,61.8,49.3,50.5,75.3c-0.1,0.3-0.3,0.6-0.4,0.9c-0.1,0.3-0.2,0.6-0.3,0.9c-3.1,7.8-4.8,16.1-4.8,24.8v0c0,0,0,0.1,0,0.1
	c0,41.3,38.1,74.8,85.1,74.8c6.8,0,13.3-0.7,19.6-2.1c0.9-0.2,1.8-0.4,2.7-0.6c0.1,0,0.1,0,0.2,0l49.9,16.4c3.3,1.1,6.4-2.2,5.1-5.4
	L194.3,151.7z"/>
<path class="st1" d="M197.8,152.4c13.7-14.1,21.3-32,21.3-50.6c0-42.9-39.7-77.8-88.6-77.8c-3,0-6.1,0.1-9.1,0.4
	c-32.9,2.8-61.8,22.3-73.7,49.6l-0.2,0.3c-0.1,0.2-0.2,0.4-0.3,0.6c-0.1,0.2-0.1,0.4-0.2,0.6L47,75.9c-3.4,8.3-5.1,17.1-5.1,25.9
	c0,0,0,0.1,0,0.1h0c0,42.9,39.5,77.8,88.1,77.8c6.7,0,13.5-0.7,20.2-2.1c0.7-0.1,1.4-0.3,2.1-0.4l49.1,16.2c0.7,0.2,1.5,0.4,2.3,0.4
	c1.9,0,3.8-0.8,5.2-2.2c1.9-2,2.5-4.9,1.4-7.5L197.8,152.4z M204.5,187.4c-0.2,0.2-0.6,0.5-1.2,0.3l-49.9-16.4
	c-0.3-0.1-0.6-0.1-0.9-0.1c-0.3,0-0.6,0-0.8,0.1c-0.9,0.2-1.8,0.4-2.7,0.6c-6.3,1.3-12.7,2-19,2c-45.3,0-82.1-32.2-82.1-71.9
	c0,0,0-0.1,0-0.1c0-8.1,1.6-16,4.6-23.6l0.7-1.7c11-25.3,37.9-43.4,68.7-46c2.8-0.3,5.7-0.4,8.6-0.4c45.5,0,82.6,32.2,82.6,71.8
	c0,17.6-7.4,34.6-20.9,47.7c-0.9,0.8-1.1,2.1-0.7,3.3l13.3,33.4C205,186.8,204.7,187.2,204.5,187.4z"/>
<path class="st7" d="M184.6,80h-29.7c-2.9,0-5.2-2.3-5.2-5.2v-17c0-5.8-4.7-10.5-10.5-10.5c-2.9,0-5.5,1.2-7.4,3.1
	c-1.9,1.9-3.1,4.5-3.1,7.4V71c0,5.4-3.4,10.2-8.6,12l-10.2,3.5c0,0.3,0.1,0.6,0.1,1V135c0,0.1,0,0.3,0,0.4l2.2,0.6
	c10.7,2.7,21.7,4.1,32.7,4.2c0.1,0,0.2,0,0.3,0h25.7c4.1,0,7.5-3.3,7.5-7.5v-0.1c0-4.1-3.3-7.5-7.5-7.5h5.1c4.1,0,7.5-3.3,7.5-7.5
	v-0.1c0-4-3.2-7.3-7.2-7.5c-0.1,0-4.9,0-5,0h9.8c4.1,0,7.5-3.3,7.5-7.5v-0.1c0-4.1-3.3-7.5-7.5-7.5h-8.5l0,0h12.1
	c4.1,0,7.5-3.3,7.5-7.5v-0.1C192.1,83.4,188.7,80,184.6,80L184.6,80z"/>
<path class="st1" d="M195.1,87.5c0-5.8-4.7-10.5-10.5-10.5h-29.7c-1.2,0-2.2-1-2.2-2.2v-17c0-7.5-6.1-13.5-13.5-13.5
	c-3.6,0-7,1.4-9.6,4c-2.5,2.6-4,6-4,9.6V71c0,4.1-2.6,7.8-6.5,9.1l-10.2,3.5c-1.4,0.5-2.2,1.8-2,3.2c0,0.2,0,0.4,0,0.6l0,47.7l0,0.3
	c0,1.4,0.9,2.6,2.3,2.9l2.2,0.6c10.9,2.8,22.1,4.2,33.5,4.3c0,0,0.2,0,0.3,0h25.7c5.8,0,10.5-4.7,10.5-10.6c0-1.9-0.5-3.7-1.4-5.2
	c3.8-1.6,6.5-5.3,6.5-9.8c0-1.9-0.5-3.7-1.4-5.2c3.8-1.6,6.5-5.3,6.5-9.8c0-2.1-0.6-4.1-1.7-5.8C192.9,95,195.1,91.5,195.1,87.5
	L195.1,87.5z M184.6,92.1h-12.1c-0.9,0-1.7,0.4-2.3,1.1c-0.8,0.9-0.9,2.1-0.4,3.2c0.5,1.1,1.6,1.7,2.7,1.7h8.5c2.5,0,4.5,2,4.5,4.6
	c0,2.5-2,4.5-4.5,4.5h-9.8c-1.7,0-3,1.3-3,3s1.3,3,3,3c0.1,0,4.6,0,4.9,0c2.4,0.1,4.3,2,4.3,4.6c0,2.5-2,4.5-4.5,4.5h-5.1
	c-1.7,0-3,1.3-3,3s1.3,3,3,3c2.5,0,4.5,2,4.5,4.6c0,2.5-2,4.5-4.5,4.5h-25.7c0,0-0.2,0-0.2,0c-10.8-0.1-21.5-1.4-31.9-4.1V88.6
	l8.1-2.8c6.3-2.2,10.6-8.1,10.6-14.8V57.9c0-2,0.8-3.9,2.2-5.3c1.4-1.4,3.3-2.2,5.3-2.2c4.1,0,7.5,3.4,7.5,7.5v17
	c0,4.5,3.7,8.2,8.2,8.2h29.7c2.5,0,4.5,2,4.5,4.6C189.1,90.1,187.1,92.1,184.6,92.1z"/>
<path class="st8" d="M102.1,79.5H91.8c-4.2,0-7.7,3.4-7.7,7.7v47.9c0,4.2,3.4,7.7,7.7,7.7h10.3c4.3,0,7.8-3.5,7.8-7.9V87.4
	C109.9,83.1,106.4,79.5,102.1,79.5z"/>
<path class="st1" d="M102.1,76.5H91.8c-5.9,0-10.7,4.8-10.7,10.7v47.9c0,5.9,4.8,10.7,10.7,10.7h10.3c6,0,10.8-4.9,10.8-10.9V87.4
	C112.9,81.4,108.1,76.5,102.1,76.5z M106.9,135c0,2.7-2.2,4.9-4.8,4.9H91.8c-2.6,0-4.7-2.1-4.7-4.7V87.2c0-2.6,2.1-4.7,4.7-4.7h10.3
	c2.7,0,4.8,2.2,4.8,4.8L106.9,135z"/>
<path class="st9" d="M420,363.2h-7.5l-3.2,4.2c20.4,8.4,34.8,28.5,34.8,51.9v50.6h32v-50.6C476.1,388.4,450.9,363.2,420,363.2z"/>
</svg>
