<?xml version="1.0" encoding="utf-8"?>
<!-- Generator: Adobe Illustrator 19.0.0, SVG Export Plug-In . SVG Version: 6.00 Build 0)  -->
<svg version="1.1" id="Layer_5" xmlns="http://www.w3.org/2000/svg" xmlns:xlink="http://www.w3.org/1999/xlink" x="0px" y="0px"
	 viewBox="231 -231 512 512" style="enable-background:new 231 -231 512 512;" xml:space="preserve">
<style type="text/css">
	.st0{fill:#E6E9ED;}
	.st1{fill:#FF826E;}
	.st2{fill:#FFFF00;}
	.st3{fill:#B4DD7F;}
	.st4{fill:#07FF00;}
	.st5{fill:#F0D0B4;}
	.st6{fill:#C6C6C6;}
	.st7{fill:#FFEAA7;}
	.st8{fill:#FCD770;}
</style>
<path class="st0" d="M575-87v-80H390.4h-0.1c0.5,2.6,0.6,5.3,0.6,8c0,31-25,56-56,56l16,368h304V41V-87H575z"/>
<path class="st1" d="M383,137h168v96H383V137z"/>
<path class="st2" d="M727,189.6v3.4c0,19.8-8.1,37.9-21.1,50.9c-13,13-31,21.1-50.9,21.1c-39.8,0-72-32.2-72-72v-3.4
	c0-13.5,3.8-26.7,11-38.2l29-46.5h64l29,46.5C723.2,162.9,727,176.1,727,189.6z"/>
<path class="st2" d="M719,41l-32,64h-64l-32-64h16c12,0,12,16,24,16s12-16,23.9-16h0.1c12,0.1,12,16,24,16s12-16,24-16H719z"/>
<path class="st3" d="M655-87h-80v-80L655-87z"/>
<path class="st2" d="M551,25v80h-96V9h96V25z"/>
<path class="st1" d="M431-135h112v48H431V-135z"/>
<path class="st4" d="M383,65h-32h-64v24h-16c-13.3,0-24-10.7-24-24v-80c0-24.3,9.8-46.3,25.8-62.2c7.4-7.4,16.2-13.5,25.9-17.9
	c3.3,22.9,10.7,45,21.9,65.2c2.6,4.8,5.4,9.4,8.4,14l6,9l6.3-9.4c2.9-4.3,5.5-8.7,8.1-13.3v-0.1c11.3-20.2,18.8-42.3,22.2-65.3
	C402-81.2,423-50.6,423-15v80c0,13.3-10.7,24-24,24h-16V65z"/>
<path class="st5" d="M390.4-167c0.5,2.6,0.6,5.3,0.6,8c0,31-25,56-56,56s-56-25-56-56s25-56,56-56C363.2-215,386.5-194.2,390.4-167z
	"/>
<path class="st6" d="M383,233v8c0,13.3-10.7,24-24,24c-6.6,0-12.6-2.7-17-7c-4.3-4.3-7-10.3-7-17V97v-6.1c0-6.3,2.6-12.5,7-17l9-9
	h32v24v48V233z"/>
<path class="st7" d="M371.6-95.1c-3.4,23-10.9,45-22.2,65.3l-5.2-72.7C353.9-101.6,363.1-98.9,371.6-95.1z"/>
<path class="st6" d="M351,65l-9,9c-4.5,4.5-7,10.6-7,17V97v144c0,6.6-2.7,12.6-7,17c-4.3,4.3-10.3,7-17,7c-13.3,0-24-10.7-24-24V89
	V65L351,65z"/>
<path class="st8" d="M344.2-102.5l5.2,72.7v0.1c-2.6,4.6-5.2,9-8.1,13.3L335-7l-6-9c-3-4.6-5.8-9.2-8.4-14l5.2-72.6
	c3-0.3,6.1-0.5,9.2-0.5S341.2-102.8,344.2-102.5L344.2-102.5z"/>
<path class="st7" d="M325.8-102.5L320.6-30c-11.2-20.2-18.6-42.3-21.9-65.2C307.1-99,316.2-101.6,325.8-102.5z"/>
<path d="M663,161c4.4,0,8,3.6,8,8h16c0-13.2-10.8-24-24-24v-16h-16v16h-24v24c0,13.2,10.8,24,24,24h16c4.4,0,8,3.6,8,8v8h-24
	c-4.4,0-8-3.6-8-8h-16c0,13.2,10.8,24,24,24v16h16v-16h24v-24c0-13.2-10.8-24-24-24h-16c-4.4,0-8-3.6-8-8v-8H663z"/>
<path d="M722.8,147.2l-26.7-42.7L731.9,33H703c-10,0-15.1,6.7-18.4,11.2c-3,4-3.9,4.8-5.6,4.8s-2.6-0.8-5.6-4.8
	c-2.3-3.1-5.4-7.1-10.4-9.4V-90.3L578.3-175H396.9c-7.1-27.6-32.1-48-61.9-48c-35.3,0-64,28.7-64,64c0,22.9,12.1,42.9,30.2,54.3
	C264.9-91,239-56,239-15v80c0,17.6,14.4,32,32,32h8v144c0,17.6,14.4,32,32,32c9.6,0,18.1-4.3,24-11.1c5.9,6.7,14.4,11.1,24,11.1h296
	c44.1,0,80-35.9,80-80v-3.4C735,174.6,730.8,160,722.8,147.2z M679,65c10,0,15.1-6.7,18.4-11.2c3-4,3.9-4.8,5.6-4.8h3.1l-24,48
	h-54.1l-24-48h3.1c1.7,0,2.6,0.8,5.6,4.8C615.9,58.3,621,65,631,65s15-6.7,18.4-11.2c3-4,3.9-4.8,5.6-4.8c1.7,0,2.6,0.8,5.6,4.8
	C663.9,58.3,669,65,679,65z M583-147.7L635.7-95H583V-147.7z M287-159c0-26.5,21.5-48,48-48s48,21.5,48,48s-21.5,48-48,48
	S287-132.5,287-159z M307.7-90.1c3.1-1.1,6.2-2.1,9.4-2.8l-2.2,30.5C311.8-71.5,309.4-80.7,307.7-90.1z M333.3-94.9
	c0.6,0,1.1-0.1,1.7-0.1s1.1,0.1,1.7,0.1l4.5,63.3c-2,3.5-4,6.9-6.2,10.2c-2.2-3.3-4.2-6.8-6.2-10.3L333.3-94.9z M355.1-62.1
	l-2.2-30.8c3.3,0.8,6.5,1.7,9.6,2.9C360.8-80.5,358.3-71.2,355.1-62.1z M271,81c-8.8,0-16-7.2-16-16v-80c0-28.6,15.1-53.7,37.7-67.8
	c5.2,25.3,15.3,49.8,29.6,71.3L335,7.4L347.9-12c14.2-21.3,24.3-45.6,29.5-70.7C400-68.5,415-43.5,415-15v80c0,8.8-7.2,16-16,16h-8
	V-63h-16V57h-80V-63h-16V81H271z M391,145h152v80H391V145z M311,257c-8.8,0-16-7.2-16-16V73h37.5c-3.6,5.3-5.5,11.5-5.5,17.9V97v144
	C327,249.8,319.8,257,311,257z M343,241V97v-6.1c0-4.2,1.7-8.3,4.7-11.3l6.6-6.6H375v168c0,8.8-7.2,16-16,16S343,249.8,343,241z
	 M386.6,257c2.8-4.7,4.4-10.1,4.4-16h168V129H391V97h8c17.6,0,32-14.4,32-32v-80c0-41-25.9-76-62.2-89.7
	c18.1-11.3,30.2-31.4,30.2-54.3h168v80h80V34.7c-5,2.3-8.1,6.4-10.4,9.5c-3,4-3.9,4.8-5.6,4.8c-1.7,0-2.6-0.8-5.6-4.8
	C622,39.7,617,33,607,33h-28.9l35.8,71.6l-26.7,42.7c-8,12.7-12.2,27.4-12.2,42.4v3.4c0,26.2,12.7,49.4,32.2,64L386.6,257z M719,193
	c0,35.3-28.7,64-64,64s-64-28.7-64-64v-3.4c0-12,3.4-23.7,9.7-33.9l26.7-42.7h55.1l26.7,42.7c6.4,10.2,9.7,21.9,9.7,33.9V193z"/>
<path d="M596.7-9.3l-11.3-11.3L559,5.7V1H447v112h112V28.3L596.7-9.3z M543,97h-80V17h80v4.7l-48,48l-18.3-18.3l-11.3,11.3L495,92.3
	l48-48V97z"/>
<path d="M551-143H423v64h128V-143z M535-95h-96v-32h96V-95z"/>
<path d="M407,161h120v16H407V161z"/>
<path d="M407,193h88v16h-88V193z"/>
<path d="M511,193h16v16h-16V193z"/>
<path d="M447-63h184v16H447V-63z"/>
<path d="M511-31h16v16h-16V-31z"/>
<path d="M479-31h16v16h-16V-31z"/>
<path d="M447-31h16v16h-16V-31z"/>
</svg>
