<?xml version="1.0" encoding="utf-8"?>
<!-- Generator: Adobe Illustrator 19.0.0, SVG Export Plug-In . SVG Version: 6.00 Build 0)  -->
<svg version="1.1" id="Layer_1" xmlns="http://www.w3.org/2000/svg" xmlns:xlink="http://www.w3.org/1999/xlink" x="0px" y="0px"
	 viewBox="231 -231 512 512" style="enable-background:new 231 -231 512 512;" xml:space="preserve">
<style type="text/css">
	.st0{fill:#F0F0F0;}
	.st1{fill:#FF9811;}
	.st2{fill:#6DA544;}
	.st3{fill:#0052B4;}
</style>
<circle class="st0" cx="487" cy="25" r="256"/>
<path class="st1" d="M487-231c-101.5,0-189.2,59.1-230.6,144.7h461.2C676.2-171.9,588.5-231,487-231z"/>
<path class="st2" d="M487,281c101.5,0,189.2-59.1,230.6-144.7H256.4C297.8,221.9,385.5,281,487,281z"/>
<circle class="st3" cx="487" cy="25" r="89"/>
<circle class="st0" cx="486.5" cy="25" r="55.7"/>
<rect x="482.5" y="-42" class="st3" width="8" height="147"/>
<rect x="413" y="23.5" class="st3" width="147" height="8"/>
<rect x="485.5" y="-43" transform="matrix(0.6561 -0.7547 0.7547 0.6561 145.3423 379.923)" class="st3" width="8" height="147"/>
<rect x="482.5" y="-45.6" transform="matrix(-0.7547 -0.6561 0.6561 -0.7547 835.349 368.0699)" class="st3" width="8" height="147"/>
</svg>
