<?xml version="1.0" encoding="utf-8"?>
<!-- Generator: Adobe Illustrator 19.0.0, SVG Export Plug-In . SVG Version: 6.00 Build 0)  -->
<svg version="1.1" id="Capa_1" xmlns="http://www.w3.org/2000/svg" xmlns:xlink="http://www.w3.org/1999/xlink" x="0px" y="0px"
	 viewBox="180 -179.6 409.6 409.6" style="enable-background:new 180 -179.6 409.6 409.6;" xml:space="preserve">
<style type="text/css">
	.st0{fill:#D8D205;stroke:#000000;stroke-miterlimit:10;}
	.st1{fill:#0056ED;}
</style>
<circle class="st0" cx="443.5" cy="21.8" r="149.4"/>
<g>
	<g>
		<path d="M488.3,82.6c-7.9,30.2-18.9,47.4-29.6,61.6c-1.5,1.9-1.1,4.7,0.9,6.1c0.8,0.6,1.7,0.9,2.6,0.9c1.3,0,2.6-0.6,3.5-1.7
			c11.2-14.9,22.7-33,31-64.6c0.6-2.3-0.8-4.7-3.1-5.3C491.3,78.9,488.9,80.3,488.3,82.6z"/>
		<path d="M501.7,37.3c0.1,0,0.3,0,0.4,0c2.2,0,4.1-1.7,4.3-3.9c5.1-52.4-7.9-101.4-37.7-141.6c-1.4-1.9-4.2-2.3-6.1-0.9
			c-1.9,1.4-2.4,4.2-0.9,6.1c28.5,38.5,40.9,85.4,36,135.6C497.6,34.9,499.3,37.1,501.7,37.3z"/>
		<path d="M439.8-129.2c-56.4,0-108.5,38.1-129.8,94.8c-0.8,2.3,0.3,4.8,2.6,5.6c2.3,0.8,4.8-0.3,5.6-2.6
			c20-53.3,68.9-89.2,121.6-89.2c77.8,0,141.1,63.3,141.1,141.1s-63.3,141.1-141.1,141.1c-2.4,0-4.4,2-4.4,4.4s2,4.4,4.4,4.4
			c82.6,0,149.8-67.2,149.8-149.8C589.6-62,522.4-129.2,439.8-129.2z"/>
		<path d="M567.5,30.7c-1.4-2-4.1-2.5-6.1-1.1c-22.7,15.6-73.1,25.7-128.2,25.7c-2.4,0-4.4,2-4.4,4.4c0,2.4,2,4.4,4.4,4.4
			c56.8,0,109.1-10.7,133.2-27.2C568.4,35.4,568.9,32.7,567.5,30.7z"/>
		<path d="M387.8,30.2c-3.8-6.8-12.9-12.1-20.7-12.1h-18.7c-8.6,0-15.7,7-15.7,15.7v48.7c0,8.6,7,15.7,15.7,15.7H388
			c2.4,0,4.4-2,4.4-4.4c0-2.4-2-4.4-4.4-4.4h-39.6c-3.8,0-6.9-3.1-6.9-6.9V33.8c0-3.8,3.1-6.9,6.9-6.9h18.7c4.7,0,10.8,3.6,13.1,7.6
			L409.2,86c2.7,4.8,5,13.5,5,19v38.5c0,3.8-3.1,6.9-6.9,6.9H395c-2.4,0-4.4,2-4.4,4.4c0,2.4,2,4.4,4.4,4.4h12.3
			c8.6,0,15.7-7,15.7-15.7v-38.5c0-7-2.7-17.2-6.1-23.3L387.8,30.2z"/>
		<path d="M242.5,130.1c-4.6,0-9.1,1.3-12.9,3.6c-2.1,1.3-2.7,4-1.4,6c1.3,2.1,4,2.7,6,1.4c2.5-1.5,5.4-2.4,8.4-2.4
			c8.8,0,16,7.2,16,16c0,8.8-7.2,16-16,16c-8.8,0-16-7.2-16-16c0-2.4-2-4.4-4.4-4.4h-26.4c-3.8,0-6.9-3.1-6.9-6.9V3.2
			c0-3.8,3.1-6.9,6.9-6.9h109.8c3.8,0,6.9,3.1,6.9,6.9v19.2c0,2.4,2,4.4,4.4,4.4c2.4,0,4.4-2,4.4-4.4V3.2c0-8.6-7-15.7-15.7-15.7
			H195.7c-8.6,0-15.7,7-15.7,15.7v140.3c0,8.6,7,15.7,15.7,15.7h22.4c2.1,11.6,12.2,20.4,24.3,20.4c13.6,0,24.7-11.1,24.7-24.7
			C267.2,141.2,256.1,130.1,242.5,130.1z"/>
		<path d="M357.5,130.1c-4.6,0-9.1,1.3-12.9,3.6c-2.1,1.3-2.7,4-1.4,6c1.3,2.1,4,2.7,6,1.4c2.5-1.5,5.4-2.4,8.4-2.4
			c8.8,0,16,7.2,16,16c0,8.8-7.2,16-16,16c-8.8,0-16-7.2-16-16c0-2.4-2-4.4-4.4-4.4H276c-2.4,0-4.4,2-4.4,4.4s2,4.4,4.4,4.4h57.1
			c2.1,11.6,12.2,20.4,24.3,20.4c13.6,0,24.7-11.1,24.7-24.7C382.2,141.2,371.1,130.1,357.5,130.1z"/>
	</g>
</g>
<circle class="st0" cx="243" cy="155.4" r="13"/>
<circle class="st0" cx="358.1" cy="155.4" r="13"/>
<path class="st1" d="M296.7,122.4H206c-6.6,0-12-5.4-12-12v-96c0-6.6,5.4-12,12-12h90.7c6.6,0,12,5.4,12,12v96
	C308.7,117,303.3,122.4,296.7,122.4z"/>
</svg>
