<?xml version="1.0" encoding="utf-8"?>
<!-- Generator: Adobe Illustrator 19.0.0, SVG Export Plug-In . SVG Version: 6.00 Build 0)  -->
<svg version="1.1" id="Layer_1" xmlns="http://www.w3.org/2000/svg" xmlns:xlink="http://www.w3.org/1999/xlink" x="0px" y="0px"
	 viewBox="231 -231 512 512" style="enable-background:new 231 -231 512 512;" xml:space="preserve">
<style type="text/css">
	.st0{fill:#333333;}
	.st1{fill:#8F95E6;}
	.st2{fill:#EAD903;}
	.st3{fill:#070707;}
	.st4{fill:#040A3A;}
	.st5{fill:#000214;}
	.st6{fill:#3A3A3A;}
	.st7{fill:#FF8354;}
	.st8{fill:#FFF7F2;}
	.st9{fill:#EDD4C2;}
	.st10{fill:#D6664C;}
</style>
<path class="st0" d="M728.8,164.1H245.2c-7.9,0-14.2-6.4-14.2-14.2v-366.7c0-7.9,6.4-14.2,14.2-14.2h483.5c7.9,0,14.2,6.4,14.2,14.2
	v366.7C743,157.8,736.6,164.1,728.8,164.1z"/>
<path class="st1" d="M728.8-231H245.2c-7.9,0-14.2,6.4-14.2,14.2v14c0-7.9,6.4-14.2,14.2-14.2h483.5c7.9,0,14.2,6.4,14.2,14.2v-14
	C743-224.6,736.6-231,728.8-231z"/>
<path class="st2" d="M261,119.9v-301.7c0-10.6,8.6-19.2,19.2-19.2h413.6c10.6,0,19.2,8.6,19.2,19.2v301.7c0,7.9-6.4,14.2-14.2,14.2
	H275.2C267.4,134.1,261,127.8,261,119.9z"/>
<path class="st3" d="M427.3,164.1h121.9V241H427.3V164.1z"/>
<path class="st4" d="M606.8,281H370.2c-11,0-20-8.9-20-20c0-11,8.9-20,20-20h236.6c11,0,20,8.9,20,20
	C626.8,272.1,617.9,281,606.8,281z"/>
<path class="st5" d="M606.8,267H370.2c-8.6,0-15.9-5.4-18.7-13c-0.8,2.2-1.3,4.5-1.3,7c0,11,8.9,20,20,20h236.6c11,0,20-8.9,20-20
	c0-2.5-0.5-4.8-1.3-7C622.7,261.6,615.4,267,606.8,267z"/>
<path class="st6" d="M430.8,92.7H308.5c-4.6,0-8.3-3.7-8.3-8.3V-47.1c0-4.6,3.7-8.3,8.3-8.3h122.3c4.6,0,8.3,3.7,8.3,8.3V84.4
	C439.1,88.9,435.4,92.7,430.8,92.7z"/>
<path class="st7" d="M381.4-20.5h-5.7l-5.3-3.4l-4.4,3.4l-4.4-3.4l-3.7,3.4v-34.9h23.4V-20.5z"/>
<path class="st8" d="M314.2,59.1h55.3v20.1h-55.3V59.1z"/>
<path class="st9" d="M363.5,65v8.2h-43.3V65H363.5z"/>
<path class="st6" d="M415.9-55.4h-92.4c-3.2,0-5.8-2.6-5.8-5.8v-92.4c0-3.2,2.6-5.8,5.8-5.8h92.4c3.2,0,5.8,2.6,5.8,5.8v92.4
	C421.8-58,419.1-55.4,415.9-55.4z"/>
<path class="st7" d="M377.9-135h-4l-3.7-2.4l-3.1,2.4l-3.1-2.4l-2.6,2.4v-24.5h16.5V-135z"/>
<path class="st8" d="M325.3-83.3h38.9v14.2h-38.9V-83.3z"/>
<path class="st9" d="M360-79.1v5.7h-30.4v-5.7H360z"/>
<path class="st10" d="M524.2-95.3h-48.1c-4.5,0-8.1-3.6-8.1-8.1v-48.1c0-4.5,3.6-8.1,8.1-8.1h48.1c4.5,0,8.1,3.6,8.1,8.1v48.1
	C532.2-98.9,528.6-95.3,524.2-95.3z"/>
<path class="st8" d="M496.4-109.2c-1.7,0-3.4-0.5-4.8-1.7l-9.5-7.5c-3.3-2.6-3.9-7.5-1.3-10.8c2.6-3.3,7.5-3.9,10.8-1.3l3.5,2.8
	l14.6-18c2.7-3.3,7.5-3.8,10.8-1.1c3.3,2.7,3.8,7.5,1.1,10.8l-19.4,23.8C500.9-110.2,498.7-109.2,496.4-109.2z"/>
<path class="st6" d="M663.8-118.2h-92.4c-5.1,0-9.2-4.1-9.2-9.2c0-5.1,4.1-9.2,9.2-9.2h92.4c5.1,0,9.2,4.1,9.2,9.2
	C673-122.3,668.9-118.2,663.8-118.2z"/>
<path class="st10" d="M524.2-1.6h-48.1c-4.5,0-8.1-3.6-8.1-8.1v-48.1c0-4.5,3.6-8.1,8.1-8.1h48.1c4.5,0,8.1,3.6,8.1,8.1v48.1
	C532.2-5.2,528.6-1.6,524.2-1.6z"/>
<path class="st8" d="M496.4-15.5c-1.7,0-3.4-0.5-4.8-1.7l-9.5-7.5c-3.3-2.6-3.9-7.5-1.3-10.8c2.6-3.3,7.5-3.9,10.8-1.3l3.5,2.8
	l14.6-18c2.7-3.3,7.5-3.8,10.8-1.1c3.3,2.7,3.8,7.5,1.1,10.8l-19.4,23.8C500.9-16.5,498.7-15.5,496.4-15.5z"/>
<path class="st6" d="M663.8-24.5h-92.4c-5.1,0-9.2-4.1-9.2-9.2c0-5.1,4.1-9.2,9.2-9.2h92.4c5.1,0,9.2,4.1,9.2,9.2
	S668.9-24.5,663.8-24.5z"/>
<path class="st10" d="M524.2,92.7h-48.1c-4.5,0-8.1-3.6-8.1-8.1V36.5c0-4.5,3.6-8.1,8.1-8.1h48.1c4.5,0,8.1,3.6,8.1,8.1v48.1
	C532.2,89.1,528.6,92.7,524.2,92.7z"/>
<g>
	<path class="st8" d="M496.4,78.7c-1.7,0-3.4-0.5-4.8-1.7l-9.5-7.5c-3.3-2.6-3.9-7.5-1.3-10.8c2.6-3.3,7.5-3.9,10.8-1.3l3.5,2.8
		l14.6-18c2.7-3.3,7.5-3.8,10.8-1.1c3.3,2.7,3.8,7.5,1.1,10.8l-19.4,23.8C500.9,77.7,498.7,78.7,496.4,78.7z"/>
	<path class="st6" d="M663.8,69.7h-92.4c-5.1,0-9.2-4.1-9.2-9.2c0-5.1,4.1-9.2,9.2-9.2h92.4c5.1,0,9.2,4.1,9.2,9.2
		C673,65.6,668.9,69.7,663.8,69.7z"/>
</g>
</svg>
