<?xml version="1.0" encoding="utf-8"?>
<!-- Generator: Adobe Illustrator 19.0.0, SVG Export Plug-In . SVG Version: 6.00 Build 0)  -->
<svg version="1.1" id="Layer_2" xmlns="http://www.w3.org/2000/svg" xmlns:xlink="http://www.w3.org/1999/xlink" x="0px" y="0px"
	 viewBox="231 -231 512 512" style="enable-background:new 231 -231 512 512;" xml:space="preserve">
<style type="text/css">
	.st0{fill:#DDDDDD;}
	.st1{fill:#E5E5E5;}
	.st2{fill:#F9FF00;}
	.st3{fill:#F2AE40;}
	.st4{fill:#6EBAED;}
	.st5{fill:#5E92BC;}
	.st6{fill:#B2B2B2;}
	.st7{fill:#9C9B9A;}
	.st8{fill:#C9C7C6;}
</style>
<path class="st0" d="M247-103h480v368H247V-103z"/>
<path class="st1" d="M471-12.3h229.3v208H471V-12.3z"/>
<path class="st2" d="M727,46.3c0-59.8-51.8-107.5-112.9-100.7c-47.2,5.2-85,43.9-89.3,91.2c-2.9,31.6,8.8,60.5,29,80.8
	c34.7,34.9,55.9,81,55.9,130.2v1.1c0,8.8,7.2,16,16,16s16-7.2,16-16v-1.5c0-48.2,19.2-94.7,54-128C715,101.1,727,75.1,727,46.3
	L727,46.3z"/>
<circle class="st0" cx="625.7" cy="46.3" r="64"/>
<path class="st3" d="M271-76.3c-13.3,0-24-10.7-24-24V-151h48v50.7C295-87.1,284.3-76.3,271-76.3z"/>
<path class="st1" d="M319-76.3c-13.3,0-24-10.7-24-24V-151h48v50.7C343-87.1,332.3-76.3,319-76.3z"/>
<path class="st3" d="M367-76.3c-13.3,0-24-10.7-24-24V-151h48v50.7C391-87.1,380.3-76.3,367-76.3z"/>
<path class="st1" d="M415-76.3c-13.3,0-24-10.7-24-24V-151h48v50.7C439-87.1,428.3-76.3,415-76.3z"/>
<path class="st3" d="M463-76.3c-13.3,0-24-10.7-24-24V-151h48v50.7C487-87.1,476.3-76.3,463-76.3z"/>
<path class="st1" d="M511-76.3c-13.3,0-24-10.7-24-24V-151h48v50.7C535-87.1,524.3-76.3,511-76.3z"/>
<path class="st3" d="M559-76.3c-13.3,0-24-10.7-24-24V-151h48v50.7C583-87.1,572.3-76.3,559-76.3z"/>
<path class="st1" d="M607-76.3c-13.3,0-24-10.7-24-24V-151h48v50.7C631-87.1,620.3-76.3,607-76.3z"/>
<path class="st3" d="M655-76.3c-13.3,0-24-10.7-24-24V-151h48v50.7C679-87.1,668.3-76.3,655-76.3z"/>
<path class="st1" d="M703-76.3c-13.3,0-24-10.7-24-24V-151h48v50.7C727-87.1,716.3-76.3,703-76.3z"/>
<path class="st2" d="M343-215h288v42.7H343V-215z"/>
<path class="st4" d="M279,51.7h149.3V265H279V51.7z"/>
<g>
	<path class="st5" d="M300.3,73H343v42.7h-42.7V73z"/>
	<path class="st5" d="M364.3,73H407v42.7h-42.7V73z"/>
	<path class="st5" d="M300.3,137H343v42.7h-42.7V137z"/>
	<path class="st5" d="M364.3,137H407v42.7h-42.7V137z"/>
	<path class="st5" d="M300.3,201H343v42.7h-42.7V201z"/>
	<path class="st5" d="M364.3,201H407v42.7h-42.7V201z"/>
</g>
<path class="st6" d="M311-12.3h85.3v42.7H311V-12.3z"/>
<path class="st7" d="M471,147.7h32v48h-32V147.7z"/>
<path class="st8" d="M503,126.3h26.7v69.3H503V126.3z"/>
<path class="st7" d="M529.7,163.7h32v32h-32V163.7z"/>
<path d="M625.7-23c-38.2,0-69.3,31.1-69.3,69.3s31.1,69.3,69.3,69.3S695,84.6,695,46.3S663.9-23,625.7-23z M625.7,105
	c-32.3,0-58.7-26.3-58.7-58.7s26.3-58.7,58.7-58.7s58.7,26.3,58.7,58.7S658,105,625.7,105z"/>
<path d="M647.3,34l-2.3,7h-49.2l-2.3-7c-0.9-2.8-3.9-4.3-6.7-3.4c-2.8,0.9-4.3,3.9-3.4,6.7l10.7,32c0.7,2.2,2.8,3.6,5.1,3.6h5.3v5.3
	c0,2.9,2.4,5.3,5.3,5.3s5.3-2.4,5.3-5.3V73h10.7v5.3c0,2.9,2.4,5.3,5.3,5.3s5.3-2.4,5.3-5.3V73h5.3c2.3,0,4.3-1.5,5.1-3.6l9.5-28.4
	h12.2c2.9,0,5.3-2.4,5.3-5.3s-2.4-5.3-5.3-5.3h-16C650,30.3,648,31.8,647.3,34L647.3,34z M637.8,62.3h-35l-3.6-10.7h42.1L637.8,62.3
	z"/>
<path d="M727-156.3H588.3V-167H631c2.9,0,5.3-2.4,5.3-5.3V-215c0-2.9-2.4-5.3-5.3-5.3H343c-2.9,0-5.3,2.4-5.3,5.3v42.7
	c0,2.9,2.4,5.3,5.3,5.3h42.7v10.7H247c-2.9,0-5.3,2.4-5.3,5.3v48v2.7V265c0,2.9,2.4,5.3,5.3,5.3h160c2.9,0,5.3-2.4,5.3-5.3
	s-2.4-5.3-5.3-5.3H284.3V57H423v208c0,2.9,2.4,5.3,5.3,5.3h165.3c2.9,0,5.3-2.4,5.3-5.3s-2.4-5.3-5.3-5.3h-160v-208
	c0-2.9-2.4-5.3-5.3-5.3H279c-2.9,0-5.3,2.4-5.3,5.3v208h-21.3V-77.7c5.1,4.2,11.6,6.7,18.7,6.7c9.9,0,18.7-5,24-12.5
	C300.3-76,309.1-71,319-71c9.9,0,18.7-5,24-12.5C348.3-76,357.1-71,367-71s18.7-5,24-12.5C396.3-76,405.1-71,415-71
	c9.9,0,18.7-5,24-12.5C444.3-76,453.1-71,463-71c9.9,0,18.7-5,24-12.5C492.3-76,501.1-71,511-71s18.7-5,24-12.5
	C540.3-76,549.1-71,559-71s18.7-5,24-12.5C588.3-76,597.1-71,607-71c9.9,0,18.7-5,24-12.5C636.3-76,645.1-71,655-71
	c9.9,0,18.7-5,24-12.5C684.3-76,693.1-71,703-71c7.1,0,13.6-2.5,18.7-6.7v77.7c-6-12.4-14.4-23.7-24.9-33.1
	c-22.9-20.5-52.5-29.9-83.3-26.5c-29.8,3.3-55.9,19.1-73.1,42H471c-2.9,0-5.3,2.4-5.3,5.3v208c0,2.9,2.4,5.3,5.3,5.3h126.6
	c4.4,15.2,6.7,31,6.7,46.9v1.1c0,11.8,9.6,21.3,21.3,21.3H727c2.9,0,5.3-2.4,5.3-5.3v-365.3v-2.7v-48
	C732.3-153.9,729.9-156.3,727-156.3L727-156.3z M289.7-100.3c0,10.3-8.4,18.7-18.7,18.7s-18.7-8.4-18.7-18.7v-2.7v-42.7h37.3V-100.3
	z M337.7-100.3c0,10.3-8.4,18.7-18.7,18.7s-18.7-8.4-18.7-18.7v-45.3h37.3V-100.3z M385.7-100.3c0,10.3-8.4,18.7-18.7,18.7
	s-18.7-8.4-18.7-18.7v-45.3h37.3V-100.3z M433.7-100.3c0,10.3-8.4,18.7-18.7,18.7s-18.7-8.4-18.7-18.7v-45.3h37.3V-100.3z
	 M481.7-100.3c0,10.3-8.4,18.7-18.7,18.7s-18.7-8.4-18.7-18.7v-45.3h37.3V-100.3z M529.7-100.3c0,10.3-8.4,18.7-18.7,18.7
	s-18.7-8.4-18.7-18.7v-45.3h37.3V-100.3z M577.7-100.3c0,10.3-8.4,18.7-18.7,18.7s-18.7-8.4-18.7-18.7v-45.3h37.3V-100.3z
	 M583-177.7c-2.9,0-5.3,2.4-5.3,5.3v16H396.3V-167h165.3c2.9,0,5.3-2.4,5.3-5.3c0-2.9-2.4-5.3-5.3-5.3H348.3v-32h277.3v32H583z
	 M625.7-100.3c0,10.3-8.4,18.7-18.7,18.7s-18.7-8.4-18.7-18.7v-45.3h37.3V-100.3z M673.7-100.3c0,10.3-8.4,18.7-18.7,18.7
	s-18.7-8.4-18.7-18.7v-45.3h37.3V-100.3z M497.7,190.3h-21.3V153h21.3V190.3z M524.3,163.7v26.7h-16v-42.7v-16h16V163.7z
	 M556.3,190.3H535V169h21.3V190.3z M567,190.3v-26.7c0-2.9-2.4-5.3-5.3-5.3H535v-32c0-2.9-2.4-5.3-5.3-5.3H503
	c-2.9,0-5.3,2.4-5.3,5.3v16h-21.3V-7h56.9c-7.5,13-12.4,27.7-13.8,43.3C516.6,68,527.7,99,550,121.4c20.2,20.3,35.1,43.8,44.2,68.9
	H567z M721.7,259.7H644c1.8-3.2,3-6.8,3-10.7v-1.5c0-15.9,2.2-31.5,6.4-46.5h47c2.9,0,5.3-2.4,5.3-5.3v-79
	c6.5-7.3,11.8-15.4,16-24.1V259.7z M656.7,190.3c8.1-23.4,21.1-44.9,38.3-62.6v62.6H656.7z M692,115.6
	c-22.3,21.3-38.6,48.3-47.6,77.9c-0.1,0.2-0.1,0.4-0.2,0.6c-5.2,17.1-7.9,35.1-7.9,53.4v1.5c0,5.9-4.8,10.7-10.7,10.7
	S615,254.9,615,249v-1.1c0-49.2-20.4-96.8-57.5-134c-20.1-20.2-30.1-48.1-27.5-76.6c1.5-16.9,7.5-32.6,16.7-45.8
	c0.1-0.1,0.2-0.2,0.3-0.3c15.4-21.9,39.7-37.1,67.6-40.2c3.7-0.4,7.5-0.6,11.2-0.6c23.7,0,46,8.5,63.9,24.4
	c20.3,18.2,32,44.3,32,71.6C721.7,72.8,711.1,97.4,692,115.6L692,115.6z M721.7-103v2.7c0,10.3-8.4,18.7-18.7,18.7
	s-18.7-8.4-18.7-18.7v-45.3h37.3V-103z"/>
<path d="M348.3,73c0-2.9-2.4-5.3-5.3-5.3h-42.7c-2.9,0-5.3,2.4-5.3,5.3v42.7c0,2.9,2.4,5.3,5.3,5.3H343c2.9,0,5.3-2.4,5.3-5.3V73z
	 M337.7,110.3h-32v-32h32V110.3z"/>
<path d="M407,67.7h-42.7c-2.9,0-5.3,2.4-5.3,5.3v42.7c0,2.9,2.4,5.3,5.3,5.3H407c2.9,0,5.3-2.4,5.3-5.3V73
	C412.3,70.1,409.9,67.7,407,67.7z M401.7,110.3h-32v-32h32V110.3z"/>
<path d="M348.3,137c0-2.9-2.4-5.3-5.3-5.3h-42.7c-2.9,0-5.3,2.4-5.3,5.3v42.7c0,2.9,2.4,5.3,5.3,5.3H343c2.9,0,5.3-2.4,5.3-5.3V137z
	 M337.7,174.3h-32v-32h32V174.3z"/>
<path d="M407,131.7h-42.7c-2.9,0-5.3,2.4-5.3,5.3v42.7c0,2.9,2.4,5.3,5.3,5.3H407c2.9,0,5.3-2.4,5.3-5.3V137
	C412.3,134.1,409.9,131.7,407,131.7z M401.7,174.3h-32v-32h32V174.3z"/>
<path d="M343,195.7h-42.7c-2.9,0-5.3,2.4-5.3,5.3v42.7c0,2.9,2.4,5.3,5.3,5.3H343c2.9,0,5.3-2.4,5.3-5.3V201
	C348.3,198.1,345.9,195.7,343,195.7z M337.7,238.3h-32v-32h32V238.3z"/>
<path d="M407,195.7h-42.7c-2.9,0-5.3,2.4-5.3,5.3v42.7c0,2.9,2.4,5.3,5.3,5.3H407c2.9,0,5.3-2.4,5.3-5.3V201
	C412.3,198.1,409.9,195.7,407,195.7z M401.7,238.3h-32v-32h32V238.3z"/>
<path d="M382.5-17.7l-25.1-25.1c-2.1-2.1-5.5-2.1-7.5,0l-25.1,25.1H311c-2.9,0-5.3,2.4-5.3,5.3v42.7c0,2.9,2.4,5.3,5.3,5.3h85.3
	c2.9,0,5.3-2.4,5.3-5.3v-42.7c0-2.9-2.4-5.3-5.3-5.3H382.5z M353.7-31.5l13.8,13.8h-27.6L353.7-31.5z M391,25h-74.7V-7H391V25z"/>
<circle cx="332.3" cy="9" r="5.3"/>
<circle cx="353.7" cy="9" r="5.3"/>
<circle cx="375" cy="9" r="5.3"/>
</svg>
