<svg id="filled_outline" height="512" viewBox="0 0 512 512" width="512" xmlns="http://www.w3.org/2000/svg" data-name="filled outline"><path d="m280 232h96v168h-96z" fill="#486be0"/><path d="m136 232h144v168h-144z" fill="#548aff"/><path d="m24 320h72v96h-72z" fill="#548aff"/><path d="m96 336.00012h22.05332a81.94187 81.94187 0 0 1 57.948 24.00655l31.99606-.00657a16 16 0 0 1 16.00261 16 16 16 0 0 1 -15.99736 16h-.00528l.00264.00263 47.99972-.002a15.99968 15.99968 0 0 1 16.00029 15.99967 15.99969 15.99969 0 0 1 -15.99969 15.99969h-72.00031a119.99988 119.99988 0 0 1 -71.99993-24h-16.00007z" fill="#f5c99d"/><path d="m400 344.00012-24.79808 10.62775a176.219 176.219 0 0 0 -55.20322 37.3788l-31.99606-.00657a16 16 0 0 0 -16.00261 16 16 16 0 0 0 15.99736 16h.00528l-.00267.00265-47.99972-.002a15.99968 15.99968 0 0 0 -16.00028 15.99965 15.99969 15.99969 0 0 0 15.99969 15.99969h80.90414a88 88 0 0 0 73.22043-39.18638l5.87574-8.81359z" fill="#f5c99d"/><path d="m176 232v56l16-16 16 16 16-16 16 16v-56z" fill="#f6bb00"/><path d="m400 328h88v96h-88z" fill="#548aff"/><path d="m488 320.00012h-88a7.99977 7.99977 0 0 0 -8 8v10.7251l-8 3.42859v-110.15369a7.99977 7.99977 0 0 0 -8-8h-240a7.99977 7.99977 0 0 0 -8 8v96.5625a91.43769 91.43769 0 0 0 -9.94678-.5625h-14.05322v-8a7.99977 7.99977 0 0 0 -8-8h-72a7.99977 7.99977 0 0 0 -8 8v96a7.99977 7.99977 0 0 0 8 8h72a7.99977 7.99977 0 0 0 8-8v-8h5.38232a128.84653 128.84653 0 0 0 74.61768 24h33.37628a23.99108 23.99108 0 0 0 22.62323 32h80.9043a95.773 95.773 0 0 0 73.51581-34.27356 7.96956 7.96956 0 0 0 5.58038 2.27356h88a7.99977 7.99977 0 0 0 8-8v-96a7.99977 7.99977 0 0 0 -8-8zm-400 88h-56v-80h56zm280-58.92944a183.2584 183.2584 0 0 0 -51.27295 34.9353l-28.72314-.00586h-.00391v-144h80zm-184-109.07056h48v28.686l-2.34326-2.34278a8 8 0 0 0 -11.31348 0l-10.34326 10.34282-10.34326-10.34278a8 8 0 0 0 -11.31348 0l-2.34326 2.34278zm-40 0h24v48a7.99981 7.99981 0 0 0 13.65674 5.65674l10.34326-10.34277 10.34326 10.34277a8 8 0 0 0 11.31348 0l10.34326-10.34277 10.34326 10.34277a7.99981 7.99981 0 0 0 13.65674-5.65674v-48h24v150.11438l-.00983.00842a23.90228 23.90228 0 0 0 -15.99115-6.12231l-25.37573.001a23.9966 23.9966 0 0 0 -22.62329-32.00149h-.00391l-28.76855.00586a89.3116 89.3116 0 0 0 -35.22754-20.20825zm-27.2002 153.6001a7.99954 7.99954 0 0 0 -4.7998-1.6001h-8v-48h14.05322a73.46 73.46 0 0 1 52.291 21.6626 7.9995 7.9995 0 0 0 5.65722 2.34375h.00147l31.99609-.00635a8 8 0 0 1 .00342 16h-40.00242v16h32.00293v.00244l55.99658-.002a7.99976 7.99976 0 1 1 .001 15.99951h-72.00051a112.7024 112.7024 0 0 1 -67.2002-22.39985zm270.668 18.77588a79.8397 79.8397 0 0 1 -66.564 35.624h-80.9043a7.99976 7.99976 0 1 1 .0005-15.99949l55.99707.002v-.00244h32.00293v-16h-40.001a8 8 0 0 1 .00049-16h.00147l31.99609.00635h.00147a7.9995 7.9995 0 0 0 5.65722-2.34375 167.48641 167.48641 0 0 1 52.69776-35.68164l4.62213-1.981h1.02437v-.439l8-3.42871v49.44531zm92.5322 3.62402h-72v-80h72z"/><path d="m136 104.00012h-32a7.99977 7.99977 0 0 0 -8 8v32h16v-12.68652l42.34326 42.34326 11.31348-11.31348-42.34326-42.34326h12.68652z"/><path d="m42.34326 261.65686 11.31348-11.31348-10.34326-10.34326h52.68652v-16h-52.68652l10.34326-10.34326-11.31348-11.31348-24 24a7.99915 7.99915 0 0 0 0 11.31348z"/><path d="m264 152.00012v-76.68652l10.34326 10.34326 11.31348-11.31348-24-24a7.99915 7.99915 0 0 0 -11.31348 0l-24 23.99952 11.31348 11.31347 10.34326-10.34295v76.6867z"/><path d="m416 144.00012v-32a7.99977 7.99977 0 0 0 -8-8h-32v16h12.68652l-42.34326 42.34326 11.31348 11.31348 42.34326-42.34326v12.68652z"/><path d="m469.65674 202.34338-11.31348 11.31348 10.34326 10.34326h-52.68652v16h52.68652l-10.34326 10.34326 11.31348 11.31348 24-24a7.99915 7.99915 0 0 0 0-11.31348z"/></svg>