<?xml version="1.0" encoding="utf-8"?>
<!-- Generator: Adobe Illustrator 19.0.0, SVG Export Plug-In . SVG Version: 6.00 Build 0)  -->
<svg version="1.1" id="Layer_1" xmlns="http://www.w3.org/2000/svg" xmlns:xlink="http://www.w3.org/1999/xlink" x="0px" y="0px"
	 viewBox="209 -208 467 467" style="enable-background:new 209 -208 467 467;" xml:space="preserve">
<style type="text/css">
	.st0{fill:#00FF48;}
	.st1{fill:#63312D;}
	.st2{fill:#82D9FF;}
	.st3{fill:#CAF4FF;}
	.st4{fill:#EEEEEE;}
	.st5{fill:#F9DD9D;}
	.st6{fill:#CEAF72;}
	.st7{fill:#FFEECF;}
	.st8{fill:#F8F3F3;}
</style>
<path class="st0" d="M632.5,197.3H277.6V-99l121.5-72.9V-204h63.8c2.8,0,5.6,0.7,8,2.2l169.5,98.2c4.9,2.9,8,8.1,8,13.8v271.2
	C648.4,190.2,641.3,197.3,632.5,197.3z"/>
<path class="st1" d="M632.4,201.3H277.6c-2.2,0-4-1.8-4-4V-99c0-1.4,0.7-2.7,1.9-3.4l119.6-71.7V-204c0-2.2,1.8-4,4-4h63.8
	c3.5,0,7,0.9,10,2.7l169.5,98.2c6.1,3.6,10,10.2,10,17.3v271.2C652.4,192.3,643.5,201.3,632.4,201.3z M281.6,193.3h350.8
	c6.6,0,12-5.4,12-12V-89.8c0-4.3-2.3-8.2-6-10.4l-169.5-98.2c-1.8-1.1-3.9-1.6-6-1.6h-59.8v28.1c0,1.4-0.7,2.7-1.9,3.4L281.6-96.8
	L281.6,193.3L281.6,193.3z"/>
<path class="st2" d="M568.6,197.3H229.7c-8.8,0-16-7.1-16-16V-89.8c0-5.7,3-11,8-13.8l169.4-98.2c5-2.9,11.1-2.9,16,0l169.4,98.2
	c4.9,2.9,8,8.1,8,13.8v271.2C584.5,190.2,577.4,197.3,568.6,197.3z"/>
<path class="st3" d="M229.7,190.5V-80.7c0-5.7,3-11,8-13.8l169.4-98.2c4.7-2.7,10.5-2.8,15.4-0.3l-15.3-8.9c-5-2.9-11.1-2.9-16,0
	l-169.4,98.2c-4.9,2.9-8,8.1-8,13.8v271.2c0,8.8,7.1,16,16,16h1.6C230.3,195.2,229.7,192.9,229.7,190.5z"/>
<path class="st1" d="M568.5,201.3H229.7c-11,0-20-9-20-20V-89.8c0-7.1,3.8-13.7,10-17.3l169.4-98.2c6.2-3.6,13.9-3.6,20,0
	l169.4,98.2c6.1,3.6,10,10.2,10,17.3v271.2C588.5,192.3,579.6,201.3,568.5,201.3z M399.1-200c-2.1,0-4.2,0.5-6,1.6l-169.4,98.2
	c-3.7,2.1-6,6.1-6,10.4v271.2c0,6.6,5.4,12,12,12h338.9c6.6,0,12-5.4,12-12V-89.8c0-4.3-2.3-8.2-6-10.4l-169.4-98.2
	C403.3-199.5,401.2-200,399.1-200z"/>
<path class="st4" d="M273.3-34.5h256.9v231.8H273.3V-34.5z"/>
<path class="st1" d="M530.3,201.3H273.3c-2.2,0-4-1.8-4-4V-34.5c0-2.2,1.8-4,4-4h256.9c2.2,0,4,1.8,4,4v231.8
	C534.3,199.5,532.5,201.3,530.3,201.3z M277.3,193.3h249V-30.5h-249V193.3z"/>
<path class="st1" d="M581.6-103h63.9v8h-63.9V-103z"/>
<path class="st3" d="M273.3-34.5h256.9v34.2H273.3V-34.5z"/>
<path class="st3" d="M273.3-0.4h256.9v34.2H273.3V-0.4z"/>
<path class="st3" d="M273.3,33.8h256.9V68H273.3V33.8z"/>
<g>
	<path class="st1" d="M530.3,3.6H273.3c-2.2,0-4-1.8-4-4v-34.2c0-2.2,1.8-4,4-4h256.9c2.2,0,4,1.8,4,4v34.2
		C534.3,1.8,532.5,3.6,530.3,3.6z M277.3-4.4h249v-26.2h-249V-4.4z"/>
	<path class="st1" d="M530.3,37.8H273.3c-2.2,0-4-1.8-4-4V-0.4c0-2.2,1.8-4,4-4h256.9c2.2,0,4,1.8,4,4v34.2
		C534.3,36,532.5,37.8,530.3,37.8z M277.3,29.8h249V3.6h-249V29.8z"/>
	<path class="st1" d="M530.3,72H273.3c-2.2,0-4-1.8-4-4V33.8c0-2.2,1.8-4,4-4h256.9c2.2,0,4,1.8,4,4V68
		C534.3,70.2,532.5,72,530.3,72z M277.3,64h249V37.8h-249V64z"/>
</g>
<path class="st5" d="M410.1,156.2h109.1V255H410.1V156.2z"/>
<path class="st1" d="M519.2,259H410.1c-2.2,0-4-1.8-4-4v-98.8c0-2.2,1.8-4,4-4h109.1c2.2,0,4,1.8,4,4V255
	C523.2,257.2,521.4,259,519.2,259z M414.1,251h101.1v-90.9H414.1V251z"/>
<path class="st6" d="M380.5,156.2h109.1V255H380.5V156.2z"/>
<path class="st7" d="M396.5,172.2h93.1v-16H380.5V255h16V172.2z"/>
<path class="st1" d="M489.6,259H380.5c-2.2,0-4-1.8-4-4v-98.8c0-2.2,1.8-4,4-4h109.1c2.2,0,4,1.8,4,4V255
	C493.6,257.2,491.8,259,489.6,259z M384.5,251h101.1v-90.9H384.5V251z"/>
<path class="st8" d="M422.9,156.2h24.3v32.9h-24.3V156.2z"/>
<path class="st1" d="M447.3,193.1h-24.3c-2.2,0-4-1.8-4-4v-32.9c0-2.2,1.8-4,4-4h24.3c2.2,0,4,1.8,4,4v32.9
	C451.2,191.3,449.5,193.1,447.3,193.1z M426.9,185.1h16.3v-25h-16.3V185.1z"/>
<path class="st6" d="M519.2,156.2h109.1V255H519.2V156.2z"/>
<path class="st1" d="M628.3,259H519.2c-2.2,0-4-1.8-4-4v-98.8c0-2.2,1.8-4,4-4h109.1c2.2,0,4,1.8,4,4V255
	C632.3,257.2,630.5,259,628.3,259z M523.2,251h101.1v-90.9H523.2V251z"/>
<path class="st6" d="M489.6,156.2h109.1V255H489.6V156.2z"/>
<path class="st7" d="M504.4,170.9h94.3v-14.8H489.6V255h14.8V170.9z"/>
<path class="st1" d="M598.8,259H489.6c-2.2,0-4-1.8-4-4v-98.8c0-2.2,1.8-4,4-4h109.1c2.2,0,4,1.8,4,4V255
	C602.8,257.2,601,259,598.8,259z M493.6,251h101.1v-90.9H493.6V251z"/>
<path class="st8" d="M532,156.2h24.3v32.9H532V156.2z"/>
<path class="st1" d="M556.4,193.1H532c-2.2,0-4-1.8-4-4v-32.9c0-2.2,1.8-4,4-4h24.3c2.2,0,4,1.8,4,4v32.9
	C560.4,191.3,558.6,193.1,556.4,193.1z M536,185.1h16.3v-25H536V185.1z"/>
<path class="st6" d="M492.3,57.3h109.1v98.8H492.3V57.3z"/>
<path class="st1" d="M601.4,160.2H492.3c-2.2,0-4-1.8-4-4V57.3c0-2.2,1.8-4,4-4h109.1c2.2,0,4,1.8,4,4v98.8
	C605.4,158.4,603.6,160.2,601.4,160.2z M496.3,152.2h101.1V61.3H496.3V152.2z"/>
<path class="st6" d="M462.7,57.3h109.1v98.8H462.7V57.3z"/>
<path class="st7" d="M477.5,72.1h94.4V57.3H462.7v98.8h14.8V72.1z"/>
<path class="st1" d="M571.8,160.2H462.7c-2.2,0-4-1.8-4-4V57.3c0-2.2,1.8-4,4-4h109.1c2.2,0,4,1.8,4,4v98.8
	C575.8,158.4,574,160.2,571.8,160.2z M466.7,152.2h101.1V61.3H466.7V152.2z"/>
<path class="st8" d="M505.1,57.3h24.3v32.9h-24.3V57.3z"/>
<path class="st1" d="M529.4,94.3h-24.3c-2.2,0-4-1.8-4-4V57.3c0-2.2,1.8-4,4-4h24.3c2.2,0,4,1.8,4,4v32.9
	C533.4,92.5,531.6,94.3,529.4,94.3z M509.1,86.3h16.3v-25h-16.3V86.3z"/>
</svg>
