<?xml version="1.0" encoding="utf-8"?>
<!-- Generator: Adobe Illustrator 19.0.0, SVG Export Plug-In . SVG Version: 6.00 Build 0)  -->
<svg version="1.1" id="Layer_5" xmlns="http://www.w3.org/2000/svg" xmlns:xlink="http://www.w3.org/1999/xlink" x="0px" y="0px"
	 viewBox="231 -231 512 512" style="enable-background:new 231 -231 512 512;" xml:space="preserve">
<style type="text/css">
	.st0{fill:#AFAFAF;}
	.st1{fill:#F7F6C6;}
	.st2{fill:#D1D100;}
	.st3{fill:#F3FF00;}
</style>
<path class="st0" d="M309,143c0,0-43.3-158.4-36-168s28.5-27.6,32-26.8s21.9-5.2,21.9-5.2s12.1-2.6,14.1,5.2s-3,27.9,12,40.3
	s22,35.1,23.5,36.6c1.5,1.5,8.5,8.4,8.5,8.4s1,15.4,8.5,8.5s21.2-15.6,21.1-22S420.5,6.5,425-1s11.4-20.5,14.2-32
	c2.8-11.5,9.8-19.3,9.8-24.4s10.5-9.6,17-7.6s22.5-2,31,0s11.8,0,16.4,0c4.6,0,9.4-11.1-0.1-15S499-107,497-111s-11-16.5-10-22
	s-12.5-21-12-28s-5-11.5,1-18s3.3,3.4,13.9-4.3S505-193,505-193s-0.2,16.1,6.4,16.8C518-175.5,529-161,529-161l9.2,25
	c0,0,17,11.8,21.2,20.2c4.2,8.4,3.4,42.4,3.6,42.8s12.4,24.8,12.4,24.8S579-38.5,577-36c-1.9,2.5,3.9,4.1-8.8,9.3
	s-55.4,7.2-54.8,6.7c0.6-0.5-24.4-5-24.4-5l-15,13.4l-2,147.7l-2,6.9H268l-5-24l10-59V31l22-6"/>
<ellipse class="st1" cx="393.1" cy="-129" rx="68" ry="64"/>
<g>
	<path class="st2" d="M371.4,19.9L382-65h22l10.6,84.9l-21.1,22L371.4,19.9z"/>
	<path class="st2" d="M721-97h-48v-96h48V-97z"/>
	<path class="st2" d="M545-161v34.3L559.8-97H593v-64H545z"/>
	<path class="st2" d="M657-97h-48v-112h48V-97z"/>
	<path class="st3" d="M721,198.8c15.1-20,24-44.9,24-71.8C745,60.7,691.3,7,625,7S505,60.7,505,127c0,27.1,9,52,24.1,72l42.3-24
		C560,162.3,553,145.5,553,127c0-39.8,32.2-72,72-72s72,32.2,72,72c0,18.5-7,35.3-18.4,48L721,198.8z"/>
</g>
<path d="M401,71h16v16h-16V71z"/>
<path d="M401,103h16v16h-16V103z"/>
<path d="M729-241H537c-13.2,0-24,10.8-24,24v20.3c-4.8-2.8-10.2-4.3-16-4.3c-4.9,0-9.9,1.2-14.3,3.4c-15.8,7.9-22.2,27.2-14.3,42.9
	L509.2-73h-71.1c16.4-13.2,26.8-33.4,26.8-56c0-39.7-32.3-72-72-72s-72,32.3-72,72c0,23.1,10.9,43.6,27.9,56.8
	c-51.6,6-91.9,50-91.9,103.2v120h224V-1c0-4.4,3.6-8,8-8h72c4.9,0,9.9-1.2,14.3-3.4c15.8-7.9,22.2-27.2,14.3-42.9l-4.8-9.7H625v24.4
	c0,13,10.6,23.6,23.6,23.6c7.9,0,15.3-3.9,19.7-10.5l25-37.5H729c13.2,0,24-10.8,24-24v-128C753-230.2,742.2-241,729-241L729-241z
	 M337-129c0-30.9,25.1-56,56-56s56,25.1,56,56s-25.1,56-56,56S337-98.1,337-129z M439.2-57c-5,33.8-21.3,65.1-46.1,88.4
	C368.4,8.2,352.2-22.3,347-55.8c4.6-0.7,9.2-1.2,14-1.2H439.2z M273,31c0-38.1,24.4-70.6,58.4-82.8c5.9,35.8,23.2,68.5,49.4,93.7
	L369,51.1V135h-48V31h-16v104h-32V31z M568.2-26.7c-2.2,1.1-4.7,1.7-7.2,1.7h-72c-13.2,0-24,10.8-24,24v136h-80V58.9l7.2-5.6
	c34.7-27,57.3-66.9,63.2-110.4h61.9l10,20l14.3-7.2l-58.9-117.5c-3.9-7.9-0.7-17.5,7.2-21.5c7.7-3.9,17.6-0.5,21.5,7.1l64,128
	C579.3-40.3,576-30.6,568.2-26.7L568.2-26.7z M737-89c0,4.4-3.6,8-8,8h-44.3L655-36.4c-1.4,2.1-3.8,3.4-6.4,3.4
	c-4.2,0-7.6-3.4-7.6-7.6V-81h-64.2L529-176.5V-217c0-4.4,3.6-8,8-8h192c4.4,0,8,3.6,8,8V-89z"/>
<path d="M625-1c-70.6,0-128,57.4-128,128c0,28,8.9,54.5,25.7,76.8l4.2,5.6L584,177l-6.6-7.4c-10.6-11.8-16.4-27-16.4-42.7
	c0-35.3,28.7-64,64-64s64,28.7,64,64c0,15.7-5.8,30.9-16.4,42.7l-6.7,7.4l57.2,32.2l4.2-5.6c16.8-22.3,25.6-48.8,25.6-76.7
	C753,56.4,695.6-1,625-1L625-1z M531.5,188.5c-10.6-16-16.8-34.3-18.2-53.5h32.2c1.4,13.5,6.1,26.5,13.9,37.6L531.5,188.5z
	 M545.4,119h-32c1.8-24.9,11.6-47.5,27-65.2L563,76.4C553.4,88.3,547,102.9,545.4,119L545.4,119z M574.4,65.1l-22.6-22.6
	c17.8-15.4,40.4-25.3,65.2-27v32C600.9,49,586.3,55.4,574.4,65.1L574.4,65.1z M633,47.4v-32c24.9,1.8,47.5,11.6,65.2,27L675.6,65
	C663.7,55.4,649.1,49,633,47.4L633,47.4z M686.9,76.4l22.6-22.6c15.4,17.8,25.3,40.4,27,65.2h-32C703,102.9,696.6,88.3,686.9,76.4
	L686.9,76.4z M718.6,188.3l-28-15.7c7.8-11.2,12.5-24.1,13.9-37.6h32.2C735.4,154.1,729.2,172.3,718.6,188.3L718.6,188.3z"/>
<path d="M642,93.8c-1.2-8.5-8.5-14.8-17-14.8s-15.8,6.4-17,14.8l-13,95c-6.2,7-10,16.1-10,26.2c0,22.1,17.9,40,40,40s40-17.9,40-40
	c0-10.1-3.9-19.2-10-26.2L642,93.8z M623.8,96c0.2-1.2,2.2-1.2,2.3,0l11.1,81.1c-3.9-1.3-7.9-2.1-12.2-2.1c-4.3,0-8.4,0.9-12.2,2.1
	L623.8,96z M625,239c-13.2,0-24-10.8-24-24s10.8-24,24-24s24,10.8,24,24S638.2,239,625,239z"/>
</svg>
