<?xml version="1.0" encoding="utf-8"?>
<!-- Generator: Adobe Illustrator 24.0.1, SVG Export Plug-In . SVG Version: 6.00 Build 0)  -->
<svg version="1.1" id="Layer_1" xmlns="http://www.w3.org/2000/svg" xmlns:xlink="http://www.w3.org/1999/xlink" x="0px" y="0px"
	 viewBox="0 0 20 20" style="enable-background:new 0 0 20 20;" xml:space="preserve">
<style type="text/css">
	.st0{fill:#020203;}
</style>
<g>
	<g>
		<path class="st0" d="M3.2,10.6v5.2H11v-5.2H3.2z M10.3,15.2H3.9v-3.9h6.5V15.2z"/>
	</g>
</g>
<g>
	<g>
		<path class="st0" d="M18.1,17.8V8.7c0.6-0.1,1-0.7,1-1.2V5.7L17,1.6h-3.8c-0.2-0.8-0.8-1.3-1.6-1.3H8.4C7.6,0.3,7,0.8,6.8,1.6H3
			L0.9,5.7v1.7c0,0.6,0.4,1.1,1,1.2v9.1H0.3v1.9h19.4v-1.9H18.1z M18.4,7.4c0,0.4-0.3,0.6-0.6,0.6s-0.6-0.3-0.6-0.6V6.8h1.3V7.4z
			 M16.6,2.2l1.8,3.6v0.2H17l-1.1-3.9H16.6z M15.3,2.2l1.1,3.9h-1.2l-0.6-3.9H15.3z M16.5,6.8v0.6c0,0.4-0.3,0.6-0.6,0.6
			c-0.4,0-0.6-0.3-0.6-0.6V6.8H16.5z M13.2,2.2h0.7l0.6,3.9h-1.2V2.2z M13.2,6.8h1.3v0.6c0,0.4-0.3,0.6-0.6,0.6
			c-0.4,0-0.6-0.3-0.6-0.6V6.8z M8.4,0.9h3.2c0.5,0,1,0.4,1,1s-0.4,1-1,1H8.4c-0.5,0-1-0.4-1-1S7.8,0.9,8.4,0.9z M11.3,6.1V3.5h0.3
			c0.4,0,0.7-0.1,1-0.3v2.9H11.3z M12.6,6.8v0.6c0,0.4-0.3,0.6-0.6,0.6c-0.4,0-0.6-0.3-0.6-0.6V6.8H12.6z M9.4,6.1V3.5h1.3v2.6H9.4z
			 M10.6,6.8v0.6c0,0.4-0.3,0.6-0.6,0.6S9.4,7.8,9.4,7.4V6.8H10.6z M7.4,3.2c0.3,0.2,0.6,0.3,1,0.3h0.3v2.6H7.4V3.2z M7.4,6.8h1.3
			v0.6c0,0.4-0.3,0.6-0.6,0.6c-0.4,0-0.6-0.3-0.6-0.6V6.8z M6.9,8.4C7,8.4,7,8.3,7.1,8.3c0.5,0.5,1.3,0.6,1.8,0.1
			C8.9,8.4,9,8.3,9,8.3c0.5,0.5,1.3,0.6,1.8,0.1c0.1,0,0.1-0.1,0.1-0.1c0.5,0.5,1.3,0.6,1.8,0.1c0.1,0,0.1-0.1,0.1-0.1
			c0.5,0.5,1.3,0.6,1.8,0.1c0.1,0,0.1-0.1,0.1-0.1c0.5,0.5,1.3,0.6,1.8,0.1c0.1,0,0.1-0.1,0.1-0.1c0.2,0.2,0.4,0.3,0.6,0.4v9.1h-0.6
			v-4.5c0-1.4-1.2-2.6-2.6-2.6s-2.6,1.2-2.6,2.6v4.5H2.6V8.7C2.8,8.6,3,8.5,3.2,8.3C3.7,8.8,4.5,8.9,5,8.4c0.1,0,0.1-0.1,0.1-0.1
			C5.6,8.8,6.4,8.9,6.9,8.4z M16.1,13.2v4.5h-3.9v-4.5c0-1.1,0.9-1.9,1.9-1.9S16.1,12.2,16.1,13.2z M3.5,7.4V6.8h1.3v0.6
			c0,0.4-0.3,0.6-0.6,0.6S3.5,7.8,3.5,7.4z M6.1,2.2h0.7v3.9H5.5L6.1,2.2z M5.5,6.8h1.3v0.6c0,0.4-0.3,0.6-0.6,0.6
			c-0.4,0-0.6-0.3-0.6-0.6V6.8z M5.4,2.2L4.9,6.1H3.6l1.1-3.9H5.4z M1.6,5.9l1.8-3.6h0.7L3,6.1H1.6V5.9z M1.6,7.4V6.8h1.3v0.6
			c0,0.4-0.3,0.6-0.6,0.6S1.6,7.8,1.6,7.4z M19.1,19.1H0.9v-0.6h18.1V19.1z"/>
	</g>
</g>
</svg>
