<?xml version="1.0" encoding="utf-8"?>
<!-- Generator: Adobe Illustrator 24.0.1, SVG Export Plug-In . SVG Version: 6.00 Build 0)  -->
<svg version="1.1" id="Layer_1" xmlns="http://www.w3.org/2000/svg" xmlns:xlink="http://www.w3.org/1999/xlink" x="0px" y="0px"
	 viewBox="0 0 50 50" style="enable-background:new 0 0 50 50;" xml:space="preserve">
<style type="text/css">
	.st0{fill-rule:evenodd;clip-rule:evenodd;fill:#ECF4FC;}
	.st1{fill-rule:evenodd;clip-rule:evenodd;fill:#6AB42D;}
	.st2{fill-rule:evenodd;clip-rule:evenodd;fill:#FFCF02;}
	.st3{fill-rule:evenodd;clip-rule:evenodd;fill:#F9CAC0;}
	.st4{fill-rule:evenodd;clip-rule:evenodd;fill:#CCE0F5;}
	.st5{fill-rule:evenodd;clip-rule:evenodd;fill:#EF7A87;}
	.st6{fill:#020203;}
</style>
<g>
	<g>
		<path class="st0" d="M2.2,15.9h44.1c0.8,0.1,1.4,0.7,1.5,1.5v23.9c-0.1,0.8-0.7,1.4-1.5,1.5H6.6c-2.4,0-4.4-2-4.4-4.4L2.2,15.9
			L2.2,15.9z"/>
		<path class="st1" d="M6.6,7.1c-2.4,0-4.4,2-4.4,4.4v27c0-2.4,2-4.4,4.4-4.4c0.8,0,1.5,0.2,2.2,0.6c0.2,0.1,0.5,0,0.5-0.3
			c0-8.6,0-21.3,0-25.8c0-0.3-0.1-0.7-0.5-0.9C8.1,7.3,7.4,7.1,6.6,7.1L6.6,7.1z"/>
		<path class="st2" d="M13.6,19.4h6.5c0.4,0,0.7,0.3,0.7,0.7v6.5c0,0.4-0.3,0.7-0.7,0.7h-6.5c-0.4,0-0.7-0.3-0.7-0.7v-6.5
			C12.9,19.7,13.2,19.4,13.6,19.4L13.6,19.4z"/>
		<path class="st2" d="M44.1,12.2l-3.1-0.9l-2.8,0.9v21.9l3,0.8l2.9-0.8V12.2z"/>
		<path class="st3" d="M41.6,39.1l1.1-2.2l1.5-2.9h-2.9h-2.9l1.5,2.9l1.1,2.2C41,39.5,41.4,39.5,41.6,39.1L41.6,39.1z"/>
		<path class="st2" d="M44.1,12.2V8.9c0-1-0.8-1.8-1.8-1.8H40c-1,0-1.8,0.8-1.8,1.8v3.2H44.1z"/>
		<path class="st1" d="M13.3,39.9h4.5l0.7-2.4l-0.7-1.9h-4.5c-0.6,0.1-1,0.6-1.1,1.1v2.1C12.2,39.3,12.7,39.8,13.3,39.9L13.3,39.9z"
			/>
		<path class="st2" d="M17.7,39.9h5.6l0.8-2.8l-0.8-4.3v-0.8c-0.1-0.6-0.6-1-1.1-1.1h-3.4c-0.6,0.1-1,0.6-1.1,1.1L17.7,39.9
			L17.7,39.9z"/>
		<path class="st1" d="M23.4,39.9H29l0.6-1.9L29,35.5V34c-0.1-0.6-0.6-1-1.1-1.1h-4.5V39.9z"/>
		<path class="st2" d="M29,39.9h4.5c0.6-0.1,1-0.6,1.1-1.1v-2.1c-0.1-0.6-0.6-1-1.1-1.1H29V39.9z"/>
		<path class="st4" d="M44.1,40.6H4.4c-0.6,0-1.2-0.1-1.8-0.4c0.7,1.5,2.2,2.6,4,2.6h39.7c0.8-0.1,1.4-0.7,1.5-1.5V17.4
			c-0.1-0.8-0.7-1.4-1.5-1.5h-0.7v23.2C45.4,39.9,44.8,40.5,44.1,40.6L44.1,40.6z"/>
		<path class="st2" d="M7,15.9v18.2c0.6,0.1,1.2,0.2,1.8,0.6c0.2,0.1,0.5,0,0.5-0.3V15.9V8.6c0-0.3-0.1-0.7-0.5-0.9
			C8.1,7.3,7.4,7.1,6.6,7.1c-0.4,0-0.8,0-1.1,0.1c0.3,0.1,0.7,0.2,1,0.4C6.9,7.9,7,8.3,7,8.6L7,15.9L7,15.9z"/>
		<path class="st1" d="M41.9,12.2v3.7v18.2h2.2V15.9v-3.7L41.9,12.2z"/>
		<path class="st5" d="M41.9,8.9v2.6v0.7h2.2V8.9c0-1-0.8-1.8-1.8-1.8h-2.2C41.1,7.1,41.9,7.9,41.9,8.9z"/>
	</g>
	<path class="st6" d="M43.4,11.5V8.9c0-0.3-0.1-0.6-0.3-0.8c-0.2-0.2-0.5-0.3-0.8-0.3H40c-0.3,0-0.6,0.1-0.8,0.3
		c-0.2,0.2-0.3,0.5-0.3,0.8v2.5L43.4,11.5L43.4,11.5z M14.7,23.8c-0.3-0.3-0.3-0.7,0-1c0.3-0.3,0.7-0.3,1,0l0.6,0.6l1.7-1.7
		c0.3-0.3,0.7-0.3,1,0c0.3,0.3,0.3,0.7,0,1l-2.2,2.2c-0.3,0.3-0.7,0.3-1,0L14.7,23.8z M40.5,15.9c0-0.4,0.3-0.7,0.7-0.7
		c0.4,0,0.7,0.3,0.7,0.7v14.4c0,0.4-0.3,0.7-0.7,0.7c-0.4,0-0.7-0.3-0.7-0.7V15.9z M29.6,39.2h4.2v-3h-4.2V39.2z M34.6,40.6
		c-7.5,0-15,0-22.4,0c-0.4,0-0.7-0.3-0.7-0.7v-4.3c0-0.4,0.3-0.7,0.7-0.7h4.9v-3.9c0-0.4,0.3-0.7,0.7-0.7h5.6c0.4,0,0.7,0.3,0.7,0.7
		v1.2H29c0.4,0,0.7,0.3,0.7,0.7v2h4.9c0.4,0,0.7,0.3,0.7,0.7v4.3C35.3,40.2,34.9,40.6,34.6,40.6L34.6,40.6z M24,39.2h4.2v-5.6H24
		V39.2z M18.4,39.2h4.2v-6.3v-1.2h-4.2V39.2z M12.8,39.2h4.2v-3h-4.2L12.8,39.2z M9.9,15.2h27.6v-3.1V8.9c0-0.7,0.3-1.3,0.7-1.8
		c0.4-0.4,1.1-0.7,1.8-0.7h2.3c0.7,0,1.3,0.3,1.8,0.7c0.4,0.4,0.7,1.1,0.7,1.8v3.2v3.1h3c0.4,0,0.7,0.3,0.7,0.7v27
		c0,0.4-0.3,0.7-0.7,0.7h-19c-0.4,0-0.7-0.3-0.7-0.7s0.3-0.7,0.7-0.7h18.4V16.6h-2.3v5c0,0.4-0.3,0.7-0.7,0.7
		c-0.4,0-0.7-0.3-0.7-0.7v-5.7v-3h-4.5v3v17.5h4.5v-8.7c0-0.4,0.3-0.7,0.7-0.7c0.4,0,0.7,0.3,0.7,0.7v9.4c0,0.2,0,0.2-0.1,0.4
		l-2.9,5.7c-0.1,0.1-0.2,0.2-0.3,0.3c-0.3,0.2-0.7,0-0.9-0.3l-2.9-5.7c-0.1-0.1-0.1-0.2-0.1-0.4V16.6H9.9v5.2c0,0.4-0.3,0.7-0.7,0.7
		c-0.4,0-0.7-0.3-0.7-0.7v-5.9V8.4C8,8,7.3,7.8,6.6,7.8c-1,0-1.9,0.4-2.6,1.1c-0.7,0.7-1.1,1.6-1.1,2.6V35c0,0,0.1-0.1,0.1-0.1
		c0.9-0.9,2.2-1.5,3.6-1.5c0.6,0,1.1,0.1,1.6,0.3c0.1,0,0.2,0.1,0.3,0.1v-8.9c0-0.4,0.3-0.7,0.7-0.7c0.4,0,0.7,0.3,0.7,0.7V35
		c0,0.1,0,0.3-0.1,0.4c-0.2,0.3-0.7,0.4-1,0.1c-0.3-0.2-0.7-0.4-1.1-0.6c-0.4-0.1-0.8-0.2-1.2-0.2c-1,0-1.9,0.4-2.6,1.1
		c-0.7,0.7-1.1,1.6-1.1,2.6c0,1,0.4,1.9,1.1,2.6c0.7,0.7,1.6,1.1,2.6,1.1h19c0.4,0,0.7,0.3,0.7,0.7c0,0.4-0.3,0.7-0.7,0.7h-19
		c-1.4,0-2.7-0.6-3.6-1.5c-0.9-0.9-1.5-2.2-1.5-3.6v-27c0-1.4,0.6-2.7,1.5-3.6C3.9,7,5.2,6.4,6.6,6.4c1.1,0,2.2,0.4,3,1
		C9.8,7.6,9.9,7.8,9.9,8L9.9,15.2L9.9,15.2z M43,34.8h-3.6l1.8,3.6L43,34.8z M33.8,19.4c0.4,0,0.7,0.3,0.7,0.7s-0.3,0.7-0.7,0.7
		h-9.3c-0.4,0-0.7-0.3-0.7-0.7c0-0.4,0.3-0.7,0.7-0.7H33.8z M29.9,25.9c0.4,0,0.7,0.3,0.7,0.7s-0.3,0.7-0.7,0.7h-5.4
		c-0.4,0-0.7-0.3-0.7-0.7c0-0.4,0.3-0.7,0.7-0.7H29.9z M33.8,22.7c0.4,0,0.7,0.3,0.7,0.7c0,0.4-0.3,0.7-0.7,0.7h-9.3
		c-0.4,0-0.7-0.3-0.7-0.7c0-0.4,0.3-0.7,0.7-0.7H33.8z M12.9,18.7h7.9c0.4,0,0.7,0.3,0.7,0.7v7.9c0,0.4-0.3,0.7-0.7,0.7h-7.9
		c-0.4,0-0.7-0.3-0.7-0.7v-7.9C12.2,19,12.5,18.7,12.9,18.7z M20.1,20.1h-6.5v6.5h6.5V20.1z"/>
</g>
</svg>
