<?xml version="1.0" encoding="utf-8"?>
<!-- Generator: Adobe Illustrator 19.0.0, SVG Export Plug-In . SVG Version: 6.00 Build 0)  -->
<svg version="1.1" id="Layer_1" xmlns="http://www.w3.org/2000/svg" xmlns:xlink="http://www.w3.org/1999/xlink" x="0px" y="0px"
	 viewBox="0 0 500 500" style="enable-background:new 0 0 500 500;" xml:space="preserve">
<style type="text/css">
	.st0{fill:#FFFFFF;}
	.st1{fill:#1B1B1C;stroke:#262626;stroke-miterlimit:10;}
	.st2{fill:#515251;}
	.st3{fill:#A1CD3A;}
</style>
<circle id="XMLID_3_" class="st0" cx="249.5" cy="250" r="243.4"/>
<rect id="XMLID_1_" x="97.7" y="318.1" width="31.9" height="104.5"/>
<path id="XMLID_5_" class="st1" d="M392,336.7c0,0-2.2-9.1-14.3-7.6l-152.5,14.5l24.5,17.3c6.5,4.4,11,8.4,13.3,12.2
	c2.3,3.7,3.4,7.8,3.2,12.1c-0.2,4.3-1.8,8.8-4.9,13.4s-6.6,7.9-10.6,9.7c-3.9,1.8-8.1,2.4-12.5,1.7c-4.4-0.7-9.9-3.3-16.7-7.8
	l-22.9-15.3l4.1-6.1l22.2,14.8c5.4,3.6,9.3,5.8,11.8,6.6c3.5,1.1,6.9,0.9,10.2-0.4c3.3-1.3,6.1-3.7,8.4-7.1
	c2.3-3.4,3.4-6.9,3.3-10.3c-0.1-3.5-1.1-6.6-3.2-9.2c-1.4-1.8-5.1-4.7-11-8.7L211.4,345l-0.3,0l-3.6-2.5l-22.7-14.7h-46.7v79.3h24.2
	l56.1,35.5c0,0,12.3,11.8,31.5,0L383,354.6C383,354.6,397,347.8,392,336.7z"/>
<g id="XMLID_2_">
	<path id="XMLID_6_" class="st2" d="M248.5,78.5c-62.4,1-112.6,51.8-112.6,114.4c0,63.2,51.3,114.5,114.5,114.5
		s114.5-51.3,114.5-114.5c0-0.2,0-0.4,0-0.5H248.5V78.5z"/>
	<path id="XMLID_8_" class="st3" d="M262,67.6c-0.6,0-1.2,0-1.9,0v113.9h116.3C376.2,118.5,325,67.6,262,67.6z"/>
</g>
</svg>
