<?xml version="1.0" encoding="utf-8"?>
<!-- Generator: Adobe Illustrator 19.0.0, SVG Export Plug-In . SVG Version: 6.00 Build 0)  -->
<svg version="1.1" id="Capa_1" xmlns="http://www.w3.org/2000/svg" xmlns:xlink="http://www.w3.org/1999/xlink" x="0px" y="0px"
	 viewBox="0 -0.2 512.2 512.2" style="enable-background:new 0 -0.2 512.2 512.2;" xml:space="preserve">
<style type="text/css">
	.st0{fill:#FFFFFF;}
	.st1{fill:#FFC107;}
</style>
<circle id="XMLID_1_" class="st0" cx="256.7" cy="256.5" r="254.3"/>
<g>
	<path class="st1" d="M468.2,326.5c-2.6-0.7-64.3-16.6-92.6,11.7c-3.6,3.7-3.5,9.6,0.3,13.2c3.6,3.5,9.3,3.5,12.9,0
		c14.9-14.9,48.8-12,67.3-8.5c-1.6,20.6-7.8,53.1-21.5,58.3c-4.8,1.7-7.3,7.1-5.5,11.9c1.7,4.8,7.1,7.3,11.9,5.5
		c0.1,0,0.2-0.1,0.3-0.1c31.3-11.9,33.7-75.6,33.9-82.8C475.3,331.4,472.4,327.6,468.2,326.5z"/>
	<path class="st1" d="M438,372.7c0-10.3-8.4-18.6-18.6-18.6c-3.7,0-7.5,1.2-10.5,3.4c-125.1,49.7-234.8,40.7-366.1-30.2
		c-4.4-2.5-10.1-1-12.6,3.5c-2.1,3.7-1.4,8.5,1.7,11.3c65.2,64.2,137.4,96.3,216,96.3c61.1-1.6,120.8-17.9,174.2-47.4
		C431.3,389.8,438.1,382,438,372.7z"/>
</g>
<g>
	<path d="M146.2,96.2c31-28.3,68.2-42.5,111.9-42.5c15.8,0,29.8,2.6,42.3,7.8c12.5,5.1,22.9,12.4,31.5,21.5
		c8.5,9.1,15.1,20.2,19.5,32.9c4.4,12.8,6.7,26.7,6.7,42v170.1h-29.4c-6.1,0-10.9-1-14.2-2.8c-3.3-1.8-5.9-5.6-7.8-11.2l-5.7-19.4
		c-6.8,6.1-13.5,11.5-19.9,16.1c-6.4,4.6-13.2,8.5-20.2,11.7c-7,3.1-14.5,5.6-22.5,7.2c-7.9,1.7-16.7,2.5-26.4,2.5
		c-11.4,0-21.9-1.6-31.5-4.6c-9.6-3-17.9-7.7-24.9-13.8s-12.5-13.8-16.3-22.8c-3.8-9.1-5.7-19.7-5.7-31.8c0-6.8,1.1-13.6,3.4-20.4
		c2.3-6.7,6-13.2,11.2-19.3c5.1-6.1,11.8-11.9,20.1-17.3c8.2-5.4,18.3-10.1,30.3-14.2c12-4,26-7.3,41.9-9.8
		c15.9-2.5,34.1-4.1,54.6-4.6v-15.8c0-18-3.8-31.4-11.6-40.1c-7.7-8.6-18.8-13-33.4-13c-10.5,0-19.2,1.2-26.1,3.7
		c-6.9,2.4-13,5.2-18.2,8.3s-10,5.8-14.3,8.3s-9.1,3.7-14.3,3.7c-4.5,0-8.4-1.2-11.6-3.6c-3.1-2.4-5.7-5.1-7.6-8.3L146.2,96.2z
		 M294.8,213.1c-18.7,0.9-34.5,2.5-47.2,4.9c-12.8,2.4-23,5.4-30.8,9.1c-7.7,3.7-13.2,7.9-16.6,12.9c-3.3,4.9-5,10.3-5,16
		c0,11.4,3.4,19.5,10.1,24.4c6.7,4.9,15.5,7.3,26.4,7.3c13.3,0,24.8-2.4,34.5-7.2c9.7-4.8,19.2-12.1,28.5-22V213.1L294.8,213.1z"/>
</g>
</svg>
