<?xml version="1.0" encoding="utf-8"?>
<!-- Generator: Adobe Illustrator 19.0.0, SVG Export Plug-In . SVG Version: 6.00 Build 0)  -->
<svg version="1.1" id="Layer_1" xmlns="http://www.w3.org/2000/svg" xmlns:xlink="http://www.w3.org/1999/xlink" x="0px" y="0px"
	 viewBox="0 0 512 512" style="enable-background:new 0 0 512 512;" xml:space="preserve">
<style type="text/css">
	.st0{fill:#FFFFFF;}
	.st1{fill:#FFF200;}
	.st2{display:none;}
	.st3{display:inline;fill:#0F0F0F;}
	.st4{display:inline;fill:#262626;}
</style>
<circle id="XMLID_1_" class="st0" cx="256.7" cy="256.7" r="254.3"/>
<g id="XMLID_2_">
	<path id="XMLID_27_" class="st1" d="M367,444.6c-25.9,2-53.2,6.7-82,6c-54.3-2.3-116.9-42.3-162-61.3
		c-45.7-20.8-74.4-33.7-75.9-46.5c-2.8-14.1,0.5-38.2,9-70.8c8.5-32.2,22.3-72.9,39.8-111.7c14.7-31.7,33.3-27.8,50.6-42.1
		c17.4-11.7,33.5-41.9,45.4-63.2c6.3-10.5,12-21.8,17.1-30.8c9.2-16.5,15-9.3,22.9-8c7.6,2.7,16.8,1.2,26.5,7.4
		c11.6,8.7,27.9,17.2,51,55.1c23.1,37,53.1,103.4,92.3,209c16,42.4,28.3,75.3,35.8,96.4c7.6,21.5,10.5,31.3,8.4,37.1
		c-2.2,5.3-9.6,7.5-22.7,11.6C410.3,436.4,391.4,441.9,367,444.6z"/>
</g>
<g id="XMLID_8_" class="st2">
	<path id="XMLID_11_" class="st3" d="M209.5,254.3h14.3c11.5-6.3,23.3-12.3,35.6-18c-8.4,1.4-18.1,2.1-28.9,2.1h-21V108.8h27.9
		c12.6,0,23.6,1.3,33.1,3.9c9.5,2.6,17.3,6.7,23.6,12.3c6.3,5.6,11,12.8,14.2,21.6c3.1,8.8,4.7,19.3,4.7,31.6
		c0,9.4-1.4,17.8-4.3,25.2c-2.5,6.6-6.5,12.3-11.8,17.1c15.2-5.7,30.9-10.8,47-15.2c3.3-4.8,5.9-9.9,8-15.4
		c3.2-8.5,4.8-17.7,4.8-27.7c0-9.1-1.6-17.8-4.8-26.3c-3.2-8.5-9.1-15.9-17.5-22.5c-8.5-6.5-20.1-11.8-34.9-15.7
		c-14.8-3.9-33.8-5.9-56.8-5.9H127.9v10.8l29.3,6c3.1,0.8,5.7,2.4,7.7,4.8c2.1,2.5,3.1,5.5,3.1,9V289c13.2-9.2,27.1-18.1,41.5-26.6
		V254.3z"/>
	<path id="XMLID_15_" class="st4" d="M164.9,387.8c-2.1,2.5-4.7,4.1-7.7,4.8l-29.3,6.2v10.8h121.8c10.3,0,20.6-0.6,30.9-1.7
		c10.3-1.2,20.2-3.1,29.6-5.9c9.5-2.8,18.3-6.4,26.5-11c8.2-4.5,15.4-10.2,21.4-16.9c6.1-6.8,10.8-14.8,14.3-24
		c3.5-9.2,5.2-19.9,5.2-32.1c0-11.5-2.3-21.9-7-31.1c-4.7-9.2-11.1-17.1-19.1-23.6c-8.1-6.5-17.5-11.7-28.4-15.4
		c-10.8-3.8-22.4-5.9-34.7-6.3c10.3-2.8,19.7-6.6,28.1-11.4c8.5-4.8,15.7-10.6,21.7-17.4c2.1-2.4,4-4.9,5.8-7.5
		c-16.2,4.4-31.9,9.5-47,15.2c-0.7,0.6-1.4,1.2-2.1,1.8c-6.5,5.2-15,9.1-25.5,11.9c-3.1,0.8-6.4,1.5-10,2.1
		c-12.2,5.7-24.1,11.7-35.6,18H245c15.1,0,28.1,1.3,39.1,3.9c11,2.6,20,6.8,27.1,12.6c7.1,5.8,12.3,13.3,15.7,22.6
		c3.4,9.3,5.1,20.7,5.1,34.2c0,23.1-6.1,39.7-18.4,49.8c-12.3,10.1-30.7,15.2-55.3,15.2h-48.7V262.4c-14.5,8.5-28.3,17.4-41.5,26.6
		V379C168,382.4,167,385.3,164.9,387.8z"/>
</g>
<g id="XMLID_4_">
	<path id="XMLID_10_" d="M218.3,273.4v116.4h-21.3v-71.5c0-1.5,0-3.1,0.1-4.8c0.1-1.7,0.2-3.4,0.4-5.2l-33.3,63.1
		c-1.8,3.5-4.6,5.2-8.4,5.2h-3.4c-1.9,0-3.5-0.4-5-1.3c-1.4-0.9-2.6-2.2-3.4-3.9L110.7,308c0.2,1.9,0.3,3.7,0.4,5.4
		c0.1,1.7,0.2,3.4,0.2,4.9v71.5H90V273.4h18.3c1,0,1.9,0,2.7,0.1c0.8,0.1,1.5,0.2,2.1,0.4c0.6,0.2,1.2,0.6,1.7,1.1
		c0.5,0.5,1,1.2,1.5,2.1l32.6,62.1c1,1.9,2,3.8,2.8,5.8c0.9,2,1.7,4,2.5,6.1c0.8-2.1,1.6-4.2,2.5-6.3c0.9-2,1.8-4,2.8-5.9l32.3-61.8
		c0.5-0.9,1-1.6,1.5-2.1c0.5-0.5,1.1-0.9,1.7-1.1c0.6-0.2,1.3-0.4,2.1-0.4c0.8-0.1,1.7-0.1,2.8-0.1H218.3z"/>
	<path id="XMLID_14_" d="M325,292.8h-34v97h-24.1v-97h-34v-19.4H325V292.8z"/>
	<path id="XMLID_18_" d="M432.3,389.8h-21.7c-4.1,0-7-1.6-8.8-4.7l-22.1-35.7c-0.9-1.4-1.9-2.4-3-3c-1.1-0.6-2.7-1-4.9-1h-8.2v44.4
		h-24.1V273.4h36.6c8.1,0,15.1,0.8,20.9,2.5c5.8,1.7,10.5,4,14.2,7c3.7,3,6.4,6.6,8.1,10.7c1.7,4.1,2.6,8.7,2.6,13.7
		c0,3.8-0.5,7.5-1.6,10.9c-1.1,3.4-2.7,6.6-4.8,9.4c-2.1,2.8-4.7,5.3-7.7,7.5c-3,2.2-6.5,4-10.4,5.3c1.6,0.9,3,1.9,4.3,3.1
		c1.3,1.2,2.5,2.6,3.6,4.3L432.3,389.8z M375.9,328.5c3.9,0,7.3-0.5,10.1-1.5c2.8-1,5.2-2.4,7-4.1c1.8-1.7,3.2-3.8,4-6.1
		c0.9-2.4,1.3-4.9,1.3-7.7c0-5.5-1.8-9.8-5.5-12.8c-3.7-3-9.2-4.6-16.7-4.6h-12.5v36.8H375.9z"/>
</g>
<g id="XMLID_9_">
	<path id="XMLID_23_" d="M221,201.1c0-32,37.1-37.7,69.7-37.1v28.6c0,3.1-0.7,6.5-1.7,9.5c-0.1,0.3-0.2,0.6-0.3,0.9
		c10,0,20.3,0.4,30.9,1.3V147c0-33-12.2-67.3-62.6-67.3c-20.7,0-40.5,5.8-54.1,14.6l6.8,19.7c11.6-7.5,27.5-12.2,42.8-12.2
		c33.7,0,37.4,24.5,37.4,38.1v3.4c-63.6-0.3-98.9,21.4-98.9,61.2c0,4.3,0.6,8.6,1.7,12.7c8.8-2.6,18.6-5.2,29.3-7.3
		C221.4,207.2,221,204.3,221,201.1z"/>
	<path id="XMLID_26_" d="M241.4,251.7c23.5,0,41.1-11.6,50.3-24.5h1l2.4,20.7h27.2c-2-11.2-2.7-25.2-2.7-39.4v-4.3
		c-10.6-0.9-20.9-1.4-30.9-1.3c-5,13.6-18.5,26.7-39.5,26.7c-12.8,0-23.9-6.4-27.2-19.8c-10.6,2.2-20.4,4.7-29.3,7.3
		C197.7,236,214.1,251.7,241.4,251.7z"/>
</g>
</svg>
