<?xml version="1.0" encoding="utf-8"?>
<!-- Generator: Adobe Illustrator 24.0.1, SVG Export Plug-In . SVG Version: 6.00 Build 0)  -->
<svg version="1.1" id="Layer_1" xmlns="http://www.w3.org/2000/svg" xmlns:xlink="http://www.w3.org/1999/xlink" x="0px" y="0px"
	 viewBox="0 0 50 50" style="enable-background:new 0 0 50 50;" xml:space="preserve">
<style type="text/css">
	.st0{fill:#FFFFFF;}
	.st1{fill:#020203;}
	.st2{fill:#FBFAFB;}
	.st3{fill:#FDFDFD;}
	.st4{fill:#F1D366;}
	.st5{fill:#FEFEFE;}
</style>
<circle class="st0" cx="25" cy="25" r="24.7"/>
<g>
	<path class="st1" d="M42.7,33c-0.1,0.3-0.1,0.5-0.2,0.8c-0.6,1.8-2.3,3-4.2,3c-8.6,0-17.1,0-25.7,0c-1.8,0-3.2-0.9-4-2.5
		c-0.8-1.6-0.6-3.2,0.4-4.7c0.1-0.2,0.2-0.4,0.2-0.6c0-2.4,0-4.7,0-7.1c0-1.2,0.4-2.3,1.3-3.1c0.1-0.1,0.3-0.3,0.4-0.3
		c0.4-0.2,0.5-0.5,0.6-0.9c0.6-3.8,2.6-6.6,6.1-8.3c1.4-0.7,2.9-1,4.5-1c1.3,0,2.7,0,4,0c0.2,0,0.3,0,0.4-0.2
		C27.4,7,28.6,6.5,30,6.8c1.4,0.3,2.2,1.2,2.6,2.6c0.3,1.2-0.3,2.6-1.4,3.4C31,12.9,31,13,31,13.3c0,0.4,0,0.9,0,1.3
		c0,0.2,0.1,0.3,0.3,0.4c1.6,0.8,2.4,2.1,2.5,3.9c0,0.3-0.1,0.5-0.3,0.6c-0.7,0.5-1.4,1-2.1,1.6c-0.2,0.2-0.4,0.2-0.7,0.1
		c-0.2-0.1-0.3-0.3-0.3-0.6c0-0.4,0-0.9,0-1.3c0-0.2,0-0.2-0.2-0.2c-0.6,0-1.2,0-1.8,0c-0.2,0-0.2,0.1-0.2,0.2c0,0.4,0,0.9,0,1.3
		c0,0.3-0.1,0.5-0.3,0.6c-0.3,0.1-0.5,0-0.7-0.1c-0.6-0.4-1.1-0.9-1.8-1.3c-0.6-0.4-0.7-0.8-0.6-1.4c0.3-1.5,1.1-2.7,2.5-3.4
		c0.2-0.1,0.3-0.2,0.2-0.4c0-0.1,0-0.2,0-0.4c0.1-0.7,0-1.4-0.7-1.8c0,0-0.1,0-0.1-0.1c-0.3-0.6-0.8-0.6-1.3-0.6c-1.3,0-2.6,0-3.8,0
		c-2.9,0.1-5.5,2.1-6.4,4.8c-0.2,0.4-0.2,0.9-0.3,1.4c0,0.2,0,0.3,0.2,0.4c1.3,0.8,2,1.9,2,3.5c0,1.9,0,3.8,0,5.7
		c0,0.3,0.1,0.3,0.3,0.3c0.8,0,0.8,0,0.8-0.8c0-1.3,0-2.7,0-4c0-0.6,0.2-0.8,0.8-0.8c1.7,0,3.4,0,5.2,0c0.6,0,0.8,0.2,0.8,0.7
		c0,1.5,0,3,0,4.5c0,0.3,0.1,0.4,0.4,0.4c0.7,0,0.7,0,0.7-0.7c0-1.4,0-2.7,0-4.1c0-0.5,0.2-0.7,0.7-0.7c1.7,0,3.5,0,5.2,0
		c0.6,0,0.7,0.2,0.7,0.8c0,1.5,0,3,0,4.5c0,0.3,0.1,0.4,0.4,0.3c0.8,0,0.8,0,0.8-0.8c0-1.4,0-2.7,0-4.1c0-0.6,0.2-0.8,0.8-0.8
		c1.7,0,3.5,0,5.2,0c0.5,0,0.7,0.2,0.7,0.7c0,1.7,0,3.4,0,5.2c0,0.2,0,0.3,0.2,0.4c1.1,0.7,1.8,1.7,2,3.1c0,0,0,0.1,0.1,0.1
		C42.7,32.2,42.7,32.6,42.7,33z"/>
	<path class="st1" d="M8.4,41.3c-0.3-0.2-0.4-0.4-0.3-0.8c0-0.7,0-1.3,0-2c0-0.4,0.2-0.6,0.6-0.6c0.1,0,0.1,0,0.2,0
		c11,0,21.9,0,32.9,0c0.4,0,0.6,0.1,0.8,0.4c0,0.9,0,1.8,0,2.6c0,0.2-0.2,0.3-0.3,0.3C31,41.3,19.7,41.3,8.4,41.3z"/>
	<path class="st2" d="M42.3,41.3c0.1-0.1,0.2-0.2,0.3-0.3C42.7,41.2,42.6,41.3,42.3,41.3z"/>
	<path class="st0" d="M25.4,35.7c-4.3,0-8.5,0-12.8,0c-1.7,0-3-1.1-3.3-2.7c-0.4-1.9,1.1-3.8,3-3.9c2-0.1,4.1,0,6.1,0
		c0.6,0,1.3,0,1.9,0c3.8,0,7.6,0,11.4,0c2.2,0,4.5,0,6.7,0c1.6,0,3,1.5,3.1,3.1c0.1,1.7-1.1,3.2-2.7,3.5c-0.3,0-0.5,0-0.8,0
		C33.8,35.7,29.6,35.7,25.4,35.7z"/>
	<path class="st0" d="M10.3,28.5c0-2.3,0-4.6,0-6.8c0-1.4,1.2-2.6,2.6-2.7c1.7-0.1,2.9,1.3,2.9,2.6c0,1.2,0,2.4,0,3.6
		c0,0.8,0,1.6,0,2.4c0,0.2-0.1,0.3-0.3,0.3c-0.7,0-1.3,0-2,0C12.5,27.9,11.4,27.8,10.3,28.5z"/>
	<path class="st0" d="M23.4,10.6c-1.1,0-2.2-0.1-3.3,0.2c-3.2,0.8-5.8,3.6-6.3,6.9c0,0.2-0.1,0.2-0.3,0.2c-0.1,0-0.3,0-0.4,0
		c-0.5,0-0.5,0-0.4-0.5c0.6-2.8,2.1-5,4.5-6.5c1.5-0.9,3.1-1.3,4.9-1.3c1.2,0,2.4,0,3.6,0c0.2,0,0.3,0,0.3,0.3c0,0.2,0,0.4,0,0.6
		c0.1,0.2,0,0.3-0.2,0.3C25,10.6,24.2,10.6,23.4,10.6z"/>
	<path class="st0" d="M29.3,7.8c1.2,0,2.2,1,2.2,2.2c0,1.2-1,2.2-2.3,2.2c-1.2,0-2.2-1-2.2-2.2C27.1,8.8,28,7.8,29.3,7.8z"/>
	<path class="st0" d="M31.5,19.5c0-0.4,0-0.7,0-1c0-0.4-0.2-0.6-0.6-0.7c-1.1,0-2.1,0-3.2,0c-0.4,0-0.6,0.2-0.6,0.6c0,0.3,0,0.6,0,1
		c-0.4-0.3-0.7-0.5-1-0.8c-0.1-0.1-0.1-0.2-0.1-0.3c0.2-1.3,1.4-2.5,2.7-2.7c1.9-0.3,3.5,0.8,3.9,2.7c0,0.2,0,0.4-0.2,0.5
		C32.1,19.1,31.8,19.3,31.5,19.5z"/>
	<path class="st0" d="M19.3,24.2c0.5,0.5,0.9,0.9,1.3,1.3c0.1,0.1,0.1,0.1,0,0.2c-0.4,0.4-0.9,0.8-1.3,1.3
		C19.3,26.1,19.3,25.2,19.3,24.2z"/>
	<path class="st0" d="M31.5,24.3c0,0.9,0,1.8,0,2.8c-0.3-0.3-0.5-0.5-0.7-0.7c-0.2-0.2-0.7-0.4-0.6-0.7c0-0.2,0.4-0.5,0.6-0.7
		C31,24.7,31.2,24.5,31.5,24.3C31.4,24.3,31.5,24.3,31.5,24.3z"/>
	<path class="st3" d="M30.7,27.9c-1,0-1.9,0-2.8,0c0.5-0.5,0.9-0.9,1.3-1.3c0.1-0.1,0.1,0,0.2,0C29.8,27,30.2,27.4,30.7,27.9z"/>
	<path class="st3" d="M35.6,27.9c0.5-0.5,0.9-0.9,1.3-1.3c0.1-0.1,0.1-0.1,0.2,0c0.4,0.4,0.8,0.9,1.3,1.3
		C37.5,27.9,36.6,27.9,35.6,27.9z"/>
	<path class="st3" d="M34.9,27.1c0-1,0-1.9,0-2.8c0.3,0.2,0.5,0.5,0.8,0.7c0.2,0.2,0.6,0.4,0.6,0.6c0,0.3-0.4,0.4-0.6,0.7
		C35.4,26.6,35.2,26.8,34.9,27.1z"/>
	<path class="st3" d="M20.1,27.9c0.5-0.5,0.9-0.9,1.3-1.3c0.1-0.1,0.1,0,0.2,0c0.4,0.4,0.8,0.8,1.3,1.3C21.9,27.9,21,27.9,20.1,27.9
		z"/>
	<path class="st3" d="M27.1,27.1c0-1,0-1.9,0-2.8c0.5,0.5,0.9,0.9,1.3,1.3c0.1,0.1,0.1,0.1,0,0.2C28,26.2,27.5,26.6,27.1,27.1z"/>
	<path class="st0" d="M23.7,24.2c0,1,0,1.9,0,2.8c-0.5-0.5-0.9-0.9-1.3-1.3c-0.1-0.1,0-0.2,0.1-0.2C22.8,25.1,23.2,24.7,23.7,24.2z"
		/>
	<path class="st3" d="M35.7,23.5c1,0,1.9,0,2.8,0c-0.5,0.5-0.9,0.9-1.3,1.3c-0.1,0.1-0.1,0.1-0.2,0C36.6,24.4,36.1,23.9,35.7,23.5z"
		/>
	<path class="st3" d="M30.7,23.5c-0.5,0.5-0.9,0.9-1.3,1.3c-0.1,0.1-0.1,0.1-0.2,0c-0.4-0.4-0.9-0.8-1.3-1.3
		C28.8,23.5,29.7,23.5,30.7,23.5z"/>
	<path class="st3" d="M20,23.5c1,0,1.9,0,2.8,0c-0.4,0.4-0.7,0.7-1,1c-0.4,0.4-0.4,0.4-0.8,0C20.8,24.2,20.4,23.8,20,23.5z"/>
	<path class="st0" d="M39.3,27.1c-0.5-0.5-0.9-0.9-1.3-1.3c-0.1-0.1-0.1-0.1,0-0.2c0.4-0.4,0.8-0.8,1.3-1.3
		C39.3,25.2,39.3,26.1,39.3,27.1z"/>
	<path class="st0" d="M29.8,14c0,0.5,0,0.5-0.6,0.5c-0.5,0-0.5,0-0.5-0.6c0-0.6,0-0.6,0.5-0.6C29.8,13.4,29.8,13.4,29.8,14z"/>
	<path class="st0" d="M25.4,39.1c5.2,0,10.5,0,15.7,0c0.3,0,0.4,0.1,0.4,0.4c0,0.7,0,0.7-0.7,0.7c-10.4,0-20.8,0-31.1,0
		c-0.5,0-0.5,0-0.5-0.4c0-0.6,0-0.6,0.6-0.6C15,39.1,20.2,39.1,25.4,39.1z"/>
	<path class="st1" d="M31,30.1c1.2,0,2.2,1,2.2,2.2c0,1.2-1,2.2-2.3,2.2c-1.2,0-2.2-1-2.2-2.3C28.7,31.1,29.7,30.1,31,30.1z"/>
	<path class="st1" d="M19.8,34.6c-1.2,0-2.2-1-2.3-2.2c0-1.2,1-2.2,2.3-2.2c1.2,0,2.2,1,2.2,2.2C22,33.6,21,34.6,19.8,34.6z"/>
	<path class="st1" d="M25.4,30.1c1.2,0,2.2,1,2.2,2.2c0,1.3-1,2.2-2.3,2.2c-1.2,0-2.2-1-2.2-2.2C23.1,31.1,24.1,30.1,25.4,30.1z"/>
	<path class="st1" d="M38.7,32.4c0,1.2-1,2.2-2.2,2.2c-1.2,0-2.2-1-2.2-2.3c0-1.2,1-2.2,2.3-2.2C37.8,30.1,38.7,31.1,38.7,32.4z"/>
	<path class="st1" d="M14.2,30.1c1.2,0,2.2,1,2.2,2.2c0,1.2-1,2.2-2.3,2.2c-1.2,0-2.2-1-2.2-2.2C12,31.1,13,30.1,14.2,30.1z"/>
	<path class="st1" d="M14.8,21.8c0,0.9-0.8,1.7-1.7,1.7c-0.9,0-1.7-0.8-1.7-1.7c0-0.9,0.8-1.7,1.7-1.7C14,20.1,14.8,20.8,14.8,21.8z
		"/>
	<path class="st4" d="M30.9,33.5c-0.6,0-1.1-0.5-1.1-1.1c0-0.6,0.5-1.1,1.1-1.1c0.6,0,1.1,0.5,1.1,1.1C32.1,33,31.6,33.5,30.9,33.5z
		"/>
	<path class="st4" d="M19.8,33.5c-0.6,0-1.1-0.5-1.1-1.1c0-0.6,0.5-1.1,1.1-1.1c0.6,0,1.1,0.5,1.1,1.1C20.9,33,20.4,33.5,19.8,33.5z
		"/>
	<path class="st4" d="M25.3,33.5c-0.6,0-1.1-0.5-1.1-1.1c0-0.6,0.5-1.1,1.1-1.1c0.6,0,1.1,0.5,1.1,1.1C26.5,33,26,33.5,25.3,33.5z"
		/>
	<path class="st4" d="M36.5,33.5c-0.6,0-1.1-0.5-1.1-1.1c0-0.6,0.5-1.1,1.1-1.1c0.6,0,1.1,0.5,1.1,1.1C37.6,33,37.1,33.5,36.5,33.5z
		"/>
	<path class="st4" d="M15.3,32.4c0,0.6-0.5,1.1-1.1,1.1c-0.6,0-1.1-0.5-1.1-1.1c0-0.6,0.5-1.1,1.1-1.1
		C14.9,31.3,15.3,31.7,15.3,32.4z"/>
	<path class="st5" d="M13.1,22.3c-0.3,0-0.6-0.2-0.6-0.5c0-0.3,0.2-0.5,0.6-0.5c0.3,0,0.5,0.2,0.5,0.5
		C13.7,22.1,13.4,22.3,13.1,22.3z"/>
</g>
</svg>
