<?xml version="1.0" encoding="utf-8"?>
<!-- Generator: Adobe Illustrator 19.0.0, SVG Export Plug-In . SVG Version: 6.00 Build 0)  -->
<svg version="1.1" id="Layer_1" xmlns="http://www.w3.org/2000/svg" xmlns:xlink="http://www.w3.org/1999/xlink" x="0px" y="0px"
	 viewBox="0 0 512 512" style="enable-background:new 0 0 512 512;" xml:space="preserve">
<style type="text/css">
	.st0{fill:#FFFFFF;}
	.st1{fill:#F6EC13;}
	.st2{fill:#F8971D;}
	.st3{fill:#5CB8E8;}
	.st4{fill:#010101;}
	.st5{fill:#070808;}
</style>
<circle id="XMLID_6_" class="st0" cx="255.7" cy="254.7" r="254.3"/>
<g id="XMLID_2_">
	<path id="XMLID_22_" class="st0" d="M282.6,80.5H93.7c-7.8,0-14.1,6.3-14.1,14.1v318.7c0,7.8,6.3,14.1,14.1,14.1h242.5
		c7.8,0,14.1-6.3,14.1-14.1V148.2L282.6,80.5z"/>
	<path id="XMLID_21_" class="st1" d="M296.7,148.2h53.6l-67.7-67.7v53.6C282.6,141.9,288.9,148.2,296.7,148.2z"/>
	<rect id="XMLID_20_" x="161.3" y="364.2" class="st1" width="45.1" height="63.2"/>
	<rect id="XMLID_19_" x="308" y="274.4" class="st1" width="45.1" height="153"/>
	<rect id="XMLID_18_" x="234.7" y="323.7" class="st2" width="45.1" height="103.6"/>
	<rect id="XMLID_17_" x="381.3" y="227.7" class="st3" width="45.1" height="199.7"/>
	<path id="XMLID_16_" class="st1" d="M175.2,196.3H233c0,31.9-25.8,57.8-57.8,57.8s-57.8-25.8-57.8-57.8c0-31.9,25.8-57.8,57.8-57.8
		L175.2,196.3L175.2,196.3z"/>
	<path id="XMLID_15_" class="st2" d="M175.2,119.1v77.2h77.2C252.3,153.7,217.8,119.1,175.2,119.1z"/>
	<path id="XMLID_33_" class="st4" d="M426.4,220.7h-45.1c-3.9,0-7,3.1-7,7v35.6c0,3.9,3.1,7,7,7s7-3.1,7-7v-28.5h31v185.6h-15.5
		h-15.5V316.2c0-3.9-3.1-7-7-7s-7,3.1-7,7v104.1h-14.1V274.4c0-3.9-3.1-7-7-7h-45.1c-3.9,0-7,3.1-7,7v146H287v-96.6c0-3.9-3.1-7-7-7
		h-45.1c-3.9,0-7,3.1-7,7v96.6h-14.1v-56.1c0-3.9-3.1-7-7-7h-45.1c-3.9,0-7,3.1-7,7v56.1H93.7c-3.9,0-7-3.1-7-7V94.7
		c0-3.9,3.1-7,7-7h181.9v46.6c0,11.7,9.5,21.2,21.2,21.2h46.5v86.7c0,3.9,3.1,7,7,7c3.9,0,7-3.1,7-7v-93.9c0-1.8-0.8-3.7-2.1-5
		l-67.7-67.7c-1.3-1.3-3.1-2.1-5-2.1H93.7C82,73.5,72.6,83,72.6,94.7v318.7c0,11.7,9.5,21.2,21.2,21.2h332.8c3.9,0,7-3.1,7-7V227.7
		C433.5,223.8,430.3,220.7,426.4,220.7z M289.6,134.1V97.6l43.6,43.6h-36.5C292.8,141.1,289.6,138,289.6,134.1z M168.4,420.4v-49.1
		h31v49.1H168.4L168.4,420.4z M241.7,420.4v-89.5h31v89.5H241.7z M315,420.4V281.4h31v138.9L315,420.4L315,420.4z"/>
	<path id="XMLID_9_" class="st5" d="M381.3,295.4c1.8,0,3.7-0.8,5-2.1c1.3-1.3,2.1-3.1,2.1-5s-0.8-3.7-2.1-5c-1.3-1.3-3.1-2.1-5-2.1
		s-3.7,0.8-5,2.1c-1.3,1.3-2.1,3.1-2.1,5s0.8,3.7,2.1,5C377.6,294.8,379.5,295.4,381.3,295.4z"/>
	<path id="XMLID_28_" class="st4" d="M175.2,112.1c-3.9,0-7,3.1-7,7v12.7c-32.4,3.5-57.8,31.1-57.8,64.5c0,35.8,29.1,64.8,64.8,64.8
		c33.3,0,60.9-25.3,64.5-57.8h12.7c3.9,0,7-3.1,7-7C259.4,149.9,221.6,112.1,175.2,112.1z M175.2,247c-28,0-50.8-22.8-50.8-50.8
		c0-25.6,19-46.8,43.7-50.2v50.2c0,3.9,3.1,7,7,7h50.2C222,227.9,200.7,247,175.2,247z M182.2,189.2v-62.7
		c33,3.3,59.4,29.7,62.7,62.7H182.2L182.2,189.2z"/>
	<path id="XMLID_5_" class="st5" d="M259.4,287.9c0-3.9-3.1-7-7-7H117.7c-3.9,0-7,3.1-7,7s3.1,7,7,7h134.6
		C256.2,295.1,259.4,291.8,259.4,287.9z"/>
	<path id="XMLID_4_" class="st5" d="M117.7,314.9c-3.9,0-7,3.1-7,7c0,3.9,3.1,7,7,7h45.1c3.9,0,7-3.1,7-7c0-3.9-3.1-7-7-7H117.7z"/>
	<path id="XMLID_3_" class="st5" d="M193.1,317c-1.3,1.3-2.1,3.1-2.1,5s0.8,3.7,2.1,5s3.1,2.1,5,2.1s3.7-0.8,5-2.1s2.1-3.1,2.1-5
		s-0.8-3.7-2.1-5s-3.1-2.1-5-2.1C196.2,314.9,194.4,315.7,193.1,317z"/>
</g>
</svg>
