<?xml version="1.0" encoding="utf-8"?>
<!-- Generator: Adobe Illustrator 19.0.0, SVG Export Plug-In . SVG Version: 6.00 Build 0)  -->
<svg version="1.1" id="Layer_1" xmlns="http://www.w3.org/2000/svg" xmlns:xlink="http://www.w3.org/1999/xlink" x="0px" y="0px"
	 viewBox="0 0 512 512" style="enable-background:new 0 0 512 512;" xml:space="preserve">
<style type="text/css">
	.st0{fill:#FFFFFF;}
	.st1{fill:#F9D0B4;}
	.st2{fill:#E9E9EA;}
	.st3{fill:#25AFE5;}
	.st4{fill:#05CE05;}
	.st5{fill:#55ACD5;}
	.st6{fill:#FFCD29;}
	.st7{fill:#EA4647;}
	.st8{fill:#231F20;}
	.st9{fill:#6DCC6D;}
</style>
<circle id="XMLID_1_" class="st0" cx="255.3" cy="256.7" r="254.3"/>
<g id="Layer_25">
	<path class="st1" d="M233.4,77.4c-7-6.2-17.6-5.5-23.7,1.5c-6.2,7-5.5,17.6,1.5,23.7c0.2,0.2,0.2,0.2,0.4,0.4
		c23.9,20.7,37.7,47.1,45.5,70.4c13.1,7,24.8,13.8,30.8,17.4c11,6,19.1,16.5,22.3,28.5C305.8,149.5,256,97.6,233.4,77.4z"/>
	<path class="st1" d="M201.7,107.6c-8.1-4.4-18.2-1.3-22.7,6.8c-4.4,8.1-1.3,18.2,6.8,22.7c7.8,4.2,15.3,9.1,22.3,14.8
		c4-0.2,8.1,0.6,11.7,2.3c10.3,4.6,24.1,11.9,37,18.9c-5.1-15.3-12.2-29.8-21.2-43.2C224.9,121.8,213.7,114.2,201.7,107.6z"/>
	<path class="st1" d="M287.8,190.5c-11.9-6.8-47.1-26.9-67.8-36.2c-9.8-4.4-21.2-2.5-29,4.9l-27.1,25.6c-6.7,6.4-7,16.9-0.6,23.7
		c5.9,6.2,15.5,7,22.3,1.8l18.6-16.3c3.2-2.5,8-2.3,10.8,0.6c6,6.2,17.1,17.1,28,24.4l0,0c0,0,15.9,11.4,3.8,32l-1.8,2.8
		c-0.8,1.1-1.1,1.7-2.8,4.2c-7,11.2-21.8,14.5-33.1,7.5c-0.2-0.2-0.5-0.4-0.6-0.5l-14.6-9.9c-6.2-4.4-11.4-8.3-13.5-14.6
		c-4.6-13.2-14.4-33.9-29.2-27.3c-4.9,2.3-7.5,7.5-6.5,12.7l7.5,40.6c1,5.3,4,9.9,8.7,12.9c11.9,7.8,34.9,25,34.9,41.4h69.1
		c-5.3-26.2,11.4-52,37.7-57.4c1.7-5.3,3.6-10.6,5.9-15.7C315,233.1,313.4,205.5,287.8,190.5z"/>
	<path class="st2" d="M264.7,320.9h-74c-2.1,0-3.9,1.8-3.9,3.9v18.4h89.3C270.4,336.8,266.4,329.2,264.7,320.9z"/>
	<path class="st3" d="M275.9,343.2h-93.1c-2.1,0-3.9,1.8-3.9,3.9v109.4c0,2.1,1.8,3.9,3.9,3.9h121.3c2.1,0,3.9-1.8,3.9-3.9v-97.3
		C295.8,358.2,284.2,352.5,275.9,343.2z"/>
	<circle class="st4" cx="312.1" cy="311" r="48.4"/>
	<path class="st2" d="M337.8,292.2c-3.2-3.2-8.3-3.2-11.6,0l-23.1,23.1l-7.2-7.8c-3.1-3.2-8.1-3.6-11.6-0.5s-3.6,8.1-0.5,11.6
		l12.9,14c3.1,3.2,8.1,3.6,11.6,0.5c0.2-0.2,0.2-0.2,0.4-0.4l29.2-29.2C340.9,300.5,340.9,295.4,337.8,292.2z"/>
	<path class="st5" d="M277.7,69.1h-2.9v-2.9c0-2.3-1.8-4-4-4c-2.3,0-4,1.8-4,4v2.9h-2.9c-2.3,0-4,1.8-4,4s1.8,4,4,4h2.9v2.9
		c0,2.3,1.8,4,4,4c2.3,0,4-1.8,4-4v-2.8h2.9c2.3,0,4-1.8,4-4C281.7,71,280,69.1,277.7,69.1L277.7,69.1z"/>
	<path class="st6" d="M309,50.7c0-0.4-0.2-0.5-0.2-0.8c-0.2-0.4-0.2-0.5-0.4-0.6c-0.2-0.1-0.4-0.5-0.5-0.6c-1.7-1.5-4-1.5-5.7,0
		c-0.2,0.2-0.4,0.4-0.5,0.6c-0.2,0.2-0.4,0.5-0.4,0.6c-0.2,0.4-0.2,0.5-0.2,0.8c0,0.3,0,0.5-0.2,0.8c0,0.4,0,0.5,0.2,0.8
		c0,0.4,0.2,0.5,0.2,0.8c0.2,0.2,0.2,0.5,0.4,0.6c0.2,0.2,0.4,0.5,0.5,0.6c1.7,1.7,4,1.7,5.7,0l0,0c0.2-0.2,0.4-0.4,0.5-0.6
		c0.2-0.2,0.4-0.5,0.4-0.6c0.2-0.2,0.2-0.5,0.2-0.8c0-0.4,0.2-0.5,0.2-0.8C309.2,51.2,309.2,50.9,309,50.7z"/>
	<path class="st7" d="M117,218.2c-0.2-0.5-0.4-1-0.6-1.5c-0.2-0.2-0.4-0.5-0.5-0.6c-1.7-1.5-4-1.5-5.7,0c-0.2,0.2-0.4,0.4-0.5,0.6
		c-0.2,0.2-0.4,0.5-0.4,0.6c-0.2,0.4-0.2,0.5-0.2,0.8c-0.2,0.5-0.2,1.1,0,1.7c0,0.4,0.2,0.5,0.2,0.8c0.2,0.2,0.2,0.5,0.4,0.6
		c0.2,0.2,0.4,0.5,0.5,0.6c1.7,1.7,4,1.7,5.7,0l0,0c0.2-0.2,0.4-0.4,0.5-0.6c0.2-0.2,0.4-0.5,0.4-0.6c0.2-0.2,0.2-0.5,0.2-0.8
		C117,219.4,117,218.7,117,218.2z"/>
	<path class="st8" d="M344.2,381.1c-0.2-0.5-0.4-1-0.6-1.5c-0.2-0.2-0.4-0.5-0.5-0.6c-1.7-1.5-4-1.5-5.7,0c-0.2,0.2-0.4,0.4-0.5,0.6
		c-0.2,0.2-0.4,0.5-0.4,0.6c-0.2,0.4-0.2,0.5-0.2,0.8c-0.2,0.5-0.2,1.1,0,1.7c0,0.4,0.2,0.5,0.2,0.8c0.2,0.2,0.2,0.5,0.4,0.6
		c0.2,0.1,0.4,0.5,0.5,0.6c1.7,1.7,4,1.7,5.7,0l0,0c0.2-0.2,0.4-0.4,0.5-0.6c0.2-0.2,0.4-0.5,0.4-0.6c0.2-0.2,0.2-0.5,0.2-0.8
		C344.3,382.1,344.3,381.7,344.2,381.1z"/>
	<path class="st6" d="M144.1,175.2c-6.7-1.3-11.7-6.5-13.1-13.1c0-0.2-0.2-0.4-0.4-0.4c-0.2,0-0.2,0.2-0.4,0.4
		c-1.3,6.7-6.5,11.7-13.1,13.1c-0.2,0-0.4,0.2-0.4,0.4c0,0.2,0.2,0.2,0.4,0.4c6.7,1.3,11.7,6.5,13.1,13.1c0,0.2,0.2,0.4,0.4,0.4
		s0.2-0.2,0.4-0.4c1.3-6.7,6.5-11.7,13.1-13.1c0.2,0,0.4-0.2,0.4-0.4C144.3,175.2,144.1,175.2,144.1,175.2z"/>
	<path class="st9" d="M325.5,105.3c-6.7-1.3-11.7-6.5-13.1-13.1c0-0.2-0.2-0.4-0.4-0.4c-0.2,0-0.2,0.2-0.4,0.4
		c-1.3,6.7-6.5,11.7-13.1,13.1c-0.2,0-0.4,0.2-0.4,0.4s0.2,0.2,0.4,0.4c6.7,1.3,11.7,6.5,13.1,13.1c0,0.2,0.2,0.4,0.4,0.4
		s0.2-0.2,0.4-0.4c1.3-6.7,6.5-11.7,13.1-13.1c0.2,0,0.4-0.2,0.4-0.4C325.7,105.5,325.6,105.3,325.5,105.3z"/>
	<path class="st8" d="M236.2,74.5c-8.7-7.6-21.6-6.8-29.4,1.8c-3.2,3.8-5.3,8.5-5.3,13.5c0,6.2,2.6,12.2,7.4,16.3
		c19.9,17.1,34.7,40.2,44.3,68.6c0.4,1,1,1.8,1.9,2.3c11.9,6.5,23.8,13.2,30.8,17.3c10.1,5.5,17.4,15,20.3,26.1
		c0.6,2.1,2.8,3.4,5.1,2.9c1.9-0.5,3.1-2.3,3.1-4.2C309.6,147.4,258,94,236.2,74.5z M289.7,187.1c-6.8-3.9-18-10.3-29.5-16.6
		c-9.9-29-25.6-52.8-46.1-70.5c-2.9-2.5-4.6-6.2-4.6-9.9c0.2-7,5.9-12.5,12.9-12.5c3.1,0,6,1.1,8.1,3.2
		c18.9,16.9,60.6,59.7,72.6,117.2C299.2,193.5,294.8,189.9,289.7,187.1L289.7,187.1z"/>
	<path class="st8" d="M260.6,171.5c-5.3-15.5-12.4-30.1-21.6-43.6c-0.2-0.4-0.5-0.6-0.8-1c-11-8.5-22.5-15.9-34.5-22.7
		c-10.1-5.5-22.7-1.9-28.4,8.1c-2.5,4.4-3.2,9.5-2.1,14.4c1.3,6,5.3,11.2,10.8,14.2c7.6,4,15,8.9,21.6,14.4c0.8,0.6,1.8,1,2.8,1
		c3.4-0.2,6.8,0.5,9.9,1.9c8.8,3.9,21.2,10.3,36.6,18.8c1.9,1.1,4.4,0.4,5.5-1.7C261.2,174.1,261.2,172.6,260.6,171.5L260.6,171.5z
		 M221.6,150.6c-3.8-1.7-7.8-2.6-12.1-2.6c-6.8-5.3-14.2-10.3-21.8-14.4c-3.4-1.8-5.9-5.1-6.7-8.8c-1.5-6.8,2.9-13.5,9.8-15
		c2.9-0.6,6-0.2,8.7,1.3c11.6,6.4,22.5,13.7,32.9,21.6c6.7,9.9,12.4,20.5,16.8,31.6C238.1,158.4,228.8,153.8,221.6,150.6
		L221.6,150.6z"/>
	<path class="st8" d="M312.1,258.5c-29,0-52.5,23.5-52.5,52.5s23.5,52.5,52.5,52.5s52.5-23.5,52.5-52.5l0,0
		C364.7,282,341.1,258.5,312.1,258.5z M312.1,355.4c-24.4,0-44.3-19.9-44.3-44.3s19.9-44.3,44.3-44.3s44.3,19.9,44.3,44.3l0,0
		C356.6,335.6,336.7,355.4,312.1,355.4z"/>
	<path class="st8" d="M279,340.6c-5.3-5.9-8.8-12.9-10.3-20.5c-0.4-1.9-2.1-3.2-3.9-3.2h-74.1c-4.4,0-8,3.6-8,8v18.4
		c0,2.3,1.8,4,4,4h89.3c2.3,0,4-1.8,4-4C280,342.2,279.6,341.3,279,340.6L279,340.6z M190.7,339.1v-14.2h70.9
		c1.5,5.1,3.6,9.8,6.4,14.2H190.7z"/>
	<path class="st8" d="M308.5,355.3c-11.4-1-21.8-6.2-29.5-14.6c-0.8-0.8-1.9-1.3-3.1-1.3h-93.1c-4.4,0-8,3.6-8,8v109.4
		c0,4.4,3.6,8,8,8h121.3c4.4,0,8-3.6,8-8v-97.3C312.2,357.2,310.6,355.4,308.5,355.3z M183,456.6l-0.2-109.2H274
		c8,8.3,18.4,13.8,29.8,15.7l0.2,93.5L183,456.6L183,456.6z"/>
	<path class="st8" d="M314.1,218.2c-3.4-13.2-12.2-24.4-24.3-31.1c-1.8-1-44-25.6-68.1-36.4c-11.2-5.1-24.4-2.8-33.6,5.7l-26.9,25.4
		c-7.2,6.8-8.7,17.6-3.4,26.1c-2.9-0.2-5.7,0.4-8.5,1.7c-6.7,2.9-10.3,10.1-8.9,17.3l7.5,40.6c1.1,6.4,4.9,12.1,10.4,15.7
		c29.8,19.4,33.1,33.1,33.1,37.9c0,2.3,1.8,4,4,4h69.1c2.3,0,4-1.8,4-4c0-0.4,0-0.5-0.2-0.8c-5.1-23.9,10.4-47.6,34.3-52.7
		c1.5-0.4,2.6-1.3,3.1-2.8c1.7-5.3,3.4-10.3,5.7-15.2C316,239.5,316.8,228.7,314.1,218.2z M304.4,246.1c-1.9,4.6-3.8,9.1-5.3,13.8
		c-25.4,6.5-42.1,30.7-39.3,56.7h-60.5c-3.1-16.8-23.8-32.6-36.5-40.7c-3.6-2.3-6-6-6.8-10.3l-7.5-40.6c-0.6-3.4,1.1-6.8,4.2-8.3
		c2.3-1.1,5.1-1.3,7.4-0.2c5.7,2.5,11.7,11.7,16.3,25.1c2.6,7.5,8.3,11.9,15.2,16.6l14.6,9.9c6.2,4.2,13.8,5.9,21.2,4.4
		c7.5-1.7,14.2-6.2,18.2-12.5c1.7-2.6,1.8-2.9,2.6-4l0.2-0.2l0,0l1.8-2.8c0,0,0-0.2,0.2-0.2c13.5-23-3.8-36.5-4.9-37.3l-0.2-0.2
		c-11.4-7.8-23.5-19.9-27.5-23.9c-4.4-4.4-11.2-4.9-16.1-1.1l-0.2,0.2L183,206.6c-5.5,4.2-13.5,3.1-17.6-2.5
		c-3.9-5.3-3.2-12.4,1.5-16.8l26.9-25.2c6.5-6.2,16.3-7.8,24.6-4.2c23.7,10.6,65.6,35,67.3,36C309,207.6,310.6,232.7,304.4,246.1
		L304.4,246.1z M173.3,217.5c5.3,0.5,10.6-1,14.8-4.2l0.2-0.2l18.4-16.1c1.7-1.1,3.9-1,5.3,0.5c7.2,7.2,17.8,17.6,28.5,25
		c1.3,1,12.5,9.9,2.8,26.5c-0.5,0.8-1,1.5-1.3,2.1c-0.2,0.2-0.2,0.2-0.4,0.4c-1,1.3-1.3,1.8-2.9,4.4c-2.9,4.6-7.6,7.8-13.1,8.9
		c-5.3,1-10.6,0-15-3.1l-14.6-9.9c-5.7-4-10.3-7.5-12.1-12.7C181.6,231.4,178,224.2,173.3,217.5z"/>
	<path class="st8" d="M340.8,289.4c-4.7-4.7-12.5-4.7-17.3,0l-20.2,20.2l-4.2-4.6c-4.6-5.1-12.2-5.3-17.3-0.8s-5.3,12.2-0.8,17.3
		l0,0l12.9,14l0,0c2.3,2.5,5.3,3.9,8.8,3.9h0.4c3.2,0,6.4-1.3,8.7-3.6l29.2-29.2C345.4,301.8,345.4,294.1,340.8,289.4L340.8,289.4z
		 M334.9,300.8L305.8,330c-0.8,0.8-1.8,1.3-2.9,1.1c-1.1,0-2.1-0.5-2.9-1.3l0,0l-12.9-14c-1.5-1.7-1.5-4.2,0.4-5.7
		c1.7-1.5,4.2-1.5,5.7,0.4l7.2,7.8c1.5,1.7,4,1.8,5.7,0.4l0.2-0.2l23.1-23.1c1.7-1.5,4-1.5,5.7,0
		C336.5,296.8,336.5,299.4,334.9,300.8L334.9,300.8z"/>
</g>
</svg>
