<?xml version="1.0" encoding="utf-8"?>
<!-- Generator: Adobe Illustrator 19.0.0, SVG Export Plug-In . SVG Version: 6.00 Build 0)  -->
<svg version="1.1" id="Capa_1" xmlns="http://www.w3.org/2000/svg" xmlns:xlink="http://www.w3.org/1999/xlink" x="0px" y="0px"
	 viewBox="0 0 512 512" style="enable-background:new 0 0 512 512;" xml:space="preserve">
<style type="text/css">
	.st0{fill:#FFFFFF;}
	.st1{fill:#6CE800;}
	.st2{fill:#BA7820;}
	.st3{fill:#003CFC;}
	.st4{fill:#110059;}
	.st5{fill:#0B0230;}
	.st6{font-family:'Lato-Bold';}
	.st7{font-size:105.9751px;}
</style>
<circle id="XMLID_1_" class="st0" cx="255.3" cy="254.7" r="254.3"/>
<g>
	<polygon class="st1" points="329.3,67.9 110.4,67.9 110.4,444.1 401.6,444.1 401.6,140.2 	"/>
	<path class="st2" d="M401.6,140.2l-72.3-72.3h-18.2v87.5c0,1.7,1.4,3,3,3h87.5L401.6,140.2L401.6,140.2z"/>
	<polygon class="st1" points="329.3,140.2 401.6,140.2 329.3,67.9 	"/>
	<rect x="152.8" y="310.6" class="st3" width="97.1" height="72.8"/>
	<path class="st4" d="M401.6,189.2c3.2,0,5.7-2.6,5.7-5.7v-43.3c0-1.5-0.6-3-1.7-4l-72.3-72.3c-1.1-1.1-2.5-1.7-4-1.7h-219
		c-3.2,0-5.7,2.6-5.7,5.7v376.2c0,3.2,2.6,5.7,5.7,5.7h291.3c3.2,0,5.7-2.6,5.7-5.7V210.7c0-3.2-2.6-5.7-5.7-5.7
		c-3.1,0-5.7,2.6-5.7,5.7v227.7H116V73.6h207.6v66.6c0,3.2,2.6,5.7,5.7,5.7h66.6v37.5C396,186.6,398.5,189.2,401.6,189.2z M335,81.7
		l52.9,52.9H335V81.7z"/>
	<path class="st5" d="M147.1,310.6v72.8c0,3.2,2.6,5.7,5.7,5.7h97.1c3.2,0,5.7-2.6,5.7-5.7v-72.8c0-3.2-2.6-5.7-5.7-5.7h-97.1
		C149.7,304.9,147.1,307.5,147.1,310.6z M158.5,316.3h85.7v61.5h-85.7V316.3z"/>
	<path class="st5" d="M359.2,304.9h-78.9c-3.2,0-5.7,2.6-5.7,5.7c0,3.1,2.6,5.7,5.7,5.7h78.9c3.2,0,5.7-2.6,5.7-5.7
		C364.9,307.5,362.3,304.9,359.2,304.9z"/>
	<path class="st5" d="M359.2,341.3h-78.9c-3.2,0-5.7,2.6-5.7,5.7c0,3.1,2.6,5.7,5.7,5.7h78.9c3.2,0,5.7-2.6,5.7-5.7
		C364.9,343.9,362.3,341.3,359.2,341.3z"/>
	<path class="st5" d="M359.2,377.7h-78.9c-3.2,0-5.7,2.6-5.7,5.7c0,3.1,2.6,5.7,5.7,5.7h78.9c3.2,0,5.7-2.6,5.7-5.7
		C364.9,380.3,362.3,377.7,359.2,377.7z"/>
	<text transform="matrix(1 0 0 1 188.8428 262.0557)" class="st5 st6 st7">$</text>
	<text transform="matrix(1 0 0 1 253.1851 262.0557)" class="st5 st6 st7">$</text>
</g>
</svg>
