<?xml version="1.0" encoding="utf-8"?>
<!-- Generator: Adobe Illustrator 24.0.1, SVG Export Plug-In . SVG Version: 6.00 Build 0)  -->
<svg version="1.1" id="Layer_1" xmlns="http://www.w3.org/2000/svg" xmlns:xlink="http://www.w3.org/1999/xlink" x="0px" y="0px"
	 viewBox="0 0 20 20" style="enable-background:new 0 0 20 20;" xml:space="preserve">
<g>
	<g>
		<path d="M17.3,2h-0.9V0.5h-1.5V2H5.1V0.5H3.6V2H2.7C1.5,2,0.5,3,0.5,4.2v13.1c0,1.2,1,2.2,2.2,2.2h14.5c1.2,0,2.2-1,2.2-2.2V4.2
			C19.5,3,18.5,2,17.3,2z M18,17.3c0,0.4-0.3,0.7-0.7,0.7H2.7C2.3,18,2,17.7,2,17.3V7.5h16V17.3z M18,6H2V4.2c0-0.4,0.3-0.7,0.7-0.7
			h0.9V5h1.5V3.5h9.8V5h1.5V3.5h0.9c0.4,0,0.7,0.3,0.7,0.7V6z"/>
	</g>
</g>
<g>
	<g>
		<rect x="3.3" y="9" width="1.5" height="1.5"/>
	</g>
</g>
<g>
	<g>
		<rect x="6.3" y="9" width="1.5" height="1.5"/>
	</g>
</g>
<g>
	<g>
		<rect x="9.3" y="9" width="1.5" height="1.5"/>
	</g>
</g>
<g>
	<g>
		<rect x="12.2" y="9" width="1.5" height="1.5"/>
	</g>
</g>
<g>
	<g>
		<rect x="15.2" y="9" width="1.5" height="1.5"/>
	</g>
</g>
<g>
	<g>
		<rect x="3.3" y="12" width="1.5" height="1.5"/>
	</g>
</g>
<g>
	<g>
		<rect x="6.3" y="12" width="1.5" height="1.5"/>
	</g>
</g>
<g>
	<g>
		<rect x="9.3" y="12" width="1.5" height="1.5"/>
	</g>
</g>
<g>
	<g>
		<rect x="12.2" y="12" width="1.5" height="1.5"/>
	</g>
</g>
<g>
	<g>
		<rect x="3.3" y="15" width="1.5" height="1.5"/>
	</g>
</g>
<g>
	<g>
		<rect x="6.3" y="15" width="1.5" height="1.5"/>
	</g>
</g>
<g>
	<g>
		<rect x="9.3" y="15" width="1.5" height="1.5"/>
	</g>
</g>
<g>
	<g>
		<rect x="12.2" y="15" width="1.5" height="1.5"/>
	</g>
</g>
<g>
	<g>
		<rect x="15.2" y="12" width="1.5" height="1.5"/>
	</g>
</g>
</svg>
