<?xml version="1.0" encoding="utf-8"?>
<!-- Generator: Adobe Illustrator 19.0.0, SVG Export Plug-In . SVG Version: 6.00 Build 0)  -->
<svg version="1.1" id="Layer_1" xmlns="http://www.w3.org/2000/svg" xmlns:xlink="http://www.w3.org/1999/xlink" x="0px" y="0px"
	 viewBox="0 0 500 500" style="enable-background:new 0 0 500 500;" xml:space="preserve">
<style type="text/css">
	.st0{fill:#FFFFFF;}
	.st1{fill:#FDF495;}
	.st2{fill:#4069B2;}
	.st3{fill:#FECF0E;}
	.st4{fill:#FBB01A;}
	.st5{fill:#FDCE0F;}
	.st6{fill:#FAF7C8;}
	.st7{fill:#D3E6F7;}
</style>
<g id="XMLID_2_">
	<path id="XMLID_71_" class="st0" d="M7.9,268.1c0-12.4,0-24.8,0-37.2c1.2-0.7,0.9-1.9,1-3c1.3-12.1,3.2-24.2,6.2-36
		c14-54.8,43.5-99.6,88.1-134.3c31.7-24.7,67.6-40.3,107.3-47.2c7.4-1.3,15.1-1.3,22.3-3.5c12.1,0,24.1,0,36.2,0
		c6.2,1.8,12.8,1.7,19.1,2.7c47.9,7.3,90,27.1,126.1,59.3c37.2,33.3,62.1,74.3,74.3,122.8c3.4,13.5,6.1,27.2,6.2,41.2
		c-2.3-0.4-3.4-2.3-4.8-3.7c-30-29.9-59.9-59.9-89.9-89.8c-1.3-1.3-2.8-2.5-4.2-3.8c-1.6-1.6-3.6-0.9-5.4-0.9
		c-17.3-0.1-34.6-0.1-51.9-0.2c-5.2-5.3-10.3-10.7-15.5-15.9c-2.2-2.2-3.8-5.1-7.1-6c-1.6-1.5-3.6-1.6-5.5-1.9
		c-5.5-0.8-11-1.7-16.5-2.5c-3.9-5.9-9.4-10.2-14.3-15.1c-8.5-8.5-16.6-17.4-25.8-25.3c-1-0.1-0.5-1.9-1.8-1.7c-1.3,0.6-1.4,1.9-2,3
		c-5.4,10.9-10.9,21.8-16.2,32.7c-1.3,2.8-3,3.8-6.1,4.2c-13.1,1.7-26.2,3.8-40.7,5.9c8.3,8,15.7,15.2,23.2,22.5
		c-2.2,0-4.4,0.1-6.7,0.1c-30.3,0-60.6,0-90.8,0c-2.8,0-4.8,0-4.8,3.9c0.2,19.7,0.1,39.3,0.2,59c-14,2.2-28.1,4.5-41.2,6.5
		c8.6,9.1,17,18.4,25.9,27.2c3.4,3.3,4,6.4,3.2,10.8c-2.3,12.4-4.2,24.9-6.2,37.4c5.5,6.6,11.7,12.5,18.1,18.2
		c0,19.9,0.1,39.8,0.1,59.7c0,2-0.3,4.1,0.9,6c1.2,1.4,2.4,2.9,3.8,4.3c40.7,40.7,81.4,81.4,122.1,122.1c1.5,1.5,3.7,2.7,3.8,5.2
		c-1.9,0-3.8,0-5.7,0c-0.9-1.3-2.3-0.8-3.5-1c-7.5-1-15.1-1.7-22.6-3.2c-56.1-11-103.1-38.1-140.4-81.5c-30.3-35.3-48.8-76-55.9-122
		C9.6,280.8,9.7,274.3,7.9,268.1z"/>
	<path id="XMLID_70_" class="st1" d="M238.6,495c-0.1-2.6-2.3-3.7-3.8-5.2c-40.7-40.7-81.4-81.4-122.1-122.1
		c-1.3-1.3-2.5-2.8-3.8-4.3c28.4,0,56.8,0,85.3-0.2c2.9,0,4.2,1.5,5.7,3.5c16.4,22.4,32.9,44.8,49.1,67.3c2.6,3.7,3.7,3.2,6.1-0.1
		c16.3-22.5,32.8-44.8,49-67.3c1.8-2.5,3.7-3.3,6.7-3.3c26.5,0.1,53,0,79.6,0.2c4.4,0,5.6-1.2,5.5-5.5c-0.2-29.2-0.1-58.4-0.1-87.6
		c5.9,3,11.8,6,18.3,9.3c-1.8-11-2.9-21.4-5.5-31.5c-2.2-8.7-1-14.9,6.2-21c8.2-6.9,14.9-15.3,22.4-23.2c-3.1-0.5-6.7-1.1-10.2-1.6
		c-10.4-1.6-20.9-3.2-31.3-4.9c0.1-20.6,0.1-41.2,0.2-61.9c1.4,1.3,2.9,2.5,4.2,3.8c30,29.9,59.9,59.9,89.9,89.8
		c1.4,1.4,2.6,3.3,4.8,3.7c0.4,0.6,0.8,1.2,1.1,1.8c0,12.1,0,24.1,0,36.2c-1.1,0.5-0.8,1.6-1,2.5c-1,7.7-1.7,15.5-3.2,23
		c-12,60.3-42.2,109.6-90.5,147.4c-33.2,26-70.9,42-112.7,48.4c-5.9,0.9-11.9,0.7-17.6,2.6C260.2,495,249.4,495,238.6,495z"/>
	<path id="XMLID_62_" class="st2" d="M395.9,135.6c-0.1,20.6-0.1,41.2-0.2,61.9c-2.5,0.1-2.4-2.2-3.1-3.6c-6-12-11.9-24-18.2-36.6
		c-6.1,12.2-12,23.8-17.5,35.5c-1.7,3.7-3.9,5.2-7.7,5.6c-11.9,1.5-23.9,3.3-35.8,5c-0.8,0.1-1.9,0.1-1.7,0.7
		c9.3,9.3,18.3,18.9,27.5,28.4c2,2,2.9,3.8,2.3,6.6c-1.3,6.7-2.4,13.4-3.5,20.1c-1.1,6.6-2.2,13.2-3.4,20.5
		c9.2-4.8,18.1-8.6,25.9-13.8c9.5-6.4,18.1-7.6,27.3-0.1c2.3,1.9,5.2,2.9,7.9,4.3c0,29.2-0.1,58.4,0.1,87.6c0,4.4-1.2,5.6-5.5,5.5
		c-26.5-0.2-53-0.1-79.6-0.2c-3,0-4.9,0.8-6.7,3.3c-16.3,22.5-32.8,44.8-49,67.3c-2.4,3.3-3.5,3.7-6.1,0.1
		c-16.2-22.5-32.7-44.9-49.1-67.3c-1.5-2-2.8-3.5-5.7-3.5c-28.4,0.1-56.8,0.1-85.3,0.2c-1.2-1.9-0.8-4-0.9-6
		c-0.1-19.9-0.1-39.8-0.1-59.7c0-9.1,0.1-18.3,0.1-27.4c6-3.2,12.1-6.3,18-9.7c2.3-1.3,4.3-1.3,6.6-0.1c7.5,4.1,15.1,8.1,22.6,12
		c4.4,2.3,8.8,4.5,13.5,6.9c0-1.3,0.1-1.9,0-2.5c-2.1-12-4.1-24-6.4-36c-0.7-3.7-0.1-6.4,2.9-9.2c8.4-7.8,16.4-15.9,24.5-23.9
		c1-1,2.7-1.7,2.8-3.7c-0.6-0.2-1.2-0.5-1.8-0.6c-11.9-1.7-23.8-3.5-35.7-5c-3.9-0.5-6.6-1.5-8.2-5.6c-2.3-5.9-5.5-11.4-8.3-17.1
		c-3-6-5.9-11.9-9.2-18.5c-6.3,12.7-12.1,24.6-18.1,36.5c-0.7,1.4-0.6,3.7-3.1,3.6c0-19.7,0-39.3-0.2-59c0-3.9,2-3.9,4.8-3.9
		c30.3,0,60.6,0,90.8,0c2.2,0,4.4,0,6.7-0.1c6.3,4.5,10.6,9.1,8,18.3c-3,11-4.1,22.5-6.2,34.7c13.8-7.2,26.8-13.9,39.8-20.7
		c13.1,6.9,26.1,13.7,39.9,21c-2.4-14.4-4.6-27.9-7-41.3c-0.4-2.1-0.3-3.6,1.3-5c2.6-2.3,5.1-4.7,7.6-7.1c14.9,0,29.8,0,44.8,0
		c17.3,0.1,34.6,0.1,51.9,0.2C392.3,134.7,394.3,134,395.9,135.6z M251.9,192.8c-17.7-0.2-32.1,14-32.3,31.7
		c-0.2,17.9,14,32,32.3,32.3c2.2,1.4,4.3,0,6.4-0.3c15.9-2.4,27.8-18.8,26-35.5C282.5,204.8,268,192,251.9,192.8z M251.9,322.2
		c19.1,0.1,38.1,0.1,57.2,0.3c3,0,3.2-1.2,3.1-3.7c-0.4-10.9-3.7-20.9-9.9-29.7c-12.2-17.4-28.6-27.2-50.4-26.8
		c-4.1-0.3-8.2,0.2-12.3,1c-25.7,4.9-47.2,29.5-47.8,55c-0.1,2.2-0.6,4.2,3.1,4.2C213.9,322.2,232.9,322.3,251.9,322.2z"/>
	<path id="XMLID_61_" class="st3" d="M108.2,197.5c2.5,0,2.4-2.3,3.1-3.6c6-11.9,11.8-23.8,18.1-36.5c3.3,6.6,6.2,12.6,9.2,18.5
		c2.8,5.7,6,11.2,8.3,17.1c1.6,4.1,4.4,5.1,8.2,5.6c11.9,1.5,23.8,3.3,35.7,5c0.6,0.1,1.2,0.4,1.8,0.6c-0.1,2-1.7,2.7-2.8,3.7
		c-8.1,8-16.2,16.1-24.5,23.9c-3,2.7-3.6,5.5-2.9,9.2c2.3,12,4.3,24,6.4,36c0.1,0.6,0,1.3,0,2.5c-4.7-2.4-9.1-4.6-13.5-6.9
		c-7.6-4-15.2-7.9-22.6-12c-2.3-1.3-4.3-1.3-6.6,0.1c-5.9,3.4-12,6.5-18,9.7c-6.1,3.1-12.1,6.1-18.2,9.2c2-12.5,3.9-25,6.2-37.4
		c0.8-4.4,0.2-7.5-3.2-10.8c-8.9-8.8-17.3-18.1-25.9-27.2C80.2,201.9,94.2,199.7,108.2,197.5z"/>
	<path id="XMLID_60_" class="st4" d="M293.8,134.5c-2.5,2.4-5,4.8-7.6,7.1c-1.6,1.4-1.7,2.8-1.3,5c2.4,13.4,4.6,26.9,7,41.3
		c-13.8-7.3-26.9-14.1-39.9-21c0-33.5,0-67.1,0-100.6c1.3-0.2,0.8,1.6,1.8,1.7c5.7,11.8,11.5,23.6,17.2,35.4c1,2.1,2.8,2.4,4.7,2.7
		c6.1,0.8,12.2,1.5,18.2,2.3c5.5,0.8,11,1.7,16.5,2.5c2,0.3,4,0.4,5.5,1.9C308.3,119.8,300.8,126.8,293.8,134.5z"/>
	<path id="XMLID_59_" class="st5" d="M252,66.2c0,33.5,0,67.1,0,100.6c-13,6.8-26,13.5-39.8,20.7c2.1-12.2,3.1-23.7,6.2-34.7
		c2.5-9.2-1.7-13.8-8-18.3c-7.5-7.2-15-14.5-23.2-22.5c14.5-2.2,27.6-4.2,40.7-5.9c3.1-0.4,4.8-1.5,6.1-4.2
		c5.3-11,10.7-21.8,16.2-32.7C250.5,68.2,250.6,66.8,252,66.2z"/>
	<path id="XMLID_58_" class="st1" d="M293.8,134.5c7-7.7,14.5-14.8,22.1-21.9c3.3,0.9,4.9,3.8,7.1,6c5.3,5.2,10.4,10.6,15.5,15.9
		C323.7,134.5,308.7,134.5,293.8,134.5z"/>
	<path id="XMLID_57_" class="st1" d="M293.8,108.3c-6.1-0.8-12.2-1.5-18.2-2.3c-1.9-0.3-3.7-0.6-4.7-2.7
		c-5.7-11.8-11.4-23.6-17.2-35.4c9.2,7.8,17.3,16.8,25.8,25.3C284.4,98.1,290,102.4,293.8,108.3z"/>
	<path id="XMLID_56_" class="st1" d="M89.9,279.4c6.1-3.1,12.1-6.1,18.2-9.2c0,9.1-0.1,18.3-0.1,27.4
		C101.6,291.9,95.4,286,89.9,279.4z"/>
	<path id="XMLID_55_" class="st4" d="M395.8,270.2c-2.6-1.4-5.6-2.5-7.9-4.3c-9.2-7.5-17.8-6.3-27.3,0.1c-7.8,5.2-16.7,9-25.9,13.8
		c1.2-7.3,2.3-13.9,3.4-20.5c1.1-6.7,2.2-13.4,3.5-20.1c0.6-2.9-0.4-4.6-2.3-6.6c-9.2-9.4-18.1-19.1-27.5-28.4
		c-0.3-0.6,0.8-0.6,1.7-0.7c11.9-1.7,23.8-3.5,35.8-5c3.8-0.5,6-2,7.7-5.6c5.5-11.8,11.4-23.3,17.5-35.5
		c6.2,12.6,12.1,24.6,18.2,36.6c0.7,1.4,0.6,3.7,3.1,3.6c10.4,1.6,20.9,3.2,31.3,4.9c3.6,0.6,7.1,1.1,10.2,1.6
		c-7.4,7.8-14.2,16.3-22.4,23.2c-7.2,6.1-8.5,12.2-6.2,21c2.6,10,3.6,20.5,5.5,31.5C407.7,276.2,401.8,273.2,395.8,270.2z"/>
	<path id="XMLID_54_" class="st6" d="M251.9,262.3c21.8-0.5,38.2,9.4,50.4,26.8c6.2,8.8,9.4,18.8,9.9,29.7c0.1,2.4,0,3.7-3.1,3.7
		c-19.1-0.2-38.1-0.2-57.2-0.3C251.9,302.3,251.9,282.3,251.9,262.3z"/>
	<path id="XMLID_53_" class="st7" d="M251.9,262.3c0,20,0,39.9,0,59.9c-19,0-38,0-57,0.2c-3.7,0-3.1-1.9-3.1-4.2
		c0.6-25.4,22.1-50.1,47.8-55C243.7,262.6,247.8,262,251.9,262.3z"/>
	<path id="XMLID_52_" class="st6" d="M251.9,192.8c16.1-0.7,30.6,12,32.3,28.3c1.8,16.7-10.1,33-26,35.5c-2.1,0.3-4.2,1.7-6.4,0.3
		C251.9,235.5,251.9,214.1,251.9,192.8z"/>
	<path id="XMLID_51_" class="st7" d="M251.9,192.8c0,21.4-0.1,42.7-0.1,64.1c-18.3-0.3-32.4-14.5-32.3-32.3
		C219.8,206.8,234.2,192.6,251.9,192.8z"/>
</g>
</svg>
