<?xml version="1.0" encoding="utf-8"?>
<!-- Generator: Adobe Illustrator 19.0.0, SVG Export Plug-In . SVG Version: 6.00 Build 0)  -->
<svg version="1.1" id="Layer_1" xmlns="http://www.w3.org/2000/svg" xmlns:xlink="http://www.w3.org/1999/xlink" x="0px" y="0px"
	 viewBox="0 0 512 512" style="enable-background:new 0 0 512 512;" xml:space="preserve">
<style type="text/css">
	.st0{fill:#FFFFFF;}
	.st1{fill:#FFEC00;stroke:#000000;stroke-width:7;stroke-miterlimit:10;}
	.st2{fill:#DD1919;stroke:#000000;stroke-width:5;stroke-miterlimit:10;}
	.st3{fill:#197F00;}
</style>
<circle id="XMLID_1_" class="st0" cx="255.3" cy="254.7" r="254.3"/>
<g id="XMLID_25_">
	<path id="XMLID_46_" class="st1" d="M93.7,83c46.3,0,92.5,0,138.8,0c6,2.5,10.2,6.3,10.2,13.3c0,44,0,88.1,0,132
		c0,6.3-4.1,11.4-9.8,12.8c-1.9,0.4-4,0.4-6,0.4c-42.3,0-84.5,0-126.7,0c-0.8,0-1.6,0-2.3,0c-5.8-0.1-10-2.7-12.4-8
		c-0.3-0.5-0.2-1.4-1-1.6c0-46.5,0-93,0-139.5C86.4,88.2,89.6,85.1,93.7,83z"/>
	<path id="XMLID_36_" class="st1" d="M427.7,278.1c0,46,0,92.1,0,138.2c-2.1,4.9-5.4,8.5-10.7,10c-46,0-92.1,0-138.2,0
		c-0.1-0.7-0.8-0.8-1.2-1c-5.6-2.5-8.3-6.8-8.3-12.9c0-43.6,0-87.2,0-130.7c0-8.5,5.3-13.8,13.8-13.8c43.6-0.1,87.2,0,130.7,0
		c2.9,0,5.5,0.6,8,2.1C424.8,272,426.2,275.1,427.7,278.1z M315.4,400c8.6,0,17.2,0,26,0c1.4,0,2.3-0.7,3.2-1.6
		c18.5-18.5,37-37,55.4-55.4c0.7-0.7,1.4-1.4,1.4-2.5c-0.1-8.9,0-17.8,0-26.5C372.7,342.7,344.1,371.4,315.4,400z M297.3,351
		c-1.2,1.2-1.6,2.4-1.6,4.1c0.1,7.7,0,15.4,0.1,23.2c0,0.8-0.5,1.8,0.1,2.2c28.7-28.7,57.4-57.4,86.2-86.2c-8.6,0-17.1,0.1-25.6,0
		c-1.6,0-2.7,0.4-3.8,1.5 M401.4,380.8c-6.4,6.2-13.2,12.7-19.9,19.2c5.7,0,11.6-0.1,17.5,0.1c1.9,0,2.5-0.5,2.5-2.5
		C401.3,391.8,401.4,385.9,401.4,380.8z M315.8,294.3c-6,0-12.1,0-18.1,0c-1.2,0-2.1,0-2.1,1.7c0.1,6.2,0,12.4,0,18.5
		C302.3,307.7,309,301,315.8,294.3z"/>
	<path id="XMLID_33_" class="st1" d="M84.3,417c0-46.5,0-93,0-139.5c3.6-7.9,10-9.8,18.2-9.7c41.6,0.3,83.1,0.1,124.7,0.1
		c10.7,0,15.5,4.8,15.5,15.5c0,42-0.1,84,0.1,126.1c0.1,8.2-2.5,13.9-10.3,16.9c-45.8,0-91.6,0-137.5,0
		C89.9,425,86.8,421.4,84.3,417z M110.7,363.7c11.7-5.4,22.6-4.7,31.7,4.4c9.2,9.2,9.9,20.1,4.6,31.7c11.1,0,22.1,0,33.1,0
		c-5.4-11.1-4.8-21.6,3.5-30.6c9.2-10,20.5-11.1,32.6-5.5c0-11.1,0-22.1,0-33.2c-10.9,5.3-21.3,4.9-30.4-3.2
		c-10.4-9.2-11.5-20.6-5.9-32.9c-11.1,0-22,0-33,0c5.2,11,4.8,21.4-3.3,30.4c-9.2,10.2-20.6,11.4-33,5.7
		C110.7,341.7,110.7,352.5,110.7,363.7z"/>
	<path id="XMLID_29_" class="st1" d="M427.7,231.8c-1,0.5-1,1.6-1.5,2.5c-2.5,4.3-6,6.8-11.1,7c-1,0.1-2,0.1-3,0.1
		c-42.5,0-84.9,0-127.4,0c-2,0-4.1,0.1-6-0.5c-5.7-1.6-9.5-6.5-9.5-12.7c-0.1-44-0.1-88.1,0-132.1c0-5.6,2.7-9.5,7.6-12
		c0.6-0.3,1.6-0.3,1.9-1.2c46,0,92.1,0,138.2,0c1.6,1.2,3.7,1.3,5.4,2.5c2.7,2,3.8,4.9,5.4,7.5C427.7,139.3,427.7,185.6,427.7,231.8
		z M295.6,162.4c0,16.6,0.1,33.1-0.1,49.6c0,2.6,0.8,3.1,3.2,3.1c33.2-0.1,66.4-0.1,99.6,0c2.5,0,3.2-0.6,3.1-3.2
		c-0.1-33.2-0.1-66.4,0-99.6c0-2.5-0.8-3.2-3.2-3.1c-33.2,0.1-66.4,0.1-99.6,0c-2.6,0-3.1,0.8-3.1,3.2
		C295.7,129.1,295.6,145.7,295.6,162.4z"/>
	<path id="XMLID_26_" class="st2" d="M163.4,367c-11.1,0-19.9-8.9-19.8-20c0.1-11,9-19.9,20-19.9c11.1,0.1,19.9,9.1,19.9,20.1
		C183.4,358.2,174.6,367,163.4,367z"/>
</g>
<rect id="XMLID_24_" x="295.6" y="110.5" class="st3" width="99.1" height="97.3"/>
</svg>
