<?xml version="1.0" encoding="utf-8"?>
<!-- Generator: Adobe Illustrator 19.0.0, SVG Export Plug-In . SVG Version: 6.00 Build 0)  -->
<svg version="1.1" id="Layer_1" xmlns="http://www.w3.org/2000/svg" xmlns:xlink="http://www.w3.org/1999/xlink" x="0px" y="0px"
	 viewBox="0 0 512 512" style="enable-background:new 0 0 512 512;" xml:space="preserve">
<style type="text/css">
	.st0{fill:#FFFFFF;}
	.st1{fill:#F6EC13;}
	.st2{fill:#E59900;}
	.st3{fill:#FCDCDD;}
	.st4{fill:#A2CD6E;}
	.st5{fill:#FECE3C;}
	.st6{fill:#010101;}
	.st7{fill:#FEF6E3;}
	.st8{fill:#E7C8C8;}
	.st9{fill:#081434;}
</style>
<circle id="XMLID_4_" class="st0" cx="255.3" cy="254.7" r="254.3"/>
<g id="XMLID_2_">
	<g>
		<g>
			<path id="XMLID_34_" class="st1" d="M328.5,89c0-3.1-2.5-5.6-5.6-5.6H89c-3.1,0-5.6,2.5-5.6,5.6v334c0,3.1,2.5,5.6,5.6,5.6h233.8
				c3.1,0,5.6-2.5,5.6-5.6L328.5,89z"/>
		</g>
		<g>
			<path id="XMLID_33_" class="st2" d="M306.1,121.3c0-2.5-2-4.5-4.6-4.5H110.3c-2.5,0-4.6,2-4.6,4.5v269.4c0,2.5,2,4.5,4.6,4.5
				h191.2c2.5,0,4.6-2,4.6-4.5L306.1,121.3z"/>
		</g>
		<g>
			<path id="XMLID_32_" class="st3" d="M217.1,256h-22.2c-12.3,0-22.2-10-22.2-22.2v-50.1c0-12.3,10-22.2,22.2-22.2h22.2
				c12.3,0,22.2,10,22.2,22.2v50.1C239.3,246,229.3,256,217.1,256z"/>
		</g>
		<g>
			<path id="XMLID_31_" class="st4" d="M239.3,205.9h-66.8v-22.2c0-12.3,10-22.2,22.2-22.2H217c12.3,0,22.2,10,22.2,22.2
				L239.3,205.9L239.3,205.9z"/>
		</g>
		<g>
			<path id="XMLID_30_" class="st5" d="M267.1,139.1H144.7c-3.1,0-5.6-2.5-5.6-5.6V83.4h133.6v50.1
				C272.7,136.6,270.2,139.1,267.1,139.1z"/>
		</g>
		<g>
			<rect id="XMLID_29_" x="161.4" y="105.7" class="st6" width="11.1" height="11.1"/>
		</g>
		<g>
			<rect id="XMLID_28_" x="239.3" y="105.7" class="st6" width="11.1" height="11.1"/>
		</g>
		<g>
			<rect id="XMLID_27_" x="200.3" y="105.7" class="st6" width="11.1" height="11.1"/>
		</g>
		<g>
			<circle id="XMLID_26_" class="st5" cx="350.6" cy="217.1" r="77.9"/>
		</g>
		<g>
			<path id="XMLID_25_" class="st7" d="M389.6,217.1c0,43.1-26.1,77.9-38.9,77.9c-12.9,0-38.9-34.9-38.9-77.9s26.1-77.9,38.9-77.9
				C363.6,139.1,389.6,174,389.6,217.1z"/>
		</g>
		<path class="st6" d="M350.6,133.6c-46.1,0-83.5,37.4-83.5,83.5s37.4,83.5,83.5,83.5s83.5-37.5,83.5-83.5S396.7,133.6,350.6,133.6z
			 M350.6,289.4c-4.7,0-15.6-10.5-23.6-27.8h47.1C366.2,278.8,355.4,289.4,350.6,289.4z M322.7,250.4c-2.8-8.3-4.7-17.7-5.3-27.8
			h66.4c-0.5,10.1-2.5,19.5-5.3,27.8H322.7z M278.5,222.6h27.7c0.5,9.8,2.2,19.2,4.7,27.8h-24.6C282.1,242,279.3,232.5,278.5,222.6z
			 M350.6,144.7c4.7,0,15.6,10.5,23.6,27.8h-47.1C335.1,155.2,345.9,144.7,350.6,144.7z M378.6,183.6c2.8,8.3,4.7,17.7,5.3,27.8
			h-66.4c0.5-10.1,2.5-19.5,5.3-27.8H378.6z M306.3,211.5h-27.7c0.8-10,3.5-19.4,8-27.8h24.6C308.5,192.3,306.8,201.7,306.3,211.5z
			 M395,222.6h27.7c-0.8,10-3.5,19.4-8,27.8h-24.6C392.8,241.8,394.4,232.4,395,222.6z M395,211.5c-0.5-9.8-2.2-19.2-4.7-27.8h24.6
			c4.4,8.4,7.2,17.9,8,27.8H395z M407.5,172.5h-21.3c-4-9.7-8.9-18-14.1-24.5C386.4,152.4,398.6,161.1,407.5,172.5z M329.1,148
			c-5.2,6.5-10.1,14.9-14.1,24.5h-21.3C302.7,161.1,314.9,152.4,329.1,148z M293.7,261.6H315c4,9.7,8.9,18,14.1,24.5
			C314.9,281.7,302.7,273,293.7,261.6z M372.2,286.1c5.2-6.5,10.1-14.9,14.1-24.5h21.3C398.6,273,386.4,281.7,372.2,286.1z"/>
	</g>
	<g>
		<g>
			<g>
				<g>
					<path id="XMLID_11_" class="st4" d="M239.3,278.6l-33.4,22.2l-33.4-22.2l-30.5,14.5c-8.4,3.4-14,11.6-14,20.7v81.4l155.9,0.3
						v-80.4c0-8.9-5.3-16.8-13.3-20.4L239.3,278.6z"/>
				</g>
				<g>
					<polygon id="XMLID_10_" class="st8" points="189.2,256 172.5,278.2 205.9,300.5 239.3,278.2 222.6,256 					"/>
				</g>
			</g>
			<g>
				<rect id="XMLID_9_" x="200.3" y="339.5" class="st6" width="11.1" height="33.4"/>
			</g>
			<path class="st9" d="M333.9,122.4l0.1-33.4c0-3-1.1-5.8-3.2-7.9c-2.1-2.2-4.9-3.3-7.9-3.3H89c-6.2,0-11.1,5-11.1,11.1v334
				c0,6.2,5,11.1,11.1,11.1h233.8c6.2,0,11.1-5,11.1-11.1V311.7h-11.1V423H89V89h44.5v22.2h-27.8c-3.1,0-5.6,2.5-5.6,5.6v278.3
				c0,3.1,2.5,5.6,5.6,5.6l178.1,0.3l0,0c0.5,0,22.2-0.3,22.2-0.3c3.1,0,5.6-2.5,5.6-5.6v-94.6h-11.1v89.1h-11.1v-74.5
				c0-11-6.5-21-16.4-25.3l-29.7-15.3l-12.5-16.7c8.3-4.8,14-13.7,14-24v-50.1c0-15.3-12.5-27.8-27.8-27.8h-22.2
				c-15.3,0-27.8,12.5-27.8,27.8v50.1c0,10.3,5.7,19.2,14,24l-12.4,16.6l-28.6,13.6c-10.6,4.3-17.5,14.4-17.5,25.9v75.8h-11.1V122.4
				h22.2v11.1c0,6.2,5,11.1,11.1,11.1H267c6.2,0,11.1-5,11.1-11.1v-11.1h22.2v11.1h11.1v-16.8c0-3.1-2.5-5.6-5.6-5.6h-27.8V89h44.7
				l-0.1,33.4L333.9,122.4z M178.1,183.6c0-9.2,7.5-16.7,16.7-16.7H217c9.2,0,16.7,7.5,16.7,16.7v16.7H217
				c-9.2,0-16.7-7.5-16.7-16.7v-5.6h-11.1v5.6c0,15.3,12.5,27.8,27.8,27.8h16.7v22.2c0,9.2-7.5,16.7-16.7,16.7h-22.2
				c-9.2,0-16.7-7.5-16.7-16.7V183.6z M192,261.6h2.8H217h2.8l11.5,15.3l-25.4,16.9l-25.4-16.9L192,261.6z M133.6,313.7
				c0-6.8,4.1-12.9,10.8-15.6l27.7-13.2l30.7,20.5c1.9,1.3,4.3,1.3,6.2,0l30.7-20.4l28.6,14.7c6.1,2.6,10,8.6,10,15.3v74.5H133.6
				V313.7z M144.7,133.6V89h122.4v44.5L144.7,133.6L144.7,133.6z"/>
		</g>
	</g>
	<g>
		<rect id="XMLID_3_" x="200.3" y="317.3" class="st6" width="11.1" height="11.1"/>
	</g>
</g>
</svg>
