<?xml version="1.0" encoding="utf-8"?>
<!-- Generator: Adobe Illustrator 19.0.0, SVG Export Plug-In . SVG Version: 6.00 Build 0)  -->
<svg version="1.1" id="Layer_1" xmlns="http://www.w3.org/2000/svg" xmlns:xlink="http://www.w3.org/1999/xlink" x="0px" y="0px"
	 viewBox="-99 1 512 512" style="enable-background:new -99 1 512 512;" xml:space="preserve">
<style type="text/css">
	.st0{fill:#FFFFFF;}
	.st1{fill:#010101;}
	.st2{fill:#0294BB;}
	.st3{fill:#88BF40;}
	.st4{fill:url(#XMLID_24_);}
	.st5{fill:url(#XMLID_25_);}
	.st6{fill:#7FCCE5;}
</style>
<circle id="XMLID_22_" class="st0" cx="157.3" cy="257.7" r="254.3"/>
<path id="XMLID_2_" class="st1" d="M45.1,458.8c4.1,2.8,8.4,5.5,12.7,8l7.1-12.1c-4-2.3-8-4.9-11.8-7.5L45.1,458.8z"/>
<g>
	<path id="XMLID_35_" class="st2" d="M338.1,285c-0.1,96.5-78.4,174.7-174.9,174.6c-96.5-0.1-174.7-78.4-174.6-174.9
		c0.1-96.5,78.4-174.7,174.9-174.6c18.4,0,36.7,2.9,54.1,8.6C289.6,142,338.4,209.3,338.1,285z"/>
	<g id="XMLID_70_">
		<path id="XMLID_34_" class="st3" d="M86.1,292.1L79.1,341l-20.9,14l-6.9,20.9l-24.6,18.5c-43.5-54.2-50.7-128.9-18.6-190.5
			l36.1,18l34.9,28L86.1,292.1z"/>
		<path id="XMLID_33_" class="st3" d="M278.9,416.2c-59,52-145.4,58.3-211.2,15.5l32.5-48.7h42l6.9-20.9L212,355L278.9,416.2z"/>
		<path id="XMLID_32_" class="st3" d="M338.1,285c0,24.5-5.1,48.7-15,71.1l-27-43.1l-62.9-28l-6.9-62.9l-20.9-70l12.5-33.4
			C289.4,142.2,338.1,209.3,338.1,285z"/>
	</g>
	
		<linearGradient id="XMLID_24_" gradientUnits="userSpaceOnUse" x1="65.1278" y1="321.9482" x2="163.1278" y2="321.9482" gradientTransform="matrix(1 0 0 -1 0 516)">
		<stop  offset="0" style="stop-color:#D4E1F3"/>
		<stop  offset="0.1717" style="stop-color:#D4E1F3"/>
		<stop  offset="0.2" style="stop-color:#D4E1F3"/>
		<stop  offset="0.2001" style="stop-color:#DAE4F4"/>
		<stop  offset="0.2007" style="stop-color:#EBEAF3"/>
		<stop  offset="0.2014" style="stop-color:#F6F1F4"/>
		<stop  offset="0.2023" style="stop-color:#FEF4F4"/>
		<stop  offset="0.205" style="stop-color:#FEF5F4"/>
		<stop  offset="0.2522" style="stop-color:#FEF5F4"/>
		<stop  offset="0.26" style="stop-color:#FEF5F4"/>
		<stop  offset="0.26" style="stop-color:#D4E1F3"/>
		<stop  offset="0.3974" style="stop-color:#D4E1F3"/>
		<stop  offset="0.42" style="stop-color:#D4E1F3"/>
		<stop  offset="0.4201" style="stop-color:#DAE4F4"/>
		<stop  offset="0.4207" style="stop-color:#EBEAF3"/>
		<stop  offset="0.4214" style="stop-color:#F6F1F4"/>
		<stop  offset="0.4223" style="stop-color:#FEF4F4"/>
		<stop  offset="0.425" style="stop-color:#FEF5F4"/>
		<stop  offset="0.4894" style="stop-color:#FEF5F4"/>
		<stop  offset="0.5" style="stop-color:#FEF5F4"/>
		<stop  offset="0.5" style="stop-color:#F8F1F4"/>
		<stop  offset="0.5001" style="stop-color:#E8EBF3"/>
		<stop  offset="0.5003" style="stop-color:#DDE5F4"/>
		<stop  offset="0.5005" style="stop-color:#D6E2F3"/>
		<stop  offset="0.501" style="stop-color:#D4E1F3"/>
		<stop  offset="0.7062" style="stop-color:#D4E1F3"/>
		<stop  offset="0.74" style="stop-color:#D4E1F3"/>
		<stop  offset="0.741" style="stop-color:#FEF5F4"/>
		<stop  offset="0.8346" style="stop-color:#FEF5F4"/>
		<stop  offset="0.85" style="stop-color:#FEF5F4"/>
		<stop  offset="0.851" style="stop-color:#D4E1F3"/>
	</linearGradient>
	<path id="XMLID_31_" class="st4" d="M65.1,68.1h98v252h-98C65.1,320.1,65.1,68.1,65.1,68.1z"/>
	
		<linearGradient id="XMLID_25_" gradientUnits="userSpaceOnUse" x1="135.1278" y1="262.5259" x2="261.1278" y2="262.5259" gradientTransform="matrix(1 0 0 -1 0 516)">
		<stop  offset="0" style="stop-color:#D4E1F3"/>
		<stop  offset="0.1717" style="stop-color:#D4E1F3"/>
		<stop  offset="0.2" style="stop-color:#D4E1F3"/>
		<stop  offset="0.2001" style="stop-color:#DAE4F4"/>
		<stop  offset="0.2007" style="stop-color:#EBEAF3"/>
		<stop  offset="0.2014" style="stop-color:#F6F1F4"/>
		<stop  offset="0.2023" style="stop-color:#FEF4F4"/>
		<stop  offset="0.205" style="stop-color:#FEF5F4"/>
		<stop  offset="0.2522" style="stop-color:#FEF5F4"/>
		<stop  offset="0.26" style="stop-color:#FEF5F4"/>
		<stop  offset="0.26" style="stop-color:#D4E1F3"/>
		<stop  offset="0.3974" style="stop-color:#D4E1F3"/>
		<stop  offset="0.42" style="stop-color:#D4E1F3"/>
		<stop  offset="0.4201" style="stop-color:#DAE4F4"/>
		<stop  offset="0.4207" style="stop-color:#EBEAF3"/>
		<stop  offset="0.4214" style="stop-color:#F6F1F4"/>
		<stop  offset="0.4223" style="stop-color:#FEF4F4"/>
		<stop  offset="0.425" style="stop-color:#FEF5F4"/>
		<stop  offset="0.4894" style="stop-color:#FEF5F4"/>
		<stop  offset="0.5" style="stop-color:#FEF5F4"/>
		<stop  offset="0.5" style="stop-color:#F8F1F4"/>
		<stop  offset="0.5001" style="stop-color:#E8EBF3"/>
		<stop  offset="0.5003" style="stop-color:#DDE5F4"/>
		<stop  offset="0.5005" style="stop-color:#D6E2F3"/>
		<stop  offset="0.501" style="stop-color:#D4E1F3"/>
		<stop  offset="0.7062" style="stop-color:#D4E1F3"/>
		<stop  offset="0.74" style="stop-color:#D4E1F3"/>
		<stop  offset="0.741" style="stop-color:#FEF5F4"/>
		<stop  offset="0.8346" style="stop-color:#FEF5F4"/>
		<stop  offset="0.85" style="stop-color:#FEF5F4"/>
		<stop  offset="0.851" style="stop-color:#D4E1F3"/>
	</linearGradient>
	<path id="XMLID_30_" class="st5" d="M135.1,187h126v132.9h-126V187z"/>
	<path id="XMLID_29_" class="st6" d="M65.1,54.1h98c7.8,0,14,6.2,14,14l0,0c0,7.8-6.2,14-14,14h-98c-7.8,0-14-6.2-14-14l0,0
		C51.1,60.3,57.4,54.1,65.1,54.1z"/>
	<path id="XMLID_28_" class="st6" d="M135.1,173h126c7.8,0,14,6.2,14,14l0,0c0,7.8-6.2,14-14,14h-126c-7.8,0-14-6.2-14-14l0,0
		C121.1,179.2,127.3,173,135.1,173z"/>
	<path id="XMLID_63_" class="st1" d="M184.9,104.3l-1.7,13.9c8.5,1,16.9,2.7,25.2,5l-9.9,26.3l13.1,4.9l10.1-27
		c85.8,31.9,130.1,126.7,99.9,213.1L302,309.3c-0.7-1.1-1.9-2.1-3.1-2.7l-14-6.2l-5.7,12.8l12,5.4l23.7,38.1
		c-8.9,18.8-21.2,35.8-36.2,50.1l-62-56.8c-1.5-1.3-3.5-2-5.5-1.8l-62.9,6.9c-2.7,0.3-5,2.2-5.9,4.8l-5.4,16.2h-36.9
		c-2.4,0-4.6,1.1-5.8,3.1l-28.5,42.8c-10.7-7.6-20.4-16.5-29-26.3l18.6-13.9c1.1-0.8,2-2.1,2.5-3.4l6.2-18.8l19-12.7l-7.8-11.6
		l-20.9,14c-1.2,0.8-2.3,2.2-2.8,3.6l-6.3,19l-17.2,13C-8,336.1-15,272,9.5,216.8c0.5-1.1,1-2.3,1.6-3.3L41,228.4l6.2-12.5L17.5,201
		c8.4-14.5,19-27.7,31.2-39.1l-9.5-10.3C2.2,186-19,234.4-18.9,285c0,100.4,81.6,182,182,182s182-81.6,182-182
		C345.1,192.9,276.3,115.2,184.9,104.3L184.9,104.3z M77.5,429.5l26.3-39.5h38.3c3,0,5.7-2,6.6-4.8l5.6-16.8l55.4-6.1l58.5,53.6
		C213.7,459.8,137.6,465.2,77.5,429.5L77.5,429.5z"/>
	<path id="XMLID_58_" class="st1" d="M58.1,87.8v232.2c0,3.8,3.1,6.9,6.9,6.9h196c3.8,0,6.9-3.1,6.9-6.9V206.8
		c10.9-3.8,16.7-15.9,12.8-26.8c-3-8.4-10.9-14-19.8-14H135.1c-11.6,0-20.9,9.4-20.9,21.1c0,8.9,5.6,16.8,14,19.8V313h-56V89h84
		v62.9h14V87.8c10.9-3.8,16.7-15.9,12.8-26.8c-3-8.4-10.9-14-19.8-14h-98c-11.6,0-20.9,9.4-20.9,21.1C44.1,76.9,49.7,84.9,58.1,87.8
		z M135.1,180.1h126c3.8,0,6.9,3.1,6.9,6.9s-3.1,6.9-6.9,6.9h-126c-3.8,0-6.9-3.1-6.9-6.9S131.2,180.1,135.1,180.1z M142.1,208.1
		h112V313h-112V208.1z M65.1,61h98c3.8,0,6.9,3.1,6.9,6.9s-3.1,6.9-6.9,6.9h-98c-3.8,0-6.9-3.1-6.9-6.9S61.2,61,65.1,61z"/>
	<path id="XMLID_21_" class="st1" d="M93.1,110.1h14v14h-14V110.1z"/>
	<path id="XMLID_20_" class="st1" d="M121.1,110.1h14v14h-14V110.1z"/>
	<path id="XMLID_19_" class="st1" d="M93.1,138.1h14v14h-14V138.1z"/>
	<path id="XMLID_18_" class="st1" d="M121.1,138.1h14v14h-14V138.1z"/>
	<path id="XMLID_17_" class="st1" d="M93.1,166.1h14v14h-14V166.1z"/>
	<path id="XMLID_16_" class="st1" d="M191.1,222.1h14v14h-14V222.1z"/>
	<path id="XMLID_15_" class="st1" d="M219.1,222.1h14v14h-14V222.1z"/>
	<path id="XMLID_14_" class="st1" d="M191.1,250.1h14v14h-14V250.1z"/>
	<path id="XMLID_13_" class="st1" d="M219.1,250.1h14v14h-14V250.1z"/>
	<path id="XMLID_12_" class="st1" d="M191.1,278.1h14v14h-14V278.1z"/>
	<path id="XMLID_11_" class="st1" d="M163.1,222.1h14v14h-14V222.1z"/>
	<path id="XMLID_10_" class="st1" d="M163.1,250.1h14v14h-14V250.1z"/>
	<path id="XMLID_9_" class="st1" d="M163.1,278.1h14v14h-14V278.1z"/>
	<path id="XMLID_8_" class="st1" d="M219.1,278.1h14v14h-14V278.1z"/>
	<path id="XMLID_7_" class="st1" d="M93.1,194.1h14v14h-14V194.1z"/>
	<path id="XMLID_6_" class="st1" d="M93.1,222.1h14v14h-14V222.1z"/>
	<path id="XMLID_5_" class="st1" d="M93.1,250.1h14v14h-14V250.1z"/>
	<path id="XMLID_4_" class="st1" d="M93.1,278.1h14v14h-14V278.1z"/>
	<path id="XMLID_3_" class="st1" d="M-32.9,285c0-13.6,1.5-27.2,4.1-40.5l-13.7-2.9c-3,14.3-4.5,28.8-4.5,43.5
		c-0.1,64.2,29.2,125,79.6,164.7l8.7-11C-5.6,401.6-33.1,344.9-32.9,285z"/>
	<path id="XMLID_1_" class="st1" d="M242.8,90.7l-5.3,13c50.9,20.9,90.6,62.2,109.7,113.9l13.2-4.9
		C339.8,157.3,297.2,113.1,242.8,90.7z"/>
</g>
</svg>
