<?xml version="1.0" encoding="utf-8"?>
<!-- Generator: Adobe Illustrator 19.0.0, SVG Export Plug-In . SVG Version: 6.00 Build 0)  -->
<svg version="1.1" id="Layer_1" xmlns="http://www.w3.org/2000/svg" xmlns:xlink="http://www.w3.org/1999/xlink" x="0px" y="0px"
	 viewBox="0 0 512 512" style="enable-background:new 0 0 512 512;" xml:space="preserve">
<style type="text/css">
	.st0{fill:#FFFFFF;}
	.st1{fill:#F7CA70;}
	.st2{fill:#F6EC13;}
	.st3{fill:#EB8823;}
	.st4{fill:#0D153D;}
	.st5{fill:#77C043;}
	.st6{fill:#020202;}
</style>
<circle id="XMLID_1_" class="st0" cx="256.7" cy="256.7" r="254.3"/>
<g>
	<polyline id="XMLID_13_" class="st1" points="425.1,91.6 287.6,290.1 273.3,310.7 273.3,380.1 325.5,329.1 298.9,279.4 	"/>
	<polyline id="XMLID_12_" class="st2" points="224.8,295.9 123.9,265 427.7,85.3 427.7,358 275.7,311.5 	"/>
	<polygon id="XMLID_11_" class="st3" points="273.3,380.1 227.5,296.7 425.1,91.6 277.5,304.6 	"/>
	<path class="st4" d="M431,79.3c-2.1-1.2-4.7-1.2-7,0.1L297,154.5c-3.3,1.9-4.4,6.2-2.5,9.5c1.9,3.3,6.2,4.4,9.5,2.5l91.2-53.9
		L225.4,288.9L141,263l110.3-65.3c3.3-1.9,4.4-6.2,2.5-9.5c-1.9-3.3-6.2-4.4-9.5-2.5L120.3,259c-2.4,1.4-3.7,4.1-3.4,6.8
		c0.3,2.7,2.3,5.1,4.9,5.9l100.9,30.9l44.5,81c0.1,0.1,0.1,0.2,0.2,0.2c0.7,1.2,1.8,2.3,3.3,2.8c0.9,0.3,1.8,0.6,2.7,0.6
		c1.8,0,3.5-0.7,4.9-1.9l51.2-50l96.3,29.5c0.7,0.2,1.4,0.2,2,0.2c1.5,0,2.9-0.5,4.2-1.4c1.8-1.4,2.8-3.4,2.8-5.5V85.3
		C434.6,82.8,433.3,80.6,431,79.3z M370.5,158.3L267.6,306.8c-0.8,1.1-1.2,2.6-1.2,4v42.4L236,297.9L370.5,158.3z M280.2,363.8
		v-43.6l34,10.4L280.2,363.8z M284.4,306.9l136.4-196.7v238.4L284.4,306.9z"/>
	<path id="XMLID_7_" class="st4" d="M193.5,319.6c-2.7-2.7-7.1-2.7-9.8,0L119,384.2c-2.7,2.7-2.7,7.1,0,9.8c1.4,1.4,3.1,2,4.9,2
		s3.5-0.7,4.9-2l64.7-64.7C196.2,326.6,196.2,322.2,193.5,319.6z"/>
	<path id="XMLID_6_" class="st5" d="M97.4,405.8l-15.9,15.9c-2.7,2.7-2.7,7.1,0,9.8c1.4,1.4,3.1,2,4.9,2c1.8,0,3.5-0.7,4.9-2
		l15.9-15.9c2.7-2.7,2.7-7.1,0-9.8C104.5,403.1,100.2,403.1,97.4,405.8z"/>
	<path id="XMLID_5_" class="st5" d="M173.4,419.3c-1.8,0-3.6,0.7-4.9,2c-1.4,1.4-2,3.1-2,4.9c0,1.8,0.7,3.6,2,4.9
		c1.4,1.4,3.1,2,4.9,2c1.8,0,3.6-0.7,4.9-2c1.4-1.4,2-3.1,2-4.9c0-1.8-0.7-3.6-2-4.9C177.1,420,175.3,419.3,173.4,419.3z"/>
	<path id="XMLID_4_" class="st4" d="M220.2,369.7L186,403.9c-2.7,2.7-2.7,7.1,0,9.8c1.4,1.4,3.1,2,4.9,2c1.8,0,3.5-0.7,4.9-2
		l34.2-34.2c2.7-2.7,2.7-7.1,0-9.8C227.3,367,223,367,220.2,369.7z"/>
	<path id="XMLID_3_" class="st4" d="M338.5,367.1l-34.3,34.4c-2.7,2.7-2.7,7.1,0,9.8c1.4,1.4,3.1,2,4.9,2c1.8,0,3.5-0.7,4.9-2
		l34.3-34.3c2.7-2.7,2.7-7.1,0-9.8C345.7,364.3,341.3,364.3,338.5,367.1z"/>
	<path id="XMLID_2_" class="st6" d="M271.2,184.8c1.8,0,3.6-0.7,4.9-2c1.4-1.4,2-3.1,2-4.9c0-1.8-0.7-3.6-2-4.9
		c-1.4-1.4-3.1-2-4.9-2c-1.8,0-3.6,0.7-4.9,2c-1.4,1.4-2,3.1-2,4.9c0,1.8,0.7,3.6,2,4.9C267.6,184.1,269.3,184.8,271.2,184.8z"/>
</g>
</svg>
