<?xml version="1.0" encoding="utf-8"?>
<!-- Generator: Adobe Illustrator 19.0.0, SVG Export Plug-In . SVG Version: 6.00 Build 0)  -->
<svg version="1.1" id="Layer_1" xmlns="http://www.w3.org/2000/svg" xmlns:xlink="http://www.w3.org/1999/xlink" x="0px" y="0px"
	 viewBox="0 0 512 512" style="enable-background:new 0 0 512 512;" xml:space="preserve">
<style type="text/css">
	.st0{fill:#FFFFFF;}
	.st1{fill:#C1C106;}
	.st2{fill:#969600;}
	.st3{fill:#74757B;}
	.st4{fill:#CCD6FF;}
	.st5{fill:#606268;}
	.st6{fill:#37FC00;}
	.st7{fill:#FDDD85;}
	.st8{fill:#FDD042;}
	.st9{fill:#E1A527;}
	.st10{fill:#010B21;}
</style>
<circle id="XMLID_1_" class="st0" cx="255.3" cy="256.7" r="254.3"/>
<g>
	<polygon class="st1" points="79.9,167.4 257.5,46.9 435.1,167.4 435.1,414.9 79.9,414.9 	"/>
	<polygon class="st2" points="270.2,55.5 257.5,46.9 79.9,167.4 79.9,414.9 105.3,414.9 105.3,167.4 	"/>
	<rect id="SVGCleanerId_0" x="143.4" y="199.1" class="st3" width="228.4" height="215.7"/>
	<g>
		<rect id="SVGCleanerId_0_1_" x="143.4" y="199.1" class="st4" width="228.4" height="215.7"/>
	</g>
	<rect x="143.4" y="199.1" class="st5" width="25.4" height="215.7"/>
	<rect x="130.7" y="173.8" class="st6" width="253.8" height="25.4"/>
	<rect x="143.4" y="262.6" class="st7" width="76.1" height="76.1"/>
	<rect x="143.4" y="262.6" class="st8" width="19" height="76.1"/>
	<rect x="168.7" y="262.6" class="st9" width="25.4" height="38.1"/>
	<rect x="143.4" y="338.8" class="st7" width="76.1" height="76.1"/>
	<rect x="143.4" y="338.8" class="st8" width="19" height="76.1"/>
	<rect x="168.7" y="338.8" class="st9" width="25.4" height="38.1"/>
	<rect x="219.5" y="338.8" class="st7" width="76.1" height="76.1"/>
	<rect x="219.5" y="338.8" class="st8" width="19" height="76.1"/>
	<rect x="244.8" y="338.8" class="st9" width="25.4" height="38.1"/>
	<path class="st10" d="M438.3,162.5L260.8,42c-2-1.3-4.6-1.3-6.6,0L76.4,162.5c-1.6,1.1-2.7,3-2.7,4.9v247.4c0,3.3,3,6.3,6.3,6.3
		h355.3c3.3,0,5.6-3,5.6-6.3V167.4C440.7,165.5,439.9,163.6,438.3,162.5z M136.2,193.6v-13.5h241.9v13.5H136.2z M174.3,268.9h13.5
		v26.1h-13.5V268.9L174.3,268.9z M168.7,307h25.4c3.3,0,5.6-3,5.6-6.3v-31.7h13.5v64.2h-19h-25.5h-19.8v-64.2h13.5v31.7
		C162.4,303.9,165.4,307,168.7,307z M174.3,345.1h13.5v26.1h-13.5V345.1L174.3,345.1z M148.9,345.1h13.5v31.7c0,3.3,3,6.3,6.3,6.3
		h25.4c3.3,0,5.6-3,5.6-6.3v-31.7h13.5v64.2h-64.3V345.1L148.9,345.1z M225.1,409.3v-64.2h13.5v31.7c0,3.3,3,6.3,6.3,6.3h25.4
		c3.3,0,5.6-3,5.6-6.3v-31.7h13.5v64.2H225.1z M250.4,345.1h13.5v26.1h-13.5V345.1L250.4,345.1z M428.8,409.3h-51.5V281.6
		c0-3.3-2.7-5.9-5.9-5.9s-5.9,2.7-5.9,5.9v127.7h-64.2v-70.5c0-3.3-2.3-5.6-5.6-5.6h-70.5v-70.5c0-3.3-2.3-5.6-5.6-5.6h-70.5v-51.5
		h216.5v50.7c0,3.3,2.7,5.9,5.9,5.9s5.9-2.7,5.9-5.9v-50.7h7.1c3.3,0,5.6-3,5.6-6.3v-25.4c0-3.3-2.3-5.6-5.6-5.6H130.7
		c-3.3,0-6.3,2.3-6.3,5.6v25.3c0,3.3,3,6.3,6.3,6.3h6.3v203.8H85.4V170.6L257.1,54.1l171.7,116.5V409.3z"/>
	<path d="M226.2,98.1c0,3.3,2.7,5.9,5.9,5.9h50.7c3.3,0,5.9-2.7,5.9-5.9c0-3.3-2.7-5.9-5.9-5.9h-50.7
		C228.8,92.1,226.2,94.8,226.2,98.1z"/>
	<path d="M282.9,117.5h-50.7c-3.3,0-5.9,2.7-5.9,5.9s2.7,5.9,5.9,5.9h50.7c3.3,0,5.9-2.7,5.9-5.9S286.2,117.5,282.9,117.5z"/>
	<path d="M282.9,142.9h-50.7c-3.3,0-5.9,2.7-5.9,5.9s2.7,5.9,5.9,5.9h50.7c3.3,0,5.9-2.7,5.9-5.9S286.2,142.9,282.9,142.9z"/>
	<path d="M168.7,326.1h25.4c3.3,0,5.9-2.7,5.9-5.9s-2.7-5.9-5.9-5.9h-25.4c-3.3,0-5.9,2.7-5.9,5.9
		C162.7,323.4,165.4,326.1,168.7,326.1z"/>
	<path d="M194.1,390.3h-25.4c-3.3,0-5.9,2.7-5.9,5.9s2.7,5.9,5.9,5.9h25.4c3.3,0,5.9-2.7,5.9-5.9C200,392.9,197.4,390.3,194.1,390.3
		z"/>
	<path d="M270.2,390.3h-25.4c-3.3,0-5.9,2.7-5.9,5.9s2.7,5.9,5.9,5.9h25.4c3.3,0,5.9-2.7,5.9-5.9
		C276.1,392.9,273.5,390.3,270.2,390.3z"/>
</g>
</svg>
