<?xml version="1.0" encoding="utf-8"?>
<!-- Generator: Adobe Illustrator 19.0.0, SVG Export Plug-In . SVG Version: 6.00 Build 0)  -->
<svg version="1.1" id="Layer_1" xmlns="http://www.w3.org/2000/svg" xmlns:xlink="http://www.w3.org/1999/xlink" x="0px" y="0px"
	 viewBox="0 0 512 512" style="enable-background:new 0 0 512 512;" xml:space="preserve">
<style type="text/css">
	.st0{fill:#FFFFFF;}
	.st1{fill:#F7CAA5;}
	.st2{fill:#F8EC7D;}
	.st3{fill:#EDB288;}
	.st4{fill:#E48E66;}
	.st5{fill:#E5C900;}
	.st6{fill:#2B0035;}
</style>
<circle id="XMLID_1_" class="st0" cx="255.3" cy="256.7" r="254.3"/>
<g>
	<path class="st1" d="M343.3,328.7l8-4.2l48-25.9l5.8-3.1c12.4-6.7,27.7-2.4,34.9,9.5l-113.2,77.8c-15.3,7.6-32.5,10-49.3,7
		l-65.4-12c-6-1.5-12.4-0.7-17.8,2.4l-35.4,22.4l-24.7-81.2l0.2-0.1c7.6-1.4,14.7-4.9,20.5-10.1l10.8-9.7
		c21.7-16.3,50.7-19.1,75.1-7.3l4.5,2.2c7,3.4,14.7,5.1,22.5,5.2h43.5C327.3,301.5,340.8,313,343.3,328.7z"/>
	<path class="st2" d="M403.5,207v31.6h-86.6v-36.2c0-7.2-2.1-14.2-6.1-20.2c5.4-4.4,12.1-6.8,19.1-7c8.9,12.1,26,14.6,38.1,5.7
		c1.8-1.3,3.4-2.9,4.9-4.6c0.2-0.3,0.6-0.7,0.9-1C390.5,176.4,403.5,190.3,403.5,207z"/>
	<path class="st3" d="M399.2,298.5L399.2,298.5l-48,25.9l-8,4.2c-1.2-7.4-5-14.2-10.6-19.2l30.9-16.7l7.9-4.2
		C381.1,283.7,393.9,289.1,399.2,298.5z"/>
	<path class="st2" d="M379.4,122.6v14.1c0,15.5-12.6,28.1-28.1,28.1s-28.1-12.6-28.1-28.1v-14.1c0-15.5,12.6-28.1,28.1-28.1
		C366.7,94.5,379.3,107,379.4,122.6L379.4,122.6z"/>
	<path class="st3" d="M363.2,292.2l0.4,0.7l-30.9,16.7c-5.9-5.2-13.5-8.1-21.4-8.1h-9.7l25.7-14C339,280.8,353.7,282.7,363.2,292.2z
		"/>
	<path class="st4" d="M310.7,182.4c4,5.9,6.1,12.9,6.1,20.2v52.3H197.4v-52.3c0-19.6,15.6-35.7,35.3-36.2
		c10.2,13.8,29.8,16.8,43.6,6.5c2-1.5,4-3.3,5.6-5.3c0.3-0.4,0.7-0.8,1.1-1.1C294.2,167.1,304.4,173,310.7,182.4z"/>
	<path class="st4" d="M289.3,106v16.1c0,17.7-14.4,32.1-32.1,32.1c-17.7,0-32.1-14.4-32.1-32.1V106c0-17.7,14.4-32.1,32.1-32.1
		C274.9,73.9,289.3,88.3,289.3,106z"/>
	<path class="st2" d="M202.2,181.4l1.3,1.1c-3.9,5.9-6,12.9-6,20v36.2h-86.8v-31.6c0-17.2,13.7-31.2,30.9-31.6
		c8.9,12.1,26,14.6,38.1,5.7c1.8-1.3,3.4-2.9,4.9-4.6c0.2-0.3,0.6-0.7,0.9-1C191.5,175.8,197.3,177.8,202.2,181.4z"/>
	<path class="st2" d="M191.1,122.6v14.1c0,15.5-12.6,28.1-28.1,28.1s-28.1-12.6-28.1-28.1v-14.1c0-15.5,12.6-28.1,28.1-28.1
		C178.5,94.5,191.1,107.1,191.1,122.6z"/>
	<path class="st5" d="M158.8,402.5l11.4,37.5H91.6L74.1,296.7h52.4l7.5,24.6L158.8,402.5z M137.3,414.8c0-5.8-4.7-10.5-10.5-10.5
		c-5.8,0-10.5,4.7-10.5,10.5c0,5.8,4.7,10.5,10.5,10.5C132.6,425.3,137.3,420.6,137.3,414.8L137.3,414.8z"/>
	<circle class="st2" cx="126.8" cy="414.8" r="10.5"/>
	<path class="st6" d="M402.7,291.2l-2,1.1c-7.8-9.4-21.3-13.1-31.6-7.9l-0.1,0.1l-4.6,2.4c-11.1-9.4-27-10.8-39.6-3.6l-24.6,13.3
		h-32.6c-7.1,0-14.1-1.6-20.4-4.7l-4.5-2.2c-26-12.7-57-9.7-80.1,7.8c-0.1,0.1-0.2,0.2-0.3,0.2l-10.8,9.7c-4.1,3.7-8.9,6.3-14.2,7.9
		l-6.2-20.2c-0.7-2-2.5-3.4-4.6-3.5H74.2c-2.7,0-4.9,2.2-4.9,4.9c0,0.2,0,0.4,0,0.6l17.5,143.3c0.3,2.4,2.4,4.3,4.9,4.3h78.7
		c2.7,0,4.9-2.2,4.9-4.9c0-0.5-0.1-1-0.2-1.4l-10.3-33.9l32.2-20.3c4.3-2.4,9.4-3,14.2-1.9c0.1,0,0.2,0.1,0.3,0.1l65.5,12
		c17.8,3.2,36.1,0.6,52.3-7.4c0.2-0.1,0.4-0.2,0.6-0.3l113.2-77.7c2.1-1.5,2.8-4.3,1.4-6.5C435.6,288.3,417.4,283.3,402.7,291.2z
		 M373.7,293c5.9-3,13.4-0.6,18.2,4.1L349,320.2l-2.5,1.3c-1.4-3.8-3.3-7.5-5.9-10.7L373.7,293z M329.7,291.8L329.7,291.8
		c7.9-4.6,17.6-4.6,25.3,0.2l-21.8,11.7c-4.1-3-8.9-5.2-14-6.3L329.7,291.8z M95.9,435L79.7,301.5h43.3L163.7,435H95.9z
		 M324.3,378.6c-14.2,6.9-30.3,9.2-46,6.4l-65.3-12c-7.2-1.8-14.8-0.7-21.2,2.8c-0.1,0.1-0.2,0.1-0.2,0.2l-30,19l-21.4-70.1
		c6.6-2,12.7-5.4,17.8-10l10.7-9.5c20.2-15.2,47.2-17.7,69.9-6.8l4.5,2.2c7.7,3.7,16.1,5.6,24.6,5.6h43.5c13.2,0,24.6,9.4,27,22.4
		l-31.6-1.5c-11.5-0.5-22.9,0-34.3,1.6c-2.7,0.3-4.6,2.8-4.2,5.4c0.3,2.7,2.8,4.6,5.4,4.2h0.1c10.8-1.5,21.7-2,32.5-1.5l37.2,1.7
		c0.1,0,0.2,0,0.2,0c2.7,0,4.9-2.2,4.9-4.9c0-0.8,0-1.5-0.1-2.4l5.1-2.7l53.8-29c8.5-4.6,19-2.9,25.6,4.1L324.3,378.6z"/>
	<path class="st6" d="M111.5,414.8c0,8.5,6.9,15.4,15.4,15.4s15.4-6.9,15.4-15.4s-6.9-15.4-15.4-15.4
		C118.3,399.5,111.5,406.4,111.5,414.8z M126.8,409.2c3.1,0,5.6,2.5,5.6,5.6c0,3.1-2.5,5.6-5.6,5.6s-5.6-2.5-5.6-5.6
		C121.2,411.8,123.8,409.2,126.8,409.2z"/>
	<path class="st6" d="M294.2,122.1V106c0-20.5-16.6-37-37-37c-20.4,0-37,16.6-37,37v16.1c0,20.5,16.6,37,37,37
		C277.6,159.1,294.2,142.6,294.2,122.1z M229.8,122.1V106c0-15,12.2-27.2,27.2-27.2c15,0,27.2,12.2,27.2,27.2v16.1
		c0,15-12.2,27.2-27.2,27.2C242.1,149.4,229.8,137.2,229.8,122.1z"/>
	<path class="st6" d="M197.4,259.7h119.4c2.7,0,4.9-2.2,4.9-4.9v-11.2h81.7c2.7,0,4.9-2.2,4.9-4.9V207c0-19.3-15-35.3-34.3-36.5
		c-0.1,0-0.2,0-0.3,0c-2.4,0-3.6,1.5-4.6,2.8c-7.8,9.6-22,11-31.5,3.2c-1.5-1.1-2.7-2.5-3.8-4c-1-1.3-2.4-2-4.1-2
		c-6.3,0.2-12.5,2-18,5.2c-7.2-8.4-17.6-13.5-28.5-14.2c-0.1,0-0.2,0-0.3,0c-2.4,0-3.7,1.5-4.8,2.9c-9.2,11.2-25.8,12.9-37,3.7
		c-1.7-1.4-3.2-2.9-4.5-4.7c-1-1.3-2.4-2-4.1-2c-11.6,0.3-22.5,5.5-30.1,14.3c-5-3.1-10.8-4.9-16.7-5.2c-0.1,0-0.2,0-0.3,0
		c-2.4,0-3.6,1.5-4.6,2.8c-7.8,9.6-22,11-31.6,3.2c-1.5-1.1-2.7-2.5-3.8-4c-1-1.3-2.4-2-4.1-2c-19.8,0.5-35.5,16.7-35.5,36.5v31.6
		c0,2.7,2.2,4.9,4.9,4.9l0,0h81.9v11.2C192.6,257.5,194.8,259.7,197.4,259.7z M351.7,191.3c9.2,0,17.9-3.9,24-10.7
		c13.1,2,22.9,13.3,22.9,26.5v26.8h-76.9v-31.3c0-6.5-1.5-12.9-4.5-18.7c3.2-1.9,6.8-3,10.4-3.4
		C333.7,187.3,342.5,191.3,351.7,191.3z M230.5,171.4c13,15,35.8,16.8,50.8,3.7c1.3-1.1,2.5-2.3,3.6-3.6c8.9,1.2,16.8,6.2,21.7,13.6
		c0,0,0,0,0,0.1c3.4,5.1,5.3,11.2,5.3,17.4v47.4H202.3v-47.4C202.3,186.5,214.4,172.9,230.5,171.4L230.5,171.4z M115.5,233.8V207
		c0.1-13.6,10.2-25,23.8-26.6c11.7,13.3,32,14.6,45.4,2.8c1-0.9,1.9-1.8,2.8-2.8c3.3,0.5,6.6,1.6,9.5,3.3
		c-2.9,5.8-4.5,12.1-4.5,18.6v31.3H115.5z"/>
	<path class="st6" d="M384.3,136.7v-14.1c0-18.2-14.8-33-33-33c-18.2,0-33,14.8-33,33v14.1c0,18.2,14.8,33,33,33
		C369.5,169.7,384.3,154.9,384.3,136.7z M327.9,136.7v-14.1c0-12.9,10.4-23.3,23.3-23.3c12.9,0,23.3,10.4,23.3,23.3v14.1
		c0,12.9-10.4,23.3-23.3,23.3S327.9,149.5,327.9,136.7z"/>
	<path class="st6" d="M196,136.7v-14.1c0-18.2-14.8-33-33-33s-33,14.8-33,33v14.1c0,18.2,14.8,33,33,33S196,154.9,196,136.7z
		 M139.6,136.7v-14.1c0-12.9,10.4-23.3,23.3-23.3s23.3,10.4,23.3,23.3v14.1c0,12.9-10.4,23.3-23.3,23.3S139.6,149.5,139.6,136.7z"/>
</g>
</svg>
