<?xml version="1.0" encoding="utf-8"?>
<!-- Generator: Adobe Illustrator 19.0.0, SVG Export Plug-In . SVG Version: 6.00 Build 0)  -->
<svg version="1.1" id="Capa_1" xmlns="http://www.w3.org/2000/svg" xmlns:xlink="http://www.w3.org/1999/xlink" x="0px" y="0px"
	 viewBox="0 0.4 511.6 511.6" style="enable-background:new 0 0.4 511.6 511.6;" xml:space="preserve">
<style type="text/css">
	.st0{fill:#FFFFFF;}
	.st1{fill:#131413;}
	.st2{fill:#CCD600;}
</style>
<circle id="XMLID_1_" class="st0" cx="255.3" cy="257.7" r="254.3"/>
<g>
	<g>
		<path class="st1" d="M94,222.6c-12,0-22.2,4.2-30.5,12.6s-12.6,18.5-12.6,30.5c0,12,4.2,22.2,12.6,30.5s18.6,12.6,30.5,12.6
			c12,0,22.2-4.2,30.5-12.6c8.5-8.4,12.6-18.5,12.6-30.5c0-12-4.2-22.2-12.6-30.5C116.2,226.8,106,222.6,94,222.6z"/>
		<path class="st1" d="M94,107.6c-12,0-22.2,4.2-30.5,12.6c-8.4,8.4-12.6,18.6-12.6,30.5c0,12,4.2,22.2,12.6,30.5
			c8.4,8.4,18.6,12.6,30.5,12.6c12,0,22.2-4.2,30.5-12.6c8.5-8.4,12.6-18.5,12.6-30.5c0-12-4.2-22.2-12.6-30.5
			C116.2,111.8,106,107.6,94,107.6z"/>
		<path class="st1" d="M94,337.7c-12,0-22.2,4.2-30.5,12.6c-8.4,8.4-12.6,18.6-12.6,30.5c0,12,4.2,22.2,12.6,30.5
			s18.6,12.6,30.5,12.6c12,0,22.2-4.2,30.5-12.6c8.5-8.4,12.6-18.5,12.6-30.5c0-12-4.2-22.2-12.6-30.5
			C116.2,341.8,106,337.7,94,337.7z"/>
		<path class="st1" d="M451.4,124.1c-1.5-1.5-3.1-2.1-5.1-2.1H173.1c-1.9,0-3.6,0.7-5.1,2.1c-1.5,1.5-2.1,3.1-2.1,5.1v43.1
			c0,1.9,0.7,3.6,2.1,5.1c1.5,1.5,3.1,2.1,5.1,2.1h273.2c1.9,0,3.6-0.7,5.1-2.1c1.5-1.5,2.1-3.1,2.1-5.1v-43.1
			C453.5,127.1,452.8,125.5,451.4,124.1z"/>
		<path class="st1" d="M446.3,237H173.1c-1.9,0-3.6,0.7-5.1,2.1c-1.5,1.5-2.1,3.1-2.1,5.1v43.1c0,1.9,0.7,3.6,2.1,5.1
			c1.5,1.5,3.1,2.2,5.1,2.2h273.2c1.9,0,3.6-0.7,5.1-2.2c1.5-1.5,2.1-3.1,2.1-5.1v-43.1c0-1.9-0.7-3.6-2.1-5.1
			C450,237.7,448.3,237,446.3,237z"/>
		<path class="st1" d="M446.3,352H173.1c-1.9,0-3.6,0.7-5.1,2.2c-1.5,1.5-2.1,3.1-2.1,5.1v43.1c0,1.9,0.7,3.6,2.1,5.1
			c1.5,1.5,3.1,2.1,5.1,2.1h273.2c1.9,0,3.6-0.7,5.1-2.1c1.5-1.5,2.1-3.1,2.1-5.1v-43.1c0-1.9-0.7-3.6-2.1-5.1
			C450,352.7,448.3,352,446.3,352z"/>
	</g>
</g>
<g>
	<g>
		<path class="st2" d="M86.3,214c-12,0-22.2,4.2-30.5,12.6c-8.4,8.4-12.6,18.5-12.6,30.5s4.2,22.2,12.6,30.5
			c8.4,8.4,18.6,12.6,30.5,12.6c12,0,22.2-4.2,30.5-12.6c8.4-8.4,12.6-18.6,12.6-30.5c0-12-4.2-22.2-12.6-30.5
			C108.5,218.2,98.3,214,86.3,214z"/>
		<path class="st2" d="M86.3,99c-12,0-22.2,4.2-30.5,12.6c-8.5,8.5-12.6,18.6-12.6,30.6c0,12,4.2,22.2,12.6,30.5
			c8.4,8.4,18.6,12.6,30.6,12.6s22.2-4.2,30.5-12.6c8.4-8.4,12.6-18.6,12.6-30.5c0-12-4.2-22.2-12.6-30.5
			C108.5,103.2,98.3,99,86.3,99z"/>
		<path class="st2" d="M86.3,329.1c-12,0-22.2,4.2-30.5,12.6c-8.5,8.4-12.6,18.6-12.6,30.6c0,12,4.2,22.2,12.6,30.5
			s18.6,12.6,30.5,12.6c12,0,22.2-4.2,30.5-12.6c8.4-8.4,12.6-18.6,12.6-30.5c0-12-4.2-22.2-12.6-30.5
			C108.5,333.3,98.3,329.1,86.3,329.1z"/>
		<path class="st2" d="M443.7,115.5c-1.5-1.5-3.1-2.1-5.1-2.1H165.4c-1.9,0-3.6,0.7-5.1,2.1c-1.5,1.5-2.1,3.1-2.1,5.1v43.1
			c0,1.9,0.7,3.6,2.1,5.1c1.5,1.5,3.1,2.1,5.1,2.1h273.2c1.9,0,3.6-0.7,5.1-2.1c1.5-1.5,2.1-3.1,2.1-5.1v-43.1
			C445.8,118.7,445.1,117,443.7,115.5z"/>
		<path class="st2" d="M438.6,228.5H165.4c-1.9,0-3.6,0.7-5.1,2.1c-1.5,1.5-2.1,3.1-2.1,5.1v43.1c0,1.9,0.7,3.6,2.1,5.1
			c1.5,1.5,3.1,2.2,5.1,2.2h273.2c1.9,0,3.6-0.7,5.1-2.2s2.1-3.1,2.1-5.1v-43.1c0-1.9-0.7-3.6-2.1-5.1
			C442.2,229.2,440.5,228.5,438.6,228.5z"/>
		<path class="st2" d="M438.6,343.5H165.4c-1.9,0-3.6,0.7-5.1,2.2c-1.5,1.5-2.1,3.1-2.1,5.1v43.1c0,1.9,0.7,3.6,2.1,5.1
			c1.5,1.5,3.1,2.1,5.1,2.1h273.2c1.9,0,3.6-0.7,5.1-2.1c1.5-1.5,2.1-3.1,2.1-5.1v-43.1c0-1.9-0.7-3.6-2.1-5.1
			C442.2,344.2,440.5,343.5,438.6,343.5z"/>
	</g>
</g>
</svg>
