<?xml version="1.0" encoding="utf-8"?>
<!-- Generator: Adobe Illustrator 19.0.0, SVG Export Plug-In . SVG Version: 6.00 Build 0)  -->
<svg version="1.1" id="Layer_1" xmlns="http://www.w3.org/2000/svg" xmlns:xlink="http://www.w3.org/1999/xlink" x="0px" y="0px"
	 viewBox="0 0 512 512" style="enable-background:new 0 0 512 512;" xml:space="preserve">
<style type="text/css">
	.st0{fill:#FFFFFF;}
	.st1{fill:#E8BB00;}
	.st2{fill:#737AFF;}
	.st3{fill:#FFFF00;}
	.st4{fill:#D0E000;}
	.st5{fill:#010101;}
</style>
<circle id="XMLID_1_" class="st0" cx="256.7" cy="256.7" r="254.3"/>
<g>
	<circle class="st0" cx="190" cy="266.7" r="115.2"/>
	<path class="st1" d="M426.5,84.8H256.7c-6.7,0-12.1,5.5-12.1,12.1v68.3l-0.1,0.1c29.3,15.7,51,43.8,58.1,77.2h0.1h123.9
		c6.7,0,12.1-5.5,12.1-12.1V96.9C438.6,90.2,433.2,84.8,426.5,84.8z"/>
	<path class="st0" d="M305.2,84.8H378v36.4h-24.3h-24.3h-24.3V84.8z"/>
	<path class="st2" d="M254.3,202.4c-16.4-16.5-39.2-26.7-64.3-26.7s-47.8,10.2-64.3,26.7C109.2,218.9,99,241.6,99,266.7
		c0,50.2,40.8,91,91,91c3,0,6-0.2,8.9-0.5l33.5-35.1l18.2-19l15.2,13.9c9.6-14.4,15.2-31.7,15.2-50.3
		C281,241.6,270.8,218.9,254.3,202.4z"/>
	<path class="st3" d="M197,266.6L208,332c0.2,1,0.2,2,0.2,3v4.5c0,5-2,9.6-5.3,12.9s-7.8,5.3-12.9,5.3c-10.1,0-18.2-8.1-18.2-18.2
		v-4.5c0-1.1,0.1-2,0.2-3l10.9-65.3c0.5-3.5,3.5-6,7.1-6S196.5,263.2,197,266.6L197,266.6z"/>
	<path class="st4" d="M341.6,351.6l-18.2,18.2l-18.2-16.7l-21.4-19.6l-15-13.8l-3-2.8l-15.2-13.9l-18.2,19l-33.5,35.1l-2.9,3
		L176.2,381l-16.5,17.4l-36.4,38.1v12.1h36.4h36.4h36.4h36.4h36.4h36.4H378V315.2L341.6,351.6z"/>
	<path class="st5" d="M426.5,78.7H256.7c-10,0-18.2,8.2-18.2,18.2v58.8c-14.9-6.5-31.2-10.2-48.5-10.2
		c-66.9,0-121.3,54.4-121.3,121.3c0,57.5,40.2,106.4,95.2,118.5l-46.7,48.9v20.6h266.8v-137l36.4-36.4v46h12.1v-66.7h-66.7v12.1h46
		l-88.6,88.6l-31.5-28.9c12.7-19.6,19.5-42.2,19.5-65.8c0-6.2-0.6-12.3-1.5-18.2h116.7c10,0,18.2-8.2,18.2-18.2V96.9
		C444.7,86.9,436.5,78.7,426.5,78.7z M347.7,103v12.1h-12.1V103h-12.1v12.1h-12.1V90.8h60.6v24.3h-12.1V103H347.7z M105.4,260.6
		c1.4-18.9,8.8-36,20.5-49.4l16.9,16.9l8.6-8.6l-16.9-16.9c13.5-11.7,30.6-19.2,49.4-20.5v23.9H196v-24c18.9,1.4,36,8.8,49.4,20.5
		l-16.9,16.9l8.6,8.6l16.9-16.9c11.7,13.5,19.2,30.6,20.5,49.4h-23.8v12.1h24c-0.8,12.2-4.4,24-10.2,34.7l-14.1-12.9L214,332.7
		c-0.1-0.5-0.1-1.1-0.2-1.7L203,265.6c-1.1-6.4-6.5-11.1-13-11.1s-12,4.6-13,11.1L166,331c-0.2,1.3-0.3,2.7-0.3,4v4.5
		c0,3.2,0.7,6.2,1.7,9c-34-9.4-59.5-39.4-62.1-75.7h24v-12.1L105.4,260.6z M177.9,339.5v-4.5c0-0.7,0.1-1.4,0.2-2l10.9-65.3
		c0.2-1.1,2-1.1,2.1,0L202,333c0.2,0.7,0.2,1.4,0.2,2v4.5c0,6.7-5.5,12.1-12.1,12.1C183.3,351.7,177.9,346.2,177.9,339.5
		L177.9,339.5z M226.4,337.3v105.3h-24.3v-79.9L226.4,337.3z M238.5,324.6l12.4-13l11.8,10.8v120.2h-24.3V324.6z M274.9,333.6
		l24.3,22.2v86.8h-24.3V333.6z M190,442.6h-24.3v-41.8l24.3-25.4V442.6z M129.3,438.9l24.3-25.4v29h-24.3V438.9z M371.9,442.6h-24.3
		v-88.5l24.3-24.3V442.6z M323.6,378.2l12-12v76.3h-24.3v-75.7L323.6,378.2z M282.7,324.2l-9.1-8.3c8.7-14.9,13.4-31.8,13.4-49.2
		c0-53.5-43.5-97-97-97s-97,43.5-97,97c0,51.7,40.6,93.9,91.6,96.7L174,374.6c-53.3-7.8-93.2-53.6-93.2-107.9
		c0-60.2,49-109.2,109.2-109.2s109.2,49,109.2,109.2C299.2,287.3,293.5,307,282.7,324.2L282.7,324.2z M432.6,230.3
		c0,3.3-2.7,6.1-6.1,6.1H307.3c-8.2-31.8-29-58.4-56.6-74.6V96.9c0-3.3,2.7-6.1,6.1-6.1h42.5v36.4h84.9V90.8h42.5
		c3.3,0,6.1,2.7,6.1,6.1V230.3z"/>
	<path d="M384.1,212.1h12.1v12.1h-12.1V212.1z"/>
	<path d="M359.8,212.1h12.1v12.1h-12.1V212.1z"/>
	<path d="M408.3,212.1h12.1v12.1h-12.1V212.1z"/>
	<path d="M359.8,187.9h60.6V200h-60.6V187.9z"/>
</g>
</svg>
