<?xml version="1.0" encoding="utf-8"?>
<!-- Generator: Adobe Illustrator 24.0.1, SVG Export Plug-In . SVG Version: 6.00 Build 0)  -->
<svg version="1.1" id="Layer_1" xmlns="http://www.w3.org/2000/svg" xmlns:xlink="http://www.w3.org/1999/xlink" x="0px" y="0px"
	 viewBox="0 0 50 50" style="enable-background:new 0 0 50 50;" xml:space="preserve">
<style type="text/css">
	.st0{fill:#FFFFFF;}
</style>
<circle class="st0" cx="25" cy="25" r="24.5"/>
<g>
	<path d="M42.5,10.2c0,2.6,0,5.3,0,7.9c-0.4,1-1.1,1.3-2.1,1.3c-1.5,0-3.1,0-4.6,0c-0.1,0-0.2,0-0.4,0c0,1,0,2,0,3
		c0,0.6-0.2,1-0.7,1c-0.4,0-0.7-0.3-0.7-0.9c0-3,0-6.1,0-9.1c0-0.1,0-0.3,0-0.4c-0.8,0-1.5,0-2.2,0c0,7.6,0,15.2,0,22.8
		c0.4,0,0.8,0,1.1,0c0.8,0,1.1-0.3,1.1-1.1c0-2.2,0-4.4,0-6.5c0-0.5,0.3-0.8,0.7-0.8c0.4,0,0.7,0.3,0.7,0.8c0,2.2,0,4.5,0,6.7
		c0,0.5-0.1,1-0.5,1.4c-0.5,0.6-1.2,0.9-2,0.9c-3.2,0-6.4,0-9.6,0c-0.3,0-0.4,0.1-0.5,0.4c-0.6,1.8-1.4,3.6-2.4,5.3
		c-0.1,0.2-0.3,0.4-0.5,0.6c-0.1,0-0.3,0-0.4,0c-0.5-0.4-0.6-0.6-0.2-1.2c0.5-1,1-1.9,1.5-2.9c1.1-2.4,1.7-5,2.3-7.5
		c0.2-0.7-0.1-1.4-0.7-1.8c-0.9-0.7-2.2-0.3-2.6,0.8c-0.3,0.9-0.7,1.7-1,2.6c-0.4,1-1.4,1.4-2.3,1.1c-0.7-0.3-1.2-0.9-1.2-1.8
		c0-3.4,0-6.7,0-10.1c0-0.1,0-0.2,0-0.4c-0.1,0.1-0.2,0.2-0.2,0.2c-0.4,0.7-0.8,1.4-1.1,2.1c-1.5,2.8-2.4,5.8-2.5,9
		c0,2.1,0,4.3,0,6.4c0,0.5-0.3,0.8-0.7,0.8c-0.4,0-0.7-0.3-0.7-0.8c0-2.6,0-5.2,0.1-7.8c0.1-2.6,0.9-5.1,2.1-7.4
		c0.8-1.7,1.8-3.3,2.7-5c0.1-0.1,0.1-0.2,0.2-0.4c-0.2,0-0.3,0-0.5,0c-1.6,0-3.2,0-4.8,0c-0.8,0-1.4-0.4-1.6-1.1
		c0-0.1-0.1-0.1-0.1-0.2c0-2.6,0-5.3,0-7.9c0.2-0.6,0.6-1.1,1.3-1.3c10.6,0,21.3,0,31.9,0C41.8,9.1,42.2,9.5,42.5,10.2z M16.5,12.9
		c0,0.1,0,0.2,0,0.2c0,6.5,0,12.9,0,19.4c0,0.3,0.1,0.5,0.4,0.6c0.3,0.1,0.5-0.2,0.6-0.4c0.3-0.8,0.6-1.6,0.9-2.4
		c0.4-1.1,1.3-1.8,2.5-2c1.9-0.3,3.7,1.4,3.5,3.3c-0.1,0.6-0.2,1.3-0.4,1.9c-0.2,0.8-0.4,1.6-0.6,2.4c1.1,0,2.2,0,3.3,0
		c0-7.6,0-15.2,0-22.8C23.3,12.9,19.9,12.9,16.5,12.9z M35.3,18c1.8,0,3.6,0,5.4,0c0.3,0,0.4-0.2,0.4-0.4c0-2.3,0-4.6,0-6.9
		c0-0.5,0-0.5-0.5-0.5c-10.3,0-20.5,0-30.8,0c-0.4,0-0.5,0.1-0.5,0.5c0,2.3,0,4.6,0,6.9c0,0.4,0,0.5,0.5,0.5c1.7,0,3.4,0,5,0
		c0.1,0,0.1,0,0.2,0c0-0.5,0-0.9,0-1.3c-0.3,0-0.6,0-0.9,0c-1.8-0.1-3-1.7-2.4-3.4c0.4-1,1.3-1.7,2.6-1.7c4.6,0,9.3,0,13.9,0
		c2.6,0,5.2,0,7.9,0c1,0,1.8,0.4,2.3,1.2c1,1.7-0.2,3.8-2.2,3.9c-0.3,0-0.6,0-0.9,0C35.3,17.2,35.3,17.6,35.3,18z M28.1,12.9
		c0,7.6,0,15.2,0,22.8c0.8,0,1.5,0,2.3,0c0-7.6,0-15.2,0-22.8C29.6,12.9,28.9,12.9,28.1,12.9z M15.1,15.4c0-0.8,0-1.6,0-2.4
		c-0.3,0-0.7,0-1,0c-0.6,0-1.1,0.6-1.1,1.2c0,0.6,0.5,1.2,1.2,1.2C14.5,15.4,14.8,15.4,15.1,15.4z M35.3,15.3c0.4,0,0.7,0,1,0
		c0.6,0,1.1-0.5,1.1-1.2c0-0.6-0.4-1.2-1-1.2c-0.4,0-0.7,0-1.1,0C35.3,13.8,35.3,14.5,35.3,15.3z"/>
	<path d="M10.5,43.3C10.2,43.2,10,43,10,42.6c0-0.3,0.3-0.6,0.6-0.6c0.3,0,0.6,0.2,0.7,0.4c0.1,0.3,0,0.6-0.2,0.8
		c-0.1,0-0.1,0.1-0.2,0.1C10.7,43.3,10.6,43.3,10.5,43.3z"/>
	<path d="M34.7,24.7c0.4,0,0.7,0.3,0.7,0.7c0,0.4-0.3,0.7-0.7,0.7c-0.4,0-0.7-0.3-0.7-0.7C34,25,34.3,24.7,34.7,24.7z"/>
	<path d="M18.9,21.8c0.1-0.4,0.2-0.8,0.3-1.1c0-0.2,0.1-0.4,0-0.5c-0.8-2,0.5-4.2,2.6-4.4c2.5-0.3,4.2,2.2,3.3,4.4
		c-0.1,0.1-0.1,0.3,0,0.5c0.8,2.1-0.7,4.4-3,4.5C20.4,25.2,18.9,23.7,18.9,21.8z M20.3,19.3c1.3-0.8,2.5-0.7,3.7,0
		c0-0.8-0.2-1.5-0.9-1.9c-0.7-0.4-1.4-0.4-2,0C20.5,17.9,20.2,18.5,20.3,19.3z M24,21.6c-1.3,0.8-2.5,0.8-3.7,0
		c-0.1,0.8,0.2,1.4,0.8,1.8c0.7,0.4,1.4,0.4,2,0C23.8,23.1,24.1,22.5,24,21.6z M23.3,20.5c-0.7-0.5-1.7-0.5-2.3,0
		C21.6,21,22.7,21,23.3,20.5z"/>
</g>
</svg>
