<?xml version="1.0" encoding="utf-8"?>
<!-- Generator: Adobe Illustrator 19.0.0, SVG Export Plug-In . SVG Version: 6.00 Build 0)  -->
<svg version="1.1" id="Layer_1" xmlns="http://www.w3.org/2000/svg" xmlns:xlink="http://www.w3.org/1999/xlink" x="0px" y="0px"
	 viewBox="0 0 512 512" style="enable-background:new 0 0 512 512;" xml:space="preserve">
<style type="text/css">
	.st0{fill:#FFFFFF;}
	.st1{fill:#C1AA00;}
	.st2{fill:#CDDD00;}
	.st3{fill:#0C0C0C;}
	.st4{fill:#010816;}
</style>
<circle id="XMLID_1_" class="st0" cx="255.3" cy="256.7" r="254.3"/>
<polygon class="st1" points="208.9,356.2 187,459.2 193.1,466 325,466 322.5,437.7 305.1,356.2 "/>
<g>
	<path class="st2" d="M108.9,339.2v98.4h82.5l17.5-81.5c0.5-2.3,2.4-3.9,4.7-3.9h86.7c2.3,0,4.3,1.6,4.7,3.9l17.5,81.5h82.5v-98.4
		H108.9z"/>
	<path class="st3" d="M411.3,300.2v137.4c0,3.4-2.8,6.1-6.1,6.1h-57.8c-3.4,0-6.1-2.8-6.1-6.1c0-3.4,2.8-6.1,6.1-6.1H399V300.2
		c0-45.5-37-82.5-82.5-82.5h-21.2c-2.9,0-5.3-1.9-6-4.7c-0.7-2.8,0.7-5.6,3.2-6.9c26-13.4,42.2-39.9,42.2-69.1
		c0-42.8-34.9-77.7-77.7-77.7s-77.7,34.9-77.7,77.7c0,29.2,16.1,55.7,42.2,69.1c2.5,1.3,3.9,4.1,3.2,6.9c-0.7,2.8-3.1,4.7-6,4.7
		h-21.2c-45.5,0-82.5,37-82.5,82.5v131.3h51.6c3.4,0,6.1,2.8,6.1,6.1c0,3.4-2.8,6.1-6.1,6.1h-57.8c-3.4,0-6.1-2.8-6.1-6.1V300.2
		c0-52.3,42.6-94.8,94.8-94.8h1c-19.8-16.9-31.5-41.7-31.5-68.4c0-49.5,40.3-89.9,89.9-89.9S347,87.4,347,136.9
		c0,26.8-11.7,51.6-31.5,68.4h1C368.8,205.4,411.3,248,411.3,300.2L411.3,300.2z M333.3,458.1c0.7,3.3-0.1,6.6-2.2,9.2
		c-2.1,2.6-5.2,4.1-8.6,4.1h-131c-3.4,0-6.5-1.5-8.6-4.1c-2.1-2.6-2.9-6-2.2-9.2L203,354.9c1.1-5,5.6-8.6,10.7-8.6h86.7
		c5.1,0,9.7,3.6,10.7,8.6L333.3,458.1z M320.9,459.2l-21.6-100.7h-84.6l-21.6,100.7H320.9z M286.4,340.2c3.4,0,6.1-2.8,6.1-6.1v-8.3
		c0-9-7.3-16.4-16.4-16.4h-38.5c-9,0-16.4,7.3-16.4,16.4v8.3c0,3.4,2.8,6.1,6.1,6.1s6.1-2.8,6.1-6.1v-8.3c0-2.3,1.8-4,4-4h38.5
		c2.3,0,4,1.8,4,4v8.3C280.3,337.5,283.1,340.2,286.4,340.2z"/>
</g>
<g>
	<path class="st4" d="M283.4,121.1c-0.4-0.4-0.8-0.5-1.4-0.5h-8.3c-1.1,0-2.1-0.7-2.4-1.8c-0.3-1.1-0.7-2.2-1.2-3.2
		c-0.8-1.7,0.5-3.6,2.3-3.6h9.5c0.6,0,1-0.2,1.4-0.5c0.4-0.4,0.5-0.8,0.5-1.4v-6.1c0-0.6-0.2-1-0.5-1.4c-0.4-0.4-0.8-0.5-1.4-0.5
		H232c-0.6,0-1,0.2-1.4,0.5c-0.4,0.4-0.5,0.8-0.5,1.4v8c0,0.5,0.2,1,0.6,1.3c0.4,0.4,0.8,0.6,1.3,0.6h8.7c4.5,0,8.2,0.7,11,2
		c2.4,1.2,1.6,4.8-1.1,4.8H232c-0.6,0-1,0.2-1.4,0.5c-0.4,0.4-0.5,0.8-0.5,1.4v6.1c0,0.6,0.2,1,0.5,1.4c0.4,0.4,0.8,0.5,1.4,0.5
		h21.6c2.1,0,3.3,2.4,2,4c-1.1,1.4-2.5,2.5-4.2,3.5c-3.2,1.7-7.5,2.6-12.7,2.6H232c-0.5,0-1,0.2-1.3,0.6c-0.4,0.4-0.6,0.8-0.6,1.3
		v7.6c0,0.5,0.2,1,0.5,1.3c7.7,8.2,17.6,19.6,29.8,34.2c0.4,0.5,0.9,0.7,1.5,0.7h11.7c0.8,0,1.4-0.4,1.7-1.1c0.4-0.7,0.3-1.4-0.2-2
		c-9.9-12.2-18.1-21.8-24.4-28.7c-1.3-1.4-0.6-3.7,1.3-4.1c4.8-1.1,8.8-3.1,12.1-5.8c3.8-3.2,6.2-7.2,7.4-12.1
		c0.3-1.1,1.3-1.9,2.4-1.9h8c0.6,0,1-0.2,1.4-0.5c0.4-0.4,0.5-0.8,0.5-1.4v-6.1C284,121.9,283.8,121.4,283.4,121.1z"/>
</g>
<g>
	<path class="st4" d="M283.4,385.7c-0.4-0.4-0.8-0.5-1.4-0.5h-8.3c-1.1,0-2.1-0.7-2.4-1.8c-0.3-1.1-0.7-2.2-1.2-3.2
		c-0.8-1.7,0.5-3.6,2.3-3.6h9.5c0.6,0,1-0.2,1.4-0.5c0.4-0.4,0.5-0.8,0.5-1.4v-6.1c0-0.6-0.2-1-0.5-1.4c-0.4-0.4-0.8-0.5-1.4-0.5
		H232c-0.6,0-1,0.2-1.4,0.5c-0.4,0.4-0.5,0.8-0.5,1.4v8c0,0.5,0.2,1,0.6,1.3s0.8,0.6,1.3,0.6h8.7c4.5,0,8.2,0.7,11,2
		c2.4,1.2,1.6,4.8-1.1,4.8H232c-0.6,0-1,0.2-1.4,0.5c-0.4,0.4-0.5,0.8-0.5,1.4v6.1c0,0.6,0.2,1,0.5,1.4c0.4,0.4,0.8,0.5,1.4,0.5
		h21.6c2.1,0,3.3,2.4,2,4c-1.1,1.4-2.5,2.5-4.2,3.5c-3.2,1.7-7.5,2.6-12.7,2.6H232c-0.5,0-1,0.2-1.3,0.6c-0.4,0.4-0.6,0.8-0.6,1.3
		v7.6c0,0.5,0.2,1,0.5,1.3c7.7,8.2,17.6,19.6,29.8,34.2c0.4,0.5,0.9,0.7,1.5,0.7h11.7c0.8,0,1.4-0.4,1.7-1.1c0.4-0.7,0.3-1.4-0.2-2
		c-9.9-12.2-18.1-21.8-24.4-28.7c-1.3-1.4-0.6-3.7,1.3-4.1c4.8-1.1,8.8-3.1,12.1-5.8c3.8-3.2,6.2-7.2,7.4-12.1
		c0.3-1.1,1.3-1.9,2.4-1.9h8c0.6,0,1-0.2,1.4-0.5c0.4-0.4,0.5-0.8,0.5-1.4v-6.1C284,386.6,283.8,386.1,283.4,385.7z"/>
</g>
</svg>
