<?xml version="1.0" encoding="utf-8"?>
<!-- Generator: Adobe Illustrator 19.0.0, SVG Export Plug-In . SVG Version: 6.00 Build 0)  -->
<svg version="1.1" id="Layer_1" xmlns="http://www.w3.org/2000/svg" xmlns:xlink="http://www.w3.org/1999/xlink" x="0px" y="0px"
	 viewBox="0 0 512 512" style="enable-background:new 0 0 512 512;" xml:space="preserve">
<style type="text/css">
	.st0{fill:#FFFFFF;}
	.st1{fill:#698200;}
	.st2{fill:#C6B700;}
	.st3{fill:#C0CEFF;}
	.st4{fill:#1C1C1C;}
	.st5{fill:#333333;}
</style>
<circle id="XMLID_5_" class="st0" cx="253.3" cy="256.7" r="254.3"/>
<g>
	<path id="XMLID_24_" class="st1" d="M434.2,238.6l-25.1-100.2c-1.6-6-4.5-11.1-8.8-15.3c-4.2-4.2-9.4-7.2-15.3-8.8L284.7,89.2
		c-11.3-2.8-23.4,0.5-31.6,8.8l-179,179c-13,13-13,34,0,46.9l125.3,125.3c13,13,34,13,46.9,0l179-179
		C433.7,261.9,437,249.9,434.2,238.6z M309,214.4c-13-13-13-34,0-46.9c13-13,34-13,46.9,0c13,13,13,34,0,46.9
		C343,227.4,322,227.4,309,214.4z"/>
	<path id="XMLID_9_" class="st2" d="M425.4,270.2l-179,179c-13,13-34,13-46.9,0l-62.7-62.7l172.3-172.3c13,13,34,13,46.9,0
		c13-13,13-34,0-46.9l44.3-44.3c4.2,4.2,7.2,9.4,8.8,15.3l25,100.2C437,249.9,433.7,261.9,425.4,270.2z"/>
	<path id="XMLID_20_" class="st0" d="M199.4,261.3c-12.9-12.9-12.9-34,0-46.9c12.9-12.9,34-12.9,46.9,0c12.9,12.9,12.9,34,0,46.9
		C233.4,274.2,212.4,274.2,199.4,261.3z M230.8,230c-4.3-4.3-11.3-4.3-15.6,0s-4.3,11.3,0,15.6c4.3,4.3,11.3,4.3,15.6,0
		C235.1,241.4,235.1,234.3,230.8,230z"/>
	<path id="XMLID_17_" class="st0" d="M215,370.9c-12.9-12.9-12.9-34,0-46.9c12.9-12.9,34-12.9,46.9,0c12.9,12.9,12.9,34,0,46.9
		C249.1,383.9,228,383.9,215,370.9z M246.4,339.6c-4.3-4.3-11.3-4.3-15.6,0c-4.3,4.3-4.3,11.3,0,15.6c4.3,4.3,11.3,4.3,15.6,0
		S250.7,343.9,246.4,339.6z"/>
	<path id="XMLID_4_" class="st0" d="M302.4,295.8l-84.3,9.4l-56.7,6.3c-3.6,0.5-6.7-0.8-9.1-3.1c-1.7-1.7-2.8-4.1-3.1-6.6
		c-0.8-6.1,3.8-11.6,9.7-12.2l84.3-9.4l56.7-6.3c6.1-0.8,11.6,3.8,12.2,9.7C312.9,289.7,308.4,295.2,302.4,295.8z"/>
	<path id="XMLID_3_" class="st3" d="M302.4,295.8l-84.3,9.4l25-25l56.7-6.3c6.1-0.8,11.6,3.8,12.2,9.7
		C312.9,289.7,308.4,295.2,302.4,295.8z"/>
	<path id="XMLID_2_" class="st4" d="M439,100l-83,83c-4.4,4.4-11.3,4.4-15.6,0c-4.4-4.4-4.4-11.3,0-15.6l83-83
		c4.4-4.4,11.3-4.4,15.6,0C443.4,88.7,443.4,95.6,439,100z"/>
	<path id="XMLID_1_" class="st5" d="M340.4,183L439,84.4c4.4,4.4,4.4,11.3,0,15.6l-83,83C351.6,187.4,344.7,187.4,340.4,183z"/>
</g>
</svg>
