<?xml version="1.0" encoding="utf-8"?>
<!-- Generator: Adobe Illustrator 19.0.0, SVG Export Plug-In . SVG Version: 6.00 Build 0)  -->
<svg version="1.1" id="Layer_1" xmlns="http://www.w3.org/2000/svg" xmlns:xlink="http://www.w3.org/1999/xlink" x="0px" y="0px"
	 viewBox="0 0 512 512" style="enable-background:new 0 0 512 512;" xml:space="preserve">
<style type="text/css">
	.st0{fill:#FFFFFF;}
	.st1{fill:#690589;}
	.st2{fill:#00FF06;}
	.st3{fill:#F4EFED;}
</style>
<circle id="XMLID_1_" class="st0" cx="256.7" cy="256.7" r="254.3"/>
<polygon class="st1" points="295.5,290 295.5,51.3 223.7,51.3 223.7,290 83,290 265.8,462.7 430.4,290 "/>
<rect x="237.1" y="69.3" class="st2" width="39.2" height="205.5"/>
<path class="st3" d="M275.4,274.8H263c0,0-0.1,0-0.1-0.1V69.4c0,0,0-0.1,0.1-0.1h12.4c0,0,0.1,0,0.1,0.1L275.4,274.8
	C275.5,274.8,275.4,274.8,275.4,274.8z"/>
<polygon class="st3" points="132.8,310.5 336.6,309.7 380.6,309.6 267.7,431.2 "/>
<polygon class="st2" points="256.3,380.3 266.3,431.2 379.2,309.6 329.5,310 "/>
</svg>
