<?xml version="1.0" encoding="utf-8"?>
<!-- Generator: Adobe Illustrator 24.0.1, SVG Export Plug-In . SVG Version: 6.00 Build 0)  -->
<svg version="1.1" id="Layer_1" xmlns="http://www.w3.org/2000/svg" xmlns:xlink="http://www.w3.org/1999/xlink" x="0px" y="0px"
	 viewBox="0 0 50 50" style="enable-background:new 0 0 50 50;" xml:space="preserve">
<style type="text/css">
	.st0{fill:#FEF5F5;}
	.st1{fill:#33A5DE;}
	.st2{fill:#EFE2DD;}
	.st3{fill:#0991D1;}
	.st4{fill:#EB585B;}
	.st5{fill:#FCC044;}
	.st6{fill:#A4C730;}
	.st7{fill:#E94749;}
	.st8{fill:#FAB51A;}
	.st9{fill:#84BC26;}
	.st10{fill:#CCE9F9;}
	.st11{fill:#A3D9F1;}
	.st12{fill:#E73633;}
	.st13{fill:#020203;}
</style>
<path class="st0" d="M44.7,45.9H5.3c-0.7,0-1.3-0.6-1.3-1.3V5.3C4,4.6,4.6,4,5.3,4h39.4C45.4,4,46,4.6,46,5.3v39.4
	C46,45.3,45.4,45.9,44.7,45.9z"/>
<path class="st1" d="M46,11.3H4V5.3C4,4.6,4.6,4,5.3,4h39.4C45.4,4,46,4.6,46,5.3V11.3z"/>
<path class="st2" d="M45.9,5.3v39.4c0,0.7-0.6,1.3-1.3,1.3h-2.9c0.7,0,1.3-0.6,1.3-1.3V5.3c0-0.7-0.6-1.3-1.3-1.3h2.9
	C45.4,4,45.9,4.6,45.9,5.3L45.9,5.3z"/>
<path class="st3" d="M45.9,5.3v6.1h-2.9V5.3c0-0.7-0.6-1.3-1.3-1.3h2.9C45.4,4,45.9,4.6,45.9,5.3z"/>
<circle class="st4" cx="9" cy="7.8" r="1.4"/>
<circle class="st5" cx="14.4" cy="7.8" r="1.4"/>
<circle class="st6" cx="19.8" cy="7.8" r="1.4"/>
<path class="st7" d="M10.4,7.8c0,0.8-0.6,1.4-1.4,1.4c-0.4,0-0.7-0.1-1-0.4c0.8,0,1.4-0.6,1.4-1.4c0-0.4-0.2-0.8-0.4-1c0,0,0,0,0,0
	C9.8,6.4,10.4,7,10.4,7.8z"/>
<path class="st8" d="M15.8,7.8c0,0.8-0.6,1.4-1.4,1.4c-0.4,0-0.7-0.1-1-0.4c0.8,0,1.4-0.6,1.4-1.4c0-0.4-0.2-0.8-0.4-1c0,0,0,0,0,0
	C15.2,6.4,15.8,7,15.8,7.8L15.8,7.8z"/>
<path class="st9" d="M21.2,7.8c0,0.8-0.6,1.4-1.4,1.4c-0.4,0-0.7-0.1-1-0.4c0.8,0,1.4-0.6,1.4-1.4c0-0.4-0.2-0.8-0.4-1c0,0,0,0,0,0
	C20.5,6.4,21.2,7,21.2,7.8L21.2,7.8z"/>
<path class="st6" d="M41.1,18.7H8.9c-0.3,0-0.5-0.2-0.5-0.5v-3c0-0.3,0.2-0.5,0.5-0.5h32.1c0.3,0,0.5,0.2,0.5,0.5v3
	C41.6,18.5,41.3,18.7,41.1,18.7z"/>
<path class="st6" d="M41.1,25.5H8.9c-0.3,0-0.5-0.2-0.5-0.5v-3c0-0.3,0.2-0.5,0.5-0.5h32.1c0.3,0,0.5,0.2,0.5,0.5v3
	C41.6,25.3,41.3,25.5,41.1,25.5z"/>
<path class="st9" d="M41.1,18.7h-1.9v-4.1h1.9c0.3,0,0.5,0.2,0.5,0.5v3C41.6,18.5,41.3,18.7,41.1,18.7L41.1,18.7z"/>
<path class="st9" d="M41.1,25.5h-1.9v-4.1h1.9c0.3,0,0.5,0.2,0.5,0.5v3C41.6,25.3,41.3,25.5,41.1,25.5z"/>
<path class="st10" d="M41.1,37H8.9c-0.3,0-0.5-0.2-0.5-0.5v-7.8c0-0.3,0.2-0.5,0.5-0.5h32.1c0.3,0,0.5,0.2,0.5,0.5v7.8
	C41.6,36.7,41.3,37,41.1,37L41.1,37z"/>
<path class="st11" d="M39.2,28.2h1.9c0.3,0,0.5,0.2,0.5,0.5v7.8c0,0.3-0.2,0.5-0.5,0.5h-1.9V28.2z"/>
<path class="st4" d="M41.1,42.8h-7.2c-0.3,0-0.5-0.2-0.5-0.5v-2.1c0-0.3,0.2-0.5,0.5-0.5h7.2c0.3,0,0.5,0.2,0.5,0.5v2.1
	C41.6,42.6,41.3,42.8,41.1,42.8z"/>
<path class="st12" d="M41.1,42.8h-1.9v-3.1h1.9c0.3,0,0.5,0.2,0.5,0.5v2.1C41.6,42.6,41.3,42.8,41.1,42.8z"/>
<path class="st13" d="M44.7,3.4H5.3c-1,0-1.9,0.9-1.9,1.9v6.1v33.3c0,1,0.9,1.9,1.9,1.9h39.4c1,0,1.9-0.9,1.9-1.9V11.3V5.3
	C46.6,4.2,45.7,3.4,44.7,3.4L44.7,3.4z M45.3,44.6c0,0.3-0.3,0.6-0.6,0.6H5.3c-0.3,0-0.6-0.3-0.6-0.6V12h40.7V44.6z M45.3,10.7H4.7
	V5.3c0-0.3,0.3-0.6,0.6-0.6h39.4c0.3,0,0.6,0.3,0.6,0.6V10.7z"/>
<path class="st13" d="M9,5.7c-1.1,0-2,0.9-2,2s0.9,2,2,2s2-0.9,2-2S10.2,5.7,9,5.7z M9,8.5c-0.4,0-0.8-0.3-0.8-0.8
	C8.3,7.3,8.6,7,9,7c0.4,0,0.8,0.3,0.8,0.8C9.8,8.2,9.5,8.5,9,8.5z"/>
<path class="st13" d="M14.4,5.7c-1.1,0-2,0.9-2,2s0.9,2,2,2s2-0.9,2-2S15.5,5.7,14.4,5.7z M14.4,8.5c-0.4,0-0.8-0.3-0.8-0.8
	C13.6,7.3,14,7,14.4,7s0.8,0.3,0.8,0.8C15.2,8.2,14.8,8.5,14.4,8.5z"/>
<path class="st13" d="M19.8,5.7c-1.1,0-2,0.9-2,2s0.9,2,2,2c1.1,0,2-0.9,2-2S20.9,5.7,19.8,5.7z M19.8,8.5c-0.4,0-0.8-0.3-0.8-0.8
	C19,7.3,19.3,7,19.8,7s0.8,0.3,0.8,0.8C20.5,8.2,20.2,8.5,19.8,8.5z"/>
<path class="st13" d="M8.9,19.4h32.1c0.6,0,1.1-0.5,1.1-1.1v-3c0-0.6-0.5-1.1-1.1-1.1H8.9c-0.6,0-1.1,0.5-1.1,1.1v3
	C7.8,18.9,8.3,19.4,8.9,19.4z M9.1,15.3h31.9v2.8H9.1L9.1,15.3z"/>
<path class="st13" d="M8.9,26.1h32.1c0.6,0,1.1-0.5,1.1-1.1v-3c0-0.6-0.5-1.1-1.1-1.1H16.9c-0.3,0-0.6,0.3-0.6,0.6
	c0,0.3,0.3,0.6,0.6,0.6h24v2.8H9.1v-2.8h5c0.3,0,0.6-0.3,0.6-0.6c0-0.3-0.3-0.6-0.6-0.6H8.9c-0.6,0-1.1,0.5-1.1,1.1v3
	C7.8,25.6,8.3,26.1,8.9,26.1z"/>
<path class="st13" d="M8.9,37.6h32.1c0.6,0,1.1-0.5,1.1-1.1v-3.7c0-0.3-0.3-0.6-0.6-0.6s-0.6,0.3-0.6,0.6v3.6H9.1v-7.5h31.9v1
	c0,0.3,0.3,0.6,0.6,0.6s0.6-0.3,0.6-0.6v-1.2c0-0.6-0.5-1.1-1.1-1.1H8.9c-0.6,0-1.1,0.5-1.1,1.1v7.8C7.8,37.1,8.3,37.6,8.9,37.6
	L8.9,37.6z"/>
<path class="st13" d="M41.1,39h-7.2c-0.6,0-1.1,0.5-1.1,1.1v2.1c0,0.6,0.5,1.1,1.1,1.1h7.2c0.6,0,1.1-0.5,1.1-1.1v-2.1
	C42.2,39.6,41.7,39,41.1,39z M40.9,42.2H34v-1.9h6.9V42.2z"/>
<path class="st13" d="M11.2,31.6h2.1c0.3,0,0.6-0.3,0.6-0.6c0-0.3-0.3-0.6-0.6-0.6h-2.1c-0.3,0-0.6,0.3-0.6,0.6
	C10.6,31.3,10.8,31.6,11.2,31.6z"/>
<path class="st13" d="M29,31c0-0.3-0.3-0.6-0.6-0.6H15.6c-0.3,0-0.6,0.3-0.6,0.6c0,0.3,0.3,0.6,0.6,0.6h12.7
	C28.7,31.6,29,31.3,29,31z"/>
<path class="st13" d="M21.7,32.5c-0.3,0-0.6,0.3-0.6,0.6s0.3,0.6,0.6,0.6h4.7c0.3,0,0.6-0.3,0.6-0.6s-0.3-0.6-0.6-0.6H21.7z"/>
<path class="st13" d="M17.9,32.5c-0.3,0-0.6,0.3-0.6,0.6s0.3,0.6,0.6,0.6h1.5c0.3,0,0.6-0.3,0.6-0.6s-0.3-0.6-0.6-0.6H17.9z"/>
<path class="st13" d="M11.2,33.7h4.3c0.3,0,0.6-0.3,0.6-0.6s-0.3-0.6-0.6-0.6h-4.3c-0.3,0-0.6,0.3-0.6,0.6S10.8,33.7,11.2,33.7z"/>
</svg>
