<?xml version="1.0" encoding="utf-8"?>
<!-- Generator: Adobe Illustrator 24.0.1, SVG Export Plug-In . SVG Version: 6.00 Build 0)  -->
<svg version="1.1" id="Layer_1" xmlns="http://www.w3.org/2000/svg" xmlns:xlink="http://www.w3.org/1999/xlink" x="0px" y="0px"
	 viewBox="0 0 50 50" style="enable-background:new 0 0 50 50;" xml:space="preserve">
<style type="text/css">
	.st0{fill:#020203;}
	.st1{fill:#E5C00B;}
	.st2{fill:#2B4E9D;}
</style>
<path class="st0" d="M34.9,15.8c-0.8,0-1.4,0.6-1.4,1.4c0,0.8,0.6,1.4,1.4,1.4s1.4-0.6,1.4-1.4C36.3,16.4,35.7,15.8,34.9,15.8z"/>
<path class="st1" d="M48.9,18.6v-2.8H46c-0.1-1-0.4-2-0.8-2.9l2.5-1.4L46.3,9l-2.5,1.4c-0.6-0.8-1.3-1.5-2.2-2.2l1.4-2.5l-2.4-1.4
	l-1.4,2.5c-0.9-0.4-1.9-0.7-2.9-0.8V3.2h-2.8v2.9c-1,0.1-2,0.4-2.9,0.8l-1.4-2.5l-2.4,1.4l1.4,2.5c-0.8,0.6-1.5,1.3-2.2,2.2L23.5,9
	l-1.4,2.4l2.5,1.4c-0.4,0.9-0.7,1.9-0.8,2.9h-2.9v2.8h2.9c0.1,1,0.4,2,0.8,2.9L22.1,23l1.4,2.4L26,24c0.6,0.8,1.3,1.5,2.2,2.2
	l-1.4,2.5l2.4,1.4l1.4-2.5c0.9,0.4,1.9,0.7,2.9,0.8v2.9h2.8v-2.9c1-0.1,2-0.4,2.9-0.8l1.4,2.5l2.4-1.4l-1.4-2.5
	c0.8-0.6,1.5-1.3,2.2-2.2l2.5,1.4l1.4-2.4l-2.5-1.4c0.4-0.9,0.7-1.9,0.8-2.9L48.9,18.6L48.9,18.6z M34.9,21.4
	c-2.3,0-4.2-1.9-4.2-4.2c0-2.3,1.9-4.2,4.2-4.2s4.2,1.9,4.2,4.2C39.1,19.5,37.2,21.4,34.9,21.4z"/>
<path class="st2" d="M24.2,35.2l3.5-2.8c-4.5-2.1-7.8-6.1-9.1-11H2.9l17.3,13.8C21.4,36.1,23,36.1,24.2,35.2z"/>
<path class="st2" d="M1.1,23.6v21.1l13.2-10.5L1.1,23.6z"/>
<path class="st2" d="M30.8,33.5l-0.7,0.6l13.2,10.5V31.8C40.8,33.2,38,34,34.9,34C33.5,34,32.1,33.8,30.8,33.5z"/>
<path class="st2" d="M26,37.4c-1.1,0.9-2.4,1.3-3.8,1.3c-1.3,0-2.7-0.4-3.8-1.3l-1.8-1.5L2.9,46.8h38.7L27.8,35.9L26,37.4z"/>
</svg>
