<?xml version="1.0" encoding="utf-8"?>
<!-- Generator: Adobe Illustrator 19.0.0, SVG Export Plug-In . SVG Version: 6.00 Build 0)  -->
<svg version="1.1" id="Layer_1" xmlns="http://www.w3.org/2000/svg" xmlns:xlink="http://www.w3.org/1999/xlink" x="0px" y="0px"
	 viewBox="-99 1 512 512" style="enable-background:new -99 1 512 512;" xml:space="preserve">
<style type="text/css">
	.st0{fill:#FFFFFF;}
	.st1{fill:#010D28;}
	.st2{fill:#182C5E;}
	.st3{fill:#CECE00;}
	.st4{fill:#1CA300;}
	.st5{fill:#88AAD9;}
	.st6{fill:#F2F2AD;}
	.st7{fill:#FFFBC5;}
	.st8{fill:#5A84C4;}
</style>
<circle id="XMLID_8_" class="st0" cx="157.3" cy="257.7" r="254.3"/>
<g>
	<path class="st1" d="M156.5,432.5c-53.4,0-106.8,0-160.1,0c-8.6,0-10.8-2.2-10.8-10.9c0-70.2,0-140.4-0.1-210.6
		c0-4.7,1.8-7.6,5.4-10.1c18.5-13.3,36.9-26.8,55.4-40.1c1.7-1.2,2.2-2.5,2.2-4.5c-0.1-13.2-0.1-26.5,0-39.7c0-7,2.4-9.4,9.5-9.4
		c19.7,0,39.4,0,59.1,0c2.2,0,3.9-0.6,5.6-1.8c9.4-6.9,18.8-13.8,28.3-20.6c4.7-3.4,7.5-3.4,12.3,0.1c9.2,6.7,18.6,13.4,27.7,20.3
		c2.2,1.6,4.3,2.2,6.9,2.2c19.3-0.1,38.4-0.1,57.7,0c7.8,0,10.1,2.3,10.1,10.3c0,13,0.1,26-0.1,39c0,2.4,0.7,3.9,2.7,5.3
		c17.4,12.5,34.7,25.2,52.2,37.7c4.9,3.5,7.2,7.5,7.2,14c-0.3,69-0.2,138-0.2,207c0,1.6,0.1,3.4-0.2,5c-0.5,4.1-2.9,6.4-7,6.8
		c-1.4,0.2-2.9,0.1-4.3,0.1C262.7,432.5,209.6,432.5,156.5,432.5z M156.6,122.1c-30.2,0-60.4,0-90.6-0.1c-2.7,0-3.4,0.6-3.4,3.4
		c0.1,40.6,0.1,81.2,0,121.8c0,1.8,0.4,3,2,4.1c29.9,21.8,59.8,43.5,89.7,65.3c1.9,1.4,3,1.3,4.8-0.1c29.6-21.7,59.3-43.4,89-64.9
		c1.9-1.4,2.5-2.7,2.5-4.9c-0.1-40.2-0.1-80.5,0-120.7c0-3.5-1.1-4-4.1-4C216.5,122.1,186.6,122.1,156.6,122.1z M300.1,418.1
		c-1-0.9-1.3-1.2-1.6-1.5c-39.6-31.7-79.2-63.4-118.8-95.1c-1.6-1.3-2.5-1-3.9,0.1c-4.8,3.7-9.8,7.2-14.7,10.8c-3.1,2.3-6,2.3-9.2,0
		c-4.6-3.5-9.3-6.7-13.8-10.2c-2.2-1.7-3.5-1.6-5.7,0.1c-37.1,30-74.1,59.8-111.2,89.6c-2.3,1.9-4.7,3.8-7.6,6.2
		C109.4,418.1,204.4,418.1,300.1,418.1z M0.1,410.6c41.4-33.3,82.2-66.2,123.3-99.2c-41.1-30.1-82-59.9-123.3-90.1
		C0.1,284.5,0.1,347.1,0.1,410.6z M189.9,311.4c41,32.8,81.8,65.5,123,98.5c0-63.1,0-125.4,0-188.4
		C271.7,251.5,231,281.3,189.9,311.4z M48.3,176.6c-14.5,10.5-28.7,20.9-43.1,31.4c14.5,10.6,28.7,20.8,43.2,31.4
		C48.3,218.3,48.3,197.8,48.3,176.6z M307.6,208.1c-14-10.3-27.8-20.5-41.9-30.8c0,20.6,0,40.8,0,61.3
		C279.9,228.4,293.7,218.4,307.6,208.1z M143.9,106.8c8.8,0,16.8,0,25.4,0c-4.1-3.1-7.8-5.7-11.3-8.5c-1.1-0.9-1.8-0.6-2.8,0.2
		C151.7,101.1,148.1,103.7,143.9,106.8z"/>
	<path class="st2" d="M156.6,122.1c30,0,59.9,0,89.9-0.1c3.1,0,4.1,0.5,4.1,4c-0.2,40.2-0.1,80.5,0,120.7c0,2.2-0.6,3.6-2.5,4.9
		c-29.7,21.6-59.4,43.2-89,64.9c-1.8,1.3-2.9,1.5-4.8,0.1c-29.8-21.9-59.7-43.6-89.7-65.3c-1.6-1.1-2-2.3-2-4.1
		c0.1-40.6,0.1-81.2,0-121.8c0-2.8,0.8-3.4,3.4-3.4C96.2,122.1,126.4,122.1,156.6,122.1z M156.8,172.8c15.6,0,31.3-0.1,46.9,0.1
		c3.3,0.1,4.1-1,3.8-4c-0.3-2.6-0.2-5.3,0-7.9c0.1-1.8-0.4-2.5-2.4-2.5c-32,0.1-64,0.1-96,0c-1.8,0-2.6,0.4-2.5,2.4
		c0.2,2.9,0.3,5.7,0,8.6c-0.2,2.6,0.4,3.4,3.3,3.4C125.4,172.7,141.1,172.8,156.8,172.8z M156.8,204.1c-13,0-26,0-39,0
		c-3.5,0-8.6-1.3-10.4,0.5c-2.3,2.3-0.4,7.2-0.8,11c-0.3,2.3,0.8,2.8,2.9,2.8c9-0.1,17.9-0.1,26.9-0.1c22.5,0,45.1-0.1,67.6,0.1
		c2.9,0,3.8-0.9,3.5-3.6c-0.3-2.3-0.3-4.8,0-7.2c0.3-2.8-0.5-3.6-3.5-3.6C188.2,204.2,172.5,204.1,156.8,204.1z M156.8,263.7
		c15.9,0,31.8,0,47.6,0c2.2,0,3.3-0.3,3.1-2.9c-0.3-2.9-0.2-6,0-9c0.1-1.8-0.4-2.5-2.4-2.5c-32,0.1-64,0.1-96,0
		c-1.8,0-2.6,0.4-2.4,2.4c0.2,2.9,0.3,5.8,0,8.6c-0.3,2.6,0.5,3.4,3.3,3.4C125.5,263.7,141.1,263.7,156.8,263.7z"/>
	<path id="XMLID_7_" class="st3" d="M300.1,418.1c-95.8,0-190.7,0-286.5,0c2.9-2.4,5.2-4.3,7.6-6.2c37.1-29.9,74.2-59.7,111.2-89.6
		c2.2-1.7,3.5-1.8,5.7-0.1c4.5,3.5,9.2,6.8,13.8,10.2c3.1,2.3,6,2.3,9.2,0c4.9-3.6,9.8-7.2,14.7-10.8c1.5-1.1,2.3-1.3,3.9-0.1
		c39.6,31.7,79.2,63.4,118.8,95.1C298.8,416.8,299.2,417.2,300.1,418.1z"/>
	<path id="XMLID_6_" class="st3" d="M0.1,410.6c0-63.4,0-126,0-189.3c41.3,30.1,82.1,60,123.3,90.1C82.2,344.4,41.4,377.3,0.1,410.6
		z"/>
	<path id="XMLID_5_" class="st3" d="M189.9,311.4c41-30,81.8-59.8,123-89.9c0,63,0,125.3,0,188.4C271.7,376.9,231,344.2,189.9,311.4
		z"/>
	<path id="XMLID_4_" class="st3" d="M48.3,176.6c0,21.2,0,41.7,0,62.7c-14.5-10.5-28.6-20.8-43.2-31.4
		C19.6,197.5,33.8,187.1,48.3,176.6z"/>
	<path id="XMLID_3_" class="st3" d="M307.6,208.1c-14,10.2-27.8,20.2-41.9,30.5c0-20.5,0-40.6,0-61.3
		C279.9,187.7,293.7,197.8,307.6,208.1z"/>
	<path id="XMLID_2_" class="st3" d="M143.9,106.8c4.2-3.1,7.8-5.7,11.3-8.3c1-0.7,1.6-1,2.8-0.2c3.5,2.8,7.2,5.4,11.3,8.5
		C160.6,106.8,152.7,106.8,143.9,106.8z"/>
</g>
<g id="XMLID_32_">
	<path id="XMLID_29_" class="st4" d="M213.7,193.8h-8c-1.6-6.7-4.2-13.1-7.9-19l5.7-5.7c2-2,2-5.3,0-7.3l-13-13c-2-2-4.1,2.8-6,4.8
		l-5.8-2.9c-5.8-3.6-4.7-2.5-11.5-4.1v-8c0-2.9-2.3-5.1-5.1-5.1h-18.5c-2.9,0-5.1,2.3-5.1,5.1v8c-6.7,1.6-13.1,4.2-19,7.9l-5.7-5.7
		c-1-1-2.2-1.5-3.6-1.5c-1.4,0-2.7,0.5-3.6,1.5l-13,13c-1,1-1.5,2.2-1.5,3.6c0,1.4,0.5,2.7,1.5,3.6l5.7,5.7
		c-3.6,5.9-6.3,12.3-7.9,19h-8c-1.4,0-2.7,0.5-3.6,1.5s-1.5,2.2-1.5,3.6v18.5c0,2.9,2.3,5.1,5.1,5.1h8c1.6,6.7,4.2,13.1,7.9,19
		l-5.7,5.7c-2,2-2,5.3,0,7.3l13,13c2,2,5.3,2,7.3,0l5.7-5.7c5.9,3.6,12.3,6.3,19,7.9v8c0,2.9,2.3,5.1,5.1,5.1H162
		c1.4,0,2.7-0.5,3.6-1.5s1.5-2.2,1.5-3.6v-8c6.8-1.6,5.7-0.5,11.5-4.1l0,0c5.8-1.8,12.4,1.4,17.4-3.8l7.4-7.4c2-2,2-5.3,0-7.3
		l-5.7-5.7c3.6-5.9,6.3-12.3,7.9-19h8c1.4,0,2.7-0.5,3.6-1.5c1-1,1.5-2.2,1.5-3.6v-18.5c0-1.4-0.5-2.7-1.5-3.6
		C216.4,194.4,215.1,193.8,213.7,193.8z"/>
	<path id="XMLID_30_" class="st3" d="M222.3,193.8h-8c-1.6-6.7-4.2-13.1-7.9-19l5.7-5.7c2-2,2-5.3,0-7.3l-13-13c-2-2-5.3-2-7.3,0
		l-5.7,5.7c-5.9-3.6-12.3-6.3-19-7.9v-8c0-1.4-0.5-2.7-1.5-3.6c-1-1-2.2-1.5-3.6-1.5h-18.5c-1.4,0-2.7,0.5-3.6,1.5
		c-1,1-1.5,2.2-1.5,3.6v8c-6.7,1.6-13.1,4.2-19,7.9l-5.7-5.7c-2-2-5.3-2-7.3,0l-13,13c-2,2-2,5.3,0,7.3l5.7,5.7
		c-3.6,5.9-6.3,12.3-7.9,19h-8c-1.4,0-2.7,0.5-3.6,1.5c-1,1-1.5,2.2-1.5,3.6v18.5c0,1.4,0.5,2.7,1.5,3.6s2.2,1.5,3.6,1.5h8
		c1.6,6.7,4.2,13.1,7.9,19l-5.7,5.7c-2,2-2,5.3,0,7.3l13,13c2,2,5.3,2,7.3,0l5.7-5.7c5.9,3.6,12.3,6.3,19,7.9v8
		c0,1.4,0.5,2.7,1.5,3.6c1,1,2.2,1.5,3.6,1.5H162c1.4,0,2.7-0.5,3.6-1.5c1-1,1.5-2.2,1.5-3.6v-8c6.7-1.6,13.1-4.2,19-7.9l5.7,5.7
		c2,2,5.3,2,7.3,0l13-13c2-2,2-5.3,0-7.3l-5.7-5.7c3.6-5.9,6.3-12.3,7.9-19h8c1.4,0,2.7-0.5,3.6-1.5c1-1,1.5-2.2,1.5-3.6v-18.5
		c0-1.4-0.5-2.7-1.5-3.6C225,194.4,223.7,193.8,222.3,193.8L222.3,193.8z"/>
	<circle id="XMLID_28_" class="st5" cx="152.7" cy="208.3" r="37.4"/>
	<path id="XMLID_27_" class="st6" d="M83.1,222.6h8c1.6,6.7,4.2,13.1,7.9,19l-5.7,5.7c-1,1-1.5,2.2-1.5,3.6s0.5,2.7,1.5,3.6l13,13
		c2,2,5.3,2,7.3,0l0.7-0.7l-12.4-12.4c-2-2-2-5.3,0-7.3l5.7-5.7c-3.6-5.9-6.3-12.3-7.9-19h-8c-1.4,0-2.7-0.5-3.6-1.5
		c-1-1-1.5-2.2-1.5-3.6V199c0-2.9,2.3-5.1,5.1-5.1h8c1.6-6.7,4.2-13.1,7.9-19l-5.7-5.7c-2-2-2-5.3,0-7.3l7.4-7.4
		c1.9-1.8,4.3-2.9,6.9-3l-2.7-2.7c-2-2-5.3-2-7.3,0l-13,13c-2,2-2,5.3,0,7.3l5.7,5.7c-3.6,5.9-6.3,12.3-7.9,19h-8
		c-2.9,0-5.1,2.3-5.1,5.1v18.5c0,1.4,0.5,2.7,1.5,3.6C80.4,222.1,81.7,222.6,83.1,222.6L83.1,222.6z"/>
	<circle id="XMLID_26_" class="st0" cx="152.7" cy="208.3" r="25.8"/>
	<g id="XMLID_33_">
		<path id="XMLID_40_" class="st0" d="M152.7,248.5c-22.2,0-40.2-18.1-40.2-40.2s18.1-40.2,40.2-40.2s40.2,18.1,40.2,40.2
			C192.9,230.5,174.9,248.4,152.7,248.5z M152.7,173.8c-19.1,0-34.5,15.5-34.5,34.5s15.5,34.5,34.5,34.5s34.5-15.5,34.5-34.5
			C187.2,189.2,171.7,173.8,152.7,173.8z"/>
		<path id="XMLID_37_" class="st7" d="M161.9,285.8h-18.5c-4.4,0-7.9-3.5-8-8V272c-5.5-1.5-10.8-3.6-15.7-6.5l-4.1,4.1
			c-3.2,3-8.1,3-11.3,0l-13-13c-3.1-3.1-3.1-8.2,0-11.3l4.1-4.1c-2.9-4.9-5-10.2-6.5-15.7h-5.8c-4.4,0-7.9-3.5-8-8v-18.5
			c0-4.4,3.5-7.9,8-8h5.8c1.5-5.5,3.6-10.8,6.5-15.7l-4.1-4.1c-3.1-3.1-3.1-8.2,0-11.3l13-13c3.2-3,8.1-3,11.3,0l4.1,4.1
			c4.9-2.9,10.2-5,15.7-6.5v-5.8c0-4.4,3.5-7.9,8-8h18.5c4.4,0,7.9,3.5,8,8v5.8c5.5,1.5,10.8,3.6,15.7,6.5l4.1-4.1
			c3.2-3,8.1-3,11.3,0l13,13c3.1,3.1,3.1,8.2,0,11.3l-4.1,4.1c2.9,4.9,5,10.2,6.5,15.7h5.8c4.4,0,7.9,3.5,8,8v18.5
			c0,4.4-3.5,7.9-8,8h-5.8c-1.5,5.5-3.6,10.8-6.5,15.7l4.1,4.1c3.1,3.1,3.1,8.2,0,11.3L201,269.7c-3.2,3-8.1,3-11.3,0l-4.1-4.1
			c-4.9,2.9-10.2,5-15.7,6.5v5.8C170,282.3,166.3,285.8,161.9,285.8z M119.4,259c0.5,0,1,0.2,1.6,0.4c5.6,3.5,11.7,6,18.1,7.5
			c1.3,0.3,2.2,1.5,2.2,2.8v8c0,1.2,1,2.2,2.2,2.2H162c1.2,0,2.2-1,2.2-2.2v-8c0-1.3,1-2.5,2.2-2.8c6.4-1.5,12.5-4.1,18.1-7.5
			c1.1-0.7,2.6-0.5,3.5,0.4l5.7,5.7c0.9,0.9,2.3,0.9,3.2,0l13-13c0.9-0.9,0.9-2.3,0-3.2l-5.7-5.7c-1-1-1.1-2.4-0.4-3.5
			c3.5-5.6,6-11.7,7.5-18.1c0.3-1.3,1.5-2.2,2.8-2.2h8c1.2,0,2.2-1,2.2-2.2V199c0-1.2-1-2.2-2.2-2.2h-8c-1.3,0-2.5-1-2.8-2.2
			c-1.5-6.4-4.1-12.5-7.5-18.1c-0.7-1.1-0.5-2.6,0.4-3.5l5.7-5.7c0.9-0.9,0.9-2.3,0-3.2l-13-13c-0.9-0.9-2.3-0.9-3.2,0l-5.7,5.7
			c-1,1-2.4,1.1-3.5,0.4c-5.6-3.5-11.7-6-18.1-7.5c-1.3-0.3-2.2-1.5-2.2-2.8v-8c0-1.2-1-2.2-2.2-2.2h-18.5c-1.2,0-2.2,1-2.2,2.2v8
			c0,1.3-1,2.5-2.2,2.8c-6.4,1.5-12.5,4.1-18.1,7.5c-1.1,0.7-2.6,0.5-3.5-0.4l-5.7-5.7c-0.9-0.9-2.3-0.9-3.2,0l-13,13
			c-0.9,0.9-0.9,2.3,0,3.2l5.7,5.7c1,1,1.1,2.4,0.4,3.5c-3.5,5.6-6,11.7-7.5,18.1c-0.3,1.3-1.5,2.2-2.8,2.2h-8c-1.2,0-2.2,1-2.2,2.2
			v18.5c0,1.2,1,2.2,2.2,2.2h8c1.3,0,2.5,1,2.8,2.2c1.5,6.4,4.1,12.5,7.5,18.1c0.7,1.1,0.5,2.6-0.4,3.5l-5.7,5.7
			c-0.9,0.9-0.9,2.3,0,3.2l13,13c0.9,0.9,2.3,0.9,3.2,0l5.7-5.7C117.8,259.4,118.6,259,119.4,259L119.4,259z"/>
		<path id="XMLID_34_" class="st8" d="M152.7,237c-15.9,0-28.8-12.9-28.8-28.8s12.9-28.8,28.8-28.8s28.8,12.9,28.8,28.8
			C181.4,224.1,168.6,236.9,152.7,237z M152.7,185.3c-12.7,0-23,10.3-23,23c0,12.7,10.3,23,23,23s23-10.3,23-23
			C175.7,195.6,165.4,185.3,152.7,185.3L152.7,185.3z"/>
	</g>
</g>
</svg>
