<?xml version="1.0" encoding="utf-8"?>
<!-- Generator: Adobe Illustrator 24.0.1, SVG Export Plug-In . SVG Version: 6.00 Build 0)  -->
<svg version="1.1" id="Layer_1" xmlns="http://www.w3.org/2000/svg" xmlns:xlink="http://www.w3.org/1999/xlink" x="0px" y="0px"
	 viewBox="0 0 50 50" style="enable-background:new 0 0 50 50;" xml:space="preserve">
<style type="text/css">
	.st0{fill-rule:evenodd;clip-rule:evenodd;fill:#EFF6FD;}
	.st1{fill-rule:evenodd;clip-rule:evenodd;fill:#8FBF21;}
	.st2{fill-rule:evenodd;clip-rule:evenodd;fill:#DADC22;}
	.st3{fill-rule:evenodd;clip-rule:evenodd;fill:#CDDF9D;}
	.st4{fill-rule:evenodd;clip-rule:evenodd;fill:#F18C95;}
	.st5{fill-rule:evenodd;clip-rule:evenodd;fill:#A4D2F2;}
	.st6{fill-rule:evenodd;clip-rule:evenodd;fill:#ED6D76;}
	.st7{fill-rule:evenodd;clip-rule:evenodd;fill:#B5D69E;}
	.st8{fill-rule:evenodd;clip-rule:evenodd;fill:#88BDE7;}
	.st9{fill-rule:evenodd;clip-rule:evenodd;fill:#DAEEFC;}
	.st10{fill:#020203;}
</style>
<g>
	<g>
		<path class="st0" d="M46.4,42.2V15.8H4.2v26.4c0,0.2,0.2,0.4,0.4,0.4h41.3C46.2,42.7,46.4,42.5,46.4,42.2L46.4,42.2z"/>
	</g>
	<g>
		<path class="st1" d="M31.5,37.7L17.1,26.2l-0.7,2.5l9.6,12L31.5,37.7z"/>
	</g>
	<g>
		<path class="st2" d="M26,40.7l-9.6-12l-1.1,3.9l7.8,9.7L26,40.7z"/>
	</g>
	<g>
		<path class="st2" d="M23.1,42.3l-7.8-9.7l-1.6,5.6l3.6,4.5l1.6,2l3.6-2L23.1,42.3z"/>
	</g>
	<g>
		<path class="st3" d="M17.3,42.7l-3.6-4.5l-1.1,3.9l0.5,0.6l2.9,3.6l3-1.6L17.3,42.7z"/>
	</g>
	<g>
		<path class="st4" d="M15.9,46.3L13,42.7l-0.5-0.6l-0.2,0.6L11,47.3c-0.2,0.9-0.1,1.2,0.3,1.3h0c0.2,0,0.5-0.1,0.9-0.3L15.9,46.3z"
			/>
	</g>
	<g>
		<path class="st5" d="M4.2,16.8h42.2v-4.3H18.5H4.2V16.8z"/>
	</g>
	<g>
		<path class="st2" d="M18.5,13.4h27.9V6.2c0-0.2-0.2-0.4-0.4-0.4c-13.8,0-27.5,0-41.3,0C4.4,5.8,4.2,6,4.2,6.2v7.2H18.5z"/>
	</g>
	<g>
		<path class="st6" d="M11.8,44.5L11,47.3c-0.2,0.9-0.1,1.2,0.3,1.3h0c0.2,0,0.5-0.1,0.9-0.3l3.6-2l-2.2-2.8L11.8,44.5z"/>
	</g>
	<g>
		<path class="st7" d="M13.6,43.5l2.2,2.8l3-1.6l-1.6-2l-0.6-0.8l-1.5,0.8L13.6,43.5z"/>
	</g>
	<g>
		<path class="st6" d="M16.6,41.9l0.6,0.8l1.6,2l3.6-2l0.6-0.3l-2.2-2.8L16.6,41.9z"/>
	</g>
	<g>
		<path class="st7" d="M20.8,39.6l2.2,2.8l3-1.6l-2.2-2.8L20.8,39.6z"/>
	</g>
	<g>
		<path class="st6" d="M23.8,37.9l2.2,2.8l5.5-3l-3-2.4L23.8,37.9z"/>
	</g>
	<g>
		<path class="st1" d="M42.5,5.8v6.7v0.9h3.9v-0.9V6.2c0-0.2-0.2-0.4-0.4-0.4h-2.8H42.5z"/>
	</g>
	<g>
		<path class="st8" d="M42.5,13.4v2.4v0.9h3.9v-0.9v-2.4H42.5z"/>
	</g>
	<g>
		<path class="st9" d="M42.5,16.8v25.9H44h1.9c0.2,0,0.4-0.2,0.4-0.4V16.8H42.5z"/>
	</g>
	<g>
		<path class="st9" d="M4.2,16.8h42.2v2.9H4.2V16.8z"/>
	</g>
	<g>
		<path class="st10" d="M27.9,26.7c0.1,0.1,0.3,0.2,0.4,0.2c0.2,0,0.4-0.1,0.6-0.3l2.6-3.3c0.2-0.3,0.2-0.8-0.1-1
			c-0.3-0.2-0.8-0.2-1,0.1l-2.6,3.3C27.6,26.1,27.6,26.5,27.9,26.7L27.9,26.7z"/>
		<path class="st10" d="M22.8,27.7c0.1,0.1,0.3,0.2,0.5,0.2c0.2,0,0.4-0.1,0.5-0.2c1-1.1,2.1-2.5,2.9-4.1c0.2-0.3,0-0.8-0.3-1
			c-0.3-0.2-0.8,0-1,0.3c-0.8,1.5-1.8,2.8-2.7,3.8C22.5,27,22.5,27.5,22.8,27.7L22.8,27.7z"/>
		<path class="st10" d="M27.9,30.9c-0.2,0.3-0.2,0.8,0.2,1c0.1,0.1,0.3,0.1,0.4,0.1c0.2,0,0.4-0.1,0.6-0.3c0.8-1.1,1.8-2.4,3.1-3.5
			c0.3-0.3,0.3-0.7,0.1-1s-0.7-0.3-1-0.1C29.9,28.4,28.8,29.8,27.9,30.9L27.9,30.9z"/>
		<path class="st10" d="M31.3,34.6c0.1,0.1,0.3,0.1,0.4,0.1c0.2,0,0.4-0.1,0.6-0.3c1.2-1.7,2.8-3.5,5.6-3.6c0.4,0,0.7-0.4,0.7-0.7
			c0-0.4-0.4-0.7-0.7-0.7c-3.4,0.2-5.4,2.3-6.7,4.2C31,33.9,31,34.3,31.3,34.6L31.3,34.6z"/>
		<path class="st10" d="M21.6,20.2c-0.4,0-0.7,0.4-0.6,0.8c0.1,1.2-0.3,2.1-0.7,2.7c-0.2,0.3-0.1,0.8,0.2,1c0.1,0.1,0.2,0.1,0.4,0.1
			c0.2,0,0.5-0.1,0.6-0.3c0.5-0.8,1-2,0.8-3.6C22.4,20.5,22,20.2,21.6,20.2L21.6,20.2z"/>
		<path class="st10" d="M45.9,5.1h-3.2v-1c0-1.8-1.5-3.3-3.3-3.3c-1.8,0-3.3,1.5-3.3,3.3v1h-2.7v-1c0-1.8-1.5-3.3-3.3-3.3
			c-1.8,0-3.3,1.5-3.3,3.3v1h-2.7v-1c0-1.8-1.5-3.3-3.3-3.3c-1.8,0-3.3,1.5-3.3,3.3v1H15v-1c0-1.8-1.5-3.3-3.3-3.3
			c-1.8,0-3.3,1.5-3.3,3.3v1H4.6C4,5.1,3.5,5.6,3.5,6.2v36c0,0.6,0.5,1.1,1.1,1.1h6.8l-1.1,3.7c0,0,0,0,0,0
			c-0.1,0.7-0.2,1.4,0.3,1.9c0.2,0.2,0.5,0.2,0.7,0.2c0.4,0,0.8-0.2,1.2-0.3c0,0,0,0,0,0l10.1-5.5h23.3c0.6,0,1.1-0.5,1.1-1.1v-36
			C47.1,5.6,46.6,5.1,45.9,5.1L45.9,5.1z M37.6,4.1c0-1,0.8-1.9,1.9-1.9c1,0,1.9,0.8,1.9,1.9v1h-3.7V4.1z M28.4,4.1
			c0-1,0.8-1.9,1.9-1.9c1,0,1.9,0.8,1.9,1.9v1h-3.7V4.1z M19.1,4.1c0-1,0.8-1.9,1.9-1.9c1,0,1.9,0.8,1.9,1.9v1h-3.7V4.1z M9.9,4.1
			c0-1,0.8-1.9,1.9-1.9c1,0,1.9,0.8,1.9,1.9v1H9.9V4.1z M11.9,47.6c-0.1,0-0.2,0.1-0.2,0.1c0-0.1,0-0.2,0.1-0.3l1.1-3.8l2,2.4
			L11.9,47.6z M16,45.4l-2.7-3.4l0.7-2.3l3.8,4.7L16,45.4z M19,43.7L14.4,38l1.1-3.9l6.4,8L19,43.7z M23.2,41.4l-7.2-9l0.7-2.3
			l2.6,3.3c0.1,0.2,0.3,0.3,0.6,0.3c0.2,0,0.3-0.1,0.4-0.2c0.3-0.2,0.4-0.7,0.1-1l-3.2-4.1l0.3-1.1l6.2,5l6.5,5.2l-4,2.2l-3.7-4.6
			c-0.2-0.3-0.7-0.4-1-0.1c-0.3,0.2-0.4,0.7-0.1,1l3.5,4.4L23.2,41.4z M45.6,16.1H26.8c-0.4,0-0.7,0.3-0.7,0.7
			c0,0.4,0.3,0.7,0.7,0.7h18.9V42H25.2l6.2-3.4l0.9,0.8c0.1,0.1,0.3,0.2,0.4,0.2c0.2,0,0.4-0.1,0.6-0.3c0.2-0.3,0.2-0.8-0.1-1
			l-17-13.6c-0.3-0.2-0.8-0.2-1,0.1c-0.2,0.3-0.2,0.8,0.1,1l0.9,0.8l-4.4,15.4c0,0,0,0,0,0.1l0,0H4.9V17.5h18.6
			c0.4,0,0.7-0.3,0.7-0.7c0-0.4-0.3-0.7-0.7-0.7H4.9v-1.9h40.7L45.6,16.1z M45.6,12.7H4.9V6.5h3.6v1c0,1.8,1.5,3.3,3.3,3.3
			c0.4,0,0.7-0.3,0.7-0.7c0-0.4-0.3-0.7-0.7-0.7c-1,0-1.9-0.8-1.9-1.9v-1h7.8v1c0,1.8,1.5,3.3,3.3,3.3c0.4,0,0.7-0.3,0.7-0.7
			c0-0.4-0.3-0.7-0.7-0.7c-1,0-1.9-0.8-1.9-1.9v-1h7.8v1c0,1.8,1.5,3.3,3.3,3.3c0.4,0,0.7-0.3,0.7-0.7c0-0.4-0.3-0.7-0.7-0.7
			c-1,0-1.9-0.8-1.9-1.9v-1h7.8v1c0,1.8,1.5,3.3,3.3,3.3c0.4,0,0.7-0.3,0.7-0.7c0-0.4-0.3-0.7-0.7-0.7c-1,0-1.9-0.8-1.9-1.9v-1h8
			L45.6,12.7z"/>
	</g>
</g>
</svg>
