<?xml version="1.0" encoding="utf-8"?>
<!-- Generator: Adobe Illustrator 19.0.0, SVG Export Plug-In . SVG Version: 6.00 Build 0)  -->
<svg version="1.1" id="Layer_1" xmlns="http://www.w3.org/2000/svg" xmlns:xlink="http://www.w3.org/1999/xlink" x="0px" y="0px"
	 viewBox="0 0 512 512" style="enable-background:new 0 0 512 512;" xml:space="preserve">
<style type="text/css">
	.st0{fill:#FFFFFF;}
	.st1{fill:#64FF00;}
	.st2{fill:#A3AF00;}
	.st3{fill:#D7BDFF;}
	.st4{fill:#CFD0D0;}
	.st5{fill:#FDB62D;}
	.st6{fill:#FAA234;}
	.st7{fill:#B76002;}
	.st8{fill:#010101;}
</style>
<circle id="XMLID_1_" class="st0" cx="256.3" cy="251.4" r="254.3"/>
<g>
	<polygon class="st1" points="256.4,65 80,162.2 80,417.6 110.5,417.6 110.5,198.7 402.3,198.7 402.3,417.6 432.7,417.6 
		432.7,168.4 	"/>
	<g>
		<path class="st2" d="M402.3,417.6h30.4V220.2c-10,7.1-20.2,13.8-30.4,20.2V417.6z"/>
		<path class="st2" d="M80,417.6h30.4v-56.5c-10.5,2.6-20.6,4.8-30.4,6.9C80,368.1,80,417.6,80,417.6z"/>
	</g>
	<rect x="110.5" y="198.7" class="st3" width="291.8" height="48.7"/>
	<rect x="110.5" y="217" class="st4" width="291.8" height="12.2"/>
	<rect x="225.9" y="150.1" class="st3" width="60.8" height="24.3"/>
	<rect x="305" y="271.7" class="st5" width="73" height="73"/>
	<rect x="329.3" y="271.7" class="st3" width="24.3" height="24.3"/>
	<path class="st6" d="M305,344.6h73v-49.2c-20.9,17.6-46.1,29.6-73,34.8V344.6z"/>
	<rect x="305" y="344.6" class="st5" width="73" height="73"/>
	<rect x="329.3" y="344.6" class="st3" width="24.3" height="24.3"/>
	<path class="st6" d="M305,417.6h73v-49.2C357,386,331.9,398,305,403.3V417.6z"/>
	<rect x="232.1" y="344.6" class="st5" width="73" height="73"/>
	<rect x="256.4" y="344.6" class="st3" width="24.3" height="24.3"/>
	<path class="st6" d="M232.1,417.6h73v-49.2c-20.9,17.6-46.1,29.6-73,34.8V417.6z"/>
	<rect x="225.9" y="174.4" class="st7" width="60.8" height="12.2"/>
	<path class="st8" d="M435.8,163.1L259.5,59.8c-1.9-1.1-4.2-1.1-6.1,0L77.1,157c-1.9,1.1-3.1,3.1-3.1,5.2v255.3
		c0,3.3,2.7,6.1,6.1,6.1h30.4c3.3,0,6.1-2.7,6.1-6.1V253.4h279.6v164.1c0,3.3,2.7,6.1,6.1,6.1h30.4c3.3,0,6.1-2.7,6.1-6.1V168.4
		C438.7,166.2,437.6,164.2,435.8,163.1z M396.2,217H116.5v-12.2h279.6L396.2,217L396.2,217z M116.5,241.3v-12.2h279.6v12.2H116.5z
		 M426.6,411.5h-18.2V198.7c0-3.3-2.7-6.1-6.1-6.1H110.5c-3.3,0-6.1,2.7-6.1,6.1v212.8H86.2V165.9L256.4,72l170.2,99.8V411.5
		L426.6,411.5z"/>
	<path class="st8" d="M305,423.7h73c3.3,0,6.1-2.7,6.1-6.1v-146c0-3.3-2.7-6.1-6.1-6.1h-73c-3.3,0-6.1,2.7-6.1,6.1v66.9h-66.9
		c-3.3,0-6.1,2.7-6.1,6.1v73c0,3.3,2.7,6.1,6.1,6.1L305,423.7L305,423.7z M371.8,411.5h-60.8v-60.8h12.2V369c0,3.3,2.7,6.1,6.1,6.1
		h24.3c3.3,0,6.1-2.7,6.1-6.1v-18.2h12.2V411.5L371.8,411.5z M335.4,350.8h12.2v12.2h-12.2V350.8z M335.4,277.8h12.2V290h-12.2
		V277.8z M311.1,277.8h12.2V296c0,3.3,2.7,6.1,6.1,6.1h24.3c3.3,0,6.1-2.7,6.1-6.1v-18.2h12.2v60.8h-60.8V277.8z M262.4,350.8h12.2
		v12.2h-12.2V350.8L262.4,350.8z M238.1,350.8h12.2V369c0,3.3,2.7,6.1,6.1,6.1h24.3c3.3,0,6.1-2.7,6.1-6.1v-18.2h12.2v60.8h-60.8
		L238.1,350.8L238.1,350.8z"/>
	<path class="st8" d="M219.9,150.1v24.3c0,3.3,2.7,6.1,6.1,6.1h60.8c3.3,0,6.1-2.7,6.1-6.1v-24.3c0-3.3-2.7-6.1-6.1-6.1h-60.8
		C222.6,144,219.9,146.8,219.9,150.1z M232.1,156.2h48.7v12.2h-48.7L232.1,156.2L232.1,156.2z"/>
</g>
</svg>
