<?xml version="1.0" encoding="utf-8"?>
<!-- Generator: Adobe Illustrator 19.0.0, SVG Export Plug-In . SVG Version: 6.00 Build 0)  -->
<svg version="1.1" id="Layer_1" xmlns="http://www.w3.org/2000/svg" xmlns:xlink="http://www.w3.org/1999/xlink" x="0px" y="0px"
	 viewBox="-15 1 512 512" style="enable-background:new -15 1 512 512;" xml:space="preserve">
<style type="text/css">
	.st0{fill:#DCED03;}
	.st1{fill:#FFFFFF;}
	.st2{fill:#FF8B00;}
	.st3{fill:#58FF00;}
	.st4{fill:#FFFF00;}
	.st5{fill:#0A0A0A;}
	.st6{fill:#DCED03;stroke:#020202;stroke-width:10;stroke-miterlimit:10;}
</style>
<polyline class="st0" points="180.8,234.7 71,230 71,115.1 107.7,86 186,86 "/>
<circle id="XMLID_1_" class="st1" cx="241.3" cy="257.7" r="254.3"/>
<polygon class="st2" points="341.9,106.6 297,332.4 318.7,335.4 335.9,345.6 341.9,345.6 372,234.7 353.2,199 364.4,142.8 
	342,138.8 347.8,106.6 "/>
<path class="st3" d="M347.8,106.6l-5.8,32.1l58,10.2l10.6-6.2c0,0-5-6.8,0-8.8s4.4-6.2,4.4-6.2l-4.4-6.8L347.8,106.6z"/>
<path class="st4" d="M186,196l132.5,28.3L297,332.4c0,0-13.9-5.6-32.2,15.2s-16.7,23.7-15.1,36.5H244L115.3,364l-14.9-13
	c0,0-7.3-24.6-2.3-21.5s9.7-7.5,9.7-7.5l9.3-5l20.6-82.3l43.1,4.8L186,196z"/>
<g>
	<path class="st4" d="M88.8,138.8h80.4v78.7H88.8V138.8z"/>
	<path class="st5" d="M123.3,191.1l-15.6-15.6l8.1-8.1l7.5,7.5l36.1-36.1l8.1,8.1L123.3,191.1z"/>
	<path d="M405.8,114.1L343,101.5L317,217l-124.8-25V79.6h-88.6l-37.9,37.9v123h63.4l-16.3,75.1c-7.2,1.3-13,6.7-14.9,13.9l-2.9,11.6
		c-0.4,1.4-0.5,2.9-0.5,4.3c0,8.5,6.1,15.9,14.5,17.5l145.3,26.9l2.1-11.3l-145.3-26.9c-3-0.6-5.2-3.2-5.2-6.2c0-0.5,0.1-1,0.2-1.5
		l2.9-11.6c0.9-3.7,4.8-6.2,8.5-5.4L268.2,357l2.2-11.3l-146-29.2l16.5-76h51.4v-36.6l15.2,3l-10.8,38.1l68.7,13.8l10.8-38.1
		l38.4,7.7l-24.4,108.6l11.2,2.5l44-195.8l12.6,2.5l-44.9,196.4l11.2,2.6l9.1-39.6l14.4,2.9l-11.7,51.4l11.2,2.5L376.4,234
		L358,197.5l11.2-49.1l27.4,5.5c1.3,0.3,2.7,0.4,4,0.4h1.3c11.2,0,20.3-9.1,20.3-20.3C422.1,124.4,415.3,116,405.8,114.1z
		 M100.3,99.2V114H85.5L100.3,99.2z M180.8,229H77.3V125.5h34.5V91.1h69V229z M228.4,239.5l-17.5-3.5l7.7-26.9l17.5,3.5L228.4,239.5
		z M257.1,245.3l-17.5-3.5l7.7-26.9l17.5,3.5L257.1,245.3z M350.3,297.2l-14.4-2.9l9.5-41.5l14.4,2.9L350.3,297.2z M364.4,235.4
		l-2.1,9.1l-14.3-2.9l6.1-26.6L364.4,235.4z M401.9,142.8h-1.3c-0.6,0-1.1-0.1-1.7-0.1l-51-10.2l3.9-17.4l51.8,10.3
		c4.1,0.8,7,4.5,7,8.6C410.6,138.8,406.7,142.8,401.9,142.8z"/>
	<path class="st6" d="M301.4,332.4c-28.5,0-51.7,23.2-51.7,51.7c0,28.5,23.2,51.7,51.7,51.7s51.7-23.2,51.7-51.7
		C353.2,355.6,330,332.4,301.4,332.4z"/>
	<path d="M301.4,412.8c-15.9,0-28.7-12.9-28.7-28.7c0-15.9,12.9-28.7,28.7-28.7s28.7,12.9,28.7,28.7
		C330.2,400,317.3,412.8,301.4,412.8z M301.4,366.9c-9.5,0-17.2,7.8-17.2,17.2c0,9.5,7.8,17.2,17.2,17.2c9.5,0,17.2-7.8,17.2-17.2
		C318.7,374.6,310.9,366.9,301.4,366.9z"/>
</g>
</svg>
