<?xml version="1.0" encoding="utf-8"?>
<!-- Generator: Adobe Illustrator 19.0.0, SVG Export Plug-In . SVG Version: 6.00 Build 0)  -->
<svg version="1.1" id="Capa_1" xmlns="http://www.w3.org/2000/svg" xmlns:xlink="http://www.w3.org/1999/xlink" x="0px" y="0px"
	 viewBox="-226.5 0.5 512 512" style="enable-background:new -226.5 0.5 512 512;" xml:space="preserve">
<style type="text/css">
	.st0{fill:#FFFFFF;}
	.st1{fill:#FFE600;}
	.st2{fill:#01081E;}
	.st3{fill:#A35D17;}
	.st4{fill:#6B400C;}
	.st5{fill:#F4AD31;}
	.st6{fill:#DD820A;}
	.st7{fill:#191919;}
	.st8{fill:#565656;}
	.st9{fill:#3D3D3D;}
	.st10{fill:#0C0C0C;}
	.st11{fill:#2D2D2D;}
</style>
<circle id="XMLID_1_" class="st0" cx="29.9" cy="256.8" r="254.3"/>
<polyline class="st1" points="-107.1,426.7 166,435.2 166,263.3 29.5,145.2 -107.1,262.8 "/>
<g>
	<g>
		<g>
			<path class="st2" d="M35.8,137c-3.4-3-8.5-3-12,0l-138.3,119.3c-2,1.7-3.1,179.6-3.1,179.6c0,5.1,4.1,9.2,9.2,9.2h276.6
				c5.1,0,9.2-4.1,9.2-9.2V263.3c0-2.7-1.1-5.2-3.1-6.9L35.8,137z M159,426.7H-99.4V267.5L29.7,156.1L159,267.5V426.7L159,426.7z"/>
			<path class="st2" d="M225.4,231.1L41.8,73.1c-6.9-6-17-6-23.9,0L-165.7,231c-7.7,6.7-8.5,18.1-2,25.9c6.7,7.7,18.3,8.5,25.9,2
				L29.9,111.3l171.6,147.5c3.4,3,7.7,4.4,11.9,4.4c5.1,0,10.3-2.1,13.9-6.4C233.9,249.2,233.1,237.6,225.4,231.1z"/>
		</g>
	</g>
	<path class="st3" d="M13.4,293.3c-4.7-4.3-4.7-11.5,0-16.2l0,0c4.3-4.7,11.5-4.7,16.2,0l82.3,82.3c4.7,4.3,4.7,11.5,0,16.2l0,0
		c-4.3,4.7-11.5,4.7-16.2,0L13.4,293.3z"/>
	<path class="st4" d="M111.9,375.6L111.9,375.6c-4.3,4.7-11.5,4.7-16.2,0l-82.3-82.3c-4.7-4.3-4.7-11.5,0-16.2l0,0"/>
	<path class="st5" d="M98.2,396c-5.2-5.2-5.2-13.5,0-18.7l15.4-15.4c5.2-5.2,13.5-5.2,18.7,0l0,0c5.2,5.2,5.2,13.5,0,18.7L116.9,396
		C111.6,401.3,103.4,401.3,98.2,396L98.2,396z"/>
	<path class="st6" d="M116.9,396c-5.2,5.2-13.5,5.2-18.7,0l0,0c-5.2-5.2-5.2-13.5,0-18.7l15.4-15.4"/>
	<path class="st7" d="M-45.5,301.8c-13.5-13.9-6.2-28.6,7.5-42.5l33.9-33.9c13.9-13.9,28.6-21.4,42.5-7.5l6,6
		c13.5,13.9,6.2,28.6-7.5,42.5L2.9,300.2c-13.9,13.9-28.6,21.4-42.5,7.5L-45.5,301.8z"/>
	<g>
		<path class="st8" d="M2.9,300.5c-13.9,13.9-28.6,21.4-42.5,7.5l-6-6c-13.5-13.9-6.2-28.6,7.5-42.5l33.9-33.9"/>
	</g>
	<path class="st7" d="M14.8,210.7c-2.7-2.7-2.7-6.9,0-9.5l0,0c2.7-2.7,6.9-2.7,9.5,0l36.8,37.3c2.7,2.7,2.7,6.9,0,9.5l0,0
		c-2.7,2.7-6.9,2.7-9.5,0L14.8,210.7z"/>
	<path class="st9" d="M61.2,247.8L61.2,247.8c-2.7,2.7-6.9,2.7-9.5,0l-36.8-37.3c-2.7-2.7-2.7-6.9,0-9.5l0,0"/>
	<path class="st9" d="M-62.3,288.1c-2.7-2.7-2.7-6.9,0-9.5l0,0c2.7-2.7,6.9-2.7,9.5,0l36.8,36.8c2.7,2.7,2.7,6.9,0,9.5l0,0
		c-2.7,2.7-6.9,2.7-9.5,0L-62.3,288.1z"/>
	<g>
		<path class="st7" d="M-15.9,324.9L-15.9,324.9c-2.7,2.7-6.9,2.7-9.5,0l-37.3-36.8c-2.7-2.7-2.7-6.9,0-9.5l0,0"/>
		<path class="st9" d="M8.9,302.2c-2.3-2.3-2.3-6.2,0-8.5L29.6,273c2.3-2.3,6.2-2.3,8.5,0l0,0c2.3,2.3,2.3,6.2,0,8.5l-20.7,20.7
			C15.1,304.5,11.2,304.5,8.9,302.2L8.9,302.2z"/>
	</g>
	<rect x="-65.2" y="365.4" class="st10" width="69.2" height="29.6"/>
	<g>
		<polyline class="st11" points="-65.2,395.1 -65.2,365.4 3.9,365.4 		"/>
		<path class="st9" d="M-68.9,399v-1.7c0-1.7,1.3-2.7,2.7-2.7H4.6c1.7,0,2.7,1.3,2.7,2.7v1.7c0,1.7-1.3,2.7-2.7,2.7h-70.4
			c-1.7,0-2.7-1.3-2.7-2.7H-68.9z"/>
		<path class="st9" d="M-68.9,362.7V361c0-1.7,1.3-2.7,2.7-2.7H4.6c1.7,0,2.7,1.3,2.7,2.7v1.7c0,1.7-1.3,2.7-2.7,2.7h-70.4
			c-1.7,0-2.7-1.3-2.7-2.7H-68.9z"/>
	</g>
</g>
</svg>
