<?xml version="1.0" encoding="utf-8"?>
<!-- Generator: Adobe Illustrator 19.0.0, SVG Export Plug-In . SVG Version: 6.00 Build 0)  -->
<svg version="1.1" id="Layer_1" xmlns="http://www.w3.org/2000/svg" xmlns:xlink="http://www.w3.org/1999/xlink" x="0px" y="0px"
	 viewBox="-99 1 512 512" style="enable-background:new -99 1 512 512;" xml:space="preserve">
<style type="text/css">
	.st0{fill:#FFFFFF;}
	.st1{fill:#AFAF00;}
	.st2{fill:#297700;}
	.st3{fill:#3D3D3D;stroke:#4A494A;stroke-width:2;stroke-miterlimit:10;}
</style>
<circle id="XMLID_2_" class="st0" cx="157.2" cy="257.7" r="254.3"/>
<g id="XMLID_1_">
	<path id="XMLID_56_" class="st1" d="M156.4,211.4c-24.7,0-49.4-0.2-74.1,0.1c-5,0.1-7-0.8-7-6.5c0.3-32.2,0.1-64.3,0.2-96.5
		c0-15.7,8-23.6,23.7-23.6c17.6-0.1,17.6-0.1,17.6,17.2c0,6.7,0.1,13.4,0,20.1c-0.1,6.7,2.9,10.9,9.9,11c20.3,0.2,40.6,0.2,60.9,0
		c6.8-0.1,9.9-4.2,9.8-11c-0.2-10.3,0.2-20.6-0.2-30.9c-0.2-4.8,0.8-7.1,6.1-6.5c4.6,0.5,9.2,0,13.9,0.1
		c12.1,0.2,21.1,7.9,21.3,19.8c0.4,34.2,0.1,68.5,0.3,102.6c0,5.5-3.4,3.9-6.1,4C207.4,211.4,181.9,211.4,156.4,211.4z"/>
	<path id="XMLID_55_" class="st1" d="M65.6,394c-24.9,0-49.9-0.2-74.9,0.2c-5.5,0.1-6.7-1.6-6.7-6.8c0.3-32.4,0.1-64.8,0.2-97.2
		c0-13.1,7.6-21.1,20.5-22.2c20.5-1.6,20.5-1.6,20.5,18.9c0,6.4-0.2,12.9,0.1,19.3c0.3,6.9,3.9,10.8,11.3,10.7
		c19.3-0.1,38.6,0,57.9-0.1c8-0.1,11.5-3.7,11.7-11.9c0.2-10.6,0.2-21.1,0-31.7c-0.1-3.8,0.8-5.6,5-5.3c4.9,0.3,9.8-0.1,14.7,0.2
		c13.1,0.7,20.7,8.4,21.3,21.6c0.3,9.2,0.1,18.5,0.1,27.7c0,23.1-0.3,46.3,0.2,69.4c0.1,6.3-2,7.5-7.8,7.4
		C115,393.8,90.3,394,65.6,394z"/>
	<path id="XMLID_54_" class="st1" d="M249,394c-24.9,0-49.9-0.1-74.9,0.1c-5,0.1-7.1-0.9-7-6.6c0.3-31.9,0.1-63.8,0.2-95.7
		c0.1-16,7.8-23.7,23.6-24.1c17.4-0.3,17.4-0.3,17.4,16.7c0,6.9-0.2,13.9,0.1,20.8c0.3,7.7,3.8,11.2,11.6,11.3
		c19.3,0.1,38.6,0.1,57.9,0c7.8-0.1,11.2-3.3,11.4-11.3c0.3-10.8,0.3-21.6,0-32.4c-0.1-3.9,0.9-5.5,5-5.2c5.9,0.4,11.9,0,17.7,0.5
		c10.8,1,18.3,9.3,18.3,20.1c0.1,33.5-0.1,66.8,0.2,100.3c0,4.7-1.6,5.4-5.7,5.3C299.3,393.9,274.1,394,249,394z"/>
	<path id="XMLID_53_" class="st2" d="M146.4,414.5c-3.5,11.4-9.9,16.3-20.7,16.3c-39.8,0.1-79.6,0-119.4,0
		c-11.5,0-17.7-4.6-21.5-16.4C38.6,414.5,92.3,414.5,146.4,414.5z"/>
	<path id="XMLID_52_" class="st2" d="M168.3,414.3c53.6,0,107.2,0,160.8,0c-1.6,9.8-8.5,16.5-18.4,16.5c-41.4,0.2-82.7,0.2-124.1,0
		C177.1,430.7,170.3,424.3,168.3,414.3z"/>
	<path id="XMLID_51_" class="st2" d="M157.2,231.5c24.9,0,49.8,0.2,74.8-0.1c6.2-0.1,6.7,1.8,3.8,6.4c-3.8,6.1-9.2,9.7-16.5,9.8
		c-41.4,0.1-82.8,0.1-124.2,0c-7.6,0-13.1-3.9-16.8-10.4c-2.4-4.1-2-5.7,3.3-5.7C106.8,231.6,132,231.5,157.2,231.5z"/>
	<path id="XMLID_50_" class="st3" d="M66,296.2c-6.7,0-15.5,2.6-19.4-0.7c-4.4-3.8-0.7-13.1-1.5-19.8c-0.9-6.7,1.7-8.2,8-7.8
		c9.2,0.6,18.4,0.3,27.7,0.1c4.4-0.2,6.1,1.3,5.5,5.6c-0.2,1,0,2,0,3.1c-0.2,6.3,2.1,14.9-1.1,18.5C81.3,299.5,72.6,295.8,66,296.2z
		"/>
	<path id="XMLID_49_" class="st3" d="M247.4,296.5c-5.4-0.6-14,2.9-18-1.2c-3.9-4-0.4-12.7-1.3-19.2c-0.9-7,1.8-8.6,8.4-8.2
		c9.2,0.6,18.4,0.3,27.7,0.1c4.1-0.2,5.4,1.2,5.1,5.2c-0.3,6.1-0.3,12.3,0,18.4c0.3,4.2-1.5,5.3-5.3,5
		C258.9,296.3,253.7,296.5,247.4,296.5z"/>
	<path id="XMLID_48_" class="st3" d="M155.6,83.9c6.7,0,11.9,0.3,17-0.1c4.3-0.3,5.2,1.4,5,5.2c-0.3,6.1-0.2,12.3,0,18.4
		c0.1,3.3-0.3,5.2-4.4,5.1c-10.5-0.3-21.1-0.3-31.6,0c-3.9,0.1-5-1.5-4.6-5c0.2-1.3,0-2.6,0-3.8c0.2-6.4-2.1-14.9,1.1-18.5
		C141.8,80.9,150.6,84.8,155.6,83.9z"/>
</g>
</svg>
