<?xml version="1.0" encoding="utf-8"?>
<!-- Generator: Adobe Illustrator 24.0.1, SVG Export Plug-In . SVG Version: 6.00 Build 0)  -->
<svg version="1.1" id="Layer_1" xmlns="http://www.w3.org/2000/svg" xmlns:xlink="http://www.w3.org/1999/xlink" x="0px" y="0px"
	 viewBox="0 0 20.9 20.9" style="enable-background:new 0 0 20.9 20.9;" xml:space="preserve">
<path d="M1.9,0.6c-0.8,0-1.3,0.6-1.3,1.3v9c0,0.8,0.6,1.3,1.3,1.3h0.2l0.7-0.9H1.9c-0.3,0-0.4-0.2-0.4-0.4v-9c0-0.3,0.2-0.4,0.4-0.4
	h9c0.3,0,0.4,0.2,0.4,0.4v6.7H10c-0.8,0-1.3,0.6-1.3,1.3v1.3H6.4l0.7,0.9h1.5v1.5l0.9,0.8V10c0-0.3,0.2-0.4,0.4-0.4h9
	c0.3,0,0.4,0.2,0.4,0.4v9c0,0.3-0.2,0.4-0.4,0.4h-9c-0.3,0-0.4-0.2-0.4-0.4v-0.9l-0.9,0.8V19c0,0.8,0.6,1.3,1.3,1.3h9
	c0.8,0,1.3-0.6,1.3-1.3v-9c0-0.8-0.6-1.3-1.3-1.3h-6.7V1.9c0-0.8-0.6-1.3-1.3-1.3H1.9z M6.4,2.8v0.9H2.8v0.9h5.3
	C8,5.6,7.4,6.4,6.7,7.1c-1.1-1-1.7-2-1.7-2L4.2,5.5c0,0,0.6,1.1,1.8,2.2c0,0-0.1,0-0.1,0.1C4.7,8.5,3.5,8.9,3.5,8.9l0.3,0.9
	c0,0,1.3-0.4,2.6-1.3c0.1-0.1,0.2-0.1,0.3-0.2c0.5,0.4,1.1,0.7,1.8,1l0.3-0.8c-0.5-0.2-1-0.5-1.4-0.8c0.8-0.8,1.5-1.8,1.6-3h1.4V3.7
	H7.3V2.8H6.4z M4.6,10.4l-2.2,2.7h1.3v1.8h1.8v-1.8h1.3L4.6,10.4z M14,11.1l-2.3,6.2h1.1l0.5-1.4h2.4l0.5,1.4h1.1L15,11.1H14z
	 M14.5,12.4l0.9,2.6h-1.8L14.5,12.4z M7.7,14v1.3h-4l1.8,1.8h2.2v1.3l2.7-2.2L7.7,14z"/>
</svg>
