<?xml version="1.0" encoding="utf-8"?>
<!-- Generator: Adobe Illustrator 19.0.0, SVG Export Plug-In . SVG Version: 6.00 Build 0)  -->
<svg version="1.1" id="Capa_1" xmlns="http://www.w3.org/2000/svg" xmlns:xlink="http://www.w3.org/1999/xlink" x="0px" y="0px"
	 viewBox="0 0 512 512" style="enable-background:new 0 0 512 512;" xml:space="preserve">
<style type="text/css">
	.st0{fill:#FFFFFF;}
	.st1{fill:#CCB800;}
	.st2{fill:#1E1E1E;}
	.st3{fill:#8E8300;}
</style>
<circle id="XMLID_1_" class="st0" cx="256.7" cy="256.7" r="254.3"/>
<g>
	<g>
		<g>
			<path class="st1" d="M240.7,210.1H123.2c-6.5,0-11.7,5.2-11.7,11.7v96.5c0,6.5,5.2,11.7,11.7,11.7h117.6
				c6.5,0,11.7-5.2,11.7-11.7v-96.5C252.4,215.3,247.2,210.1,240.7,210.1z M229.1,306.7h-94.3v-73.2h94.3L229.1,306.7L229.1,306.7z"
				/>
		</g>
	</g>
	<g>
		<g>
			<path class="st2" d="M187.4,232.8v21.8h-11.3v-21.8h-23.4v33.5c0,6.5,5.2,11.7,11.7,11.7h34.7c6.5,0,11.7-5.2,11.7-11.7v-33.5
				H187.4L187.4,232.8z"/>
		</g>
	</g>
	<g>
		<g>
			<path class="st1" d="M396.5,210.1H275c-6.5,0-11.7,5.2-11.7,11.7v96.5c0,6.5,5.2,11.7,11.7,11.7h121.5c6.5,0,11.7-5.2,11.7-11.7
				v-96.5C408.1,215.3,402.9,210.1,396.5,210.1z M384.8,306.7h-98.1v-73.2h98.1V306.7z"/>
		</g>
	</g>
	<g>
		<g>
			<path class="st2" d="M343.2,232.8v21.8H328v-21.8h-23.4v33.5c0,6.5,5.2,11.7,11.7,11.7h38.5c6.5,0,11.7-5.2,11.7-11.7v-33.5
				H343.2L343.2,232.8z"/>
		</g>
	</g>
	<g>
		<g>
			<path class="st1" d="M317.5,82H195.9c-6.5,0-11.7,5.2-11.7,11.7v96.5c0,6.5,5.2,11.7,11.7,11.7h121.5c6.5,0,11.7-5.2,11.7-11.7
				V93.7C329.1,87.2,323.9,82,317.5,82z M305.8,178.6h-98.1v-73.2h98.1V178.6L305.8,178.6z"/>
		</g>
	</g>
	<g>
		<g>
			<path class="st2" d="M264.1,104.7v21.4h-14.8v-21.4h-23.4v33.1c0,6.5,5.2,11.7,11.7,11.7h38.2c6.5,0,11.7-5.2,11.7-12.4V104
				L264.1,104.7z"/>
		</g>
	</g>
	<g>
		<g>
			<rect x="245" y="351.5" class="st2" width="23.4" height="60.8"/>
		</g>
	</g>
	<g>
		<g>
			<rect x="361.8" y="351.5" class="st2" width="23.4" height="60.8"/>
		</g>
	</g>
	<g>
		<g>
			<rect x="128.2" y="351.5" class="st2" width="23.4" height="60.8"/>
		</g>
	</g>
	<g>
		<g>
			<path class="st3" d="M421.4,400.5H92c-6.5,0-11.7,5.2-11.7,11.7s5.2,11.7,11.7,11.7h329.3c6.5,0,11.7-5.2,11.7-11.7
				S427.8,400.5,421.4,400.5z"/>
		</g>
	</g>
	<g>
		<g>
			<path class="st3" d="M421.4,339.8H92c-6.5,0-11.7,5.2-11.7,11.7c0,6.5,5.2,11.7,11.7,11.7h329.3c6.5,0,11.7-5.2,11.7-11.7
				C433.1,345,427.8,339.8,421.4,339.8z"/>
		</g>
	</g>
</g>
</svg>
