<?xml version="1.0" encoding="utf-8"?>
<!-- Generator: Adobe Illustrator 24.0.1, SVG Export Plug-In . SVG Version: 6.00 Build 0)  -->
<svg version="1.1" id="Layer_1" xmlns="http://www.w3.org/2000/svg" xmlns:xlink="http://www.w3.org/1999/xlink" x="0px" y="0px"
	 viewBox="0 0 50 50" style="enable-background:new 0 0 50 50;" xml:space="preserve">
<style type="text/css">
	.st0{fill:#FFFFFF;}
</style>
<circle class="st0" cx="25" cy="25" r="24.7"/>
<g>
	<path d="M20.3,36.2v5c-0.6,0.5-1.3,0.8-1.9,1c-0.7,0.2-1.5,0.3-2.2,0.3c-1,0-1.9-0.2-2.7-0.5c-0.8-0.3-1.5-0.7-2-1.3
		c-0.6-0.6-1.2-1.3-1.5-2s-0.5-1.6-0.5-2.5c0-0.9,0.2-1.8,0.5-2.5s0.7-1.4,1.3-1.9c0.6-0.6,1.2-1,2-1.3c0.7-0.3,1.7-0.5,2.7-0.5
		c0.5,0,0.9,0,1.4,0.1c0.5,0.1,0.8,0.2,1.2,0.4c0.4,0.1,0.7,0.3,1,0.5s0.6,0.4,0.8,0.6l-0.6,1c-0.1,0.2-0.3,0.3-0.4,0.3
		c-0.2,0-0.4,0-0.6-0.1c-0.2-0.1-0.4-0.2-0.6-0.3c-0.2-0.1-0.4-0.2-0.6-0.3c-0.2-0.1-0.5-0.2-0.7-0.2c-0.3-0.1-0.6-0.1-1-0.1
		c-0.6,0-1.1,0.1-1.7,0.3c-0.5,0.2-0.9,0.5-1.3,0.8c-0.4,0.4-0.6,0.8-0.8,1.4c-0.2,0.6-0.3,1.1-0.3,1.8c0,0.7,0.1,1.3,0.3,1.9
		s0.5,1,0.8,1.4c0.4,0.4,0.8,0.6,1.3,0.8c0.5,0.2,1.1,0.3,1.8,0.3c0.5,0,0.8-0.1,1.2-0.2c0.4-0.1,0.7-0.2,1-0.4v-2.2h-1.5
		c-0.2,0-0.3,0-0.4-0.1c-0.1-0.1-0.1-0.2-0.1-0.3v-1.3L20.3,36.2L20.3,36.2z"/>
	<path d="M29,32.3c-0.1,0.1-0.2,0.2-0.2,0.3c-0.1,0.1-0.2,0.1-0.3,0.1s-0.3,0-0.4-0.1c-0.1-0.1-0.3-0.2-0.5-0.3
		c-0.2-0.1-0.5-0.2-0.6-0.3C26.8,32,26.5,32,26.1,32c-0.3,0-0.6,0-0.8,0.1c-0.3,0.1-0.5,0.2-0.6,0.3c-0.2,0.1-0.3,0.3-0.4,0.5
		c-0.1,0.2-0.1,0.4-0.1,0.6s0.1,0.6,0.3,0.7c0.2,0.2,0.4,0.4,0.6,0.5c0.3,0.1,0.6,0.3,0.9,0.4c0.4,0.1,0.6,0.2,1,0.4
		c0.4,0.1,0.7,0.3,1,0.5c0.3,0.2,0.6,0.4,0.9,0.6c0.3,0.3,0.5,0.6,0.6,0.9c0.2,0.4,0.3,0.8,0.3,1.3c0,0.6-0.1,1.1-0.3,1.6
		s-0.5,0.9-0.8,1.3c-0.4,0.4-0.8,0.6-1.3,0.8c-0.6,0.2-1.1,0.3-1.9,0.3c-0.4,0-0.7,0-1.1-0.1c-0.4-0.1-0.7-0.2-1.1-0.4
		c-0.4-0.2-0.6-0.3-1-0.5c-0.3-0.2-0.6-0.5-0.8-0.6l0.6-1.1c0.1-0.1,0.1-0.2,0.2-0.2c0.1-0.1,0.2-0.1,0.3-0.1c0.2,0,0.3,0.1,0.5,0.2
		c0.2,0.1,0.4,0.3,0.6,0.4c0.2,0.2,0.5,0.3,0.8,0.4c0.3,0.1,0.6,0.2,1.1,0.2c0.6,0,1.1-0.2,1.5-0.5s0.6-0.7,0.6-1.3
		c0-0.3-0.1-0.6-0.3-0.8c-0.2-0.3-0.4-0.4-0.6-0.6c-0.3-0.2-0.6-0.3-0.9-0.4c-0.4-0.1-0.6-0.2-1-0.3c-0.4-0.1-0.7-0.3-1-0.4
		c-0.4-0.2-0.6-0.4-0.9-0.6c-0.3-0.3-0.5-0.6-0.6-0.9c-0.2-0.4-0.3-0.8-0.3-1.4c0-0.5,0.1-0.9,0.3-1.3c0.2-0.5,0.5-0.8,0.7-1.1
		c0.4-0.4,0.7-0.6,1.3-0.8c0.6-0.3,1.1-0.3,1.8-0.3c0.7,0,1.4,0.1,2,0.4c0.6,0.2,1.1,0.6,1.6,0.9L29,32.3z"/>
	<path d="M40.4,32h-3.7v10.4h-2.3V32h-3.7v-1.9h9.7V32z"/>
</g>
<rect x="7.4" y="25.9" width="35.7" height="1.9"/>
<g>
	<polygon points="19.4,12.2 17.9,14.9 18.4,14.9 18.4,24.5 20.4,24.5 20.4,14.9 20.9,14.9 	"/>
	<polygon points="23.6,8.2 24.3,8.2 24.3,24.5 26.1,24.5 26.1,8.2 26.8,8.2 25.2,5.4 	"/>
	<polygon points="32.3,14.9 30.8,12.2 29.2,14.9 29.8,14.9 29.8,24.5 31.7,24.5 31.7,14.9 	"/>
</g>
</svg>
