<?xml version="1.0" encoding="utf-8"?>
<!-- Generator: Adobe Illustrator 24.0.1, SVG Export Plug-In . SVG Version: 6.00 Build 0)  -->
<svg version="1.1" id="Layer_1" xmlns="http://www.w3.org/2000/svg" xmlns:xlink="http://www.w3.org/1999/xlink" x="0px" y="0px"
	 viewBox="0 0 50 50" style="enable-background:new 0 0 50 50;" xml:space="preserve">
<style type="text/css">
	.st0{fill:#FFFFFF;}
</style>
<circle class="st0" cx="25" cy="25" r="24.7"/>
<g>
	<path d="M21,13.4v4.9c-0.6,0.5-1.3,0.8-2,1c-0.7,0.2-1.5,0.3-2.2,0.3c-1,0-1.9-0.2-2.7-0.5c-0.8-0.3-1.5-0.8-2.1-1.3s-1-1.2-1.3-2
		c-0.3-0.8-0.5-1.6-0.5-2.5c0-0.9,0.2-1.8,0.5-2.5c0.3-0.8,0.7-1.5,1.3-2c0.5-0.5,1.2-1,2-1.3C14.7,7.1,15.6,7,16.6,7
		c0.5,0,1,0.1,1.4,0.2c0.5,0.1,0.8,0.2,1.2,0.3c0.4,0.2,0.7,0.3,1,0.5c0.3,0.2,0.6,0.4,0.8,0.6l-0.6,1c-0.1,0.2-0.2,0.2-0.4,0.3
		c-0.2,0-0.3,0-0.5-0.2c-0.2-0.1-0.4-0.2-0.5-0.3c-0.2-0.1-0.4-0.2-0.6-0.3c-0.2-0.1-0.5-0.2-0.8-0.2c-0.3-0.1-0.6-0.1-1-0.1
		c-0.6,0-1.2,0.1-1.6,0.3c-0.7,0.5-1.2,0.8-1.5,1.2c-0.3,0.4-0.6,0.8-0.8,1.4c-0.2,0.5-0.3,1.1-0.3,1.8c0,0.7,0.1,1.3,0.3,1.9
		s0.5,1,0.8,1.4c0.4,0.4,0.8,0.7,1.3,0.8c0.5,0.2,1.1,0.3,1.7,0.3c0.5,0,0.8-0.1,1.2-0.2c0.4-0.1,0.7-0.2,1.1-0.4v-2.2h-1.5
		c-0.2,0-0.2-0.1-0.3-0.2c-0.1-0.1-0.2-0.2-0.2-0.3v-1.2H21z"/>
	<path d="M29.7,9.5c-0.1,0.2-0.2,0.2-0.2,0.2c-0.1,0.1-0.2,0.1-0.3,0.1s-0.2-0.1-0.4-0.2c-0.2-0.1-0.3-0.2-0.5-0.3
		c-0.2-0.1-0.4-0.2-0.7-0.3c-0.2-0.1-0.5-0.2-0.9-0.2c-0.3,0-0.6,0-0.8,0.1c-0.2,0.1-0.5,0.2-0.6,0.3c-0.2,0.2-0.3,0.3-0.4,0.5
		c-0.1,0.2-0.2,0.4-0.2,0.6c0,0.3,0.1,0.5,0.2,0.7c0.2,0.2,0.4,0.4,0.6,0.5c0.2,0.2,0.5,0.2,0.9,0.4c0.3,0.1,0.7,0.2,1.1,0.3
		c0.4,0.2,0.7,0.2,1.1,0.5c0.3,0.2,0.6,0.4,0.9,0.6c0.3,0.2,0.5,0.5,0.6,0.9s0.2,0.8,0.2,1.3s-0.1,1.1-0.3,1.5
		c-0.2,0.5-0.5,0.9-0.8,1.2s-0.8,0.6-1.3,0.8c-0.5,0.2-1.2,0.3-1.8,0.3c-0.4,0-0.8,0-1.2-0.1s-0.8-0.2-1.1-0.3
		c-0.4-0.2-0.7-0.3-1-0.5c-0.3-0.2-0.5-0.4-0.8-0.7l0.7-1.1c0.1-0.1,0.2-0.2,0.2-0.2c0.1-0.1,0.2-0.1,0.3-0.1c0.2,0,0.3,0.1,0.5,0.2
		c0.2,0.2,0.4,0.2,0.6,0.4c0.2,0.2,0.5,0.3,0.8,0.4c0.3,0.2,0.7,0.2,1.1,0.2c0.6,0,1.2-0.2,1.5-0.5c0.4-0.3,0.5-0.8,0.5-1.3
		c0-0.3-0.1-0.6-0.2-0.8c-0.2-0.2-0.4-0.4-0.6-0.5c-0.2-0.2-0.5-0.2-0.9-0.4c-0.3-0.1-0.7-0.2-1-0.3c-0.4-0.1-0.7-0.2-1-0.4
		c-0.3-0.2-0.6-0.4-0.9-0.6c-0.2-0.2-0.5-0.5-0.6-0.9c-0.2-0.4-0.2-0.8-0.2-1.4c0-0.5,0.1-0.8,0.2-1.3c0.2-0.5,0.5-0.8,0.8-1.2
		C24,7.7,24.5,7.4,25,7.2c0.5,0,1.1-0.1,1.7-0.1c0.7,0,1.4,0.1,2,0.3c0.6,0.2,1.2,0.5,1.5,0.9L29.7,9.5z"/>
	<path d="M41,9.1h-3.7v10.4H35V9.1h-3.7V7.3H41V9.1z"/>
</g>
<rect x="7.4" y="21.9" width="35.8" height="2"/>
<g>
	<polygon points="31.1,37.7 32.7,34.9 32.1,34.9 32.1,25.3 30.2,25.3 30.2,34.9 29.5,34.9 	"/>
	<polygon points="26.9,41.7 26.2,41.7 26.2,25.3 24.3,25.3 24.3,41.7 23.7,41.7 25.3,44.4 	"/>
	<polygon points="18.2,34.9 19.8,37.7 21.3,34.9 20.7,34.9 20.7,25.3 18.8,25.3 18.8,34.9 	"/>
</g>
</svg>
