<?xml version="1.0" encoding="utf-8"?>
<!-- Generator: Adobe Illustrator 24.0.1, SVG Export Plug-In . SVG Version: 6.00 Build 0)  -->
<svg version="1.1" id="Layer_1" xmlns="http://www.w3.org/2000/svg" xmlns:xlink="http://www.w3.org/1999/xlink" x="0px" y="0px"
	 viewBox="0 0 50 50" style="enable-background:new 0 0 50 50;" xml:space="preserve">
<style type="text/css">
	.st0{fill:#FFFFFF;}
	.st1{fill:#020203;}
</style>
<circle class="st0" cx="25" cy="25" r="24.5"/>
<g>
	<g>
		<path class="st1" d="M9.9,24.3H7.7c-0.6,0-1.1,0.5-1.1,1.1v12.9c0,0.6,0.5,1.1,1.1,1.1h2.2c1.8,0,3.2-1.4,3.2-3.2v-8.6
			C13.1,25.8,11.6,24.3,9.9,24.3z M9.9,30.8c-0.6,0-1.1-0.5-1.1-1.1s0.5-1.1,1.1-1.1s1.1,0.5,1.1,1.1S10.5,30.8,9.9,30.8z"/>
	</g>
</g>
<g>
	<g>
		<path class="st1" d="M42.5,24.7c-0.9-0.6-2.1-0.5-2.8,0.3l-5.9,7.2c-0.4,0.4-1.2,0.7-1.6,0.7c-2.3,0,0.7,0-6.2,0
			c-0.4,0-0.8,0.2-1,0.6c-0.3,0.5-0.9,0.7-1.4,0.5c-0.5-0.3-0.7-0.9-0.5-1.4c0.5-1.1,1.7-1.8,2.9-1.8l5.3,0c1,0,2-0.6,2.3-1.6
			c0.4-1.4-0.7-2.8-2.1-2.8h-3.2c-0.8,0-0.8-0.1-1.5-0.7c-2.6-2.3-8.7-1.2-11.5,0.7c0,0,0,0,0,0.1v10.7c0,0,0,0,0,0.1
			c1.2,0.5,4.7,2.2,6,2.2h10.2c2,0,4-1,5.2-2.6l6.3-9C43.6,26.8,43.4,25.4,42.5,24.7z"/>
	</g>
</g>
<g>
	<g>
		<path d="M25.1,21.3c-0.6,0.2-1.6,0.5-2.7,0.5c-1.5,0-2.5-0.4-3.3-1.1c-0.7-0.7-1.2-1.8-1.1-2.9c0-2.7,2-4.2,4.6-4.2
			c1,0,1.8,0.2,2.2,0.4l-0.4,1.5c-0.4-0.2-1-0.3-1.9-0.3c-1.5,0-2.7,0.9-2.7,2.6c0,1.7,1,2.7,2.5,2.7c0.4,0,0.8,0,0.9-0.1v-1.7H22
			V17h3V21.3z"/>
		<path d="M26.6,19.8c0.5,0.3,1.2,0.5,2,0.5c0.8,0,1.3-0.3,1.3-0.9c0-0.5-0.4-0.8-1.4-1.1c-1.3-0.5-2.2-1.2-2.2-2.4
			c0-1.4,1.2-2.4,3.1-2.4c0.9,0,1.6,0.2,2.1,0.4L31,15.3c-0.3-0.2-0.9-0.4-1.7-0.4c-0.8,0-1.2,0.4-1.2,0.8c0,0.5,0.5,0.7,1.5,1.1
			c1.4,0.5,2.1,1.3,2.1,2.4c0,1.4-1,2.5-3.3,2.5c-0.9,0-1.8-0.2-2.3-0.5L26.6,19.8z"/>
		<path d="M34.5,15.1h-2.2v-1.5h6.2v1.5h-2.2v6.5h-1.8V15.1z"/>
	</g>
</g>
</svg>
