<?xml version="1.0" encoding="utf-8"?>
<!-- Generator: Adobe Illustrator 24.0.1, SVG Export Plug-In . SVG Version: 6.00 Build 0)  -->
<svg version="1.1" id="Layer_1" xmlns="http://www.w3.org/2000/svg" xmlns:xlink="http://www.w3.org/1999/xlink" x="0px" y="0px"
	 viewBox="0 0 50 50" style="enable-background:new 0 0 50 50;" xml:space="preserve">
<style type="text/css">
	.st0{fill:#E72175;}
	.st1{fill:#FFFFFF;}
	.st2{fill:#020203;}
</style>
<path class="st0" d="M25.5,1.7c12.4,0,23,10.6,23,23s-10.6,23-23,23c-4.4,0-9.1-1.3-12.6-3.5L2.5,47.7L6,37.2
	c-2.2-3.5-3.5-8.1-3.5-12.6C2.5,12.3,13.1,1.7,25.5,1.7z"/>
<path class="st1" d="M30.2,34.1v3.7h-9.4v-3.7h1.9v-9.4h-1.9v-3.7h7.5v13.1H30.2z"/>
<path class="st1" d="M28.4,14.4c0,1.6-1.3,2.8-2.8,2.8c-1.6,0-2.8-1.3-2.8-2.8c0-1.6,1.3-2.8,2.8-2.8C27.1,11.6,28.4,12.8,28.4,14.4
	z"/>
<path class="st1" d="M40.2,13.5c0,0.5,0.4,0.9,0.9,0.9S42,14,42,13.5s-0.4-0.9-0.9-0.9S40.2,12.9,40.2,13.5z"/>
<path class="st1" d="M43.9,24.7c0,1.2-0.1,2.4-0.4,3.6c-0.1,0.5,0.2,1,0.7,1.1c0.1,0,0.1,0,0.2,0c0.4,0,0.8-0.3,0.9-0.7
	c0.3-1.3,0.4-2.6,0.4-3.9c0-2.9-0.6-5.8-1.9-8.4c-0.2-0.5-0.8-0.7-1.2-0.4c-0.5,0.2-0.7,0.8-0.4,1.2C43.3,19.5,43.9,22,43.9,24.7z"
	/>
<path class="st2" d="M30.2,33.1h-0.9V20.9c0-0.5-0.4-0.9-0.9-0.9h-7.5c-0.5,0-0.9,0.4-0.9,0.9v3.7c0,0.5,0.4,0.9,0.9,0.9h0.9v7.5
	h-0.9c-0.5,0-0.9,0.4-0.9,0.9v3.7c0,0.5,0.4,0.9,0.9,0.9h9.4c0.5,0,0.9-0.4,0.9-0.9v-3.7C31.2,33.5,30.7,33.1,30.2,33.1z M29.3,36.9
	h-7.5V35h0.9c0.5,0,0.9-0.4,0.9-0.9v-9.4c0-0.5-0.4-0.9-0.9-0.9h-0.9v-1.9h5.6v12.2c0,0.5,0.4,0.9,0.9,0.9h0.9V36.9z"/>
<path class="st2" d="M25.5,18.1c2.1,0,3.7-1.7,3.7-3.7s-1.7-3.7-3.7-3.7s-3.7,1.7-3.7,3.7S23.5,18.1,25.5,18.1z M25.5,12.5
	c1,0,1.9,0.8,1.9,1.9s-0.8,1.9-1.9,1.9c-1,0-1.9-0.8-1.9-1.9S24.5,12.5,25.5,12.5z"/>
<path class="st2" d="M25.5,0.7c-12.9,0-24,11-24,24c0,4.4,1.3,9.1,3.4,12.7L1.6,47.4c-0.1,0.3,0,0.7,0.2,1c0.3,0.3,0.6,0.3,1,0.2
	l10.1-3.4c3.6,2.1,8.3,3.4,12.7,3.4c12.9,0,24-11,24-24C49.5,11.8,38.5,0.7,25.5,0.7z M25.5,46.8c-4.2,0-8.7-1.3-12.1-3.3
	c-0.2-0.1-0.5-0.2-0.8-0.1L4,46.2l2.9-8.7C7,37.3,6.9,37,6.8,36.7c-2.1-3.3-3.3-7.8-3.3-12.1c0-12,10.1-22.1,22.1-22.1
	s22.1,10.1,22.1,22.1S37.5,46.8,25.5,46.8z"/>
</svg>
