<?xml version="1.0" encoding="utf-8"?>
<!-- Generator: Adobe Illustrator 19.0.0, SVG Export Plug-In . SVG Version: 6.00 Build 0)  -->
<svg version="1.1" id="Layer_1" xmlns="http://www.w3.org/2000/svg" xmlns:xlink="http://www.w3.org/1999/xlink" x="0px" y="0px"
	 viewBox="0 0 500 500" style="enable-background:new 0 0 500 500;" xml:space="preserve">
<style type="text/css">
	.st0{fill:#FFFFFF;}
	.st1{fill:#DCE11F;}
	.st2{fill:#050606;}
</style>
<circle id="XMLID_2_" class="st0" cx="249.5" cy="255.1" r="246"/>
<path id="XMLID_11_" class="st1" d="M419,376H73c-6.6,0-12-5.4-12-12V139c0-6.6,5.4-12,12-12h346c6.6,0,12,5.4,12,12v225
	C431,370.6,425.6,376,419,376z"/>
<path id="XMLID_1_" class="st2" d="M411.5,305.6H150c-6.6,0-12-5.4-12-12v-17c0-6.6,5.4-12,12-12h261.5c6.6,0,12,5.4,12,12v17
	C423.5,300.2,418.1,305.6,411.5,305.6z"/>
<path id="XMLID_3_" class="st2" d="M411.5,368.7H150c-6.6,0-12-5.4-12-12v-17c0-6.6,5.4-12,12-12h261.5c6.6,0,12,5.4,12,12v17
	C423.5,363.3,418.1,368.7,411.5,368.7z"/>
<path id="XMLID_4_" class="st2" d="M109,305.6H81.5c-6.6,0-12-5.4-12-12v-17c0-6.6,5.4-12,12-12H109c6.6,0,12,5.4,12,12v17
	C121,300.2,115.6,305.6,109,305.6z"/>
<path id="XMLID_5_" class="st2" d="M109,368.7H81.5c-6.6,0-12-5.4-12-12v-17c0-6.6,5.4-12,12-12H109c6.6,0,12,5.4,12,12v17
	C121,363.3,115.6,368.7,109,368.7z"/>
<text id="XMLID_6_" transform="matrix(1 0 0 1 -258 354.1451)" style="font-family:'Lato-Black'; font-size:190px;">+</text>
<path id="XMLID_10_" class="st2" d="M411.5,175.5H150c-6.6,0-12-5.4-12-12v-17c0-6.6,5.4-12,12-12h261.5c6.6,0,12,5.4,12,12v17
	C423.5,170.1,418.1,175.5,411.5,175.5z"/>
<path id="XMLID_9_" class="st2" d="M411.5,238.6H150c-6.6,0-12-5.4-12-12v-17c0-6.6,5.4-12,12-12h261.5c6.6,0,12,5.4,12,12v17
	C423.5,233.2,418.1,238.6,411.5,238.6z"/>
<path id="XMLID_8_" class="st2" d="M109,175.5H81.5c-6.6,0-12-5.4-12-12v-17c0-6.6,5.4-12,12-12H109c6.6,0,12,5.4,12,12v17
	C121,170.1,115.6,175.5,109,175.5z"/>
<path id="XMLID_7_" class="st2" d="M109,238.6H81.5c-6.6,0-12-5.4-12-12v-17c0-6.6,5.4-12,12-12H109c6.6,0,12,5.4,12,12v17
	C121,233.2,115.6,238.6,109,238.6z"/>
</svg>
