<?xml version="1.0" encoding="utf-8"?>
<!-- Generator: Adobe Illustrator 24.0.1, SVG Export Plug-In . SVG Version: 6.00 Build 0)  -->
<svg version="1.1" id="Layer_1" xmlns="http://www.w3.org/2000/svg" xmlns:xlink="http://www.w3.org/1999/xlink" x="0px" y="0px"
	 viewBox="0 0 20 20" style="enable-background:new 0 0 20 20;" xml:space="preserve">
<style type="text/css">
	.st0{fill:#020203;}
</style>
<g>
	<path class="st0" d="M10,0.3c-5.4,0-9.7,4.4-9.7,9.7s4.4,9.7,9.7,9.7s9.7-4.4,9.7-9.7S15.4,0.3,10,0.3z M10,19c-4.9,0-9-4-9-9
		s4-9,9-9s9,4,9,9S14.9,19,10,19z"/>
	<path class="st0" d="M10,14.1c-0.2,0-0.4,0.2-0.4,0.4v0.7c0,0.2,0.2,0.4,0.4,0.4s0.4-0.2,0.4-0.4v-0.7C10.4,14.3,10.2,14.1,10,14.1
		z"/>
	<path class="st0" d="M10,3.7C10,3.7,10,3.7,10,3.7C9.2,3.7,8.5,4,7.9,4.5C7.3,5.1,7,5.8,7,6.6C7,6.8,7.2,7,7.4,7s0.4-0.2,0.4-0.4
		C7.8,6,8,5.5,8.4,5c0.4-0.4,1-0.7,1.6-0.6c1.2,0,2.2,1,2.2,2.2c0,0.8-0.4,1.5-1,1.9c-1,0.6-1.6,1.8-1.6,3v1.1
		c0,0.2,0.2,0.4,0.4,0.4s0.4-0.2,0.4-0.4v-1.1c0-1,0.5-1.9,1.2-2.4C12.5,8.6,13,7.6,13,6.6C13,5,11.6,3.7,10,3.7z"/>
</g>
</svg>
