<?xml version="1.0" encoding="utf-8"?>
<!-- Generator: Adobe Illustrator 24.0.1, SVG Export Plug-In . SVG Version: 6.00 Build 0)  -->
<svg version="1.1" id="Layer_1" xmlns="http://www.w3.org/2000/svg" xmlns:xlink="http://www.w3.org/1999/xlink" x="0px" y="0px"
	 viewBox="0 0 50 50" style="enable-background:new 0 0 50 50;" xml:space="preserve">
<style type="text/css">
	.st0{fill:#FFFFFF;}
</style>
<circle class="st0" cx="25" cy="25" r="24.6"/>
<g>
	<g>
		<path d="M17.8,29c-1.9,0-3.4,1.5-3.4,3.4c0,1.9,1.5,3.4,3.4,3.4c1.9,0,3.4-1.5,3.4-3.4C21.2,30.5,19.7,29,17.8,29z M17.8,33.8
			c-0.8,0-1.5-0.7-1.5-1.5c0-0.8,0.7-1.5,1.5-1.5c0.8,0,1.5,0.7,1.5,1.5C19.3,33.2,18.6,33.8,17.8,33.8z"/>
		<path d="M35.5,29c-1.9,0-3.4,1.5-3.4,3.4c0,1.9,1.5,3.4,3.4,3.4c1.9,0,3.4-1.5,3.4-3.4C38.9,30.5,37.4,29,35.5,29z M35.5,33.8
			c-0.8,0-1.5-0.7-1.5-1.5c0-0.8,0.7-1.5,1.5-1.5c0.8,0,1.5,0.7,1.5,1.5C37,33.2,36.3,33.8,35.5,33.8z"/>
		<path d="M21.6,18.7c0,0.5-0.4,0.9-0.9,0.9H9c-0.5,0-0.9-0.4-0.9-0.9v-0.5c0-0.5,0.4-0.9,0.9-0.9h11.8c0.5,0,0.9,0.4,0.9,0.9V18.7z
			"/>
		<path d="M42.1,23.7c-1.2-0.3-1.9-0.5-2.4-1.5L38.1,19c-0.5-0.9-1.7-1.7-2.8-1.7h-2.2c0,0-0.3,0-0.3-0.3c0-0.7,0-2.7,0-2.7
			c0-1.1-0.6-1.9-1.9-1.9h-18c-1.8,0-2.7,0.9-2.7,1.9V16c0,0,0,0.5,0.5,0.5c2.5,0,10.1,0,10.1,0c0.9,0,1.7,0.8,1.7,1.7v0.5
			c0,0.9-0.8,1.7-1.7,1.7H10.7c0,0-0.5,0-0.5,0.5c0,0.3,0,0.4,0,0.6c0,0.5,0.6,0.5,0.6,0.5h6.8c0.9,0,1.7,0.8,1.7,1.7v0.5
			c0,0.9-0.8,1.7-1.7,1.7h-6.7c0,0-0.8,0-0.8,0.6c0,1,0,4.2,0,4.2c0,1.1,0.9,1.9,1.9,1.9c0,0,0.8,0,1.1,0c0.2,0,0.3-0.1,0.3-0.2
			c0-2.4,2-4.4,4.4-4.4c2.4,0,4.4,2,4.4,4.4c0,0.1,0,0.2,0.2,0.2c2.1,0,8.6,0,8.6,0c0.2,0,0.2-0.1,0.2-0.2c0-2.4,2-4.4,4.4-4.4
			c2.4,0,4.4,2,4.4,4.4c0,0.1,0,0.2,0.1,0.2c1,0,2.2,0,2.2,0c1.1,0,1.9-0.9,1.9-1.9V27C44.1,24,43.1,24,42.1,23.7z M38.5,23.5
			c0,0-4.1,0-5.4,0c-0.2,0-0.3-0.2-0.3-0.2v-4.5c0,0,0-0.2,0.3-0.2c0.4,0,1.6,0,1.6,0c0.9,0,2.1,0.7,2.5,1.5l1.4,2.9
			c0.1,0.1,0.1,0.2,0.2,0.3C38.8,23.4,38.7,23.5,38.5,23.5z"/>
		<path d="M18.5,24.2c0,0.5-0.4,0.9-0.9,0.9H6.8c-0.5,0-0.9-0.4-0.9-0.9v-0.5c0-0.5,0.4-0.9,0.9-0.9h10.9c0.5,0,0.9,0.4,0.9,0.9
			V24.2z"/>
	</g>
</g>
</svg>
