<?xml version="1.0" encoding="utf-8"?>
<!-- Generator: Adobe Illustrator 19.0.0, SVG Export Plug-In . SVG Version: 6.00 Build 0)  -->
<svg version="1.1" id="Layer_1" xmlns="http://www.w3.org/2000/svg" xmlns:xlink="http://www.w3.org/1999/xlink" x="0px" y="0px"
	 viewBox="0 0 512 512" style="enable-background:new 0 0 512 512;" xml:space="preserve">
<style type="text/css">
	.st0{fill:#FFFFFF;}
	.st1{fill:#CB7629;}
	.st2{fill:#F79338;}
	.st3{fill:#FCB557;}
	.st4{fill:#FAA736;}
	.st5{fill:#F8981E;}
	.st6{fill:#ED8823;}
	.st7{fill:#E7E7E7;}
	.st8{fill:#A96327;}
	.st9{fill:#071534;}
</style>
<circle id="XMLID_1_" class="st0" cx="256.7" cy="256.7" r="254.3"/>
<g>
	<path id="XMLID_48_" class="st1" d="M390.4,369.5h50.4v25.2h-50.4V369.5z"/>
	<path id="XMLID_47_" class="st2" d="M440.8,344.3v25.2h-50.4H283.2h-50.4H125.6H75.2v-25.2h31.5H258h151.3H440.8z"/>
	<path id="XMLID_46_" class="st3" d="M258,256h151.3v88.3H258V256z"/>
	<path id="XMLID_45_" class="st4" d="M352.6,230.8h56.7V256h-56.7V230.8z"/>
	<path id="XMLID_44_" class="st5" d="M258,142.5h151.3v88.3H258V142.5z"/>
	<path id="XMLID_43_" class="st6" d="M352.6,117.3h56.7v25.2h-56.7V117.3z"/>
	<path id="XMLID_42_" class="st7" d="M352.6,256v25.2l-18.9-12.6l-18.9,12.6V256v-25.2h37.8V256z"/>
	<path id="XMLID_41_" class="st7" d="M352.6,142.5v25.2l-18.9-12.6l-18.9,12.6v-25.2v-25.2h37.8V142.5z"/>
	<path id="XMLID_40_" class="st4" d="M258,230.8h56.7V256H258V230.8z"/>
	<path id="XMLID_39_" class="st6" d="M258,117.3h56.7v25.2H258V117.3z"/>
	<path id="XMLID_38_" class="st1" d="M232.8,369.5h50.4v25.2h-50.4V369.5z"/>
	<path id="XMLID_37_" class="st5" d="M106.7,256H258v88.3H106.7V256z"/>
	<path id="XMLID_36_" class="st6" d="M201.3,230.8H258V256h-56.7V230.8z"/>
	<path id="XMLID_35_" class="st3" d="M258,142.5v88.3h-56.7h-37.8h-56.7v-88.3h56.7h37.8H258z"/>
	<path id="XMLID_34_" class="st4" d="M201.3,117.3H258v25.2h-56.7V117.3z"/>
	<path id="XMLID_33_" class="st7" d="M201.3,142.5v25.2l-18.9-12.6l-18.9,12.6v-25.2v-25.2h37.8V142.5z"/>
	<path id="XMLID_32_" class="st6" d="M106.7,230.8h56.7V256h-56.7V230.8z"/>
	<path id="XMLID_31_" class="st4" d="M106.7,117.3h56.7v25.2h-56.7V117.3z"/>
	<path id="XMLID_30_" class="st1" d="M75.2,369.5h50.4v25.2H75.2V369.5z"/>
	<path id="XMLID_29_" class="st7" d="M201.3,256v25.2l-18.9-12.6l-18.9,12.6V256v-25.2h37.8V256z"/>
	<g id="XMLID_25_">
		<path id="XMLID_28_" class="st8" d="M75.2,369.5h50.4v12.6H75.2V369.5z"/>
		<path id="XMLID_27_" class="st8" d="M232.8,369.5h50.4v12.6h-50.4V369.5z"/>
		<path id="XMLID_26_" class="st8" d="M390.4,369.5h50.4v12.6h-50.4V369.5z"/>
	</g>
	<path id="XMLID_3_" class="st9" d="M440.8,338h-25.2V117.3c0-3.5-2.8-6.3-6.3-6.3H106.7c-3.5,0-6.3,2.8-6.3,6.3V338H75.2
		c-3.5,0-6.3,2.8-6.3,6.3v50.4c0,3.5,2.8,6.3,6.3,6.3h50.4c3.5,0,6.3-2.8,6.3-6.3v-18.9h94.6v18.9c0,3.5,2.8,6.3,6.3,6.3h50.4
		c3.5,0,6.3-2.8,6.3-6.3v-18.9h94.6v18.9c0,3.5,2.8,6.3,6.3,6.3h50.4c3.5,0,6.3-2.8,6.3-6.3v-50.4C447.1,340.8,444.3,338,440.8,338z
		 M157.1,249.7H113v-12.6h44.1V249.7z M113,148.8h44.1v18.9c0,3.5,2.8,6.3,6.3,6.3c1.3,0,2.4-0.4,3.5-1l15.4-10.3l15.4,10.2
		c2.9,2,6.8,1.2,8.7-1.7c0.7-1,1-2.2,1-3.5v-18.9h44.1v75.7H113V148.8z M169.7,123.6H195v32.3l-9.1-6.1c-2.1-1.4-4.9-1.4-7,0
		l-9.1,6.1V123.6z M403,249.7h-44.1v-12.6H403V249.7z M308.4,249.7h-44.1v-12.6h44.1V249.7z M321,237.1h25.2v32.3l-9.1-6.1
		c-2.1-1.4-4.9-1.4-7,0l-9.1,6.1V237.1z M403,224.5H264.3v-75.7h44.1v18.9c0,3.5,2.8,6.3,6.3,6.3c1.3,0,2.4-0.4,3.5-1l15.4-10.3
		l15.4,10.2c2.9,2,6.8,1.2,8.7-1.7c0.7-1,1-2.2,1-3.5v-18.9H403V224.5z M346.3,155.9l-9.1-6.1c-2.1-1.4-4.9-1.4-7,0l-9.1,6.1v-32.3
		h25.2V155.9z M308.4,136.2h-44.1v-12.6h44.1V136.2z M169.7,237.1H195v32.3l-9.1-6.1c-2.1-1.4-4.9-1.4-7,0l-9.1,6.1V237.1z
		 M207.6,237.1h44.1v12.6h-44.1V237.1z M264.3,262.3h44.1v18.9c0,3.5,2.8,6.3,6.3,6.3c1.3,0,2.4-0.4,3.5-1l15.4-10.3l15.4,10.2
		c2.9,2,6.8,1.2,8.7-1.7c0.7-1,1-2.2,1-3.5v-18.9H403V338H264.3V262.3z M403,136.2h-44.1v-12.6H403V136.2z M251.7,136.2h-44.1v-12.6
		h44.1V136.2z M157.1,123.6v12.6H113v-12.6H157.1z M113,262.3h44.1v18.9c0,3.5,2.8,6.3,6.3,6.3c1.3,0,2.4-0.4,3.5-1l15.4-10.3
		l15.4,10.2c2.9,2,6.8,1.2,8.7-1.7c0.7-1,1-2.2,1-3.5v-18.9h44.1V338H113V262.3z M81.5,350.6h353v12.6h-353V350.6z M119.3,388.4
		H81.5v-12.6h37.8V388.4z M276.9,388.4h-37.8v-12.6h37.8V388.4z M396.7,388.4v-12.6h37.8v12.6H396.7z"/>
</g>
</svg>
