<?xml version="1.0" encoding="utf-8"?>
<!-- Generator: Adobe Illustrator 19.0.0, SVG Export Plug-In . SVG Version: 6.00 Build 0)  -->
<svg version="1.1" id="Layer_35" xmlns="http://www.w3.org/2000/svg" xmlns:xlink="http://www.w3.org/1999/xlink" x="0px" y="0px"
	 viewBox="0 0 512 512" style="enable-background:new 0 0 512 512;" xml:space="preserve">
<style type="text/css">
	.st0{fill:#FFFFFF;}
	.st1{fill:#BFAC00;}
	.st2{fill:#FFF200;}
	.st3{fill:#E6E9ED;}
	.st4{fill:#FC6E51;}
	.st5{fill:#00F3FF;}
	.st6{fill:#C5F0FF;}
</style>
<circle id="XMLID_1_" class="st0" cx="256.7" cy="256.7" r="254.3"/>
<g>
	<path class="st1" d="M267.5,295.7h151.8V415H267.5V295.7z"/>
	<path class="st2" d="M159.1,198.2H170c-15.2,0-28.2,8.8-34.3,21.7H99.5c-3,0-5.4-2.4-5.4-5.4v-10.8c0-3,2.4-5.4,5.4-5.4h16.3H159.1
		z"/>
	<path class="st2" d="M202.5,198.2h43.4h21.7h43.4h43.4h43.4h16.3c3,0,5.4,2.4,5.4,5.4v10.8c0,3-2.4,5.4-5.4,5.4H204.3
		c-6.1-12.9-19.1-21.7-34.3-21.7H202.5z"/>
	<path class="st1" d="M110.4,371.6l0.1-0.7c1.7,0.4,3.5,0.7,5.3,0.7h27.1V415h-32.5V371.6z"/>
	<path class="st1" d="M170,274c41.9,0,75.9,34,75.9,75.9v65h-27.1v-81.3l-27.1-27.1h-48.8v37.9H94.3c1.3-18.8,9.5-35.6,22-48.2
		C130.1,282.6,149,274,170,274z"/>
	<path class="st3" d="M218.8,333.7V415h-75.9v-43.4h24.4c3.7,0,7.2-1.5,9.6-3.9c2.4-2.4,3.9-5.8,3.9-9.6c0-7.5-6.1-13.6-13.6-13.6
		h-24.4v-37.9h48.8v27.1H218.8z"/>
	<path class="st4" d="M218.8,333.7h-27.1v-27.1L218.8,333.7z"/>
	<path class="st5" d="M167.3,344.5c7.5,0,13.6,6.1,13.6,13.6c0,3.7-1.5,7.2-3.9,9.6c-2.4,2.4-5.8,3.9-9.6,3.9h-24.4h-27.1
		c-1.8,0-3.6-0.2-5.3-0.7c-9.4-2.3-16.4-10.8-16.4-21c0-1.8,0.1-3.7,0.2-5.4h48.6H167.3z"/>
	<path class="st2" d="M204.3,219.8c2.4,4.9,3.7,10.4,3.7,16.3c0,21-16.9,37.9-37.9,37.9S132,257.1,132,236.1
		c0-5.8,1.3-11.3,3.7-16.3c6.1-12.9,19.1-21.7,34.3-21.7C185.2,198.2,198.2,207,204.3,219.8z"/>
	<path class="st1" d="M267.5,89.7h130.1v108.4H267.5V89.7z"/>
	<path class="st1" d="M115.8,89.7h130.1v108.4H115.8V89.7z"/>
	<g>
		<path class="st6" d="M202.5,176.5v21.7H170h-10.8v-21.7H202.5z"/>
		<path class="st2" d="M159.1,89.7h43.4v21.7h-43.4V89.7z"/>
		<path class="st2" d="M310.9,89.7h43.4v21.7h-43.4V89.7z"/>
		<path class="st6" d="M310.9,176.5h43.4v21.7h-43.4V176.5z"/>
		<path class="st2" d="M321.7,295.7h43.4v21.7h-43.4V295.7z"/>
	</g>
	<path d="M262.1,420.4h162.6V290.3H262.1V420.4z M327.2,301.1h32.5V312h-32.5V301.1z M273,301.1h43.4v21.7h54.2v-21.7h43.4v108.4
		H273V301.1z"/>
	<path d="M392.2,387.9H403v10.8h-10.8V387.9z"/>
	<path d="M370.5,387.9h10.8v10.8h-10.8V387.9z"/>
	<path d="M348.8,387.9h10.8v10.8h-10.8V387.9z"/>
	<path d="M413.9,192.7H403V84.3H262.1v108.4h-10.8V84.3H110.4v108.4H99.5c-6,0-10.8,4.9-10.8,10.8v10.8c0,6,4.9,10.8,10.8,10.8H128
		c-0.9,3.5-1.4,7.1-1.4,10.8c0,15,7.7,28.3,19.4,36.1c-33.2,10.2-57.4,41.2-57.4,77.7c0,11.1,6.7,20.6,16.3,24.8v45.7h146.3v-70.5
		c0-36.5-24.2-67.5-57.4-77.7c11.7-7.8,19.4-21.1,19.4-36.1c0-3.7-0.5-7.4-1.4-10.8h202c6,0,10.8-4.9,10.8-10.8v-10.8
		C424.7,197.6,419.8,192.7,413.9,192.7z M316.3,95.2h32.5V106h-32.5V95.2z M273,95.2h32.5v21.7h54.2V95.2h32.5v97.6h-32.5V171h-54.2
		v21.7H273V95.2z M348.8,192.7h-32.5v-10.8h32.5V192.7z M164.6,95.2h32.5V106h-32.5V95.2z M121.2,95.2h32.5v21.7h54.2V95.2h32.5
		v97.6h-32.5V171h-54.2v21.7h-32.5V95.2z M164.6,192.7v-10.8h32.5v10.8H164.6z M99.5,214.4v-10.8h41.9c-3.5,3.1-6.5,6.8-8.9,10.8
		H99.5z M115.8,377h21.7v32.5h-21.7V377z M167.3,339.1h-19V312h37.9v27.1h27.1v70.5h-65V377h19c10.4,0,19-8.5,19-19
		C186.2,347.6,177.7,339.1,167.3,339.1z M197.1,319.6l8.6,8.6h-8.6V319.6z M240.4,349.9v59.6h-16.3v-78.1l-30.3-30.3h-56.4v37.9
		h-16.3v10.8h46.1c4.5,0,8.1,3.7,8.1,8.1c0,4.5-3.7,8.1-8.1,8.1h-51.5c-8.9,0-16.3-7.3-16.3-16.3c0-38.8,31.6-70.5,70.5-70.5
		S240.4,311.1,240.4,349.9z M170,268.6c-18,0-32.5-14.6-32.5-32.5s14.6-32.5,32.5-32.5s32.5,14.6,32.5,32.5S187.9,268.6,170,268.6z
		 M413.9,214.4H207.4c-2.4-4.1-5.4-7.7-8.9-10.8h215.4V214.4z"/>
	<path d="M348.8,366.2H403V377h-54.2V366.2z"/>
</g>
</svg>
