<?xml version="1.0" encoding="utf-8"?>
<!-- Generator: Adobe Illustrator 19.0.0, SVG Export Plug-In . SVG Version: 6.00 Build 0)  -->
<svg version="1.1" id="Layer_1" xmlns="http://www.w3.org/2000/svg" xmlns:xlink="http://www.w3.org/1999/xlink" x="0px" y="0px"
	 viewBox="0 0 512 512" style="enable-background:new 0 0 512 512;" xml:space="preserve">
<style type="text/css">
	.st0{fill:#FFFFFF;}
	.st1{fill:#BBC900;}
	.st2{fill:#EFE800;}
	.st3{fill:#B5CE00;}
	.st4{fill:#0C0C0C;}
	.st5{fill:#303030;}
	.st6{fill:#191919;}
</style>
<circle id="XMLID_1_" class="st0" cx="256.7" cy="256.7" r="254.3"/>
<g>
	<polygon id="XMLID_14_" class="st1" points="170.3,370.7 171.8,434.2 184.4,434.2 361,434.2 372.8,424.6 412,380.3 416.4,362.6 
		355.1,371.4 202.1,370.7 	"/>
	<rect id="XMLID_12_" x="171.8" y="87.7" class="st2" width="240.2" height="292.6"/>
	<path id="XMLID_15_" class="st3" d="M412,380.3l-39.2,0.7L361,391.3v29.6v13.3c0,0,22.9-26.2,25.5-25.1
		c2.6,1.1,25.5-24.5,25.5-24.5V380.3z"/>
	<circle id="XMLID_13_" class="st3" cx="188.7" cy="242.4" r="90.9"/>
	<g>
		<path class="st4" d="M400.2,75.6h-216c-12.3,0-22.4,10.1-22.4,22.4v50.2c-40.9,11.7-71,49.5-71,94.2s30,82.5,71,94.2v86.3
			c0,12.3,10.1,22.4,22.4,22.4h176.5c2.1,0,4.1-0.8,5.6-2.3l54-54c1.5-1.5,2.3-3.5,2.3-5.6V98C422.6,85.7,412.5,75.6,400.2,75.6z
			 M184.2,91.4h216c3.6,0,6.7,3,6.7,6.7v23.8H177.6V98C177.6,94.4,180.5,91.4,184.2,91.4z M106.5,242.4c0-45.3,36.9-82.2,82.2-82.2
			s82.2,36.9,82.2,82.2s-36.9,82.2-82.2,82.2S106.5,287.7,106.5,242.4z M177.6,422.9v-83.2c3.6,0.4,7.4,0.7,11.2,0.7
			c29.4,0,55.9-13.1,73.8-33.6h48.4c4.4,0,7.9-3.5,7.9-7.9c0-4.4-3.5-7.9-7.9-7.9h-37.2c6.9-12,11.2-25.6,12.5-40.1h24.6
			c4.4,0,7.9-3.5,7.9-7.9s-3.5-7.9-7.9-7.9h-24.5c-1-14.4-5.2-28-12-40.1h36.4c4.4,0,7.9-3.5,7.9-7.9c0-4.4-3.5-7.9-7.9-7.9h-47.4
			c-18-21.3-44.9-34.9-74.9-34.9c-3.8,0-7.5,0.2-11.2,0.7v-7.4h229.4v237.9h-31.6c-12.3,0-22.4,10.1-22.4,22.4v31.6H184.2
			C180.5,429.5,177.6,426.6,177.6,422.9z M368.6,418.4V398c0-3.6,3-6.7,6.7-6.7h20.4L368.6,418.4z"/>
		<path id="XMLID_6_" class="st5" d="M341.9,195h26.2c4.4,0,7.9-3.5,7.9-7.9c0-4.4-3.5-7.9-7.9-7.9h-26.2c-4.4,0-7.9,3.5-7.9,7.9
			C334,191.6,337.5,195,341.9,195z"/>
		<path id="XMLID_5_" class="st5" d="M341.9,250.9h26.2c4.4,0,7.9-3.5,7.9-7.9s-3.5-7.9-7.9-7.9h-26.2c-4.4,0-7.9,3.5-7.9,7.9
			S337.5,250.9,341.9,250.9z"/>
		<path id="XMLID_4_" class="st5" d="M341.9,306.7h26.2c4.4,0,7.9-3.5,7.9-7.9c0-4.4-3.5-7.9-7.9-7.9h-26.2c-4.4,0-7.9,3.5-7.9,7.9
			S337.5,306.7,341.9,306.7z"/>
		<path id="XMLID_3_" class="st5" d="M368.1,362.6c4.4,0,7.9-3.5,7.9-7.9c0-4.4-3.5-7.9-7.9-7.9h-73.8c-4.4,0-7.9,3.5-7.9,7.9
			c0,4.4,3.5,7.9,7.9,7.9H368.1z"/>
		<path class="st6" d="M240.6,208.7l-8.1-8.1c-2.2-2.2-5.1-3.4-8.2-3.4c-3.1,0-6,1.2-8.2,3.4l-42.8,42.8l-11.8-11.8
			c-2.2-2.2-5.1-3.4-8.2-3.4s-6,1.2-8.2,3.4l-8.1,8.1c-4.5,4.5-4.5,11.9,0,16.5l28.2,28.2c2.2,2.2,5.1,3.4,8.2,3.4l0,0
			c3.1,0,6-1.2,8.2-3.4l59.2-59.2C245.2,220.6,245.2,213.2,240.6,208.7z M173.2,273.6l-25.7-25.7l5.7-5.7l15.3,15.3
			c2.6,2.6,6.8,2.6,9.5,0l46.3-46.3l5.7,5.7L173.2,273.6z"/>
	</g>
</g>
</svg>
