<?xml version="1.0" encoding="utf-8"?>
<!-- Generator: Adobe Illustrator 19.0.0, SVG Export Plug-In . SVG Version: 6.00 Build 0)  -->
<svg version="1.1" id="Layer_1" xmlns="http://www.w3.org/2000/svg" xmlns:xlink="http://www.w3.org/1999/xlink" x="0px" y="0px"
	 viewBox="0 0 512 512" style="enable-background:new 0 0 512 512;" xml:space="preserve">
<style type="text/css">
	.st0{fill:#FFFFFF;}
	.st1{fill:#E5E8E9;}
	.st2{fill:#FF8500;}
	.st3{fill:#00CDFC;}
	.st4{fill:#FF0043;}
	.st5{fill:#E7FF00;}
	.st6{fill:#010101;}
</style>
<circle id="XMLID_1_" class="st0" cx="256.3" cy="256.7" r="254.3"/>
<g id="XMLID_21_">
	<g id="XMLID_37_">
		<g id="XMLID_45_">
			<path id="XMLID_19_" class="st1" d="M440.7,239L289.9,413.5c-8.2,9.5-22.5,10.6-32,2.3L132.1,307.2c-9.5-8.2-10.6-22.5-2.3-32
				l150.8-174.6c8.2-9.5,22.5-10.6,32-2.3l125.8,108.7C447.9,215.3,448.9,229.6,440.7,239z"/>
			<path id="XMLID_18_" class="st2" d="M440.7,239l-90.8,105L189.8,205.7l90.8-105c8.2-9.5,22.5-10.6,32-2.3l125.8,108.7
				C447.9,215.3,448.9,229.6,440.7,239z"/>
		</g>
		<g id="XMLID_42_">
			<path id="XMLID_17_" class="st3" d="M364.4,186.3l-73.3,218.6c-4,11.9-16.8,18.3-28.7,14.3l-157.6-52.9
				c-11.9-4-18.3-16.8-14.3-28.7L163.8,119c4-11.9,16.8-18.3,28.7-14.3l157.7,52.9C362,161.5,368.4,174.4,364.4,186.3z"/>
			<path id="XMLID_16_" class="st1" d="M364.4,186.3l-44.1,131.6l-200.7-67.3L163.7,119c4-11.9,16.8-18.3,28.7-14.3l157.7,52.8
				C362,161.5,368.4,174.4,364.4,186.3z"/>
		</g>
		<g id="XMLID_38_">
			<path id="XMLID_15_" class="st1" d="M278.1,165.9v230.6c0,12.5-10.2,22.7-22.7,22.7H89.2c-12.5,0-22.7-10.2-22.7-22.7V165.9
				c0-12.5,10.2-22.7,22.7-22.7h166.3C267.9,143.2,278.1,153.4,278.1,165.9z"/>
			<path id="XMLID_14_" class="st4" d="M278.1,165.9v138.8H66.5V165.9c0-12.5,10.2-22.7,22.7-22.7h166.3
				C267.9,143.2,278.1,153.4,278.1,165.9z"/>
			<polygon id="XMLID_13_" class="st5" points="172.3,164.3 190.5,201.1 231,207 201.6,235.6 208.6,276 172.3,256.9 136.1,276 
				142.9,235.6 113.6,207 154.2,201.1 			"/>
		</g>
	</g>
	<g id="XMLID_22_">
		<path id="XMLID_12_" class="st6" d="M442.2,202.6l-19.7-17c-2.4-2.1-6.2-1.9-8.3,0.6c-2.1,2.4-1.9,6.2,0.6,8.3l19.7,17
			c7,6.1,7.8,16.7,1.7,23.8L308.3,383.3c-2.1,2.4-1.9,6.2,0.6,8.3c1.1,0.9,2.5,1.4,3.8,1.4c1.6,0,3.3-0.7,4.5-2l128-148.1
			C455.4,231,454.1,212.9,442.2,202.6z"/>
		<path id="XMLID_11_" class="st6" d="M268.1,115.1c2.4,2.1,6.2,1.9,8.3-0.6l8.7-10.1c3-3.4,7-5.5,11.5-5.8
			c4.5-0.3,8.8,1.1,12.2,4.1l91.1,78.7c1.1,0.9,2.5,1.4,3.8,1.4c1.6,0,3.3-0.7,4.5-2c2.1-2.4,1.9-6.2-0.6-8.3L316.4,94
			c-5.8-5-13.1-7.4-20.7-6.9s-14.5,4.1-19.5,9.8l-8.7,10.1C265.3,109.4,265.7,113,268.1,115.1z"/>
		<path id="XMLID_10_" class="st6" d="M352,152L194.4,99.1c-14.9-5-31.1,3-36.1,18l-2.1,6.2c-1,3,0.6,6.4,3.7,7.4
			c3,1,6.4-0.6,7.4-3.7l2.1-6.2c3-8.8,12.5-13.5,21.3-10.6l157.6,52.8c8.8,3,13.5,12.5,10.6,21.3L285.6,403c-1,3,0.6,6.4,3.7,7.4
			c0.6,0.2,1.3,0.3,1.9,0.3c2.4,0,4.7-1.6,5.6-4L370,188.1C374.9,173.2,366.9,157,352,152z"/>
		<path id="XMLID_31_" class="st6" d="M255.4,137.3H89.2c-15.7,0-28.5,12.8-28.5,28.5v230.6c0,15.7,12.8,28.5,28.5,28.5h166.3
			c15.7,0,28.5-12.8,28.5-28.5V165.9C283.9,150.2,271.1,137.3,255.4,137.3z M272.3,396.5c0,9.3-7.6,16.8-16.8,16.8H89.2
			c-9.3,0-16.8-7.6-16.8-16.8V165.9c0-9.3,7.6-16.8,16.8-16.8h166.3c9.3,0,16.8,7.6,16.8,16.8L272.3,396.5L272.3,396.5z"/>
		<path id="XMLID_7_" class="st6" d="M258.5,298.8H86.2c-3.2,0-5.9,2.7-5.9,5.9s2.7,5.9,5.9,5.9h172.4c3.2,0,5.9-2.7,5.9-5.9
			S261.7,298.8,258.5,298.8z"/>
		<path id="XMLID_6_" class="st6" d="M231.2,332.2h-72.5c-3.2,0-5.9,2.7-5.9,5.9s2.7,5.9,5.9,5.9h72.5c3.2,0,5.9-2.7,5.9-5.9
			S234.5,332.2,231.2,332.2z"/>
		<path id="XMLID_5_" class="st6" d="M113.4,343.9h25.9c3.2,0,5.9-2.7,5.9-5.9s-2.7-5.9-5.9-5.9h-25.9c-3.2,0-5.9,2.7-5.9,5.9
			S110.2,343.9,113.4,343.9z"/>
		<path id="XMLID_4_" class="st6" d="M231.2,354.6H113.4c-3.2,0-5.9,2.7-5.9,5.9s2.7,5.9,5.9,5.9h117.8c3.2,0,5.9-2.7,5.9-5.9
			S234.5,354.6,231.2,354.6z"/>
		<path id="XMLID_3_" class="st6" d="M231.2,376.9H113.4c-3.2,0-5.9,2.7-5.9,5.9s2.7,5.9,5.9,5.9h117.8c3.2,0,5.9-2.7,5.9-5.9
			S234.5,376.9,231.2,376.9z"/>
		<path id="XMLID_23_" class="st6" d="M136.7,237.7l-6.4,37.4c-0.4,2.2,0.5,4.4,2.3,5.7c1,0.7,2.2,1.1,3.4,1.1
			c0.9,0,1.9-0.2,2.7-0.7l33.5-17.7l33.5,17.7c2,1,4.4,0.9,6.2-0.5c1.8-1.3,2.7-3.5,2.3-5.7l-6.4-37.4l27.1-26.5
			c1.6-1.6,2.2-3.9,1.5-6c-0.7-2.1-2.5-3.7-4.7-4l-37.5-5.5l-16.8-34c-1-2-3-3.3-5.2-3.3s-4.2,1.3-5.2,3.3l-16.8,34l-37.5,5.5
			c-2.2,0.3-4.1,1.9-4.7,4c-0.7,2.1-0.1,4.5,1.5,6L136.7,237.7z M155,206.9c1.9-0.3,3.5-1.5,4.4-3.2l12.9-26.1l12.9,26.1
			c0.9,1.7,2.5,2.9,4.4,3.2l28.8,4.2l-20.9,20.3c-1.4,1.3-2,3.3-1.7,5.2l5.1,28.8l-25.8-13.6c-1.7-0.9-3.8-0.9-5.5,0l-25.8,13.6
			l4.9-28.8c0.3-1.9-0.3-3.8-1.7-5.2l-20.9-20.3L155,206.9z"/>
	</g>
</g>
</svg>
