<?xml version="1.0" encoding="utf-8"?>
<!-- Generator: Adobe Illustrator 24.0.1, SVG Export Plug-In . SVG Version: 6.00 Build 0)  -->
<svg version="1.1" id="Layer_1" xmlns="http://www.w3.org/2000/svg" xmlns:xlink="http://www.w3.org/1999/xlink" x="0px" y="0px"
	 viewBox="0 0 50 50" style="enable-background:new 0 0 50 50;" xml:space="preserve">
<style type="text/css">
	.st0{fill:#DADCDE;}
	.st1{fill:#CECE0D;}
	.st2{fill:#E9EEF2;}
	.st3{fill:#D0D1D3;}
	.st4{fill:#E84241;}
	.st5{fill:#C7332E;}
	.st6{fill:#020203;}
</style>
<path class="st0" d="M7.5,9.8h35c0.8,0,1.5,0.7,1.5,1.5v22.9l0,0H6l0,0V11.3C6,10.4,6.6,9.8,7.5,9.8z"/>
<path class="st1" d="M9,12.8h32v21.3H9V12.8z"/>
<path class="st2" d="M9,12.8h32v3H9V12.8z"/>
<path class="st3" d="M2.9,34.1h44.2l0,0v3c0,1.7-1.4,3-3,3H6c-1.7,0-3-1.4-3-3V34.1L2.9,34.1z"/>
<path class="st2" d="M27.1,37.2h-4.2c-0.6,0-1.1-0.3-1.4-0.8l-1.1-2.2h9.1l-1.1,2.2C28.2,36.9,27.7,37.2,27.1,37.2z"/>
<path class="st4" d="M35.1,29.6h-6.5c-0.7,0-1.3-0.7-1.3-1.5s0.6-1.5,1.3-1.5h6.5c0.7,0,1.3,0.7,1.3,1.5S35.8,29.6,35.1,29.6z"/>
<path class="st2" d="M34.9,32.6L33.4,28l4.6,1.5L34.9,32.6z"/>
<path class="st4" d="M19.7,31.1H12l0.8-9.1h6.1L19.7,31.1z"/>
<path class="st5" d="M22.7,31.1h-3L18.9,22h3L22.7,31.1z"/>
<path class="st6" d="M47.1,33.4h-2.3V11.3c0-1.3-1-2.3-2.3-2.3h-35c-1.3,0-2.3,1-2.3,2.3v22.1H2.9c-0.4,0-0.8,0.3-0.8,0.8v3
	C2.1,39.3,3.8,41,6,41H44c2.1,0,3.8-1.7,3.8-3.8v-3C47.9,33.7,47.5,33.4,47.1,33.4z M6.7,11.3c0-0.4,0.3-0.8,0.8-0.8h35
	c0.4,0,0.8,0.3,0.8,0.8v22.1h-1.5V12.8c0-0.4-0.3-0.8-0.8-0.8H9c-0.4,0-0.8,0.3-0.8,0.8v20.6H6.7V11.3z M9.8,33.4V16.6h30.5v16.8
	H9.8z M28.3,34.9L27.8,36c-0.1,0.3-0.4,0.4-0.7,0.4h-4.2c-0.3,0-0.6-0.2-0.7-0.4l-0.6-1.1H28.3z M40.2,15.1H9.8v-1.5h30.5V15.1z
	 M46.3,37.2c0,1.3-1,2.3-2.3,2.3H6c-1.3,0-2.3-1-2.3-2.3v-2.3H20l0.9,1.8c0.4,0.8,1.2,1.3,2,1.3h4.2c0.9,0,1.7-0.5,2-1.3l0.9-1.8
	h16.3V37.2z"/>
<path class="st6" d="M25.8,21.2h7.6c0.4,0,0.8-0.3,0.8-0.8s-0.3-0.8-0.8-0.8h-7.6c-0.4,0-0.8,0.3-0.8,0.8S25.3,21.2,25.8,21.2z"/>
<path class="st6" d="M31.1,23.5c0-0.4-0.3-0.8-0.8-0.8h-4.6c-0.4,0-0.8,0.3-0.8,0.8s0.3,0.8,0.8,0.8h4.6
	C30.8,24.2,31.1,23.9,31.1,23.5z"/>
<circle class="st6" cx="12" cy="14.3" r="0.8"/>
<circle class="st6" cx="15.1" cy="14.3" r="0.8"/>
<circle class="st6" cx="18.1" cy="14.3" r="0.8"/>
<path class="st6" d="M38.5,30.1c0.3-0.3,0.3-0.8,0-1.1c-0.1-0.1-0.2-0.1-0.3-0.2l-1-0.3c0-0.1,0-0.3,0-0.5c0-1.3-0.9-2.3-2.1-2.3
	h-6.5c-1.1,0-2.1,1-2.1,2.3s0.9,2.3,2.1,2.3h4.7l0.8,2.5c0.1,0.4,0.6,0.6,1,0.5c0.1,0,0.2-0.1,0.3-0.2L38.5,30.1z M33.6,27.3
	c-0.4-0.1-0.8,0.1-1,0.5c-0.1,0.2-0.1,0.3,0,0.5l0.2,0.5h-4.2c-0.3,0-0.5-0.3-0.5-0.8s0.2-0.8,0.5-0.8h6.5c0.3,0,0.5,0.3,0.5,0.7
	L33.6,27.3z M34.6,29.3l2,0.7l-1.3,1.3L34.6,29.3z"/>
<path class="st6" d="M36.4,21.2H38c0.4,0,0.8-0.3,0.8-0.8s-0.3-0.8-0.8-0.8h-1.5c-0.4,0-0.8,0.3-0.8,0.8S36,21.2,36.4,21.2z"/>
<path class="st6" d="M38,22.7h-4.6c-0.4,0-0.8,0.3-0.8,0.8s0.3,0.8,0.8,0.8H38c0.4,0,0.8-0.3,0.8-0.8S38.4,22.7,38,22.7z"/>
<path class="st6" d="M23.5,31l-0.8-9.1c0-0.4-0.4-0.7-0.8-0.7h-0.8v-0.8c0-1.3-1-2.3-2.3-2.3c-0.6,0-1.1,0.2-1.5,0.6
	c-0.9-0.8-2.4-0.8-3.2,0.2c-0.4,0.4-0.6,1-0.6,1.5v0.8h-0.8c-0.4,0-0.7,0.3-0.8,0.7L11.3,31c0,0.4,0.3,0.8,0.7,0.8c0,0,0,0,0.1,0
	h10.7C23.1,31.9,23.5,31.5,23.5,31C23.5,31.1,23.5,31.1,23.5,31z M18.9,19.7c0.4,0,0.8,0.3,0.8,0.8v0.8h-1.5v-0.8
	C18.1,20,18.5,19.7,18.9,19.7z M15.1,20.4c0-0.4,0.3-0.8,0.8-0.8c0.4,0,0.8,0.3,0.8,0.8v0.8h-1.5V20.4z M12.9,30.3l0.6-7.6h4.7
	l0.6,7.6H12.9z M20.4,30.3l-0.6-7.6h1.5l0.6,7.6H20.4z"/>
</svg>
