<?xml version="1.0" encoding="utf-8"?>
<!-- Generator: Adobe Illustrator 19.0.0, SVG Export Plug-In . SVG Version: 6.00 Build 0)  -->
<svg version="1.1" id="Capa_1" xmlns="http://www.w3.org/2000/svg" xmlns:xlink="http://www.w3.org/1999/xlink" x="0px" y="0px"
	 viewBox="0 0 512 512" style="enable-background:new 0 0 512 512;" xml:space="preserve">
<style type="text/css">
	.st0{fill:#FFFFFF;}
	.st1{fill:#282828;}
	.st2{fill:#E0DA00;}
	.st3{fill:#7FACFA;}
	.st4{fill:#A4C2F7;}
	.st5{fill:#FFFF00;}
	.st6{fill:#BAB100;}
	.st7{fill:#428DFF;}
</style>
<circle id="XMLID_1_" class="st0" cx="256.7" cy="256.7" r="254.3"/>
<g>
	<path class="st1" d="M151.4,87.5v307.9c0,16-13,29-29,29h267.2c7.7,0,15.1-3.1,20.5-8.5c5.4-5.4,8.5-12.8,8.5-20.5V87.5H151.4z"/>
	<path class="st2" d="M157.2,87.5v307.9c0,16-13,29-29,29h244c7.7,0,15.1-3.1,20.5-8.5c5.4-5.4,8.5-12.8,8.5-20.5V87.5H157.2z"/>
	<path class="st1" d="M93.3,261.8h58.1v133.6c0,7.7-3.1,15.1-8.5,20.5c-5.4,5.4-12.8,8.5-20.5,8.5l0,0c-16,0-29-13-29-29L93.3,261.8
		L93.3,261.8z"/>
	<rect x="221.1" y="110.8" class="st3" width="127.8" height="23.2"/>
	<rect x="221.1" y="110.8" class="st4" width="110.4" height="23.2"/>
	<rect x="186.3" y="180.5" class="st5" width="69.7" height="69.7"/>
	<rect x="186.3" y="180.5" class="st6" width="52.3" height="69.7"/>
	<rect x="314.1" y="319.9" class="st5" width="69.7" height="69.7"/>
	<rect x="314.1" y="319.9" class="st6" width="52.3" height="69.7"/>
	<path class="st0" d="M93.3,261.8h17.4v156.8h-5.2c-3.2,0-6.3-1.3-8.6-3.6c-2.3-2.3-3.6-5.4-3.6-8.6
		C93.3,406.5,93.3,261.8,93.3,261.8z"/>
	<g>
		<path class="st7" d="M122.4,430.3c-19.2,0-34.8-15.6-34.9-34.9V261.8c0-1.5,0.6-3,1.7-4.1c1.1-1.1,2.6-1.7,4.1-1.7h58.1
			c1.5,0,3,0.6,4.1,1.7c1.1,1.1,1.7,2.6,1.7,4.1v133.6C157.2,414.7,141.6,430.3,122.4,430.3z M99.2,267.6v127.8
			c0,12.8,10.4,23.2,23.2,23.2s23.2-10.4,23.2-23.2V267.6H99.2z"/>
		<path class="st7" d="M389.6,430.3H122.4c-3.2,0-5.8-2.6-5.8-5.8c0-3.2,2.6-5.8,5.8-5.8c12.8,0,23.2-10.4,23.2-23.2V87.5
			c0-1.5,0.6-3,1.7-4.1c1.1-1.1,2.6-1.7,4.1-1.7h267.2c1.5,0,3,0.6,4.1,1.7c1.1,1.1,1.7,2.6,1.7,4.1v307.9
			C424.4,414.7,408.8,430.3,389.6,430.3z M148.3,418.7h241.3c12.8,0,23.2-10.4,23.2-23.2V93.3H157.2v302.1
			C157.2,404,154.1,412.3,148.3,418.7z"/>
		<path class="st1" d="M256,256h-69.7c-1.5,0-3-0.6-4.1-1.7c-1.1-1.1-1.7-2.6-1.7-4.1v-69.7c0-1.5,0.6-3,1.7-4.1
			c1.1-1.1,2.6-1.7,4.1-1.7H256c1.5,0,3,0.6,4.1,1.7s1.7,2.6,1.7,4.1v69.7c0,1.5-0.6,3-1.7,4.1C259,255.4,257.5,256,256,256z
			 M192.1,244.4h58.1v-58.1h-58.1V244.4z"/>
		<path class="st1" d="M383.8,186.3h-92.9c-3.2,0-5.8-2.6-5.8-5.8c0-3.2,2.6-5.8,5.8-5.8h92.9c3.2,0,5.8,2.6,5.8,5.8
			C389.6,183.7,387,186.3,383.8,186.3z"/>
		<path class="st1" d="M383.8,221.1h-92.9c-3.2,0-5.8-2.6-5.8-5.8s2.6-5.8,5.8-5.8h92.9c3.2,0,5.8,2.6,5.8,5.8
			S387,221.1,383.8,221.1z"/>
		<path class="st1" d="M383.8,256h-92.9c-3.2,0-5.8-2.6-5.8-5.8c0-3.2,2.6-5.8,5.8-5.8h92.9c3.2,0,5.8,2.6,5.8,5.8
			C389.6,253.4,387,256,383.8,256z"/>
		<path class="st1" d="M383.8,290.9H192.1c-3.2,0-5.8-2.6-5.8-5.8c0-3.2,2.6-5.8,5.8-5.8h191.7c3.2,0,5.8,2.6,5.8,5.8
			C389.6,288.3,387,290.9,383.8,290.9z"/>
		<path class="st1" d="M279.2,325.7h-87.1c-3.2,0-5.8-2.6-5.8-5.8c0-3.2,2.6-5.8,5.8-5.8h87.1c3.2,0,5.8,2.6,5.8,5.8
			C285,323.1,282.4,325.7,279.2,325.7z"/>
		<path class="st1" d="M279.2,360.6h-87.1c-3.2,0-5.8-2.6-5.8-5.8s2.6-5.8,5.8-5.8h87.1c3.2,0,5.8,2.6,5.8,5.8
			S282.4,360.6,279.2,360.6z"/>
		<path class="st1" d="M279.2,395.4h-87.1c-3.2,0-5.8-2.6-5.8-5.8c0-3.2,2.6-5.8,5.8-5.8h87.1c3.2,0,5.8,2.6,5.8,5.8
			C285,392.8,282.4,395.4,279.2,395.4z"/>
		<path class="st1" d="M383.8,395.4h-69.7c-1.5,0-3-0.6-4.1-1.7c-1.1-1.1-1.7-2.6-1.7-4.1v-69.7c0-1.5,0.6-3,1.7-4.1
			c1.1-1.1,2.6-1.7,4.1-1.7h69.7c1.5,0,3,0.6,4.1,1.7c1.1,1.1,1.7,2.6,1.7,4.1v69.7c0,1.5-0.6,3-1.7,4.1
			C386.8,394.8,385.3,395.4,383.8,395.4z M319.9,383.8H378v-58.1h-58.1V383.8z"/>
		<path class="st7" d="M418.7,163.1H151.4c-3.2,0-5.8-2.6-5.8-5.8c0-3.2,2.6-5.8,5.8-5.8h267.2c3.2,0,5.8,2.6,5.8,5.8
			C424.5,160.5,421.9,163.1,418.7,163.1z"/>
		<path class="st1" d="M348.9,139.8H221.1c-1.5,0-3-0.6-4.1-1.7c-1.1-1.1-1.7-2.6-1.7-4.1v-23.2c0-1.5,0.6-3,1.7-4.1
			c1.1-1.1,2.6-1.7,4.1-1.7h127.8c1.5,0,3,0.6,4.1,1.7c1.1,1.1,1.7,2.6,1.7,4.1V134c0,1.5-0.6,3-1.7,4.1
			C352,139.2,350.5,139.8,348.9,139.8L348.9,139.8z M227,128.2h116.2v-11.6H227V128.2z"/>
	</g>
</g>
</svg>
