<?xml version="1.0" encoding="utf-8"?>
<!-- Generator: Adobe Illustrator 24.0.1, SVG Export Plug-In . SVG Version: 6.00 Build 0)  -->
<svg version="1.1" id="Layer_1" xmlns="http://www.w3.org/2000/svg" xmlns:xlink="http://www.w3.org/1999/xlink" x="0px" y="0px"
	 viewBox="0 0 50 50" style="enable-background:new 0 0 50 50;" xml:space="preserve">
<style type="text/css">
	.st0{fill:#BEE3F9;}
	.st1{fill:#CAE0AC;}
	.st2{fill:#3566AF;}
	.st3{fill:#FDFDFD;}
	.st4{fill:#D1D2D4;}
	.st5{fill:#E52629;}
	.st6{fill:#F49523;}
	.st7{fill:#F49723;}
	.st8{fill:#93C023;}
	.st9{fill:#020203;}
</style>
<path class="st0" d="M33.1,4.8H7.2v43.6h35.5V14.5h-9.7V4.8z"/>
<path class="st1" d="M14.5,48.4h28.3V25.8C42.8,37.4,28.4,48.4,14.5,48.4z"/>
<path class="st1" d="M3.2,1.6H21c0.9,0,1.6,0.7,1.6,1.6v22.6c0,0.9-0.7,1.6-1.6,1.6H3.2c-0.9,0-1.6-0.7-1.6-1.6V3.2
	C1.6,2.3,2.3,1.6,3.2,1.6z"/>
<path class="st2" d="M33.1,14.5h9.7l-9.7-9.7V14.5z"/>
<path class="st3" d="M4,4h16.2v4H4V4z"/>
<g>
	<path class="st0" d="M5.6,10.5h1.6c0.4,0,0.8,0.4,0.8,0.8v1.6c0,0.4-0.4,0.8-0.8,0.8H5.6c-0.4,0-0.8-0.4-0.8-0.8v-1.6
		C4.8,10.8,5.2,10.5,5.6,10.5z"/>
	<path class="st0" d="M11.3,10.5h1.6c0.4,0,0.8,0.4,0.8,0.8v1.6c0,0.4-0.4,0.8-0.8,0.8h-1.6c-0.4,0-0.8-0.4-0.8-0.8v-1.6
		C10.5,10.8,10.8,10.5,11.3,10.5z"/>
	<path class="st0" d="M16.9,10.5h1.6c0.4,0,0.8,0.4,0.8,0.8v1.6c0,0.4-0.4,0.8-0.8,0.8h-1.6c-0.4,0-0.8-0.4-0.8-0.8v-1.6
		C16.1,10.8,16.5,10.5,16.9,10.5z"/>
	<path class="st0" d="M5.6,16.1h1.6c0.4,0,0.8,0.4,0.8,0.8v1.6c0,0.4-0.4,0.8-0.8,0.8H5.6c-0.4,0-0.8-0.4-0.8-0.8v-1.6
		C4.8,16.5,5.2,16.1,5.6,16.1z"/>
	<path class="st0" d="M11.3,16.1h1.6c0.4,0,0.8,0.4,0.8,0.8v1.6c0,0.4-0.4,0.8-0.8,0.8h-1.6c-0.4,0-0.8-0.4-0.8-0.8v-1.6
		C10.5,16.5,10.8,16.1,11.3,16.1z"/>
	<path class="st0" d="M16.9,16.1h1.6c0.4,0,0.8,0.4,0.8,0.8v1.6c0,0.4-0.4,0.8-0.8,0.8h-1.6c-0.4,0-0.8-0.4-0.8-0.8v-1.6
		C16.1,16.5,16.5,16.1,16.9,16.1z"/>
	<path class="st0" d="M5.6,21.8h1.6c0.4,0,0.8,0.4,0.8,0.8v1.6C8,24.6,7.7,25,7.2,25H5.6c-0.4,0-0.8-0.4-0.8-0.8v-1.6
		C4.8,22.1,5.2,21.8,5.6,21.8z"/>
	<path class="st0" d="M11.3,21.8h1.6c0.4,0,0.8,0.4,0.8,0.8v1.6c0,0.4-0.4,0.8-0.8,0.8h-1.6c-0.4,0-0.8-0.4-0.8-0.8v-1.6
		C10.5,22.1,10.8,21.8,11.3,21.8z"/>
</g>
<path class="st4" d="M47.9,29.4c0.6-0.6,0.6-1.7,0-2.3c-0.6-0.6-1.7-0.6-2.3,0l-1.1,1.1l2.3,2.3L47.9,29.4z"/>
<path class="st5" d="M31.8,41l-2,4.2l4.2-2l11-11L42.8,30L31.8,41z"/>
<path class="st6" d="M42.8,30l1.7-1.7l2.3,2.3l-1.7,1.7L42.8,30z"/>
<path class="st7" d="M26.6,37.9c0,4-3.3,7.3-7.3,7.3s-7.3-3.3-7.3-7.3s3.3-7.3,7.3-7.3S26.6,33.9,26.6,37.9z"/>
<path class="st8" d="M4.8,27.4H21c0.9,0,1.6-0.7,1.6-1.6V12.9C22.6,20.9,14.6,27.4,4.8,27.4z"/>
<path class="st0" d="M16.9,21.8h1.6c0.4,0,0.8,0.4,0.8,0.8v1.6c0,0.4-0.4,0.8-0.8,0.8h-1.6c-0.4,0-0.8-0.4-0.8-0.8v-1.6
	C16.1,22.1,16.5,21.8,16.9,21.8z"/>
<path class="st9" d="M19.4,29.8c-4.5,0-8.1,3.6-8.1,8.1s3.6,8.1,8.1,8.1s8.1-3.6,8.1-8.1C27.4,33.5,23.8,29.9,19.4,29.8z M19.4,44.4
	c-3.6,0-6.5-2.9-6.5-6.5c0-3.6,2.9-6.5,6.5-6.5s6.5,2.9,6.5,6.5C25.8,41.5,22.9,44.4,19.4,44.4z"/>
<path class="st9" d="M19.4,35.5c1,0,1.6,0.5,1.6,0.8h1.6c0-1.1-1-2.1-2.4-2.3v-0.9h-1.6V34c-1.4,0.3-2.4,1.2-2.4,2.3
	c0,1.4,1.4,2.4,3.2,2.4c1,0,1.6,0.5,1.6,0.8c0,0.3-0.6,0.8-1.6,0.8c-1,0-1.6-0.5-1.6-0.8h-1.6c0,1.1,1,2.1,2.4,2.3v0.9h1.6v-0.9
	c1.4-0.3,2.4-1.2,2.4-2.3c0-1.4-1.4-2.4-3.2-2.4c-1,0-1.6-0.5-1.6-0.8C17.7,36,18.4,35.5,19.4,35.5z"/>
<path class="st9" d="M42,47.6H8V28.2H21c1.3,0,2.4-1.1,2.4-2.4V5.6h8.9v9.7H42v11.3h1.6V14.2L33.4,4h-10V3.2c0-1.3-1.1-2.4-2.4-2.4
	H3.2c-1.3,0-2.4,1.1-2.4,2.4v22.6c0,1.3,1.1,2.4,2.4,2.4h3.2v21h37.2V37.9H42V47.6z M33.9,6.8l6.9,6.9h-6.9V6.8z M2.4,25.8V3.2
	c0-0.4,0.4-0.8,0.8-0.8H21c0.4,0,0.8,0.4,0.8,0.8v22.6c0,0.4-0.4,0.8-0.8,0.8H3.2C2.8,26.6,2.4,26.3,2.4,25.8z"/>
<path class="st9" d="M26.6,21h1.6v1.6h-1.6V21z"/>
<path class="st9" d="M29.9,21h9.7v1.6h-9.7V21z"/>
<path class="st9" d="M26.6,17.7h1.6v1.6h-1.6V17.7z"/>
<path class="st9" d="M29.9,17.7h9.7v1.6h-9.7V17.7z"/>
<path class="st9" d="M26.6,24.2h1.6v1.6h-1.6V24.2z"/>
<path class="st9" d="M29.9,24.2h9.7v1.6h-9.7V24.2z"/>
<path class="st9" d="M26.6,27.4h1.6V29h-1.6V27.4z"/>
<path class="st9" d="M29.9,27.4h9.7V29h-9.7V27.4z"/>
<path class="st9" d="M21,3.2H3.2v5.7H21V3.2z M19.4,7.2H4.8V4.8h14.5V7.2z"/>
<path class="st9" d="M7.2,9.7H5.6C4.7,9.7,4,10.4,4,11.3v1.6c0,0.9,0.7,1.6,1.6,1.6h1.6c0.9,0,1.6-0.7,1.6-1.6v-1.6
	C8.9,10.4,8.1,9.7,7.2,9.7z M5.6,12.9v-1.6h1.6v1.6H5.6z"/>
<path class="st9" d="M12.9,9.7h-1.6c-0.9,0-1.6,0.7-1.6,1.6v1.6c0,0.9,0.7,1.6,1.6,1.6h1.6c0.9,0,1.6-0.7,1.6-1.6v-1.6
	C14.5,10.4,13.8,9.7,12.9,9.7z M11.3,12.9v-1.6h1.6v1.6H11.3z"/>
<path class="st9" d="M18.5,9.7h-1.6c-0.9,0-1.6,0.7-1.6,1.6v1.6c0,0.9,0.7,1.6,1.6,1.6h1.6c0.9,0,1.6-0.7,1.6-1.6v-1.6
	C20.2,10.4,19.4,9.7,18.5,9.7z M16.9,12.9v-1.6h1.6v1.6H16.9z"/>
<path class="st9" d="M7.2,15.3H5.6C4.7,15.3,4,16,4,16.9v1.6c0,0.9,0.7,1.6,1.6,1.6h1.6c0.9,0,1.6-0.7,1.6-1.6v-1.6
	C8.9,16,8.1,15.3,7.2,15.3z M5.6,18.5v-1.6h1.6v1.6H5.6z"/>
<path class="st9" d="M12.9,15.3h-1.6c-0.9,0-1.6,0.7-1.6,1.6v1.6c0,0.9,0.7,1.6,1.6,1.6h1.6c0.9,0,1.6-0.7,1.6-1.6v-1.6
	C14.5,16,13.8,15.3,12.9,15.3z M11.3,18.5v-1.6h1.6v1.6H11.3z"/>
<path class="st9" d="M18.5,15.3h-1.6c-0.9,0-1.6,0.7-1.6,1.6v1.6c0,0.9,0.7,1.6,1.6,1.6h1.6c0.9,0,1.6-0.7,1.6-1.6v-1.6
	C20.2,16,19.4,15.3,18.5,15.3z M16.9,18.5v-1.6h1.6v1.6H16.9z"/>
<path class="st9" d="M7.2,21H5.6C4.7,21,4,21.7,4,22.6v1.6c0,0.9,0.7,1.6,1.6,1.6h1.6c0.9,0,1.6-0.7,1.6-1.6v-1.6
	C8.9,21.7,8.1,21,7.2,21z M5.6,24.2v-1.6h1.6v1.6H5.6z"/>
<path class="st9" d="M12.9,21h-1.6c-0.9,0-1.6,0.7-1.6,1.6v1.6c0,0.9,0.7,1.6,1.6,1.6h1.6c0.9,0,1.6-0.7,1.6-1.6v-1.6
	C14.5,21.7,13.8,21,12.9,21z M11.3,24.2v-1.6h1.6v1.6H11.3z"/>
<path class="st9" d="M18.5,21h-1.6c-0.9,0-1.6,0.7-1.6,1.6v1.6c0,0.9,0.7,1.6,1.6,1.6h1.6c0.9,0,1.6-0.7,1.6-1.6v-1.6
	C20.2,21.7,19.4,21,18.5,21z M16.9,24.2v-1.6h1.6v1.6H16.9z"/>
<path class="st9" d="M48.5,26.5c-1-0.9-2.5-0.9-3.4,0L31.2,40.4c-0.1,0.1-0.1,0.1-0.2,0.2l-2,4.2c-0.1,0.3-0.1,0.7,0.2,0.9
	c0.2,0.2,0.6,0.3,0.9,0.2l4.2-2c0.1,0,0.2-0.1,0.2-0.2L48.5,30C49.5,29,49.5,27.5,48.5,26.5z M33.6,42.6l-2.1,1l1-2.1l10.3-10.3
	l1.1,1.1L33.6,42.6z M45.1,31.1L44,30l0.6-0.6l1.1,1.1L45.1,31.1z M47.4,28.8l-0.6,0.6l-1.1-1.1l0.6-0.6c0.3-0.3,0.8-0.3,1.1,0
	C47.7,28,47.7,28.5,47.4,28.8z"/>
</svg>
