<?xml version="1.0" encoding="utf-8"?>
<!-- Generator: Adobe Illustrator 24.0.1, SVG Export Plug-In . SVG Version: 6.00 Build 0)  -->
<svg version="1.1" id="Layer_1" xmlns="http://www.w3.org/2000/svg" xmlns:xlink="http://www.w3.org/1999/xlink" x="0px" y="0px"
	 viewBox="0 0 50 50" style="enable-background:new 0 0 50 50;" xml:space="preserve">
<style type="text/css">
	.st0{fill:#FFFFFF;}
</style>
<circle class="st0" cx="25" cy="25" r="24.5"/>
<g>
	<path d="M6.9,35.8c0.2-0.7,0.4-1.5,0.9-2.1C8,33.5,8.2,33.3,8.4,33c1.1-1.1,2.2-2.2,3.4-3.4c0.4,1.9,0.8,3.8,1.1,5.7
		c-0.7,0.1-1.4,0.3-2.1,0.4c-0.1-0.6-0.2-1.2-0.4-1.8C9.9,34.6,9.2,35,9,35.9c-0.2,0.9,0.2,1.8,1,2.3c0.8,0.5,1.8,0.4,2.5-0.3
		c1-1,2-2,3-3c0.5-0.5,1.1-1.1,1.6-1.6c-0.8-1.4-1.1-2.8-0.8-4.4c0.2-1.3,0.6-2.6,1.3-3.8c2.1-4,5.2-6.9,9.4-8.5
		c1.6-0.6,3.3-0.8,5.1-0.4c0-0.1,0.1-0.2,0.1-0.3c0.5-1.8,2.4-2.7,4.2-2.1c0.2,0.1,0.3,0.1,0.5-0.1c1.6-1.6,3.2-3.2,4.7-4.7
		c0,0,0.1-0.1,0.1-0.2c0,0,0,0,0.1,0c0.5,0.5,1,1,1.5,1.5c0,0,0,0,0,0.1c-0.1,0-0.1,0.1-0.2,0.1c-1.6,1.6-3.1,3.1-4.7,4.7
		c-0.1,0.1-0.2,0.2-0.1,0.4c0.7,1.9-0.3,3.7-2.3,4.3c0,0,0,0-0.1,0c0.1,0.4,0.1,0.9,0.2,1.4c0.1,1.8-0.4,3.5-1.2,5.1
		c-2,4-5.2,6.9-9.4,8.6c-1.6,0.6-3.3,0.9-5,0.5c-0.6-0.1-1.1-0.4-1.7-0.6c0,0,0,0,0,0c-1.5,1.5-3,3-4.5,4.5
		c-0.6,0.6-0.8,1.6-0.4,2.4c0.4,0.8,1.1,1.3,2,1.3c0.5,0,0.9-0.2,1.3-0.5c0.3-0.3,0.6-0.6,1-1c-0.6-0.1-1.1-0.2-1.8-0.4
		c0.1-0.7,0.3-1.4,0.4-2.1c1.9,0.4,3.8,0.8,5.7,1.1c-0.1,0.1-0.2,0.2-0.3,0.3c-1.1,1.1-2.2,2.2-3.3,3.3c-0.7,0.7-1.5,1.1-2.5,1.3
		c0,0-0.1,0-0.1,0.1c-0.3,0-0.7,0-1,0c-0.1,0-0.1,0-0.2-0.1c-1.9-0.3-3.2-1.6-3.5-3.5c-0.1-0.3-0.1-0.6-0.1-1c-0.1,0-0.2,0-0.2,0
		c-1.5,0-2.6-0.6-3.5-1.8c-0.4-0.6-0.6-1.2-0.8-1.9C6.9,36.5,6.9,36.2,6.9,35.8z M33,25.2c0,0-0.1-0.1-0.1-0.1c-2-2-4-4-5.9-5.9
		c-0.2-0.2-0.3-0.1-0.4,0c-3.2,1.6-5.5,3.9-7.1,7.1c-0.1,0.2-0.1,0.4,0.1,0.5c1.9,1.9,3.8,3.8,5.8,5.8c0.2,0.2,0.3,0.2,0.5,0.1
		c1.5-0.7,2.9-1.7,4.1-2.9C31.2,28.3,32.3,26.8,33,25.2z M29.3,18.2c1.5,1.5,3,3,4.5,4.5C34.4,19.6,32.5,17.6,29.3,18.2z M18.5,28.8
		c-0.2,1.5-0.2,2.8,1,3.9c0.8,0.7,2.4,1,3.5,0.7C21.6,31.9,20.1,30.3,18.5,28.8z M35.2,17.8c0.6,0,1.1-0.5,1.1-1
		c0-0.6-0.5-1.1-1-1.1c-0.6,0-1.1,0.5-1.1,1C34.1,17.3,34.6,17.8,35.2,17.8z"/>
	<path class="st0" d="M33.8,22.7c-1.5-1.5-3-3-4.5-4.5"/>
	<path class="st0" d="M34.1,16.8"/>
	<path class="st0" d="M36.2,16.8"/>
	<path d="M24.7,25.8c0.5-0.5,1-1,1.4-1.4c0.5,0.5,1,1,1.4,1.4c-0.5,0.5-1,1-1.5,1.5C25.7,26.8,25.2,26.3,24.7,25.8z"/>
</g>
</svg>
