<?xml version="1.0" encoding="utf-8"?>
<!-- Generator: Adobe Illustrator 19.0.0, SVG Export Plug-In . SVG Version: 6.00 Build 0)  -->
<svg version="1.1" id="Layer_1" xmlns="http://www.w3.org/2000/svg" xmlns:xlink="http://www.w3.org/1999/xlink" x="0px" y="0px"
	 viewBox="0 0 512 512" style="enable-background:new 0 0 512 512;" xml:space="preserve">
<style type="text/css">
	.st0{fill:#FFFFFF;}
	.st1{fill:#DDC700;}
	.st2{fill:#070707;}
</style>
<circle id="XMLID_3_" class="st0" cx="256.7" cy="256.7" r="254.3"/>
<g>
	<g>
		<g>
			<path class="st1" d="M353.2,168.3c0-53.2-43.1-96.3-96.3-96.3s-96.3,43.1-96.3,96.3c0,76.2,96.3,189,96.3,189
				S353.2,244.1,353.2,168.3z M209.4,162.6c0-26.3,21.3-47.5,47.5-47.5c26.3,0,47.5,21.3,47.5,47.5s-21.3,47.5-47.5,47.5
				C230.6,210.1,209.4,188.8,209.4,162.6z"/>
			<circle id="XMLID_2_" class="st2" cx="256.9" cy="162.6" r="23.3"/>
			<path id="XMLID_1_" class="st2" d="M311.4,323.8c-7.8,11.4-15.2,21.3-21.3,29.2c60.9,3.7,100.8,16.8,115.6,26.6
				c-17.4,11.4-69,27.6-148.7,27.6c-79.7,0-131.4-16.1-148.7-27.6c14.8-9.7,54.7-22.9,115.5-26.6c-6.1-7.9-13.5-17.8-21.4-29.2
				C127.4,331.1,73,353.3,73,379.5c0,32.2,82.3,58.3,183.9,58.3s183.9-26.1,183.9-58.3C440.8,353.3,386.3,331.1,311.4,323.8z"/>
		</g>
	</g>
</g>
</svg>
