<?xml version="1.0" encoding="utf-8"?>
<!-- Generator: Adobe Illustrator 19.0.0, SVG Export Plug-In . SVG Version: 6.00 Build 0)  -->
<svg version="1.1" id="Layer_1" xmlns="http://www.w3.org/2000/svg" xmlns:xlink="http://www.w3.org/1999/xlink" x="0px" y="0px"
	 viewBox="0 0 500 500" style="enable-background:new 0 0 500 500;" xml:space="preserve">
<style type="text/css">
	.st0{fill:#FFFFFF;}
	.st1{fill:#1D1E1E;}
</style>
<circle id="XMLID_2_" class="st0" cx="250.8" cy="250.2" r="243.8"/>
<g id="XMLID_1_">
	<path id="XMLID_34_" class="st1" d="M178.7,255.9c1.4-26.1,12.6-46.5,35.8-59.2c23.1-12.6,46.3-11.2,69,2.1
		c5.3,3.1,9,11.5,14.8,9.9c5.4-1.5,9-8.7,14-12.8c5-4.1,5.6-7.2-0.1-11.2c-2.2-1.5-5.4-3.1-5.5-6.4c-0.1-4.4,14.9-16.7,19.9-16.7
		c12.3-0.1,20.2-8.6,19.3-20.8c-0.9-10.9-10-17.9-21.5-16.4c-10.9,1.4-18.3,12-15.1,23.2c1.2,4.4,0.6,7.1-2.2,10.1
		c-2.9,3.2-5.9,6.5-8.3,10.1c-2.4,3.7-4.7,4.1-8.5,1.9c-10-5.8-21-8.7-32.3-9.9c-17.6-1.9-17.4-1.7-21-18.8
		c-1.1-5.1-0.2-8.1,4.6-11.1c13-8.1,18.3-23.3,14.5-38.1c-4.1-15.9-20.4-27.6-36-26c-18.3,1.9-31.7,15-32.6,31.9
		c-1.1,18.2,9.8,34.7,26.4,36.9c8.8,1.1,11.3,5.1,12.2,12.3c0.3,2.3,0.6,4.7,1.4,6.8c2.2,5.6-0.1,7.6-5.4,8.9
		c-19,4.7-35.3,14.4-47.4,29.5c-5.9,7.4-8.8,3.8-13.3-0.2c-2.2-2-1.7-4-1.5-6.3c0.5-4.9,0.8-9.8-1.1-14.7
		c-5.4-13.4-19.9-19.8-33.1-14.4c-12.8,5.2-19.1,20.7-13.6,33.6c5.6,13,21,19.6,33.5,12.7c7.3-4.1,9.9,0.8,14,3.7
		c4.9,3.4,0.6,6.9-0.7,9.9c-11.2,26.7-11.5,53.3,0.5,79.6c2.5,5.5,1.9,8.1-3.4,10.9c-5.9,3.1-11.6,6.9-16.9,10.9
		c-5.4,4.1-9.6,4.9-16,0.7c-11-7.2-26.3-4.1-35.2,5.3c-9.2,9.7-10.9,24.2-4.2,35.6c6.8,11.4,20.5,17,33.2,13.7
		c12.4-3.3,23.3-15,21.4-27.4c-1.8-12,4.1-16.4,12.5-20.9c4.3-2.4,8.6-5,12.5-8.1c4.1-3.2,6.6-2.8,9.9,1.4
		c9.5,12.2,22.1,20.5,36,27.1c3.2,1.5,9.8,0.8,8.1,6.7c-2.2,7.4,2.2,17.5-8.4,21.8c-11,4.5-15.9,13.4-14.3,25.1
		c1.2,9,9.4,17.1,18.6,18.4c9.8,1.4,19.6-3.8,23.8-12.7c4.5-9.6,2.2-20.2-6.8-27.4c-3.4-2.7-4-5-2.9-8.8c1.2-4.2,1.9-8.5,2.4-12.9
		c0.4-3.5,1.5-4.2,5-3.7c19,2.7,37.2-0.6,54.4-8.8c3.7-1.8,5.5-1.2,7.9,1.9c6.4,8.4,12.7,16.7,19.7,24.6c3.7,4.2,3.8,7,0.8,11.8
		c-9.9,15.4-8,34.2,4.3,47.6c11.3,12.4,30.4,15.9,45.7,8.4c18.6-9.1,27-30.5,19.5-49.6c-7.4-19-28.3-29.4-47.9-22.9
		c-6.8,2.2-10.5,1-14.4-4.5c-5.4-7.6-11.4-14.8-17.3-22c-2.2-2.7-2.5-4.3,0.4-7.1c9.9-9.4,9.8-9.6,0.1-19.3c-1.7-1.7-3.5-3.1-4.9-5
		c-3.4-4.6-5.8-4.7-10.7-0.6c-21.9,18.6-46.7,23.4-73.2,11.3C192.9,305.8,180.4,284.3,178.7,255.9z M433.1,262.5
		c0-2.8,0.5-4.5-0.1-5.7c-1.3-2.6,3.7-8.1-3.7-7.9c-5.1,0.2-8.8,0-8.8,7.7c-0.3,38.4-12.3,73.1-35.2,103.8c-4.9,6.6,1.3,8.2,3.6,11
		c3.2,3.9,4.7-1.1,5.9-2.8C418.6,336.8,431.2,300.8,433.1,262.5z"/>
	<path id="XMLID_33_" class="st1" d="M452.4,217.7c-6.4,12-14.5,21.7-29.9,21.5c-10.1-0.2-18.3-3.9-23.8-12.3
		c-2.6-4-5.5-4.5-9.5-3.6c-26.4,5.9-52.8,11.9-79.3,17.5c-6.3,1.3-8.6,3.6-8.3,10.8c1.5,29.2-14.2,50.5-41.4,57.9
		c-29.1,7.9-60.7-11.4-67.1-40.9c-6.8-31.5,13.6-62.2,44.5-66.8c23.7-3.5,42.3,4.8,55.7,24.6c2.5,3.7,4.4,4.8,9,3.8
		c28.1-6.5,56.2-12.7,84.3-18.7c4.3-0.9,5.8-2.8,6.9-7.1c3.7-15.2,14.1-23.7,28.2-24c14.8-0.3,24,6.7,29.4,22.3
		c0.2,0.4,0.8,0.7,1.3,1.1C452.4,208.4,452.4,213,452.4,217.7z"/>
	<path id="XMLID_32_" class="st1" d="M49.3,230c4-8.7,4.1-18.4,6.8-27.5c19.7-64.7,61.2-108.5,125-131c1.4-0.5,2.8-0.9,4.2-1.2
		c0.5-0.1,1.1,0.1,2.4,0.2c-4.4,7.9-8.1,14.6-17.4,18.5c-69.7,29.4-112.9,99.9-108.5,175.7c0.8,14.2,3,28.4,7.9,41.9
		c3.7,10.2,8.2,20-1.3,29.9c-5.7-9.4-8.7-20.7-12.3-31.7c-3-9-2.7-18.8-6.9-27.4C49.3,261.5,49.3,245.8,49.3,230z"/>
	<path id="XMLID_31_" class="st1" d="M219.3,445.5c-9.7-2.3-19.5-4.4-29.2-7c-31.5-8.6-59-24.4-82.4-47.3c-1.4-1.3-3.4-2.3-3.5-4.7
		c9.2-2.5,16.1-0.2,23.9,6c51.3,40.4,108.6,50.9,170.8,30.7c7.8-2.5,8.6,2.8,10.4,6.5c2.5,5.2-3.3,4.2-5.5,5.1
		c-13.1,5.5-27.4,6.3-40.8,10.6C248.5,445.5,233.9,445.5,219.3,445.5z"/>
	<path id="XMLID_30_" class="st1" d="M263.1,61.8c6.7,3.6,14.4,3.2,21.6,5c56.3,14,98.2,46.6,125.9,97.3c1.2,2.1,6.6,5.5,0.1,8
		c-4,1.5-7.3,4.5-11-2.3c-27.6-50.6-69.8-82-126.5-92.4c-11.8-2.2-19.9-7.8-27.6-15.7C251.4,61.8,257.3,61.8,263.1,61.8z"/>
	<path id="XMLID_29_" class="st1" d="M178.7,255.9c1.7,28.4,14.1,49.9,40.2,61.8c26.5,12.1,51.3,7.3,73.2-11.3
		c4.8-4.1,7.2-4.1,10.7,0.6c1.4,1.9,3.3,3.3,4.9,5c9.7,9.7,9.9,9.9-0.1,19.3c-2.9,2.8-2.6,4.4-0.4,7.1c5.9,7.2,11.9,14.4,17.3,22
		c3.9,5.5,7.6,6.8,14.4,4.5c19.6-6.5,40.5,3.9,47.9,22.9c7.5,19.1-0.9,40.4-19.5,49.6c-15.3,7.5-34.4,4-45.7-8.4
		c-12.2-13.4-14.2-32.2-4.3-47.6c3.1-4.8,3-7.6-0.8-11.8c-7-7.8-13.4-16.2-19.7-24.6c-2.3-3.1-4.1-3.7-7.9-1.9
		c-17.2,8.2-35.4,11.5-54.4,8.8c-3.5-0.5-4.7,0.2-5,3.7c-0.5,4.3-1.2,8.7-2.4,12.9c-1.1,3.8-0.5,6.1,2.9,8.8
		c9,7.2,11.4,17.8,6.8,27.4c-4.2,8.9-14,14.1-23.8,12.7c-9.2-1.3-17.4-9.4-18.6-18.4c-1.6-11.8,3.3-20.7,14.3-25.1
		c10.6-4.3,6.2-14.4,8.4-21.8c1.8-6-4.9-5.2-8.1-6.7c-13.9-6.5-26.5-14.9-36-27.1c-3.3-4.2-5.8-4.6-9.9-1.4c-3.9,3-8.1,5.7-12.5,8.1
		c-8.4,4.5-14.3,8.9-12.5,20.9c1.9,12.4-9.1,24.1-21.4,27.4c-12.7,3.4-26.5-2.3-33.2-13.7c-6.8-11.4-5.1-25.8,4.2-35.6
		c8.9-9.4,24.2-12.5,35.2-5.3c6.4,4.2,10.6,3.5,16-0.7c5.3-4.1,11-7.8,16.9-10.9c5.3-2.8,5.9-5.4,3.4-10.9
		c-12.1-26.4-11.7-53-0.5-79.6c1.3-3,5.6-6.4,0.7-9.9c-4.1-2.9-6.7-7.7-14-3.7c-12.5,7-27.9,0.3-33.5-12.7
		c-5.5-12.9,0.7-28.3,13.6-33.6c13.2-5.4,27.7,1,33.1,14.4c1.9,4.8,1.6,9.7,1.1,14.7c-0.2,2.3-0.7,4.4,1.5,6.3
		c4.5,4.1,7.4,7.7,13.3,0.2c12.1-15.2,28.4-24.8,47.4-29.5c5.3-1.3,7.6-3.4,5.4-8.9c-0.8-2.1-1.1-4.5-1.4-6.8
		c-0.9-7.3-3.4-11.2-12.2-12.3c-16.6-2.2-27.4-18.7-26.4-36.9c1-16.9,14.4-30,32.6-31.9c15.6-1.6,31.9,10.1,36,26
		c3.8,14.8-1.5,30-14.5,38.1c-4.8,3-5.7,6-4.6,11.1c3.6,17.1,3.4,16.9,21,18.8c11.3,1.2,22.4,4.2,32.3,9.9c3.8,2.2,6.1,1.7,8.5-1.9
		c2.4-3.6,5.4-6.9,8.3-10.1c2.8-3,3.4-5.7,2.2-10.1c-3.2-11.2,4.2-21.8,15.1-23.2c11.5-1.5,20.6,5.5,21.5,16.4
		c1,12.2-6.9,20.7-19.3,20.8c-5,0-20,12.3-19.9,16.7c0,3.3,3.2,4.8,5.5,6.4c5.7,3.9,5.1,7,0.1,11.2c-4.9,4.1-8.6,11.3-14,12.8
		c-5.8,1.6-9.4-6.8-14.8-9.9c-22.7-13.3-45.9-14.7-69-2.1C191.3,209.4,180.2,229.8,178.7,255.9z"/>
	<path id="XMLID_28_" class="st1" d="M433.1,262.5c-1.9,38.4-14.6,74.3-38.4,106.2c-1.2,1.7-2.7,6.7-5.9,2.8
		c-2.3-2.8-8.5-4.4-3.6-11c22.9-30.7,34.9-65.5,35.2-103.8c0.1-7.7,3.7-7.6,8.8-7.7c7.4-0.2,2.4,5.3,3.7,7.9
		C433.6,258,433.1,259.7,433.1,262.5z"/>
</g>
</svg>
