<?xml version="1.0" encoding="utf-8"?>
<!-- Generator: Adobe Illustrator 24.0.1, SVG Export Plug-In . SVG Version: 6.00 Build 0)  -->
<svg version="1.1" id="Layer_1" xmlns="http://www.w3.org/2000/svg" xmlns:xlink="http://www.w3.org/1999/xlink" x="0px" y="0px"
	 viewBox="0 0 50 50" style="enable-background:new 0 0 50 50;" xml:space="preserve">
<style type="text/css">
	.st0{fill:#FFFFFF;}
	.st1{fill:#020203;}
	.st2{fill:#030304;}
</style>
<circle class="st0" cx="25" cy="25" r="25"/>
<g>
	<path class="st1" d="M23.5,26c-2-2-4.7-3.2-7.6-3.2c0,0,0,0,0,0c-6,0-10.9,4.8-10.9,10.8c0,6,4.8,10.8,10.8,10.8
		c2.9,0,5.6-1.1,7.7-3.2C27.8,37,27.8,30.2,23.5,26L23.5,26z M16.5,42.6v-3.9c1,0.1,1.9,0.3,2.8,0.6C18.6,40.6,17.7,41.7,16.5,42.6z
		 M16.5,37.5v-3.2H21c-0.1,1.4-0.4,2.7-1,4C18.9,37.8,17.7,37.5,16.5,37.5z M16.5,33v-3.2c1.2-0.1,2.4-0.3,3.4-0.8
		c0.6,1.3,0.9,2.6,1,4H16.5z M16.5,28.5v-3.9c1.2,0.9,2.1,2,2.8,3.2C18.5,28.2,17.5,28.4,16.5,28.5z M18.1,24.3c1.5,0.4,2.8,1,3.9,2
		c-0.5,0.4-1,0.7-1.5,1C19.9,26.2,19.1,25.2,18.1,24.3z M15.3,24.7v3.8c-1-0.1-1.9-0.3-2.8-0.6C13.2,26.7,14.1,25.6,15.3,24.7
		L15.3,24.7z M11.3,27.4c-0.6-0.3-1.1-0.7-1.6-1.1c1.1-1,2.5-1.7,4-2C12.8,25.2,12,26.2,11.3,27.4z M15.3,29.8V33h-4.4
		c0.1-1.4,0.4-2.7,1-4C13,29.5,14.1,29.7,15.3,29.8L15.3,29.8z M15.3,34.3v3.2c-1.2,0.1-2.3,0.3-3.4,0.7c-0.6-1.2-0.9-2.6-1-4H15.3z
		 M15.3,38.7v3.8c-1.1-0.9-2.1-2-2.8-3.2C13.4,39,14.3,38.8,15.3,38.7z M13.8,42.9c-1.5-0.3-2.9-1-4-2c0.5-0.4,1-0.8,1.6-1.1
		C12,41,12.8,42,13.8,42.9z M20.5,39.9c0.5,0.3,1,0.6,1.5,1c-1.1,0.9-2.4,1.6-3.9,2C19.1,42,19.9,41,20.5,39.9z M21.1,38.8
		c0.7-1.4,1-3,1.1-4.5h3.2c-0.1,2.2-1.1,4.3-2.5,5.8C22.4,39.6,21.8,39.1,21.1,38.8z M25.4,33h-3.2c-0.1-1.6-0.5-3.1-1.1-4.5
		c0.6-0.4,1.3-0.8,1.8-1.3C24.4,28.7,25.3,30.8,25.4,33z M8.8,27.2c0.6,0.5,1.2,0.9,1.9,1.3c-0.6,1.4-1,2.9-1.1,4.5H6.4
		C6.5,30.8,7.4,28.7,8.8,27.2z M6.4,34.3h3.3c0.1,1.6,0.5,3.1,1.1,4.5c-0.7,0.4-1.3,0.8-1.9,1.3C7.4,38.5,6.5,36.5,6.4,34.3
		L6.4,34.3z"/>
</g>
<path class="st2" d="M34.9,13.8c1.6,0.5,3.6-2.4,3.7-4.3c0.1-1.7-1.7-3.8-3.4-3.8c-1.7,0-3.9,1.9-3.4,4.3
	C32.3,12.1,33.6,13.4,34.9,13.8z"/>
<path class="st2" d="M45.8,20.8c-0.6-1.2-5.4-4.9-5.4-4.9c-1.2-1-2.5-0.5-2.5-0.5c-0.4,0.2-1.7,3.9-1.7,3.9L35.8,17
	c1.1-0.7,0.7-1.5,0.7-1.5c-0.2-0.9-2-0.5-2-0.5c-0.7-0.1-0.9,0.5-0.9,0.5c-0.3,0.8,0.9,1.5,0.9,1.5l-0.3,2.2l-1.6-4
	c-0.8-0.4-2.2,0.4-2.2,0.4c-0.9,0-4.3,5.3-4.3,5.3c-0.4-0.4-5.4-2.5-5.4-2.5c-1.3-0.5-1.9,1-1.9,1c-0.2,1.3,0.5,1.8,0.5,1.8
	c1.6,1.2,6.3,2.7,6.3,2.7c2.5,0.5,3.7-2,3.7-2c-0.1,3.5,0.3,8.6,0.3,8.6l0.8,0.1c-0.2,1,0.8,12.9,0.8,12.9c0.1,1.2,1,1.4,1,1.4
	c0.5,0.2,1.3,0,1.3,0c1.1-0.3,1-1.7,1-1.7L35,30.4l0.3,0.1l0.5,12.4c0,1.6,0.9,1.8,0.9,1.8l1.3,0c0.8,0,1.1-1.5,1.1-1.5
	c0.2-1.3,0.9-12.9,0.9-12.9h0.7l0.3-2.7c0.8-0.5,4.8-4.2,4.8-4.2C47,22,45.8,20.8,45.8,20.8z M39.8,24.6v-5c1.1,0.3,3,2.1,3,2.1
	L39.8,24.6z"/>
</svg>
