<?xml version="1.0" encoding="utf-8"?>
<!-- Generator: Adobe Illustrator 19.0.0, SVG Export Plug-In . SVG Version: 6.00 Build 0)  -->
<svg version="1.1" id="Layer_1" xmlns="http://www.w3.org/2000/svg" xmlns:xlink="http://www.w3.org/1999/xlink" x="0px" y="0px"
	 viewBox="0 0 512 512" style="enable-background:new 0 0 512 512;" xml:space="preserve">
<style type="text/css">
	.st0{fill:#FFFFFF;}
	.st1{fill:#7BAC51;}
	.st2{fill:#F4EFED;}
	.st3{fill:#D6D1CF;}
	.st4{fill:#00FF06;}
	.st5{fill:#690589;}
	.st6{fill:#99CA6F;}
	.st7{fill:#5D8E33;}
	.st8{fill:#E12579;}
</style>
<circle id="XMLID_1_" class="st0" cx="256.7" cy="256.7" r="254.3"/>
<g>
	<path class="st1" d="M173.6,258h-54.9l24.9-82.1h30V258z"/>
	<path class="st1" d="M393.3,258h-54.9v-82.1h30L393.3,258z"/>
	<path class="st2" d="M139.1,276.9h233.7v146.8H139.1V276.9z"/>
	<path class="st0" d="M139.1,276.9h26.4v146.8H139L139.1,276.9L139.1,276.9z"/>
	<path class="st3" d="M346.4,276.9h26.5v146.8h-26.5V276.9z"/>
	<path class="st4" d="M284.2,327.5h-56.3c-7.3,0-13.3,5.9-13.3,13.3v83h82.9v-83C297.4,333.4,291.5,327.5,284.2,327.5L284.2,327.5z"
		/>
	<path class="st5" d="M297.4,429.5h-82.9c-3.2,0-5.7-2.6-5.7-5.7v-83c0-10.5,8.5-19,19-19h56.3c10.5,0,19,8.5,19,19v83
		C303.2,426.9,300.6,429.5,297.4,429.5L297.4,429.5z M220.3,417.9h71.3v-77.2c0-4.1-3.3-7.4-7.4-7.4h-56.3c-4.1,0-7.4,3.3-7.4,7.4
		L220.3,417.9z"/>
	<path class="st5" d="M372.9,429.5H139.1c-3.2,0-5.7-2.6-5.7-5.7V276.9c0-3.2,2.6-5.7,5.7-5.7h233.7c3.2,0,5.7,2.6,5.7,5.7v146.8
		C378.6,426.9,376,429.5,372.9,429.5z M144.9,417.9h222.2V282.6H144.9V417.9z"/>
	<path class="st2" d="M365.8,304.1c-15.1,0-27.5-12.3-27.5-27.5v-18.6h54.9v18.6C393.3,291.8,381.1,304.1,365.8,304.1z"/>
	<path class="st2" d="M283.5,175.8h54.9v82.1h-54.9V175.8z"/>
	<path class="st2" d="M256,304.1c-15.1,0-27.5-12.3-27.5-27.5v-18.6h54.9v18.6C283.5,291.8,271.1,304.1,256,304.1z"/>
	<path class="st2" d="M146.2,304.1c-15.1,0-27.5-12.3-27.5-27.5v-18.6h54.9v18.6C173.6,291.8,161.3,304.1,146.2,304.1z"/>
	<path class="st2" d="M173.6,175.8h54.9v82.1h-54.9V175.8z"/>
	<path class="st1" d="M310.9,304.1c-15.1,0-27.5-12.3-27.5-27.5v-18.6h55v18.6C338.4,291.8,326.1,304.1,310.9,304.1z"/>
	<path class="st1" d="M201.1,304.1c-15.1,0-27.5-12.3-27.5-27.5v-18.6h54.9v18.6C228.5,291.8,216.2,304.1,201.1,304.1z"/>
	<path class="st6" d="M143.6,175.8h20.2l-24.9,82.1h-20.2L143.6,175.8z"/>
	<path class="st7" d="M368.4,175.8h-20.2l24.9,82.1h20.2L368.4,175.8z"/>
	<path class="st1" d="M228.5,175.8h54.9v82.1h-54.9V175.8z"/>
	<g>
		<path class="st5" d="M365.8,309.8c-18.4,0-33.2-14.9-33.2-33.2v-18.6c0-3.2,2.6-5.7,5.7-5.7h54.9c3.2,0,5.7,2.6,5.7,5.7v18.6
			C399.1,294.9,384.2,309.8,365.8,309.8z M344.1,263.7v12.8c0,12,9.8,21.7,21.7,21.7c12,0,21.7-9.8,21.7-21.7v-12.8H344.1z"/>
		<path class="st5" d="M393.3,263.7h-54.9c-3.2,0-5.7-2.6-5.7-5.7v-82.1c0-3.2,2.6-5.7,5.7-5.7h30c2.5,0,4.7,1.7,5.6,4.1l24.9,82.1
			c0.5,1.8,0.2,3.7-0.9,5.1C396.8,262.9,395.1,263.7,393.3,263.7L393.3,263.7z M344.1,252.2h41.4l-21.4-70.6h-20L344.1,252.2z"/>
		<path class="st5" d="M310.9,309.8c-18.4,0-33.2-14.9-33.2-33.2v-18.6c0-3.2,2.6-5.7,5.7-5.7h55c3.2,0,5.7,2.6,5.7,5.7v18.6
			C344.1,294.9,329.3,309.8,310.9,309.8z M289.2,263.7v12.8c0,12,9.8,21.7,21.7,21.7c12,0,21.7-9.8,21.7-21.7v-12.8H289.2z"/>
		<path class="st5" d="M338.4,263.7h-54.9c-3.2,0-5.7-2.6-5.7-5.7v-82.1c0-3.2,2.6-5.7,5.7-5.7h54.9c3.2,0,5.7,2.6,5.7,5.7V258
			C344.1,261.1,341.5,263.7,338.4,263.7z M289.2,252.2h43.4v-70.6h-43.4V252.2z"/>
		<path class="st5" d="M256,309.8c-18.4,0-33.2-14.9-33.2-33.2v-18.6c0-3.2,2.6-5.7,5.7-5.7h54.9c3.2,0,5.7,2.6,5.7,5.7v18.6
			C289.2,294.9,274.4,309.8,256,309.8z M234.3,263.7v12.8c0,12,9.8,21.7,21.7,21.7c12,0,21.7-9.8,21.7-21.7v-12.8H234.3z"/>
		<path class="st5" d="M201.1,309.8c-18.4,0-33.2-14.9-33.2-33.2v-18.6c0-3.2,2.6-5.7,5.7-5.7h54.9c3.2,0,5.7,2.6,5.7,5.7v18.6
			C234.3,294.9,219.4,309.8,201.1,309.8z M179.4,263.7v12.8c0,12,9.8,21.7,21.7,21.7c12,0,21.7-9.8,21.7-21.7v-12.8H179.4z"/>
		<path class="st5" d="M146.2,309.8c-18.4,0-33.2-14.9-33.2-33.2v-18.6c0-3.2,2.6-5.7,5.7-5.7h54.9c3.2,0,5.7,2.6,5.7,5.7v18.6
			C179.4,294.9,164.4,309.8,146.2,309.8z M124.5,263.7v12.8c0,12,9.8,21.7,21.7,21.7c12,0,21.7-9.8,21.7-21.7v-12.8H124.5z"/>
		<path class="st5" d="M283.5,263.7h-54.9c-3.2,0-5.7-2.6-5.7-5.7v-82.1c0-3.2,2.6-5.7,5.7-5.7h54.9c3.2,0,5.7,2.6,5.7,5.7V258
			C289.2,261.1,286.6,263.7,283.5,263.7z M234.3,252.2h43.4v-70.6h-43.4L234.3,252.2L234.3,252.2z"/>
		<path class="st5" d="M228.5,263.7h-54.9c-3.2,0-5.7-2.6-5.7-5.7v-82.1c0-3.2,2.6-5.7,5.7-5.7h54.9c3.2,0,5.7,2.6,5.7,5.7V258
			C234.3,261.1,231.7,263.7,228.5,263.7z M179.4,252.2h43.4v-70.6h-43.4V252.2z"/>
		<path class="st5" d="M173.6,263.7h-54.9c-1.8,0-3.6-0.9-4.7-2.3s-1.4-3.4-0.9-5.1l24.9-82.1c0.7-2.4,3-4.1,5.6-4.1h30
			c3.2,0,5.7,2.6,5.7,5.7v82.1C179.4,261.1,176.8,263.7,173.6,263.7L173.6,263.7z M126.5,252.2h41.4v-70.6h-20L126.5,252.2z"/>
	</g>
	<path class="st4" d="M256,60.8c41.7,0,67.8,45.1,46.9,81.2L256,223.3l-46.9-81.2C188.2,106,214.3,60.8,256,60.8L256,60.8z"/>
	<path class="st8" d="M256,60.8c-2.4,0-4.8,0.2-7.2,0.4c37.4,4.8,59.3,46.9,39.7,80.8l-39.7,68.8l7.2,12.5l46.9-81.2
		C323.8,106,297.7,60.8,256,60.8L256,60.8z"/>
	<path class="st5" d="M256,229.2c-2.1,0-3.9-1.1-5-2.9L204,145c-10.8-18.8-10.8-41.2,0-59.9c10.8-18.7,30.3-30,52-30
		s41.1,11.2,52,30s10.8,41.2,0,59.9L261,226.2C259.9,228,258.1,229.2,256,229.2L256,229.2z M256,66.6c-17.5,0-33.1,9-41.9,24.2
		s-8.8,33.2,0,48.4l41.9,72.6l41.9-72.6c8.8-15.1,8.8-33.2,0-48.4C289.1,75.6,273.5,66.6,256,66.6L256,66.6z"/>
	<path class="st5" d="M256,229.2c-2.1,0-3.9-1.1-5-2.9L204,145c-10.8-18.8-10.8-41.2,0-59.9c10.8-18.7,30.3-30,52-30
		s41.1,11.2,52,30s10.8,41.2,0,59.9L261,226.2C259.9,228,258.1,229.2,256,229.2L256,229.2z M256,66.6c-17.5,0-33.1,9-41.9,24.2
		s-8.8,33.2,0,48.4l41.9,72.6l41.9-72.6c8.8-15.1,8.8-33.2,0-48.4C289.1,75.6,273.5,66.6,256,66.6L256,66.6z"/>
	<ellipse class="st2" cx="256" cy="114" rx="23.5" ry="23.5"/>
	<path class="st5" d="M256,143c-16.1,0-29.2-13.1-29.2-29.2s13.1-29.3,29.2-29.3s29.2,13.1,29.2,29.2S272.1,143,256,143z M256,96.1
		c-9.8,0-17.7,8-17.7,17.7s8,17.7,17.7,17.7c9.8,0,17.7-8,17.7-17.7S265.8,96.1,256,96.1z"/>
	<path class="st4" d="M348,452.5H176.3v-11.3c0-4.6,3.7-8.2,8.2-8.2h155.2c4.6,0,8.2,3.7,8.2,8.2V452.5z"/>
	<path class="st6" d="M184.5,433.1h17.9c-4.6,0-8.2,3.7-8.2,8.2v11.3h-17.9v-11.3C176.3,436.7,179.9,433.1,184.5,433.1z"/>
	<path class="st7" d="M337.4,433.1h-17.9c4.6,0,8.2,3.7,8.2,8.2v11.3h17.9v-11.3C345.7,436.7,342,433.1,337.4,433.1z"/>
	<path class="st5" d="M348,456.1H176.3c-2,0-3.6-1.6-3.6-3.6v-11.3c0-6.5,5.3-11.8,11.8-11.8h155.2c6.5,0,11.8,5.3,11.8,11.8v11.3
		C351.6,454.6,350,456.1,348,456.1L348,456.1z M179.9,448.9h164.6v-7.7c0-2.6-2.1-4.7-4.7-4.7H184.5c-2.6,0-4.7,2.1-4.7,4.7V448.9
		L179.9,448.9z"/>
	<ellipse class="st0" cx="256" cy="114" rx="26.1" ry="26"/>
</g>
</svg>
