<?xml version="1.0" encoding="utf-8"?>
<!-- Generator: Adobe Illustrator 19.0.0, SVG Export Plug-In . SVG Version: 6.00 Build 0)  -->
<svg version="1.1" id="Layer_1" xmlns="http://www.w3.org/2000/svg" xmlns:xlink="http://www.w3.org/1999/xlink" x="0px" y="0px"
	 viewBox="0 0 512 512" style="enable-background:new 0 0 512 512;" xml:space="preserve">
<style type="text/css">
	.st0{fill:#FFFFFF;}
	.st1{fill:#0C0C0C;}
	.st2{fill:#CEC800;stroke:#000000;stroke-width:12;stroke-miterlimit:10;}
</style>
<circle id="XMLID_4_" class="st0" cx="256.7" cy="256.7" r="254.3"/>
<g>
	<path id="XMLID_3_" class="st1" d="M393.4,385.8h-6.5v-159l0,0c-8,0-15.4-2.6-21.7-6.9c-4.2,3-9.1,5.1-14.4,6.2
		c-2.4,0.5-4.9,0.7-7.5,0.7c-1.7,0-3.3-0.2-4.8-0.4v118.3c0,6.7-5.5,12.2-12.2,12.2h-43.9v-33.5l15.5,25.8c1.8,3.1,5.1,4.8,8.4,4.8
		c1.7,0,3.5-0.4,5-1.4c4.6-2.8,6.1-8.8,3.3-13.4l-31.2-52c-1.9-3.2-5.5-4.8-8.9-4.6c-0.3,0-36.1,0-36.3,0c-3.5-0.3-7.1,1.3-9.1,4.6
		l-31.2,52c-2.8,4.6-1.3,10.6,3.3,13.4c1.5,1,3.3,1.4,5,1.4c3.3,0,6.6-1.7,8.4-4.8l15.6-26v33.7h-44c-6.7,0-12.2-5.5-12.2-12.2
		V226.4c-1.6,0.2-3.2,0.4-4.8,0.4c-2.4,0-4.9-0.3-7.5-0.8c-5.3-1.1-10.2-3.3-14.4-6.2c-6.2,4.4-13.7,6.9-21.7,6.9l0,0v159.1h-6.6
		c-8.5,0-15.3,6.9-15.3,15.3c0,8.5,6.9,15.3,15.3,15.3h274.1c8.5,0,15.3-6.9,15.3-15.3C408.7,392.6,401.8,385.8,393.4,385.8z"/>
	<path id="XMLID_2_" class="st1" d="M256.3,227.7c-11.2,0-20.4,10.4-20.4,23.3c0,12.8,9.1,23.3,20.4,23.3
		c11.2,0,20.4-10.4,20.4-23.3C276.7,238.1,267.6,227.7,256.3,227.7z"/>
	<path id="XMLID_1_" class="st2" d="M119.5,207.5c2.1,0.6,4.2,0.9,6.2,0.9c9.4,0,18.1-6.1,20.8-15.5l1.2-3.9c1,9.2,7.8,17,17.3,19
		c1.4,0.3,2.9,0.4,4.2,0.4c10.1,0,19.3-7.2,21.3-17.5l0.5-2.6c0.8,10.3,8.8,19,19.5,20c0.7,0.1,1.5,0.1,2.2,0.1
		c11,0,20.5-8.4,21.6-19.6l0.2-1.6c0.3,11.8,9.9,21.2,21.7,21.2s21.4-9.4,21.7-21.2l0.2,1.6c1.1,11.2,10.6,19.6,21.6,19.6
		c0.7,0,1.5,0,2.2-0.1c10.7-1.1,18.8-9.7,19.5-20l0.5,2.6c2.1,10.3,11.2,17.5,21.3,17.5c1.4,0,2.8-0.1,4.3-0.4
		c9.5-1.9,16.3-9.8,17.3-19l1.2,3.9c2.8,9.4,11.5,15.5,20.8,15.5c2.1,0,4.2-0.3,6.2-0.9c11.5-3.5,18.1-15.5,14.6-27.1l-19.6-65.7
		c-3.3-11-13.4-18.5-24.8-18.5h-214c-11.4,0.1-21.5,7.6-24.8,18.5l-19.7,65.8C101.4,191.9,108,204.1,119.5,207.5z"/>
</g>
</svg>
