<?xml version="1.0" encoding="utf-8"?>
<!-- Generator: Adobe Illustrator 19.0.0, SVG Export Plug-In . SVG Version: 6.00 Build 0)  -->
<svg version="1.1" id="Layer_1" xmlns="http://www.w3.org/2000/svg" xmlns:xlink="http://www.w3.org/1999/xlink" x="0px" y="0px"
	 viewBox="0 0 512 512" style="enable-background:new 0 0 512 512;" xml:space="preserve">
<style type="text/css">
	.st0{fill:#FFFFFF;}
	.st1{fill:#111111;}
	.st2{fill:#C9C900;}
	.st3{fill:#F2F3F4;}
</style>
<circle id="XMLID_10_" class="st0" cx="256.7" cy="256.7" r="254.3"/>
<g>
	<path class="st1" d="M377.3,256.6c-0.2,66.8-54.4,120.9-121.3,120.8c-66.8-0.1-120.9-54.4-120.9-121.2
		c0.1-66.5,54.8-121.1,121.3-120.9C323.1,135.5,377.3,190,377.3,256.6z M252.8,251.9c-0.6,2-0.6,3.2-1.2,4.2
		c-7.5,14.6-19.8,21.3-36,21.7c-3,0.1-6.7-1.9-8.9,1.7c-2.3,3.9,0.7,18.9,4.3,22.2c15.6,14.2,31.2,28.4,46.8,42.5
		c12.3,11.1,12.1,10.8,23.2-1.2c4.2-4.6,3.1-6.7-0.9-10.2c-13.1-11.5-25.8-23.4-39.2-35.6c13.5-7.4,26.1-15.6,30.5-29.4
		c4.6-14.8,13.1-16.8,26.4-16c18,1,17.9,0.2,17.2-17.6c-0.2-4.4-1.6-5.5-5.7-5.4c-8.6,0.2-17.2,0.2-25.8,0c-2.2,0-5.3,1.1-6.2-1.9
		c-2.3-7.8-6.1-14.9-10.6-22.9c11.5,0,21.2,0,31,0c18.5,0,18.4,0,17.2-18.7c-0.2-3.7-1-5.1-5.1-5.1c-35.9,0.2-71.8,0.2-107.7,0
		c-4,0-4.8,1.5-5,5.1c-1.1,18.4-1.2,18.4,17.2,18.7c3.5,0.1,7.1,0.2,10.7,0.8c11.3,1.8,19.2,8.6,25.2,18c2.7,4.3,1.9,6.2-3.5,6.1
		c-11.3-0.2-22.5-0.1-33.8-0.1c-15.8,0-15.4,0-15.8,15.8c-0.2,6.7,2.3,7.7,8.1,7.5C221,251.7,236.7,251.9,252.8,251.9z"/>
	<path id="XMLID_9_" class="st2" d="M389.6,404.9c-12.7,11.4-26.6,20.8-41.4,28.9c-4.1,2.2-5.6,1.4-6.9-2.6c-1-3.1-2.2-6.1-3.7-9
		c-2.4-4.6-2.7-13-7-13.3c-5.9-0.5-12,3.9-18.1,6.2c-3.6,1.4-1.7,3.8-0.9,5.8c2.6,6.3,5.1,12.7,7.9,18.8c1.6,3.5,1.9,5.8-2.6,7.1
		c-14.5,4.4-29.3,7-44.3,8.7c-3.4,0.4-4.8-0.5-4.8-4.2c0.2-15.4,0.2-30.8,0-46.3c-0.1-4.1,1.8-4.7,5.2-5.2
		c27.7-3.6,52.5-13.8,74.2-31.5c4-3.3,5.6-0.6,7.9,1.7C366.4,381.7,378,393.2,389.6,404.9z"/>
	<path id="XMLID_8_" class="st2" d="M122.7,404.9c11.9-11.9,23.6-23.3,35-35c3-3,4.9-3.8,8.7-0.7c20.9,17,45.1,26.9,71.7,30.5
		c5.1,0.7,7,2,6.8,7.5c-0.4,14.2-0.3,28.5-0.1,42.6c0.1,4.6-1,6.3-6,5.6c-14-2-28.1-4.2-41.7-8.3c-5.5-1.7-6.3-3.7-3.7-8.6
		c2.6-5,3.8-10.7,6.7-15.5c3.4-5.9,0.9-7.9-4.4-9.9c-14.7-5.8-14.6-5.9-20.6,8.5c-6.2,14.9-6.1,14.8-20.3,6.7
		C143.3,421.9,133.2,413.5,122.7,404.9z"/>
	<path id="XMLID_7_" class="st2" d="M244.5,84.8c0,8.6,2.7,18.6-0.8,25.3c-3.5,6.9-14.9,3.8-22.7,6c-19.3,5.5-37.3,13.5-52.9,26.1
		c-3.4,2.8-5.4,3-8.7-0.3c-10.2-10.7-20.8-21.2-31.3-31.6c-2.6-2.6-3.9-4.3,0-7.5c11.4-9.1,23.4-17.1,36.1-24.1
		c4.2-2.3,5.5-1,6.8,2.9c2.2,6.1,5.1,11.9,7.2,18.1c1.8,5.4,4.1,5.6,9,3.4c15.3-6.8,15.5-6.6,8.8-22.4c-5.6-13.5-5.6-13.5,8.3-17.4
		c11.1-3.1,22.6-4.5,34-6.2c4.6-0.6,6.5,0.3,6.2,5.4C244.2,69.9,244.5,77.4,244.5,84.8C244.6,84.8,244.5,84.8,244.5,84.8z"/>
	<path id="XMLID_6_" class="st2" d="M107.9,122.7c11.8,11.9,23.6,24,35.4,35.8c2.6,2.6,2.9,4.4,0.5,7.4
		c-17,21.2-27.7,45.3-30.8,72.5c-0.5,4-2,5.4-6.2,5.3c-15.1-0.2-30.2-0.2-45.3,0c-4,0.1-5.1-1.3-4.6-5.1c1.8-14.4,4.4-28.6,8.7-42.5
		c1.3-4,3-5.2,6.9-3c2.6,1.4,5.5,2.3,8.2,3.4c15.8,6.6,15.6,6.5,22.1-9.2c2.2-5.4,0.7-7.2-4.1-8.9c-5.9-2.1-11.4-5.1-17.2-7
		c-4.8-1.6-4.7-3.5-2.6-7.5C87,149.2,96.4,135.7,107.9,122.7z"/>
	<path id="XMLID_5_" class="st2" d="M404.6,122.9c10.9,12.5,20.4,25.7,28.1,40.1c2.4,4.5,3.3,7.2-2.7,8.7c-2.6,0.6-5,2-7.4,3
		c-16.8,7-16.7,6.9-8.5,23.9c1.8,3.8,3.4,3.9,6.7,2.5c6.2-2.8,12.7-5.1,18.8-7.9c3.7-1.8,5.7-1.6,7.1,2.8
		c4.3,13.9,6.9,28.1,8.8,42.5c0.6,4.6-1.3,5.4-5.4,5.4c-14.8-0.2-29.6-0.3-44.4,0.1c-4.8,0.1-6-1.9-6.5-6
		c-3-26.2-13.2-49.5-29.5-70.2c-3.2-4-3.6-6.3,0.4-10.1C381.8,146.2,393.1,134.4,404.6,122.9z"/>
	<path id="XMLID_4_" class="st2" d="M267.7,84.7c0-3.5,0-7.1,0-10.7c0-17.3,0-17.5,16.9-15.2c10.3,1.4,20.3,4,30.3,6.6
		c6.4,1.6,6.7,4.2,3.8,9.1c-1,1.8-1.5,3.8-2.3,5.8c-7.3,17.6-7.2,17.5,10.5,23.8c3.8,1.4,5.1,0.6,6.4-3c2.4-6.7,5.6-13.1,8-19.7
		c1.5-4.2,3.1-4.6,7-2.4c12.5,6.9,24.2,14.8,35.4,23.6c4.1,3.2,3.1,5.1,0.1,8c-10.4,10.1-20.7,20.4-30.8,30.9c-3,3.2-5,3.4-8.7,0.6
		c-21-15.7-44.3-26.1-70.7-28.6c-4.2-0.4-6.3-1.8-6-6.6C268,99.5,267.7,92,267.7,84.7z"/>
	<path id="XMLID_3_" class="st2" d="M84.6,266.8c8.6,0,19-3,25.3,0.8c6.6,3.9,3.5,15.7,5.9,23.8c5.7,18.8,13.1,37,25.5,52.3
		c3.8,4.6,2.8,7.1-1,10.7c-10.1,9.5-20,19.5-29.7,29.4c-2.9,3-4.8,4.2-8,0.1c-8.7-11.3-17-22.8-23.7-35.4c-2-3.7-1.9-5.5,2.4-7.1
		c6.4-2.3,12.5-5.3,18.9-7.7c3.6-1.4,5.1-2.6,3.4-7c-6.2-17.4-6-17.4-23-10.3c-13.4,5.6-13.3,5.5-17.2-8.7
		c-3.1-11.5-4.6-23.2-6.3-35c-0.6-4.5,0.1-6.5,5.2-6.2C69.7,267.1,77.2,266.8,84.6,266.8C84.6,266.8,84.6,266.8,84.6,266.8z"/>
	<path id="XMLID_2_" class="st2" d="M455.2,271.5c-1.4,15.6-4.2,30.4-8.5,44.9c-1.4,4.8-3.4,5.1-7.5,3.2c-5.6-2.7-11.7-4.4-17.2-7.4
		c-5.2-2.8-7-0.7-8.9,3.9c-6.4,15.5-6.6,15.4,9,21.8c14.8,6.1,15.1,6.3,6.2,20c-5.8,8.9-12.4,17.3-18.5,26.1
		c-2.4,3.4-4.2,3.8-7.4,0.6c-10.3-10.6-20.9-21-31.6-31.3c-2.8-2.7-3.4-4.6-0.8-8c16.7-21.6,26.5-46,29.7-73.1
		c0.5-3.8,1.4-5.6,5.8-5.5c14.8,0.3,29.7,0.2,44.5,0.1C453.7,266.7,457,266.6,455.2,271.5z"/>
	<path id="XMLID_1_" class="st3" d="M252.8,251.9c-16.2,0-31.8-0.2-47.5,0.2c-5.9,0.2-8.3-0.9-8.1-7.5c0.4-15.8,0-15.8,15.8-15.8
		c11.3,0,22.5-0.2,33.8,0.1c5.5,0.1,6.3-1.8,3.5-6.1c-5.9-9.5-13.9-16.2-25.2-18c-3.5-0.6-7.1-0.7-10.7-0.8
		c-18.4-0.3-18.4-0.2-17.2-18.7c0.2-3.7,1-5.2,5-5.1c35.9,0.2,71.8,0.2,107.7,0c4,0,4.8,1.4,5.1,5.1c1.1,18.7,1.3,18.7-17.2,18.7
		c-9.8,0-19.6,0-31,0c4.5,8,8.3,15.2,10.6,22.9c0.9,3,4,1.8,6.2,1.9c8.6,0.1,17.2,0.2,25.8,0c4.1-0.2,5.5,1,5.7,5.4
		c0.7,17.9,0.9,18.7-17.2,17.6c-13.3-0.8-21.9,1.3-26.4,16c-4.2,13.9-17,22.1-30.5,29.4c13.4,12.2,26.1,24.1,39.2,35.6
		c4,3.5,5.1,5.6,0.9,10.2c-11.1,12.1-10.8,12.3-23.2,1.2c-15.6-14.1-31.3-28.3-46.8-42.5c-3.6-3.3-6.7-18.3-4.3-22.2
		c2.2-3.6,5.9-1.7,8.9-1.7c16.2-0.4,28.5-7.1,36-21.7C252.2,255.1,252.3,254,252.8,251.9z"/>
</g>
</svg>
