<?xml version="1.0" encoding="utf-8"?>
<!-- Generator: Adobe Illustrator 19.0.0, SVG Export Plug-In . SVG Version: 6.00 Build 0)  -->
<svg version="1.1" id="Layer_1" xmlns="http://www.w3.org/2000/svg" xmlns:xlink="http://www.w3.org/1999/xlink" x="0px" y="0px"
	 viewBox="0 0 512 512" style="enable-background:new 0 0 512 512;" xml:space="preserve">
<style type="text/css">
	.st0{fill:#FFFFFF;}
	.st1{fill:#CCB800;}
	.st2{fill:#191919;}
	.st3{fill:#D6C600;}
</style>
<circle id="XMLID_1_" class="st0" cx="256.7" cy="256.7" r="254.3"/>
<ellipse class="st1" cx="388.9" cy="343.7" rx="18.2" ry="19.3"/>
<ellipse class="st1" cx="339.8" cy="342.7" rx="18.2" ry="19.3"/>
<g>
	<path class="st2" d="M404.3,298.7H109.6c-25.8,0-46.6,20.9-46.6,46.6s20.9,46.6,46.6,46.6h294.6c25.8,0,46.6-20.9,46.6-46.6
		C451,319.6,430.1,298.7,404.3,298.7z M337.8,355.9c-7.8,0-14.2-6.4-14.2-14.2c0-7.8,6.4-14.2,14.2-14.2s14.2,6.4,14.2,14.2
		S345.7,355.9,337.8,355.9z M385.7,355.9c-7.8,0-14.2-6.4-14.2-14.2c0-7.8,6.4-14.2,14.2-14.2c7.8,0,14.2,6.4,14.2,14.2
		C399.8,349.5,393.6,355.9,385.7,355.9z"/>
	<path id="XMLID_6_" class="st3" d="M404.3,283.3c15.2,0,29.1,5.5,39.9,14.6l-80.9-175.1c-0.8-1.7-2.5-2.7-4.3-2.7h-37H203.7H155
		l0,0c-1.9,0-3.5,1.1-4.3,2.7l-81,175.1c10.8-9.1,24.8-14.6,39.9-14.6H404.3L404.3,283.3z M215.3,171.1c1.5-0.8,3-1.2,4.7-1.2
		c3.9,0,7.4,2.2,9.2,5.6c1.9,3.7,1.4,8.2-1.3,11.4l16.6,14.2l8.6-20.9c-3.9-1.6-6.4-5.4-6.4-9.5c0-5.7,4.7-10.3,10.3-10.3
		s10.3,4.7,10.3,10.3c0,4.2-2.5,7.9-6.4,9.5l8.6,20.9l16.6-14.2c-2.7-3.2-3.3-7.7-1.3-11.4c1.8-3.5,5.3-5.6,9.2-5.6
		c1.6,0,3.2,0.4,4.7,1.2c5,2.6,7.1,8.8,4.5,13.9c-1.9,3.7-5.8,5.9-10,5.6l0,0l-3.3,41c-0.1,1.2-1.2,2.2-2.3,2.2h-60.9
		c-1.2,0-2.3-0.9-2.3-2.2l-3.3-41c-4.3,0.3-8.1-1.9-10-5.6C208.2,179.9,210.2,173.7,215.3,171.1z"/>
</g>
</svg>
