<?xml version="1.0" encoding="utf-8"?>
<!-- Generator: Adobe Illustrator 19.0.0, SVG Export Plug-In . SVG Version: 6.00 Build 0)  -->
<svg version="1.1" id="Layer_1" xmlns="http://www.w3.org/2000/svg" xmlns:xlink="http://www.w3.org/1999/xlink" x="0px" y="0px"
	 viewBox="0 0 512 512" style="enable-background:new 0 0 512 512;" xml:space="preserve">
<style type="text/css">
	.st0{fill:#FFFFFF;}
	.st1{fill:#E0D500;}
	.st2{fill:#161616;}
</style>
<circle id="XMLID_1_" class="st0" cx="256.7" cy="256.7" r="254.3"/>
<rect x="73" y="243.1" class="st1" width="366" height="25"/>
<rect x="73" y="340.2" class="st1" width="366" height="25"/>
<rect x="73" y="148" class="st1" width="366" height="25"/>
<g id="XMLID_4_">
	<path id="XMLID_10_" class="st2" d="M86.9,183.1h340.2c13.4,0,24.3-10.9,24.3-24.3c0-13.4-10.9-24.3-24.3-24.3H86.9
		c-13.4,0-24.3,10.9-24.3,24.3C62.6,172.2,73.5,183.1,86.9,183.1z M78.5,152.7h356.1v15.2H78.5V152.7z"/>
	<path id="XMLID_13_" class="st2" d="M427.1,231.7H86.9c-13.4,0-24.3,10.9-24.3,24.3c0,13.4,10.9,24.3,24.3,24.3h340.2
		c13.4,0,24.3-10.9,24.3-24.3S440.5,231.7,427.1,231.7z M434.7,266.7H78.5v-15.2h356.1V266.7z"/>
	<path id="XMLID_16_" class="st2" d="M427.1,328.9H86.9c-13.4,0-24.3,10.9-24.3,24.3c0,13.4,10.9,24.3,24.3,24.3h340.2
		c13.4,0,24.3-10.9,24.3-24.3C451.4,339.8,440.5,328.9,427.1,328.9z M434.7,361.7H78.5v-15.2h356.1V361.7z"/>
</g>
</svg>
