<?xml version="1.0" encoding="utf-8"?>
<!-- Generator: Adobe Illustrator 24.0.1, SVG Export Plug-In . SVG Version: 6.00 Build 0)  -->
<svg version="1.1" id="Layer_1" xmlns="http://www.w3.org/2000/svg" xmlns:xlink="http://www.w3.org/1999/xlink" x="0px" y="0px"
	 viewBox="0 0 50 50" style="enable-background:new 0 0 50 50;" xml:space="preserve">
<style type="text/css">
	.st0{fill:#FFFFFF;}
	.st1{fill:#0C0C0C;}
	.st2{fill:#FDFDFD;}
	.st3{fill:#FAFAFA;}
	.st4{fill:#101010;}
	.st5{fill:#141414;}
	.st6{fill:#1A1A19;}
</style>
<circle class="st0" cx="25" cy="25" r="24.6"/>
<g>
	<path class="st1" d="M35.1,41.5c-6.8,0-13.6,0-20.4,0c0-0.1-0.1-0.1-0.2-0.1c-3-0.5-5.1-3.1-5.1-6.2c0.1-3.9,0-7.8,0-11.7
		c0-0.1,0-0.2,0-0.3c0-0.3,0.2-0.6,0.5-0.6c0.1,0,0.3,0,0.4,0c9.7,0,19.4,0,29.2,0c0.1,0,0.1,0,0.2,0c0.5,0,0.8,0.3,0.8,0.8
		c0,4.1,0,8.1,0,12.2c0,2.7-1.8,5-4.4,5.7C35.8,41.4,35.5,41.4,35.1,41.5z M24.3,33.2c0,0.3,0,0.5,0,0.8c0,0.4,0.3,0.7,0.7,0.7
		c0.4,0,0.7-0.3,0.7-0.7c0-0.3,0-0.5,0-0.8c0-0.2,0-0.3,0.3-0.4c0.4-0.1,0.7-0.3,1.1-0.5c1.1-0.7,1.6-1.8,1.3-3
		c-0.4-2.1-2.8-3.3-4.8-2.3c-1.1,0.5-1.8,1.4-1.9,2.7c0,0.4,0.2,0.7,0.6,0.7c0.4,0,0.7-0.2,0.7-0.6c0.1-1.1,1.3-2.1,2.7-1.7
		c0.8,0.2,1.4,0.9,1.4,1.7c0,0.8-0.3,1.3-1.2,1.7c-0.3,0.1-0.6,0.2-0.9,0.3c-0.4,0.1-0.6,0.3-0.6,0.8C24.3,32.7,24.3,33,24.3,33.2z
		 M25.7,36.8c0-0.4-0.3-0.7-0.7-0.7c-0.4,0-0.7,0.3-0.7,0.7c0,0.4,0.3,0.7,0.7,0.7C25.4,37.5,25.7,37.1,25.7,36.8z"/>
	<path class="st2" d="M24.3,33.2c0-0.2,0-0.5,0-0.7c0-0.5,0.2-0.7,0.6-0.8c0.3-0.1,0.6-0.1,0.9-0.3c0.9-0.3,1.2-0.9,1.2-1.7
		c0-0.7-0.6-1.4-1.4-1.7c-1.4-0.4-2.6,0.6-2.7,1.7c0,0.4-0.3,0.6-0.7,0.6c-0.4,0-0.6-0.3-0.6-0.7c0.1-1.3,0.8-2.2,1.9-2.7
		c2-0.9,4.3,0.2,4.8,2.3c0.3,1.2-0.2,2.4-1.3,3c-0.3,0.2-0.7,0.4-1.1,0.5c-0.2,0.1-0.3,0.2-0.3,0.4c0,0.3,0,0.5,0,0.8
		c0,0.4-0.3,0.7-0.7,0.7c-0.4,0-0.6-0.3-0.7-0.7C24.3,33.8,24.3,33.5,24.3,33.2z"/>
	<path class="st3" d="M25.7,36.8c0,0.4-0.3,0.7-0.7,0.7c-0.4,0-0.7-0.3-0.7-0.7c0-0.4,0.3-0.7,0.7-0.7
		C25.4,36.1,25.7,36.4,25.7,36.8z"/>
	<path class="st4" d="M33.1,21.2c-1.8,0-3.6,0-5.4,0c-0.5,0-0.7-0.1-0.8-0.6c-0.4-1.3-0.7-2.5-1.1-3.8c-0.1-0.4,0-0.8,0.3-0.9
		c0.3-0.2,0.6-0.1,0.9,0.3c0.2,0.2,0.4,0.4,0.6,0.5c1.2,0.5,2.5,0.6,3.8,0.1c0.2-0.1,0.4-0.2,0.6-0.4c0.3-0.2,0.4-0.5,0.4-0.8
		c0-1.3,0-2.6,0-4c0-0.7-0.5-1.2-1.2-1.3c-0.6-0.1-1.2,0.4-1.4,1c-0.1,0.2,0,0.5,0,0.8c0,0.1,0,0.3,0,0.4c-0.1,0.3-0.3,0.5-0.7,0.5
		c-0.3,0-0.6-0.2-0.6-0.5c-0.1-1.1,0-2.2,1-3c0.9-0.7,1.8-0.8,2.8-0.3c1,0.5,1.5,1.4,1.5,2.5c0,1.2,0,2.5,0,3.7
		c0,0.5,0.2,0.9,0.6,1.1c0.8,0.5,1.7,0.6,2.6,0.5c0.5,0,1.1-0.2,1.5-0.4c0.3-0.1,0.5-0.3,0.7-0.6c0.2-0.3,0.5-0.4,0.8-0.3
		c0.3,0.1,0.5,0.5,0.4,0.8c-0.4,1.4-0.8,2.7-1.2,4.1c-0.1,0.3-0.4,0.5-0.8,0.5C36.7,21.2,34.9,21.2,33.1,21.2z"/>
	<path class="st5" d="M19,11.8c0.9,0,1.5,0.5,1.9,1.3c0.8,1.9,1.7,3.7,2.5,5.6c0.2,0.5,0.4,1,0.7,1.5c0.2,0.5,0.1,0.9-0.3,1
		c-0.4,0.2-0.7,0-1-0.5c-1-2.3-2.1-4.6-3.1-7c-0.3-0.6-0.6-0.7-1.2-0.4c-1.9,0.9-3.9,1.7-5.8,2.6c-0.6,0.3-0.7,0.6-0.4,1.1
		c0.5,1,0.9,2.1,1.4,3.1c0,0,0,0.1,0.1,0.1c0.2,0.4,0,0.8-0.3,0.9c-0.4,0.2-0.7,0-0.9-0.4c-0.3-0.6-0.6-1.3-0.9-2
		c-0.2-0.5-0.4-1-0.7-1.5c-0.4-1,0-2.2,1-2.6c2.1-0.9,4.1-1.9,6.2-2.8C18.4,11.8,18.7,11.8,19,11.8z"/>
	<path class="st6" d="M14.4,16.9c0,0.4-0.3,0.7-0.7,0.7c-0.4,0-0.7-0.3-0.7-0.7c0-0.4,0.3-0.7,0.7-0.7
		C14.2,16.2,14.5,16.5,14.4,16.9z"/>
</g>
</svg>
