<?xml version="1.0" encoding="utf-8"?>
<!-- Generator: Adobe Illustrator 19.0.0, SVG Export Plug-In . SVG Version: 6.00 Build 0)  -->
<svg version="1.1" id="Layer_1" xmlns="http://www.w3.org/2000/svg" xmlns:xlink="http://www.w3.org/1999/xlink" x="0px" y="0px"
	 viewBox="0 0 512 512" style="enable-background:new 0 0 512 512;" xml:space="preserve">
<style type="text/css">
	.st0{fill:#FFFFFF;}
	.st1{fill:#E7E9ED;}
	.st2{fill:#A3CC39;}
	.st3{fill:#A9DFF0;}
	.st4{fill:#FAED15;}
	.st5{fill:#FEBC12;}
	.st6{fill:#20235B;}
</style>
<circle id="XMLID_1_" class="st0" cx="256.7" cy="256.7" r="254.3"/>
<g id="XMLID_2_">
	<circle id="XMLID_25_" class="st1" cx="178.1" cy="259" r="112.1"/>
	<path id="XMLID_24_" class="st2" d="M408.2,82H243c-6.5,0-11.8,5.3-11.8,11.8v66.4l-0.1,0.1c28.5,15.3,49.6,42.6,56.5,75.1h0.1
		h120.5c6.5,0,11.8-5.3,11.8-11.8V93.8C420,87.3,414.7,82,408.2,82z"/>
	<path id="XMLID_23_" class="st0" d="M290.2,82h70.8v35.4h-23.6h-23.6h-23.6L290.2,82L290.2,82z"/>
	<path id="XMLID_22_" class="st3" d="M240.7,196.5c-16-16.1-38.1-25.9-62.5-25.9s-46.5,9.9-62.5,25.9c-16.1,16-25.9,38.1-25.9,62.5
		c0,48.9,39.7,88.5,88.5,88.5c2.9,0,5.8-0.1,8.7-0.4l32.6-34.2l17.7-18.5l14.7,13.5c9.3-13.9,14.7-30.8,14.7-48.9
		C266.6,234.6,256.6,212.5,240.7,196.5z"/>
	<path id="XMLID_21_" class="st4" d="M184.9,258.9l10.6,63.6c0.2,1,0.2,1.9,0.2,2.9v4.5c0,4.9-2,9.3-5.2,12.5s-7.6,5.2-12.5,5.2
		c-9.8,0-17.7-7.9-17.7-17.7v-4.5c0-1,0.1-1.9,0.2-2.9l10.6-63.6c0.5-3.4,3.4-5.8,6.9-5.8C181.6,253.1,184.4,255.6,184.9,258.9
		L184.9,258.9z"/>
	<path id="XMLID_20_" class="st5" d="M325.5,341.6l-17.7,17.7l-17.7-16.3L269.3,324l-14.6-13.4l-2.9-2.7l-14.7-13.5l-17.7,18.5
		l-32.6,34.2L184,350l-19.4,20.3l-16.1,16.8l-35.4,37.1V436h35.4H184h35.4h35.4h35.4h35.4h35.4V306.2L325.5,341.6z"/>
	<path id="XMLID_32_" class="st6" d="M408.2,76.1H243c-9.8,0-17.7,7.9-17.7,17.7v57.1c-14.4-6.4-30.4-10-47.2-10
		c-65,0.1-118,53-118,118.1c0,55.8,39.1,103.5,92.6,115.3l-45.4,47.6v20h259.5V308.6l35.4-35.4V318h11.8v-64.9h-64.9v11.8H394
		l-86.2,86.2l-30.6-28.1c12.4-19.1,19-41.1,19-64.1c0-6-0.6-11.9-1.5-17.7h113.6c9.8,0,17.7-7.9,17.7-17.7V93.8
		C425.9,84,418,76.1,408.2,76.1z M331.5,99.7v11.8h-11.8V99.7h-11.8v11.8H296V87.9h59v23.6h-11.8V99.7H331.5z M95.8,253.1
		c1.3-18.3,8.6-35,19.9-48.1l16.5,16.5l8.3-8.3l-16.5-16.5c13.1-11.3,29.8-18.7,48.1-19.9V200H184v-23.2c18.3,1.3,35,8.6,48.1,19.9
		l-16.5,16.5l8.3,8.3l16.5-16.5c11.3,13.1,18.7,29.8,19.9,48.1H237v11.8h23.4c-0.9,11.9-4.3,23.4-10,33.8l-13.7-12.6l-35.3,37
		c-0.1-0.6,0-1.1-0.1-1.6l-10.5-63.5c-1.1-6.2-6.4-10.7-12.7-10.7c-6.3,0-11.6,4.5-12.7,10.7l-10.5,63.6c-0.2,1.3-0.3,2.6-0.3,3.9
		v4.5c0,3.1,0.7,6.1,1.7,8.8c-33.1-9.1-57.9-38.3-60.4-73.6h23.2v-11.8L95.8,253.1z M166.3,329.8v-4.5c0-0.7,0.1-1.3,0.2-1.9
		l10.5-63.6c0.2-1.1,1.9-1.1,2.1,0l10.5,63.6c0.1,0.7,0.2,1.3,0.2,1.9v4.5c0,6.5-5.3,11.8-11.8,11.8
		C171.6,341.6,166.3,336.3,166.3,329.8L166.3,329.8z M213.5,327.7v102.4h-23.6v-77.7L213.5,327.7z M225.3,315.3l12.1-12.7l11.5,10.5
		v116.9h-23.6V315.3z M260.7,324l23.6,21.7v84.4h-23.6V324z M178.1,430.1h-23.6v-40.6l23.6-24.7V430.1z M119.1,426.6l23.6-24.7v28.3
		h-23.6V426.6z M355.1,430.1h-23.6v-86l23.6-23.6V430.1z M308,367.5l11.6-11.6v74.2H296v-73.6L308,367.5z M268.3,315l-8.9-8.1
		c8.5-14.5,13.1-30.9,13.1-47.9c0-52.1-42.4-94.4-94.4-94.4S83.7,206.9,83.7,259c0,50.3,39.6,91.5,89.2,94.2L162.6,364
		c-51.9-7.6-90.7-52.2-90.7-105c0-58.5,47.6-106.2,106.2-106.2S284.3,200.5,284.3,259C284.3,279,278.7,298.2,268.3,315L268.3,315z
		 M414.1,223.6c0,3.3-2.6,5.9-5.9,5.9h-116c-8-30.9-28.2-56.9-55.2-72.6V93.8c0-3.3,2.6-5.9,5.9-5.9h41.3v35.4h82.6V87.9h41.3
		c3.3,0,5.9,2.6,5.9,5.9L414.1,223.6L414.1,223.6z"/>
	<path id="XMLID_6_" d="M366.9,205.9h11.8v11.8h-11.8V205.9z"/>
	<path id="XMLID_5_" d="M343.3,205.9h11.8v11.8h-11.8V205.9z"/>
	<path id="XMLID_4_" d="M390.5,205.9h11.8v11.8h-11.8V205.9z"/>
	<path id="XMLID_3_" d="M343.3,182.3h59v11.8h-59V182.3z"/>
</g>
</svg>
