<?xml version="1.0" encoding="utf-8"?>
<!-- Generator: Adobe Illustrator 19.0.0, SVG Export Plug-In . SVG Version: 6.00 Build 0)  -->
<svg version="1.1" id="Layer_1" xmlns="http://www.w3.org/2000/svg" xmlns:xlink="http://www.w3.org/1999/xlink" x="0px" y="0px"
	 viewBox="0 0 512 512" style="enable-background:new 0 0 512 512;" xml:space="preserve">
<style type="text/css">
	.st0{fill:#FFFFFF;}
	.st1{fill:#161616;}
	.st2{fill:#F6EC13;}
</style>
<circle id="XMLID_1_" class="st0" cx="256.7" cy="256.7" r="254.3"/>
<path id="XMLID_13_" class="st1" d="M279.1,241.4l3.1-23.8l-17.1,15.2c-2.8,2.8-7,3.1-10.1,0.4l-19.1-14.8l4.7,22.6
	c0.8,3.5-1.2,7.4-4.7,9l-22.2,9.3l21.4,7c3.5,1.2,6.2,4.7,5.4,8.6l-3.1,23.8l17.1-15.2c2.8-2.8,7-3.1,10.1-0.4l19.1,14.8l-4.3-22.6
	c-0.8-3.5,1.2-7.4,4.7-9l22.2-9.3l-21.4-7C281.1,248.9,278.8,245.3,279.1,241.4z M292.4,132c3.1-2.8,8.2-2.3,10.9,0.8
	c2.8,3.1,2.3,8.2-0.8,10.9l-34.6,30.4v19.4c0,4.3-3.5,7.8-7.8,7.8c-4.3,0-7.8-3.5-7.8-7.8v-19.4l-35.1-30.4
	c-3.1-2.8-3.5-7.8-0.8-10.9c2.8-3.1,7.8-3.5,10.9-0.8l24.5,21.4V120l-34.6-30.4c-3.1-2.8-3.5-7.8-0.8-10.9c2.8-3.1,7.8-3.5,10.9-0.8
	l24.5,21.4V66.2c0-4.3,3.5-7.8,7.8-7.8c4.3,0,7.8,3.5,7.8,7.8v33.1L292,77.9c3.1-2.8,8.2-2.3,10.9,0.8c2.8,3.1,2.3,8.2-0.8,10.9
	L267.8,120v33.5L292.4,132z M385.5,223.1c4.3,1.6,6.2,5.9,5.1,10.1c-1.6,4.3-5.9,6.2-10.1,5.1l-43.6-15.2l-16.8,9.8
	c-3.9,2.3-8.6,0.8-10.9-2.8c-2.3-3.9-0.8-8.6,2.8-10.9l16.8-9.8l9-45.2c0.8-4.3,5.1-7,9.3-6.2c4.3,0.8,7,5.1,6.2,9.3l-6.2,32
	l28.9-16.8l9-45.5c0.8-4.3,5.1-7,9.3-6.2c4.3,0.8,7,5.1,6.2,9.3l-6.2,32l28.9-16.8c3.9-2.3,8.6-0.8,10.9,2.8
	c2.3,3.9,0.8,8.6-2.8,10.9l-28.9,16.8l30.8,10.5c4.3,1.6,6.2,5.9,5.1,10.1c-1.6,4.3-5.9,6.2-10.1,5.1L383.7,196l-28.9,16.8
	L385.5,223.1z M353.2,349.4c0.8,4.3-2,8.6-6.2,9.3c-4.3,0.8-8.6-2-9.3-6.2l-9-45.2l-16.3-10.1c-3.9-2.3-5.1-7-2.8-10.9
	c2.3-3.9,7-5.1,10.9-2.8l16.8,9.8l43.6-14.8c4.3-1.6,8.6,0.8,10.1,5.1s-0.8,8.6-5.1,10.1l-30.8,10.5l28.9,16.8l43.6-14.8
	c4.3-1.6,8.6,0.8,10.1,5.1c1.6,4.3-0.8,8.6-5.1,10.1l-30.8,10.5l28.9,16.8c3.9,2.3,5.1,7,2.8,10.9c-2.3,3.9-7,5.1-10.9,2.8
	l-28.9-16.8l6.2,32c0.8,4.3-2,8.6-6.2,9.3c-4.3,0.8-8.6-2-9.3-6.2l-9-45.2l-28.9-16.8L353.2,349.4z M227.8,384.4
	c-3.1,2.8-8.2,2.3-10.9-0.8c-2.8-3.1-2.3-8.2,0.8-10.9l34.6-30.4v-19.4c0-4.3,3.5-7.8,7.8-7.8c4.3,0,7.8,3.5,7.8,7.8v19.4l34.6,30.4
	c3.1,2.8,3.5,7.8,0.8,10.9s-7.8,3.5-10.9,0.8l-24.5-21.4v33.5l34.6,30.4c3.1,2.8,3.5,7.8,0.8,10.9c-2.8,3.1-7.8,3.5-10.9,0.8
	l-24.5-21.4v33.1c0,4.3-3.5,7.8-7.8,7.8c-4.3,0-7.8-3.5-7.8-7.8v-33.1l-24.5,21.4c-3.1,2.8-8.2,2.3-10.9-0.8
	c-2.8-3.1-2.3-8.2,0.8-10.9l34.6-30.4v-33.5L227.8,384.4z M134.7,293.3c-4.3-1.6-6.2-5.9-5.1-10.1c1.6-4.3,5.9-6.2,10.1-5.1
	l43.6,15.2l16.8-9.8c3.9-2.3,8.6-0.8,10.9,2.8c2.3,3.9,0.8,8.6-2.8,10.9l-16.8,9.8l-9,45.2c-0.8,4.3-5.1,7-9.3,6.2
	c-4.2-0.8-7-5.1-6.2-9.3l6.2-32l-28.9,16.8l-9,45.5c-0.8,4.3-5.1,7-9.3,6.2c-4.3-0.8-7-5.1-6.2-9.3l6.2-32L97.1,361
	c-3.9,2.3-8.6,0.8-10.9-2.8c-2.3-3.9-0.8-8.6,2.8-10.9l29-16.8l-30.4-10.1c-4.3-1.6-6.2-5.9-5.1-10.1c1.6-4.3,5.9-6.2,10.1-5.1
	l44,15.2l28.9-16.8L134.7,293.3z M167,167c-0.8-4.3,2-8.6,6.2-9.3c4.3-0.8,8.6,2,9.3,6.2l9,45.2l16.8,9.8c3.9,2.3,5.1,7,2.8,10.9
	c-2.3,3.9-7,5.1-10.9,2.8l-16.8-9.3L139.8,238c-4.3,1.6-8.6-0.8-10.1-5.1c-1.6-4.3,0.8-8.6,5.1-10.1l30.8-10.5l-28.9-16.3l-44,14.8
	c-4.3,1.6-8.6-0.8-10.1-5.1c-1.6-4.3,0.8-8.6,5.1-10.1l30.7-10.5l-28.9-16.8c-3.9-2.3-5.1-7-2.8-10.9c2.3-3.9,7-5.1,10.9-2.8
	l28.9,16.8l-6.7-31.5c-0.8-4.3,2-8.6,6.2-9.3c4.3-0.8,8.6,2,9.3,6.2l9,45.2l28.9,16.8L167,167z M300.6,198.6l-5.1,38.2l35.9,12.1
	c4.3,1.2,6.2,5.9,5.1,9.8c-0.8,2.3-2.3,3.9-4.3,4.7l0,0l-35.8,14.8l7.4,37c0.8,4.3-2,8.6-6.2,9.3c-2.3,0.4-4.7,0-6.2-1.6l0,0
	l-30.8-23.3l-28,24.9c-3.1,2.8-8.2,2.8-10.9-0.8c-1.6-2-2.3-3.9-2-6.2l0,0l5.1-38.2l-35.9-12.1c-4.3-1.2-6.2-5.9-5.1-9.8
	c0.8-2.3,2.3-3.9,4.3-4.7l0,0l35.9-14.8l-7.4-37c-0.8-4.3,2-8.6,6.2-9.3c2.3-0.4,4.7,0,6.2,1.6l0,0l30.8,23.3l28-24.9
	c3.1-2.8,8.2-2.8,10.9,0.8C300.2,194.3,301,196.7,300.6,198.6L300.6,198.6z"/>
<path id="XMLID_2_" class="st2" d="M235.2,266.4c3.5,1.2,6.2,4.7,5.4,8.6l-3.1,23.8l17.1-15.2c2.8-2.8,7-3.1,10.1-0.4l19.1,14.8
	l-4.3-22.6c-0.8-3.5,1.2-7.4,4.7-9l22.2-9.3l-21.4-7c-3.5-1.2-6.2-4.7-5.4-8.6l3.1-23.8l-17.1,15.2c-2.8,2.8-7,3.1-10.1,0.4
	l-19.1-14.8l4.7,22.6c0.8,3.5-1.2,7.4-4.7,9l-22.2,9.3L235.2,266.4z"/>
</svg>
