<?xml version="1.0" encoding="utf-8"?>
<!-- Generator: Adobe Illustrator 19.0.0, SVG Export Plug-In . SVG Version: 6.00 Build 0)  -->
<svg version="1.1" id="Layer_5" xmlns="http://www.w3.org/2000/svg" xmlns:xlink="http://www.w3.org/1999/xlink" x="0px" y="0px"
	 viewBox="0 0 512 512" style="enable-background:new 0 0 512 512;" xml:space="preserve">
<style type="text/css">
	.st0{fill:#FFFFFF;}
	.st1{fill:#96FF00;stroke:#000000;stroke-width:11;stroke-miterlimit:10;}
	.st2{fill:#BCB200;}
</style>
<circle id="XMLID_1_" class="st0" cx="256.7" cy="256.7" r="254.3"/>
<g>
	<path class="st1" d="M343.6,180.5V122c0-9.3-7.6-17-17-17H118c-9.3,0-17,7.6-17,17v11v220.5v7.6c0,6.2,3.6,12.1,9,14.9l128.6,66.5
		c5.7,2.8,12.4-1.1,12.4-7.6v-64.9h75.6c9.3,0,17-7.6,17-17v-92.4h-33.8v67.1c0,4.8-3.6,8.5-8.5,8.5h-49.9v-86.9v-55v-1.7
		c0-6.2-3.6-12.1-9-14.9L166.4,139h134.8c4.8,0,8.5,3.6,8.5,8.5v33.3h33.8L343.6,180.5L343.6,180.5z"/>
	<path class="st1" d="M386.2,160.5l50.4,50.4c6.4,6.4,6.4,16,0,22.5l-50.4,50.4c-6.4,6.4-16.3,6.7-22.8,0.3
		c-6.2-6.2-5.5-16.5,0.5-22.8l22.8-22.5h-88.1c-4.4,0-8.8-1.8-11.6-5.2c-7.2-7.8-5.5-21.4,3.9-26.6c2.3-1.3,5.2-2.1,7.8-2.1h88.2
		c0,0-22.5-22.5-22.8-22.5c-6-6-6.7-16.5-0.5-22.5C369.6,153.8,379.7,154,386.2,160.5z"/>
</g>
<polygon class="st2" points="112.8,145.9 112.8,349.8 233.3,405.8 233.3,204.1 "/>
</svg>
