<?xml version="1.0" encoding="utf-8"?>
<!-- Generator: Adobe Illustrator 19.0.0, SVG Export Plug-In . SVG Version: 6.00 Build 0)  -->
<svg version="1.1" id="Layer_1" xmlns="http://www.w3.org/2000/svg" xmlns:xlink="http://www.w3.org/1999/xlink" x="0px" y="0px"
	 viewBox="0 0 411.6 411.6" style="enable-background:new 0 0 411.6 411.6;" xml:space="preserve">
<style type="text/css">
	.st0{fill:#EFC9A4;}
	.st1{fill:#6698D1;}
	.st2{fill:#CCC130;}
	.st3{fill:#9ECC3B;}
	.st4{fill:#20B46E;}
	.st5{fill:#FFCE21;}
	.st6{fill:#010101;}
	.st7{fill:#EFE5F1;stroke:#030303;stroke-width:9;stroke-miterlimit:10;}
</style>
<path id="XMLID_20_" class="st0" d="M317.3,290.3c-4.1-2.5-8.9-3.8-13.7-3.8h-25.6c-4.6,0-9.3,0.6-13.8,1.8l-43.1,11.5l-33.9,9.1
	c-8.1,2.2-14,9.2-14.7,17.6c-0.1,1-0.1,2.1,0,3.1l-76.1-41.1c-4.1-2.4-9-3.2-13.7-2.3c-1.8,0.3-3.5,0.9-5.1,1.7
	c-3.6,1.7-6.6,4.5-8.5,7.9c-1.7,3-2.7,6.5-2.7,10c0,7.1,3.8,13.8,9.9,17.3L198,395.9c4.2,2.6,9.1,4,14,4h93.9c3.4,0,6.7-0.6,9.8-1.9
	l28.7-11.3v-80.1L317.3,290.3z"/>
<path id="XMLID_19_" class="st1" d="M402.4,402.5V280.9h-54.1v121.6H402.4z"/>
<path id="XMLID_18_" class="st1" d="M64.5,125.5V10.6H10.4v135.2h54.1V125.5z"/>
<path id="XMLID_17_" class="st2" d="M267.2,64.6h135.2v162.2H267.2V64.6z"/>
<path id="XMLID_16_" class="st3" d="M132.1,64.6h135.2v162.2H132.1V64.6z"/>
<path id="XMLID_15_" class="st4" d="M192.9,91.7c0,18.7-15.1,33.8-33.8,33.8V166c18.7,0,33.8,15.1,33.8,33.8h74.3V91.7H192.9z"/>
<path id="XMLID_14_" class="st4" d="M341.6,91.7h-74.3v108.1h74.3c0-18.7,15.1-33.8,33.8-33.8v-40.5
	C356.7,125.5,341.6,110.3,341.6,91.7z"/>
<path id="XMLID_13_" class="st5" d="M294.3,145.7c0,14.9-12.1,27-27,27s-27-12.1-27-27c0-14.9,12.1-27,27-27
	S294.3,130.8,294.3,145.7z"/>
<path id="XMLID_12_" class="st0" d="M231.8,91.7l-27-27h74.9l-38.2-38.2c-10.1-10.1-23.9-15.8-38.2-15.8h-85c-4.2,0-8.3,1-12.1,2.9
	L91,21c-4.1,2-8.5,3-13.1,2.8l-13.4-0.5v102.1h20.3l5.8,3.9c12.2,8.2,26.8,12.1,41.5,11.2V96c13.3,3.4,27.4,0.1,37.8-8.7l35.5,35.5
	c7.9,7.9,20.8,7.9,28.7,0c7.9-7.9,7.9-20.8,0-28.7L231.8,91.7z"/>
<path id="XMLID_82_" class="st6" d="M341.6,296l-17.2-10.3c-5.2-3.1-11.2-4.8-17.4-4.8h-25.9c-5.3,0-10.6,0.7-15.7,2l-78,20.9
	c-8.5,2.4-15.4,8.7-18.4,17l-68.6-37.1c-5.6-3.2-12.1-4.2-18.4-3c-2.4,0.4-4.7,1.2-6.8,2.2c-4.9,2.3-8.9,6.1-11.6,10.8
	c-2.3,4.1-3.6,8.7-3.6,13.4c-0.1,9.6,5,18.6,13.4,23.4l123,73.6c5.3,3.3,11.5,5.1,17.8,5.1h95.2c4.3,0,8.5-0.8,12.4-2.4l19.8-7.8
	v10.2h67.6V274.1h-67.6V296z M316.8,394.3c-2.4,0.9-4.9,1.4-7.4,1.4h-95.2c-3.8,0-7.5-1.1-10.8-3.1L80.1,319
	c-4.2-2.4-6.8-6.9-6.7-11.7c0-2.4,0.6-4.7,1.8-6.8c1.3-2.3,3.4-4.2,5.8-5.4c1.1-0.5,2.2-0.9,3.4-1.1c0.9-0.2,1.7-0.2,2.6-0.2
	c2.3,0,4.6,0.6,6.6,1.8l74.4,40.2c0.1,0.4,0.1,0.8,0.2,1.2c3.2,11.8,13.9,20,26.1,20c3.8-0.3,7.5-1,11.1-2l70.2-18.8l-3.5-13.1
	l-70,18.7c-3.1,0.7-7.1,1.5-7.9,1.6c-6.1,0-11.5-4.1-13.1-10c-0.2-0.8-0.3-1.7-0.4-2.5c0,0-0.1-1.6,0-2.2c0.5-5.7,4.5-10.4,9.9-11.9
	l78-20.9c4-1.1,8.1-1.6,12.2-1.6H307c3.7,0,7.3,1,10.4,2.9l24.2,14.5v72.8L316.8,394.3z M355.1,287.6h40.5v108.1h-40.5V287.6z"/>
<path id="XMLID_75_" class="st6" d="M282.4,57.9l-36.3-36.2c-11.4-11.4-26.9-17.9-43-17.8h-85c-5.2,0-10.4,1.2-15.1,3.6L87.9,15
	c-3,1.5-6.4,2.3-9.8,2.1l-6.9-0.2v-13H3.7v148.7h67.6v-20.3h11.5l4.1,2.7c11.4,7.6,24.8,11.9,38.5,12.4v86.3h283.8V57.9H282.4z
	 M57.8,139H17.2V17.3h40.5V139z M94.3,123.7l-7.5-5H71.3V30.4l6.4,0.2c5.7,0.2,11.3-1,16.3-3.5l15.1-7.6c2.8-1.4,5.9-2.1,9.1-2.1h85
	c12.6,0,24.6,5,33.4,13.9l26.7,26.7h-55.8l-16.4-16.4l-9.6,9.6l47.7,47.7c5.3,5.3,5.3,13.9,0,19.2c-5.3,5.3-13.9,5.3-19.2,0
	l-39.9-39.9l-4.7,4.1c-13.1,11.1-32.2,11.4-45.5,0.7l-3.9-3.2l-8.5,10.5l4,3.2c4.1,3.3,8.8,5.9,13.8,7.8v32.7
	C114.3,133.3,103.5,129.8,94.3,123.7z M190.5,117.3l10.2,10.2c10.6,10.4,27.6,10.4,38.2,0c-9.9,15.4-6,35.8,8.9,46.4
	c14.9,10.6,35.5,7.6,46.8-6.8c11.3-14.4,9.2-35.1-4.6-47c-13.9-11.9-34.7-10.8-47.2,2.5c4.6-7.2,5.4-16.3,2.2-24.3h90.5
	c2.9,17,16.2,30.3,33.2,33.2v28.2c-17,2.9-30.3,16.2-33.2,33.2H199.1c-2.9-17-16.2-30.3-33.2-33.2v-28.2
	C175.5,130,184.3,124.9,190.5,117.3z M247,145.7c0-11.2,9.1-20.3,20.3-20.3s20.3,9.1,20.3,20.3c0,11.2-9.1,20.3-20.3,20.3
	S247,156.9,247,145.7z M395.6,220.1H138.8V104c10.7,0.8,21.4-1.9,30.4-7.8l11.5,11.5c-5.1,6.9-13.1,11-21.7,11h-6.8v54.1h6.8
	c14.9,0,27,12.1,27,27v6.8h162.2v-6.8c0-14.9,12.1-27,27-27h6.8v-54.1h-6.8c-14.9,0-27-12.1-27-27v-6.8H234.6L221,71.4h174.6V220.1z
	"/>
<rect id="XMLID_2_" x="62.6" y="25" class="st7" width="23.2" height="102.2"/>
<rect id="XMLID_1_" x="323.8" y="295.7" class="st7" width="22.8" height="100.8"/>
</svg>
