<?xml version="1.0" encoding="utf-8"?>
<!-- Generator: Adobe Illustrator 19.0.0, SVG Export Plug-In . SVG Version: 6.00 Build 0)  -->
<svg version="1.1" id="Layer_1" xmlns="http://www.w3.org/2000/svg" xmlns:xlink="http://www.w3.org/1999/xlink" x="0px" y="0px"
	 viewBox="0 0 512 512" style="enable-background:new 0 0 512 512;" xml:space="preserve">
<style type="text/css">
	.st0{fill:#FFFFFF;}
	.st1{fill:#141414;}
	.st2{fill:#3F3F3F;}
	.st3{fill:#C4AD08;stroke:#FFFFFF;stroke-miterlimit:10;}
	.st4{fill:#DDB907;}
</style>
<circle id="XMLID_1_" class="st0" cx="256.7" cy="256.7" r="254.3"/>
<path class="st1" d="M359.1,171.5c-30.7,0-55.9,25.2-55.9,55.9v18.6H415v-18.6C415,196.7,389.8,171.5,359.1,171.5z"/>
<path class="st2" d="M415,227.4v18.6h-55.9v-74.5C389.8,171.5,415,196.7,415,227.4z"/>
<path class="st1" d="M359.1,97c-20.5,0-37.3,16.8-37.3,37.3s16.8,37.3,37.3,37.3s37.3-16.8,37.3-37.3S379.6,97,359.1,97z"/>
<path class="st2" d="M359.1,171.5V97c20.5,0,37.3,16.8,37.3,37.3S379.6,171.5,359.1,171.5z"/>
<path class="st3" d="M307.8,362.3L228.7,415H97V309.6l79.1-105.4l29.6,29.6l13.2-13.2l29.6,29.6l13.2-13.2l29.6,29.6l39.5-39.5
	l29.6,29.6l-65.8,65.9L307.8,362.3z"/>
<path class="st4" d="M307.8,362.3L228.7,415H97l171.3-171.3l23,23l39.5-39.5l29.6,29.6l-65.8,65.9L307.8,362.3z"/>
</svg>
