<?xml version="1.0" encoding="utf-8"?>
<!-- Generator: Adobe Illustrator 24.0.1, SVG Export Plug-In . SVG Version: 6.00 Build 0)  -->
<svg version="1.1" id="Layer_1" xmlns="http://www.w3.org/2000/svg" xmlns:xlink="http://www.w3.org/1999/xlink" x="0px" y="0px"
	 viewBox="0 0 50 50" style="enable-background:new 0 0 50 50;" xml:space="preserve">
<style type="text/css">
	.st0{fill:#D9EEF7;}
	.st1{fill:#3FAECA;}
	.st2{fill:#F6E820;}
	.st3{fill:#F18419;}
	.st4{fill:#101123;}
</style>
<path class="st0" d="M38.4,39.3h-36V2.6h28.3l7.7,7.7V39.3z"/>
<path class="st1" d="M38.4,10.2h-7.7V2.6L38.4,10.2z"/>
<path class="st1" d="M30,27.1h8.4v12.2H30V27.1z"/>
<path class="st2" d="M31.5,28.6h16.1V47H31.5V28.6z"/>
<path class="st3" d="M47.6,47H31.5v-3.8l16.1-7.7V47z"/>
<path class="st0" d="M34.6,31.7h9.9v3.1h-9.9V31.7z"/>
<path class="st3" d="M12.4,13.3l4.9,4.9c-2.7,2.7-7,2.7-9.7,0s-2.7-7,0-9.7s7-2.7,9.7,0L12.4,13.3z"/>
<path class="st2" d="M22.6,8.4c2.7,2.7,2.7,7,0,9.7l-4.9-4.9L22.6,8.4z"/>
<path class="st2" d="M17,30.9H20v4.6H17V30.9z"/>
<path class="st3" d="M20,26.3h3.1v9.2H20V26.3z"/>
<path class="st2" d="M23.1,28.6h3.1v6.9h-3.1V28.6z"/>
<g>
	<path class="st4" d="M47.6,27.8h-8.4V10.2c0-0.2-0.1-0.4-0.2-0.5L31.3,2c-0.1-0.1-0.3-0.2-0.5-0.2H2.4C2,1.8,1.7,2.2,1.7,2.6v36.7
		c0,0.4,0.3,0.8,0.8,0.8h28.3V47c0,0.4,0.3,0.8,0.8,0.8h16.1c0.4,0,0.8-0.3,0.8-0.8V28.6C48.3,28.2,48,27.8,47.6,27.8z M30.7,28.6
		v9.9H3.2V3.3h27.2l6.1,6.1h-5V5.6H30v4.6c0,0.4,0.3,0.8,0.8,0.8h6.9v16.8h-6.1C31.1,27.8,30.7,28.2,30.7,28.6z M46.8,46.2H32.3
		V29.4h14.5V46.2z"/>
	<path class="st4" d="M34.6,37h2.3v1.5h-2.3V37z"/>
	<path class="st4" d="M38.4,37h2.3v1.5h-2.3V37z"/>
	<path class="st4" d="M42.2,37h2.3v1.5h-2.3V37z"/>
	<path class="st4" d="M34.6,40.1h2.3v1.5h-2.3V40.1z"/>
	<path class="st4" d="M38.4,40.1h2.3v1.5h-2.3V40.1z"/>
	<path class="st4" d="M42.2,40.1h2.3v1.5h-2.3V40.1z"/>
	<path class="st4" d="M34.6,43.1h2.3v1.5h-2.3V43.1z"/>
	<path class="st4" d="M38.4,43.1h2.3v1.5h-2.3V43.1z"/>
	<path class="st4" d="M42.2,43.1h2.3v1.5h-2.3V43.1z"/>
	<path class="st4" d="M34.6,35.5h9.9c0.4,0,0.8-0.3,0.8-0.8v-3.1c0-0.4-0.3-0.8-0.8-0.8h-9.9c-0.4,0-0.8,0.3-0.8,0.8v3.1
		C33.8,35.1,34.1,35.5,34.6,35.5z M35.3,32.4h8.4v1.5h-8.4V32.4z"/>
	<path class="st4" d="M17.8,17.6l-4.3-4.3L17.8,9c0.3-0.3,0.3-0.8,0-1.1c-1.4-1.4-3.4-2.2-5.4-2.2S8.4,6.4,7,7.9
		c-1.4,1.4-2.2,3.4-2.2,5.4s0.8,4,2.2,5.4c1.4,1.4,3.4,2.2,5.4,2.2s4-0.8,5.4-2.2C18.1,18.4,18.1,17.9,17.8,17.6z M12.4,19.4
		c-1.6,0-3.2-0.6-4.3-1.8c-1.2-1.2-1.8-2.7-1.8-4.3S6.9,10.1,8,9s2.7-1.8,4.3-1.8c1.4,0,2.7,0.5,3.8,1.3l-4.3,4.3
		c-0.3,0.3-0.3,0.8,0,1.1l4.3,4.3C15.1,19,13.8,19.4,12.4,19.4z"/>
	<path class="st4" d="M17.2,13.8l4.9,4.9c0.1,0.1,0.3,0.2,0.5,0.2s0.4-0.1,0.5-0.2c1.4-1.4,2.2-3.4,2.2-5.4s-0.8-4-2.2-5.4
		c-0.3-0.3-0.8-0.3-1.1,0l-4.9,4.9C16.9,13,16.9,13.5,17.2,13.8L17.2,13.8z M22.6,9.5c0.8,1.1,1.3,2.4,1.3,3.8S23.4,16,22.6,17
		l-3.8-3.8L22.6,9.5z"/>
	<path class="st4" d="M8.6,27.1h1.5c0.4,0,0.8,0.3,0.8,0.8h1.5c0-1.3-1-2.3-2.3-2.3V24H8.6v1.5c-1.3,0-2.3,1-2.3,2.3v0.8
		c0,1.3,1,2.3,2.3,2.3h1.5c0.4,0,0.8,0.3,0.8,0.8v0.8c0,0.4-0.3,0.8-0.8,0.8H8.6c-0.4,0-0.8-0.3-0.8-0.8H6.3c0,1.3,1,2.3,2.3,2.3
		v1.5h1.5v-1.5c1.3,0,2.3-1,2.3-2.3v-0.8c0-1.3-1-2.3-2.3-2.3H8.6c-0.4,0-0.8-0.3-0.8-0.8v-0.8C7.8,27.4,8.1,27.1,8.6,27.1z"/>
	<path class="st4" d="M26.9,28.6c0-0.4-0.3-0.8-0.8-0.8h-2.3v-1.5c0-0.4-0.3-0.8-0.8-0.8H20c-0.4,0-0.8,0.3-0.8,0.8v3.8H17
		c-0.4,0-0.8,0.3-0.8,0.8v3.8h-1.5v1.5H17H20h3.1h3.1h2.3v-1.5h-1.5V28.6z M17.7,31.7h1.5v3.1h-1.5V31.7z M20.8,30.9v-3.8h1.5v1.5
		v6.1h-1.5V30.9z M23.9,34.7v-5.4h1.5v5.4H23.9z"/>
	<path class="st4" d="M27.7,14.1h7.7v1.5h-7.7V14.1z"/>
	<path class="st4" d="M27.7,17.1h7.7v1.5h-7.7V17.1z"/>
	<path class="st4" d="M27.7,20.2h7.7v1.5h-7.7V20.2z"/>
	<path class="st4" d="M27.7,23.2h1.5v1.5h-1.5V23.2z"/>
	<path class="st4" d="M30.7,23.2h1.5v1.5h-1.5V23.2z"/>
	<path class="st4" d="M33.8,23.2h1.5v1.5h-1.5V23.2z"/>
</g>
</svg>
