<?xml version="1.0" encoding="utf-8"?>
<!-- Generator: Adobe Illustrator 19.0.0, SVG Export Plug-In . SVG Version: 6.00 Build 0)  -->
<svg version="1.1" id="Layer_1" xmlns="http://www.w3.org/2000/svg" xmlns:xlink="http://www.w3.org/1999/xlink" x="0px" y="0px"
	 viewBox="0 0 512 512" style="enable-background:new 0 0 512 512;" xml:space="preserve">
<style type="text/css">
	.st0{fill:#FFFFFF;}
	.st1{fill:#F7CBA6;}
	.st2{fill:#98DD00;}
	.st3{fill:#23AAE2;}
	.st4{fill:#163A63;}
</style>
<circle id="XMLID_3_" class="st0" cx="256.7" cy="256.7" r="254.3"/>
<g id="XMLID_2_">
	<path id="XMLID_19_" class="st1" d="M338.4,350.4l61.5-29.1c13.6-6.8,30.1-1.8,37.6,11.4l-125,80.9c-16.8,7.7-35.6,9.9-53.6,6.1
		l-86.2-24.2c-7.9-2.2-16.4-1.3-23.7,2.6l-18,9.6l2.4-87.9h0.7c25.8-18.3,59.6-20.7,87.7-6.1l5.2,2.7c8.1,4.2,17,6.5,26.1,6.7
		l50.7,1.4C319.5,324.9,333.4,335.3,338.4,350.4z"/>
	<path class="st2" d="M410.7,159.3c7.7,11.2,7.7,26,0,37.2c-3.8,5.5-5.8,12-5.8,18.7c0,0.6,0,1.2,0.1,1.8v0.2
		c0.8,13.4-6.8,26-19.3,32.1l-0.1,0.1c-6.6,3.2-12.1,8.4-15.5,14.9l-0.1,0.1c-6.3,12-19.4,19.3-33.3,18.5h-0.2
		c-7.5-0.4-14.9,1.5-21.3,5.5c-11.8,7.5-26.9,7.5-38.7,0c-5.8-3.7-12.5-5.6-19.3-5.6c-0.7,0-1.3,0-2,0.1H255
		c-14,0.7-27-6.5-33.3-18.5l-0.1-0.1c-3.5-6.5-8.9-11.8-15.5-14.9l-0.1-0.1c-12.5-6.1-20-18.6-19.3-32.1V217
		c0.4-7.3-1.6-14.5-5.8-20.5c-7.7-11.2-7.7-26,0-37.2c3.8-5.5,5.8-12,5.8-18.7c0-0.6,0-1.2-0.1-1.8v-0.2
		c-0.7-13.6,6.9-26.3,19.3-32.1l0.1-0.1c6.6-3.2,12.1-8.4,15.5-15l0.1-0.1c6.3-12,19.4-19.3,33.3-18.5h0.2
		c7.5,0.4,14.9-1.5,21.3-5.5c11.8-7.5,26.9-7.5,38.7,0c6.4,4,13.8,5.9,21.3,5.5h0.2c14-0.7,27,6.5,33.3,18.5l0.1,0.1
		c3.5,6.5,8.9,11.8,15.5,15l0.1,0.1c12.3,5.8,19.9,18.5,19.3,32.1v0.2C404.5,146.1,406.5,153.3,410.7,159.3z M357.4,212.9
		c0-15.6-10.7-28.3-23.9-28.3c-13.2,0-23.9,12.7-23.9,28.3s10.7,28.3,23.9,28.3C346.7,241.2,357.4,228.5,357.4,212.9z M281.9,143
		c0-15.6-10.7-28.3-23.9-28.3c-13.2,0-23.9,12.7-23.9,28.3s10.7,28.3,23.9,28.3C271.2,171.3,281.9,158.6,281.9,143z"/>
	<path id="XMLID_15_" class="st0" d="M333.5,184.6c13.2,0,23.9,12.7,23.9,28.3s-10.7,28.3-23.9,28.3c-13.2,0-23.9-12.7-23.9-28.3
		S320.3,184.6,333.5,184.6z"/>
	<path id="XMLID_14_" class="st0" d="M257.9,114.7c13.2,0,23.9,12.7,23.9,28.3s-10.7,28.3-23.9,28.3c-13.2,0-23.9-12.7-23.9-28.3
		S244.7,114.7,257.9,114.7z"/>
	<path id="XMLID_13_" class="st3" d="M130.9,407.7l-0.3,9.9L75,416.1l3.4-122l55.6,1.5l-0.7,24.1L130.9,407.7z"/>
	<g>
		<path class="st4" d="M179.5,216.6v0.2v0.1c-0.9,16.2,8.2,31.5,23.2,38.8h0.1h0.1c5.3,2.5,9.6,6.7,12.3,11.9v0.1c0,0,0,0.1,0.1,0.1
			c7.6,14.4,23.2,23.1,39.8,22.3h0.2h0.1c6.1-0.3,12.1,1.2,17.2,4.5c14.1,8.9,32.1,8.9,46.2,0c5.1-3.2,11.1-4.8,17.2-4.5h0.1h0.2
			c16.7,0.9,32.3-7.9,39.8-22.3c0,0,0-0.1,0.1-0.1v-0.1c2.7-5.2,7-9.3,12.3-11.8l0.1-0.1h0.1c15-7.3,24.1-22.5,23.2-38.8v-0.1v-0.2
			c0-0.5,0-0.9,0-1.4c0-5.2,1.6-10.4,4.6-14.7c9.4-13.6,9.4-31.6,0-45.2c-3.2-4.7-4.8-10.4-4.5-16.1V139v-0.1
			c0.8-16.4-8.3-31.7-23.2-38.8c0,0-0.1,0-0.1-0.1h-0.1c-5.3-2.5-9.6-6.7-12.3-11.8l-0.1-0.2c-7.6-14.4-23.2-23.2-39.9-22.3h-0.1
			H336c-6,0.3-12-1.2-17.1-4.5c-14.1-8.9-32.1-8.9-46.2,0c-5.1,3.2-11.1,4.8-17.1,4.5h-0.2h-0.1c-16.7-0.9-32.3,7.9-39.9,22.3
			l-0.1,0.2c-2.7,5.2-7,9.3-12.3,11.8h-0.1c0,0-0.1,0-0.1,0.1c-14.9,7-24,22.3-23.2,38.8v0.1v0.2c0,0.5,0,0.9,0,1.4
			c0,5.2-1.6,10.4-4.6,14.7c-9.4,13.6-9.4,31.6,0,45.2C178.2,205.2,179.8,210.9,179.5,216.6z M186.5,163.3c4.6-6.7,7.1-14.6,7-22.6
			c0-0.7,0-1.5-0.1-2.2v-0.1v-0.2c-0.5-10.7,5.5-20.7,15.3-25.3h0.1h0.1c8-3.8,14.6-10.1,18.7-18c0,0,0-0.1,0.1-0.1v-0.1
			C233,85,243.4,79.3,254.4,80h0.2h0.1c9,0.5,17.8-1.8,25.4-6.6c9.5-6,21.7-6,31.2,0c7.6,4.8,16.5,7.1,25.4,6.6h0.1h0.2
			c11-0.7,21.4,5.1,26.7,14.7v0.1c0,0,0,0.1,0.1,0.1c4.1,7.8,10.7,14.1,18.7,18h0.1h0.1c9.7,4.6,15.7,14.5,15.3,25.3v0.2v0.1
			c-0.5,8.8,2,17.6,7,24.9c6.1,8.8,6.1,20.5,0,29.3c-4.6,6.7-7.1,14.6-7,22.6c0,0.7,0,1.5,0.1,2.2v0.1v0.2
			c0.5,10.7-5.6,20.7-15.3,25.3l-0.1,0.1c-8,3.8-14.6,10.1-18.7,18c0,0,0,0.1-0.1,0.1v0.1c-5,9.6-15.5,15.3-26.7,14.7h-0.1h-0.2
			c-8.9-0.5-17.8,1.8-25.3,6.6c-9.5,6-21.7,6-31.2,0c-6.9-4.4-14.9-6.7-23.1-6.7c-0.8,0-1.5,0-2.3,0.1h-0.2h-0.1
			c-11,0.7-21.4-5-26.7-14.7v-0.1c0,0,0-0.1-0.1-0.1c-4.2-7.9-10.7-14.2-18.8-18H209c-9.7-4.6-15.8-14.6-15.3-25.3v-0.2v-0.1
			c0.5-8.8-2-17.6-7-24.9C180.4,183.8,180.4,172.1,186.5,163.3z"/>
		<path id="XMLID_10_" class="st4" d="M250.5,250.4c3.3,2.1,7.6,1.1,9.7-2.2l83-133c1.4-2.1,1.5-4.8,0.3-7s-3.5-3.7-6-3.7
			c-2.5-0.1-4.9,1.2-6.2,3.4l-83,133C246.2,244,247.2,248.3,250.5,250.4z"/>
		<path class="st4" d="M257.9,178.3c17.1,0,31-15.8,31-35.3s-13.9-35.3-31-35.3s-31,15.8-31,35.3S240.9,178.3,257.9,178.3z
			 M257.9,121.7c9.3,0,16.9,9.5,16.9,21.3c0,11.7-7.6,21.3-16.9,21.3c-9.3,0-16.9-9.6-16.9-21.3S248.6,121.7,257.9,121.7z"/>
		<path class="st4" d="M302.5,212.9c0,19.5,13.9,35.3,31,35.3s31-15.8,31-35.3s-13.9-35.3-31-35.3
			C316.4,177.6,302.5,193.4,302.5,212.9z M350.4,212.9c0,11.7-7.6,21.3-16.9,21.3s-16.9-9.6-16.9-21.3s7.6-21.3,16.9-21.3
			C342.8,191.6,350.4,201.2,350.4,212.9z"/>
		<path class="st4" d="M443.6,329.3c-9.3-16.5-29.9-22.7-46.8-14.3l-54.9,26c-7.6-14.1-22.1-23-38.1-23.5l-50.7-1.4
			c-8-0.2-15.9-2.3-23-5.9l-5.2-2.7c-26.4-13.8-57.9-13.7-84.3,0.1l0.3-11.7c0.1-3.9-2.9-7.1-6.8-7.2l-55.6-1.5c-0.1,0-0.1,0-0.2,0
			c-3.8,0-6.9,3-7,6.8l-3.4,122c-0.1,3.9,2.9,7.1,6.8,7.2l55.6,1.5h0.2c3.8,0,6.9-3,7-6.8l0.2-5.8l14.4-7.7c5.7-3,12.3-3.8,18.5-2
			l86.2,24.2c0.2,0,0.3,0.1,0.5,0.1c6.2,1.3,12.6,2,19,2c13.5,0,26.8-2.9,39.1-8.5c0.3-0.1,0.6-0.3,0.9-0.5l125-80.9
			C444.4,336.6,445.4,332.5,443.6,329.3z M123.8,407.5l-0.1,2.9l-41.6-1.1l3-108l41.6,1.1L123.8,407.5z M309.1,407.5
			c-15.2,6.9-32.2,8.8-48.6,5.4l-86-24.1c-9.7-2.7-20-1.6-28.9,3.2l-7.4,3.9l2-71.8c23.4-15.6,53.4-17.2,78.3-4.2l5.2,2.7
			c9,4.7,19,7.2,29.1,7.5l50.7,1.4c12.9,0.4,24.3,8.8,28.3,21.1c0.4,1.1,0.7,2.2,0.9,3.4l-75.5-2.1c-3.9-0.1-7.1,2.9-7.2,6.8
			c-0.1,3.9,2.9,7.1,6.8,7.2l83.3,2.3h0.2c3.8,0,6.9-3,7-6.8c0.1-3-0.1-6.1-0.7-9.1l56.3-26.6l0.2-0.1c8-4,17.7-2.7,24.2,3.4
			L309.1,407.5z"/>
	</g>
</g>
</svg>
