<?xml version="1.0" encoding="utf-8"?>
<!-- Generator: Adobe Illustrator 19.0.0, SVG Export Plug-In . SVG Version: 6.00 Build 0)  -->
<svg version="1.1" id="Layer_1" xmlns="http://www.w3.org/2000/svg" xmlns:xlink="http://www.w3.org/1999/xlink" x="0px" y="0px"
	 viewBox="-99 1 512 512" style="enable-background:new -99 1 512 512;" xml:space="preserve">
<style type="text/css">
	.st0{fill:#FFFFFF;}
	.st1{fill:#232323;}
	.st2{fill:#94E000;}
	.st3{fill:#BCD313;}
</style>
<circle id="XMLID_15_" class="st0" cx="157.3" cy="257.7" r="254.3"/>
<g>
	<path id="XMLID_13_" class="st1" d="M141.1,440.8c-18.5,0-32.3-14.9-32.3-33.4c0-18.4,13.9-32.3,32.3-32.3s33.3,13.9,33.3,32.3
		C174.4,425.9,159.4,440.8,141.1,440.8"/>
	<path id="XMLID_12_" class="st1" d="M300.3,316.5c-2.1,8.6-2.8,23.7-8.2,30.6c-3.3,4.2-8.2,6.8-14.5,6.8H90.3
		c-12,0-21.8-9.7-21.8-21.8c0-7.8-22.5-119-30.9-160.7c-1.7-8.7-10.3-15.7-19.2-15.8l-17.8-0.2c-24,0-21.9-22.7-21.9-22.7
		c0.4-8,3.2-12.8,6.5-15.7c6.8-5.7,22.1-3.6,30.7-3.7h15.6c26.8,0,37.4,15.3,41.5,27.8c2.8,8.3,4.2,22.7,6.1,31.3l26.8,122.1
		c1.9,8.6,10.6,15.7,19.4,15.7h122.5c8.9,0,17.5-7,19.3-15.7l20.1-95.1c2.6-11.2,6.7-16.5,11-18.8c7.8-4.2,24.1,2,27.2,10.2
		c4.6,12.3-0.7,33.2-0.7,33.2S308.9,280,300.3,316.5z"/>
	<path id="XMLID_11_" class="st1" d="M250.4,440.8c-18.4,0-32.3-14.9-32.3-33.4c0-18.4,13.9-32.3,32.3-32.3
		c18.4,0,33.4,13.9,33.4,32.3C283.8,425.9,268.8,440.8,250.4,440.8"/>
	<path id="XMLID_10_" class="st2" d="M142.2,288.4c-6,0-10.9-4.9-10.9-10.9s4.9-10.9,10.9-10.9s10.9,4.9,10.9,10.9
		S148.3,288.4,142.2,288.4z"/>
	<path id="XMLID_9_" class="st2" d="M186,288.4c-6,0-10.9-4.9-10.9-10.9s4.9-10.9,10.9-10.9s10.9,4.9,10.9,10.9S192,288.4,186,288.4
		z"/>
	<path id="XMLID_8_" class="st2" d="M229.7,288.4c-6,0-10.9-4.9-10.9-10.9s4.9-10.9,10.9-10.9c6,0,10.9,4.9,10.9,10.9
		C240.7,283.4,235.8,288.4,229.7,288.4z"/>
	<path id="XMLID_7_" class="st2" d="M120.3,244.6c-6,0-10.9-4.9-10.9-10.9s4.9-10.9,10.9-10.9c6.1,0,10.9,4.9,10.9,10.9
		C131.3,239.7,126.4,244.6,120.3,244.6z"/>
	<path id="XMLID_6_" class="st2" d="M164.1,222.7c6,0,10.9,4.9,10.9,10.9s-4.9,10.9-10.9,10.9c-6,0-10.9-4.9-10.9-10.9
		C153.2,227.6,158.1,222.7,164.1,222.7z"/>
	<path id="XMLID_5_" class="st2" d="M207.9,222.7c6,0,10.9,4.9,10.9,10.9s-4.9,10.9-10.9,10.9s-10.9-4.9-10.9-10.9
		C196.9,227.6,201.8,222.7,207.9,222.7z"/>
	<path id="XMLID_4_" class="st2" d="M251.6,222.7c6,0,10.9,4.9,10.9,10.9s-4.9,10.9-10.9,10.9s-10.9-4.9-10.9-10.9
		C240.7,227.6,245.6,222.7,251.6,222.7z"/>
	<path id="XMLID_3_" class="st2" d="M229.7,200.9c-6,0-10.9-4.9-10.9-10.9c0-6,4.9-10.9,10.9-10.9c6,0,10.9,4.9,10.9,10.9
		C240.7,195.9,235.8,200.9,229.7,200.9z"/>
	<path id="XMLID_2_" class="st2" d="M186,200.9c-6,0-10.9-4.9-10.9-10.9c0-6,4.9-10.9,10.9-10.9s10.9,4.9,10.9,10.9
		C196.9,195.9,192,200.9,186,200.9z"/>
	<path id="XMLID_1_" class="st2" d="M142.2,200.9c-6,0-10.9-4.9-10.9-10.9c0-6,4.9-10.9,10.9-10.9s10.9,4.9,10.9,10.9
		C153.2,195.9,148.3,200.9,142.2,200.9z"/>
	<path id="XMLID_14_" class="st3" d="M141.4,421.6c-7.7,0-13.5-6.2-13.5-13.8s5.8-13.4,13.5-13.4c7.7,0,13.8,5.8,13.8,13.4
		S149,421.6,141.4,421.6"/>
	<path id="XMLID_16_" class="st3" d="M251.5,421.6c-7.7,0-13.5-6.2-13.5-13.8s5.8-13.4,13.5-13.4c7.7,0,13.8,5.8,13.8,13.4
		S259,421.6,251.5,421.6"/>
</g>
</svg>
