<?xml version="1.0" encoding="utf-8"?>
<!-- Generator: Adobe Illustrator 19.0.0, SVG Export Plug-In . SVG Version: 6.00 Build 0)  -->
<svg version="1.1" id="Layer_1" xmlns="http://www.w3.org/2000/svg" xmlns:xlink="http://www.w3.org/1999/xlink" x="0px" y="0px"
	 viewBox="0 0 512 512" style="enable-background:new 0 0 512 512;" xml:space="preserve">
<style type="text/css">
	.st0{fill:#FFFFFF;}
	.st1{fill:#1E1E1E;}
	.st2{fill:#DDC200;}
</style>
<circle id="XMLID_2_" class="st0" cx="256.8" cy="256.7" r="254.3"/>
<g>
	<g>
		<path class="st1" d="M327.3,221.5c-12.4,0-24.2,2.2-35.2,6.1V198h-93.9v23.5h-46.9v-46.9h23.5V80.7H80.9v93.9h46.9v187.7h70.4v47
			h62.8c18.2,14.7,41.2,23.4,66.3,23.5c58.3,0,105.6-47.3,105.6-105.6C432.8,268.7,385.6,221.5,327.3,221.5z M222.4,315.3h-24.2
			v23.5h-46.9V245h46.9v47h29.6C225.2,299.4,223.3,307.2,222.4,315.3z M327.3,407.8c-44.6-0.1-80.7-36.2-80.8-80.8
			c0.1-44.6,36.2-80.7,80.8-80.8c44.6,0.1,80.6,36.2,80.8,80.8C407.9,371.7,371.8,407.7,327.3,407.8z"/>
		<polygon id="XMLID_1_" class="st2" points="339,315.3 339,268.4 315.5,268.4 315.5,315.3 268.6,315.3 268.6,338.8 315.5,338.8 
			315.5,385.7 339,385.7 339,338.8 385.9,338.8 385.9,315.3 		"/>
	</g>
</g>
</svg>
