<?xml version="1.0" encoding="utf-8"?>
<!-- Generator: Adobe Illustrator 24.0.1, SVG Export Plug-In . SVG Version: 6.00 Build 0)  -->
<svg version="1.1" id="Layer_1" xmlns="http://www.w3.org/2000/svg" xmlns:xlink="http://www.w3.org/1999/xlink" x="0px" y="0px"
	 viewBox="0 0 50 50" style="enable-background:new 0 0 50 50;" xml:space="preserve">
<style type="text/css">
	.st0{fill:#CDE9F6;}
	.st1{fill:#7CB928;}
	.st2{fill:#020203;}
	.st3{fill:#F5B957;}
</style>
<path class="st0" d="M40.6,5.8H9.8c-2.1,0-3.9,1.7-3.9,3.9v30.8c0,2.1,1.7,3.9,3.9,3.9h30.8c2.1,0,3.9-1.7,3.9-3.9V9.6
	C44.5,7.5,42.7,5.8,40.6,5.8z"/>
<path class="st1" d="M44.5,40.4v-2.1l-7.7-11.1c-1-1.5-3.2-1.5-4.3,0l-4.2,6l0,0l-6.8-11.7c-1-1.7-3.5-1.7-4.5,0L5.9,40.6
	c0.1,2,1.8,3.7,3.9,3.7h30.8C42.7,44.3,44.5,42.6,44.5,40.4z"/>
<path class="st2" d="M15.5,11.4c-0.3,0-0.5-0.1-0.7-0.3c-0.2-0.2-0.3-0.4-0.3-0.7c0-0.3,0.1-0.5,0.3-0.7c0.2-0.2,0.4-0.3,0.7-0.3
	s0.5,0.1,0.7,0.3c0.2,0.2,0.3,0.4,0.3,0.7c0,0.3-0.1,0.5-0.3,0.7C16,11.3,15.7,11.4,15.5,11.4z"/>
<circle class="st3" cx="32.5" cy="15.9" r="3.6"/>
<path class="st2" d="M1.3,13.2c0.5,0,1-0.4,1-1V2.1h10.2c0.5,0,1-0.4,1-1s-0.4-1-1-1H1.3c-0.5,0-1,0.4-1,1v11.2
	C0.3,12.8,0.7,13.2,1.3,13.2z"/>
<path class="st2" d="M49.1,0.1H38c-0.5,0-1,0.4-1,1s0.4,1,1,1h10.2v10.2c0,0.5,0.4,1,1,1c0.5,0,1-0.4,1-1V1.1
	C50.1,0.6,49.7,0.1,49.1,0.1z"/>
<path class="st2" d="M49.1,36.8c-0.5,0-1,0.4-1,1V48H38c-0.5,0-1,0.4-1,1c0,0.5,0.4,1,1,1h11.2c0.5,0,1-0.4,1-1V37.8
	C50.1,37.3,49.7,36.8,49.1,36.8z"/>
<path class="st2" d="M12.4,48H2.2V37.8c0-0.5-0.4-1-1-1s-1,0.4-1,1V49c0,0.5,0.4,1,1,1h11.2c0.5,0,1-0.4,1-1
	C13.4,48.4,13,48,12.4,48z"/>
<path class="st2" d="M40.6,4.8H9.8C7.1,4.8,5,7,5,9.6v30.8c0,0,0,0.1,0,0.1c0,0.1,0,0.2,0,0.3c0.2,2.5,2.3,4.4,4.8,4.4h10.6
	c0.5,0,1-0.4,1-1c0-0.5-0.4-1-1-1H9.8c-1.5,0-2.7-1.1-2.9-2.5L17.8,22c0.3-0.5,0.8-0.8,1.4-0.8c0.6,0,1.1,0.3,1.4,0.8l9.2,16
	c0.3,0.5,0.9,0.6,1.3,0.4c0.5-0.3,0.6-0.9,0.4-1.3l-2.2-3.7l3.8-5.5c0.3-0.4,0.8-0.7,1.3-0.7c0.5,0,1,0.3,1.3,0.7l7.6,10.8v1.8
	c0,1.6-1.3,2.9-2.9,2.9H29.7c-0.5,0-1,0.4-1,1c0,0.5,0.4,1,1,1h10.9c2.7,0,4.8-2.2,4.8-4.8V9.6C45.4,7,43.3,4.8,40.6,4.8z
	 M43.5,35.2l-6-8.6c-0.7-1-1.8-1.5-2.9-1.5c-1.2,0-2.3,0.6-2.9,1.5l-3.3,4.8l-6-10.4c-0.6-1.1-1.8-1.8-3.1-1.8s-2.4,0.7-3.1,1.8
	L6.9,37V11.4h4.5c0.5,0,1-0.4,1-1c0-0.5-0.4-1-1-1H6.9C7,7.9,8.3,6.7,9.8,6.7h30.8c1.6,0,2.9,1.3,2.9,2.9V35.2z"/>
<path class="st2" d="M32.5,11.3c-2.5,0-4.6,2.1-4.6,4.6s2.1,4.6,4.6,4.6s4.6-2.1,4.6-4.6S35.1,11.3,32.5,11.3z M32.5,18.5
	c-1.5,0-2.7-1.2-2.7-2.7c0-1.5,1.2-2.7,2.7-2.7s2.7,1.2,2.7,2.7C35.2,17.4,34,18.5,32.5,18.5z"/>
<path class="st2" d="M25.2,43.3c-0.3,0-0.5,0.1-0.7,0.3c-0.2,0.2-0.3,0.4-0.3,0.7c0,0.3,0.1,0.5,0.3,0.7c0.2,0.2,0.4,0.3,0.7,0.3
	c0.3,0,0.5-0.1,0.7-0.3c0.2-0.2,0.3-0.4,0.3-0.7c0-0.3-0.1-0.5-0.3-0.7C25.7,43.4,25.5,43.3,25.2,43.3z"/>
</svg>
