<?xml version="1.0" encoding="utf-8"?>
<!-- Generator: Adobe Illustrator 24.0.1, SVG Export Plug-In . SVG Version: 6.00 Build 0)  -->
<svg version="1.1" id="Layer_1" xmlns="http://www.w3.org/2000/svg" xmlns:xlink="http://www.w3.org/1999/xlink" x="0px" y="0px"
	 viewBox="0 0 20 20" style="enable-background:new 0 0 20 20;" xml:space="preserve">
<style type="text/css">
	.st0{fill:#020203;}
</style>
<path class="st0" d="M19.7,10c0-5.4-4.4-9.7-9.7-9.7S0.3,4.6,0.3,10c0,2.8,1.2,5.4,3.2,7.2l0,0l0.3,0.3c0,0,0,0,0.1,0
	c0.2,0.1,0.3,0.3,0.5,0.4c0.1,0,0.1,0.1,0.2,0.1c0.2,0.1,0.4,0.3,0.6,0.4c0,0,0.1,0.1,0.1,0.1c0.2,0.1,0.4,0.2,0.7,0.3
	c0,0,0,0,0.1,0c0.7,0.3,1.5,0.6,2.3,0.7c0,0,0,0,0.1,0c0.3,0,0.5,0.1,0.8,0.1c0,0,0.1,0,0.1,0c0.3,0,0.5,0,0.8,0c0.3,0,0.5,0,0.8,0
	c0,0,0.1,0,0.1,0c0.3,0,0.5-0.1,0.8-0.1c0,0,0,0,0.1,0c0.8-0.1,1.6-0.4,2.3-0.7c0,0,0.1,0,0.1,0c0.2-0.1,0.4-0.2,0.6-0.3
	c0.1,0,0.1-0.1,0.2-0.1c0.2-0.1,0.4-0.2,0.6-0.4c0.1,0,0.1-0.1,0.2-0.1c0.2-0.1,0.3-0.2,0.5-0.3c0,0,0.1,0,0.1-0.1l0.3-0.3l0,0
	C18.5,15.4,19.7,12.8,19.7,10z M1,10c0-5,4-9,9-9s9,4,9,9c0,2.7-1.2,5.1-3,6.7c-0.1-0.1-0.2-0.1-0.3-0.2l-3-1.5
	c-0.3-0.1-0.4-0.4-0.4-0.7v-1c0.1-0.1,0.1-0.2,0.2-0.3c0.4-0.5,0.7-1.2,0.9-1.8c0.4-0.2,0.7-0.7,0.7-1.2V8.8c0-0.3-0.1-0.6-0.3-0.8
	V6.3c0-0.2,0.1-1.2-0.7-2.1c-0.7-0.7-1.7-1.1-3.1-1.1S7.5,3.5,6.9,4.2C6.1,5.1,6.2,6.1,6.2,6.3V8C6,8.2,5.9,8.5,5.9,8.8V10
	c0,0.4,0.2,0.8,0.5,1c0.3,1.1,0.9,2,1.1,2.3v1c0,0.3-0.2,0.6-0.4,0.7l-2.8,1.5c-0.1,0-0.2,0.1-0.3,0.2C2.2,15,1,12.7,1,10z
	 M15.3,17.3c-0.1,0.1-0.2,0.2-0.4,0.3c-0.1,0-0.1,0.1-0.2,0.1c-0.2,0.1-0.3,0.2-0.5,0.3c0,0-0.1,0-0.1,0.1c-0.4,0.2-0.8,0.4-1.2,0.5
	c0,0,0,0,0,0c-0.2,0.1-0.4,0.1-0.7,0.2c0,0,0,0,0,0c-0.2,0.1-0.5,0.1-0.7,0.1c0,0,0,0,0,0c-0.2,0-0.4,0.1-0.7,0.1c0,0-0.1,0-0.1,0
	c-0.2,0-0.4,0-0.7,0c-0.2,0-0.4,0-0.7,0c0,0-0.1,0-0.1,0c-0.2,0-0.4,0-0.7-0.1c0,0,0,0,0,0c-0.5-0.1-0.9-0.2-1.4-0.3c0,0,0,0,0,0
	c-0.2-0.1-0.4-0.2-0.7-0.3c0,0,0,0,0,0C6.2,18.2,6,18.1,5.8,18c0,0-0.1,0-0.1,0c-0.2-0.1-0.4-0.2-0.5-0.3c-0.1,0-0.1-0.1-0.2-0.1
	c-0.2-0.1-0.3-0.2-0.5-0.3c0,0,0,0,0,0c0,0,0,0,0,0l2.8-1.5c0.5-0.3,0.8-0.8,0.8-1.3l0-1.3l-0.1-0.1c0,0-0.8-0.9-1.1-2.2l0-0.1
	l-0.1-0.1c-0.2-0.1-0.3-0.3-0.3-0.5V8.8c0-0.2,0.1-0.3,0.2-0.4l0.1-0.1v-2l0,0c0,0-0.1-0.9,0.5-1.5C7.9,4.1,8.8,3.8,10,3.8
	c1.2,0,2.1,0.3,2.6,0.9c0.6,0.7,0.5,1.5,0.5,1.5l0,2l0.1,0.1c0.1,0.1,0.2,0.3,0.2,0.4V10c0,0.3-0.2,0.5-0.4,0.6l-0.2,0.1l-0.1,0.2
	c-0.2,0.6-0.5,1.2-0.9,1.8c-0.1,0.1-0.2,0.2-0.3,0.3L11.5,13v1.3c0,0.6,0.3,1.1,0.8,1.3l3,1.5c0,0,0,0,0.1,0
	C15.4,17.2,15.3,17.3,15.3,17.3z"/>
</svg>
