<?xml version="1.0" encoding="utf-8"?>
<!-- Generator: Adobe Illustrator 24.0.1, SVG Export Plug-In . SVG Version: 6.00 Build 0)  -->
<svg version="1.1" id="Layer_1" xmlns="http://www.w3.org/2000/svg" xmlns:xlink="http://www.w3.org/1999/xlink" x="0px" y="0px"
	 viewBox="0 0 50 50" style="enable-background:new 0 0 50 50;" xml:space="preserve">
<style type="text/css">
	.st0{fill:#FFFFFF;}
	.st1{fill:#010202;}
</style>
<circle class="st0" cx="25" cy="25" r="25"/>
<g>
	<path class="st1" d="M23.9,15c0-0.9-0.8-1.3-0.8-1.3c0.5-0.4,0.6-0.7,0.6-0.7c0.7-0.7-0.2-2-0.2-2c-0.7-1.4-3.1-0.3-3.1-0.3
		c-0.6,0.2-1.1,0.1-1.1,0.1c-0.4-0.6,0.2-1.9,0.2-1.9c0.5-0.9,0.8-1.8,0.8-1.8C21,3.8,19.5,3,19.5,3c-1.3-0.5-1.5,0.5-1.5,0.5
		c-0.1,0.3,0,1.5,0,1.5c-0.5,1.3-2,3-2,3c-1,0.7-2.4,2.7-2.4,2.7c-0.6,0.4-1.7,2.1-1.7,2.1c-1.3,1.9-3.3,1.8-3.3,1.8v7.2
		C8.8,22.3,9.1,22,9.1,22c2.1-0.7,6.1,0.1,6.1,0.1c2.5,0.8,5.6,0,5.6,0c2-0.4,2-1.2,2-1.2c0.3-0.8-0.1-1.5-0.1-1.5
		c0.6-0.5,0.7-1.1,0.7-1.1c0.3-0.8-0.3-1.4-0.3-1.4C24.1,16.2,23.9,15,23.9,15z"/>
	<path class="st1" d="M6.8,13.6h-3c-0.7,0-1.3,0.6-1.3,1.3v6.8c0,0.7,0.6,1.3,1.3,1.3h3c0.7,0,1.3-0.6,1.3-1.3v-6.8
		C8.2,14.2,7.6,13.6,6.8,13.6z M4.1,22.1c-0.4,0-0.8-0.3-0.8-0.8c0-0.4,0.3-0.8,0.8-0.8c0.4,0,0.8,0.3,0.8,0.8
		C4.8,21.8,4.5,22.1,4.1,22.1z"/>
</g>
<g>
	<path class="st1" d="M25.3,35c0,0.9,0.8,1.3,0.8,1.3c-0.5,0.4-0.6,0.7-0.6,0.7c-0.7,0.7,0.2,2,0.2,2c0.7,1.4,3.1,0.3,3.1,0.3
		c0.6-0.2,1.1-0.1,1.1-0.1c0.4,0.6-0.2,1.9-0.2,1.9c-0.5,0.9-0.8,1.8-0.8,1.8c-0.8,3.4,0.7,4.2,0.7,4.2c1.3,0.5,1.5-0.5,1.5-0.5
		c0.1-0.3,0-1.5,0-1.5c0.5-1.3,2-3,2-3c1-0.7,2.4-2.7,2.4-2.7c0.6-0.4,1.7-2.1,1.7-2.1c1.3-1.9,3.3-1.8,3.3-1.8v-7.2
		c-0.1-0.4-0.5-0.2-0.5-0.2C38,28.7,34,27.9,34,27.9c-2.5-0.8-5.6,0-5.6,0c-2,0.4-2,1.2-2,1.2c-0.3,0.8,0.1,1.5,0.1,1.5
		c-0.6,0.5-0.7,1.1-0.7,1.1c-0.3,0.8,0.3,1.4,0.3,1.4C25.2,33.7,25.3,35,25.3,35z"/>
	<path class="st1" d="M42.4,36.4h3c0.7,0,1.3-0.6,1.3-1.3v-6.8c0-0.7-0.6-1.3-1.3-1.3h-3c-0.7,0-1.3,0.6-1.3,1.3v6.8
		C41.1,35.8,41.7,36.4,42.4,36.4z M45.2,27.8c0.4,0,0.8,0.3,0.8,0.8c0,0.4-0.3,0.8-0.8,0.8c-0.4,0-0.8-0.3-0.8-0.8
		C44.4,28.2,44.7,27.8,45.2,27.8z"/>
</g>
<g>
	<path class="st1" d="M36.3,6c-5.5,0-9.9,4.4-9.9,9.9c0,5.5,4.4,9.9,9.9,9.9c5.5,0,9.9-4.4,9.9-9.9C46.2,10.4,41.7,6,36.3,6z
		 M36.3,24.7c-4.9,0-8.8-3.9-8.8-8.8c0-4.9,3.9-8.8,8.8-8.8c4.9,0,8.8,3.9,8.8,8.8C45.1,20.7,41.1,24.7,36.3,24.7z"/>
	<path class="st1" d="M35.2,13.4c-0.1,0.1-0.2,0.2-0.2,0.3c0,0.1-0.1,0.2-0.1,0.3c0,0.1,0,0.3,0.1,0.4c0,0.1,0.1,0.2,0.2,0.3
		c0.1,0.1,0.2,0.2,0.3,0.2c0.1,0.1,0.2,0.1,0.4,0.2l0.2-2c-0.2,0-0.4,0.1-0.5,0.1C35.4,13.2,35.3,13.3,35.2,13.4z"/>
	<path class="st1" d="M37.2,16.9c-0.1-0.1-0.2-0.1-0.3-0.2c-0.1-0.1-0.2-0.1-0.4-0.2l-0.2,2.2c0.4,0,0.7-0.2,0.9-0.4
		c0.2-0.2,0.3-0.5,0.3-0.8c0-0.1,0-0.3-0.1-0.4C37.4,17.1,37.3,17,37.2,16.9z"/>
	<path class="st1" d="M36.3,8.2c-4.3,0-7.7,3.4-7.7,7.7s3.4,7.7,7.7,7.7s7.7-3.4,7.7-7.7S40.5,8.2,36.3,8.2z M38.6,18.3
		c-0.1,0.3-0.3,0.6-0.5,0.8c-0.2,0.2-0.5,0.4-0.8,0.5c-0.3,0.1-0.7,0.2-1.1,0.3l-0.1,0.8c0,0.1,0,0.2-0.1,0.2C36,21,35.9,21,35.8,21
		h-0.5l0.1-1.2c-0.4-0.1-0.8-0.2-1.2-0.3c-0.4-0.2-0.7-0.4-0.9-0.6l0.4-0.6c0-0.1,0.1-0.1,0.1-0.1c0.1,0,0.1-0.1,0.2-0.1
		c0.1,0,0.2,0,0.3,0.1c0.1,0.1,0.2,0.1,0.3,0.2s0.2,0.1,0.4,0.2c0.1,0.1,0.3,0.1,0.5,0.2l0.2-2.4c-0.3-0.1-0.5-0.2-0.8-0.3
		c-0.2-0.1-0.5-0.2-0.7-0.4c-0.2-0.2-0.4-0.4-0.5-0.6c-0.1-0.2-0.2-0.5-0.2-0.9c0-0.3,0.1-0.5,0.2-0.8s0.3-0.5,0.5-0.7
		c0.2-0.2,0.5-0.4,0.8-0.5s0.7-0.2,1.1-0.2l0.1-0.7c0-0.1,0-0.2,0.1-0.2c0.1-0.1,0.1-0.1,0.3-0.1H37L36.9,12c0.4,0.1,0.7,0.2,1,0.3
		c0.3,0.2,0.5,0.3,0.7,0.5l-0.3,0.5c0,0.1-0.1,0.1-0.1,0.2c-0.1,0-0.1,0.1-0.2,0.1c-0.1,0-0.1,0-0.2-0.1s-0.2-0.1-0.3-0.1
		c-0.1,0-0.2-0.1-0.3-0.1c-0.1,0-0.2-0.1-0.4-0.1l-0.2,2.2c0.3,0.1,0.5,0.2,0.8,0.3c0.3,0.1,0.5,0.2,0.7,0.4
		c0.2,0.2,0.4,0.3,0.5,0.6c0.1,0.2,0.2,0.5,0.2,0.8C38.8,17.7,38.7,18,38.6,18.3z"/>
</g>
<g>
	<path class="st1" d="M14.2,24.7c-5.5,0-9.9,4.4-9.9,9.9c0,5.5,4.4,9.9,9.9,9.9c5.5,0,9.9-4.4,9.9-9.9
		C24.1,29.1,19.7,24.7,14.2,24.7z M14.2,43.4c-4.9,0-8.8-3.9-8.8-8.8c0-4.9,3.9-8.8,8.8-8.8c4.9,0,8.8,3.9,8.8,8.8
		C23,39.5,19.1,43.4,14.2,43.4z"/>
	<path class="st1" d="M13.1,32.1c-0.1,0.1-0.2,0.2-0.2,0.3c0,0.1-0.1,0.2-0.1,0.3c0,0.1,0,0.3,0.1,0.4c0,0.1,0.1,0.2,0.2,0.3
		c0.1,0.1,0.2,0.2,0.3,0.2c0.1,0.1,0.2,0.1,0.4,0.2l0.2-2c-0.2,0-0.4,0.1-0.5,0.1C13.3,31.9,13.2,32,13.1,32.1z"/>
	<path class="st1" d="M15.2,35.6c-0.1-0.1-0.2-0.1-0.3-0.2c-0.1-0.1-0.2-0.1-0.4-0.2l-0.2,2.2c0.4,0,0.7-0.2,0.9-0.4
		c0.2-0.2,0.3-0.5,0.3-0.8c0-0.1,0-0.3-0.1-0.4C15.4,35.8,15.3,35.7,15.2,35.6z"/>
	<path class="st1" d="M14.2,26.9c-4.3,0-7.7,3.4-7.7,7.7s3.4,7.7,7.7,7.7s7.7-3.4,7.7-7.7S18.5,26.9,14.2,26.9z M16.6,37
		c-0.1,0.3-0.3,0.6-0.5,0.8s-0.5,0.4-0.8,0.5c-0.3,0.1-0.7,0.2-1.1,0.3l-0.1,0.8c0,0.1,0,0.2-0.1,0.2c-0.1,0.1-0.1,0.1-0.2,0.1h-0.5
		l0.1-1.2c-0.4-0.1-0.8-0.2-1.2-0.3c-0.4-0.2-0.7-0.4-0.9-0.6l0.4-0.6c0-0.1,0.1-0.1,0.1-0.1c0.1,0,0.1-0.1,0.2-0.1
		c0.1,0,0.2,0,0.3,0.1c0.1,0.1,0.2,0.1,0.3,0.2c0.1,0.1,0.2,0.1,0.4,0.2c0.1,0.1,0.3,0.1,0.5,0.2l0.2-2.4c-0.3-0.1-0.5-0.2-0.8-0.3
		c-0.2-0.1-0.5-0.2-0.7-0.4c-0.2-0.2-0.4-0.4-0.5-0.6c-0.1-0.2-0.2-0.5-0.2-0.9c0-0.3,0.1-0.5,0.2-0.8c0.1-0.3,0.3-0.5,0.5-0.7
		c0.2-0.2,0.5-0.4,0.8-0.5c0.3-0.1,0.7-0.2,1.1-0.2l0.1-0.7c0-0.1,0-0.2,0.1-0.2c0.1-0.1,0.1-0.1,0.3-0.1H15l-0.1,1.1
		c0.4,0.1,0.7,0.2,1,0.3c0.3,0.2,0.5,0.3,0.7,0.5L16.3,32c0,0.1-0.1,0.1-0.1,0.2c-0.1,0-0.1,0.1-0.2,0.1c-0.1,0-0.1,0-0.2-0.1
		c-0.1,0-0.2-0.1-0.3-0.1c-0.1,0-0.2-0.1-0.3-0.1c-0.1,0-0.2-0.1-0.4-0.1L14.6,34c0.3,0.1,0.5,0.2,0.8,0.3c0.3,0.1,0.5,0.2,0.7,0.4
		c0.2,0.2,0.4,0.3,0.5,0.6c0.1,0.2,0.2,0.5,0.2,0.8C16.7,36.4,16.7,36.7,16.6,37z"/>
</g>
</svg>
