<?xml version="1.0" encoding="utf-8"?>
<!-- Generator: Adobe Illustrator 19.0.0, SVG Export Plug-In . SVG Version: 6.00 Build 0)  -->
<svg version="1.1" id="Capa_1" xmlns="http://www.w3.org/2000/svg" xmlns:xlink="http://www.w3.org/1999/xlink" x="0px" y="0px"
	 viewBox="0 0 512 512" style="enable-background:new 0 0 512 512;" xml:space="preserve">
<style type="text/css">
	.st0{fill:#FFFFFF;}
	.st1{fill:#E0CB0A;}
	.st2{fill:#BCA500;}
	.st3{fill:#353535;}
	.st4{fill:#0C0C0C;}
	.st5{fill:#1C1C1C;}
	.st6{fill:#2B2B2B;}
</style>
<circle id="XMLID_1_" class="st0" cx="256.7" cy="256.7" r="254.3"/>
<path class="st1" d="M385.6,420.4c-11.3,12.2-27.2,19.1-43.9,19.1H170.3c-16.6,0-32.5-7-43.9-19.1c-11.3-12.2-17-28.7-15.8-45.2
	L127,168.6c1-13.3,12.3-23.7,25.6-23.7h206.7c13.3,0,24.6,10.4,25.6,23.7l16.4,206.5C402.6,391.7,396.9,408.2,385.6,420.4z"/>
<path class="st2" d="M385.6,420.4c-11.3,12.2-27.2,19.1-43.9,19.1H256V144.9h103.3c13.3,0,24.6,10.4,25.6,23.7l16.4,206.5
	C402.6,391.7,396.9,408.2,385.6,420.4z"/>
<path class="st3" d="M327,143.5v49.5c0,5.9-4.8,10.8-10.8,10.8c-5.9,0-10.8-4.8-10.8-10.8v-49.5c0-27.2-22.2-49.5-49.5-49.5
	s-49.5,22.2-49.5,49.5v49.5c0,5.9-4.8,10.8-10.8,10.8c-5.9,0-10.8-4.8-10.8-10.8v-49.5c0-39.1,31.8-71,71-71S327,104.3,327,143.5z"
	/>
<path class="st4" d="M256,222.5c-34.1,0-61.9,27.8-61.9,61.9c0,32.8,29.6,58.9,45.5,72.9c2.1,1.8,3.8,3.4,5.2,4.7
	c3.2,2.9,7.2,4.4,11.2,4.4s8-1.4,11.2-4.4c1.4-1.3,3.2-2.9,5.2-4.7c15.9-14,45.5-40.1,45.5-72.9C317.9,250.3,290.1,222.5,256,222.5z
	 M256,309.8c-14.5,0-26.3-11.8-26.3-26.3c0-14.5,11.8-26.3,26.3-26.3s26.3,11.8,26.3,26.3C282.3,297.9,270.5,309.8,256,309.8z"/>
<path class="st5" d="M317.9,284.5c0,32.8-29.6,58.9-45.5,72.9c-2.1,1.8-3.8,3.4-5.2,4.7c-3.2,2.9-7.2,4.4-11.2,4.4v-56.6
	c14.5,0,26.3-11.8,26.3-26.3c0-14.5-11.8-26.3-26.3-26.3v-34.7C290.1,222.5,317.9,250.3,317.9,284.5z"/>
<path class="st6" d="M327,143.5v49.5c0,5.9-4.8,10.8-10.8,10.8c-5.9,0-10.8-4.8-10.8-10.8v-49.5c0-27.2-22.2-49.5-49.5-49.5V72.5
	C295.1,72.5,327,104.3,327,143.5z"/>
</svg>
