<?xml version="1.0" encoding="utf-8"?>
<!-- Generator: Adobe Illustrator 19.0.0, SVG Export Plug-In . SVG Version: 6.00 Build 0)  -->
<svg version="1.1" id="Layer_1" xmlns="http://www.w3.org/2000/svg" xmlns:xlink="http://www.w3.org/1999/xlink" x="0px" y="0px"
	 viewBox="0 0 512 512" style="enable-background:new 0 0 512 512;" xml:space="preserve">
<style type="text/css">
	.st0{fill:#FFFFFF;}
	.st1{fill:#F3FF00;}
	.st2{fill:#B7A900;}
	.st3{fill:#C0D7FF;}
	.st4{fill:#2D2D2D;}
	.st5{fill:#161616;}
</style>
<circle id="XMLID_1_" class="st0" cx="256.7" cy="256.7" r="254.3"/>
<g>
	<path class="st1" d="M341.3,97.4c-14.2,0-14.2-22-28.4-22c-14.2,0-14.2,22-28.4,22s-14.2-22-28.4-22c-14.2,0-14.2,22-28.4,22
		c-14.2,0-14.2-22-28.4-22c-14.2,0-14.2,22-28.4,22s-14.2-22-28.4-22v364.2c14.2,0,14.2-22,28.4-22s14.2,22,28.4,22s14.2-22,28.4-22
		s14.2,22,28.4,22c14.2,0,14.2-22,28.4-22s14.2,22,28.4,22c14.2,0,14.2-22,28.4-22c14.2,0,14.2,22,28.4,22V75.4
		C355.5,75.4,355.5,97.4,341.3,97.4z"/>
	<path class="st2" d="M341.3,97.4c-5.7,0-9.2-3.6-12.2-7.8v336c3-4.3,6.4-7.8,12.2-7.8c14.2,0,14.2,22,28.4,22V75.5
		C355.5,75.4,355.5,97.4,341.3,97.4z"/>
	<g>
		<path class="st3" d="M164.4,217.6h102v22.9h-102V217.6z"/>
		<path class="st3" d="M276.7,359.8h70.9v22.9h-70.9V359.8z"/>
		<path class="st3" d="M164.4,132.3h183.2v22.9H164.4V132.3L164.4,132.3z"/>
	</g>
	<path class="st4" d="M271.9,240.5v-22.9c0-3-2.5-5.5-5.5-5.5h-102c-3,0-5.5,2.5-5.5,5.5v22.9c0,3,2.5,5.5,5.5,5.5h102
		C269.5,246,271.9,243.6,271.9,240.5z M260.9,235h-91v-11.9h91V235z"/>
	<path class="st4" d="M207,388.2h70.9c3,0,5.5-2.5,5.5-5.5v-22.9c0-3-2.5-5.5-5.5-5.5H207c-3,0-5.5,2.5-5.5,5.5v22.9
		C201.5,385.7,204,388.2,207,388.2z M212.5,365.3h59.9v11.9h-59.9L212.5,365.3L212.5,365.3z"/>
	<path class="st5" d="M347.6,178.9H164.4c-3,0-5.5,2.5-5.5,5.5s2.5,5.5,5.5,5.5h183.2c3,0,5.5-2.5,5.5-5.5S350.6,178.9,347.6,178.9z
		"/>
	<path class="st5" d="M230.9,270.1c0-3-2.5-5.5-5.5-5.5h-61c-3,0-5.5,2.5-5.5,5.5c0,3,2.5,5.5,5.5,5.5h61
		C228.4,275.6,230.9,273.1,230.9,270.1z"/>
	<path class="st5" d="M219.1,292.3h-51c-3,0-5.5,2.5-5.5,5.5s2.5,5.5,5.5,5.5h51c3,0,5.5-2.5,5.5-5.5S222.1,292.3,219.1,292.3z"/>
	<path class="st5" d="M219.1,320.1h-51c-3,0-5.5,2.5-5.5,5.5s2.5,5.5,5.5,5.5h51c3,0,5.5-2.5,5.5-5.5
		C224.6,322.5,222.1,320.1,219.1,320.1z"/>
	<path class="st5" d="M277.9,320.1h-25.5c-3,0-5.5,2.5-5.5,5.5s2.5,5.5,5.5,5.5h25.5c3,0,5.5-2.5,5.5-5.5
		C283.4,322.5,281,320.1,277.9,320.1z"/>
	<path class="st5" d="M277.9,292.3h-25.5c-3,0-5.5,2.5-5.5,5.5s2.5,5.5,5.5,5.5h25.5c3,0,5.5-2.5,5.5-5.5S281,292.3,277.9,292.3z"/>
	<path class="st5" d="M347.6,264.6h-25.5c-3,0-5.5,2.5-5.5,5.5c0,3,2.5,5.5,5.5,5.5h25.5c3,0,5.5-2.5,5.5-5.5
		S350.6,264.6,347.6,264.6z"/>
	<path d="M369.7,199.2c3,0,5.5-2.5,5.5-5.5V75.4c0-3-2.5-5.5-5.5-5.5c-17.4,0-18.9,22-28.4,22c-9.5,0-11-22-28.4-22
		c-17.4,0-18.9,22-28.4,22c-9.6,0-11-22-28.4-22c-17.4,0-18.9,22-28.4,22c-9.5,0-11-22-28.4-22s-18.9,22-28.4,22
		c-9.6,0-11-22-28.4-22c-3,0-5.5,2.5-5.5,5.5v364.2c0,3,2.5,5.5,5.5,5.5c17.4,0,18.9-22,28.4-22c9.6,0,11,22,28.4,22
		s18.9-22,28.4-22c9.6,0,11,22,28.4,22s18.9-22,28.4-22c9.6,0,11,22,28.4,22s18.9-22,28.4-22s11,22,28.4,22c3,0,5.5-2.5,5.5-5.5
		V214.2c0-3-2.5-5.5-5.5-5.5c-3,0-5.5,2.5-5.5,5.5v217.1c-5.5-6.1-9.5-19.2-22.9-19.2c-17.4,0-18.9,22-28.4,22c-9.5,0-11-22-28.4-22
		c-17.4,0-18.9,22-28.4,22c-9.6,0-11-22-28.4-22s-18.9,22-28.4,22c-9.6,0-11-22-28.4-22c-13.5,0-17.4,13.1-22.9,19.2V83.7
		c5.5,6.1,9.5,19.2,22.9,19.2c17.4,0,18.9-22,28.4-22c9.6,0,11,22,28.4,22s18.9-22,28.4-22c9.6,0,11,22,28.4,22
		c17.4,0,18.9-22,28.4-22c9.5,0,11,22,28.4,22c13.5,0,17.4-13.1,22.9-19.2v110C364.2,196.8,366.7,199.2,369.7,199.2z"/>
	<path class="st4" d="M353.1,132.3c0-3-2.5-5.5-5.5-5.5H215.4c-3,0-5.5,2.5-5.5,5.5s2.5,5.5,5.5,5.5h126.7v11.9H169.9v-11.9h25
		c3,0,5.5-2.5,5.5-5.5s-2.5-5.5-5.5-5.5h-30.5c-3,0-5.5,2.5-5.5,5.5v22.9c0,3,2.5,5.5,5.5,5.5h183.2c3,0,5.5-2.5,5.5-5.5V132.3z"/>
</g>
</svg>
