<?xml version="1.0" encoding="utf-8"?>
<!-- Generator: Adobe Illustrator 19.0.0, SVG Export Plug-In . SVG Version: 6.00 Build 0)  -->
<svg version="1.1" id="Layer_1" xmlns="http://www.w3.org/2000/svg" xmlns:xlink="http://www.w3.org/1999/xlink" x="0px" y="0px"
	 viewBox="0 0 500 500" style="enable-background:new 0 0 500 500;" xml:space="preserve">
<style type="text/css">
	.st0{fill:#FFFFFF;}
	.st1{fill:#ECE70D;}
	.st2{fill:#010101;}
</style>
<circle id="XMLID_9_" class="st0" cx="250" cy="251.2" r="243"/>
<g id="XMLID_10_">
	<polygon id="XMLID_13_" class="st1" points="119,347 119,162 184.9,162 184.9,96.6 308.9,96.6 308.9,347 	"/>
	<path id="XMLID_11_" class="st2" d="M101.4,148.2v215.4h222.9V79H170.6L101.4,148.2z M167.8,145.4h-50.2l50.2-50.2V145.4z
		 M110.9,354V154.9h66.4V88.5h137.5V354H110.9z"/>
</g>
<polygon id="XMLID_15_" class="st2" points="172,210 238.5,210 238.5,146 "/>
<g id="XMLID_4_">
	<path id="XMLID_5_" class="st2" d="M167.8,205.6V421h222.9V136.5H237L167.8,205.6z M234.2,202.9H184l50.2-50.2V202.9z M177.3,411.5
		V212.4h66.4V146h137.5v265.6H177.3z"/>
</g>
<polygon id="XMLID_12_" class="st1" points="184,403 184,218 250,218 250,152.7 374,152.7 374,403 "/>
</svg>
