<?xml version="1.0" encoding="utf-8"?>
<!-- Generator: Adobe Illustrator 19.0.0, SVG Export Plug-In . SVG Version: 6.00 Build 0)  -->
<svg version="1.1" id="Layer_1" xmlns="http://www.w3.org/2000/svg" xmlns:xlink="http://www.w3.org/1999/xlink" x="0px" y="0px"
	 viewBox="0 0 512 512" style="enable-background:new 0 0 512 512;" xml:space="preserve">
<style type="text/css">
	.st0{fill:#FFFFFF;}
	.st1{fill:#D6D000;}
	.st2{fill:#FCFCF5;}
	.st3{fill:#FFF0E3;}
	.st4{fill:#EBFFF1;}
	.st5{fill:#FFFEEE;}
	.st6{fill:#2D2D2D;}
	.st7{fill:#010101;}
	.st8{fill:#2B2B2B;}
	.st9{fill:#D09F76;}
	.st10{fill:#E7E9ED;}
	.st11{fill:#F0D0B5;}
	.st12{fill:#5B5B5B;}
</style>
<circle id="XMLID_4_" class="st0" cx="256.7" cy="256.7" r="254.3"/>
<g>
	<path id="XMLID_29_" class="st1" d="M261.4,121.9v21.8h-87.1v-21.8H98.1v294h239.6v-294H261.4z"/>
	<path id="XMLID_28_" class="st2" d="M174.3,100.1h87.1v43.6h-87.1V100.1z"/>
	<path id="XMLID_27_" class="st2" d="M119.9,258h32.7v70.8h-32.7V258z"/>
	<path id="XMLID_26_" class="st3" d="M174.3,236.2H207v92.6h-32.7V236.2z"/>
	<path id="XMLID_25_" class="st4" d="M228.8,214.4h32.7v114.3h-32.7L228.8,214.4L228.8,214.4z"/>
	<path id="XMLID_24_" class="st5" d="M283.2,192.7h32.7v136.1h-32.7V192.7z"/>
	<path id="XMLID_20_" class="st6" d="M337.7,116.4h-70.8v-16.3c0-3-2.4-5.4-5.4-5.4l0,0h-87.1c-3,0-5.4,2.4-5.4,5.4l0,0v16.3H98.1
		c-3,0-5.4,2.4-5.4,5.4l0,0v294c0,3,2.4,5.4,5.4,5.4l0,0h239.6c3,0,5.4-2.4,5.4-5.4l0,0v-294C343.1,118.9,340.7,116.4,337.7,116.4
		L337.7,116.4z M179.8,105.6H256v32.7h-76.2V105.6z M332.2,410.4H103.6V127.3h65.3v16.3c0,3,2.4,5.4,5.4,5.4l0,0h87.1
		c3,0,5.4-2.4,5.4-5.4l0,0v-16.3h65.3L332.2,410.4L332.2,410.4z"/>
	<path id="XMLID_19_" class="st7" d="M114.4,345.1h119.8V356H114.4V345.1z"/>
	<path id="XMLID_18_" class="st7" d="M245.1,345.1h76.2V356h-76.2V345.1z"/>
	<path id="XMLID_17_" class="st7" d="M114.4,366.9h206.9v10.9H114.4V366.9z"/>
	<path id="XMLID_16_" class="st7" d="M114.4,388.7h87.1v10.9h-87.1V388.7z"/>
	<path id="XMLID_15_" class="st7" d="M212.4,388.7h108.9v10.9H212.4L212.4,388.7L212.4,388.7z"/>
	<path id="XMLID_12_" class="st8" d="M152.6,334.2h-32.7c-3,0-5.4-2.4-5.4-5.4l0,0V258c0-3,2.4-5.4,5.4-5.4l0,0h32.7
		c3,0,5.4,2.4,5.4,5.4l0,0v70.8C158,331.8,155.6,334.2,152.6,334.2L152.6,334.2z M125.3,323.3h21.8v-59.9h-21.8V323.3z"/>
	<path id="XMLID_9_" class="st8" d="M207,334.2h-32.7c-3,0-5.4-2.4-5.4-5.4l0,0v-92.6c0-3,2.4-5.4,5.4-5.4l0,0H207
		c3,0,5.4,2.4,5.4,5.4l0,0v92.6C212.4,331.8,210,334.2,207,334.2L207,334.2z M179.8,323.3h21.8v-81.7h-21.8V323.3z"/>
	<path id="XMLID_6_" class="st8" d="M261.4,334.2h-32.7c-3,0-5.4-2.4-5.4-5.4l0,0V214.4c0-3,2.4-5.4,5.4-5.4l0,0h32.7
		c3,0,5.4,2.4,5.4,5.4l0,0v114.3C266.9,331.8,264.5,334.2,261.4,334.2L261.4,334.2z M234.2,323.3H256V219.9h-21.8V323.3z"/>
	<path id="XMLID_3_" class="st8" d="M315.9,334.2h-32.7c-3,0-5.4-2.4-5.4-5.4l0,0V192.7c0-3,2.4-5.4,5.4-5.4l0,0h32.7
		c3,0,5.4,2.4,5.4,5.4l0,0v136.1C321.3,331.8,318.9,334.2,315.9,334.2L315.9,334.2z M288.7,323.3h21.8V198.1h-21.8V323.3z"/>
	<path id="XMLID_2_" class="st7" d="M122.8,229.9l-5.8-9.2l43.6-27.2c0.9-0.5,1.8-0.9,2.9-0.9h47.4l47.6-31.7c0.6-0.4,1.2-0.7,2-0.8
		l54.4-10.9l2.2,10.7l-53.4,10.7l-48.1,32.1c-0.9,0.6-2,0.9-3,0.9h-47.4L122.8,229.9z"/>
	<path id="XMLID_53_" class="st9" d="M408,392.3c-5.1-7.5-12.3-13.6-21.1-17.2l-24.3-9.9L350.3,390l-11-11l-4.7-4.7L319,390
		l-12.5-24.9l-24.3,9.9c-17.5,7.1-28.9,24.2-28.9,43.1h31.3h50h50H416C416,408.8,413.1,399.7,408,392.3L408,392.3z"/>
	<path id="XMLID_52_" class="st10" d="M334.6,374.4L319,390l-12.5-24.9l7.8-3.2c1.8-0.7,3.3-1.8,4.6-3.3L334.6,374.4z"/>
	<path id="XMLID_51_" class="st10" d="M362.7,365.2L350.3,390l-11-11l-4.7-4.7l15.7-15.7c1.2,1.4,2.8,2.5,4.6,3.3L362.7,365.2z"/>
	<path id="XMLID_50_" class="st0" d="M384.7,280.6v25c0-3.4-1.4-6.6-3.7-8.9c-2.3-2.2-5.4-3.7-8.9-3.7V279c0-7.8-6.3-14.1-14.1-14.1
		c-3,0-6,1-8.5,2.8l-5.4,4.1c-2.2,1.6-4.8,2.5-7.5,2.5h-20.9c-10.1,0-18.4,8.1-18.8,18.1c0,0.2,0,0.4,0,0.7
		c-6.9,0-12.5,5.6-12.5,12.5v-25c0-27.6,22.4-50,50-50c13.8,0,26.3,5.6,35.4,14.6C379.1,254.3,384.7,266.8,384.7,280.6z"/>
	<g id="XMLID_73_">
		<path id="XMLID_49_" class="st11" d="M347.2,350.4c0,3.1,1.2,6.1,3.2,8.3l-15.7,15.7L319,358.8c2-2.2,3.2-5.2,3.2-8.3v-3.9
			c3.9,2.5,8.1,4.5,12.5,6c4.5-1.5,8.7-3.5,12.5-6L347.2,350.4L347.2,350.4z"/>
		<path id="XMLID_48_" class="st11" d="M381,296.8c2.2,2.3,3.7,5.4,3.7,8.9c0,6.9-5.6,12.5-12.5,12.5h-3c1.9-5.6,3-11.5,3-17.6v-1.1
			v-6.2C375.6,293.2,378.7,294.5,381,296.8z"/>
		<path id="XMLID_47_" class="st11" d="M347.2,286.9h18.8c3.4,0,6.2,2.8,6.2,6.2V279c0-7.8-6.3-14.1-14.1-14.1c-3,0-6,1-8.5,2.8
			l-5.4,4.1c-2.2,1.6-4.8,2.5-7.5,2.5h-20.9c-10.1,0-18.4,8.1-18.8,18.1c0.3-3.1,3-5.6,6.2-5.6h18.8c3.4,0,6.2,2.8,6.2,6.2v6.2
			c0,3.4-2.8,6.2-6.2,6.2h-18.8c-3.4,0-6.2-2.8-6.2-6.2v1.1c0,6.1,1,12.1,3,17.6c3.9,11.6,11.7,21.6,22.1,28.3
			c3.9,2.5,8.1,4.5,12.5,6c4.5-1.5,8.7-3.5,12.5-6c5.8-3.7,10.7-8.5,14.7-14c3.1-4.4,5.6-9.2,7.4-14.4c1.9-5.6,3-11.5,3-17.6v-1.1
			c0,3.4-2.8,6.2-6.2,6.2h-18.8c-3.4,0-6.2-2.8-6.2-6.2v-6.2C340.9,289.7,343.7,286.9,347.2,286.9L347.2,286.9z"/>
		<path id="XMLID_46_" class="st11" d="M297.1,299.4v1.1c0,6.1,1,12.1,3,17.6h-3c-3.4,0-6.6-1.4-8.9-3.7c-2.2-2.3-3.7-5.4-3.7-8.9
			c0-6.9,5.6-12.5,12.5-12.5V299.4z"/>
	</g>
	<path id="XMLID_45_" class="st12" d="M372.2,293.2v6.2c0,3.4-2.8,6.2-6.2,6.2h-18.8c-3.4,0-6.2-2.8-6.2-6.2v-6.2
		c0-3.4,2.8-6.2,6.2-6.2h18.8C369.3,286.9,372.2,289.7,372.2,293.2z"/>
	<path id="XMLID_44_" class="st12" d="M328.4,293.2v6.2c0,3.4-2.8,6.2-6.2,6.2h-18.8c-3.4,0-6.2-2.8-6.2-6.2v-6.2c0-0.2,0-0.5,0-0.7
		c0.3-3.1,3-5.6,6.2-5.6h18.8C325.6,286.9,328.4,289.7,328.4,293.2z"/>
	<path id="XMLID_43_" class="st7" d="M347.2,324.4h-6.2c0,3.5-2.8,6.2-6.2,6.2c-3.4,0-6.2-2.8-6.2-6.2h-6.2
		c0,6.9,5.6,12.5,12.5,12.5C341.5,336.9,347.2,331.3,347.2,324.4z"/>
	<path id="XMLID_57_" class="st7" d="M388.2,372.2l-32.1-13.1c-3.5-1.4-5.8-4.9-5.8-8.7v-2.2c9.6-6.6,17-16,21.1-26.9h0.7
		c8.6,0,15.6-7,15.6-15.6v-25c0-29.3-23.9-53.1-53.1-53.1s-53.1,23.9-53.1,53.1v25c0,8.6,7,15.6,15.6,15.6h0.7
		c4.1,10.8,11.5,20.2,21.1,26.9v2.2c0,3.8-2.3,7.2-5.8,8.7L281,372.2c-18.8,7.7-30.9,25.7-30.9,46v3.1h168.8v-3.1
		C419.1,398,406.9,379.9,388.2,372.2L388.2,372.2z M353.7,364.9l4.7,1.9l-9,18L339,374.4l11.4-11.4
		C351.5,363.7,352.6,364.4,353.7,364.9L353.7,364.9z M338.4,290H331c-1.3-3.6-4.7-6.2-8.8-6.2h-18.7c2.9-3.8,7.3-6.2,12.4-6.2h20.9
		c3.3,0,6.7-1.1,9.4-3.1l5.4-4.1c1.9-1.4,4.2-2.2,6.6-2.2c6,0,11,4.9,11,11v5.2c-1-0.3-2-0.6-3.1-0.6h-18.8
		C343.1,283.8,339.6,286.4,338.4,290L338.4,290z M300.3,293.2c0-1.7,1.4-3.1,3.1-3.1h18.8c1.7,0,3.1,1.4,3.1,3.1v6.2
		c0,1.7-1.4,3.1-3.1,3.1h-18.8c-1.7,0-3.1-1.4-3.1-3.1V293.2z M344,293.2c0-1.7,1.4-3.1,3.1-3.1h18.8c1.7,0,3.1,1.4,3.1,3.1v6.2
		c0,1.7-1.4,3.1-3.1,3.1h-18.8c-1.7,0-3.1-1.4-3.1-3.1V293.2z M373.5,314.9c1.2-4.7,1.8-9.4,1.8-14.4v-1.1v-2.6
		c3.6,1.3,6.2,4.7,6.2,8.8C381.5,310.3,378,314.3,373.5,314.9z M334.6,233.7c25.8,0,46.9,21.1,46.9,46.9v12.6
		c-1.8-1.4-3.9-2.4-6.2-2.9v-11.3c0-9.5-7.7-17.2-17.2-17.2c-3.7,0-7.3,1.2-10.3,3.4l-5.4,4.1c-1.6,1.2-3.6,1.9-5.6,1.9h-20.9
		c-11.1,0-20.3,8.3-21.7,19.1c-2.4,0.5-4.6,1.5-6.4,2.9v-12.6C287.7,254.8,308.8,233.7,334.6,233.7z M287.7,305.6
		c0-4.1,2.6-7.5,6.2-8.8v2.6v1.1c0,4.9,0.7,9.8,1.8,14.4C291.3,314.3,287.7,310.3,287.7,305.6z M300.9,308.4
		c0.8,0.2,1.6,0.4,2.5,0.4h18.8c5.2,0,9.4-4.2,9.4-9.4v-3.1h6.2v3.1c0,5.2,4.2,9.4,9.4,9.4h18.8c0.9,0,1.7-0.1,2.5-0.4
		c-2.9,18.6-15.7,34.4-33.8,40.9C316.5,342.8,303.8,327,300.9,308.4z M333.7,355.5l1,0.3l1-0.3c3-1,5.8-2.2,8.5-3.6
		c0.2,2.4,1,4.5,2.1,6.5L334.6,370L323,358.4c1.2-2,1.9-4.1,2.1-6.5C327.9,353.3,330.7,354.6,333.7,355.5L333.7,355.5z M315.6,364.9
		c1.2-0.5,2.2-1.1,3.3-1.8l11.4,11.4l-10.4,10.4l-9-18L315.6,364.9z M387.8,415.1v-18.8h-6.2v18.8h-43.8v-6.2h-6.2v6.2h-43.8v-18.8
		h-6.4v18.8h-24.9c1.2-16.5,11.5-30.8,26.9-37.1l21.6-8.9l13.1,26.2l16.5-16.5l16.5,16.5l13.1-26.2l21.6,8.9
		c15.4,6.3,25.7,20.7,26.9,37.1H387.8L387.8,415.1z"/>
	<path id="XMLID_30_" class="st7" d="M331.5,383.8h6.2v6.2h-6.2V383.8z"/>
	<path id="XMLID_1_" class="st7" d="M331.5,396.3h6.2v6.2h-6.2V396.3z"/>
</g>
</svg>
