<?xml version="1.0" encoding="utf-8"?>
<!-- Generator: Adobe Illustrator 19.0.0, SVG Export Plug-In . SVG Version: 6.00 Build 0)  -->
<svg version="1.1" id="Layer_1" xmlns="http://www.w3.org/2000/svg" xmlns:xlink="http://www.w3.org/1999/xlink" x="0px" y="0px"
	 viewBox="0 0 512 512" style="enable-background:new 0 0 512 512;" xml:space="preserve">
<style type="text/css">
	.st0{fill:#FFFFFF;}
	.st1{fill:#F9FF00;}
	.st2{fill:#F4D0C7;}
	.st3{fill:#A9BA09;}
	.st4{fill:#FFDB70;}
	.st5{fill:#F57F35;}
	.st6{fill:#010101;}
</style>
<circle id="XMLID_1_" class="st0" cx="256.7" cy="256.7" r="254.3"/>
<g>
	<path class="st1" d="M425.3,279.5L402,302.8l-64.4,46.5L326.1,338l0.2-0.3c17.7-1.8,30.5-17.6,28.7-35.2
		c-1.8-17.6-17.6-30.5-35.2-28.7c-15.3,1.6-27.3,13.8-28.7,29l-0.1,0.1l-20.4-20.5l78.8-78.8L425.3,279.5z"/>
	<polygon class="st2" points="425.3,326.1 302.7,431.3 267.7,431.3 156.8,390.4 80.9,390.4 80.9,326.1 156.8,326.1 160.9,324.4 
		186,313.7 197.7,308.6 255.5,308.6 291.1,308.6 291.1,343.7 221,343.7 296.9,378.7 337.6,349.3 402,302.8 	"/>
	<path class="st3" d="M355.3,305.7c0,16.5-12.5,30.3-28.9,31.9l-0.2,0.3L294,305.7l-2.9-2.9l0.1-0.1c1.5-17.7,17-30.7,34.7-29.3
		C342.6,274.9,355.4,289,355.3,305.7z"/>
	<polygon class="st1" points="337.6,349.3 296.9,378.7 221,343.7 291.1,343.7 291.1,308.6 294,305.7 326.2,338 	"/>
	<path class="st1" d="M273.6,189c4.5,0.1,8.9-1.5,12.4-4.2c3.2-2.5,5.1-6.3,5.1-10.4c-0.2-3.8-2.8-7-6.5-8l-11.1-3.7v-26.3
		c-4.5-0.1-8.9,1.5-12.4,4.2c-3.2,2.5-5.1,6.3-5.1,10.4c0.2,3.8,2.8,7,6.5,8l11.1,3.7V189z M273.6,110.1c29,0,52.5,23.5,52.5,52.5
		s-23.5,52.5-52.5,52.5c-29,0-52.5-23.5-52.5-52.5S244.5,110.1,273.6,110.1z"/>
	<path class="st1" d="M294,305.7l-2.9,2.9h-35.5c-3.1-19.1-21.1-32.1-40.2-28.9c-16.7,2.7-29.1,17-29.4,33.9l-25.2,10.8l-50.8-50.8
		l75.9-75.9l84.7,84.7l20.5,20.5L294,305.7z"/>
	<g>
		<path class="st4" d="M291.1,174.4c-0.1,4-1.9,7.9-5.1,10.4c-3.5,2.8-7.9,4.3-12.4,4.2v-26.3l11.1,3.7
			C288.2,167.3,290.9,170.5,291.1,174.4z"/>
		<path class="st4" d="M273.6,136.4v26.3l-11.1-3.7c-3.7-1-6.3-4.2-6.5-8c0.1-4,1.9-7.9,5.1-10.4C264.7,137.8,269,136.4,273.6,136.4
			z"/>
	</g>
	<path class="st3" d="M255.5,308.6h-57.9l-11.7,5c0.3-19.3,16.3-34.7,35.7-34.4C238.6,279.6,252.8,291.9,255.5,308.6z"/>
	<g>
		<path class="st4" d="M311.3,103.7c-23.1-14.5-52.4-14.5-75.4,0l-6.3-9.8c26.9-17.2,61.2-17.2,88.1,0L311.3,103.7z"/>
		<path class="st4" d="M198.1,194.1c-4.2-9.9-6.3-20.7-6.3-31.4h11.7c0,9.3,1.8,18.4,5.4,26.9L198.1,194.1z"/>
		<path class="st4" d="M273.6,244.4v-11.7c9.3,0,18.4-1.8,26.9-5.4l4.5,10.8C295.1,242.3,284.3,244.4,273.6,244.4z"/>
		<path class="st4" d="M349,194.1l-10.8-4.5c3.5-8.6,5.4-17.7,5.4-26.9h11.7C355.3,173.4,353.1,184.2,349,194.1z"/>
	</g>
	<g>
		<path class="st5" d="M273.6,221c-32.3,0-58.4-26.2-58.4-58.4s26.2-58.4,58.4-58.4s58.4,26.2,58.4,58.4S305.8,221,273.6,221z
			 M273.6,116c-25.8,0-46.7,20.9-46.7,46.7s20.9,46.7,46.7,46.7c25.7,0,46.7-20.9,46.7-46.7C320.2,136.9,299.3,116,273.6,116z"/>
		<path class="st5" d="M273.6,194.8c-5.8,0.1-11.5-1.9-16.1-5.6c-4.5-3.6-7.2-9-7.2-14.8h11.7c0.1,2.3,1.2,4.5,3.1,5.8
			c5.1,3.7,12.1,3.7,17.3,0c1.8-1.4,2.9-3.5,3.1-5.8c0-0.8-0.8-1.9-2.4-2.4l-22.1-7.4c-6.1-1.8-10.3-7.2-10.5-13.6
			c0.1-5.8,2.7-11.2,7.2-14.8c4.5-3.7,10.2-5.7,16.1-5.6c12-0.8,22.5,8.3,23.4,20.5h-11.7c0-4.7-5.4-8.8-11.7-8.8
			c-3.1-0.1-6.2,1-8.6,2.9c-1.8,1.4-2.9,3.5-3.1,5.8c0,0.8,0.8,1.9,2.4,2.4l22.1,7.4c6.1,1.8,10.3,7.2,10.5,13.6
			c-0.1,5.8-2.7,11.2-7.2,14.8C285.1,192.9,279.4,194.9,273.6,194.8z"/>
		<rect x="267.7" y="127.6" class="st5" width="11.7" height="70.1"/>
	</g>
	<path class="st3" d="M235.9,103.7c23.1-14.5,52.4-14.5,75.4,0l6.3-9.8c-26.9-17.2-61.2-17.2-88,0L235.9,103.7z"/>
	<path class="st3" d="M191.8,162.7c0,10.8,2.2,21.5,6.3,31.4l10.8-4.5c-3.5-8.6-5.4-17.7-5.4-27L191.8,162.7L191.8,162.7z"/>
	<path class="st3" d="M273.6,244.4c10.8,0,21.5-2.1,31.4-6.3l-4.5-10.8c-8.6,3.5-17.7,5.4-26.9,5.4V244.4L273.6,244.4z"/>
	<path class="st3" d="M349,194.1c4.2-9.9,6.3-20.7,6.3-31.4h-11.7c0,9.3-1.8,18.4-5.4,26.9L349,194.1z"/>
	<path class="st6" d="M331.9,162.7c0-32.3-26.2-58.4-58.4-58.4s-58.4,26.2-58.4,58.4s26.2,58.4,58.4,58.4S331.9,194.9,331.9,162.7z
		 M273.6,209.4c-25.8,0-46.7-20.9-46.7-46.7s20.9-46.7,46.7-46.7c25.7,0,46.7,20.9,46.7,46.7C320.2,188.5,299.3,209.3,273.6,209.4z"
		/>
	<path class="st6" d="M285.2,151h11.7c-0.5-9.9-7.8-18-17.5-19.7v-3.6h-11.7v3.6c-9.7,1.7-17,9.9-17.5,19.7
		c0.2,6.3,4.5,11.8,10.5,13.6l7,2.4v15c-3.3-1.1-5.6-4-5.8-7.5h-11.7c0.5,9.9,7.8,18,17.5,19.7v3.6h11.7V194
		c9.7-1.7,17-9.9,17.5-19.7c-0.2-6.3-4.5-11.8-10.5-13.6l-7-2.4v-15C282.7,144.6,284.9,147.6,285.2,151z M282.7,171.8
		c1.5,0.5,2.5,1.5,2.5,2.5c-0.3,3.4-2.6,6.4-5.8,7.5v-11.1L282.7,171.8z M264.4,153.5c-1.5-0.5-2.5-1.5-2.5-2.5
		c0.3-3.4,2.6-6.4,5.8-7.5v11.1L264.4,153.5z"/>
	<path class="st6" d="M353.6,199.4c-2.3-2.3-6-2.3-8.3,0l-74.6,74.7l-80.6-80.6c-2.3-2.3-6-2.3-8.3,0l-75.9,75.9
		c-2.3,2.3-2.3,6,0,8.3l42.6,42.6H80.9V332h75.9c0.8,0,1.6-0.1,2.3-0.5l39.8-17h86.4v23.4H221c-3.2,0-5.8,2.6-5.8,5.8
		c0,2.3,1.3,4.4,3.4,5.3l75.9,35.1c1.9,0.9,4.2,0.6,5.8-0.6l101.1-73l15.4,15.4l-116.2,99.6h-31.9l-109.9-40.5
		c-0.6-0.2-1.3-0.3-2-0.3H80.9v11.7h74.9l110,40.5c0.6,0.2,1.3,0.3,2,0.3h35.1c1.4,0,2.7-0.5,3.8-1.4l122.6-105.1
		c2.4-2.1,2.7-5.8,0.6-8.2c-0.1-0.1-0.2-0.2-0.3-0.3l-19.2-19.2l19.2-19.2c2.3-2.3,2.3-6,0-8.3L353.6,199.4z M186,205.9l96.8,96.8
		h-22.7c-5.1-17.3-21.1-29.2-39.2-29.2c-20.7,0.1-38.1,15.6-40.6,36l-18.2,7.8l-43.9-43.8L186,205.9z M328,331.4l-30.5-30.5
		c2.2-12.5,13.1-21.6,25.7-21.5c14.5,0,26.2,11.7,26.3,26.2C349.5,318.3,340.4,329.1,328,331.4z M344.2,337.3l-6.1,4.4l-0.8-0.8
		C339.9,339.9,342.1,338.7,344.2,337.3L344.2,337.3L344.2,337.3z M197.7,302.8c-0.8,0-1.6,0.1-2.3,0.5l-1.4,0.6
		c5.8-15,22.5-22.4,37.5-16.6c7.3,2.8,13.1,8.4,16.2,15.6H197.7z M296.2,372l-48.7-22.5H291c3.2,0,5.8-2.6,5.8-5.8v-26.8l31.7,31.7
		L296.2,372z M398.2,298.3l-51.5,37.1c16.4-13.1,19.1-36.9,6.1-53.4c-13.1-16.4-36.9-19.1-53.4-6.1c-5.1,4-9,9.3-11.5,15.3l-9.1-9.1
		l70.5-70.5l67.6,67.6L398.2,298.3z"/>
</g>
</svg>
