<?xml version="1.0" encoding="utf-8"?>
<!-- Generator: Adobe Illustrator 24.0.1, SVG Export Plug-In . SVG Version: 6.00 Build 0)  -->
<svg version="1.1" id="Layer_1" xmlns="http://www.w3.org/2000/svg" xmlns:xlink="http://www.w3.org/1999/xlink" x="0px" y="0px"
	 viewBox="0 0 50 50" style="enable-background:new 0 0 50 50;" xml:space="preserve">
<style type="text/css">
	.st0{fill:#FFFFFF;}
	.st1{opacity:0.95;}
	.st2{opacity:0.95;fill:#FEEB15;}
	.st3{opacity:0.95;fill:#97D5ED;}
	.st4{opacity:0.95;fill:#020203;}
</style>
<circle class="st0" cx="25" cy="25" r="24.4"/>
<path class="st1" d="M7.9,18.8h28.8v3.3c0,0-14-3.2-14.4,13.8H9.7c0,0-1.8,0.2-1.8-1.6V18.8z"/>
<path class="st1" d="M8.4,15.7h12.4V7.2h-6c0,0-0.7,0-0.8,0.5L8.4,15.7z"/>
<path class="st1" d="M36.3,15.7H23.9V7.2h6c0,0,0.7,0,0.8,0.5L36.3,15.7z"/>
<path class="st2" d="M39,26.7c0,0.5-0.4,0.9-0.9,0.9c-0.5,0-0.9-0.4-0.9-0.9c0-0.5,0.4-0.9,0.9-0.9C38.5,25.7,39,26.1,39,26.7z"/>
<path class="st3" d="M37.4,31c-0.1-0.5-0.3-1-0.6-1.4l0.6-0.6l-1.3-1.3l-0.6,0.6c-0.4-0.3-0.9-0.5-1.4-0.6v-0.8h-1.8v0.8
	c-0.5,0.1-1,0.3-1.4,0.6l-0.6-0.6L29.1,29l0.6,0.6c-0.3,0.4-0.5,0.9-0.6,1.4h-0.8l0,1.8h0.8c0.1,0.5,0.3,1,0.6,1.4l-0.6,0.6l1.3,1.3
	l0.6-0.6c0.4,0.3,0.9,0.5,1.4,0.6v0.8h1.8V36c0.5-0.1,1-0.3,1.4-0.6l0.6,0.6l1.3-1.3l-0.6-0.6c0.3-0.4,0.5-0.9,0.6-1.4h0.8V31H37.4z
	 M33.3,34c-1.2,0-2.1-0.9-2.1-2.1s0.9-2.1,2.1-2.1c1.2,0,2.1,0.9,2.1,2.1S34.4,34,33.3,34z"/>
<path class="st4" d="M28.5,35.9c-0.2,0-0.4,0.1-0.6,0.1c-0.9-1.2-1.4-2.7-1.4-4.2c0-3.7,3-6.8,6.8-6.8c0.5,0,0.9,0,1.4,0.1
	c0.2,0,0.3-0.1,0.3-0.2s-0.1-0.3-0.2-0.3c-0.5-0.1-1-0.1-1.5-0.1c-2,0-3.8,0.8-5.2,2.2s-2.2,3.2-2.2,5.2c0,1.7,0.6,3.3,1.6,4.6
	c-0.1,0.2-0.2,0.4-0.2,0.7c0,0.3,0.1,0.6,0.4,0.9c0.2,0.2,0.5,0.4,0.9,0.4c0.3,0,0.6-0.1,0.9-0.4c0.2-0.2,0.4-0.5,0.4-0.9
	c0-0.3-0.1-0.6-0.4-0.9C29.1,36,28.8,35.9,28.5,35.9z M28.9,37.6c-0.1,0.1-0.3,0.2-0.4,0.2c-0.2,0-0.3-0.1-0.4-0.2s-0.2-0.3-0.2-0.4
	c0-0.2,0.1-0.3,0.2-0.4c0.1-0.1,0.3-0.2,0.4-0.2c0.2,0,0.3,0.1,0.4,0.2c0.1,0.1,0.2,0.3,0.2,0.4C29.1,37.3,29.1,37.4,28.9,37.6z"/>
<path class="st4" d="M39,27.3c0.3-0.5,0.3-1.1-0.2-1.5c-0.2-0.2-0.5-0.4-0.9-0.4c-0.3,0-0.6,0.1-0.9,0.4c-0.2,0.2-0.4,0.5-0.4,0.9
	c0,0.3,0.1,0.6,0.4,0.9c0.2,0.2,0.5,0.4,0.9,0.4c0.2,0,0.4-0.1,0.6-0.1c0.9,1.2,1.4,2.7,1.4,4.2c0,3.7-3,6.8-6.8,6.8
	c-0.5,0-0.9,0-1.3-0.1c-0.2,0-0.3,0.1-0.3,0.2c0,0.2,0.1,0.3,0.2,0.3c0.5,0.1,1,0.1,1.5,0.1c2,0,3.8-0.8,5.2-2.2
	c1.4-1.4,2.2-3.2,2.2-5.2C40.6,30.2,40.1,28.6,39,27.3z M37.6,27.1c-0.1-0.1-0.2-0.3-0.2-0.4c0-0.2,0.1-0.3,0.2-0.4
	c0.1-0.1,0.3-0.2,0.4-0.2c0.2,0,0.3,0.1,0.4,0.2c0.2,0.2,0.2,0.6,0,0.9c-0.1,0.1-0.3,0.2-0.4,0.2C37.9,27.3,37.7,27.2,37.6,27.1z"/>
<path class="st4" d="M32.1,36.8c0,0.2,0.1,0.3,0.3,0.3h1.8c0.2,0,0.3-0.1,0.3-0.3v-0.6c0.4-0.1,0.7-0.3,1.1-0.4l0.4,0.4
	c0.1,0.1,0.1,0.1,0.2,0.1c0.1,0,0.1,0,0.2-0.1l1.3-1.3c0.1-0.1,0.1-0.3,0-0.4l-0.4-0.4c0.2-0.3,0.3-0.7,0.4-1.1h0.6
	c0.2,0,0.3-0.1,0.3-0.3V31c0-0.2-0.1-0.3-0.3-0.3h-0.6c-0.1-0.4-0.3-0.7-0.4-1.1l0.4-0.4c0.1-0.1,0.1-0.1,0.1-0.2
	c0-0.1,0-0.1-0.1-0.2l-1.3-1.3c-0.1-0.1-0.3-0.1-0.4,0l-0.4,0.4c-0.3-0.2-0.7-0.3-1.1-0.4v-0.6c0-0.2-0.1-0.3-0.3-0.3h-1.8
	c-0.2,0-0.3,0.1-0.3,0.3v0.6c-0.4,0.1-0.7,0.3-1.1,0.4l-0.4-0.4c-0.1-0.1-0.3-0.1-0.4,0l-1.3,1.3c-0.1,0.1-0.1,0.1-0.1,0.2
	s0,0.1,0.1,0.2l0.4,0.4c-0.2,0.3-0.3,0.7-0.4,1.1h-0.6c-0.2,0-0.3,0.1-0.3,0.3l0,1.8c0,0.1,0,0.1,0.1,0.2c0.1,0.1,0.1,0.1,0.2,0.1
	h0.6c0.1,0.4,0.3,0.7,0.4,1.1l-0.4,0.4c-0.1,0.1-0.1,0.3,0,0.4l1.3,1.3c0.1,0.1,0.1,0.1,0.2,0.1h0c0.1,0,0.1,0,0.2-0.1l0.4-0.4
	c0.3,0.2,0.7,0.3,1.1,0.4V36.8z M31.1,35.2c-0.1-0.1-0.3-0.1-0.4,0l-0.4,0.4l-0.9-0.9l0.3-0.3c0.1-0.1,0.1-0.2,0-0.4
	c-0.3-0.4-0.4-0.8-0.5-1.3c0-0.1-0.1-0.2-0.3-0.2h-0.5l0-1.2h0.5c0.1,0,0.3-0.1,0.3-0.2c0.1-0.5,0.3-0.9,0.5-1.3
	c0.1-0.1,0.1-0.3,0-0.4L29.5,29l0.9-0.9l0.3,0.3c0.1,0.1,0.2,0.1,0.4,0c0.4-0.3,0.8-0.4,1.3-0.5c0.1,0,0.2-0.1,0.2-0.3v-0.5h1.2v0.5
	c0,0.1,0.1,0.3,0.2,0.3c0.5,0.1,0.9,0.3,1.3,0.5c0.1,0.1,0.3,0.1,0.4,0l0.3-0.3L37,29l-0.3,0.3c-0.1,0.1-0.1,0.2,0,0.4
	c0.3,0.4,0.4,0.8,0.5,1.3c0,0.1,0.1,0.2,0.3,0.2h0.5v1.2h-0.5c-0.1,0-0.3,0.1-0.3,0.2c-0.1,0.5-0.3,0.9-0.5,1.3
	c-0.1,0.1-0.1,0.3,0,0.4l0.3,0.3l-0.9,0.9l-0.4-0.3c-0.1-0.1-0.2-0.1-0.4,0c-0.4,0.3-0.8,0.4-1.3,0.5c-0.1,0-0.2,0.1-0.2,0.3v0.5
	h-1.2V36c0-0.1-0.1-0.3-0.2-0.3C32,35.7,31.5,35.5,31.1,35.2z"/>
<path class="st4" d="M35.6,31.9c0-1.3-1.1-2.4-2.4-2.4c-1.3,0-2.4,1.1-2.4,2.4c0,1.3,1.1,2.4,2.4,2.4C34.6,34.3,35.6,33.2,35.6,31.9
	z M31.5,31.9c0-1,0.8-1.8,1.8-1.8c1,0,1.8,0.8,1.8,1.8s-0.8,1.8-1.8,1.8C32.3,33.7,31.5,32.9,31.5,31.9z"/>
<path class="st4" d="M35.9,25.6c0.1,0,0.1,0,0.2-0.1c0.1-0.1,0.1-0.1,0.1-0.2c0-0.1,0-0.1-0.1-0.2C36.1,25.1,36,25,35.9,25
	c-0.1,0-0.1,0-0.2,0.1c-0.1,0.1-0.1,0.1-0.1,0.2c0,0.1,0,0.1,0.1,0.2C35.8,25.6,35.8,25.6,35.9,25.6z"/>
</svg>
