<?xml version="1.0" encoding="utf-8"?>
<!-- Generator: Adobe Illustrator 24.0.1, SVG Export Plug-In . SVG Version: 6.00 Build 0)  -->
<svg version="1.1" id="Layer_1" xmlns="http://www.w3.org/2000/svg" xmlns:xlink="http://www.w3.org/1999/xlink" x="0px" y="0px"
	 viewBox="0 0 50 50" style="enable-background:new 0 0 50 50;" xml:space="preserve">
<style type="text/css">
	.st0{fill:#FFFFFF;}
	.st1{fill:#020203;}
</style>
<circle class="st0" cx="25" cy="25" r="24.6"/>
<g>
	<path class="st1" d="M24.6,40.4c0.1,0,0.2,0.1,0.3,0.1h11c0.2,0,0.4-0.1,0.5-0.2c1-1,1.6-2.4,1.6-3.9c0-0.4,0-7.8,0-7.4
		c0-0.6-0.5-1-1-1s-1,0.5-1,1c0,0.2,0,2.6,0,2.4c0,0.4-0.3,0.7-0.7,0.7c-0.4,0-0.7-0.3-0.7-0.7c0-0.4,0-3.9,0-3.8c0-0.6-0.5-1-1-1
		c-0.6,0-1,0.5-1,1c0,0.2,0,4,0,3.8c0,0.4-0.3,0.7-0.7,0.7s-0.7-0.3-0.7-0.7c0-0.2,0-5.4,0-5.2c0-0.6-0.5-1-1-1c-0.6,0-1,0.5-1,1
		c0,0.4,0,5.4,0,5.2c0,0.4-0.3,0.7-0.7,0.7s-0.7-0.3-0.7-0.7c0-0.3,0-11.3,0-10.7c0-0.6-0.5-1-1-1c-0.6,0-1,0.5-1,1
		c0,0.4,0,13.9,0,13.5c0,0.4-0.3,0.7-0.7,0.7s-0.7-0.3-0.7-0.7c0-0.3,0-3.6,0-3.5c0-0.8-0.6-1.4-1.4-1.4c-0.8,0-1.4,0.6-1.4,1.4
		c0,0.4,0,4.7,0,4.5C21.5,37.4,22.7,39.4,24.6,40.4z"/>
</g>
<path class="st1" d="M28.8,18.9H10.2c-1.5,0-2.7-1.2-2.7-2.7v-1.9c0-1.5,1.2-2.7,2.7-2.7h18.6c1.5,0,2.7,1.2,2.7,2.7v1.9
	C31.4,17.7,30.2,18.9,28.8,18.9z"/>
<polygon class="st0" points="26.7,14.6 14.3,14.6 14.3,13.2 10,15.3 14.3,17.4 14.3,16 26.7,16 "/>
</svg>
