<?xml version="1.0" encoding="utf-8"?>
<!-- Generator: Adobe Illustrator 19.0.0, SVG Export Plug-In . SVG Version: 6.00 Build 0)  -->
<svg version="1.1" id="Layer_1" xmlns="http://www.w3.org/2000/svg" xmlns:xlink="http://www.w3.org/1999/xlink" x="0px" y="0px"
	 viewBox="0 0 512 512" style="enable-background:new 0 0 512 512;" xml:space="preserve">
<style type="text/css">
	.st0{fill:#FFFFFF;}
	.st1{fill:#BDE7FB;}
	.st2{fill:#F2FAFE;}
	.st3{fill:#FEE0B0;}
	.st4{fill:#F29F26;}
	.st5{fill:#FF9100;}
	.st6{fill:#010101;}
	.st7{fill:#061635;}
</style>
<circle id="XMLID_1_" class="st0" cx="256.7" cy="256.7" r="254.3"/>
<g>
	<path class="st1" d="M389.8,107.5c0-9.7-7.9-17.7-17.7-17.7H223.7c-9.8,0-17.7,7.9-17.7,17.7v260.6c0,9.7,7.9,17.7,17.7,17.7h148.4
		c9.7,0,17.7-7.9,17.7-17.7L389.8,107.5L389.8,107.5z"/>
	<rect x="206.6" y="126.3" class="st2" width="183.2" height="215.5"/>
	<g>
		<path class="st3" d="M195.7,366.1h24.9c19.3,0,37.4-9.3,48.6-25.1l28.5-40.2c7.9-11.1-0.1-26.6-13.7-26.6l0,0
			c-3.6,0-7.2,1.1-10.1,3.3l-42.7,31.8c-2.7,2-6,3.1-9.5,3.1l0,0c-8.7,0-15.8-7.1-15.8-15.8v-8.3"/>
		<path class="st3" d="M206,364.2h-40.2h-24v-75.5c0-51.3,23.7-99.8,64.2-131.3l0,0v115.5V364.2z"/>
	</g>
	<path class="st4" d="M122.2,422.2h133.4v-49.3c0-3.7-3-6.8-6.8-6.8H129c-3.7,0-6.8,3-6.8,6.8V422.2z"/>
	<path class="st5" d="M328.4,251.1h-60.9c-3.9,0-7.2-2.7-8-6.5l-8.9-43.2c-1-5.1,2.8-9.8,8-9.8h78.7c5.1,0,9,4.7,8,9.8l-8.9,43.1
		C335.6,248.3,332.2,251.1,328.4,251.1z"/>
	<path class="st0" d="M223.6,390.5c-1.8,0-3.5,0.7-4.8,2c-1.3,1.2-2,3-2,4.8c0,1.8,0.7,3.5,2,4.8c1.3,1.3,3,2,4.8,2s3.5-0.7,4.8-2
		c1.3-1.3,2-3,2-4.8c0-1.8-0.7-3.5-2-4.8C227.1,391.2,225.3,390.5,223.6,390.5z"/>
	<path class="st6" d="M319.1,101.9h-42.4c-3.7,0-6.8,3-6.8,6.8c0,3.7,3,6.8,6.8,6.8h42.4c3.7,0,6.8-3,6.8-6.8
		C325.9,104.9,322.8,101.9,319.1,101.9z"/>
	<path class="st6" d="M372.1,83H223.7c-13.5,0-24.5,10.9-24.5,24.5v46.7c-19.5,15.8-35.6,36-46.6,58.5
		c-11.5,23.6-17.6,49.9-17.6,76.1v70.6H129c-7.4,0-13.5,6.1-13.5,13.5v49.3c0,3.7,3,6.8,6.8,6.8c3.7,0,6.8-3,6.8-6.8v-49.3h119.9
		v49.3c0,3.7,3,6.8,6.8,6.8s6.8-3,6.8-6.8v-29.7h109.7c13.4,0,24.5-10.9,24.5-24.5v-82.9c0-3.7-3-6.8-6.8-6.8s-6.8,3-6.8,6.8v49.9
		H281.7l21.5-30.3c5.1-7.2,5.8-16.6,1.7-24.5c-4.1-7.8-12.1-12.8-20.9-12.8c-5.1,0-10.1,1.7-14.1,4.7L227.2,304
		c-1.6,1.1-3.4,1.8-5.4,1.8c-5,0-9.1-4.1-9.1-9.1v-8.4v-154H383V229c0,3.7,3,6.8,6.8,6.8s6.8-3,6.8-6.8V107.5
		C396.5,94,385.6,83,372.1,83z M383,368c0,6-4.9,10.9-10.9,10.9H262.4v-6.1c0-4.5-2.2-8.4-5.5-10.8c5.6-3.6,10.7-8.2,15.1-13.5
		c0.1,0,0.2,0,0.3,0H383V368L383,368z M221.8,319.3c4.8,0,9.6-1.6,13.5-4.5L278,283c1.8-1.3,3.9-2,6-2c3.9,0,7.2,2,8.9,5.5
		c1.8,3.4,1.5,7.3-0.7,10.5l-28.5,40.2c-9.9,13.9-26,22.2-43,22.2h-72.1v-70.7c0-44.8,18.3-86.6,50.7-116.8v116.5v8.3
		C199.2,309.2,209.4,319.3,221.8,319.3z M212.8,120.9v-13.4c0-6,4.9-10.9,10.9-10.9h148.4c6,0,10.9,4.9,10.9,10.9v13.4H212.8z"/>
	<path class="st6" d="M297.9,369.9c1.8,0,3.5-0.7,4.8-2c1.3-1.3,2-3,2-4.8c0-1.8-0.7-3.5-2-4.8c-1.3-1.3-3-2-4.8-2
		c-1.8,0-3.5,0.7-4.8,2c-1.3,1.3-2,3-2,4.8c0,1.8,0.7,3.5,2,4.8C294.4,369.2,296.1,369.9,297.9,369.9z"/>
	<path class="st7" d="M291.9,172.4c-3.2-1.9-7.4-0.7-9.3,2.5l-5.7,9.9h-18.4c-4.5,0-8.7,2-11.6,5.5c-2.8,3.4-3.9,8-3,12.4l8.9,43.2
		c1.4,6.9,7.6,11.9,14.6,11.9h60.9c7,0,13.2-5,14.6-11.9l8.9-43.2c0.9-4.4-0.2-8.9-3-12.4c-2.8-3.5-7-5.5-11.6-5.5h-18.4l-5.7-9.9
		c-1.9-3.2-6-4.3-9.3-2.5c-3.2,1.8-4.3,6-2.5,9.3l1.8,3.2h-10.6l1.8-3.2C296.3,178.4,295.2,174.3,291.9,172.4z M311,198.4l7.8,13.4
		c1.3,2.2,3.5,3.4,5.9,3.4c1.1,0,2.3-0.3,3.4-0.9c3.2-1.9,4.3-6,2.5-9.3l-3.9-6.6h10.7c0.5,0,0.9,0.3,1.1,0.5
		c0.2,0.2,0.4,0.6,0.3,1.1l-9,43.1c-0.1,0.7-0.7,1.1-1.4,1.1h-60.9c-0.7,0-1.2-0.5-1.4-1.1l-8.9-43.2c-0.1-0.5,0.1-0.9,0.3-1.1
		c0.2-0.2,0.5-0.5,1.1-0.5h10.7l-3.9,6.6c-1.9,3.2-0.7,7.4,2.5,9.3c1.1,0.6,2.2,0.9,3.4,0.9c2.4,0,4.6-1.2,5.9-3.4l7.8-13.4
		L311,198.4L311,198.4z"/>
	<path class="st4" d="M389.8,249.2c-1.8,0-3.5,0.7-4.8,2c-1.3,1.3-2,3-2,4.8c0,1.8,0.7,3.5,2,4.8c1.3,1.3,3,2,4.8,2s3.5-0.7,4.8-2
		c1.3-1.3,2-3,2-4.8c0-1.8-0.7-3.5-2-4.8C393.3,250,391.5,249.2,389.8,249.2z"/>
</g>
</svg>
