<?xml version="1.0" encoding="utf-8"?>
<!-- Generator: Adobe Illustrator 19.0.0, SVG Export Plug-In . SVG Version: 6.00 Build 0)  -->
<svg version="1.1" id="Layer_1" xmlns="http://www.w3.org/2000/svg" xmlns:xlink="http://www.w3.org/1999/xlink" x="0px" y="0px"
	 viewBox="0 0 512 512" style="enable-background:new 0 0 512 512;" xml:space="preserve">
<style type="text/css">
	.st0{fill:#FFFFFF;}
	.st1{fill:#FFBCAB;}
	.st2{fill:#006DF0;}
	.st3{fill:#FFF200;}
	.st4{fill:#2488FF;}
</style>
<circle id="XMLID_1_" class="st0" cx="256.7" cy="256.7" r="254.3"/>
<g id="Interest_rate">
	<path class="st1" d="M403.5,331c3-6,4.6-12.7,4.6-19.4v-52.9c0-5-0.9-9.9-2.5-14.5l-46.1-130c-2.4-8.7-11.3-13.9-20-11.5
		s-13.9,11.3-11.5,20l23.8,72.4c6.9,3.5,10.5,11.3,8.5,18.8l-12.8,47.7l12.8-47.7c2-7.5-1.6-15.4-8.5-18.8c-8-4-17.9-0.7-21.9,7.3
		c-0.5,1-0.9,2-1.2,3.1l-17.1,63.7c-4.4,16.4-2.2,33.8,6,48.5l14.3,25.8h65.2L403.5,331z"/>
	<path class="st1" d="M194.3,317.8c8.2-14.8,10.3-32.2,6-48.5l-17.1-63.7c-2.4-8.7-11.3-13.9-20-11.5c-1,0.3-2,0.7-3,1.1
		c-6.9,3.5-10.5,11.3-8.5,18.8l12.8,47.7l-12.8-47.7c-2-7.5,1.6-15.4,8.5-18.8l23.8-72.4c2.4-8.7-2.8-17.7-11.5-20
		s-17.7,2.8-20,11.5l-46.1,129.9c-1.6,4.6-2.5,9.6-2.5,14.5v52.9c0,6.7,1.6,13.4,4.6,19.4l6.3,12.6H180L194.3,317.8z"/>
	<path class="st2" d="M332,343.6h-16.3v32.6h10.9h76h10.9v-32.6h-16.3H332z"/>
	<path class="st3" d="M224.6,243.7l67.5-73l11.5,11.5l7.7-46.1l-46.1,7.7l11.5,11.5l-67.5,73L224.6,243.7z"/>
	<path class="st4" d="M326.6,376.2h76v38h-76V376.2z"/>
	<path class="st2" d="M185.4,376.2h10.9v-32.6H180h-65.2H98.4v32.6h10.9H185.4z"/>
	<path class="st4" d="M109.3,376.2h76v38h-76V376.2z"/>
	<circle class="st3" cx="288.6" cy="224.1" r="16.3"/>
	<circle class="st3" cx="223.4" cy="164.3" r="16.3"/>
	<path class="st2" d="M326.6,376.2h76v16.3h-76V376.2z"/>
	<path class="st2" d="M109.3,376.2h76v16.3h-76V376.2z"/>
	<path d="M413.5,338.2H406l2.4-4.7c3.4-6.8,5.2-14.3,5.2-21.9v-52.9c0-5.6-1-11.1-2.8-16.4l-46-129.5c-3.2-11.6-15.2-18.4-26.8-15.2
		s-18.4,15.2-15.2,26.8l20.9,63.7c-9.5,0.3-17.7,6.8-20.2,16l-17.1,63.7c-4.8,17.7-2.5,36.6,6.5,52.6l9.9,17.7h-7.1
		c-3,0-5.4,2.4-5.4,5.4v32.6c0,3,2.4,5.4,5.4,5.4h5.4v32.6c0,3,2.4,5.4,5.4,5.4h76c3,0,5.4-2.4,5.4-5.4v-32.6h5.4
		c3,0,5.4-2.4,5.4-5.4v-32.6C419,340.6,416.5,338.2,413.5,338.2L413.5,338.2z M322.5,315.1c-7.6-13.5-9.6-29.5-5.5-44.5l17.1-63.7
		c1.6-5.8,7.5-9.2,13.3-7.7c0.7,0.2,1.3,0.4,2,0.7l0.1,0.1c4.6,2.3,7,7.5,5.6,12.6l-12.8,47.7c-0.8,2.9,1,5.9,3.9,6.6
		c2.9,0.8,5.8-1,6.6-3.8l12.8-47.7c2.5-9.1-1.2-18.7-9.2-23.8l-23-70.3c-1.6-5.8,1.8-11.7,7.5-13.3c1-0.3,2-0.4,2.9-0.4
		c5,0.1,9.4,3.5,10.6,8.4L400.4,246c1.4,4.1,2.2,8.4,2.2,12.7v52.9c0,5.9-1.4,11.7-4,17l-4.8,9.6h-58.6L322.5,315.1z M397.2,408.8
		h-65.2v-27.2h65.2V408.8z M408.1,370.8h-87V349H408L408.1,370.8L408.1,370.8z"/>
	<path d="M299.8,186.1c2.1,2.1,5.6,2.1,7.7,0c0.8-0.8,1.3-1.8,1.5-2.9l7.7-46.1c0.5-2.9-1.5-5.8-4.4-6.3c-0.6-0.1-1.2-0.1-1.8,0
		l-46.1,7.7c-2.9,0.5-5,3.3-4.4,6.3c0.2,1.1,0.7,2.2,1.5,2.9l7.9,7.9l-64,69.2c-2,2.2-1.9,5.5,0.1,7.5l15.4,15.4
		c1,1,2.4,1.6,3.9,1.6h0.1c1.5,0,2.9-0.7,3.9-1.8l63.7-68.8L299.8,186.1z M288.2,167l-63.7,68.8l-7.7-7.7l64-69.2
		c2-2.2,1.9-5.5-0.1-7.5l-4.1-4.1l28.2-4.7l-4.7,28.2l-4.1-4.1c-1-1-2.5-1.6-3.9-1.6C290.5,165.3,289.2,165.9,288.2,167L288.2,167z"
		/>
	<path d="M205.5,267.8l-17.1-63.7c-2.5-9.2-10.7-15.6-20.2-16l21-64.1c3.2-11.6-3.5-23.6-15.1-26.8c-11.6-3.2-23.5,3.5-26.8,15l0,0
		l-46.1,130c-1.9,5.2-2.8,10.8-2.8,16.4v52.9c0,7.6,1.8,15,5.2,21.9l2.4,4.7h-7.5c-3,0-5.4,2.4-5.4,5.4v32.6c0,3,2.4,5.4,5.4,5.4
		h5.4v32.6c0,3,2.4,5.4,5.4,5.4h76c3,0,5.4-2.4,5.4-5.4v-32.6h5.4c3,0,5.4-2.4,5.4-5.4v-32.6c0-3-2.4-5.4-5.4-5.4h-7.1l9.9-17.7
		C208,304.4,210.3,285.5,205.5,267.8L205.5,267.8z M180,408.8h-65.2v-27.2h65.2L180,408.8L180,408.8z M190.8,370.8h-87V349h86.9
		L190.8,370.8L190.8,370.8z M189.5,315.1l-12.8,23h-58.6l-4.8-9.5c-2.6-5.3-4-11.1-4-17v-52.9c0-4.3,0.7-8.6,2.2-12.7l46.3-130.4
		c1.6-5.8,7.5-9.2,13.3-7.7c2.8,0.7,5.2,2.6,6.6,5.1c1.4,2.4,1.8,5.3,1.2,8l-23.2,70.5c-8,5-11.7,14.7-9.2,23.8l12.8,47.7
		c0.8,2.9,3.8,4.6,6.7,3.8s4.6-3.7,3.8-6.6l-12.8-47.7c-1.3-5,1-10.2,5.6-12.6l0.1-0.1c0.7-0.3,1.3-0.5,2-0.7
		c5.8-1.6,11.8,1.9,13.3,7.7l17.1,63.7C199.1,285.6,197.1,301.5,189.5,315.1z"/>
	<path d="M288.6,202.4c-12,0-21.7,9.7-21.7,21.7s9.7,21.7,21.7,21.7s21.7-9.7,21.7-21.7S300.6,202.4,288.6,202.4z M288.6,234.9
		c-6,0-10.9-4.8-10.9-10.9c0-6,4.8-10.9,10.9-10.9c6,0,10.9,4.8,10.9,10.9S294.6,234.9,288.6,234.9z"/>
	<path d="M223.4,186.1c12,0,21.7-9.7,21.7-21.7s-9.7-21.7-21.7-21.7s-21.7,9.7-21.7,21.7S211.4,186.1,223.4,186.1z M223.4,153.5
		c6,0,10.9,4.8,10.9,10.9c0,6-4.8,10.9-10.9,10.9c-6,0-10.9-4.8-10.9-10.9C212.5,158.3,217.4,153.5,223.4,153.5z"/>
</g>
</svg>
