<?xml version="1.0" encoding="utf-8"?>
<!-- Generator: Adobe Illustrator 19.0.0, SVG Export Plug-In . SVG Version: 6.00 Build 0)  -->
<svg version="1.1" id="Layer_1" xmlns="http://www.w3.org/2000/svg" xmlns:xlink="http://www.w3.org/1999/xlink" x="0px" y="0px"
	 viewBox="0 0 512 512" style="enable-background:new 0 0 512 512;" xml:space="preserve">
<style type="text/css">
	.st0{fill:#FFFFFF;}
	.st1{fill:#CFE07F;}
	.st2{fill:#FFD421;}
	.st3{fill:#E0E8FC;}
	.st4{fill:#CBD4EC;}
	.st5{fill:#9CCB3C;}
	.st6{fill:#DCE11F;}
	.st7{fill:#010101;}
	.st8{fill:#AEC7FF;}
	.st9{fill:#2B2B2B;}
</style>
<circle id="XMLID_2_" class="st0" cx="256.7" cy="256.7" r="254.3"/>
<g id="Tracking">
	<path id="XMLID_25_" class="st1" d="M329.7,286.3c-3.1,0-5.7-2.5-5.7-5.7v-51c0-3.1,2.5-5.7,5.7-5.7h39.6L350,204.7
		c-2.1-2.1-5-3.3-8-3.3H137v136c0,6.3,5,11.3,11.3,11.3h260.6c6.3,0,11.3-5,11.3-11.3v-51L329.7,286.3L329.7,286.3z"/>
	<path id="XMLID_24_" class="st2" d="M227.7,201.4c0,37.5-30.4,68-68,68c-7.7,0-15.4-1.3-22.6-3.9c-35.4-12.5-54-51.4-41.4-86.8
		s51.4-54,86.7-41.5C209.5,146.9,227.7,172.5,227.7,201.4z"/>
	<path id="XMLID_23_" class="st3" d="M193.6,190c0,22.6-34,56.6-34,56.6s-34-33.9-34-56.6c0-18.8,15.2-34,34-34
		S193.6,171.2,193.6,190z"/>
	<circle id="XMLID_22_" class="st2" cx="159.7" cy="190" r="11.3"/>
	<path id="XMLID_21_" class="st4" d="M420.3,275v11.3h-90.6c-3.1,0-5.7-2.5-5.7-5.7v-51c0-3.1,2.5-5.7,5.7-5.7h39.6L420.3,275z"/>
	<path id="XMLID_20_" class="st5" d="M137,297.6h283.2l0,0v39.6c0,6.3-5,11.3-11.3,11.3H148.3c-6.3,0-11.3-5-11.3-11.3V297.6
		L137,297.6z"/>
	<circle id="XMLID_19_" class="st6" cx="199.4" cy="348.6" r="34"/>
	<circle id="XMLID_18_" class="st6" cx="358" cy="348.6" r="34"/>
	<path id="XMLID_42_" class="st7" d="M424.3,270.9L354,200.7c-3.2-3.2-7.5-5-12-5h-97.3V207H273v85h11.3v-85H342
		c1.5,0,2.9,0.6,4,1.6l9.7,9.7h-26c-6.3,0-11.3,5-11.3,11.3v51c0,6.3,5,11.3,11.3,11.3h85v45.3c0,3.1-2.5,5.7-5.7,5.7h-11.8
		c-3.1-21.6-23.2-36.7-44.8-33.6c-17.4,2.5-31,16.2-33.6,33.6h-80.3c-3.1-21.6-23.2-36.7-44.8-33.6c-17.4,2.5-31,16.2-33.6,33.6
		h-11.8c-3.1,0-5.7-2.5-5.7-5.7v-51h-11.3v51c0,9.4,7.6,17,17,17h11.8c1.2,8.6,5.3,16.6,11.5,22.6H86.1v11.4H358
		c19.7-0.1,36.4-14.5,39.2-34H409c9.4,0,17-7.6,17-17V275C425.9,273.5,425.4,272,424.3,270.9z M171,348.6
		c0-15.6,12.7-28.3,28.3-28.3s28.3,12.7,28.3,28.3S214.9,377,199.3,377S171.1,364.3,171,348.6z M227.1,377
		c6.2-6.1,10.3-14.1,11.5-22.6h80.2c1.2,8.6,5.3,16.6,11.5,22.6H227.1z M358,377c-15.6,0-28.3-12.7-28.3-28.3s12.7-28.3,28.3-28.3
		c15.6,0,28.3,12.7,28.3,28.3S373.6,377,358,377z M329.7,280.6v-51H367l47.7,47.7v3.3L329.7,280.6L329.7,280.6z"/>
	<rect id="XMLID_12_" x="193.6" y="343" class="st7" width="11.3" height="11.3"/>
	<rect id="XMLID_11_" x="352.3" y="343" class="st7" width="11.3" height="11.3"/>
	<rect id="XMLID_10_" x="86.1" y="326" class="st8" width="28.3" height="11.3"/>
	<rect id="XMLID_9_" x="97.4" y="303.3" class="st8" width="17" height="11.3"/>
	<rect id="XMLID_8_" x="103.1" y="280.6" class="st8" width="11.3" height="11.3"/>
	<path id="XMLID_34_" class="st7" d="M159.7,275c40.7,0,73.7-33,73.7-73.7s-33-73.7-73.7-73.7S86,160.6,86,201.3
		C86.1,242,119,274.9,159.7,275z M159.7,139c34.5,0,62.3,27.9,62.3,62.3s-27.9,62.3-62.3,62.3s-62.3-27.8-62.3-62.2
		C97.4,166.9,125.3,139.1,159.7,139z"/>
	<path id="XMLID_31_" class="st7" d="M159.7,252.3c1.5,0,2.9-0.6,4-1.6c3.6-3.6,35.7-36.4,35.7-60.6c0-21.9-17.7-39.6-39.6-39.6
		s-39.6,17.7-39.6,39.6c0,24.3,32,57,35.7,60.6C156.7,251.7,158.2,252.3,159.7,252.3z M159.7,161.7c15.6,0,28.3,12.7,28.3,28.3
		c0,14.5-17.8,37-28.3,48.4c-10.5-11.5-28.3-33.9-28.3-48.4C131.4,174.3,144.1,161.7,159.7,161.7z"/>
	<path id="XMLID_28_" class="st9" d="M176.7,190c0-9.4-7.6-17-17-17s-17,7.6-17,17c0,9.3,7.6,17,17,17S176.7,199.4,176.7,190z
		 M154,190c0-3.1,2.5-5.7,5.7-5.7c3.1,0,5.7,2.5,5.7,5.7c0,3.1-2.5,5.7-5.7,5.7C156.5,195.7,154,193.1,154,190z"/>
	<rect id="XMLID_1_" x="301.3" y="303.3" class="st7" width="22.6" height="11.3"/>
</g>
</svg>
