<?xml version="1.0" encoding="utf-8"?>
<!-- Generator: Adobe Illustrator 19.0.0, SVG Export Plug-In . SVG Version: 6.00 Build 0)  -->
<svg version="1.1" id="Layer_5" xmlns="http://www.w3.org/2000/svg" xmlns:xlink="http://www.w3.org/1999/xlink" x="0px" y="0px"
	 viewBox="0 0 512 512" style="enable-background:new 0 0 512 512;" xml:space="preserve">
<style type="text/css">
	.st0{fill:#FFFFFF;}
	.st1{fill:#E8F4FC;}
	.st2{fill:#90BDF4;}
	.st3{fill:#CCD1D9;}
	.st4{fill:#FF2400;}
	.st5{fill:#B4DD7F;}
	.st6{fill:#A0D468;}
	.st7{fill:#5AE0FF;}
	.st8{fill:#49E500;}
	.st9{fill:#FCD770;}
</style>
<circle id="XMLID_1_" class="st0" cx="256.7" cy="256.7" r="254.3"/>
<g>
	<path class="st1" d="M199.8,378.8c0.3,1.8,0.4,3.7,0.4,5.6c0,21.6-17.4,39.1-39.1,39.1s-39.1-17.4-39.1-39.1c0-1.9,0.1-3.8,0.4-5.6
		c2.7-19,18.9-33.5,38.6-33.5S197.1,359.8,199.8,378.8z"/>
	<path class="st1" d="M400.7,378.8c0.3,1.8,0.4,3.7,0.4,5.6c0,21.6-17.4,39.1-39.1,39.1S323,406,323,384.4c0-1.9,0.1-3.8,0.4-5.6
		c2.7-19,18.9-33.5,38.6-33.5S398,359.8,400.7,378.8z"/>
	<path class="st2" d="M323,378.8l-16.7,22.3h-89.3l-16.7-22.3H323z"/>
	<g>
		<path class="st3" d="M367.6,345.3h44.6c6.1,0,11.2,5,11.2,11.2v11.2c0,6.1-5,11.2-11.2,11.2h-11.6c-2.7-19-18.9-33.5-38.6-33.5
			H367.6z"/>
		<path class="st3" d="M278.3,345.3H362c-19.7,0-35.9,14.5-38.6,33.5H323H200.2h-0.4c-2.7-19-18.9-33.5-38.6-33.5h61.4H256H278.3z"
			/>
		<path class="st3" d="M161.1,345.3c-19.7,0-35.9,14.5-38.6,33.5H99.7c-6.1,0-11.2-5-11.2-11.2v-11.2c0-6.1,5-11.2,11.2-11.2h22.3
			H161.1z"/>
		<circle class="st3" cx="161.1" cy="384.4" r="11.2"/>
		<circle class="st3" cx="362" cy="384.4" r="11.2"/>
	</g>
	<path class="st4" d="M412.3,299V323h-11.2c-6.1,0-11.2-5-11.2-11.2v-11.2c0-6.1,5-11.2,11.2-11.2h9.8
		C411.8,292.6,412.3,295.8,412.3,299z"/>
	<path class="st5" d="M412.3,323v22.3h-44.6v-67v-11.2v-33.5c0-6.1-5-11.2-11.2-11.2h-67c-6.1,0-11.2,5-11.2,11.2v44.6v22.3v44.6
		H256V233.7c0-18.5,15-33.5,33.5-33.5h64c17.4,0,31.9,13.3,33.3,30.7l3,36.3l3.8,1.9c8.4,4.3,14.5,11.6,17.2,20.4H401
		c-6.1,0-11.2,5-11.2,11.2v11.2c0,6.1,5,11.2,11.2,11.2H412.3z"/>
	<path class="st6" d="M278.3,300.6v-22.3h67h22.3v67H362h-83.7V300.6z"/>
	<path class="st7" d="M367.6,233.7v33.5c0-6.1-5-11.2-11.2-11.2h-11.2c-3.1,0-5.9,1.3-7.9,3.3c-2.1,2-3.3,4.8-3.3,7.9
		c0,6.1,5,11.2,11.2,11.2h-67v-44.6c0-6.1,5-11.2,11.2-11.2h67C362.6,222.5,367.6,227.5,367.6,233.7z"/>
	<path class="st3" d="M367.6,267.2v11.2h-22.3c-6.1,0-11.2-5-11.2-11.2c0-3.1,1.3-5.9,3.3-7.9c2-2.1,4.8-3.3,7.9-3.3h11.2
		C362.6,256,367.6,261,367.6,267.2z"/>
	<path class="st8" d="M110.9,334.1v-67c0-6.1,5-11.2,11.2-11.2h33.5v33.5H189V256h33.5c6.1,0,11.2,5,11.2,11.2v67
		c0,6.1-5,11.2-11.2,11.2h-61.4h-39.1C115.9,345.3,110.9,340.3,110.9,334.1z"/>
	<path class="st9" d="M189,256v33.5h-33.5V256h16.7H189z"/>
	<path class="st8" d="M221.1,112.3c7.9,10.3,12.6,23.1,12.6,37c0,11.4-3.2,22.5-9.2,32.2l-43.7,69.8c-1.8,2.9-5.1,4.7-8.5,4.7
		c-3.4,0-6.7-1.8-8.5-4.7l-43.7-69.8c-6-9.6-9.2-20.8-9.2-32.2c0-33.6,27.2-60.7,60.7-60.7h1.3c16.7,0,31.9,6.8,42.9,17.8
		C217.7,108.3,219.5,110.2,221.1,112.3L221.1,112.3z"/>
	<path class="st9" d="M204.9,128.5c4,6.1,6.4,13.5,6.4,21.5c0,21.6-17.4,39.1-39.1,39.1s-39.1-17.4-39.1-39.1s17.4-39.1,39.1-39.1
		C185.9,110.9,197.9,117.9,204.9,128.5z"/>
	<path d="M362,367.6c-9.2,0-16.7,7.5-16.7,16.7s7.5,16.7,16.7,16.7s16.7-7.5,16.7-16.7S371.2,367.6,362,367.6z M362,389.9
		c-3.1,0-5.6-2.5-5.6-5.6c0-3.1,2.5-5.6,5.6-5.6c3.1,0,5.6,2.5,5.6,5.6C367.6,387.4,365.1,389.9,362,389.9z"/>
	<path d="M161.1,367.6c-9.2,0-16.7,7.5-16.7,16.7s7.5,16.7,16.7,16.7c9.2,0,16.7-7.5,16.7-16.7S170.3,367.6,161.1,367.6z
		 M161.1,389.9c-3.1,0-5.6-2.5-5.6-5.6c0-3.1,2.5-5.6,5.6-5.6c3.1,0,5.6,2.5,5.6,5.6C166.7,387.4,164.2,389.9,161.1,389.9z"/>
	<path d="M417.8,340.8V299c0-14.9-8.3-28.3-21.6-34.9l-1-0.5l-2.8-33.1c-1.7-20.1-18.8-35.9-38.9-35.9h-64
		c-21.6,0-39.1,17.5-39.1,39.1v106h-12.2c0.6-1.7,1-3.6,1-5.6v-67c0-9.2-7.5-16.7-16.7-16.7h-34.6l41.2-66
		c6.6-10.5,10.1-22.7,10.1-35.2c0-13.4-4-25.9-10.9-36.3l14.9-14.9l-7.9-7.9l-14,14C209.3,91.2,192.1,83,173,83h-1.4
		c-36.6,0-66.3,29.7-66.3,66.3c0,12.4,3.5,24.6,10,35.2l41.2,66h-34.5c-9.2,0-16.7,7.5-16.7,16.7v67c0,2,0.4,3.8,1,5.6h-6.6
		c-9.2,0-16.7,7.5-16.7,16.7v11.2c0,9.2,7.5,16.7,16.7,16.7h16.7c0,24.6,20,44.6,44.6,44.6c21.3,0,39.1-15,43.5-34.9l9.5,12.6H309
		l9.5-12.6C323,414,340.8,429,362,429c24.6,0,44.6-20,44.6-44.6h5.6c9.2,0,16.7-7.5,16.7-16.7v-11.2
		C429,349.2,424.3,343.1,417.8,340.8L417.8,340.8z M116.5,149.3c0-30.4,24.8-55.1,55.1-55.1h1.3c16,0,30.4,6.9,40.5,17.9l-8.1,8.1
		c-8.2-9.1-20-14.8-33.1-14.8c-24.6,0-44.6,20-44.6,44.6s20,44.6,44.6,44.6s44.6-20,44.6-44.6c0-7.4-1.8-14.4-5-20.5l8.4-8.4
		c4.9,8.2,7.8,17.9,7.8,28.2c0,10.3-2.9,20.4-8.4,29.2l-43.6,69.8c-1.7,2.7-5.9,2.7-7.6,0l-43.7-69.8
		C119.4,169.8,116.5,159.7,116.5,149.3L116.5,149.3z M172.3,169l31.2-31.2c1.5,3.8,2.3,7.8,2.3,12.1c0,18.5-15,33.5-33.5,33.5
		s-33.5-15-33.5-33.5s15-33.5,33.5-33.5c10,0,19.1,4.5,25.3,11.5l-25.3,25.3l-12.8-12.8l-7.9,7.9L172.3,169z M406.7,299v18.3h-5.6
		c-3.1,0-5.6-2.5-5.6-5.6v-11.2c0-3.1,2.5-5.6,5.6-5.6h5.3C406.6,296.4,406.7,297.7,406.7,299z M261.6,233.7
		c0-15.4,12.5-27.9,27.9-27.9h64c14.4,0,26.6,11.2,27.8,25.6l3.3,39.4l6.6,3.3c4.6,2.3,8.3,5.7,11,9.8h-1.1
		c-9.2,0-16.7,7.5-16.7,16.7v11.2c0,9.2,7.5,16.7,16.7,16.7h5.6v11.2h-33.5v-55.8v-16.7v-33.5c0-9.2-7.5-16.7-16.7-16.7h-67
		c-9.2,0-16.7,7.5-16.7,16.7v106h-11.2V233.7z M318.9,373.2H204.3c-2.3-8.8-7.1-16.5-13.7-22.3h31.9h110.1
		C326,356.7,321.2,364.4,318.9,373.2z M339.7,267.2c0-3.1,2.5-5.6,5.6-5.6h11.2c3.1,0,5.6,2.5,5.6,5.6v5.6h-16.7
		C342.2,272.7,339.7,270.2,339.7,267.2z M362,251.5c-1.7-0.6-3.6-1-5.6-1h-11.2c-9.2,0-16.7,7.5-16.7,16.7c0,2,0.4,3.8,1,5.6h-45.7
		v-39.1c0-3.1,2.5-5.6,5.6-5.6h67c3.1,0,5.6,2.5,5.6,5.6V251.5z M283.9,339.7v-33.5h22.3v-11.2h-22.3v-11.2h61.4H362v55.8H283.9z
		 M161.1,261.6h22.3v22.3h-22.3V261.6z M116.5,334.1v-67c0-3.1,2.5-5.6,5.6-5.6H150v33.5h44.6v-33.5h27.9c3.1,0,5.6,2.5,5.6,5.6v67
		c0,3.1-2.5,5.6-5.6,5.6H122.1C119,339.7,116.5,337.2,116.5,334.1z M99.7,373.2c-3.1,0-5.6-2.5-5.6-5.6v-11.2c0-3.1,2.5-5.6,5.6-5.6
		h22.3h9.6c-6.6,5.8-11.4,13.5-13.7,22.3H99.7z M161.1,417.8c-18.5,0-33.5-15-33.5-33.5c0-18.5,15-33.5,33.5-33.5s33.5,15,33.5,33.5
		C194.6,402.8,179.6,417.8,161.1,417.8z M303.4,395.5h-83.7l-8.4-11.2h100.5L303.4,395.5z M362,417.8c-18.5,0-33.5-15-33.5-33.5
		c0-18.5,15-33.5,33.5-33.5s33.5,15,33.5,33.5C395.5,402.8,380.5,417.8,362,417.8z M417.8,367.6c0,3.1-2.5,5.6-5.6,5.6h-7
		c-2.3-8.8-7.1-16.5-13.7-22.3h20.8c3.1,0,5.6,2.5,5.6,5.6V367.6z"/>
	<path d="M127.6,317.4h11.2v11.2h-11.2V317.4z"/>
	<path d="M150,317.4h11.2v11.2H150V317.4z"/>
	<path d="M172.3,317.4h11.2v11.2h-11.2V317.4z"/>
	<path d="M155.5,205.8h11.2v11.2h-11.2V205.8z"/>
	<path d="M177.9,205.8H189v11.2h-11.2V205.8z"/>
</g>
</svg>
