<?xml version="1.0" encoding="utf-8"?>
<!-- Generator: Adobe Illustrator 24.0.1, SVG Export Plug-In . SVG Version: 6.00 Build 0)  -->
<svg version="1.1" id="Layer_1" xmlns="http://www.w3.org/2000/svg" xmlns:xlink="http://www.w3.org/1999/xlink" x="0px" y="0px"
	 viewBox="0 0 50 50" style="enable-background:new 0 0 50 50;" xml:space="preserve">
<style type="text/css">
	.st0{fill:#E72175;}
	.st1{fill:#FFFFFF;}
</style>
<path class="st0" d="M40.5,49.6H9.9c-5.1,0-9.2-4.1-9.2-9.2V9.7c0-5.1,4.1-9.2,9.2-9.2h30.7c5.1,0,9.2,4.1,9.2,9.2v30.7
	C49.8,45.5,45.6,49.6,40.5,49.6z"/>
<path class="st1" d="M25.2,13.8c5.9,0,10.7,4.5,11.2,10.2h-9.2v-3.1c0-0.4-0.2-0.8-0.6-0.9c-0.4-0.2-0.8-0.1-1.1,0.2l-4.1,4.1
	c-0.4,0.4-0.4,1,0,1.4l4.1,4.1c0.3,0.3,0.7,0.4,1.1,0.2c0.4-0.2,0.6-0.5,0.6-0.9v-3.1h9.2c-0.5,5.7-5.3,10.2-11.2,10.2
	c-6.2,0-11.2-5-11.2-11.2S19,13.8,25.2,13.8z"/>
</svg>
