<?xml version="1.0" encoding="utf-8"?>
<!-- Generator: Adobe Illustrator 19.0.0, SVG Export Plug-In . SVG Version: 6.00 Build 0)  -->
<svg version="1.1" id="Layer_1" xmlns="http://www.w3.org/2000/svg" xmlns:xlink="http://www.w3.org/1999/xlink" x="0px" y="0px"
	 viewBox="0 0 512 512" style="enable-background:new 0 0 512 512;" xml:space="preserve">
<style type="text/css">
	.st0{fill:#FFFFFF;}
	.st1{fill:#EFF8FD;}
	.st2{fill:#6FBE44;}
	.st3{fill:#8EB3DF;}
	.st4{fill:#EEBE9A;}
	.st5{fill:#78B75A;}
	.st6{fill:#4370B7;}
	.st7{fill:#010101;}
	.st8{fill:#D3E9CA;}
	.st9{fill:#FFE5D4;}
	.st10{fill:#F9FF00;}
	.st11{fill:#99A504;}
</style>
<circle id="XMLID_1_" class="st0" cx="256.7" cy="256.7" r="254.3"/>
<g>
	<path class="st1" d="M304.4,362.5h87.1c5.3,0,9.7,4.4,9.7,9.7v9.7H294.7v-9.7C294.7,366.8,299.1,362.5,304.4,362.5z"/>
	<path class="st2" d="M314.1,362.5v-9.7c0-5.3,4.4-9.7,9.7-9.7h48.4c5.3,0,9.7,4.4,9.7,9.7v9.7"/>
	<path class="st2" d="M304.4,381.8v19.4h87.1v-19.4"/>
	<path class="st3" d="M367.3,323.7V149.5h-38.7v-38.7H144.7v212.9"/>
	<path class="st2" d="M338.3,343.1v-13.3c0-13.5-3.1-26.9-9.2-39l-0.5-1V285c0-10.7,8.6-19.4,19.4-19.4s19.4,8.6,19.4,19.4v4.8
		l-0.5,1c-6,12.1-9.2,25.4-9.2,39v13.3"/>
	<path class="st1" d="M144.7,287.1c9.4,1.8,19.1,2.8,29,2.8c77.5,0,140.3-57.4,140.3-128.2c0-18-4.1-35.2-11.5-50.8H144.7V287.1z"/>
	<path class="st4" d="M115.7,323.7h67.7l19.4-19.4v-29h4.8c8,0,14.5,6.5,14.5,14.5v33.9h48.4v67.7c0,5.3-4.4,9.7-9.7,9.7h-58.1
		l-19.4-9.7h-29"/>
	<path class="st5" d="M110.8,323.7h58.1v67.7h-58.1V323.7z"/>
	<circle class="st6" cx="275.4" cy="236.6" r="48.4"/>
	<path class="st2" d="M367.3,149.5l-38.7-38.7v38.7H367.3z"/>
	<path class="st7" d="M164.1,323.7h9.7v67.7h-9.7V323.7z"/>
	<path class="st7" d="M260.8,406h-58.1c-0.7,0-1.5-0.2-2.2-0.5l-18.3-9.2H106v-9.7h77.4c0.7,0,1.5,0.2,2.2,0.5l18.3,9.2h56.9
		c2.7,0,4.8-2.2,4.8-4.8v-4.8H227V377h43.5c2.7,0,4.8,2.2,4.8,4.8v9.7C275.4,399.5,268.8,406,260.8,406z"/>
	<path class="st7" d="M270.5,386.6H227V377h38.7v-9.7H227v-9.7h43.5c2.7,0,4.8,2.2,4.8,4.8v19.4
		C275.4,384.5,273.2,386.6,270.5,386.6z"/>
	<path class="st7" d="M270.5,367.3H227v-9.7h38.7v-9.7H227v-9.7h43.5c2.7,0,4.8,2.2,4.8,4.8v19.4
		C275.4,365.1,273.2,367.3,270.5,367.3z"/>
	<path class="st7" d="M270.5,347.9H227v-9.7h38.7v-9.7h-43.5c-2.7,0-4.8-2.2-4.8-4.8v-33.9c0-5.3-4.4-9.7-9.7-9.7v24.2
		c0,1.3-0.5,2.5-1.4,3.4l-19.4,19.4c-0.9,0.9-2.1,1.4-3.4,1.4H106v-9.7h75.4l16.5-16.5v-27c0-2.7,2.2-4.8,4.8-4.8h4.8
		c10.6,0,19.4,8.7,19.4,19.4v29h43.5c2.7,0,4.8,2.2,4.8,4.8v19.4C275.4,345.8,273.2,347.9,270.5,347.9z"/>
	<path class="st7" d="M401.2,386.6H294.7c-2.7,0-4.8-2.2-4.8-4.8v-9.7c0-8,6.5-14.5,14.5-14.5h87.1c8,0,14.5,6.5,14.5,14.5v9.7
		C406,384.5,403.8,386.6,401.2,386.6z M299.5,377h96.8v-4.8c0-2.7-2.2-4.8-4.8-4.8h-87.1c-2.7,0-4.8,2.2-4.8,4.8V377z"/>
	<path class="st7" d="M386.6,362.5H377v-9.7c0-2.7-2.2-4.8-4.8-4.8h-48.4c-2.7,0-4.8,2.2-4.8,4.8v9.7h-9.7v-9.7
		c0-8,6.5-14.5,14.5-14.5h48.4c8,0,14.5,6.5,14.5,14.5V362.5z"/>
	<path class="st7" d="M362.5,343.1h-9.7v-13.3c0-14.2,3.3-28.4,9.7-41.1V285c0-8-6.5-14.5-14.5-14.5s-14.5,6.5-14.5,14.5v3.7
		c6.4,12.7,9.7,26.9,9.7,41.1v13.3h-9.7v-13.3c0-12.7-3-25.4-8.7-36.8l-0.5-1c-0.4-0.7-0.5-1.4-0.5-2.2V285
		c0-13.4,10.8-24.2,24.2-24.2c13.4,0,24.2,10.8,24.2,24.2v4.8c0,0.7-0.2,1.5-0.5,2.2l-0.5,1c-5.7,11.4-8.7,24.1-8.7,36.8V343.1z"/>
	<path class="st7" d="M391.5,406h-87.1c-2.7,0-4.8-2.2-4.8-4.8v-19.4h9.7v14.5h77.4v-14.5h9.7v19.4C396.3,403.8,394.1,406,391.5,406
		z"/>
	<path class="st7" d="M149.5,323.7h-9.7V110.8c0-2.7,2.2-4.8,4.8-4.8h183.9c2.7,0,4.8,2.2,4.8,4.8v33.9h33.9c2.7,0,4.8,2.2,4.8,4.8
		V256h-9.7V154.4h-33.9c-2.7,0-4.8-2.2-4.8-4.8v-33.9H149.5V323.7z"/>
	<path class="st7" d="M325.1,114.3l6.8-6.8l38.7,38.7l-6.8,6.8L325.1,114.3z"/>
	<path class="st7" d="M159.2,125.4h154.8v9.7H159.2V125.4z"/>
	<path class="st7" d="M159.2,144.7h154.8v9.7H159.2V144.7z"/>
	<path class="st7" d="M159.2,164.1h154.8v9.7H159.2V164.1z"/>
	<path class="st7" d="M275.4,289.9c-29.3,0-53.2-23.9-53.2-53.2s23.9-53.2,53.2-53.2s53.2,23.9,53.2,53.2S304.7,289.9,275.4,289.9z
		 M275.4,193.1c-24,0-43.5,19.5-43.5,43.5s19.5,43.5,43.5,43.5c24,0,43.5-19.5,43.5-43.5S299.4,193.1,275.4,193.1z"/>
	<path class="st8" d="M275.4,265.7c-1.3,0-2.5-0.5-3.4-1.4l-19.4-19.4l6.8-6.8l14.2,14.2l16.6-41.6l9,3.6l-19.4,48.4
		c-0.6,1.5-1.9,2.6-3.5,3C276,265.6,275.7,265.7,275.4,265.7L275.4,265.7z"/>
	<path class="st1" d="M304.4,362.5h87.1c5.3,0,9.7,4.4,9.7,9.7v9.7H294.7v-9.7C294.7,366.8,299.1,362.5,304.4,362.5z"/>
	<path class="st9" d="M314.1,362.5v-9.7c0-5.3,4.4-9.7,9.7-9.7h48.4c5.3,0,9.7,4.4,9.7,9.7v9.7"/>
	<path class="st2" d="M304.4,381.8v19.4h87.1v-19.4"/>
	<path class="st10" d="M367.3,323.7V149.5h-38.7v-38.7H144.7v212.9"/>
	<path class="st9" d="M338.3,343.1v-13.3c0-13.5-3.1-26.9-9.2-39l-0.5-1V285c0-10.7,8.6-19.4,19.4-19.4s19.4,8.6,19.4,19.4v4.8
		l-0.5,1c-6,12.1-9.2,25.4-9.2,39v13.3"/>
	<path class="st1" d="M144.7,287.1c9.4,1.8,19.1,2.8,29,2.8c77.5,0,140.3-57.4,140.3-128.2c0-18-4.1-35.2-11.5-50.8H144.7V287.1z"/>
	<path class="st9" d="M115.7,323.7h67.7l19.4-19.4v-29h4.8c8,0,14.5,6.5,14.5,14.5v33.9h48.4v67.7c0,5.3-4.4,9.7-9.7,9.7h-58.1
		l-19.4-9.7h-29"/>
	<path class="st5" d="M110.8,323.7h58.1v67.7h-58.1V323.7z"/>
	<circle class="st11" cx="275.4" cy="236.6" r="48.4"/>
	<path class="st2" d="M367.3,149.5l-38.7-38.7v38.7H367.3z"/>
	<path class="st7" d="M164.1,323.7h9.7v67.7h-9.7V323.7z"/>
	<path class="st7" d="M260.8,406h-58.1c-0.7,0-1.5-0.2-2.2-0.5l-18.3-9.2H106v-9.7h77.4c0.7,0,1.5,0.2,2.2,0.5l18.3,9.2h56.9
		c2.7,0,4.8-2.2,4.8-4.8v-4.8H227V377h43.5c2.7,0,4.8,2.2,4.8,4.8v9.7C275.4,399.5,268.8,406,260.8,406z"/>
	<path class="st7" d="M270.5,386.6H227V377h38.7v-9.7H227v-9.7h43.5c2.7,0,4.8,2.2,4.8,4.8v19.4
		C275.4,384.5,273.2,386.6,270.5,386.6z"/>
	<path class="st7" d="M270.5,367.3H227v-9.7h38.7v-9.7H227v-9.7h43.5c2.7,0,4.8,2.2,4.8,4.8v19.4
		C275.4,365.1,273.2,367.3,270.5,367.3z"/>
	<path class="st7" d="M270.5,347.9H227v-9.7h38.7v-9.7h-43.5c-2.7,0-4.8-2.2-4.8-4.8v-33.9c0-5.3-4.4-9.7-9.7-9.7v24.2
		c0,1.3-0.5,2.5-1.4,3.4l-19.4,19.4c-0.9,0.9-2.1,1.4-3.4,1.4H106v-9.7h75.4l16.5-16.5v-27c0-2.7,2.2-4.8,4.8-4.8h4.8
		c10.6,0,19.4,8.7,19.4,19.4v29h43.5c2.7,0,4.8,2.2,4.8,4.8v19.4C275.4,345.8,273.2,347.9,270.5,347.9z"/>
	<path class="st7" d="M401.2,386.6H294.7c-2.7,0-4.8-2.2-4.8-4.8v-9.7c0-8,6.5-14.5,14.5-14.5h87.1c8,0,14.5,6.5,14.5,14.5v9.7
		C406,384.5,403.8,386.6,401.2,386.6z M299.5,377h96.8v-4.8c0-2.7-2.2-4.8-4.8-4.8h-87.1c-2.7,0-4.8,2.2-4.8,4.8V377z"/>
	<path class="st7" d="M386.6,362.5H377v-9.7c0-2.7-2.2-4.8-4.8-4.8h-48.4c-2.7,0-4.8,2.2-4.8,4.8v9.7h-9.7v-9.7
		c0-8,6.5-14.5,14.5-14.5h48.4c8,0,14.5,6.5,14.5,14.5V362.5z"/>
	<path class="st7" d="M362.5,343.1h-9.7v-13.3c0-14.2,3.3-28.4,9.7-41.1V285c0-8-6.5-14.5-14.5-14.5s-14.5,6.5-14.5,14.5v3.7
		c6.4,12.7,9.7,26.9,9.7,41.1v13.3h-9.7v-13.3c0-12.7-3-25.4-8.7-36.8l-0.5-1c-0.4-0.7-0.5-1.4-0.5-2.2V285
		c0-13.4,10.8-24.2,24.2-24.2c13.4,0,24.2,10.8,24.2,24.2v4.8c0,0.7-0.2,1.5-0.5,2.2l-0.5,1c-5.7,11.4-8.7,24.1-8.7,36.8V343.1z"/>
	<path class="st7" d="M391.5,406h-87.1c-2.7,0-4.8-2.2-4.8-4.8v-19.4h9.7v14.5h77.4v-14.5h9.7v19.4C396.3,403.8,394.1,406,391.5,406
		z"/>
	<path class="st7" d="M149.5,323.7h-9.7V110.8c0-2.7,2.2-4.8,4.8-4.8h183.9c2.7,0,4.8,2.2,4.8,4.8v33.9h33.9c2.7,0,4.8,2.2,4.8,4.8
		V256h-9.7V154.4h-33.9c-2.7,0-4.8-2.2-4.8-4.8v-33.9H149.5V323.7z"/>
	<path class="st7" d="M325.1,114.3l6.8-6.8l38.7,38.7l-6.8,6.8L325.1,114.3z"/>
	<path class="st7" d="M159.2,125.4h154.8v9.7H159.2V125.4z"/>
	<path class="st7" d="M159.2,144.7h154.8v9.7H159.2V144.7z"/>
	<path class="st7" d="M159.2,164.1h154.8v9.7H159.2V164.1z"/>
	<path class="st7" d="M275.4,289.9c-29.3,0-53.2-23.9-53.2-53.2s23.9-53.2,53.2-53.2s53.2,23.9,53.2,53.2S304.7,289.9,275.4,289.9z
		 M275.4,193.1c-24,0-43.5,19.5-43.5,43.5s19.5,43.5,43.5,43.5c24,0,43.5-19.5,43.5-43.5S299.4,193.1,275.4,193.1z"/>
	<path class="st7" d="M275.4,265.7c-1.3,0-2.5-0.5-3.4-1.4l-19.4-19.4l6.8-6.8l14.2,14.2l16.6-41.6l9,3.6l-19.4,48.4
		c-0.6,1.5-1.9,2.6-3.5,3C276,265.6,275.7,265.7,275.4,265.7L275.4,265.7z"/>
</g>
</svg>
