<?xml version="1.0" encoding="utf-8"?>
<!-- Generator: Adobe Illustrator 19.0.0, SVG Export Plug-In . SVG Version: 6.00 Build 0)  -->
<svg version="1.1" id="Layer_1" xmlns="http://www.w3.org/2000/svg" xmlns:xlink="http://www.w3.org/1999/xlink" x="0px" y="0px"
	 viewBox="0 0 512 512" style="enable-background:new 0 0 512 512;" xml:space="preserve">
<style type="text/css">
	.st0{fill:#FFFFFF;}
	.st1{fill:#BBCE05;}
	.st2{fill:#1E1E1E;}
</style>
<circle id="XMLID_2_" class="st0" cx="255.3" cy="256.7" r="254.3"/>
<g>
	<path class="st1" d="M256.2,428.4c-35.8,0-71.5,0.1-107.3,0c-39.5-0.1-65.8-26.3-65.9-65.7c-0.1-71.5-0.1-143,0-214.5
		c0.1-39,26.5-65.4,65.4-65.5c71.8-0.1,143.6-0.1,215.3,0c38.5,0.1,65,26.5,65,65c0.1,72.1,0.1,144,0,216.1
		c-0.1,38-26.6,64.6-64.6,64.7C328.2,428.5,292.2,428.4,256.2,428.4z M305.3,277.9c0-7.1,0-12.5,0-17.9
		c-0.1-12.9-4.1-16.8-17.2-16.8c-20.8,0-41.7-0.2-62.5,0.1c-5.2,0.1-7.2-0.8-6.9-6.5c0.6-8.7,0-17.5,0.2-26.2
		c0.1-6.8-0.6-13.1-8-15.8c-6.9-2.6-11.8,1-16.4,5.6c-22.5,22.6-45.1,45.1-67.7,67.7c-9.4,9.4-9.4,15.2,0.2,24.8
		c17.3,17.3,34.5,34.6,51.8,51.8c5.8,5.8,11.6,11.7,17.5,17.5c4.2,4.1,9.1,6.1,14.7,3.6c5.6-2.4,7.9-6.9,7.7-13
		c-0.2-5.2-0.1-10.3,0-15.4c0.1-6.4-2.1-14.7,1.1-18.6c3.4-4.1,12-0.8,18.4-1.3c1.3-0.1,2.5,0.1,3.9,0c8.5-0.6,13.8-5.5,13.6-12.6
		c-0.2-7.2-5.5-11.9-14.1-12c-11.1-0.2-22.1-0.2-33.2,0c-9.6,0.2-14,4.7-14.3,14.2c-0.2,5.4-0.1,10.9-0.1,18.2
		c-14.6-14.8-27.9-28.1-41-41.5c-1.5-1.5-4-2.8-1.2-5.6c13.8-13.6,27.4-27.4,42.2-42.2c0,6,0,10.3,0,14.6
		c0.1,13.6,3.8,17.5,17.3,17.5c21.1,0,42.1,0.1,63.3-0.1c4.7-0.1,6.2,1,6,5.9c-0.4,10-0.1,20.1-0.1,30.1c0,5.7,2.4,10,7.6,12.4
		c5,2.3,9.4,1,13.5-2.5c28.3-24.3,56.7-48.4,84.8-72.8c7.4-6.5,7.2-14-0.3-20.4c-27.6-23.8-55.4-47.5-83.1-71.2
		c-4.6-3.9-9.3-6.2-15.4-3.2c-6.3,3-6.9,8.4-7,14.1c-0.1,9.3-0.3,18.5,0.1,27.8c0.1,4.5-0.7,6.5-5.8,6.1c-5.6-0.5-11.3-0.3-17-0.1
		c-9,0.3-14.5,5.2-14.3,12.7c0.2,7.2,5.4,11.8,14.2,12c11.1,0.2,22.1,0.2,33.2,0c9.6-0.2,14-4.7,14.2-14.3
		c0.2-6.3,0.1-12.7,0.1-20.4c18.1,15.5,35.2,30,52.3,44.6c2.1,1.7,2.4,2.8,0.1,4.7C340.7,247.7,323.6,262.3,305.3,277.9z"/>
	<path id="XMLID_1_" class="st2" d="M305.3,277.9c18.2-15.5,35.3-30.2,52.5-44.8c2.3-1.9,1.9-3-0.1-4.7
		c-17.2-14.5-34.2-29.2-52.3-44.6c0,7.7,0.1,14-0.1,20.4c-0.3,9.6-4.7,14.1-14.2,14.3c-11.1,0.3-22.1,0.2-33.2,0
		c-8.8-0.2-14-4.8-14.2-12c-0.2-7.4,5.3-12.4,14.3-12.7c5.6-0.1,11.3-0.4,17,0.1c5.1,0.5,5.9-1.6,5.8-6.1
		c-0.3-9.2-0.2-18.5-0.1-27.8c0.1-5.8,0.8-11.1,7-14.1c6.2-3,10.9-0.7,15.4,3.2c27.7,23.8,55.5,47.4,83.1,71.2
		c7.5,6.4,7.8,14,0.3,20.4c-28.2,24.4-56.6,48.5-84.8,72.8c-4.1,3.5-8.5,4.8-13.5,2.5c-5.2-2.4-7.6-6.7-7.6-12.4
		c0-10-0.3-20.1,0.1-30.1c0.2-4.9-1.3-5.9-6-5.9c-21.1,0.3-42.1,0.1-63.3,0.1c-13.5,0-17.3-3.9-17.3-17.5c0-4.3,0-8.6,0-14.6
		c-14.9,14.9-28.5,28.5-42.2,42.2c-2.8,2.8-0.3,4.1,1.2,5.6c13.1,13.3,26.4,26.7,41,41.5c0-7.3-0.1-12.7,0.1-18.2
		c0.3-9.6,4.7-14,14.3-14.2c11.1-0.2,22.1-0.2,33.2,0c8.5,0.1,13.9,5,14.1,12c0.2,7-5.2,12-13.6,12.6c-1.3,0.1-2.5-0.1-3.9,0
		c-6.3,0.5-15-2.8-18.4,1.3c-3.2,3.9-1,12.2-1.1,18.6c-0.1,5.2-0.1,10.3,0,15.4c0.2,6.1-2.1,10.6-7.7,13c-5.6,2.4-10.6,0.5-14.7-3.6
		c-5.8-5.8-11.7-11.6-17.5-17.5c-17.3-17.3-34.6-34.5-51.8-51.8c-9.6-9.6-9.6-15.3-0.2-24.8c22.6-22.6,45.1-45.1,67.7-67.7
		c4.6-4.6,9.5-8.2,16.4-5.6c7.4,2.8,8.1,9.1,8,15.8c-0.1,8.7,0.3,17.5-0.2,26.2c-0.3,5.7,1.7,6.6,6.9,6.5
		c20.8-0.3,41.7-0.1,62.5-0.1c13.1,0,17.1,3.9,17.2,16.8C305.4,265.4,305.3,270.8,305.3,277.9z"/>
</g>
</svg>
