<?xml version="1.0" encoding="utf-8"?>
<!-- Generator: Adobe Illustrator 19.0.0, SVG Export Plug-In . SVG Version: 6.00 Build 0)  -->
<svg version="1.1" id="Layer_1" xmlns="http://www.w3.org/2000/svg" xmlns:xlink="http://www.w3.org/1999/xlink" x="0px" y="0px"
	 viewBox="0 0 512 512" style="enable-background:new 0 0 512 512;" xml:space="preserve">
<style type="text/css">
	.st0{fill:#FFFFFF;}
	.st1{fill:#C8D612;}
	.st2{fill:#333333;}
	.st3{fill:#161616;}
	.st4{fill:none;stroke:#0A0A0A;stroke-width:15;stroke-miterlimit:10;}
	.st5{fill:#EADE00;}
</style>
<circle id="XMLID_5_" class="st0" cx="256.7" cy="256.7" r="254.3"/>
<g>
	<rect id="XMLID_17_" x="169.5" y="303.8" class="st1" width="63.6" height="118.1"/>
	<rect id="XMLID_19_" x="94" y="225.5" class="st1" width="323.7" height="31.3"/>
	<rect id="XMLID_18_" x="271.6" y="299.6" class="st1" width="72" height="63.3"/>
	<g id="XMLID_2_">
		<g id="XMLID_3_">
			<path id="XMLID_13_" class="st2" d="M330.1,289.9h-47.4c-12.9,0-23.5,10.6-23.5,23.5v36.4c0,12.9,10.6,23.5,23.5,23.5h47.4
				c12.9,0,23.5-10.6,23.5-23.5v-36.4C353.6,300.4,343,289.9,330.1,289.9z M336.5,349.7c0,3.6-2.9,6.4-6.4,6.4h-47.4
				c-3.6,0-6.4-2.9-6.4-6.4v-36.4c0-3.6,2.9-6.4,6.4-6.4H330c3.6,0,6.4,2.9,6.4,6.4V349.7z"/>
			<path id="XMLID_4_" class="st3" d="M431,223.9c0-1.5-0.3-2.9-1.1-4.2L378,128.5c-1.5-2.7-4.3-4.3-7.4-4.3H142.7
				c-3.1,0-5.9,1.6-7.4,4.3l-51.7,91.2c-0.7,1.3-1.1,2.7-1.1,4.2c0,20.4,12.3,38,29.9,45.7V420c0,4.7,3.8,8.5,8.5,8.5h47.3
				c0.1,0,0.1,0,0.2,0h66.2c0.1,0,0.1,0,0.2,0h157.7c4.7,0,8.5-3.8,8.5-8.5V270.7c0-0.3,0-0.6-0.1-0.9
				C418.6,262,431,244.4,431,223.9z M147.7,141.3h217.9l40.5,71.3H107.2L147.7,141.3z M330.5,229.6c-2.7,15.4-16.1,27.1-32.4,27.1
				c-16.1,0-29.6-11.7-32.4-27.1L330.5,229.6L330.5,229.6z M247.7,229.6c-2.7,15.4-16.1,27.1-32.4,27.1s-29.6-11.7-32.4-27.1
				L247.7,229.6L247.7,229.6z M100,229.6h64.7c-2.7,15.4-16.2,27.1-32.4,27.1C116.2,256.8,102.8,245,100,229.6z M226,411.5h-49.1
				v-92.3c0-6.7,5.4-12.2,12.2-12.2h24.9c6.7,0,12.2,5.4,12.2,12.2L226,411.5L226,411.5z M383.9,411.5H243.1v-92.3
				c0-16.1-13.1-29.3-29.3-29.3h-24.9c-16.1,0-29.3,13.1-29.3,29.3v92.3h-30.2V273.8c1,0.1,2,0.1,3,0.1c17.3,0,32.5-8.7,41.5-22.1
				c8.9,13.4,24.2,22.1,41.5,22.1s32.4-8.7,41.5-22.1c8.9,13.4,24.2,22.1,41.4,22.1c17.3,0,32.4-8.7,41.4-22.1
				c8.9,13.4,24.2,22.1,41.5,22.1c1,0,2-0.1,2.9-0.1V411.5L383.9,411.5z M381,256.8c-16.1,0-29.6-11.7-32.4-27.1h64.7
				C410.6,245,397.2,256.8,381,256.8z"/>
		</g>
	</g>
	<rect id="XMLID_1_" x="164.8" y="89.9" class="st4" width="183.9" height="42.6"/>
	<rect id="XMLID_16_" x="176.9" y="102.5" class="st5" width="159.7" height="15.4"/>
</g>
</svg>
