<?xml version="1.0" encoding="utf-8"?>
<!-- Generator: Adobe Illustrator 19.0.0, SVG Export Plug-In . SVG Version: 6.00 Build 0)  -->
<svg version="1.1" id="Layer_1" xmlns="http://www.w3.org/2000/svg" xmlns:xlink="http://www.w3.org/1999/xlink" x="0px" y="0px"
	 viewBox="0 0 512 512" style="enable-background:new 0 0 512 512;" xml:space="preserve">
<style type="text/css">
	.st0{fill:#FFFFFF;}
	.st1{fill:#FFC200;}
	.st2{fill:#161616;}
	.st3{fill:#1E1E1E;}
</style>
<circle id="XMLID_7_" class="st0" cx="256.7" cy="256.7" r="254.3"/>
<rect x="141" y="154" class="st1" width="231" height="271"/>
<g>
	<g>
		<path class="st2" d="M325.1,142.4v-8.1c0-9.1-7.4-16.5-16.5-16.5h-27c2.3-4,3.5-9.1,3.5-14.3c0-16.8-13.7-30.6-30.6-30.6
			S224,86.7,224,103.6c0,5.1,1.2,10.1,3.5,14.3h-22.2c-9.1,0-16.5,7.3-16.5,16.5v8H152c-13.8,0-25,11.2-25,25v246.6
			c0,13.8,11.2,25.1,25,25.1h209.8c13.8,0,25-11.2,25-25.1V167.4c0-13.8-11.2-25-25-25C361.9,142.4,325.1,142.4,325.1,142.4z
			 M236.3,103.6c0-10.1,8.2-18.2,18.2-18.2c10.1,0,18.2,8.2,18.2,18.2c0,5.7-2.6,10.7-6.8,14.3h-22.7
			C239.1,114.2,236.3,109.3,236.3,103.6z M361.9,399.1c0,8.5-6.9,15.4-15.4,15.4h-179c-8.5,0-15.4-6.9-15.4-15.4V182.7
			c0-8.5,6.9-15.4,15.4-15.4h21.4c0,6.8,5.5,12.3,12.3,12.3h111.7c6.8,0,12.3-5.5,12.3-12.3h21.4c8.5,0,15.4,6.9,15.4,15.4V399.1
			L361.9,399.1z"/>
		<circle id="XMLID_6_" class="st3" cx="198.2" cy="222.9" r="21.8"/>
		<path id="XMLID_5_" class="st3" d="M321.8,210.8h-74.1c-6.8,0-12.3,5.4-12.3,12.3s5.5,12.3,12.3,12.3h74.2
			c6.8,0,12.3-5.4,12.3-12.3S328.6,210.8,321.8,210.8z"/>
		<circle id="XMLID_4_" class="st3" cx="198.2" cy="284.6" r="21.8"/>
		<path id="XMLID_3_" class="st3" d="M321.8,272h-74.1c-6.8,0-12.3,5.7-12.3,12.5s5.5,12.5,12.3,12.5h74.2c6.8,0,12.3-5.7,12.3-12.5
			S328.6,272,321.8,272z"/>
		<circle id="XMLID_2_" class="st3" cx="198.2" cy="350.4" r="21.8"/>
		<path id="XMLID_1_" class="st3" d="M321.8,337.9h-74.1c-6.8,0-12.3,5.7-12.3,12.5c0,6.8,5.5,12.5,12.3,12.5h74.2
			c6.8,0,12.3-5.7,12.3-12.5C334.2,343.6,328.6,337.9,321.8,337.9z"/>
	</g>
</g>
</svg>
