<?xml version="1.0" encoding="utf-8"?>
<!-- Generator: Adobe Illustrator 24.0.1, SVG Export Plug-In . SVG Version: 6.00 Build 0)  -->
<svg version="1.1" id="Layer_1" xmlns="http://www.w3.org/2000/svg" xmlns:xlink="http://www.w3.org/1999/xlink" x="0px" y="0px"
	 viewBox="0 0 50 50" style="enable-background:new 0 0 50 50;" xml:space="preserve">
<style type="text/css">
	.st0{fill:#1D86C8;}
	.st1{fill:#C7E2F7;}
	.st2{fill:#F9C2A8;}
	.st3{fill:#F9D87A;}
	.st4{fill:#FACB36;}
	.st5{fill:#F8AB2C;}
	.st6{fill:#020203;}
</style>
<path class="st0" d="M34.1,45.8H20.3c-0.5,0-0.9,0.4-0.9,0.9v2c0,0.5,0.4,0.9,0.9,0.9l13.8,0c0.5,0,0.9-0.4,0.9-0.9v-2
	C34.9,46.2,34.5,45.8,34.1,45.8L34.1,45.8z"/>
<path class="st1" d="M20.3,43.6v2.2h13.4v-2.2c0-0.3-0.2-0.5-0.5-0.5H20.8C20.6,43.2,20.3,43.4,20.3,43.6L20.3,43.6z"/>
<path class="st2" d="M21.5,20.5c0,0,0,9.7,0,9.7c0-0.9-0.7-1.7-1.7-1.7s-1.7,0.7-1.7,1.7v2.1c0,1.6,0.5,3.1,1.4,4.3
	c0.6,1.1,1.9,2,2,4.6l0,1.9h10.8v-3.7c0-1.5,0.5-2.5,0.7-3.3c0.2-0.6,0.3-1.3,0.3-2c0-1.3,0-6.5,0-7.6c0-0.8-0.7-1.5-1.5-1.5
	c-0.8,0-1.5,0.7-1.5,1.5c0-0.8-0.7-1.5-1.5-1.5c-0.8,0-1.5,0.7-1.5,1.5c0-0.8-0.7-1.5-1.5-1.5c-0.8,0-1.5,0.7-1.5,1.5v-6.1
	c0-0.8-0.7-1.5-1.5-1.5C22.2,19,21.5,19.7,21.5,20.5L21.5,20.5z"/>
<path class="st3" d="M35.8,11.7c-0.3-0.5-0.9-0.6-1.3-0.4l-14.4,8.3c-0.5,0.3-0.6,0.9-0.4,1.3c0.3,0.5,0.9,0.6,1.3,0.4l0.5-0.3
	c0-0.3,0-0.5,0-0.5c0-0.8,0.7-1.5,1.5-1.5c0.5,0,0.9,0.2,1.1,0.5l11.3-6.5C35.9,12.8,36.1,12.2,35.8,11.7L35.8,11.7z"/>
<path class="st4" d="M32.4,10.9c-0.9-0.4-1.5-1-2-1.8L28,4.8c-1.6-2.8-5.1-3.8-7.9-2.3c-3,1.6-4,5.3-2.4,8.2l2.4,4.3
	c0.4,0.8,0.6,1.7,0.6,2.6l-0.2,1.8L34,11.6L32.4,10.9z"/>
<path class="st5" d="M18.5,3.8c0.4-0.5,1-0.9,1.6-1.2c0.5-0.3,1-0.5,1.6-0.6l-0.4-0.7c-0.5-0.9-1.6-1.2-2.5-0.7
	c-0.9,0.5-1.2,1.6-0.7,2.5L18.5,3.8z"/>
<path class="st5" d="M24.5,20.5v0.7c0.7,0.8,1.8,1,2.7,0.5c1-0.6,1.4-1.9,0.8-3c-0.2-0.4-0.5-0.7-0.9-0.8l-3,1.7
	C24.4,19.8,24.5,20.2,24.5,20.5L24.5,20.5z"/>
<path class="st6" d="M20.6,22c-0.1,0-0.3,0-0.4-0.1c-0.4-0.1-0.7-0.3-0.9-0.7c-0.2-0.3-0.2-0.7-0.1-1.1c0.1-0.4,0.3-0.7,0.7-0.9
	l14.4-8.3c0.7-0.4,1.6-0.2,2,0.5c0.2,0.3,0.2,0.7,0.1,1.1c-0.1,0.4-0.3,0.7-0.7,0.9L24.4,20c-0.2,0.1-0.5,0.1-0.6-0.1
	c-0.2-0.2-0.5-0.4-0.8-0.4c-0.5,0-1,0.4-1,1l0,0.5c0,0.2-0.1,0.3-0.2,0.4l-0.5,0.3C21.1,21.9,20.8,22,20.6,22z M21.4,19.5l-1.1,0.6
	c-0.1,0.1-0.2,0.2-0.2,0.3c0,0.1,0,0.3,0,0.4c0.1,0.1,0.2,0.2,0.3,0.2c0.1,0,0.3,0,0.4,0l0.3-0.2l0-0.3
	C21.1,20.1,21.2,19.8,21.4,19.5L21.4,19.5z M23,18.6c0.4,0,0.9,0.1,1.2,0.4l11-6.3c0.1-0.1,0.2-0.2,0.2-0.3c0-0.1,0-0.3,0-0.4
	c-0.1-0.2-0.4-0.3-0.7-0.2L23,18.6C23,18.6,23,18.6,23,18.6z"/>
<path class="st6" d="M20.5,19.9c-0.1,0-0.2,0-0.3-0.1c-0.2-0.1-0.2-0.3-0.2-0.5l0.2-1.8c0.1-0.8-0.1-1.6-0.5-2.3L17.3,11
	c-0.9-1.5-1.1-3.3-0.6-5c0.5-1.7,1.6-3.1,3.2-3.9c3.1-1.6,6.8-0.5,8.6,2.5l2.4,4.3c0.4,0.7,1,1.3,1.8,1.6l1.6,0.7
	c0.2,0.1,0.3,0.2,0.3,0.4c0,0.2-0.1,0.4-0.2,0.4l-13.5,7.7C20.7,19.9,20.6,19.9,20.5,19.9L20.5,19.9z M22.9,2.3
	c-0.9,0-1.7,0.2-2.6,0.6C19,3.7,18,4.8,17.6,6.3c-0.4,1.4-0.2,2.9,0.5,4.2l2.4,4.3c0.5,0.9,0.7,1.9,0.6,2.9l-0.1,0.8L33,11.7
	l-0.8-0.3c-0.9-0.4-1.7-1.1-2.2-2l-2.4-4.3C26.5,3.3,24.7,2.3,22.9,2.3L22.9,2.3z"/>
<path class="st6" d="M14.7,22.5c-0.2,0-0.4-0.1-0.4-0.3c-0.1-0.2,0-0.5,0.2-0.7l2.3-1.1c0.2-0.1,0.5,0,0.7,0.2
	c0.1,0.2,0,0.5-0.2,0.7l-2.3,1.1C14.8,22.5,14.8,22.5,14.7,22.5z"/>
<path class="st6" d="M13.8,19c-0.3,0-0.5-0.2-0.5-0.5c0-0.3,0.2-0.5,0.4-0.5l2.5-0.2c0.3,0,0.5,0.2,0.5,0.4c0,0.3-0.2,0.5-0.4,0.5
	L13.8,19C13.9,19,13.9,19,13.8,19z"/>
<path class="st6" d="M16.9,16.4c-0.1,0-0.2,0-0.3-0.1L14.5,15c-0.2-0.1-0.3-0.4-0.2-0.7c0.1-0.2,0.4-0.3,0.7-0.2l2.2,1.3
	c0.2,0.1,0.3,0.4,0.2,0.7C17.2,16.3,17.1,16.4,16.9,16.4L16.9,16.4z"/>
<path class="st6" d="M18.5,4.2C18.5,4.2,18.5,4.2,18.5,4.2c-0.2,0-0.3-0.1-0.4-0.2l-0.4-0.7c-0.3-0.5-0.4-1.1-0.2-1.7
	s0.5-1.1,1.1-1.4c0.5-0.3,1.1-0.4,1.7-0.2c0.6,0.2,1.1,0.5,1.4,1.1l0.4,0.7c0.1,0.1,0.1,0.3,0,0.4c-0.1,0.1-0.2,0.2-0.3,0.3
	c-0.5,0.1-1,0.3-1.4,0.5c-0.5,0.3-1,0.7-1.4,1.1C18.8,4.2,18.6,4.2,18.5,4.2z M19.7,0.9c-0.2,0-0.4,0.1-0.6,0.2
	c-0.3,0.2-0.5,0.5-0.6,0.8c-0.1,0.3,0,0.7,0.1,1L18.6,3c0.4-0.3,0.8-0.6,1.2-0.8c0.3-0.2,0.7-0.3,1-0.4l-0.1-0.1
	C20.6,1.2,20.4,1,20,0.9C19.9,0.9,19.8,0.9,19.7,0.9z"/>
<path class="st6" d="M33.8,46.3H20.3c-0.3,0-0.5-0.2-0.5-0.5v-2.2c0-0.5,0.4-1,1-1h12.5c0.5,0,1,0.4,1,1v2.2
	C34.3,46.1,34,46.3,33.8,46.3z M20.8,45.4h12.5v-1.7l-12.5,0V45.4z"/>
<path class="st6" d="M34.1,50.1C34.1,50.1,34.1,50.1,34.1,50.1l-13.8,0c-0.8,0-1.4-0.6-1.4-1.4v-2c0-0.8,0.6-1.4,1.4-1.4h13.8
	c0.8,0,1.4,0.6,1.4,1.4v2c0,0.4-0.1,0.7-0.4,1C34.8,50,34.4,50.1,34.1,50.1L34.1,50.1z M20.3,46.3c-0.2,0-0.4,0.2-0.4,0.4v2
	c0,0.2,0.2,0.4,0.4,0.4l13.8,0h0c0.1,0,0.2,0,0.3-0.1c0.1-0.1,0.1-0.2,0.1-0.3v-2c0-0.2-0.2-0.4-0.4-0.4H20.3z"/>
<path class="st6" d="M32.4,43.6H21.6c-0.3,0-0.5-0.2-0.5-0.5l0-1.9c-0.1-1.8-0.7-2.7-1.4-3.6c-0.2-0.3-0.4-0.5-0.6-0.8
	c-0.9-1.4-1.4-2.9-1.4-4.6v-2.1c0-1.2,1-2.1,2.1-2.1c0.4,0,0.8,0.1,1.2,0.3c0-2.8,0-7.9,0-7.9c0-1.1,0.9-2,2-2s2,0.9,2,2v4.4
	c0.3-0.2,0.6-0.3,1-0.3c0.6,0,1.1,0.3,1.5,0.7c0.4-0.4,0.9-0.7,1.5-0.7s1.1,0.3,1.5,0.7c0.4-0.4,0.9-0.7,1.5-0.7c1.1,0,2,0.9,2,2
	v7.6c0,0.7-0.1,1.4-0.3,2.1c-0.1,0.2-0.1,0.4-0.2,0.6c-0.2,0.7-0.5,1.4-0.5,2.5v3.7C32.9,43.4,32.7,43.6,32.4,43.6L32.4,43.6z
	 M22.1,42.7h9.9v-3.2c0-1.3,0.3-2.1,0.5-2.8c0.1-0.2,0.1-0.4,0.2-0.6c0,0,0,0,0,0c0.2-0.6,0.3-1.2,0.3-1.8v-7.6c0-0.5-0.4-1-1-1
	s-1,0.4-1,1c0,0.3-0.2,0.5-0.5,0.5S30,26.9,30,26.6c0-0.5-0.4-1-1-1s-1,0.4-1,1c0,0.3-0.2,0.5-0.5,0.5S27,26.9,27,26.6
	c0-0.5-0.4-1-1-1c-0.5,0-1,0.4-1,1c0,0.3-0.2,0.5-0.5,0.5c-0.3,0-0.5-0.2-0.5-0.5v-6.1c0-0.5-0.4-1-1-1c-0.5,0-1,0.4-1,1
	c0,0,0,9.7,0,9.7c0,0.3-0.2,0.5-0.5,0.5c0,0,0,0,0,0c-0.3,0-0.5-0.2-0.5-0.5c0-0.6-0.5-1.2-1.2-1.2c-0.6,0-1.2,0.5-1.2,1.2v2.1
	c0,1.5,0.4,2.9,1.3,4.1c0,0,0,0,0,0c0.1,0.2,0.3,0.5,0.5,0.7c0.6,0.9,1.5,2,1.5,4.1L22.1,42.7z M21.5,20.5L21.5,20.5L21.5,20.5z"/>
<path class="st6" d="M26.2,22.4c-0.7,0-1.5-0.3-2-0.9c-0.1-0.1-0.1-0.2-0.1-0.3v-0.7c0-0.2-0.1-0.5-0.2-0.6
	c-0.1-0.1-0.1-0.3-0.1-0.4c0-0.1,0.1-0.3,0.2-0.3l3-1.7c0.1-0.1,0.3-0.1,0.5,0c0.5,0.2,0.8,0.6,1.1,1c0.4,0.6,0.4,1.3,0.3,2
	c-0.2,0.7-0.6,1.3-1.2,1.6C27.1,22.3,26.6,22.4,26.2,22.4L26.2,22.4z M25,21c0.5,0.5,1.3,0.6,2,0.2c0.4-0.2,0.7-0.6,0.8-1
	c0.1-0.4,0.1-0.9-0.2-1.3c-0.1-0.2-0.3-0.4-0.5-0.5l-2.3,1.3c0.1,0.2,0.2,0.5,0.2,0.8L25,21L25,21z"/>
<path class="st6" d="M21.5,32.3c-0.3,0-0.5-0.2-0.5-0.5v-1.6c0-0.3,0.2-0.5,0.5-0.5s0.5,0.2,0.5,0.5v1.6
	C22,32.1,21.8,32.3,21.5,32.3z"/>
<path class="st6" d="M24.5,28.9c-0.3,0-0.5-0.2-0.5-0.5v-1.8c0-0.3,0.2-0.5,0.5-0.5s0.5,0.2,0.5,0.5v1.8
	C25,28.7,24.8,28.9,24.5,28.9z"/>
<path class="st6" d="M27.5,28.9c-0.3,0-0.5-0.2-0.5-0.5v-1.8c0-0.3,0.2-0.5,0.5-0.5c0.3,0,0.5,0.2,0.5,0.5v1.8
	C28,28.7,27.8,28.9,27.5,28.9z"/>
<path class="st6" d="M30.5,28.9c-0.3,0-0.5-0.2-0.5-0.5v-1.8c0-0.3,0.2-0.5,0.5-0.5s0.5,0.2,0.5,0.5v1.8
	C31,28.7,30.7,28.9,30.5,28.9z"/>
</svg>
