<?xml version="1.0" encoding="utf-8"?>
<!-- Generator: Adobe Illustrator 19.0.0, SVG Export Plug-In . SVG Version: 6.00 Build 0)  -->
<svg version="1.1" id="Layer_1" xmlns="http://www.w3.org/2000/svg" xmlns:xlink="http://www.w3.org/1999/xlink" x="0px" y="0px"
	 viewBox="0 0 512 512" style="enable-background:new 0 0 512 512;" xml:space="preserve">
<style type="text/css">
	.st0{fill:#FFFFFF;}
	.st1{fill:#FFCE06;}
	.st2{fill:#79CDD2;}
	.st3{fill:#F1F4D3;}
	.st4{fill:#191919;}
	.st5{fill:#1E1E1E;}
	.st6{fill:#F9F9E4;}
	.st7{fill:#212121;}
	.st8{fill:#1C1C1C;}
	.st9{fill:#111111;}
	.st10{fill:#C5D8FF;}
	.st11{fill:#141414;}
	.st12{fill:#E1EBF7;}
	.st13{fill:#282828;}
	.st14{fill:#0F0F0F;}
</style>
<circle id="XMLID_1_" class="st0" cx="256.7" cy="256.7" r="254.3"/>
<g>
	<path id="XMLID_39_" class="st1" d="M403.5,387.7H178.2c-5.9,0-10.6-4.8-10.6-10.6c0-5.9,4.8-10.6,10.6-10.6h225.2
		c5.9,0,10.6,4.8,10.6,10.6C414.1,382.9,409.4,387.7,403.5,387.7L403.5,387.7z"/>
	<path id="XMLID_38_" class="st2" d="M97,203.4H61.6c-3.9,0-7.1-3.1-7.1-7.1v-7.1c0-3.9,3.1-7.1,7.1-7.1H97c3.9,0,7.1,3.1,7.1,7.1
		v7.1C104.1,200.3,101,203.4,97,203.4z"/>
	<path id="XMLID_37_" class="st3" d="M376.4,366.5H205.3c-7.6,0-13.7-6.1-13.7-13.7V192.4c0-7.6,6.1-13.7,13.7-13.7h171.1
		c7.6,0,13.7,6.1,13.7,13.7v160.3C390.1,360.4,384,366.5,376.4,366.5z"/>
	<path id="XMLID_36_" class="st4" d="M257.9,178.6v61.1c8.3,0,8.3-6.9,16.4-6.9c8.3,0,8.3,6.9,16.4,6.9c8.3,0,8.3-6.9,16.4-6.9
		c8.3,0,8.3,6.9,16.4,6.9v-61.1H257.9z"/>
	<path class="st5" d="M376.4,369.9H205.3c-9.5,0-17.2-7.7-17.2-17.2V192.4c0-9.5,7.7-17.2,17.2-17.2h171.1c9.5,0,17.2,7.7,17.2,17.2
		v160.3C393.6,362.2,385.8,369.9,376.4,369.9z M205.3,182c-5.7,0-10.3,4.6-10.3,10.3v160.3c0,5.7,4.6,10.3,10.3,10.3h171.1
		c5.7,0,10.3-4.6,10.3-10.3V192.4c0-5.7-4.6-10.3-10.3-10.3H205.3z"/>
	<path id="XMLID_33_" class="st4" d="M369.8,335.4h-24.4c-2.6,0-4.6-2.1-4.6-4.6s2.1-4.6,4.6-4.6h24.3c2.6,0,4.6,2.1,4.6,4.6
		S372.3,335.4,369.8,335.4z"/>
	<path id="XMLID_32_" class="st4" d="M369.8,347.6h-24.4c-2.6,0-4.6-2.1-4.6-4.6s2.1-4.6,4.6-4.6h24.3c2.6,0,4.6,2.1,4.6,4.6
		S372.3,347.6,369.8,347.6z"/>
	<path id="XMLID_31_" class="st4" d="M255.1,348.8h-42c-3.1,0-5.7-2.6-5.7-5.7v-17.6c0-3.1,2.6-5.7,5.7-5.7h42
		c3.1,0,5.7,2.6,5.7,5.7v17.6C260.9,346.2,258.3,348.8,255.1,348.8z"/>
	<circle id="XMLID_30_" class="st6" cx="373.3" cy="420.1" r="32.4"/>
	<path id="XMLID_29_" class="st7" d="M373.3,438.4c-10.1,0-18.3-8.2-18.3-18.3c0-10.1,8.2-18.3,18.3-18.3s18.3,8.2,18.3,18.3
		C391.6,430.2,383.4,438.4,373.3,438.4z"/>
	<path class="st8" d="M373.3,456c-19.8,0-35.9-16.1-35.9-35.9s16.1-35.9,35.9-35.9s35.9,16.1,35.9,35.9
		C409.2,439.9,393.1,456,373.3,456z M373.3,391.1c-16,0-29,13-29,29c0,16,13,29,29,29c16,0,29-13,29-29
		C402.4,404.2,389.4,391.1,373.3,391.1z"/>
	<circle id="XMLID_26_" class="st6" cx="208.4" cy="420.1" r="32.4"/>
	<path id="XMLID_25_" class="st7" d="M208.4,438.4c-10.1,0-18.3-8.2-18.3-18.3c0-10.1,8.2-18.3,18.3-18.3c10.1,0,18.3,8.2,18.3,18.3
		C226.7,430.2,218.5,438.4,208.4,438.4z"/>
	<path class="st9" d="M208.4,456c-19.8,0-35.9-16.1-35.9-35.9s16.1-35.9,35.9-35.9s35.9,16.1,35.9,35.9
		C244.3,439.9,228.1,456,208.4,456z M208.4,391.1c-16,0-29,13-29,29c0,16,13,29,29,29s29-13,29-29
		C237.4,404.2,224.3,391.1,208.4,391.1z"/>
	<path id="XMLID_22_" class="st7" d="M217.9,387.7V412c0,4.4-3.6,7.9-7.9,7.9h-2.3c-3.4,0-6.4-2.1-7.5-5.4l-9.3-26.9H217.9z"/>
	<path id="XMLID_21_" class="st7" d="M382.9,387.7V412c0,4.4-3.6,7.9-7.9,7.9h-2.2c-3.4,0-6.4-2.1-7.5-5.4l-9.3-26.9H382.9z"/>
	<path class="st10" d="M210,423.3h-2.3c-4.9,0-9.2-3.1-10.7-7.7l-9.3-26.9c-0.3-1.1-0.2-2.2,0.4-3.1c0.7-0.9,1.7-1.4,2.8-1.4h27
		c1.9,0,3.4,1.6,3.4,3.4V412C221.4,418.3,216.2,423.3,210,423.3z M195.7,391.1l7.7,22.3c0.7,1.8,2.3,3.1,4.3,3.1h2.3
		c2.5,0,4.5-2.1,4.5-4.5V391L195.7,391.1L195.7,391.1z"/>
	<path class="st10" d="M374.9,423.3h-2.2c-4.9,0-9.2-3.1-10.7-7.7l-9.3-26.9c-0.3-1.1-0.2-2.2,0.4-3.1c0.7-0.9,1.7-1.4,2.8-1.4h27
		c1.9,0,3.4,1.6,3.4,3.4V412C386.3,418.3,381.2,423.3,374.9,423.3L374.9,423.3z M360.7,391.1l7.7,22.3c0.7,1.8,2.3,3.1,4.3,3.1h2.3
		c2.5,0,4.5-2.1,4.5-4.5V391L360.7,391.1L360.7,391.1z"/>
	<path id="XMLID_16_" class="st1" d="M334.6,103.3c0-24.5-20.1-44.3-44.7-43.8c-22.8,0.5-41.7,18.8-42.7,41.7
		c-0.3,7.9,1.4,15.4,4.7,21.9l0,0l33.6,69.3c2.1,4.5,8.6,4.5,10.7,0l33.6-69.3l0,0C332.9,117.1,334.6,110.4,334.6,103.3z"/>
	<ellipse id="XMLID_15_" class="st4" cx="290.9" cy="103.3" rx="27.1" ry="27.2"/>
	<path class="st11" d="M290.9,199.1c-3.6,0-6.9-2.1-8.4-5.3l-33.6-69.3c0-0.1-0.1-0.2-0.1-0.2c-3.6-7.2-5.3-15.3-5-23.4
		c1.2-24.7,21.4-44.5,46.1-45c12.7-0.2,24.9,4.5,34,13.5c9.2,8.9,14.2,21,14.2,33.8c0,7.4-1.7,14.5-5,21.2c0,0.1-0.1,0.2-0.1,0.2
		l-33.6,69.3C297.7,197.2,294.5,199.1,290.9,199.1z M255.1,121.9l33.5,69c0.7,1.3,1.8,1.5,2.3,1.5c0.5,0,1.7-0.2,2.3-1.5l33.5-69
		c0-0.1,0.1-0.2,0.2-0.3c2.9-5.7,4.4-11.9,4.4-18.3c0-11-4.3-21.2-12.1-28.9c-7.8-7.6-18.2-11.7-29-11.5
		c-21.1,0.4-38.4,17.4-39.4,38.4c-0.3,7,1.2,14,4.3,20.2C255,121.6,255,121.7,255.1,121.9L255.1,121.9z"/>
	<path id="XMLID_12_" class="st12" d="M170.1,370.3h-1.3L127,196.7c-1.5-6.3-7-10.7-13.5-10.7h-10.2c0.5,1,0.8,2.1,0.8,3.3v7.1
		c0,1.2-0.3,2.3-0.8,3.3h10.3c0.1,0,0.2,0.1,0.2,0.2l43.1,178.8c0.7,3.1,3.5,5.2,6.6,5.2h6.7c-1.6-1.8-2.5-4.2-2.5-6.9
		S168.6,372.1,170.1,370.3L170.1,370.3z"/>
	<g>
		<path class="st4" d="M403.5,391.1H178.2c-7.8,0-14-6.3-14-14s6.3-14,14-14h225.2c7.8,0,14,6.3,14,14S411.2,391.1,403.5,391.1
			L403.5,391.1z M178.2,369.9c-4,0-7.2,3.2-7.2,7.2c0,4,3.2,7.2,7.2,7.2h225.2c4,0,7.2-3.2,7.2-7.2c0-4-3.2-7.2-7.2-7.2H178.2z"/>
		<path class="st13" d="M97,206.9H61.6c-5.8,0-10.5-4.7-10.5-10.5v-7.1c0-5.8,4.7-10.5,10.5-10.5H97c5.8,0,10.5,4.7,10.5,10.5v7.1
			C107.5,202.2,102.8,206.9,97,206.9z M61.6,185.7c-2,0-3.6,1.7-3.6,3.6v7.1c0,2,1.7,3.6,3.6,3.6H97c2,0,3.6-1.7,3.6-3.6v-7.1
			c0-2-1.7-3.6-3.6-3.6H61.6z"/>
		<path class="st13" d="M170.1,387.4h-6.7c-4.8,0-8.8-3.2-10-7.9L111,203.1h-7.7c-1.2,0-2.3-0.7-2.9-1.7s-0.7-2.3-0.1-3.4
			c0.3-0.6,0.4-1.2,0.4-1.7v-7.1c0-0.6-0.2-1.2-0.4-1.7c-0.6-1.1-0.5-2.3,0.1-3.4c0.6-1,1.7-1.7,2.9-1.7h10.3
			c8,0,14.9,5.5,16.8,13.2L171.7,367c0.7,0.3,1.3,0.9,1.7,1.7c0.6,1.2,0.3,2.6-0.5,3.6c-1.1,1.3-1.7,3-1.7,4.6
			c0,1.7,0.6,3.3,1.7,4.6c0.8,1,1.1,2.5,0.5,3.6C172.7,386.6,171.5,387.4,170.1,387.4L170.1,387.4z M107.5,196.3h6
			c1.7,0,3.1,1.2,3.5,2.8l43.1,178.8c0.3,1.6,1.7,2.6,3.3,2.6h1.2c-0.2-1.1-0.4-2.2-0.4-3.4c0-2.1,0.5-4,1.3-6v-0.1l-41.8-173.6
			c-1.2-4.7-5.3-8-10.2-8h-6L107.5,196.3z"/>
	</g>
	<path id="XMLID_5_" class="st0" d="M398.4,343.7c13.1-7.8,24.9-18.2,34-30.9c0.7-0.8,1.2-1.7,1.8-2.6c15.9-23.1,24.8-51.9,25-81.3
		v-1.3v-0.2c0-3.2-2.6-5.8-5.8-5.8h-18.4h-0.2c-14.2-0.7-27.8-6.4-38.7-16c-2.1-1.9-5.5-1.9-7.6,0c-10.9,9.7-24.5,15.4-38.7,16h-0.2
		h-18.4c-3.2,0-5.8,2.6-5.8,5.8v0.1v1.5c0.2,29.4,9.2,58.3,25,81.3c0.6,0.9,1.2,1.7,1.8,2.6c9.3,12.7,21,23.1,34,30.9
		C390.2,345.9,394.8,345.9,398.4,343.7z"/>
	<path id="XMLID_4_" class="st1" d="M394.8,328.3c-1.4,0.9-3.3,0.9-4.7,0c-10.1-6.6-18.6-14.8-25.5-24.3c-0.6-0.7-1.1-1.5-1.7-2.3
		c-12-17.4-19.5-38.4-21.7-60.4c-0.2-2.6,1.7-4.8,4.3-4.8h4.5h0.6c14-0.7,27.6-5.2,39.4-13.1c1.4-1,3.3-1,4.7,0
		c11.8,7.9,25.4,12.5,39.4,13.1h0.6h4.5c2.6,0,4.6,2.2,4.3,4.8c-2.2,22-9.8,43.1-21.7,60.4c-0.6,0.7-1.1,1.6-1.7,2.3
		C413.4,313.5,404.9,321.7,394.8,328.3L394.8,328.3z"/>
	<path id="XMLID_3_" class="st14" d="M390.4,309.8c-3.1,0-6.3-1.2-8.7-3.5l-20.2-19c-2.9-2.7-3.1-7.4-0.3-10.2
		c2.7-2.9,7.4-3.1,10.2-0.3l18.6,17.5l36.5-49.6c2.4-3.2,6.9-3.9,10.2-1.6c3.2,2.4,3.9,6.9,1.6,10.2l-37.8,51.3
		c-2.1,3-5.5,4.9-9.1,5.2C391.1,309.8,390.7,309.8,390.4,309.8L390.4,309.8z"/>
	<path class="st11" d="M392.4,348.8c-2.6,0-5.3-0.7-7.7-2.1c-14-8.3-25.8-19-35.1-31.8c-0.7-0.9-1.2-1.7-1.9-2.6
		c-16.3-23.6-25.4-53.1-25.7-83.2v-1.5c0-5.2,4.1-9.3,9.2-9.3l18.5-0.1c13.2-0.6,26.2-6,36.6-15.2c3.5-3.1,8.7-3.1,12.1,0
		c10.3,9.2,23.4,14.5,36.6,15.2h0.2h18.3c5,0,9.2,4.1,9.2,9.3v1.7c-0.3,30.1-9.4,59.6-25.7,83.2c-0.6,0.9-1.2,1.8-1.9,2.6
		c-9.3,12.8-21.1,23.5-35.1,31.8C397.8,348.1,395.1,348.8,392.4,348.8L392.4,348.8z M392.4,207.5c-0.6,0-1.1,0.2-1.5,0.6
		c-11.5,10.2-26,16.2-40.8,16.9h-0.2h-18.5c-1.3,0-2.4,1.1-2.4,2.4v1.6c0.2,28.7,9,56.9,24.5,79.4c0.6,0.8,1.2,1.7,1.8,2.6
		c8.8,12.1,19.8,22.1,33.1,29.9c2.6,1.6,5.8,1.6,8.4,0c13.2-7.9,24.3-17.9,33.1-29.9c0.6-0.8,1.2-1.7,1.8-2.6
		c15.5-22.5,24.2-50.7,24.5-79.4v-1.6c0-1.3-1.1-2.4-2.4-2.4l-18.8-0.1c-14.8-0.7-29.3-6.7-40.8-16.9
		C393.6,207.7,393,207.5,392.4,207.5z"/>
</g>
</svg>
