<?xml version="1.0" encoding="utf-8"?>
<!-- Generator: Adobe Illustrator 24.0.1, SVG Export Plug-In . SVG Version: 6.00 Build 0)  -->
<svg version="1.1" id="Layer_1" xmlns="http://www.w3.org/2000/svg" xmlns:xlink="http://www.w3.org/1999/xlink" x="0px" y="0px"
	 viewBox="0 0 50 50" style="enable-background:new 0 0 50 50;" xml:space="preserve">
<style type="text/css">
	.st0{fill:#F4B401;}
	.st1{fill:#FFFFFF;}
	.st2{fill:#ABB3BE;}
	.st3{fill:#4FC1EB;}
	.st4{fill:#B4D380;}
	.st5{fill:#E6E9ED;}
	.st6{fill:#FDD870;}
	.st7{fill:#020203;}
</style>
<g>
	<g>
		<g>
			<path class="st0" d="M32.3,41.4v3c0,1.6-1.3,3-3,3H5.6c-1.6,0-3-1.3-3-3V7.2c0-1.6,1.3-3,3-3h5.9v3H6.3C5.9,7.2,5.6,7.6,5.6,8
				v6.7v28.9c0,0.4,0.3,0.7,0.7,0.7h22.3c0.4,0,0.7-0.3,0.7-0.7v-2.2H32.3z"/>
		</g>
		<g>
			<path class="st0" d="M32.3,17v18.4h-3V17.6C30.4,17.6,31.4,17.4,32.3,17L32.3,17z"/>
		</g>
		<g>
			<path class="st1" d="M24.8,16.1c-1.8-1.4-2.9-3.5-2.9-5.9c0-0.5,0.1-1,0.1-1.5c-0.1,0-0.1,0-0.1,0H13c-0.8,0-1.5-0.7-1.5-1.5H6.3
				C5.9,7.2,5.6,7.6,5.6,8v6.7v28.9c0,0.4,0.3,0.7,0.7,0.7h22.3c0.4,0,0.7-0.3,0.7-0.7v-26C27.6,17.6,26.1,17.1,24.8,16.1z"/>
		</g>
		<g>
			<path class="st2" d="M24.9,38.4v3l-5.2-2c-0.4-0.2-0.7-0.6-0.7-1c0-0.4,0.3-0.8,0.7-1l5.2-2V38.4z"/>
		</g>
		<g>
			<path class="st0" d="M46.3,36.3c0.5,0.5,0.9,1.3,0.9,2.1c0,1.6-1.3,3-3,3h-3v-3v-3h3C45,35.4,45.7,35.8,46.3,36.3z"/>
		</g>
		<g>
			<path class="st3" d="M41.2,38.4v3h-8.9h-3h-4.5v-3H41.2z"/>
		</g>
		<g>
			<path class="st4" d="M41.2,35.4v3H24.9v-3h4.5h3H41.2z"/>
		</g>
		<g>
			<path class="st5" d="M22.9,18.7c-1.5-1.1-3.4-1.8-5.4-1.8c-4.9,0-8.9,4-8.9,8.9c0,1.6,0.4,3.1,1.2,4.5c1.5,2.7,4.4,4.4,7.7,4.4
				s6.2-1.8,7.7-4.4c0.8-1.3,1.2-2.8,1.2-4.5C26.4,22.9,25,20.3,22.9,18.7z"/>
		</g>
		<g>
			<path class="st6" d="M18.9,22.8h3v7.4h-3V22.8z"/>
		</g>
		<g>
			<path class="st6" d="M18.9,22.8v7.4h-3v-4.5v-4.5h3V22.8z"/>
		</g>
		<g>
			<path class="st6" d="M13,25.8h3v4.5h-3V25.8z"/>
		</g>
		<g>
			<path class="st4" d="M23.4,4.3v1.5c-0.6,0.9-1.1,1.9-1.3,3c-0.1,0-0.1,0-0.1,0H13c-0.8,0-1.5-0.7-1.5-1.5v-3
				c0-0.8,0.7-1.5,1.5-1.5h8.9C22.7,2.8,23.4,3.4,23.4,4.3z"/>
		</g>
		<g>
			<path class="st0" d="M44.9,10.2l1.5,3h-4.5l-1.5-3h3H44.9z"/>
		</g>
		<g>
			<path class="st0" d="M46.4,7.2l-1.5,3h-1.5h-3l1.5-3H46.4z"/>
		</g>
		<g>
			<path class="st5" d="M36.7,10.2c0,2.3-1.1,4.4-2.8,5.8c-0.5,0.4-1.1,0.7-1.7,1c-0.9,0.4-1.9,0.6-3,0.6c-1.7,0-3.2-0.6-4.5-1.5
				c-1.8-1.4-2.9-3.5-2.9-5.9c0-0.5,0.1-1,0.1-1.5c0.2-1.1,0.7-2.1,1.3-3c1.4-1.8,3.5-3,5.9-3C33.4,2.8,36.7,6.1,36.7,10.2z"/>
		</g>
		<g>
			<circle class="st0" cx="29.3" cy="10.2" r="3"/>
		</g>
		<g>
			<path class="st5" d="M41.2,19.1c3.3,0,5.9,2.7,5.9,5.9S44.5,31,41.2,31s-5.9-2.7-5.9-5.9c0-1.9,0.9-3.5,2.2-4.6
				C38.5,19.6,39.8,19.1,41.2,19.1z"/>
		</g>
		<g>
			<path class="st0" d="M43.5,24c0.4,0.2,0.7,0.6,0.7,1.1c0,0.5-0.3,0.9-0.7,1.1L40,27.9C39.8,28,39.6,28,39.4,28
				c-0.7,0-1.2-0.5-1.2-1.2v-3.5c0-0.7,0.5-1.2,1.2-1.2c0.2,0,0.4,0,0.5,0.1L43.5,24z"/>
		</g>
	</g>
	<g>
		<path class="st7" d="M44.2,34.7H33V17.5c0.3-0.1,0.5-0.3,0.8-0.5l2.7,3.3c-1.2,1.2-2,2.9-2,4.7c0,3.7,3,6.7,6.7,6.7s6.7-3,6.7-6.7
			c0-3.7-3-6.7-6.7-6.7c-1.3,0-2.5,0.4-3.6,1L35,16.1c1.4-1.3,2.3-3.1,2.5-5.1h1.8H40l1.5,3h6.1l-1.9-3.7l1.9-3.7h-6.1l-1.5,3h-0.7
			h-1.8C37.1,5.3,33.6,2,29.3,2c-2,0-3.8,0.7-5.2,1.9C23.9,2.9,23,2,21.9,2H13c-1,0-1.8,0.6-2.1,1.5H5.6c-2,0-3.7,1.7-3.7,3.7v37.1
			c0,2,1.7,3.7,3.7,3.7h23.7c2,0,3.7-1.7,3.7-3.7v-2.2h11.1c2,0,3.7-1.7,3.7-3.7C47.9,36.3,46.2,34.7,44.2,34.7z M46.4,25
			c0,2.9-2.3,5.2-5.2,5.2S36,27.9,36,25c0-2.9,2.3-5.2,5.2-5.2S46.4,22.2,46.4,25z M42.4,12.4l-0.7-1.5h1.8h1l0.7,1.5H42.4z M42.4,8
			h2.8l-0.7,1.5h-1h-1.8L42.4,8z M10.9,8C11.2,8.8,12,9.5,13,9.5h8.2c0,0.2,0,0.5,0,0.7c0,2.4,1,4.5,2.7,6l-1.1,1.5
			c-1.5-1-3.3-1.6-5.2-1.6c-5.3,0-9.6,4.3-9.6,9.6s4.3,9.6,9.6,9.6s9.6-4.3,9.6-9.6c0-2.9-1.3-5.4-3.2-7.2l1.1-1.5
			c1.1,0.7,2.3,1.1,3.6,1.2v16.4h-3.8l-5.4,2c-0.7,0.3-1.2,0.9-1.2,1.7c0,0.8,0.5,1.4,1.2,1.7l5.4,2h3.8v1.5H6.3V8H10.9z M21.2,29.5
			h-1.5v-5.9h1.5V29.5z M18.2,29.5h-1.5V25v-3h1.5V29.5z M15.2,29.5h-1.5v-3h1.5V29.5z M23.7,31c-1.5,1.8-3.8,3-6.3,3
			c-2.5,0-4.8-1.2-6.3-3H23.7z M24.7,29.5h-2.1v-7.4h-3v-1.5h-4.5V25h-3v4.5h-2.1c-0.6-1.1-0.9-2.4-0.9-3.7c0-4.5,3.7-8.2,8.2-8.2
			s8.2,3.7,8.2,8.2C25.6,27.1,25.3,28.4,24.7,29.5L24.7,29.5z M19.9,38.7c-0.1,0-0.2-0.2-0.2-0.3s0.1-0.3,0.2-0.3l4.2-1.6v3.8
			L19.9,38.7z M25.6,40.6v-1.5h14.8v1.5H25.6z M40.4,37.6H25.6v-1.5h14.8V37.6z M31.5,34.7h-1.5V18.3c0.5,0,1-0.1,1.5-0.3V34.7z
			 M29.3,3.5c3.4,0,6.3,2.6,6.6,5.9h-3c-0.3-1.7-1.8-3-3.6-3c-2,0-3.7,1.7-3.7,3.7s1.7,3.7,3.7,3.7c1.8,0,3.3-1.3,3.6-3h3
			c-0.4,3.3-3.2,5.9-6.6,5.9c-3.7,0-6.7-3-6.7-6.7S25.6,3.5,29.3,3.5z M31.4,10.9c-0.3,0.9-1.1,1.5-2.1,1.5c-1.2,0-2.2-1-2.2-2.2
			s1-2.2,2.2-2.2c1,0,1.8,0.6,2.1,1.5h-2.8v1.5H31.4z M12.3,4.3c0-0.4,0.3-0.7,0.7-0.7h8.9c0.4,0,0.7,0.3,0.7,0.7v1.3
			c-0.5,0.7-0.9,1.6-1.2,2.4L13,8c-0.4,0-0.7-0.3-0.7-0.7L12.3,4.3z M31.5,44.3c0,1.2-1,2.2-2.2,2.2H5.6c-1.2,0-2.2-1-2.2-2.2V7.2
			C3.4,6,4.4,5,5.6,5h5.2v1.5H6.3C5.5,6.5,4.8,7.2,4.8,8v35.6c0,0.8,0.7,1.5,1.5,1.5h22.3c0.8,0,1.5-0.7,1.5-1.5v-1.5h1.5V44.3z
			 M44.2,40.6h-2.2v-4.5h2.2c1.2,0,2.2,1,2.2,2.2S45.4,40.6,44.2,40.6z"/>
		<path class="st7" d="M37.5,26.8c0,1.1,0.9,1.9,1.9,1.9c0.3,0,0.6-0.1,0.9-0.2l3.5-1.8c0.7-0.3,1.1-1,1.1-1.7
			c0-0.7-0.4-1.4-1.1-1.7l-3.5-1.8c-0.3-0.1-0.6-0.2-0.9-0.2c-1.1,0-1.9,0.9-1.9,1.9V26.8z M39,23.3c0-0.3,0.2-0.5,0.5-0.5
			c0.1,0,0.1,0,0.2,0l3.5,1.8c0.2,0.1,0.3,0.2,0.3,0.4c0,0.2-0.1,0.3-0.3,0.4l-3.5,1.8c-0.3,0.1-0.7-0.1-0.7-0.4V23.3z"/>
		<path class="st7" d="M7.8,37.6h8.9v1.5H7.8V37.6z"/>
		<path class="st7" d="M7.8,40.6h8.9v1.5H7.8V40.6z"/>
		<path class="st7" d="M7.8,10.9h1.5v1.5H7.8V10.9z"/>
		<path class="st7" d="M10.8,10.9h8.9v1.5h-8.9V10.9z"/>
		<path class="st7" d="M7.8,13.9h1.5v1.5H7.8V13.9z"/>
		<path class="st7" d="M10.8,13.9h8.9v1.5h-8.9V13.9z"/>
	</g>
</g>
</svg>
