<?xml version="1.0" encoding="utf-8"?>
<!-- Generator: Adobe Illustrator 24.0.1, SVG Export Plug-In . SVG Version: 6.00 Build 0)  -->
<svg version="1.1" id="Layer_1" xmlns="http://www.w3.org/2000/svg" xmlns:xlink="http://www.w3.org/1999/xlink" x="0px" y="0px"
	 viewBox="0 0 50 50" style="enable-background:new 0 0 50 50;" xml:space="preserve">
<style type="text/css">
	.st0{fill:#8784BE;}
	.st1{fill:#7F7BB9;}
	.st2{fill:#EFC101;}
	.st3{fill:#FFFFFF;}
	.st4{fill:#020203;}
</style>
<path class="st0" d="M11.1,1.9h27.8c1.7,0,3.1,1.4,3.1,3.1v40.1c0,1.7-1.4,3.1-3.1,3.1H11.1c-1.7,0-3.1-1.4-3.1-3.1V4.9
	C8,3.2,9.4,1.9,11.1,1.9z"/>
<path class="st1" d="M13.4,1.9V42h-2.3C9.4,42,8,43.4,8,45.1V4.9c0-1.7,1.4-3.1,3.1-3.1H13.4z"/>
<path class="st2" d="M42,4.9v33.9c0,1.7-1.4,3.1-3.1,3.1H13.4V1.9h25.5C40.6,1.9,42,3.2,42,4.9z"/>
<path class="st3" d="M29.6,28.9h9.3v3.1h-9.3V28.9z"/>
<path class="st4" d="M16.5,20.4h1.5v1.5c0,0.4,0.3,0.8,0.8,0.8s0.8-0.3,0.8-0.8v-1.5h1.5v1.5c0,0.4,0.3,0.8,0.8,0.8s0.8-0.3,0.8-0.8
	v-1.5h4.6c0.4,0,0.8-0.3,0.8-0.8v-6.2c0-0.4-0.3-0.8-0.8-0.8H25V7.3c0-0.4-0.3-0.8-0.8-0.8h-1.5V4.9c0-0.4-0.3-0.8-0.8-0.8
	s-0.8,0.3-0.8,0.8v1.5h-1.5V4.9c0-0.4-0.3-0.8-0.8-0.8s-0.8,0.3-0.8,0.8v1.5h-1.5c-0.4,0-0.8,0.3-0.8,0.8v12.3
	C15.7,20,16.1,20.4,16.5,20.4z M26.5,18.8h-9.3v-4.6h9.3V18.8z M17.3,8h6.2v4.6h-6.2V8z"/>
<path class="st4" d="M18.8,23.5c-0.4,0-0.8,0.3-0.8,0.8V25c0,0.4,0.3,0.8,0.8,0.8s0.8-0.3,0.8-0.8v-0.8
	C19.6,23.8,19.3,23.5,18.8,23.5z"/>
<path class="st4" d="M38.9,1.1H11.1C9,1.1,7.3,2.8,7.3,4.9v40.1c0,2.1,1.7,3.9,3.9,3.9h27.8c2.1,0,3.9-1.7,3.9-3.9V4.9
	C42.7,2.8,41,1.1,38.9,1.1z M38.9,2.6c1.3,0,2.3,1,2.3,2.3v33.9c0,1.3-1,2.3-2.3,2.3H14.2V2.6H38.9z M8.8,4.9c0-1.3,1-2.3,2.3-2.3
	h1.5v38.6h-1.5c-0.8,0-1.6,0.3-2.3,0.8V4.9z M38.9,47.4H11.1c-1.3,0-2.3-1-2.3-2.3c0-1.3,1-2.3,2.3-2.3h27.8c0.8,0,1.7-0.3,2.3-0.8
	v3.1C41.2,46.3,40.2,47.4,38.9,47.4L38.9,47.4z"/>
<path class="st4" d="M29.6,35h9.3c0.4,0,0.8-0.3,0.8-0.8s-0.3-0.8-0.8-0.8h-9.3c-0.4,0-0.8,0.3-0.8,0.8S29.2,35,29.6,35z"/>
<path class="st4" d="M38.9,35.8h-6.9c-0.4,0-0.8,0.3-0.8,0.8s0.3,0.8,0.8,0.8h6.9c0.4,0,0.8-0.3,0.8-0.8S39.3,35.8,38.9,35.8z"/>
<path class="st4" d="M38.9,38.1h-2.3c-0.4,0-0.8,0.3-0.8,0.8s0.3,0.8,0.8,0.8h2.3c0.4,0,0.8-0.3,0.8-0.8S39.3,38.1,38.9,38.1z"/>
<path class="st4" d="M29.6,32.7h9.3c0.4,0,0.8-0.3,0.8-0.8v-3.1c0-0.4-0.3-0.8-0.8-0.8h-9.3c-0.4,0-0.8,0.3-0.8,0.8v3.1
	C28.9,32.4,29.2,32.7,29.6,32.7z M30.4,29.6h7.7v1.5h-7.7V29.6z"/>
</svg>
