<?xml version="1.0" encoding="utf-8"?>
<!-- Generator: Adobe Illustrator 24.0.1, SVG Export Plug-In . SVG Version: 6.00 Build 0)  -->
<svg version="1.1" id="Layer_1" xmlns="http://www.w3.org/2000/svg" xmlns:xlink="http://www.w3.org/1999/xlink" x="0px" y="0px"
	 viewBox="0 0 20 20" style="enable-background:new 0 0 20 20;" xml:space="preserve">
<style type="text/css">
	.st0{fill:#040303;}
	.st1{fill:#FFFFFF;}
	.st2{fill:#E77D85;}
	.st3{fill:#E2636D;}
	.st4{fill:#FDF9CE;}
	.st5{fill:#E0E0E0;}
	.st6{fill:#E87E86;}
	.st7{fill:#DEE8ED;}
	.st8{fill:#FDF6B0;}
	.st9{fill:#030303;}
	.st10{fill:#F9F9F9;}
</style>
<g>
	<path class="st0" d="M19.8,12c-0.1,0,0,0.1-0.1,0.1c-0.2,0.7-0.9,1-1.5,0.8c-0.6-0.2-1-0.8-0.9-1.5c0.1-0.6,0.4-1,0.8-1.5
		c0.3-0.3,0.6-0.3,0.9,0c0.4,0.4,0.6,0.9,0.8,1.4c0,0,0,0.1,0,0.1C19.8,11.7,19.8,11.8,19.8,12z M18.5,10.5
		c-0.3,0.3-0.5,0.7-0.5,1.1c-0.1,0.3,0,0.5,0.3,0.7c0.2,0.2,0.5,0.2,0.8,0c0.2-0.2,0.3-0.4,0.3-0.7c-0.1-0.4-0.3-0.8-0.6-1.1
		C18.6,10.3,18.5,10.4,18.5,10.5z"/>
	<path class="st0" d="M2.5,14.8c-0.1-0.3-0.1-0.3,0.1-0.5c1-0.8,2-1.6,3-2.4c0.3-0.3,0.3-0.4,0-0.7c-0.4-0.4-0.8-0.8-1.1-1.1
		c-0.7-0.7-0.7-1.6,0-2.3c1.2-1.2,2.4-2.4,3.7-3.7C8.2,4,8.3,3.9,8.4,3.9c0.1,0,0.1-0.1,0.2-0.1c1-1,2.1-2.1,3.1-3.1
		c0.4-0.4,1-0.4,1.1,0.3c0,0.1,0.1,0.2,0.1,0.3c0.1,0.5,0.4,0.8,0.9,0.9c0.4,0.1,0.7,0.2,1,0.5c0.3,0.3,0.4,0.6,0.5,1
		c0.1,0.6,0.4,0.9,1,1c0.4,0.1,0.7,0.2,1,0.6c0.2,0.3,0.3,0.6,0.4,0.9C17.7,6.6,18,6.9,18.6,7C18.7,7,18.9,7,19,7.1
		c0.5,0.2,0.6,0.7,0.2,1.1c-0.7,0.7-1.3,1.3-2,2c-0.3,0.3-0.6,0.6-1,1c-0.2,0.2-0.3,0.3-0.4,0.5c0,0.1-0.1,0.1-0.1,0.2
		c-1.2,1.2-2.5,2.5-3.7,3.7c-0.7,0.7-1.6,0.7-2.2,0c-0.4-0.4-0.8-0.8-1.2-1.2C8.4,14,8.3,14,8,14.3c-1.2,1.5-2.5,3-3.7,4.5
		c-1.2,1.4-3.4,1-4-0.6c-0.4-0.9-0.2-1.7,0.5-2.5c0.2-0.2,0.4-0.4,0.6-0.6c0.1-0.1,0.3-0.1,0.4,0c0.1,0.2,0.1,0.3-0.1,0.5
		c-0.2,0.2-0.4,0.3-0.6,0.5c-0.6,0.7-0.5,1.8,0.1,2.4c0.1,0,0.1,0.1,0.2,0.1c0.8,0.6,1.8,0.5,2.4-0.3c0.5-0.6,0.9-1.1,1.4-1.7
		c0.8-1,1.7-2,2.5-3.1c0.5-0.3,0.9-0.3,1.3,0.2c0.3,0.3,0.6,0.6,0.9,0.9c0.1,0.1,0.2,0.2,0.2,0.2c0.5,0.5,1,0.5,1.5,0
		c0.5-0.5,1.1-1.1,1.6-1.6c0.1-0.1,0.3-0.2,0.3-0.3c0-0.1-0.2-0.2-0.3-0.3c0,0,0,0,0,0c-0.2-0.2-0.2-0.3-0.1-0.5
		c0.1,0,0.2-0.1,0.3-0.1c0.2,0.1,0.3,0.3,0.5,0.4c0.1,0.1,0.1,0.1,0.2,0c0.3-0.3,0.6-0.6,1-0.9c0.1-0.1,0.1-0.2,0-0.3
		c-1.6-1.6-3.2-3.2-4.8-4.8C9.8,5.9,9.1,5.3,8.5,4.7c-0.1-0.1-0.1-0.1-0.2,0C8.1,4.8,8,5,7.8,5.1C7.7,5.3,7.5,5.5,7.4,5.6
		c-0.1,0.1-0.1,0.2,0,0.3c1.8,1.8,3.5,3.5,5.3,5.3c0.1,0.1,0.2,0.3,0.1,0.5c-0.2,0.1-0.3,0.1-0.5-0.1C10.5,9.8,8.7,8.1,7,6.3
		c-0.2-0.2-0.2-0.2-0.3,0C6,6.9,5.4,7.5,4.8,8.2c-0.4,0.4-0.4,1,0,1.4C5.2,10,5.6,10.4,6,10.8c0.5,0.5,0.5,1.1-0.1,1.5
		c-1,0.8-2,1.6-2.9,2.4C2.8,14.9,2.6,14.9,2.5,14.8z M11.3,1.9C11.1,2,11,2.1,10.9,2.2c0,0-0.1,0.1-0.1,0.1c0.1,0.6,0.3,1.1,0.9,1.5
		c0.2,0.1,0.2,0.2,0.2,0.4c-0.2,0.2-0.3,0.2-0.5,0.1c-0.2-0.1-0.3-0.2-0.4-0.4c-0.3-0.3-0.5-0.7-0.6-1.2C9.9,3.3,9.4,3.7,9,4.2
		C8.9,4.2,9,4.3,9,4.3c0.4,0.4,0.8,0.8,1.2,1.2c0.1,0.1,0.1,0.1,0.2,0c0.2-0.2,0.3-0.4,0.5-0.5c0.1-0.1,0.3-0.1,0.4,0
		c0.1,0.1,0.1,0.3,0,0.4c-0.2,0.2-0.3,0.4-0.5,0.5c-0.1,0.1-0.1,0.1,0,0.2c0.4,0.4,0.8,0.8,1.2,1.2c0.1,0.1,0.1,0.1,0.2,0
		c0.2-0.2,0.3-0.4,0.5-0.5c0.1-0.1,0.3-0.1,0.4,0c0.1,0.1,0.1,0.3,0,0.4c-0.2,0.2-0.3,0.3-0.5,0.5c-0.1,0.1-0.1,0.1,0,0.2
		c0.4,0.4,0.8,0.8,1.2,1.2c0.1,0.1,0.1,0.1,0.2,0c0.2-0.2,0.3-0.3,0.5-0.5c0.1-0.1,0.3-0.2,0.4,0C15,8.6,15,8.8,14.9,9
		c-0.2,0.2-0.4,0.4-0.5,0.5c-0.1,0.1-0.1,0.1,0,0.1c0.2,0.2,0.5,0.5,0.7,0.7c0.2,0.2,0.3,0.3,0.5,0.5c0.1,0.1,0.1,0.1,0.1,0
		c0.4-0.4,0.8-0.8,1.2-1.2c0,0,0.1-0.1,0.1-0.1c-0.1-0.3-0.1-0.5-0.2-0.8C16.4,8.3,16,8,15.5,7.9c-0.5-0.1-1-0.4-1.3-0.8
		c-0.3-0.3-0.4-0.7-0.5-1.2c-0.1-0.5-0.4-0.8-0.8-1.1c-0.2-0.1-0.2-0.2-0.2-0.4c0.2-0.2,0.3-0.2,0.5-0.1c0.6,0.4,0.9,0.9,1.1,1.6
		c0.2,0.7,0.6,1.2,1.4,1.4c0.1,0,0.2,0.1,0.3,0.1c0.5,0.2,0.9,0.5,1.3,1c0.1,0.2,0.2,0.5,0.3,0.8c0.1,0,0.1-0.1,0.1-0.1
		c0.3-0.3,0.7-0.7,1-1c0.1-0.1,0.3-0.2,0.3-0.3c0-0.1-0.2-0.1-0.4-0.1c-0.8-0.1-1.2-0.6-1.4-1.4c-0.1-0.6-0.5-0.9-1.1-1
		c-0.3-0.1-0.6-0.2-0.9-0.5c-0.3-0.3-0.4-0.6-0.5-1c-0.1-0.5-0.4-0.8-0.9-0.9c-0.1,0-0.1,0-0.2-0.1c-0.7-0.2-1.1-0.6-1.2-1.2
		c0-0.2,0-0.4-0.1-0.5C11.9,1.3,11.6,1.6,11.3,1.9z"/>
	<path class="st1" d="M1.3,18.6c-0.7-0.6-0.7-1.7-0.1-2.4c0.2-0.2,0.4-0.4,0.6-0.5c0.2-0.2,0.2-0.3,0.1-0.5c0.2-0.1,0.4-0.3,0.6-0.4
		c0.2,0.1,0.3,0.1,0.5-0.1c1-0.8,2-1.6,2.9-2.4c0.6-0.5,0.6-1,0.1-1.5C5.6,10.4,5.2,10,4.8,9.6c-0.4-0.4-0.4-1,0-1.4
		C5.4,7.5,6,6.9,6.7,6.3c0,0.1,0.1,0.1,0.2,0.2c1.3,1.3,2.6,2.6,3.9,3.9c0.4,0.4,0.7,1,0.7,1.6c0.1,1.1-0.5,2-1.3,2.6
		c0,0-0.1,0.1-0.2,0.1c-0.3-0.3-0.6-0.6-0.9-0.9c-0.4-0.4-0.8-0.5-1.3-0.2c-0.2-0.1-0.3-0.3-0.5-0.5c-0.2-0.3-0.7-0.3-1,0
		c-0.1,0.2-0.3,0.3-0.4,0.5c-0.4,0.5-0.8,0.9-1.2,1.4c-0.4,0.5-0.9,1.1-1.3,1.6c0,0-0.1,0.1-0.1,0.1c-0.5-0.6-1.2-0.5-1.6-0.2
		c-0.5,0.4-0.5,1.3,0.2,1.7C1.8,18.5,1.5,18.6,1.3,18.6z"/>
	<path class="st2" d="M18.2,12.3c-0.2-0.2-0.3-0.4-0.3-0.7c0.1-0.4,0.3-0.8,0.5-1.1c0,0,0,0,0.1,0c0.2,0.4,0.4,1,0.1,1.4
		C18.5,12.1,18.3,12.1,18.2,12.3z"/>
	<path class="st3" d="M18.2,12.3c0.1-0.1,0.3-0.2,0.4-0.4c0.3-0.4,0.1-1.1-0.1-1.4c0,0,0,0-0.1,0c0.1-0.1,0.1-0.2,0.2,0
		c0.2,0.3,0.5,0.7,0.6,1.1c0.1,0.3,0,0.6-0.3,0.7C18.7,12.5,18.4,12.5,18.2,12.3z"/>
	<path class="st4" d="M15.1,10.4c-0.2-0.2-0.5-0.5-0.7-0.7c-0.1-0.1-0.1-0.1,0-0.1c0.2-0.2,0.4-0.4,0.5-0.5c0.2-0.2,0.2-0.3,0-0.5
		c-0.1-0.1-0.3-0.1-0.4,0c-0.2,0.2-0.3,0.3-0.5,0.5c-0.1,0.1-0.1,0.1-0.2,0c-0.4-0.4-0.8-0.8-1.2-1.2c-0.1-0.1-0.1-0.1,0-0.2
		c0.2-0.2,0.3-0.3,0.5-0.5c0.1-0.1,0.1-0.3,0-0.4c-0.1-0.1-0.3-0.1-0.4,0c-0.2,0.2-0.4,0.3-0.5,0.5c-0.1,0.1-0.1,0.1-0.2,0
		c-0.4-0.4-0.8-0.8-1.2-1.2c-0.1-0.1-0.1-0.1,0-0.2c0.2-0.2,0.4-0.3,0.5-0.5c0.1-0.2,0.2-0.3,0-0.4c-0.1-0.1-0.3-0.1-0.4,0
		c-0.2,0.2-0.4,0.3-0.5,0.5c-0.1,0.1-0.1,0.1-0.2,0C9.8,5.1,9.4,4.7,9,4.3c0,0-0.1-0.1,0-0.2c0.5-0.5,0.9-0.9,1.4-1.4
		c0.1,0.5,0.3,0.8,0.6,1.2c0.1,0.1,0.3,0.3,0.4,0.4c0.2,0.1,0.3,0.1,0.5-0.1c0.2,0.1,0.5,0.1,0.7,0.2c-0.1,0.2,0,0.3,0.2,0.4
		c0.4,0.3,0.7,0.6,0.8,1.1c0.1,0.4,0.2,0.8,0.5,1.2c0.4,0.4,0.8,0.7,1.3,0.8c0.6,0.1,1,0.4,1.3,0.9c-0.1,0.1-0.2,0.2-0.3,0.3
		C15.9,9.5,15.5,10,15.1,10.4z"/>
	<path class="st5" d="M1.3,18.6c0.2,0,0.5-0.1,0.7-0.3c0.2,0.1,0.5,0.2,0.8,0.1c0.5-0.1,1-0.8,0.6-1.6c0.1,0,0.1,0,0.1-0.1
		c0.4-0.5,0.9-1.1,1.3-1.6c0.4-0.5,0.8-1,1.2-1.4c0.1-0.2,0.3-0.3,0.4-0.5c0.2-0.3,0.7-0.3,1,0c0.1,0.2,0.3,0.3,0.5,0.5
		c-0.8,1-1.7,2-2.5,3.1c-0.5,0.6-0.9,1.1-1.4,1.7c-0.6,0.7-1.7,0.8-2.4,0.3C1.4,18.7,1.3,18.6,1.3,18.6z"/>
	<path class="st5" d="M10,14.8c0.1,0,0.1,0,0.2-0.1c0.8-0.7,1.4-1.5,1.3-2.6c-0.1-0.6-0.3-1.1-0.7-1.6C9.4,9.1,8.1,7.8,6.8,6.5
		C6.8,6.5,6.7,6.4,6.7,6.3c0.2-0.2,0.2-0.2,0.3,0c1.8,1.8,3.5,3.5,5.3,5.3c0.2,0.2,0.3,0.2,0.5,0.1c0.1,0.2,0.3,0.4,0.5,0.5
		c-0.1,0.2-0.1,0.3,0.1,0.5c0,0,0,0,0,0c0.1,0.1,0.3,0.2,0.3,0.3c0,0.1-0.2,0.2-0.3,0.3c-0.5,0.5-1.1,1.1-1.6,1.6
		c-0.5,0.5-1,0.5-1.5,0C10.2,14.9,10.1,14.8,10,14.8z"/>
	<path class="st6" d="M12.6,4.4c-0.2-0.1-0.5-0.1-0.7-0.2c0.1-0.2,0-0.3-0.2-0.4c-0.5-0.3-0.8-0.9-0.9-1.5c0-0.1,0-0.1,0.1-0.1
		C11,2.1,11.1,2,11.3,1.9c0.2,0.4,0.6,0.6,1,0.6c0.7,0.1,1.1,0.5,1.2,1.2c0,0.1,0,0.3,0.1,0.4c0.2,0.5,0.6,0.7,1.1,0.8
		c0.7,0.1,1.1,0.5,1.2,1.2c0.1,0.7,0.5,1.1,1.2,1.2c0.2,0,0.3,0.1,0.4,0.1c0.3,0.1,0.3,0.4,0.1,0.6c-0.1,0.1-0.3,0.2-0.4,0.4
		c-0.3-0.4-0.7-0.8-1.3-1c-0.1,0-0.2-0.1-0.3-0.1c-0.7-0.2-1.2-0.6-1.4-1.4c-0.1-0.7-0.5-1.2-1.1-1.6C12.9,4.2,12.8,4.2,12.6,4.4z"
		/>
	<path class="st3" d="M17.1,8.4c0.1-0.2,0.3-0.3,0.4-0.4c0.2-0.2,0.2-0.5-0.1-0.6c-0.1-0.1-0.3-0.1-0.4-0.1c-0.6-0.1-1-0.5-1.2-1.2
		c-0.1-0.7-0.5-1.1-1.2-1.2c-0.5-0.1-0.9-0.3-1.1-0.8c-0.1-0.1-0.1-0.3-0.1-0.4c-0.1-0.7-0.5-1-1.2-1.2c-0.4-0.1-0.7-0.3-1-0.6
		c0.3-0.3,0.6-0.6,0.9-0.9c0.1,0.1,0.1,0.3,0.1,0.5c0.2,0.7,0.6,1.1,1.2,1.2c0.1,0,0.1,0,0.2,0.1c0.5,0.1,0.8,0.4,0.9,0.9
		c0.1,0.4,0.2,0.7,0.5,1c0.2,0.2,0.5,0.4,0.9,0.5c0.6,0.1,0.9,0.4,1.1,1c0.1,0.8,0.6,1.2,1.4,1.4c0.1,0,0.4,0,0.4,0.1
		c0,0.1-0.2,0.2-0.3,0.3c-0.3,0.3-0.7,0.7-1,1c0,0-0.1,0.1-0.1,0.1C17.4,8.8,17.3,8.6,17.1,8.4z"/>
	<path class="st3" d="M7.8,5.1C8,5,8.1,4.8,8.3,4.7c0.1-0.1,0.1-0.1,0.2,0c0.6,0.6,1.2,1.2,1.8,1.8c1.6,1.6,3.2,3.2,4.8,4.8
		c0.1,0.1,0.1,0.2,0,0.3c-0.3,0.3-0.6,0.6-1,0.9c-0.1,0.1-0.1,0.1-0.2,0c-0.2-0.2-0.3-0.3-0.5-0.4c0.1-0.2,0.3-0.3,0.3-0.5
		c0.2,0,0.3,0,0.4-0.2c0.1-0.2,0-0.3-0.2-0.4c-1.7-1.7-3.5-3.5-5.2-5.2C8.7,5.6,8.6,5.6,8.4,5.7c-0.1,0-0.1-0.1-0.2-0.2
		C8.1,5.4,8,5.2,7.8,5.1z"/>
	<path class="st7" d="M7.8,5.1C8,5.2,8.1,5.4,8.2,5.5c0.1,0.1,0.1,0.1,0.2,0.2C8.2,5.9,8.2,6,8.4,6.2c1.8,1.8,3.5,3.5,5.3,5.3
		c0,0,0.1,0.1,0.1,0.1c0,0.2-0.1,0.4-0.3,0.5c-0.1,0-0.2,0-0.3,0.1c-0.2-0.2-0.4-0.3-0.5-0.5c0.1-0.2,0-0.3-0.1-0.5
		c-1.8-1.8-3.5-3.5-5.3-5.3c-0.1-0.1-0.1-0.2,0-0.3C7.5,5.5,7.7,5.3,7.8,5.1z"/>
	<path class="st8" d="M15.1,10.4c0.5-0.4,0.9-0.9,1.3-1.3c0.1-0.1,0.2-0.2,0.3-0.3C16.9,9,16.9,9.3,17,9.6c0,0.1,0,0.1-0.1,0.1
		c-0.4,0.4-0.8,0.8-1.2,1.2c-0.1,0.1-0.1,0.1-0.1,0C15.4,10.7,15.2,10.5,15.1,10.4z"/>
	<path class="st0" d="M3.3,16.9c0.4,0.8-0.1,1.4-0.6,1.6c-0.3,0.1-0.5,0-0.8-0.1c-0.7-0.4-0.7-1.2-0.2-1.7
		C2.1,16.3,2.9,16.2,3.3,16.9z M2.4,17.9c0.3,0,0.5-0.2,0.5-0.5c0-0.2-0.2-0.4-0.5-0.4C2.2,17,2,17.2,2,17.4
		C2,17.7,2.2,17.9,2.4,17.9z"/>
	<path class="st9" d="M13.8,11.6c0,0-0.1-0.1-0.1-0.1C12,9.7,10.2,7.9,8.4,6.2C8.2,6,8.2,5.9,8.4,5.7c0.2-0.1,0.3,0,0.5,0.1
		c1.7,1.7,3.5,3.5,5.2,5.2c0.1,0.1,0.2,0.2,0.2,0.4C14.1,11.6,14,11.6,13.8,11.6z"/>
	<path class="st10" d="M2.4,17.9c-0.2,0-0.5-0.2-0.5-0.4C2,17.2,2.2,17,2.4,17c0.2,0,0.4,0.2,0.5,0.4C2.9,17.7,2.7,17.9,2.4,17.9z"
		/>
</g>
</svg>
