<?xml version="1.0" encoding="utf-8"?>
<!-- Generator: Adobe Illustrator 19.0.0, SVG Export Plug-In . SVG Version: 6.00 Build 0)  -->
<svg version="1.1" id="Layer_1" xmlns="http://www.w3.org/2000/svg" xmlns:xlink="http://www.w3.org/1999/xlink" x="0px" y="0px"
	 viewBox="0 0 512 512" style="enable-background:new 0 0 512 512;" xml:space="preserve">
<style type="text/css">
	.st0{fill:#FFFFFF;}
	.st1{fill:#FCEE22;}
	.st2{fill:#232323;}
</style>
<circle id="XMLID_1_" class="st0" cx="256.7" cy="256.7" r="254.3"/>
<rect id="XMLID_7_" x="145.7" y="305.2" class="st1" width="94.3" height="69.8"/>
<rect id="XMLID_8_" x="314.3" y="256" class="st1" width="113.9" height="113.9"/>
<g>
	<path class="st2" d="M244.7,173.1l-26.3,63.8c-0.9,2.1-3,3.7-5.3,3.9L78.7,252.6c-3.3,0.3-5.8,3.1-5.7,6.4l2.8,105.6
		c0.1,2.9,2.1,5.4,5,6L239,403.7c3.9,0.8,7.8,1.3,11.7,1.2v-31.3V174.2C250.7,165.6,248,165,244.7,173.1z M226.3,369.9l-59.5-9.6
		v-31.2h59.5L226.3,369.9L226.3,369.9z M200.3,225.6l-158.5,16c-4.8,0.4-8.3-4.5-6.3-8.9l42.2-90.2c0.9-1.8,2.5-3.1,4.6-3.5
		l174.2-32l-51,114.9C204.5,223.9,202.6,225.4,200.3,225.6z M435.3,252.6l-134.4-11.8c-2.3-0.2-4.4-1.7-5.3-3.9l-26.3-63.8
		c-3.3-8.1-6-7.5-6,1.2v199.4V405c3.9,0,7.9-0.4,11.7-1.2l158.3-33.3c2.9-0.6,4.9-3,5-6l2.8-105.6
		C441.1,255.6,438.6,252.9,435.3,252.6z M379.9,308.9l-7.4,0.2l-0.2,46.7c0,2.1-2.1,4-4.7,4.4l-12.2,1.8c-2.8,0.4-5-1-5-3.2
		l0.1-49.1l-8.5,0.3c-4.1,0.1-6.7-3.2-4.7-5.9l20.2-26.3c1.9-2.5,6.6-2.2,8.4,0.4l17.7,25.3C385.5,305.8,383.3,308.8,379.9,308.9z
		 M472.2,241.6l-158.5-16c-2.2-0.3-4.2-1.6-5.1-3.7l-51-114.9l174.2,32c2,0.4,3.7,1.7,4.6,3.5l42.1,90.3
		C480.5,237.1,477,242,472.2,241.6z"/>
</g>
</svg>
