<?xml version="1.0" encoding="utf-8"?>
<!-- Generator: Adobe Illustrator 19.0.0, SVG Export Plug-In . SVG Version: 6.00 Build 0)  -->
<svg version="1.1" id="Layer_1" xmlns="http://www.w3.org/2000/svg" xmlns:xlink="http://www.w3.org/1999/xlink" x="0px" y="0px"
	 viewBox="-99 1 512 512" style="enable-background:new -99 1 512 512;" xml:space="preserve">
<style type="text/css">
	.st0{fill:#FFFFFF;}
	.st1{fill:#CEA702;}
	.st2{fill:#B3CC00;}
	.st3{fill:#FCEF00;}
	.st4{fill:#1C1C1C;}
</style>
<circle id="XMLID_7_" class="st0" cx="157.3" cy="257.7" r="254.3"/>
<g>
	<rect id="XMLID_6_" x="151.2" y="183.7" class="st1" width="129.1" height="240.5"/>
	<rect id="XMLID_5_" x="33.9" y="183.7" class="st2" width="129.1" height="240.5"/>
	<rect id="XMLID_4_" x="51.4" y="183.7" class="st3" width="211.2" height="240.5"/>
	<g>
		<path id="XMLID_3_" class="st4" d="M98.2,154.5c-2.4,0-4.5-1.4-5.4-3.6c-0.9-2.2-0.4-4.8,1.3-6.4l58.8-58.8
			c1.1-1.1,2.6-1.7,4.2-1.7c1.5,0,3.1,0.6,4.2,1.7l58.6,58.6c1.4,1.4,2,3.6,1.5,5.7c-0.5,2-2.1,3.6-4.2,4.2c-2,0.5-4.2,0-5.7-1.5
			L157,98.1l-54.7,54.7C101.2,153.9,99.8,154.5,98.2,154.5z"/>
		<path id="XMLID_2_" class="st4" d="M157,318.6c-1.5,0-3.1-0.6-4.2-1.7s-1.7-2.6-1.7-4.2v-223c0-3.2,2.6-5.9,5.9-5.9
			s5.9,2.6,5.9,5.9v223c0,1.5-0.6,3.1-1.7,4.2C160.1,317.9,158.5,318.6,157,318.6L157,318.6z"/>
		<path id="XMLID_1_" class="st4" d="M280.2,430.1H33.9c-1.5,0-3.1-0.6-4.2-1.7c-1.1-1.1-1.7-2.6-1.7-4.2V183.7
			c0-1.5,0.6-3.1,1.7-4.2c1.1-1.1,2.6-1.7,4.2-1.7H116c3.2,0,5.9,2.6,5.9,5.9c0,3.2-2.6,5.9-5.9,5.9H39.7v228.8h234.7V189.5h-76.3
			c-3.2,0-5.9-2.6-5.9-5.9c0-3.2,2.6-5.9,5.9-5.9h82.2c1.5,0,3.1,0.6,4.2,1.7c1.1,1.1,1.7,2.6,1.7,4.2v240.5c0,1.5-0.6,3.1-1.7,4.2
			C283.2,429.5,281.8,430.1,280.2,430.1z"/>
	</g>
</g>
</svg>
