<?xml version="1.0" encoding="utf-8"?>
<!-- Generator: Adobe Illustrator 19.0.0, SVG Export Plug-In . SVG Version: 6.00 Build 0)  -->
<svg version="1.1" id="Layer_1" xmlns="http://www.w3.org/2000/svg" xmlns:xlink="http://www.w3.org/1999/xlink" x="0px" y="0px"
	 viewBox="0 0 512 512" style="enable-background:new 0 0 512 512;" xml:space="preserve">
<style type="text/css">
	.st0{display:none;fill:#FFFFFF;stroke:#000000;stroke-miterlimit:10;}
	.st1{fill:#FFFFFF;}
	.st2{fill:#1E1E1E;}
	.st3{fill:#232323;}
	.st4{fill:#D48B29;}
	.st5{fill:#66C6B9;}
	.st6{fill:#FCAF17;}
	.st7{fill:#E7E9ED;}
	.st8{fill:#2C3C4F;}
	.st9{fill:#334B5E;}
	.st10{fill:#56C0EA;}
	.st11{fill:#8BD7F8;}
</style>
<rect id="XMLID_1_" x="-2" y="-5" class="st0" width="517" height="523"/>
<g id="XMLID_2_">
	<circle id="XMLID_35_" class="st1" cx="257" cy="257" r="250"/>
	<path id="XMLID_34_" class="st2" d="M436.1,196.5c0,3-0.7,5.5-2.5,8c-0.1,0.2-0.4,0.3-0.6,0.2c-8.3-4.5-18.2-6.7-28.3-6.7
		c-10.5,0-20.4,1.8-28.3,6.6c-0.2,0.1-0.5,0.1-0.7-0.2c-1.4-2.6-2.5-5.1-2.5-8c0-11.5,14.2-21,31.4-21
		C421.9,175.5,436.1,185.1,436.1,196.5z"/>
	<path id="XMLID_33_" class="st3" d="M458.7,257.4c0,11.9-1.9,24.1-5,36h-98c-0.8-3.4-1.5-6.5-2.3-9.9c9.2-16.5,19.1-43.6,14.2-72.7
		c9.6-8.8,22.6-12.6,36.7-12.6C434.6,198.1,458.7,214.5,458.7,257.4z"/>
	<path id="XMLID_32_" class="st4" d="M439.5,327.8c0,0,2.7,15.3-14.9,31L369.5,332c0.4-4.2,1.5-8,3.1-11.5
		c8.4,15.3,19.9,25.6,32.5,25.6s24.1-10.7,32.5-25.6C438.4,322.8,439.2,325.1,439.5,327.8L439.5,327.8z"/>
	<path id="XMLID_31_" class="st5" d="M478.6,356.9c-8.4,19.1-19.5,36.7-32.5,52.8l-3.1-9.9c1.9-5.7,9.2-37.9,4.6-58.2L478.6,356.9z"
		/>
	<g id="XMLID_71_">
		<path id="XMLID_30_" class="st1" d="M443,399.7l-12.2-38.3l-6.1-3.1c17.6-15.7,14.9-31,14.9-31C456.8,340.8,445.3,392.1,443,399.7
			z"/>
		<path id="XMLID_29_" class="st1" d="M369.9,327.8c-0.4,1.1-0.4,2.7-0.8,4.2l-2.3-1.1C367.6,329.7,368.7,328.6,369.9,327.8z"/>
	</g>
	<path id="XMLID_28_" class="st6" d="M456.8,297.9c-3.4,6.9-9.2,9.9-13,7.7c-8.8,22.6-23,40.2-39.4,40.2
		c-16.5,0-30.6-17.6-39.4-40.2c-3.8,2.3-9.6-1.1-13-7.7c-1.5-3.1-2.3-6.1-2.7-8.8c1.9-2.7,3.8-6.1,5.7-9.9c0.8,0,1.5,0,2.7,0.4l0,0
		l0.4,0.4l0,0c0-0.4-1.5-14.5,36-29.8c13.4-5.4,21.8-11.5,26.8-17.2c1.9,8.4,6.5,20.3,18.8,24.9c0,0,11.5,2.7,10.3,21.8l0,0
		c1.9-0.8,3.8-0.8,5.4,0.4C460.2,283,460.6,291.1,456.8,297.9z"/>
	<path id="XMLID_27_" class="st7" d="M342,392.1L342,392.1c-0.8,5.4-1.9,11.1-2.7,17.2l-13.4-40.6
		C332.4,374.1,338.5,381.4,342,392.1z"/>
	<path id="XMLID_26_" class="st4" d="M338.1,304.8c0,0,4.6,25.3-32.1,47.1l-41.7-20.3c-11.1-14.5-8.8-26.8-8.8-26.8s0,0-0.4,0
		c0-0.4,0-0.8,0.4-1.5c11.5,14.2,25.6,23.3,41.3,23.3s29.8-9.2,41.3-23.3C338.1,304.1,338.5,304.5,338.1,304.8
		C338.5,304.8,338.5,304.8,338.1,304.8z"/>
	<path id="XMLID_25_" class="st8" d="M446,409.7c-23,28.3-52,51.3-85.3,67l-21.8-67.4c1.1-5.7,1.9-11.5,2.7-17.2
		c0.4,0.8,12.2-43.6,5.7-70.4l82.7,39.8L446,409.7z"/>
	<g id="XMLID_64_">
		<path id="XMLID_24_" class="st1" d="M342,392.1c-3.4-10.7-9.6-18.4-16.1-23.3l-2.7-8.4l-16.8-8c36.7-21.8,32.1-47.1,32.1-47.1
			C361.1,322.1,342.3,393.2,342,392.1z"/>
		<path id="XMLID_23_" class="st1" d="M264.3,331.6l-18.4-8.8c1.5-7.7,4.6-14.2,9.6-18C255.5,304.8,253.2,317.1,264.3,331.6z"/>
	</g>
	<path id="XMLID_22_" class="st6" d="M349.6,271.5c-5.4,16.8-7.7,26-7.7,27.2l0,0c-12.2,16.5-27.9,27.9-44.8,27.9
		c-16.1,0-31-9.9-42.9-24.9c0,0,0.4,0,0.4,0.4c-11.5-14.2-14.2-34.1-13.8-51.3l0,0c4.2-9.9,7.3-21.8,9.2-34.4
		c15.3,11.5,50.5,12.2,50.5,12.2c-18-3.1-20.7-17.2-20.7-17.2c3.1,8.8,42.9,14.2,42.9,14.2C363.4,231.4,349.6,271.5,349.6,271.5z"/>
	<g id="XMLID_60_">
		<path id="XMLID_21_" class="st8" d="M254.3,302.2c0,0-13.4-10.7-24.5-29.5c3.4-5.7,7.3-13.4,10.7-21.8
			C240.2,268.1,242.8,288,254.3,302.2z"/>
		<path id="XMLID_20_" class="st8" d="M342,299.1c0,0,1.9-9.6,7.7-27.2c0,0,13.8-40.2-27.6-46.3c0,0-39.8-5.4-42.9-14.2
			c0,0,3.1,14.5,20.7,17.2c0,0-35.2-0.8-50.5-12.2c2.3-19.1,0.8-40.2-9.2-61.2c8-4.2,18.4-5.7,32.5-1.9c0,0,55.9-22.2,84.6,28.3
			C387.9,235.6,349.6,294.1,342,299.1z"/>
	</g>
	<path id="XMLID_55_" class="st9" d="M333.9,242.8h-19.5h-1.9h-31h-1.1h-20.7c-6.1,0-11.1,5-11.1,11.1v9.2c0,6.1,5,11.1,11.1,11.1
		h21.4c2.7,0,5.4-1.1,7.3-2.7c0.8-0.4,1.1-0.8,1.5-1.5c1.5-3.4,4.2-5.4,6.9-5.4c2.7,0,5.4,1.9,6.9,5.4c0.4,0.8,0.8,1.1,1.5,1.5
		c1.9,1.9,4.6,2.7,7.3,2.7h21.4c6.1,0,11.1-5,11.1-11.1v-9.2C345,247.8,340,242.8,333.9,242.8z M259.7,268.9c-3.1,0-5.7-2.7-5.7-5.7
		V254c0-3.1,2.7-5.7,5.7-5.7h20.7h1.1c3.1,0,5.7,2.7,5.7,5.7v9.2c0,0.8,0,1.5-0.4,2.3c-0.4,0.4-0.4,0.8-0.8,1.1
		c-1.1,1.5-2.7,2.3-4.6,2.3H259.7L259.7,268.9z M296.8,258.9c-1.5,0-3.1,0.4-4.6,1.1v-6.5c0-2.3-0.8-4.2-1.5-5.7h12.6
		c-1.1,1.5-1.5,3.8-1.5,5.7v6.5C299.9,259.3,298.3,258.9,296.8,258.9z M339.7,263.1c0,3.1-2.7,5.7-5.7,5.7h-21.4
		c-1.9,0-3.4-0.8-4.6-2.3c-0.4-0.4-0.4-0.8-0.8-1.1c-0.4-0.8-0.4-1.5-0.4-2.3v-9.2c0-3.1,2.7-5.7,5.7-5.7h1.9h19.5
		c3.1,0,5.7,2.7,5.7,5.7L339.7,263.1L339.7,263.1z"/>
	<g id="XMLID_51_">
		<path id="XMLID_15_" class="st7" d="M88.2,431.5c0.4,0.8,1.1,1.1,1.5,1.5C89.4,432.6,88.6,432.3,88.2,431.5L88.2,431.5z"/>
		<path id="XMLID_14_" class="st7" d="M167.1,354.2c-0.4,0-0.8,0.4-1.1,0.4s-0.8-0.4-1.1-0.4H167.1z"/>
		<path id="XMLID_13_" class="st7" d="M218.7,396.3c-4.2,27.9-11.1,60.5-22.6,96.1c-24.9-6.5-48.6-16.8-69.6-30.2
			c-6.5-23.7-10.7-45.9-13.4-65.8c12.2-38.3,52.8-41.7,52.8-41.7S206.9,358,218.7,396.3z"/>
	</g>
	<path id="XMLID_12_" class="st4" d="M214.5,293.4c0,0,6.1,34.4-48.6,61.2h-0.4c-54.7-26.8-48.6-61.2-48.6-61.2s0,0-0.4,0
		c0-0.4,0.4-1.1,0.4-1.5c13.4,16.5,30.2,27.2,48.6,27.2s34.8-10.7,48.6-27.2C214.5,292.6,214.9,293,214.5,293.4
		C214.9,293.7,214.9,293.4,214.5,293.4z"/>
	<g id="XMLID_47_">
		<path id="XMLID_11_" class="st10" d="M166.3,354.6C166.3,354.6,165.9,354.6,166.3,354.6c-0.4,0-0.4,0-0.4,0H166.3z"/>
		<path id="XMLID_10_" class="st10" d="M185.4,359.9l-6.5,18.8h-25.6l-6.5-18.8c10.7-4.6,19.1-5.4,19.1-5.4S174.7,355.3,185.4,359.9
			z"/>
	</g>
	<path id="XMLID_9_" class="st11" d="M195,492l-16.1-113.3h-25.6l-13,91.5C157.1,479.3,175.5,487,195,492z"/>
	<path id="XMLID_8_" d="M126.5,462.1C84.4,435.3,51.1,395.9,32,349.2l74.2-35.6c-7.7,32.1,6.5,84.2,6.9,83
		C115.8,416.2,120.4,438,126.5,462.1z"/>
	<g id="XMLID_42_">
		<path id="XMLID_7_" class="st1" d="M214.5,293.4c0,0,6.1,34.4-48.6,61.2c0,0,40.9,3.1,52.8,41.7
			C219.5,397.4,241.7,314,214.5,293.4z"/>
		<path id="XMLID_6_" class="st1" d="M117.3,293.4c-26.8,20.3-4.6,104.1-4.2,102.6c12.2-38.3,52.8-41.7,52.8-41.7
			C111.2,328.2,117.3,293.4,117.3,293.4z"/>
	</g>
	<path id="XMLID_5_" class="st6" d="M227.9,254.3c-6.9,21-9.2,32.1-9.2,32.1C204.6,306,186.2,319,165.9,319
		c-19.1,0-36.4-11.9-50.5-29.5l0.4,0.4c-29.8-36.7-9.2-104.5-9.2-104.5c14.9,16.8,63.1,18,63.1,18c-21-3.4-24.5-20.3-24.5-20.3
		c3.4,10.3,50.1,16.5,50.1,16.5C244,207.3,227.9,254.3,227.9,254.3z"/>
	<g id="XMLID_38_">
		<path id="XMLID_4_" class="st9" d="M137.1,114.8c0.6,0.1,1.2,0.1,1.8-0.1c7.8-2.8,67.2-22.1,98.3,33.6
			c28.9,50.9,5.5,105.6-9.6,128c-2,2.9-6.5,0.8-5.5-2.6c1.4-5,3.4-11.5,6-19.4c0,0,16.1-47.1-32.1-54.3c0,0-23.8-3.1-38.6-8.6
			c-3.2-1.2-5.7,3-3.1,5.2c0.1,0.1,0.2,0.2,0.3,0.3c2.3,2,0.6,5.8-2.4,5.4c-13.5-1.7-31.2-5.4-41.3-13.2c-1.8-1.4-4.4-0.5-4.9,1.7
			c-3.3,13.2-10.7,50,0,79.9c1.2,3.3-3.1,5.6-5.3,3c-14.5-17.7-33-48.5-29.3-88.1c0-0.2,0-0.5,0-0.7
			C70.5,179.7,70.2,98.7,137.1,114.8z"/>
		<path id="XMLID_3_" d="M360.7,476.7C329.3,491.6,294.1,500,257,500c-21,0-41.3-2.7-60.5-7.7c11.5-35.6,18.4-68.1,22.6-96.1l0,0
			c0.8,0,14.2-51.3,6.9-83l97.2,47.1L360.7,476.7z"/>
	</g>
</g>
</svg>
