<?xml version="1.0" encoding="utf-8"?>
<!-- Generator: Adobe Illustrator 19.0.0, SVG Export Plug-In . SVG Version: 6.00 Build 0)  -->
<svg version="1.1" id="Layer_1" xmlns="http://www.w3.org/2000/svg" xmlns:xlink="http://www.w3.org/1999/xlink" x="0px" y="0px"
	 viewBox="-99 1 512 512" style="enable-background:new -99 1 512 512;" xml:space="preserve">
<style type="text/css">
	.st0{fill:#FFFFFF;}
	.st1{fill:#A3F700;}
	.st2{fill:#DADDDF;}
	.st3{fill:#D0D3D4;}
	.st4{fill:#D3DADD;}
	.st5{fill:#010101;}
</style>
<circle id="XMLID_2_" class="st0" cx="157.3" cy="257.7" r="254.3"/>
<g id="XMLID_17_">
	<g id="XMLID_18_">
		<g id="XMLID_19_">
			<g id="filled_outline_33_">
				<path id="XMLID_15_" class="st1" d="M308.6,353.5l-67-67l-2.8,2.8c-4.6,4.6-12.2,4.6-16.8,0c-4.6-4.6-4.6-12.2,0-16.8l0,0
					l2.8-2.8L208,252.9L151.9,309l16.8,16.8l2.8-2.8c4.6-4.6,12.2-4.6,16.8,0c4.6,4.6,4.6,12.2,0,16.8l-2.8,2.8l67,67
					c2.1,2,4.3,3.8,6.7,5.3l54.8-54.8C312.4,357.8,310.6,355.5,308.6,353.5z"/>
				<path id="XMLID_14_" class="st2" d="M313.9,360.2L259.1,415c18.5,11.8,43,6.5,54.8-11.9C322.4,390,322.4,373.2,313.9,360.2z"/>
				<polygon id="XMLID_13_" class="st3" points="62,140.5 56.3,118.1 17.1,95.6 -5.4,118.1 17.1,157.3 39.5,162.9 168.7,292.1 
					191.1,269.7 				"/>
				<path id="XMLID_32_" class="st4" d="M318.3,142.4l-37.4,37.4l-33.7-11.3l-11.3-33.7l37.5-37.4c-32.9-8.4-66.4,11.5-74.8,44.4
					c-2.6,9.9-2.6,20.5,0,30.4L71.3,299.6C38,291.2,4.3,311.3-4.2,344.5c-8.4,33.3,11.7,67.1,44.9,75.5
					c33.3,8.4,67.1-11.7,75.5-44.9c2.6-10,2.6-20.5,0-30.6l127.3-127.3c33,8.4,66.4-11.5,74.8-44.5
					C320.9,162.8,320.9,152.3,318.3,142.4z M73.2,387.6H39.5l-16.8-28.1l16.8-28.2h33.7L90,359.4L73.2,387.6z"/>
				<path id="XMLID_10_" class="st3" d="M320.2,381.5c0-7.6-2.2-15-6.3-21.4l-16.1,16.1v40.9C311.5,410.7,320.2,396.8,320.2,381.5z"
					/>
				<path id="XMLID_9_" class="st5" d="M-10.2,120.9l22.4,39.2c0.7,1.3,2,2.3,3.5,2.6l20.9,5.2l71.9,71.9l7.9-7.9L43.5,159
					c-0.7-0.7-1.7-1.2-2.6-1.5l-20.1-5.1L1.6,119L18,102.6l33.5,19.1l5.1,20.1c0.2,1,0.7,1.9,1.5,2.6l73,73l7.9-7.9l-72-71.9
					l-5.2-20.9c-0.3-1.5-1.3-2.7-2.6-3.5L19.9,90.7c-2.2-1.2-5-0.9-6.7,0.9l-22.5,22.4C-11.1,115.9-11.5,118.6-10.2,120.9z"/>
				
					<rect id="XMLID_8_" x="70.1" y="252.8" transform="matrix(0.7071 -0.7071 0.7071 0.7071 -136.6166 186.9999)" class="st5" width="174.7" height="11.3"/>
				<path id="XMLID_26_" class="st5" d="M78,328.5c-1-1.7-2.8-2.7-4.8-2.7H39.5c-2,0-3.8,1-4.8,2.7l-16.9,28.1c-1.1,1.7-1.1,4,0,5.8
					l16.8,28.1c1,1.7,2.8,2.7,4.8,2.7h33.7c2,0,3.8-1,4.8-2.7l16.8-28.1c1.1-1.7,1.1-4,0-5.8L78,328.5z M70,381.9H42.7l-13.5-22.4
					l13.5-22.4H70l13.5,22.4L70,381.9z"/>
				<path id="XMLID_21_" class="st5" d="M258.5,224.7c37.1,0.1,67.2-29.8,67.4-66.9c0-5.6-0.7-11.3-2.1-16.7c-0.7-3-3.8-4.8-6.8-4.1
					c-1,0.2-1.9,0.7-2.6,1.5l-34.9,34.9l-27.7-9.3l-9.3-27.7l34.9-34.9c2.2-2.2,2.2-5.7,0-7.9c-0.7-0.7-1.7-1.2-2.6-1.5
					c-35.9-9.1-72.5,12.7-81.6,48.6c-1.4,5.5-2.1,11.1-2.1,16.7c0,4.4,0.5,8.9,1.3,13.2L69.5,293.4c-4.3-0.9-8.8-1.3-13.2-1.3
					c-37.2,0-67.3,30.1-67.3,67.4s30.1,67.4,67.4,67.4s67.4-30.1,67.4-67.4c0-4.4-0.5-8.9-1.3-13.2l29.5-29.5l12.8,12.8
					c2.2,2.2,5.7,2.2,7.9,0l2.8-2.8c2.5-2.5,6.5-2.5,8.9,0c2.5,2.5,2.5,6.5,0,8.9l0,0l-2.8,2.8c-2.2,2.2-2.2,5.7,0,7.9l67,67
					c17.6,17.8,46.3,17.9,64.1,0.3c17.8-17.6,17.9-46.3,0.3-64.1c-0.1-0.1-0.2-0.2-0.3-0.3l-67-67c-2.2-2.2-5.7-2.2-7.9,0l-2.8,2.8
					c-2.5,2.5-6.5,2.5-8.9,0c-2.5-2.5-2.5-6.5,0-8.9l0,0l2.8-2.8c2.2-2.2,2.2-5.7,0-7.9l-13-12.8l29.5-29.5
					C249.7,224.2,254.1,224.7,258.5,224.7z M280.6,415.6c-4.1,0-8.1-0.7-11.9-2.2l43.9-43.9c6.6,17.6-2.3,37.3-19.9,43.9
					C288.8,414.9,284.6,415.6,280.6,415.6z M217,269.7c-6.2,7.5-5.2,18.5,2.2,24.7c6.5,5.5,16,5.5,22.5,0l63,63.1
					c0.7,0.7,1.3,1.4,1.9,2.2l-48,48c-0.7-0.6-1.5-1.2-2.2-1.9l-63-63.2c6.2-7.5,5.2-18.5-2.2-24.7c-6.5-5.5-16-5.5-22.5,0l-8.9-8.9
					l48.3-48.2L217,269.7z M239.6,213.2L112.2,340.5c-1.4,1.4-2,3.4-1.5,5.3c7.7,30.2-10.6,61-40.8,68.7
					c-30.2,7.7-61-10.6-68.7-40.8c-7.7-30.2,10.6-61,40.8-68.7c9.2-2.3,18.7-2.3,27.9,0c1.9,0.5,4-0.1,5.3-1.5l127.4-127.3
					c1.4-1.4,2-3.4,1.5-5.3c-7.6-29.9,10.3-60.4,40.2-68c5.6-1.4,11.5-2,17.3-1.7L232,131c-1.5,1.5-2.1,3.7-1.3,5.7l11.3,33.7
					c0.6,1.7,1.9,3,3.6,3.6l33.7,11.3c2,0.7,4.2,0.2,5.7-1.3l29.6-29.6c0.1,1.1,0.1,2.2,0.1,3.2c0.2,30.9-24.8,56-55.6,56.1
					c-4.8,0-9.5-0.6-14.2-1.7C243,211.3,241,211.8,239.6,213.2L239.6,213.2z"/>
				
					<rect id="XMLID_1_" x="241.6" y="308.6" transform="matrix(0.7071 -0.7071 0.7071 0.7071 -173.8544 276.8488)" class="st5" width="11.3" height="79.4"/>
			</g>
		</g>
	</g>
</g>
</svg>
