<?xml version="1.0" encoding="utf-8"?>
<!-- Generator: Adobe Illustrator 19.0.0, SVG Export Plug-In . SVG Version: 6.00 Build 0)  -->
<svg version="1.1" id="Layer_1" xmlns="http://www.w3.org/2000/svg" xmlns:xlink="http://www.w3.org/1999/xlink" x="0px" y="0px"
	 viewBox="0 0 512 512" style="enable-background:new 0 0 512 512;" xml:space="preserve">
<style type="text/css">
	.st0{fill:#FFFFFF;}
	.st1{fill:#CEFF00;}
	.st2{fill:#B8EA00;}
	.st3{fill:#0D1428;}
	.st4{fill:#010101;}
	.st5{fill:#191919;}
	.st6{fill:#98CE02;}
</style>
<circle id="XMLID_3_" class="st0" cx="256.7" cy="256.7" r="254.3"/>
<path id="XMLID_10_" class="st1" d="M136,191.5c0,0,0.3,1,0.7,3c4,16.2,21.8,93.9,10,151.1c-13.3,64.1-15.7,80.3-15.7,80.3h34.6
	h214.6c0,0-36.4-161.2-4.2-234.4l4.2-5.7H131v5.7L136,191.5L136,191.5z"/>
<rect x="332.5" y="74.2" transform="matrix(0.9798 0.1999 -0.1999 0.9798 32.6465 -65.7142)" class="st2" width="18.7" height="109.3"/>
<g id="XMLID_14_">
	<g id="XMLID_15_">
		<polygon id="XMLID_9_" class="st3" points="356.4,101 333.1,116.1 331,128.1 354.3,113 		"/>
		<polygon id="XMLID_8_" class="st3" points="352.1,125.6 328.7,140.8 326.4,154.5 349.6,139.5 		"/>
		<polygon id="XMLID_7_" class="st3" points="360.6,77.5 340.5,74 335.4,103.4 358.6,88.4 		"/>
		<path id="XMLID_6_" class="st4" d="M294.3,203.1c-6.9,0-12.6,5.6-12.6,12.6c0,6.9,5.7,12.6,12.6,12.6c0.3,0,0.6-0.1,1-0.1
			c3.1,22.3-20.4,42.8-42.6,43.9c-25,1.3-35.4-22.9-37.4-44.2c5.6-1.3,9.7-6.3,9.7-12.2c0-6.9-5.6-12.6-12.6-12.6
			c-6.9,0-12.6,5.6-12.6,12.6c0,3.9,1.8,7.2,4.5,9.5c1.9,29.3,18.5,61.9,53,57.2c28.8-3.9,54.6-31.7,47.6-60.2
			c1.2-1.9,1.9-4.2,1.9-6.6C306.8,208.8,301.2,203.1,294.3,203.1z"/>
		<path id="XMLID_16_" class="st5" d="M389.6,427.3c-9.2-36.3-36.6-161.2-0.5-240.6c0.1-0.1,0.1-0.1,0.1-0.2c0.2-0.4,0.4-1,0.4-1.4
			c0-0.1,0.1-0.2,0.1-0.4c0.1-0.6,0.1-1.2,0.1-1.9c0-0.1-0.1-0.2-0.1-0.3c-0.1-0.5-0.1-1-0.3-1.5c-0.1-0.1-0.1-0.4-0.1-0.5
			c-0.1-0.4-0.4-0.8-0.6-1.3c-0.1-0.1-0.1-0.2-0.1-0.3c0-0.1-0.1-0.1-0.1-0.1c-0.1-0.1-0.1-0.2-0.1-0.3l-25.8-34.8
			c-0.9-1.3-2.2-2.2-3.6-2.7c3,7.2,2.5,16.1-1.5,22.8l8.6,11.5h-36.2l15.5-10l2.3-13.3l-23.2,15l-1.4,8.2h-24.4l11.9-18.8l2.7-4.4
			l-18.4-11.7l-44.3-28.1l-13.3,21l12.9,41.9h-6.7l-27-87.9l-70.9,21.8l9.6,31.1h-7.4c-3.1,0-5.8,1.7-7.2,4.4l-17.9,34.9
			c-0.1,0.1-0.1,0.3-0.2,0.4c-0.1,0.2-0.1,0.4-0.2,0.6c-0.1,0.4-0.2,0.7-0.3,1.2c0,0.1-0.1,0.4-0.1,0.5c-0.1,0.5-0.1,1,0,1.6
			c0,0.1,0,0.1,0,0.2c0.1,0.6,0.2,1.2,0.4,1.7c0,0.1,0,0.1,0,0.1c38.1,103.7,11.3,211.5,2.2,242c-0.5,1.8-1.5,5.1,1,8.3
			c1.5,2,3.9,3.2,6.4,3.2h0.1c2.2,0,3.8-0.7,5-1.9h241.1c1.1,0.8,2.6,1.4,4.6,1.4c2.5,0,4.8-1.1,6.3-3.1
			C391.1,433,390.3,430.1,389.6,427.3z M152.3,156.5h7.4l5.8,18.8h-22.9L152.3,156.5z M142.6,421.8c10.7-40.2,29.1-135.6-1.8-230.3
			h229c-28.8,77.7-8.6,186,1.9,230.3H142.6z"/>
	</g>
</g>
<polygon id="XMLID_2_" class="st6" points="154.1,114.5 172.4,175.4 233.6,175.4 210.5,101 "/>
<polygon id="XMLID_1_" class="st6" points="241.9,134.4 255.9,175.4 289.9,175.4 304,154.5 253.3,122.1 "/>
</svg>
