<?xml version="1.0" encoding="utf-8"?>
<!-- Generator: Adobe Illustrator 19.0.0, SVG Export Plug-In . SVG Version: 6.00 Build 0)  -->
<svg version="1.1" id="Layer_1" xmlns="http://www.w3.org/2000/svg" xmlns:xlink="http://www.w3.org/1999/xlink" x="0px" y="0px"
	 viewBox="0 0 512 512" style="enable-background:new 0 0 512 512;" xml:space="preserve">
<style type="text/css">
	.st0{fill:#FFFFFF;}
	.st1{fill:#DEEDB9;}
	.st2{fill:#A8FF00;}
	.st3{fill:#88C600;}
	.st4{fill:#0A0A0A;}
</style>
<circle id="XMLID_1_" class="st0" cx="256.7" cy="256.7" r="254.3"/>
<rect x="145.5" y="226.4" class="st1" width="221.8" height="148.6"/>
<g>
	<polygon class="st2" points="149.8,114.7 361.8,114.7 383.9,170.2 390,185.7 385.3,200.1 122.7,199.4 122.7,185.7 	"/>
	<rect x="149.8" y="98.5" class="st3" width="210.6" height="20.5"/>
	<g>
		<path id="XMLID_3_" class="st4" d="M399.4,391.3h-6.8V225.4l0,0c-8.3,0-16.1-2.7-22.7-7.2c-4.4,3.1-9.5,5.4-15,6.5
			c-2.5,0.5-5.2,0.7-7.8,0.7c-1.7,0-3.4-0.2-5-0.4v123.5c0,7-5.7,12.7-12.7,12.7h-45.8v-35l16.2,26.9c1.9,3.2,5.3,5,8.8,5
			c1.8,0,3.6-0.5,5.2-1.5c4.8-2.9,6.4-9.2,3.5-14l-32.5-54.2c-2-3.4-5.7-5-9.3-4.8c-0.3,0-37.7,0-37.9,0c-3.7-0.3-7.4,1.4-9.5,4.8
			l-32.5,54.2c-2.9,4.8-1.3,11.1,3.5,14c1.6,1,3.5,1.5,5.2,1.5c3.5,0,6.8-1.7,8.8-5l16.3-27.1v35.1h-45.9c-7,0-12.7-5.7-12.7-12.7
			V225c-1.7,0.2-3.4,0.4-5,0.4c-2.5,0-5.2-0.3-7.8-0.8c-5.6-1.1-10.7-3.4-15-6.5c-6.5,4.6-14.3,7.2-22.7,7.2l0,0v166h-6.8
			c-8.8,0-16,7.2-16,16c0,8.8,7.2,16,16,16h286c8.8,0,16-7.2,16-16C415.3,398.5,408.1,391.3,399.4,391.3z"/>
		<path id="XMLID_2_" class="st4" d="M256.3,226.4c-11.7,0-21.2,10.9-21.2,24.3c0,13.4,9.5,24.3,21.2,24.3
			c11.7,0,21.2-10.9,21.2-24.3C277.6,237.3,268,226.4,256.3,226.4z"/>
	</g>
	<rect x="149.8" y="91.2" class="st4" width="210.6" height="14.5"/>
	<polygon class="st4" points="125.2,173.7 149.8,114.7 167.5,114.7 146.4,173.7 	"/>
	<polygon class="st4" points="157.8,173.7 182.4,114.7 200.1,114.7 179,173.7 	"/>
	<polygon class="st4" points="193.6,173.7 208.4,114.7 221.4,114.7 216.7,173.7 	"/>
	<polygon class="st4" points="232.7,114.7 227.6,173.7 248.9,173.7 248.9,114.7 	"/>
	<polygon class="st4" points="260.5,114.7 262,173.7 283.7,173.7 278.6,114.7 	"/>
	<polygon class="st4" points="289.5,114.7 294.5,173.7 317.7,173.7 305.4,114.7 	"/>
	<polygon class="st4" points="314.1,114.7 328.5,173.7 352,173.7 333,114.7 	"/>
	<polygon class="st4" points="344.1,114.7 363.3,173.7 385.3,173.7 361.8,114.7 	"/>
	<path class="st4" d="M122.7,185.7v13.7c0,0,1.3,8.1,9.8,8.7c0,0,10.5,1.3,13-8.3v-14.1H122.7z"/>
	<path class="st4" d="M158.5,185.7v13.7c0,0,1.3,8.1,9.8,8.7c0,0,10.5,1.3,13-8.3v-14.1H158.5z"/>
	<path class="st4" d="M193.2,185.7v13.7c0,0,1.3,8.1,9.8,8.7c0,0,10.5,1.3,13-8.3v-14.1H193.2z"/>
	<path class="st4" d="M227.6,185.7v13.7c0,0,1.3,8.1,9.8,8.7c0,0,10.5,1.3,13-8.3v-14.1H227.6z"/>
	<path class="st4" d="M261.4,185.7v13.7c0,0,1.3,8.1,9.8,8.7c0,0,10.5,1.3,13-8.3v-14.1H261.4z"/>
	<path class="st4" d="M295.6,185.7v13.7c0,0,1.3,8.1,9.8,8.7c0,0,10.5,1.3,13-8.3v-14.1H295.6z"/>
	<path class="st4" d="M332.1,185.7v13.7c0,0,1.3,8.1,9.8,8.7c0,0,10.5,1.3,13-8.3v-14.1H332.1z"/>
	<path class="st4" d="M367.2,185.7v13.7c0,0,1.3,8.1,9.8,8.7c0,0,10.5,1.3,13-8.3v-14.1H367.2z"/>
</g>
</svg>
