<?xml version="1.0" encoding="utf-8"?>
<!-- Generator: Adobe Illustrator 19.0.0, SVG Export Plug-In . SVG Version: 6.00 Build 0)  -->
<svg version="1.1" id="Layer_1" xmlns="http://www.w3.org/2000/svg" xmlns:xlink="http://www.w3.org/1999/xlink" x="0px" y="0px"
	 viewBox="0 0 512 512" style="enable-background:new 0 0 512 512;" xml:space="preserve">
<style type="text/css">
	.st0{fill:#FFFFFF;}
	.st1{fill:#D2E8C5;}
	.st2{fill:#60F400;}
	.st3{fill:#A9AD00;}
	.st4{fill:#E8E1F0;}
	.st5{fill:#CFD0D0;}
	.st6{fill:#E5E5E5;}
	.st7{fill:#FDB62D;}
	.st8{fill:#F47B33;}
	.st9{fill:#FAA234;}
	.st10{fill:#010101;}
</style>
<circle id="XMLID_1_" class="st0" cx="256.7" cy="256.7" r="254.3"/>
<rect x="134.9" y="261.1" class="st1" width="248.1" height="148.9"/>
<g>
	<polygon class="st2" points="256,107.1 107.1,189.2 107.1,404.8 132.8,404.8 132.8,220 379.2,220 379.2,404.8 404.8,404.8 
		404.8,194.4 	"/>
	<g>
		<path class="st3" d="M379.2,404.8h25.7V238.2c-8.5,6-17,11.7-25.7,17.1V404.8z"/>
		<path class="st3" d="M107.1,404.8h25.7v-47.7c-8.8,2.2-17.4,4.1-25.7,5.8C107.1,363,107.1,404.8,107.1,404.8z"/>
	</g>
	<rect x="132.8" y="220" class="st4" width="246.4" height="41.1"/>
	<rect x="132.8" y="235.4" class="st5" width="246.4" height="10.3"/>
	<rect x="230.3" y="179" class="st6" width="51.3" height="20.5"/>
	<rect x="297.1" y="281.6" class="st7" width="61.6" height="61.6"/>
	<rect x="317.6" y="281.6" class="st8" width="20.5" height="20.5"/>
	<path class="st9" d="M297.1,343.2h61.6v-41.5c-17.7,14.9-38.9,25-61.6,29.4V343.2z"/>
	<rect x="297.1" y="343.2" class="st7" width="61.6" height="61.6"/>
	<rect x="317.6" y="343.2" class="st8" width="20.5" height="20.5"/>
	<path class="st9" d="M297.1,404.8h61.6v-41.5c-17.7,14.9-38.9,25-61.6,29.4V404.8z"/>
	<rect x="235.5" y="343.2" class="st7" width="61.6" height="61.6"/>
	<rect x="256" y="343.2" class="st8" width="20.5" height="20.5"/>
	<path class="st9" d="M235.5,404.8h61.6v-41.5c-17.7,14.9-38.9,25-61.6,29.4V404.8z"/>
	<rect x="230.3" y="199.5" class="st1" width="51.3" height="10.3"/>
	<path class="st10" d="M407.4,190l-148.8-87.2c-1.6-0.9-3.5-0.9-5.1,0l-148.9,82.1c-1.6,0.9-2.6,2.6-2.6,4.4v215.6
		c0,2.8,2.3,5.1,5.1,5.1h25.7c2.8,0,5.1-2.3,5.1-5.1V266.2H374v138.6c0,2.8,2.3,5.1,5.1,5.1h25.7c2.8,0,5.1-2.3,5.1-5.1V194.4
		C410,192.6,409,190.9,407.4,190z M374.1,235.4H137.9v-10.3H374L374.1,235.4L374.1,235.4z M137.9,256v-10.3H374V256H137.9z
		 M399.7,399.7h-15.4V220c0-2.8-2.3-5.1-5.1-5.1H132.8c-2.8,0-5.1,2.3-5.1,5.1v179.7h-15.4V192.3L256,113l143.7,84.3V399.7
		L399.7,399.7z"/>
	<path class="st10" d="M297.1,410h61.6c2.8,0,5.1-2.3,5.1-5.1V281.6c0-2.8-2.3-5.1-5.1-5.1h-61.6c-2.8,0-5.1,2.3-5.1,5.1v56.5h-56.5
		c-2.8,0-5.1,2.3-5.1,5.1v61.6c0,2.8,2.3,5.1,5.1,5.1L297.1,410L297.1,410z M353.5,399.7h-51.3v-51.3h10.3v15.4
		c0,2.8,2.3,5.1,5.1,5.1h20.5c2.8,0,5.1-2.3,5.1-5.1v-15.4h10.3V399.7L353.5,399.7z M322.7,348.4H333v10.3h-10.3V348.4z
		 M322.7,286.8H333v10.3h-10.3V286.8z M302.2,286.8h10.3v15.4c0,2.8,2.3,5.1,5.1,5.1h20.5c2.8,0,5.1-2.3,5.1-5.1v-15.4h10.3v51.3
		h-51.3V286.8z M261.1,348.4h10.3v10.3h-10.3V348.4L261.1,348.4z M240.6,348.4h10.3v15.4c0,2.8,2.3,5.1,5.1,5.1h20.5
		c2.8,0,5.1-2.3,5.1-5.1v-15.4h10.3v51.3h-51.3L240.6,348.4L240.6,348.4z"/>
	<path class="st10" d="M225.2,179v20.5c0,2.8,2.3,5.1,5.1,5.1h51.3c2.8,0,5.1-2.3,5.1-5.1V179c0-2.8-2.3-5.1-5.1-5.1h-51.3
		C227.5,173.9,225.2,176.2,225.2,179z M235.5,184.1h41.1v10.3h-41.1V184.1L235.5,184.1z"/>
</g>
</svg>
