<?xml version="1.0" encoding="utf-8"?>
<!-- Generator: Adobe Illustrator 24.0.1, SVG Export Plug-In . SVG Version: 6.00 Build 0)  -->
<svg version="1.1" id="Layer_1" xmlns="http://www.w3.org/2000/svg" xmlns:xlink="http://www.w3.org/1999/xlink" x="0px" y="0px"
	 viewBox="0 0 50 50" style="enable-background:new 0 0 50 50;" xml:space="preserve">
<style type="text/css">
	.st0{fill:#FFFFFF;}
	.st1{fill:#E0EBFC;}
	.st2{fill:#F9CFCF;}
	.st3{fill:#A4C9FF;}
	.st4{fill:#6BDDDD;}
</style>
<circle class="st0" cx="25" cy="25" r="24.5"/>
<g>
	<g>
		<path class="st0" d="M24.2,34.4H9.4v-4.3c0-1.7,1.4-3.2,3.2-3.2H21c1.7,0,3.2,1.4,3.2,3.2L24.2,34.4z"/>
	</g>
	<g>
		<path class="st1" d="M16.8,30.6c1.9,0,3.4-1.5,3.4-3.4v0v-0.3h-6.8v0.3v0C13.4,29.1,14.9,30.6,16.8,30.6z"/>
	</g>
	<g>
		<path class="st2" d="M14,25.6v1.3v0c0,1.5,1.2,2.7,2.7,2.7s2.7-1.2,2.7-2.7v0v-1.3C17.8,26.5,15.8,26.6,14,25.6z"/>
	</g>
	<g>
		<path d="M24.2,34.7H9.4c-0.2,0-0.3-0.1-0.3-0.3v-4.3c0-1.9,1.6-3.5,3.5-3.5h1.2v-1c0-0.1,0.1-0.2,0.1-0.3c0.1-0.1,0.2-0.1,0.3,0
			c0.8,0.4,1.7,0.6,2.6,0.6c0.9,0,1.8-0.2,2.6-0.6c0.1,0,0.2,0,0.3,0c0.1,0.1,0.1,0.2,0.1,0.3v1H21c1.9,0,3.5,1.6,3.5,3.5v4.3
			C24.5,34.5,24.3,34.7,24.2,34.7z M9.7,34.1h14.2v-3.9c0-1.6-1.3-2.9-2.9-2.9h-1.5c-0.2,0-0.3-0.1-0.3-0.3v-0.8
			c-0.8,0.3-1.6,0.5-2.4,0.5c-0.8,0-1.7-0.2-2.4-0.5v0.8c0,0.2-0.1,0.3-0.3,0.3h-1.5c-1.6,0-2.9,1.3-2.9,2.9L9.7,34.1z"/>
	</g>
	<g>
		<path d="M16.7,24.6c-3.8,0-6.9-3.1-6.9-6.9v-3.5h13.8v3.5C23.6,21.6,20.5,24.6,16.7,24.6z"/>
	</g>
	<g>
		<path d="M16.7,24.9c-4,0-7.2-3.2-7.2-7.2v-3.5c0-0.2,0.1-0.3,0.3-0.3h13.8c0.2,0,0.3,0.1,0.3,0.3v3.5
			C23.9,21.7,20.7,24.9,16.7,24.9z M10.1,14.5v3.2c0,3.6,3,6.6,6.6,6.6s6.6-3,6.6-6.6v-3.2L10.1,14.5z"/>
	</g>
	<g>
		<path class="st2" d="M22.7,18.2v-0.6c0-3.2-2.7-5.9-5.9-5.9s-5.9,2.6-5.9,5.9v0.6C9.8,18.2,9,19,9,20c0,1.1,0.9,1.9,2,1.8
			c0.6,2.6,3,4.5,5.8,4.5c2.8,0,5.2-1.9,5.8-4.5c1.1,0.1,2-0.7,2-1.8C24.5,19,23.7,18.2,22.7,18.2L22.7,18.2z"/>
	</g>
	<g>
		<path d="M16.8,23.8C16.8,23.8,16.8,23.8,16.8,23.8c-0.4,0-0.9-0.2-1.1-0.4c-0.2-0.2-0.3-0.5-0.3-0.8c0-0.2,0.1-0.3,0.3-0.3
			c0.2,0,0.3,0.1,0.3,0.3c0,0.1,0.1,0.2,0.2,0.3c0.2,0.2,0.4,0.3,0.7,0.3h0c0.3,0,0.5-0.1,0.7-0.3c0.1-0.1,0.2-0.2,0.2-0.3
			c0-0.2,0.1-0.3,0.3-0.3c0.2,0,0.3,0.1,0.3,0.3c0,0.3-0.1,0.6-0.3,0.8C17.6,23.6,17.2,23.8,16.8,23.8z"/>
	</g>
	<g>
		<path d="M19.9,21.4c-0.5,0-0.8-0.4-0.8-0.8v-0.9c0-0.5,0.4-0.8,0.8-0.8c0.5,0,0.8,0.4,0.8,0.8v0.9C20.7,21,20.3,21.4,19.9,21.4z"
			/>
	</g>
	<g>
		<path d="M13.7,21.4c-0.5,0-0.8-0.4-0.8-0.8v-0.9c0-0.5,0.4-0.8,0.8-0.8c0.5,0,0.8,0.4,0.8,0.8v0.9C14.5,21,14.2,21.4,13.7,21.4z"
			/>
	</g>
	<g>
		<path d="M16.8,26.6c-2.8,0-5.3-1.8-6-4.5c-0.5,0-1-0.2-1.4-0.5c-0.4-0.4-0.7-1-0.7-1.6c0-0.6,0.2-1.1,0.6-1.5
			c0.3-0.3,0.8-0.5,1.2-0.6v-0.3c0-3.4,2.8-6.2,6.2-6.2s6.2,2.8,6.2,6.2v0.3c0.5,0.1,0.9,0.3,1.2,0.6c0.4,0.4,0.6,0.9,0.6,1.5
			c0,0.6-0.3,1.2-0.7,1.6c-0.4,0.3-0.9,0.5-1.4,0.5C22,24.8,19.6,26.6,16.8,26.6L16.8,26.6z M11,21.5c0.1,0,0.3,0.1,0.3,0.2
			c0.6,2.5,2.8,4.3,5.5,4.3c2.6,0,4.9-1.8,5.5-4.3c0-0.1,0.2-0.3,0.3-0.2c0.4,0,0.9-0.1,1.2-0.4c0.3-0.3,0.5-0.7,0.5-1.1
			c0-0.4-0.2-0.8-0.4-1.1c-0.3-0.3-0.7-0.4-1.1-0.4c-0.1,0-0.2,0-0.2-0.1c-0.1-0.1-0.1-0.1-0.1-0.2v-0.6c0-3.1-2.5-5.6-5.6-5.6
			s-5.6,2.5-5.6,5.6v0.6c0,0.1,0,0.2-0.1,0.2c-0.1,0.1-0.1,0.1-0.2,0.1c-0.4,0-0.8,0.1-1.1,0.4c-0.3,0.3-0.4,0.7-0.4,1.1
			c0,0.4,0.2,0.8,0.5,1.1C10.1,21.4,10.6,21.5,11,21.5C11,21.5,11,21.5,11,21.5L11,21.5z"/>
	</g>
	<g>
		<path class="st0" d="M9.8,15.2h13.8v-2.1c0-2.7-2.2-4.8-4.8-4.8h-4.2c-2.7,0-4.8,2.2-4.8,4.8V15.2z"/>
	</g>
	<g>
		<path class="st3" d="M16.7,15.2H9.8l0.6,1.2c0.3,0.6,0.9,1,1.6,1h4.7h4.7c0.7,0,1.3-0.4,1.6-1l0.6-1.2L16.7,15.2z"/>
	</g>
	<g>
		<path d="M23.6,15.5H9.8c-0.2,0-0.3-0.1-0.3-0.3v-2.1c0-2.8,2.3-5.1,5.1-5.1h4.2c2.8,0,5.1,2.3,5.1,5.1v2.1
			C23.9,15.4,23.8,15.5,23.6,15.5z M10.1,14.9h13.2v-1.8c0-2.5-2-4.5-4.5-4.5h-4.2c-2.5,0-4.5,2-4.5,4.5V14.9z"/>
	</g>
	<g>
		<path d="M21.5,17.8H12c-0.8,0-1.5-0.5-1.9-1.2l-0.6-1.2c0-0.1,0-0.2,0-0.3c0.1-0.1,0.2-0.1,0.3-0.1h13.8c0.1,0,0.2,0.1,0.3,0.1
			c0.1,0.1,0.1,0.2,0,0.3l-0.6,1.2C23,17.3,22.3,17.8,21.5,17.8z M10.3,15.5l0.4,0.8c0.2,0.5,0.8,0.8,1.3,0.8h9.5
			c0.6,0,1.1-0.3,1.3-0.8l0.4-0.8L10.3,15.5L10.3,15.5z"/>
	</g>
	<g>
		<path class="st0" d="M23.9,41.9H9.6c-0.3,0-0.6-0.3-0.6-0.6V28.8c0-0.3,0.3-0.6,0.6-0.6h14.3c0.3,0,0.6,0.3,0.6,0.6v12.6
			C24.4,41.7,24.2,41.9,23.9,41.9z"/>
	</g>
	<g>
		<path class="st1" d="M18.6,33.5L18.1,33c-0.1-0.1-0.3-0.1-0.4,0l-0.8,0.7c-0.1,0.1-0.3,0.1-0.4,0L15.8,33c-0.1-0.1-0.3-0.1-0.4,0
			l-0.5,0.4c-0.2,0.2-0.5,0-0.5-0.2v-5.1H19v5.1C19,33.5,18.7,33.6,18.6,33.5L18.6,33.5z"/>
	</g>
	<g>
		<path class="st1" d="M13.2,40.9h-2.8c-0.1,0-0.2-0.1-0.2-0.2v-1.4c0-0.1,0.1-0.2,0.2-0.2h2.8c0.1,0,0.2,0.1,0.2,0.2v1.4
			C13.4,40.8,13.3,40.9,13.2,40.9z"/>
	</g>
	<g>
		<path class="st1" d="M23.1,40.9h-1.7c-0.1,0-0.2-0.1-0.2-0.2v-1.4c0-0.1,0.1-0.2,0.2-0.2h1.7c0.1,0,0.2,0.1,0.2,0.2v1.4
			C23.3,40.8,23.2,40.9,23.1,40.9z"/>
	</g>
	<g>
		<path d="M23.9,42.2H9.6c-0.5,0-0.9-0.4-0.9-0.9V28.8c0-0.5,0.4-0.9,0.9-0.9h14.3c0.5,0,0.9,0.4,0.9,0.9v12.6
			C24.7,41.8,24.4,42.2,23.9,42.2z M9.6,28.5c-0.1,0-0.3,0.1-0.3,0.3v12.6c0,0.1,0.1,0.3,0.3,0.3h14.3c0.1,0,0.3-0.1,0.3-0.3V28.8
			c0-0.1-0.1-0.3-0.3-0.3H9.6z"/>
	</g>
	<g>
		<path d="M13.2,41.2h-2.8c-0.3,0-0.5-0.2-0.5-0.5v-1.4c0-0.3,0.2-0.5,0.5-0.5h2.8c0.3,0,0.5,0.2,0.5,0.5v1.4
			C13.7,41,13.5,41.2,13.2,41.2z M10.5,40.6h2.6v-1.1h-2.6V40.6z"/>
	</g>
	<g>
		<path d="M23.1,41.2h-1.7c-0.3,0-0.5-0.2-0.5-0.5v-1.4c0-0.3,0.2-0.5,0.5-0.5h1.7c0.3,0,0.5,0.2,0.5,0.5v1.4
			C23.6,41,23.4,41.2,23.1,41.2z M21.5,40.6H23v-1.1h-1.5V40.6z"/>
	</g>
	<g>
		<path d="M16.7,34.1c-0.1,0-0.3,0-0.4-0.1l-0.8-0.7l-0.5,0.4c-0.2,0.2-0.4,0.2-0.6,0.1c-0.2-0.1-0.3-0.3-0.3-0.5v-5.1
			c0-0.2,0.1-0.3,0.3-0.3H19c0.2,0,0.3,0.1,0.3,0.3v5.1c0,0.2-0.1,0.4-0.3,0.5c-0.2,0.1-0.5,0.1-0.6-0.1l-0.5-0.4l-0.8,0.7
			C17,34,16.9,34.1,16.7,34.1L16.7,34.1z M15.6,32.6c0.1,0,0.3,0,0.4,0.1l0.8,0.7l0.8-0.7c0.2-0.2,0.6-0.2,0.8,0l0.5,0.4v-4.7h-4
			v4.7l0.5-0.4C15.3,32.7,15.4,32.6,15.6,32.6L15.6,32.6z"/>
	</g>
	<g>
		<path class="st2" d="M10.5,37.8H7.8c-0.5,0-0.9-0.4-0.9-0.9v-3.6c0-0.5,0.4-0.9,0.9-0.9h2.7c0.4,0,0.7,0.3,0.7,0.7v4.1
			C11.2,37.5,10.9,37.8,10.5,37.8z"/>
	</g>
	<g>
		<path class="st2" d="M23,32.4h2.5c0.6,0,1.1,0.5,1.1,1.1v3.3c0,0.6-0.5,1.1-1.1,1.1H23c-0.4,0-0.7-0.3-0.7-0.7v-4.1
			C22.3,32.7,22.6,32.4,23,32.4L23,32.4z"/>
	</g>
	<g>
		<path d="M10.5,38.1H7.8c-0.7,0-1.2-0.5-1.2-1.2v-3.6c0-0.7,0.5-1.2,1.2-1.2h2.7c0.5,0,1,0.4,1,1v4.1C11.5,37.7,11,38.1,10.5,38.1z
			 M7.8,32.7c-0.3,0-0.6,0.3-0.6,0.6v3.6c0,0.3,0.3,0.6,0.6,0.6h2.7c0.2,0,0.4-0.2,0.4-0.4v-4.1c0-0.2-0.2-0.4-0.4-0.4L7.8,32.7
			L7.8,32.7z"/>
	</g>
	<g>
		<path d="M25.5,38.1H23c-0.5,0-1-0.4-1-1v-4.1c0-0.5,0.4-1,1-1h2.5c0.8,0,1.4,0.6,1.4,1.4v3.3C26.9,37.5,26.3,38.1,25.5,38.1
			L25.5,38.1z M23,32.7c-0.2,0-0.4,0.2-0.4,0.4v4.1c0,0.2,0.2,0.4,0.4,0.4h2.5c0.4,0,0.8-0.3,0.8-0.8v-3.3c0-0.4-0.3-0.8-0.8-0.8
			L23,32.7z"/>
	</g>
	<g>
		<path class="st4" d="M33.1,31.9l-8.5-8.5c-0.2-0.2-0.2-0.5,0-0.6l4.3-4.3c0.2-0.2,0.5-0.2,0.6,0l8.5,8.5c0.2,0.2,0.2,0.5,0,0.6
			l-4.3,4.3C33.5,32,33.3,32,33.1,31.9L33.1,31.9z"/>
	</g>
	<g>
		<path class="st1" d="M33.3,31.4c-0.1,0-0.3-0.1-0.4-0.2l-7.7-7.7c-0.2-0.2-0.2-0.5,0-0.7h0l3.8-3.8c0.2-0.2,0.5-0.2,0.7,0l7.7,7.7
			c0.1,0.1,0.2,0.2,0.2,0.4s-0.1,0.3-0.2,0.4l-3.8,3.8C33.6,31.3,33.4,31.4,33.3,31.4L33.3,31.4z M25.7,23.1l7.6,7.6l3.6-3.6
			l-7.6-7.6L25.7,23.1z"/>
	</g>
	<g>
		<circle class="st1" cx="31.3" cy="25.1" r="2.2"/>
	</g>
	<g>
		<path class="st4" d="M32.5,24.1l-0.1,0.1c0.1,0.1,0.1,0.2,0.2,0.3c0,0.1,0.1,0.2,0,0.3c0,0.1,0,0.2,0,0.2c0,0.1-0.1,0.1-0.1,0.2
			c0,0-0.1,0.1-0.2,0.1c-0.1,0-0.1,0-0.2-0.1c-0.1-0.1-0.1-0.2,0-0.3c0.1-0.1,0.1-0.3,0-0.4L31.6,25c0.1,0.1,0.1,0.2,0.2,0.3
			c0,0.1,0.1,0.2,0.1,0.3c0,0.1,0,0.2,0,0.3c0,0.1-0.1,0.2-0.2,0.3c-0.1,0.1-0.2,0.2-0.3,0.2c-0.1,0-0.3,0-0.4,0
			c-0.1,0-0.3-0.1-0.4-0.2l-0.3,0.3c0,0-0.1,0.1-0.1,0.1c0,0-0.1,0-0.1,0c0,0,0-0.1,0-0.1c0,0,0-0.1,0.1-0.1l0.3-0.3
			c-0.1-0.1-0.2-0.2-0.2-0.3c0-0.1-0.1-0.2-0.1-0.3s0-0.2,0.1-0.3c0-0.1,0.1-0.1,0.1-0.2c0,0,0.1-0.1,0.2-0.1s0.1,0,0.2,0.1
			c0,0,0.1,0.1,0.1,0.1c0,0,0,0.1,0,0.1c0,0.1-0.1,0.2-0.1,0.2c0,0.1,0,0.1,0,0.2c0,0.1,0,0.1,0.1,0.2l0.6-0.6
			c-0.1-0.1-0.1-0.3-0.2-0.4c0-0.1,0-0.2,0-0.3c0-0.1,0.1-0.2,0.2-0.3c0.1-0.1,0.3-0.2,0.5-0.2s0.4,0.1,0.6,0.2l0.1-0.1
			c0.1-0.1,0.1-0.1,0.2,0C32.6,23.9,32.6,24,32.5,24.1L32.5,24.1z M31.5,24.8l0.5-0.5c-0.1,0-0.2-0.1-0.2-0.1s-0.1,0-0.2,0.1
			c-0.1,0.1-0.1,0.1-0.1,0.2C31.4,24.6,31.5,24.7,31.5,24.8z M31.3,25.3l-0.6,0.6c0.1,0.1,0.2,0.1,0.3,0.1c0.1,0,0.2,0,0.2-0.1
			c0.1-0.1,0.1-0.2,0.1-0.2C31.4,25.5,31.3,25.4,31.3,25.3L31.3,25.3z"/>
	</g>
	<g>
		<path d="M33.4,32.3c-0.2,0-0.4-0.1-0.5-0.2l-8.5-8.5c-0.3-0.3-0.3-0.8,0-1.1l4.3-4.3c0.3-0.3,0.8-0.3,1.1,0l8.5,8.5
			c0.3,0.3,0.3,0.8,0,1.1l-4.3,4.3C33.8,32.2,33.6,32.3,33.4,32.3L33.4,32.3z M29.2,18.6C29.2,18.6,29.1,18.6,29.2,18.6l-4.4,4.4
			c-0.1,0.1-0.1,0.1,0,0.2l8.5,8.5c0,0,0.1,0,0.1,0c0,0,0.1,0,0.1,0l4.3-4.3c0.1-0.1,0.1-0.1,0-0.2L29.2,18.6
			C29.3,18.6,29.2,18.6,29.2,18.6L29.2,18.6z"/>
	</g>
	<g>
		<path class="st2" d="M43.6,20.5l-7.9-0.9c-0.5-0.1-1,0-1.4,0.2l-2.4,0.9l2.2,2.2l0.3,0.3l0.2,0.2l1.8,1.8h-4.3
			c-0.8,0-1.5,0.6-1.5,1.4c0,0.9,0.6,1.6,1.5,1.6h5.6c0.6,0,1.2-0.1,1.7-0.4l2.5-1.1h1.8V20.5z"/>
	</g>
	<g>
		<path d="M37.6,28.5H32c-0.5,0-1-0.2-1.3-0.6c-0.3-0.4-0.5-0.8-0.5-1.3c0-1,0.8-1.7,1.8-1.7h3.5l-3.9-3.9c-0.1-0.1-0.1-0.2-0.1-0.3
			c0-0.1,0.1-0.2,0.2-0.2l2.4-0.9c0.5-0.2,1-0.3,1.5-0.2l7.9,0.9c0.2,0,0.3,0.1,0.3,0.3v6.3c0,0.2-0.1,0.3-0.3,0.3h-1.7l-2.4,1.1
			C38.8,28.3,38.2,28.5,37.6,28.5L37.6,28.5z M32.1,25.5c-0.6,0-1.2,0.5-1.2,1.1c0,0.3,0.1,0.6,0.3,0.9c0.2,0.2,0.5,0.4,0.9,0.4h5.6
			c0.5,0,1.1-0.1,1.6-0.3l2.5-1.1c0,0,0.1,0,0.1,0h1.5v-5.7l-7.7-0.8c-0.4,0-0.9,0-1.3,0.2l-1.9,0.8l4.1,4.1
			c0.1,0.1,0.1,0.2,0.1,0.3c0,0.1-0.2,0.2-0.3,0.2L32.1,25.5z"/>
	</g>
	<g>
		<path d="M37.1,31.5c-0.3,0-0.6,0.3-0.6,0.6v2c0,0.2-0.1,0.3-0.3,0.3H31v-1.1c0-0.1-0.2-0.2-0.3-0.1L28.5,35
			c-0.1,0.1-0.1,0.2,0,0.3l2.2,1.7c0.1,0.1,0.3,0,0.3-0.1v-1.1h5.1c0.8,0,1.5-0.7,1.5-1.5v-2C37.7,31.8,37.4,31.5,37.1,31.5
			L37.1,31.5z"/>
	</g>
</g>
</svg>
