<?xml version="1.0" encoding="utf-8"?>
<!-- Generator: Adobe Illustrator 24.0.1, SVG Export Plug-In . SVG Version: 6.00 Build 0)  -->
<svg version="1.1" id="Layer_1" xmlns="http://www.w3.org/2000/svg" xmlns:xlink="http://www.w3.org/1999/xlink" x="0px" y="0px"
	 viewBox="0 0 50 50" style="enable-background:new 0 0 50 50;" xml:space="preserve">
<style type="text/css">
	.st0{fill:#E61973;}
</style>
<g>
	<g>
		<g>
			<path class="st0" d="M42.2,7.8C37.6,3.2,31.5,0.7,25,0.7c-6.5,0-12.6,2.5-17.2,7.1c-4.6,4.6-7.1,10.7-7.1,17.2
				c0,6.5,2.5,12.6,7.1,17.2c4.6,4.6,10.7,7.1,17.2,7.1c6.5,0,12.6-2.5,17.2-7.1c4.6-4.6,7.1-10.7,7.1-17.2S46.8,12.4,42.2,7.8z
				 M38.7,26.1L20.5,38.3c-0.2,0.2-0.5,0.2-0.8,0.2c-0.2,0-0.5-0.1-0.7-0.2c-0.5-0.2-0.8-0.7-0.8-1.3V12.8c0-0.5,0.3-1,0.8-1.3
				c0.5-0.2,1-0.2,1.5,0.1l18.3,12.2c0.4,0.3,0.6,0.7,0.6,1.2C39.4,25.4,39.1,25.9,38.7,26.1z"/>
		</g>
	</g>
</g>
</svg>
