<?xml version="1.0" encoding="utf-8"?>
<!-- Generator: Adobe Illustrator 24.0.1, SVG Export Plug-In . SVG Version: 6.00 Build 0)  -->
<svg version="1.1" id="Layer_1" xmlns="http://www.w3.org/2000/svg" xmlns:xlink="http://www.w3.org/1999/xlink" x="0px" y="0px"
	 viewBox="0 0 50 50" style="enable-background:new 0 0 50 50;" xml:space="preserve">
<style type="text/css">
	.st0{fill:#FFFFFF;}
</style>
<circle class="st0" cx="25" cy="25" r="24.5"/>
<g>
	<path d="M38.1,16.8h1.5v3h-1.5V16.8z"/>
	<path d="M35.1,16.8h1.5v3h-1.5V16.8z"/>
	<path d="M32.2,16.8h1.5v3h-1.5V16.8z"/>
	<path d="M29.2,16.8h1.5v3h-1.5V16.8z"/>
	<path d="M38.1,30.8h1.5v1.5h-1.5V30.8z"/>
	<path d="M35.1,30.8h1.5v1.5h-1.5V30.8z"/>
	<path d="M32.2,30.8h1.5v1.5h-1.5V30.8z"/>
	<path d="M29.2,30.8h1.5v1.5h-1.5V30.8z"/>
	<path d="M4.8,28.6v4.5c0,2,1.7,3.7,3.7,3.7h13.4L35,43.1c0.8,0.4,1.8,0.4,2.6,0.1c0.9-0.3,1.6-0.9,2-1.8l2.3-4.8
		c1.7-0.4,2.8-1.9,2.8-3.6v-2.4l1.9-4c0.8-1.7,0.1-3.8-1.6-4.6L44.8,22v-5.2c0-2-1.7-3.7-3.7-3.7H26.1L14.5,7.5
		c-0.8-0.4-1.8-0.4-2.6-0.1c-0.9,0.3-1.6,0.9-2,1.8l-1.9,4c-1.8,0.2-3.2,1.8-3.2,3.7v3.1l-1.9,4c-0.8,1.7-0.1,3.8,1.6,4.6L4.8,28.6z
		 M44.8,23.7c0.7,0.6,0.9,1.6,0.5,2.4l-0.5,1.1V23.7z M38.3,40.8c-0.2,0.5-0.6,0.8-1.1,1c-0.5,0.2-1,0.1-1.5-0.1l-10.4-5h14.9
		L38.3,40.8z M43.3,33.1c0,1.2-1,2.2-2.2,2.2H16.6v-8.6c1.6,1.6,3.8,2.5,6.1,2.5v-1.5c-1.9,0-3.7-0.7-5.1-2h25.6V33.1z M17.3,23.7
		l1.5-3.7c0.3-0.7,1-1.1,1.8-1c0.8,0.1,1.4,0.7,1.5,1.5c0.1,0.8-0.3,1.5-1,1.8L17.3,23.7z M41.1,14.6c1.2,0,2.2,1,2.2,2.2v7.4H20.1
		l1.4-0.5c1.3-0.5,2.2-1.9,2-3.3c-0.2-1.4-1.3-2.6-2.7-2.7c-1.4-0.2-2.8,0.6-3.3,2l-0.8,1.9v-6.9H41.1z M11.2,9.8
		c0.2-0.5,0.6-0.8,1.1-1c0.5-0.2,1-0.1,1.5,0.1l8.9,4.2H9.7L11.2,9.8z M6.3,16.8c0-1.2,1-2.2,2.2-2.2h6.7v6.4l-0.6-1.4
		c-0.5-1.3-1.9-2.1-3.3-2c-1.4,0.2-2.6,1.3-2.7,2.7c-0.2,1.4,0.6,2.8,2,3.3l1.4,0.5H6.3V16.8z M14.7,23.7L11,22.3
		c-0.7-0.3-1.2-1-1.1-1.8c0.1-0.8,0.7-1.4,1.5-1.5c0.8-0.1,1.5,0.3,1.8,1L14.7,23.7z M6.3,25.7h8.1c-1.4,1.3-3.2,2-5.1,2v1.5
		c2.2,0,4.3-0.8,5.9-2.3v8.4H8.5c-1.2,0-2.2-1-2.2-2.2V25.7z M4.2,24.5l0.5-1.1v3.5C4.1,26.3,3.8,25.3,4.2,24.5z"/>
</g>
</svg>
